G04 EAGLE Gerber X2 export*
G75*
%MOMM*%
%FSLAX34Y34*%
%LPD*%
%AMOC8*
5,1,8,0,0,1.08239X$1,22.5*%
G01*
%ADD10C,2.082800*%
%ADD11R,0.194666X0.038931*%
%ADD12R,0.389331X0.038934*%
%ADD13R,0.622931X0.038931*%
%ADD14R,0.856528X0.038934*%
%ADD15R,1.206928X0.038934*%
%ADD16R,1.440528X0.038931*%
%ADD17R,1.401594X0.038934*%
%ADD18R,1.829859X0.038934*%
%ADD19R,2.141325X0.038931*%
%ADD20R,2.842122X0.038934*%
%ADD21R,2.608522X0.038931*%
%ADD22R,1.868794X0.038934*%
%ADD23R,1.557328X0.038934*%
%ADD24R,1.440525X0.038931*%
%ADD25R,1.479459X0.038934*%
%ADD26R,1.090128X0.038934*%
%ADD27R,1.051197X0.038931*%
%ADD28R,0.895463X0.038934*%
%ADD29R,0.934394X0.038934*%
%ADD30R,1.129059X0.038931*%
%ADD31R,0.973328X0.038934*%
%ADD32R,0.934394X0.038931*%
%ADD33R,0.895466X0.038934*%
%ADD34R,0.934397X0.038931*%
%ADD35R,1.012259X0.038934*%
%ADD36R,1.129063X0.038934*%
%ADD37R,1.090128X0.038931*%
%ADD38R,0.973331X0.038931*%
%ADD39R,1.012266X0.038934*%
%ADD40R,0.778666X0.038931*%
%ADD41R,0.545063X0.038934*%
%ADD42R,0.583997X0.038931*%
%ADD43R,0.778663X0.038934*%
%ADD44R,1.051194X0.038931*%
%ADD45R,1.051197X0.038934*%
%ADD46R,0.895463X0.038931*%
%ADD47R,0.856531X0.038934*%
%ADD48R,0.934397X0.038934*%
%ADD49R,0.856528X0.038931*%
%ADD50R,1.012266X0.038931*%
%ADD51R,0.973331X0.038934*%
%ADD52R,0.817594X0.038934*%
%ADD53R,0.778663X0.038931*%
%ADD54R,0.739728X0.038934*%
%ADD55R,0.778666X0.038934*%
%ADD56R,0.739731X0.038931*%
%ADD57R,0.739734X0.038931*%
%ADD58R,1.012263X0.038931*%
%ADD59R,0.817594X0.038931*%
%ADD60R,0.895459X0.038934*%
%ADD61R,1.012259X0.038931*%
%ADD62R,1.596259X0.038934*%
%ADD63R,2.374922X0.038931*%
%ADD64R,2.958919X0.038934*%
%ADD65R,3.815450X0.038934*%
%ADD66R,4.321581X0.038931*%
%ADD67R,4.555181X0.038934*%
%ADD68R,1.012263X0.038934*%
%ADD69R,4.866647X0.038931*%
%ADD70R,5.217047X0.038934*%
%ADD71R,2.842125X0.038934*%
%ADD72R,0.739731X0.038934*%
%ADD73R,2.413856X0.038931*%
%ADD74R,0.661866X0.038931*%
%ADD75R,2.258125X0.038934*%
%ADD76R,0.622931X0.038934*%
%ADD77R,2.258128X0.038931*%
%ADD78R,2.063456X0.038934*%
%ADD79R,0.467197X0.038934*%
%ADD80R,2.141322X0.038934*%
%ADD81R,0.428266X0.038934*%
%ADD82R,0.272534X0.038931*%
%ADD83R,2.297056X0.038934*%
%ADD84R,0.272531X0.038934*%
%ADD85R,2.063459X0.038934*%
%ADD86R,0.233597X0.038934*%
%ADD87R,1.751991X0.038931*%
%ADD88R,0.272531X0.038931*%
%ADD89R,1.440525X0.038934*%
%ADD90R,0.311463X0.038934*%
%ADD91R,1.129063X0.038931*%
%ADD92R,0.311463X0.038931*%
%ADD93R,0.700800X0.038934*%
%ADD94R,0.622934X0.038931*%
%ADD95R,0.506134X0.038934*%
%ADD96R,0.467200X0.038934*%
%ADD97R,0.350397X0.038934*%
%ADD98R,0.428269X0.038931*%
%ADD99R,0.350397X0.038931*%
%ADD100R,0.350400X0.038934*%
%ADD101R,0.311466X0.038934*%
%ADD102R,0.311466X0.038931*%
%ADD103R,0.272534X0.038934*%
%ADD104R,0.389331X0.038931*%
%ADD105R,0.545063X0.038931*%
%ADD106R,0.233600X0.038934*%
%ADD107R,0.350400X0.038931*%
%ADD108R,1.167994X0.038934*%
%ADD109R,0.584000X0.038934*%
%ADD110R,1.245863X0.038931*%
%ADD111R,0.428263X0.038934*%
%ADD112R,0.506131X0.038931*%
%ADD113R,0.233597X0.038931*%
%ADD114R,1.129066X0.038931*%
%ADD115R,0.622928X0.038934*%
%ADD116R,0.194666X0.038934*%
%ADD117R,0.233600X0.038931*%
%ADD118R,0.467197X0.038931*%
%ADD119R,0.233603X0.038934*%
%ADD120R,1.284797X0.038931*%
%ADD121R,1.440528X0.038934*%
%ADD122R,0.428266X0.038931*%
%ADD123R,1.167997X0.038934*%
%ADD124R,0.817600X0.038934*%
%ADD125R,1.090131X0.038931*%
%ADD126R,0.700797X0.038931*%
%ADD127R,0.545066X0.038931*%
%ADD128R,0.817597X0.038931*%
%ADD129R,0.077869X0.038934*%
%ADD130R,0.077866X0.038934*%
%ADD131R,0.622934X0.038934*%
%ADD132R,0.700797X0.038934*%
%ADD133R,0.661863X0.038934*%
%ADD134R,0.622928X0.038931*%
%ADD135R,0.467200X0.038931*%
%ADD136R,0.817597X0.038934*%
%ADD137R,1.090131X0.038934*%
%ADD138R,0.545066X0.038934*%
%ADD139R,1.557328X0.038931*%
%ADD140R,0.428263X0.038931*%
%ADD141R,3.231453X0.038934*%
%ADD142R,4.126916X0.038931*%
%ADD143R,4.438378X0.038934*%
%ADD144R,0.583997X0.038934*%
%ADD145R,4.087981X0.038931*%
%ADD146R,4.126916X0.038934*%
%ADD147R,1.051194X0.038934*%
%ADD148R,4.087984X0.038934*%
%ADD149R,1.129059X0.038934*%
%ADD150R,4.126919X0.038931*%
%ADD151R,0.739728X0.038931*%
%ADD152R,3.893319X0.038934*%
%ADD153R,0.700794X0.038934*%
%ADD154R,3.270388X0.038931*%
%ADD155R,0.895466X0.038931*%
%ADD156R,3.309322X0.038934*%
%ADD157R,1.362659X0.038934*%
%ADD158R,3.309316X0.038931*%
%ADD159R,1.206931X0.038931*%
%ADD160R,3.192519X0.038934*%
%ADD161R,2.919987X0.038934*%
%ADD162R,2.647456X0.038931*%
%ADD163R,2.686387X0.038934*%
%ADD164R,2.491725X0.038931*%
%ADD165R,2.335991X0.038934*%
%ADD166R,0.583994X0.038934*%
%ADD167R,2.803191X0.038934*%
%ADD168R,2.335991X0.038931*%
%ADD169R,2.024525X0.038934*%
%ADD170R,1.713063X0.038931*%
%ADD171R,1.479463X0.038934*%
%ADD172R,1.245863X0.038934*%
%ADD173R,0.583994X0.038931*%
%ADD174R,0.778659X0.038934*%
%ADD175R,1.206925X0.038934*%
%ADD176R,0.973328X0.038931*%
%ADD177R,0.934400X0.038931*%
%ADD178R,1.323728X0.038931*%
%ADD179R,0.311469X0.038934*%
%ADD180R,1.362663X0.038934*%
%ADD181R,0.311469X0.038931*%
%ADD182R,1.479459X0.038931*%
%ADD183R,0.895459X0.038931*%
%ADD184R,1.362663X0.038931*%
%ADD185R,1.323728X0.038934*%
%ADD186R,1.284791X0.038934*%
%ADD187R,1.284794X0.038931*%
%ADD188R,1.284794X0.038934*%
%ADD189R,1.401594X0.038931*%
%ADD190R,1.401597X0.038934*%
%ADD191R,1.518394X0.038934*%
%ADD192R,1.557325X0.038934*%
%ADD193R,1.596259X0.038931*%
%ADD194R,1.518394X0.038931*%
%ADD195R,1.479456X0.038931*%
%ADD196R,0.856531X0.038931*%
%ADD197R,1.206928X0.038931*%
%ADD198R,5.217044X0.038934*%
%ADD199R,0.038931X0.038934*%
%ADD200R,10.901288X0.038934*%
%ADD201R,12.964744X0.038931*%
%ADD202R,17.403128X0.038934*%
%ADD203R,18.337522X0.038934*%
%ADD204R,0.661866X0.038934*%
%ADD205R,19.232988X0.038931*%
%ADD206R,1.401597X0.038931*%
%ADD207R,19.933781X0.038934*%
%ADD208R,10.044756X0.038931*%
%ADD209R,3.192522X0.038931*%
%ADD210R,4.905578X0.038931*%
%ADD211R,0.389334X0.038931*%
%ADD212R,1.362659X0.038931*%
%ADD213R,8.098100X0.038934*%
%ADD214R,5.178113X0.038934*%
%ADD215R,7.864500X0.038934*%
%ADD216R,4.126919X0.038934*%
%ADD217R,5.178113X0.038931*%
%ADD218R,3.542919X0.038931*%
%ADD219R,1.401591X0.038931*%
%ADD220R,4.165850X0.038934*%
%ADD221R,2.297059X0.038934*%
%ADD222R,1.751991X0.038934*%
%ADD223R,0.700800X0.038931*%
%ADD224R,0.506131X0.038934*%
%ADD225R,1.401591X0.038934*%
%ADD226R,1.284791X0.038931*%
%ADD227R,0.700794X0.038931*%
%ADD228R,2.881053X0.038934*%
%ADD229R,0.194669X0.038934*%
%ADD230R,2.919984X0.038934*%
%ADD231R,0.194669X0.038931*%
%ADD232R,2.919987X0.038931*%
%ADD233R,1.635194X0.038934*%
%ADD234R,0.233603X0.038931*%
%ADD235R,1.167994X0.038931*%
%ADD236R,0.661863X0.038931*%
%ADD237R,0.389334X0.038934*%
%ADD238R,0.739734X0.038934*%
%ADD239R,0.584000X0.038931*%
%ADD240R,1.713059X0.038934*%
%ADD241R,1.713059X0.038931*%
%ADD242R,1.090125X0.038934*%
%ADD243R,0.506128X0.038931*%
%ADD244R,2.608522X0.038934*%
%ADD245R,1.829859X0.038931*%
%ADD246R,1.674125X0.038934*%
%ADD247R,1.167997X0.038931*%
%ADD248R,0.506128X0.038934*%
%ADD249R,0.038934X0.038931*%
%ADD250R,0.428269X0.038934*%
%ADD251R,1.790925X0.038934*%
%ADD252R,1.868791X0.038934*%
%ADD253R,1.635194X0.038931*%
%ADD254R,0.350403X0.038934*%
%ADD255R,2.102391X0.038934*%
%ADD256R,1.479456X0.038934*%
%ADD257R,3.153584X0.038931*%
%ADD258R,3.542919X0.038934*%
%ADD259R,3.854384X0.038934*%
%ADD260R,1.674128X0.038931*%
%ADD261R,1.596263X0.038931*%
%ADD262R,1.674125X0.038931*%
%ADD263R,1.596263X0.038934*%
%ADD264R,2.725322X0.038931*%
%ADD265R,5.723175X0.038934*%
%ADD266R,1.674128X0.038934*%
%ADD267R,7.124769X0.038931*%
%ADD268R,7.942369X0.038934*%
%ADD269R,9.188228X0.038934*%
%ADD270R,10.473022X0.038931*%
%ADD271R,2.569587X0.038931*%
%ADD272R,5.100244X0.038934*%
%ADD273R,2.997850X0.038934*%
%ADD274R,5.255975X0.038931*%
%ADD275R,3.348250X0.038931*%
%ADD276R,5.255978X0.038934*%
%ADD277R,5.567441X0.038934*%
%ADD278R,4.983447X0.038931*%
%ADD279R,3.620784X0.038934*%
%ADD280R,3.387184X0.038931*%
%ADD281R,0.038934X0.038934*%
%ADD282R,2.297056X0.038931*%
%ADD283R,0.506134X0.038931*%
%ADD284R,3.426119X0.038934*%
%ADD285R,2.569591X0.038934*%
%ADD286R,1.518391X0.038934*%
%ADD287R,2.219191X0.038931*%
%ADD288R,1.518397X0.038931*%
%ADD289R,0.545069X0.038934*%
%ADD290R,1.479463X0.038931*%
%ADD291R,0.155734X0.038934*%
%ADD292R,1.245859X0.038934*%
%ADD293R,1.245859X0.038931*%
%ADD294R,1.206931X0.038934*%
%ADD295R,1.323725X0.038934*%
%ADD296R,1.323725X0.038931*%
%ADD297R,0.155731X0.038934*%
%ADD298R,1.790925X0.038931*%
%ADD299R,2.180259X0.038934*%
%ADD300R,2.452794X0.038934*%
%ADD301R,2.686391X0.038931*%
%ADD302R,3.036791X0.038931*%
%ADD303R,1.518397X0.038934*%
%ADD304R,3.192522X0.038934*%
%ADD305R,3.387184X0.038934*%
%ADD306R,0.116800X0.038934*%
%ADD307R,1.946656X0.038931*%
%ADD308R,0.077869X0.038931*%
%ADD309R,1.090125X0.038931*%
%ADD310R,0.934400X0.038934*%
%ADD311R,1.129066X0.038934*%


D10*
X747522Y215900D03*
X776478Y215900D03*
X747522Y241300D03*
X776478Y241300D03*
X23622Y25400D03*
X52578Y25400D03*
X23622Y50800D03*
X52578Y50800D03*
D11*
X180136Y12700D03*
D12*
X180720Y13089D03*
D13*
X181888Y13479D03*
D14*
X183445Y13868D03*
D15*
X185197Y14257D03*
D16*
X186755Y14647D03*
D17*
X187339Y15036D03*
D18*
X190648Y15425D03*
D19*
X192984Y15815D03*
D20*
X197267Y16204D03*
D21*
X202717Y16593D03*
D22*
X209531Y16983D03*
D23*
X212645Y17372D03*
D24*
X215176Y17761D03*
D25*
X218485Y18151D03*
D23*
X222378Y18540D03*
D16*
X225688Y18929D03*
D26*
X228218Y19319D03*
D27*
X230749Y19708D03*
D28*
X233474Y20097D03*
D29*
X236005Y20487D03*
D30*
X238536Y20876D03*
D31*
X240482Y21265D03*
D32*
X242624Y21655D03*
D33*
X244765Y22044D03*
X247101Y22433D03*
D34*
X250021Y22823D03*
D35*
X252746Y23212D03*
D36*
X255666Y23601D03*
D37*
X257808Y23991D03*
D31*
X260338Y24380D03*
D38*
X263064Y24769D03*
D39*
X265594Y25159D03*
D31*
X268125Y25548D03*
D40*
X270656Y25937D03*
D41*
X272213Y26327D03*
D42*
X274354Y26716D03*
D43*
X276885Y27105D03*
D29*
X279221Y27495D03*
D44*
X281752Y27884D03*
D45*
X284477Y28273D03*
D46*
X286813Y28663D03*
D47*
X288954Y29052D03*
D48*
X291290Y29441D03*
D32*
X293626Y29831D03*
D29*
X295573Y30220D03*
D28*
X297714Y30609D03*
D49*
X299855Y30999D03*
D29*
X302191Y31388D03*
D50*
X304917Y31777D03*
D39*
X306863Y32167D03*
D51*
X309005Y32556D03*
D34*
X311146Y32945D03*
D14*
X313093Y33335D03*
D52*
X315234Y33724D03*
D53*
X316986Y34113D03*
D43*
X318933Y34503D03*
D53*
X320879Y34892D03*
D54*
X322631Y35281D03*
D55*
X324383Y35671D03*
D56*
X326135Y36060D03*
D55*
X327887Y36449D03*
D57*
X329639Y36839D03*
D43*
X331391Y37228D03*
D47*
X332949Y37617D03*
D34*
X335285Y38007D03*
D29*
X337621Y38396D03*
D34*
X339178Y38785D03*
D48*
X340346Y39175D03*
D29*
X341903Y39564D03*
D58*
X343850Y39953D03*
D48*
X346186Y40343D03*
D47*
X348133Y40732D03*
D53*
X349690Y41121D03*
D43*
X351247Y41511D03*
D59*
X352610Y41900D03*
D29*
X354362Y42289D03*
D60*
X356893Y42679D03*
D37*
X359423Y43068D03*
D31*
X360786Y43457D03*
D34*
X362538Y43847D03*
D51*
X364290Y44236D03*
D39*
X365653Y44625D03*
D38*
X367794Y45015D03*
D33*
X370130Y45404D03*
D29*
X372271Y45793D03*
D61*
X373829Y46183D03*
D62*
X186365Y46572D03*
D28*
X375581Y46572D03*
D63*
X189480Y46961D03*
D49*
X377332Y46961D03*
D64*
X192400Y47351D03*
D52*
X379474Y47351D03*
D65*
X196683Y47740D03*
D28*
X381810Y47740D03*
D66*
X199213Y48129D03*
D58*
X383562Y48129D03*
D67*
X200771Y48519D03*
D68*
X385119Y48519D03*
D69*
X202328Y48908D03*
D58*
X386287Y48908D03*
D70*
X204080Y49297D03*
D33*
X387260Y49297D03*
D71*
X220237Y49687D03*
D72*
X388818Y49687D03*
D73*
X226661Y50076D03*
D74*
X389596Y50076D03*
D75*
X231722Y50465D03*
D76*
X390570Y50465D03*
D77*
X236394Y50855D03*
D42*
X391154Y50855D03*
D78*
X239704Y51244D03*
D79*
X392127Y51244D03*
D80*
X243208Y51633D03*
D81*
X392322Y51633D03*
D63*
X247101Y52023D03*
D82*
X393490Y52023D03*
D83*
X251384Y52412D03*
D84*
X393879Y52412D03*
D85*
X254498Y52801D03*
D86*
X394074Y52801D03*
D87*
X256834Y53191D03*
D88*
X394268Y53191D03*
D89*
X259170Y53580D03*
D90*
X394463Y53580D03*
D91*
X261896Y53969D03*
D92*
X394463Y53969D03*
D33*
X264232Y54358D03*
D90*
X394463Y54358D03*
D93*
X265984Y54748D03*
D90*
X394463Y54748D03*
D94*
X266762Y55137D03*
D92*
X394463Y55137D03*
D95*
X267346Y55526D03*
D90*
X394463Y55526D03*
D96*
X267930Y55916D03*
D97*
X394268Y55916D03*
D98*
X268514Y56305D03*
D99*
X394268Y56305D03*
D100*
X268904Y56694D03*
D97*
X394268Y56694D03*
D99*
X269293Y57084D03*
X394268Y57084D03*
D97*
X269682Y57473D03*
X394268Y57473D03*
D101*
X269877Y57862D03*
D97*
X394268Y57862D03*
D102*
X270266Y58252D03*
D99*
X394268Y58252D03*
D103*
X270461Y58641D03*
D97*
X394268Y58641D03*
D104*
X197072Y59030D03*
D105*
X221600Y59030D03*
D102*
X270656Y59030D03*
D104*
X394074Y59030D03*
D106*
X195515Y59420D03*
D84*
X198824Y59420D03*
D43*
X221210Y59420D03*
D84*
X270850Y59420D03*
D12*
X394074Y59420D03*
D54*
X197267Y59809D03*
D28*
X221405Y59809D03*
D101*
X271045Y59809D03*
D100*
X393879Y59809D03*
D49*
X197072Y60198D03*
D44*
X221405Y60198D03*
D82*
X245544Y60198D03*
D92*
X271434Y60198D03*
D107*
X393879Y60198D03*
D48*
X197072Y60588D03*
D108*
X221600Y60588D03*
D109*
X245544Y60588D03*
D84*
X271629Y60588D03*
D100*
X393879Y60588D03*
D61*
X197072Y60977D03*
D110*
X221600Y60977D03*
D40*
X245738Y60977D03*
D102*
X271824Y60977D03*
D107*
X393879Y60977D03*
D26*
X197072Y61366D03*
D111*
X217123Y61366D03*
D76*
X225882Y61366D03*
D33*
X245933Y61366D03*
D101*
X272213Y61366D03*
D100*
X393879Y61366D03*
D41*
X193568Y61756D03*
D84*
X201549Y61756D03*
D100*
X216344Y61756D03*
D81*
X226856Y61756D03*
D68*
X245738Y61756D03*
D103*
X272408Y61756D03*
D100*
X393879Y61756D03*
D112*
X192984Y62145D03*
D113*
X201744Y62145D03*
D92*
X215760Y62145D03*
D102*
X227440Y62145D03*
D114*
X245933Y62145D03*
D82*
X272408Y62145D03*
D104*
X393684Y62145D03*
D99*
X418407Y62145D03*
D79*
X192400Y62534D03*
D86*
X201744Y62534D03*
D84*
X215565Y62534D03*
D103*
X227634Y62534D03*
D15*
X245933Y62534D03*
D84*
X272797Y62534D03*
D12*
X393684Y62534D03*
D115*
X418991Y62534D03*
D81*
X191816Y62924D03*
D116*
X201939Y62924D03*
D84*
X215565Y62924D03*
D103*
X227634Y62924D03*
D12*
X241456Y62924D03*
D109*
X249437Y62924D03*
D84*
X273186Y62924D03*
D12*
X393684Y62924D03*
D52*
X419964Y62924D03*
D99*
X191427Y63313D03*
D11*
X201939Y63313D03*
D113*
X215371Y63313D03*
D82*
X227634Y63313D03*
D117*
X240677Y63313D03*
D118*
X250410Y63313D03*
D92*
X273381Y63313D03*
D104*
X393684Y63313D03*
D58*
X420548Y63313D03*
D84*
X191037Y63702D03*
D116*
X201939Y63702D03*
D84*
X215565Y63702D03*
D119*
X227440Y63702D03*
D116*
X240482Y63702D03*
D12*
X250800Y63702D03*
D101*
X273770Y63702D03*
D12*
X393684Y63702D03*
D36*
X421132Y63702D03*
D11*
X191037Y64092D03*
D113*
X201744Y64092D03*
D88*
X215565Y64092D03*
D117*
X227050Y64092D03*
D113*
X240288Y64092D03*
D99*
X250994Y64092D03*
D102*
X273770Y64092D03*
D99*
X393490Y64092D03*
D120*
X421911Y64092D03*
D86*
X191232Y64481D03*
X201744Y64481D03*
D84*
X215955Y64481D03*
D103*
X226856Y64481D03*
D116*
X240482Y64481D03*
D90*
X251189Y64481D03*
D84*
X273965Y64481D03*
D12*
X393295Y64481D03*
D121*
X422690Y64481D03*
D97*
X191816Y64870D03*
D86*
X201744Y64870D03*
D101*
X216539Y64870D03*
D103*
X226466Y64870D03*
D84*
X240872Y64870D03*
X250994Y64870D03*
D101*
X274160Y64870D03*
D12*
X393295Y64870D03*
X417044Y64870D03*
D68*
X426388Y64870D03*
D112*
X192984Y65260D03*
D88*
X201549Y65260D03*
D122*
X217512Y65260D03*
D102*
X225882Y65260D03*
D99*
X241650Y65260D03*
D102*
X250800Y65260D03*
D82*
X274354Y65260D03*
D104*
X393295Y65260D03*
D107*
X416850Y65260D03*
D34*
X428335Y65260D03*
D14*
X194736Y65649D03*
D86*
X200965Y65649D03*
D108*
X221600Y65649D03*
D123*
X246128Y65649D03*
D101*
X274549Y65649D03*
D12*
X393295Y65649D03*
D103*
X416460Y65649D03*
D124*
X430087Y65649D03*
D37*
X196293Y66038D03*
D44*
X221405Y66038D03*
D125*
X246128Y66038D03*
D107*
X274744Y66038D03*
D104*
X393295Y66038D03*
D88*
X416071Y66038D03*
D126*
X431450Y66038D03*
D68*
X196293Y66428D03*
D29*
X221600Y66428D03*
D45*
X245933Y66428D03*
D97*
X275133Y66428D03*
D12*
X393295Y66428D03*
D84*
X416071Y66428D03*
D54*
X432812Y66428D03*
D60*
X196488Y66817D03*
D54*
X221405Y66817D03*
D33*
X245933Y66817D03*
D12*
X275328Y66817D03*
X393295Y66817D03*
D84*
X415682Y66817D03*
D43*
X433786Y66817D03*
D126*
X196683Y67206D03*
D127*
X221210Y67206D03*
D40*
X245738Y67206D03*
D99*
X275522Y67206D03*
D104*
X393295Y67206D03*
D117*
X415487Y67206D03*
D128*
X434759Y67206D03*
D129*
X197461Y67596D03*
D130*
X221210Y67596D03*
D131*
X245349Y67596D03*
D97*
X275522Y67596D03*
D12*
X393295Y67596D03*
D84*
X415292Y67596D03*
D132*
X436511Y67596D03*
D100*
X275912Y67985D03*
X393100Y67985D03*
D84*
X415292Y67985D03*
D133*
X437484Y67985D03*
D99*
X276301Y68374D03*
D107*
X393100Y68374D03*
D113*
X415098Y68374D03*
D42*
X439042Y68374D03*
D100*
X276690Y68764D03*
X393100Y68764D03*
D84*
X414903Y68764D03*
D115*
X440015Y68764D03*
D99*
X277080Y69153D03*
D104*
X392906Y69153D03*
D88*
X414903Y69153D03*
D134*
X441183Y69153D03*
D12*
X277274Y69542D03*
X392906Y69542D03*
D101*
X414708Y69542D03*
D41*
X442740Y69542D03*
D12*
X277664Y69932D03*
X392906Y69932D03*
D101*
X414708Y69932D03*
D96*
X443519Y69932D03*
D105*
X278442Y70321D03*
D104*
X392906Y70321D03*
D102*
X414319Y70321D03*
D98*
X444492Y70321D03*
D76*
X279221Y70710D03*
D12*
X392906Y70710D03*
D101*
X414319Y70710D03*
D81*
X445660Y70710D03*
D126*
X280000Y71100D03*
D104*
X392906Y71100D03*
D102*
X414319Y71100D03*
D135*
X446634Y71100D03*
D136*
X280973Y71489D03*
D12*
X392906Y71489D03*
D101*
X413930Y71489D03*
D95*
X447607Y71489D03*
D137*
X282336Y71878D03*
D12*
X392906Y71878D03*
D101*
X413930Y71878D03*
D138*
X448580Y71878D03*
D139*
X285061Y72268D03*
D140*
X393100Y72268D03*
D99*
X413735Y72268D03*
D127*
X449748Y72268D03*
D141*
X293432Y72657D03*
D79*
X393295Y72657D03*
D97*
X413735Y72657D03*
D138*
X450527Y72657D03*
D142*
X298298Y73046D03*
D42*
X393879Y73046D03*
D92*
X413540Y73046D03*
D42*
X451500Y73046D03*
D143*
X299855Y73436D03*
D54*
X394658Y73436D03*
D97*
X413346Y73436D03*
D115*
X452474Y73436D03*
D143*
X303749Y73825D03*
D14*
X395242Y73825D03*
D97*
X413346Y73825D03*
D144*
X453447Y73825D03*
D145*
X309394Y74214D03*
D32*
X395631Y74214D03*
D99*
X413346Y74214D03*
D134*
X454420Y74214D03*
D146*
X314261Y74604D03*
D147*
X396215Y74604D03*
D100*
X412956Y74604D03*
D76*
X455199Y74604D03*
D148*
X319517Y74993D03*
D149*
X396604Y74993D03*
D100*
X412956Y74993D03*
D133*
X456172Y74993D03*
D150*
X322437Y75382D03*
D99*
X392711Y75382D03*
D151*
X399330Y75382D03*
D107*
X412956Y75382D03*
D74*
X456951Y75382D03*
D152*
X326330Y75772D03*
D90*
X392516Y75772D03*
D52*
X400887Y75772D03*
D12*
X412762Y75772D03*
D153*
X457924Y75772D03*
D154*
X331002Y76161D03*
D92*
X392516Y76161D03*
D155*
X402834Y76161D03*
D99*
X412567Y76161D03*
D53*
X459092Y76161D03*
D141*
X335090Y76550D03*
D90*
X392516Y76550D03*
D48*
X404196Y76550D03*
D12*
X412372Y76550D03*
D43*
X460260Y76550D03*
D156*
X339762Y76940D03*
D97*
X392322Y76940D03*
D157*
X407506Y76940D03*
D72*
X461233Y76940D03*
D158*
X344045Y77329D03*
D99*
X392322Y77329D03*
D159*
X407895Y77329D03*
D151*
X462012Y77329D03*
D160*
X348911Y77718D03*
D97*
X392322Y77718D03*
D36*
X408284Y77718D03*
D93*
X462985Y77718D03*
D161*
X353778Y78108D03*
D97*
X392322Y78108D03*
D45*
X408674Y78108D03*
D72*
X463959Y78108D03*
D162*
X359034Y78497D03*
D99*
X392322Y78497D03*
D46*
X409063Y78497D03*
D56*
X465127Y78497D03*
D163*
X361954Y78886D03*
D97*
X392322Y78886D03*
D55*
X409647Y78886D03*
D72*
X465905Y78886D03*
D164*
X366042Y79276D03*
D102*
X392127Y79276D03*
D126*
X410036Y79276D03*
D128*
X467073Y79276D03*
D165*
X371493Y79665D03*
D101*
X391348Y79665D03*
D166*
X410231Y79665D03*
D136*
X468241Y79665D03*
D167*
X378890Y80054D03*
D79*
X410426Y80054D03*
D124*
X469409Y80054D03*
D168*
X381226Y80444D03*
D104*
X410426Y80444D03*
D128*
X470188Y80444D03*
D169*
X382783Y80833D03*
D97*
X410620Y80833D03*
D43*
X471161Y80833D03*
D170*
X384340Y81222D03*
D99*
X410620Y81222D03*
D49*
X472329Y81222D03*
D171*
X385508Y81612D03*
D97*
X410620Y81612D03*
D47*
X473108Y81612D03*
D172*
X386676Y82001D03*
D97*
X410620Y82001D03*
D14*
X474276Y82001D03*
D50*
X387844Y82390D03*
D99*
X410620Y82390D03*
D128*
X475249Y82390D03*
D93*
X389402Y82780D03*
D97*
X410620Y82780D03*
D52*
X476417Y82780D03*
D84*
X391154Y83169D03*
D97*
X410620Y83169D03*
D43*
X477391Y83169D03*
D88*
X391154Y83558D03*
D102*
X410426Y83558D03*
D53*
X478559Y83558D03*
D101*
X390959Y83948D03*
X410426Y83948D03*
D72*
X479532Y83948D03*
D102*
X390959Y84337D03*
D107*
X410231Y84337D03*
D53*
X480505Y84337D03*
D101*
X390959Y84726D03*
D100*
X410231Y84726D03*
D43*
X481673Y84726D03*
D101*
X390959Y85116D03*
X410036Y85116D03*
D55*
X482452Y85116D03*
D88*
X390764Y85505D03*
D102*
X410036Y85505D03*
D128*
X483425Y85505D03*
D84*
X390764Y85894D03*
D90*
X409647Y85894D03*
D124*
X484593Y85894D03*
D88*
X390764Y86284D03*
D92*
X409647Y86284D03*
D40*
X485567Y86284D03*
D84*
X390764Y86673D03*
X409452Y86673D03*
D124*
X486540Y86673D03*
D84*
X390764Y87062D03*
X409452Y87062D03*
D55*
X487903Y87062D03*
D92*
X390570Y87452D03*
D102*
X409258Y87452D03*
D53*
X489071Y87452D03*
D90*
X390570Y87841D03*
D84*
X409063Y87841D03*
D43*
X490239Y87841D03*
D92*
X390570Y88230D03*
D88*
X409063Y88230D03*
D128*
X491212Y88230D03*
D90*
X390570Y88620D03*
D84*
X409063Y88620D03*
D52*
X491991Y88620D03*
D90*
X390570Y89009D03*
D97*
X409452Y89009D03*
D52*
X492769Y89009D03*
D88*
X390375Y89398D03*
D173*
X410231Y89398D03*
D49*
X493743Y89398D03*
D101*
X390180Y89788D03*
D153*
X410815Y89788D03*
D14*
X494521Y89788D03*
D101*
X390180Y90177D03*
D174*
X411204Y90177D03*
D28*
X495495Y90177D03*
D88*
X389986Y90566D03*
D49*
X411594Y90566D03*
D46*
X496663Y90566D03*
D84*
X389986Y90956D03*
D31*
X411788Y90956D03*
D14*
X498025Y90956D03*
D88*
X389986Y91345D03*
D37*
X412372Y91345D03*
D46*
X498999Y91345D03*
D103*
X389596Y91734D03*
D175*
X412956Y91734D03*
D29*
X499972Y91734D03*
D103*
X389596Y92124D03*
D101*
X408479Y92124D03*
D28*
X415682Y92124D03*
D48*
X501140Y92124D03*
D82*
X389596Y92513D03*
D107*
X408284Y92513D03*
D34*
X417044Y92513D03*
D38*
X502113Y92513D03*
D103*
X389596Y92902D03*
D100*
X408284Y92902D03*
D31*
X418018Y92902D03*
D48*
X503087Y92902D03*
D103*
X389596Y93292D03*
D100*
X408284Y93292D03*
D48*
X418991Y93292D03*
X504255Y93292D03*
D117*
X389402Y93681D03*
D102*
X408090Y93681D03*
D176*
X420354Y93681D03*
D177*
X505423Y93681D03*
D106*
X389402Y94070D03*
D101*
X408090Y94070D03*
D36*
X423079Y94070D03*
D48*
X506591Y94070D03*
D88*
X389207Y94460D03*
D107*
X407895Y94460D03*
D178*
X424831Y94460D03*
D34*
X507759Y94460D03*
D84*
X389207Y94849D03*
D179*
X407700Y94849D03*
D180*
X426972Y94849D03*
D28*
X508732Y94849D03*
D84*
X389207Y95238D03*
D179*
X407700Y95238D03*
D121*
X428140Y95238D03*
D33*
X509511Y95238D03*
D102*
X389012Y95628D03*
D181*
X407700Y95628D03*
D182*
X429114Y95628D03*
D183*
X510679Y95628D03*
D101*
X389012Y96017D03*
D103*
X407506Y96017D03*
D121*
X430476Y96017D03*
D35*
X512041Y96017D03*
D88*
X388818Y96406D03*
D181*
X407311Y96406D03*
D184*
X432034Y96406D03*
D44*
X513015Y96406D03*
D84*
X388818Y96796D03*
D103*
X407116Y96796D03*
D185*
X433396Y96796D03*
D35*
X513988Y96796D03*
D84*
X388818Y97185D03*
D103*
X407116Y97185D03*
D186*
X434759Y97185D03*
D29*
X514767Y97185D03*
D88*
X388818Y97574D03*
D82*
X407116Y97574D03*
D187*
X436316Y97574D03*
D34*
X515935Y97574D03*
D90*
X388623Y97964D03*
D103*
X406727Y97964D03*
D188*
X437874Y97964D03*
D28*
X516908Y97964D03*
D92*
X388623Y98353D03*
D82*
X406727Y98353D03*
D178*
X439236Y98353D03*
D32*
X518271Y98353D03*
D90*
X388623Y98742D03*
D103*
X406727Y98742D03*
D157*
X440988Y98742D03*
D29*
X519439Y98742D03*
D84*
X388428Y99132D03*
D103*
X406727Y99132D03*
D121*
X442546Y99132D03*
D28*
X520801Y99132D03*
D88*
X388428Y99521D03*
D117*
X406532Y99521D03*
D189*
X443908Y99521D03*
D49*
X522164Y99521D03*
D84*
X388428Y99910D03*
D103*
X406338Y99910D03*
D190*
X445466Y99910D03*
D48*
X522943Y99910D03*
D84*
X388428Y100300D03*
D103*
X406338Y100300D03*
D121*
X446828Y100300D03*
D48*
X524111Y100300D03*
D88*
X388428Y100689D03*
D82*
X406338Y100689D03*
D16*
X448386Y100689D03*
D46*
X525084Y100689D03*
D101*
X388234Y101078D03*
X406143Y101078D03*
D121*
X449943Y101078D03*
D48*
X526057Y101078D03*
D102*
X388234Y101468D03*
X406143Y101468D03*
D16*
X451500Y101468D03*
D38*
X527031Y101468D03*
D84*
X388039Y101857D03*
D101*
X406143Y101857D03*
D191*
X453058Y101857D03*
D48*
X528004Y101857D03*
D84*
X388039Y102246D03*
D101*
X406143Y102246D03*
D192*
X454810Y102246D03*
D48*
X528783Y102246D03*
D88*
X388039Y102636D03*
D107*
X405948Y102636D03*
D193*
X456172Y102636D03*
D46*
X529756Y102636D03*
D84*
X388039Y103025D03*
D179*
X405754Y103025D03*
D192*
X457146Y103025D03*
D31*
X531703Y103025D03*
D88*
X388039Y103414D03*
D181*
X405754Y103414D03*
D194*
X458508Y103414D03*
D44*
X532871Y103414D03*
D84*
X388039Y103804D03*
D179*
X405754Y103804D03*
D25*
X459871Y103804D03*
D68*
X533844Y103804D03*
D106*
X387844Y104193D03*
D103*
X405559Y104193D03*
D17*
X461039Y104193D03*
D31*
X534817Y104193D03*
D117*
X387844Y104582D03*
D82*
X405170Y104582D03*
D16*
X462401Y104582D03*
D59*
X535985Y104582D03*
D103*
X387650Y104972D03*
X405170Y104972D03*
D25*
X463764Y104972D03*
D14*
X537348Y104972D03*
D103*
X387650Y105361D03*
X405170Y105361D03*
D25*
X465321Y105361D03*
D28*
X538321Y105361D03*
D82*
X387650Y105750D03*
X405170Y105750D03*
D182*
X466489Y105750D03*
D32*
X539294Y105750D03*
D103*
X387650Y106140D03*
X405170Y106140D03*
D180*
X468241Y106140D03*
D48*
X540073Y106140D03*
D82*
X387650Y106529D03*
D117*
X404975Y106529D03*
D178*
X469604Y106529D03*
D34*
X541241Y106529D03*
D106*
X387455Y106918D03*
X404975Y106918D03*
D157*
X470967Y106918D03*
D28*
X542214Y106918D03*
D106*
X387455Y107308D03*
X404975Y107308D03*
D121*
X472913Y107308D03*
D28*
X543382Y107308D03*
D117*
X387455Y107697D03*
D113*
X404586Y107697D03*
D195*
X474276Y107697D03*
D155*
X544550Y107697D03*
D106*
X387455Y108086D03*
D86*
X404586Y108086D03*
D89*
X475639Y108086D03*
D28*
X545329Y108086D03*
D117*
X387455Y108476D03*
D113*
X404586Y108476D03*
D189*
X477001Y108476D03*
D196*
X546302Y108476D03*
D106*
X387455Y108865D03*
D86*
X404586Y108865D03*
D17*
X478169Y108865D03*
D47*
X547470Y108865D03*
D106*
X387066Y109254D03*
D86*
X404586Y109254D03*
D180*
X479532Y109254D03*
D136*
X548444Y109254D03*
D117*
X387066Y109644D03*
X404196Y109644D03*
D178*
X480895Y109644D03*
D56*
X549612Y109644D03*
D106*
X387066Y110033D03*
X404196Y110033D03*
D172*
X482063Y110033D03*
D133*
X550780Y110033D03*
D107*
X287592Y110422D03*
D117*
X387066Y110422D03*
X404196Y110422D03*
D197*
X483036Y110422D03*
D126*
X551753Y110422D03*
D198*
X299466Y110812D03*
D106*
X387066Y110812D03*
X404196Y110812D03*
D15*
X484204Y110812D03*
D54*
X553116Y110812D03*
D199*
X182472Y111201D03*
D200*
X282336Y111201D03*
D106*
X387066Y111201D03*
X404196Y111201D03*
D36*
X485372Y111201D03*
D43*
X554089Y111201D03*
D56*
X184808Y111590D03*
D201*
X280973Y111590D03*
D117*
X387066Y111590D03*
D88*
X404002Y111590D03*
D159*
X486540Y111590D03*
D126*
X555257Y111590D03*
D202*
X267736Y111980D03*
D103*
X386871Y111980D03*
D84*
X404002Y111980D03*
D17*
X488292Y111980D03*
D133*
X556620Y111980D03*
D203*
X272018Y112369D03*
D119*
X386676Y112369D03*
D86*
X403807Y112369D03*
D190*
X489460Y112369D03*
D204*
X557788Y112369D03*
D205*
X276106Y112758D03*
D82*
X386482Y112758D03*
D113*
X403807Y112758D03*
D206*
X490628Y112758D03*
D151*
X558956Y112758D03*
D207*
X279221Y113148D03*
D103*
X386482Y113148D03*
D86*
X403807Y113148D03*
D185*
X491796Y113148D03*
D43*
X559929Y113148D03*
D208*
X229776Y113537D03*
D209*
X301802Y113537D03*
D210*
X357866Y113537D03*
D211*
X385898Y113537D03*
D88*
X403612Y113537D03*
D212*
X493159Y113537D03*
D151*
X560513Y113537D03*
D213*
X219653Y113926D03*
D84*
X291485Y113926D03*
D214*
X361954Y113926D03*
D101*
X403807Y113926D03*
D25*
X494521Y113926D03*
D72*
X561681Y113926D03*
D215*
X218485Y114316D03*
D216*
X367210Y114316D03*
D97*
X404002Y114316D03*
D25*
X496079Y114316D03*
D72*
X562849Y114316D03*
D217*
X205053Y114705D03*
D218*
X370130Y114705D03*
D104*
X404196Y114705D03*
D219*
X497636Y114705D03*
D57*
X564017Y114705D03*
D220*
X199992Y115094D03*
D221*
X376359Y115094D03*
D95*
X404391Y115094D03*
D180*
X499388Y115094D03*
D72*
X564796Y115094D03*
D222*
X188312Y115484D03*
D171*
X380447Y115484D03*
D109*
X404780Y115484D03*
D180*
X500945Y115484D03*
D55*
X565769Y115484D03*
D27*
X187923Y115873D03*
D155*
X383367Y115873D03*
D223*
X405364Y115873D03*
D189*
X502697Y115873D03*
D56*
X567132Y115873D03*
D224*
X384924Y116262D03*
D55*
X405754Y116262D03*
D157*
X504449Y116262D03*
D93*
X568105Y116262D03*
D102*
X385898Y116652D03*
D34*
X406532Y116652D03*
D206*
X505812Y116652D03*
D151*
X569078Y116652D03*
D106*
X386287Y117041D03*
D137*
X407311Y117041D03*
D121*
X507175Y117041D03*
D54*
X570246Y117041D03*
D106*
X386287Y117430D03*
D188*
X407895Y117430D03*
D190*
X508927Y117430D03*
D136*
X571414Y117430D03*
D117*
X386287Y117820D03*
D88*
X402834Y117820D03*
D38*
X410620Y117820D03*
D182*
X509705Y117820D03*
D128*
X572193Y117820D03*
D106*
X386287Y118209D03*
D86*
X402639Y118209D03*
D31*
X411788Y118209D03*
D121*
X511068Y118209D03*
D47*
X573166Y118209D03*
D117*
X386287Y118598D03*
D113*
X402639Y118598D03*
D49*
X413540Y118598D03*
D189*
X512820Y118598D03*
D128*
X574140Y118598D03*
D106*
X386287Y118988D03*
D116*
X402444Y118988D03*
D43*
X415487Y118988D03*
D225*
X513988Y118988D03*
D43*
X575502Y118988D03*
D106*
X386287Y119377D03*
X402250Y119377D03*
D72*
X416850Y119377D03*
D89*
X514961Y119377D03*
D111*
X533260Y119377D03*
D72*
X576476Y119377D03*
D117*
X386287Y119766D03*
X402250Y119766D03*
D53*
X418212Y119766D03*
D219*
X515935Y119766D03*
D128*
X533649Y119766D03*
D151*
X577644Y119766D03*
D106*
X386287Y120156D03*
X402250Y120156D03*
D136*
X419575Y120156D03*
D157*
X517297Y120156D03*
D26*
X533844Y120156D03*
D132*
X578617Y120156D03*
D117*
X386287Y120545D03*
X402250Y120545D03*
D46*
X421132Y120545D03*
D226*
X518465Y120545D03*
D187*
X534428Y120545D03*
D227*
X579785Y120545D03*
D106*
X386287Y120934D03*
D116*
X402055Y120934D03*
D31*
X422690Y120934D03*
D228*
X527615Y120934D03*
D153*
X580953Y120934D03*
D229*
X386092Y121324D03*
D116*
X402055Y121324D03*
D68*
X424442Y121324D03*
D230*
X528588Y121324D03*
D93*
X582121Y121324D03*
D231*
X386092Y121713D03*
D113*
X401860Y121713D03*
D27*
X426194Y121713D03*
D232*
X529756Y121713D03*
D223*
X583289Y121713D03*
D119*
X385898Y122102D03*
D86*
X401860Y122102D03*
D45*
X427751Y122102D03*
D233*
X524500Y122102D03*
D15*
X539878Y122102D03*
D55*
X584457Y122102D03*
D119*
X385898Y122492D03*
D86*
X401860Y122492D03*
D68*
X429503Y122492D03*
D17*
X524889Y122492D03*
D123*
X541241Y122492D03*
D55*
X585625Y122492D03*
D234*
X385898Y122881D03*
D113*
X401860Y122881D03*
D176*
X431255Y122881D03*
D91*
X525084Y122881D03*
D235*
X542798Y122881D03*
D56*
X586598Y122881D03*
D119*
X385898Y123270D03*
D86*
X401860Y123270D03*
D31*
X433202Y123270D03*
D33*
X525473Y123270D03*
D36*
X544161Y123270D03*
D72*
X587766Y123270D03*
D234*
X385898Y123660D03*
D117*
X401471Y123660D03*
D32*
X434954Y123660D03*
D56*
X525863Y123660D03*
D125*
X545913Y123660D03*
D151*
X589324Y123660D03*
D119*
X385898Y124049D03*
D106*
X401471Y124049D03*
D31*
X436706Y124049D03*
D138*
X526057Y124049D03*
D31*
X547665Y124049D03*
D54*
X590102Y124049D03*
D229*
X385703Y124438D03*
D106*
X401471Y124438D03*
D29*
X438458Y124438D03*
D81*
X526252Y124438D03*
D47*
X549417Y124438D03*
D72*
X590881Y124438D03*
D231*
X385703Y124828D03*
D117*
X401471Y124828D03*
D176*
X440210Y124828D03*
D107*
X526252Y124828D03*
D53*
X550974Y124828D03*
D151*
X592049Y124828D03*
D229*
X385703Y125217D03*
D103*
X401276Y125217D03*
D68*
X441962Y125217D03*
D103*
X525863Y125217D03*
D132*
X552532Y125217D03*
X593022Y125217D03*
D117*
X385508Y125606D03*
X401082Y125606D03*
D38*
X443714Y125606D03*
D82*
X525863Y125606D03*
D74*
X553894Y125606D03*
D236*
X594385Y125606D03*
D106*
X385508Y125996D03*
X401082Y125996D03*
D39*
X445466Y125996D03*
D103*
X525863Y125996D03*
D133*
X555062Y125996D03*
D76*
X595358Y125996D03*
D116*
X385314Y126385D03*
D106*
X401082Y126385D03*
D45*
X447218Y126385D03*
D101*
X526057Y126385D03*
D54*
X556620Y126385D03*
D144*
X596332Y126385D03*
D11*
X385314Y126774D03*
D117*
X401082Y126774D03*
D58*
X448970Y126774D03*
D102*
X526057Y126774D03*
D53*
X557593Y126774D03*
D112*
X597500Y126774D03*
D116*
X385314Y127164D03*
D86*
X400692Y127164D03*
D45*
X450722Y127164D03*
D101*
X526057Y127164D03*
D43*
X559150Y127164D03*
D41*
X598862Y127164D03*
D116*
X385314Y127553D03*
D86*
X400692Y127553D03*
D147*
X452279Y127553D03*
D100*
X526252Y127553D03*
D72*
X560124Y127553D03*
D76*
X600030Y127553D03*
D11*
X385314Y127942D03*
D113*
X400692Y127942D03*
D176*
X454226Y127942D03*
D107*
X526641Y127942D03*
D53*
X561097Y127942D03*
D236*
X601393Y127942D03*
D106*
X385119Y128332D03*
D86*
X400692Y128332D03*
D29*
X455978Y128332D03*
D100*
X526641Y128332D03*
D55*
X561876Y128332D03*
D76*
X602366Y128332D03*
D117*
X385119Y128721D03*
D11*
X400498Y128721D03*
D34*
X457535Y128721D03*
D107*
X527031Y128721D03*
D53*
X563044Y128721D03*
D74*
X603340Y128721D03*
D106*
X385119Y129110D03*
D116*
X400498Y129110D03*
D28*
X459287Y129110D03*
D237*
X527225Y129110D03*
D72*
X564406Y129110D03*
D76*
X604313Y129110D03*
D116*
X384924Y129500D03*
D106*
X400303Y129500D03*
D96*
X424052Y129500D03*
D60*
X460844Y129500D03*
D12*
X527615Y129500D03*
D124*
X565574Y129500D03*
D204*
X605286Y129500D03*
D11*
X384924Y129889D03*
D117*
X400303Y129889D03*
D74*
X424247Y129889D03*
D196*
X462207Y129889D03*
D107*
X528199Y129889D03*
D128*
X566742Y129889D03*
D74*
X606454Y129889D03*
D116*
X384924Y130278D03*
D106*
X400303Y130278D03*
D55*
X424442Y130278D03*
D47*
X463764Y130278D03*
D12*
X528783Y130278D03*
D33*
X567910Y130278D03*
D204*
X607233Y130278D03*
D11*
X384924Y130668D03*
D117*
X400303Y130668D03*
D196*
X424831Y130668D03*
X465321Y130668D03*
D140*
X529367Y130668D03*
D34*
X569273Y130668D03*
D42*
X608012Y130668D03*
D106*
X384730Y131057D03*
X400303Y131057D03*
D48*
X424831Y131057D03*
D28*
X466684Y131057D03*
D41*
X529951Y131057D03*
D29*
X570052Y131057D03*
D144*
X609180Y131057D03*
D106*
X384730Y131446D03*
X400303Y131446D03*
D12*
X422106Y131446D03*
D237*
X427946Y131446D03*
D47*
X468047Y131446D03*
D138*
X530340Y131446D03*
D28*
X571025Y131446D03*
D144*
X610348Y131446D03*
D117*
X384730Y131836D03*
X400303Y131836D03*
D102*
X421716Y131836D03*
D107*
X428530Y131836D03*
D46*
X469409Y131836D03*
D112*
X531313Y131836D03*
D49*
X572388Y131836D03*
D42*
X611516Y131836D03*
D106*
X384730Y132225D03*
D84*
X400108Y132225D03*
D90*
X421327Y132225D03*
D97*
X428919Y132225D03*
D48*
X470772Y132225D03*
D138*
X532287Y132225D03*
D14*
X573556Y132225D03*
D41*
X612489Y132225D03*
D117*
X384730Y132614D03*
D113*
X399914Y132614D03*
D92*
X421327Y132614D03*
D107*
X429308Y132614D03*
D176*
X472135Y132614D03*
D134*
X533065Y132614D03*
D46*
X574529Y132614D03*
D42*
X613462Y132614D03*
D106*
X384730Y133003D03*
D86*
X399914Y133003D03*
D101*
X420938Y133003D03*
D97*
X429698Y133003D03*
D48*
X473497Y133003D03*
D76*
X533844Y133003D03*
D28*
X575308Y133003D03*
D76*
X614436Y133003D03*
D106*
X384730Y133393D03*
D86*
X399914Y133393D03*
D101*
X420548Y133393D03*
D90*
X429892Y133393D03*
D28*
X474860Y133393D03*
D115*
X535012Y133393D03*
D29*
X576281Y133393D03*
D204*
X615409Y133393D03*
D117*
X384730Y133782D03*
D113*
X399914Y133782D03*
D102*
X420548Y133782D03*
D88*
X430087Y133782D03*
D46*
X476417Y133782D03*
D134*
X536180Y133782D03*
D46*
X577254Y133782D03*
D227*
X616382Y133782D03*
D84*
X384535Y134171D03*
D86*
X399914Y134171D03*
D103*
X420354Y134171D03*
D86*
X430282Y134171D03*
D43*
X478559Y134171D03*
D204*
X537542Y134171D03*
D14*
X578228Y134171D03*
D54*
X618134Y134171D03*
D84*
X384535Y134561D03*
D86*
X399914Y134561D03*
D103*
X420354Y134561D03*
D86*
X430282Y134561D03*
D43*
X479337Y134561D03*
D153*
X538516Y134561D03*
D52*
X579201Y134561D03*
D132*
X619107Y134561D03*
D113*
X384340Y134950D03*
D117*
X399524Y134950D03*
D82*
X420354Y134950D03*
D113*
X430282Y134950D03*
D99*
X447996Y134950D03*
D59*
X480311Y134950D03*
D53*
X539684Y134950D03*
D128*
X579980Y134950D03*
D126*
X619886Y134950D03*
D86*
X384340Y135339D03*
D106*
X399524Y135339D03*
D84*
X420743Y135339D03*
D106*
X429892Y135339D03*
D138*
X448191Y135339D03*
D52*
X481479Y135339D03*
D43*
X540852Y135339D03*
D136*
X580758Y135339D03*
D133*
X620859Y135339D03*
D113*
X384340Y135729D03*
D117*
X399524Y135729D03*
D99*
X421132Y135729D03*
D88*
X429698Y135729D03*
D74*
X448386Y135729D03*
D40*
X482841Y135729D03*
D223*
X542020Y135729D03*
D128*
X581537Y135729D03*
D74*
X621638Y135729D03*
D86*
X384340Y136118D03*
D116*
X399330Y136118D03*
D111*
X421911Y136118D03*
D97*
X428919Y136118D03*
D55*
X448580Y136118D03*
X484009Y136118D03*
D204*
X542993Y136118D03*
D136*
X582316Y136118D03*
D76*
X622611Y136118D03*
D84*
X384146Y136507D03*
D116*
X399330Y136507D03*
D26*
X425220Y136507D03*
D47*
X448580Y136507D03*
D72*
X485372Y136507D03*
X544161Y136507D03*
D136*
X583094Y136507D03*
D76*
X623390Y136507D03*
D88*
X384146Y136897D03*
D11*
X399330Y136897D03*
D38*
X425415Y136897D03*
D34*
X448580Y136897D03*
D126*
X486735Y136897D03*
D40*
X545524Y136897D03*
D128*
X583873Y136897D03*
D223*
X624558Y136897D03*
D84*
X384146Y137286D03*
D106*
X399135Y137286D03*
D47*
X425610Y137286D03*
D68*
X448970Y137286D03*
D93*
X487903Y137286D03*
D72*
X546497Y137286D03*
D55*
X584846Y137286D03*
D76*
X625337Y137286D03*
D101*
X384340Y137675D03*
D106*
X399135Y137675D03*
D55*
X425999Y137675D03*
D137*
X448970Y137675D03*
D93*
X489071Y137675D03*
D238*
X547665Y137675D03*
D55*
X585625Y137675D03*
D131*
X626115Y137675D03*
D239*
X385703Y138065D03*
D11*
X398940Y138065D03*
D74*
X425804Y138065D03*
D107*
X445271Y138065D03*
D134*
X451695Y138065D03*
D126*
X490239Y138065D03*
D53*
X548638Y138065D03*
D223*
X586793Y138065D03*
D94*
X626894Y138065D03*
D48*
X387455Y138454D03*
D86*
X398746Y138454D03*
D96*
X425610Y138454D03*
D179*
X445076Y138454D03*
D101*
X453642Y138454D03*
D153*
X491407Y138454D03*
D43*
X549806Y138454D03*
D204*
X587377Y138454D03*
X627867Y138454D03*
D87*
X391154Y138843D03*
D82*
X444882Y138843D03*
D88*
X453836Y138843D03*
D151*
X492380Y138843D03*
D196*
X550974Y138843D03*
D13*
X587961Y138843D03*
D236*
X629035Y138843D03*
D222*
X391154Y139233D03*
D103*
X444882Y139233D03*
D84*
X454226Y139233D03*
D54*
X493548Y139233D03*
D60*
X551948Y139233D03*
D144*
X588545Y139233D03*
D204*
X629814Y139233D03*
D240*
X390959Y139622D03*
D103*
X444882Y139622D03*
D86*
X454420Y139622D03*
D54*
X494327Y139622D03*
D28*
X553116Y139622D03*
D41*
X589129Y139622D03*
D133*
X630593Y139622D03*
D241*
X390959Y140011D03*
D82*
X445271Y140011D03*
D113*
X454420Y140011D03*
D151*
X495495Y140011D03*
D46*
X554284Y140011D03*
D42*
X589713Y140011D03*
D236*
X631371Y140011D03*
D12*
X384340Y140401D03*
D15*
X393490Y140401D03*
D103*
X445660Y140401D03*
D86*
X454420Y140401D03*
D132*
X496468Y140401D03*
D28*
X555452Y140401D03*
D224*
X590102Y140401D03*
D133*
X632150Y140401D03*
D92*
X383951Y140790D03*
D49*
X395242Y140790D03*
D107*
X446439Y140790D03*
D88*
X454226Y140790D03*
D140*
X472524Y140790D03*
D236*
X497441Y140790D03*
D46*
X556230Y140790D03*
D112*
X590492Y140790D03*
D236*
X632929Y140790D03*
D90*
X383951Y141179D03*
D76*
X396410Y141179D03*
D96*
X447412Y141179D03*
D90*
X454031Y141179D03*
D133*
X472524Y141179D03*
D204*
X498220Y141179D03*
D48*
X557204Y141179D03*
D224*
X590881Y141179D03*
D204*
X633707Y141179D03*
D101*
X383562Y141569D03*
D79*
X397188Y141569D03*
D68*
X450527Y141569D03*
D72*
X472524Y141569D03*
D133*
X498609Y141569D03*
D28*
X558566Y141569D03*
D79*
X591076Y141569D03*
D153*
X634681Y141569D03*
D102*
X383562Y141958D03*
X397578Y141958D03*
D34*
X450527Y141958D03*
D49*
X472719Y141958D03*
D236*
X499388Y141958D03*
D32*
X559540Y141958D03*
D118*
X591465Y141958D03*
D227*
X635459Y141958D03*
D101*
X383562Y142347D03*
D84*
X397772Y142347D03*
D14*
X450916Y142347D03*
D28*
X472913Y142347D03*
D76*
X499972Y142347D03*
D51*
X560513Y142347D03*
D111*
X591660Y142347D03*
D133*
X636433Y142347D03*
D101*
X383562Y142737D03*
D84*
X397772Y142737D03*
D54*
X451111Y142737D03*
D29*
X473108Y142737D03*
D144*
X500167Y142737D03*
D51*
X561681Y142737D03*
D12*
X591854Y142737D03*
D133*
X637211Y142737D03*
D88*
X383367Y143126D03*
X397772Y143126D03*
D13*
X451306Y143126D03*
D140*
X470577Y143126D03*
D122*
X476028Y143126D03*
D127*
X500751Y143126D03*
D50*
X562654Y143126D03*
D122*
X592049Y143126D03*
D236*
X637990Y143126D03*
D84*
X383367Y143515D03*
X397772Y143515D03*
D79*
X451306Y143515D03*
D97*
X470188Y143515D03*
D90*
X477001Y143515D03*
D41*
X501140Y143515D03*
D68*
X563822Y143515D03*
D12*
X592244Y143515D03*
D115*
X638963Y143515D03*
D102*
X383172Y143905D03*
D88*
X397772Y143905D03*
D102*
X469993Y143905D03*
D88*
X477585Y143905D03*
D112*
X501335Y143905D03*
D58*
X564990Y143905D03*
D99*
X592438Y143905D03*
D173*
X639937Y143905D03*
D101*
X383172Y144294D03*
D84*
X397772Y144294D03*
X469799Y144294D03*
D106*
X477780Y144294D03*
D224*
X501724Y144294D03*
D39*
X566548Y144294D03*
D12*
X592633Y144294D03*
D115*
X640910Y144294D03*
D101*
X383172Y144683D03*
D84*
X397772Y144683D03*
X469799Y144683D03*
D106*
X478169Y144683D03*
D79*
X501919Y144683D03*
D68*
X567716Y144683D03*
D12*
X592633Y144683D03*
D76*
X641689Y144683D03*
D102*
X383172Y145073D03*
D88*
X397772Y145073D03*
X469799Y145073D03*
D117*
X478169Y145073D03*
D118*
X502308Y145073D03*
D27*
X569468Y145073D03*
D140*
X592828Y145073D03*
D13*
X642467Y145073D03*
D103*
X382978Y145462D03*
D84*
X397772Y145462D03*
X469799Y145462D03*
D86*
X478559Y145462D03*
D111*
X502503Y145462D03*
D242*
X571220Y145462D03*
D79*
X593022Y145462D03*
D76*
X643635Y145462D03*
D82*
X382978Y145851D03*
D88*
X397772Y145851D03*
D102*
X470383Y145851D03*
D113*
X478559Y145851D03*
D140*
X502503Y145851D03*
D44*
X572972Y145851D03*
D243*
X593217Y145851D03*
D74*
X644219Y145851D03*
D103*
X382978Y146241D03*
D84*
X397772Y146241D03*
D100*
X470577Y146241D03*
D84*
X478753Y146241D03*
D81*
X502892Y146241D03*
D26*
X574724Y146241D03*
D76*
X593412Y146241D03*
D132*
X645193Y146241D03*
D106*
X382783Y146630D03*
D84*
X397772Y146630D03*
D12*
X471161Y146630D03*
D84*
X478753Y146630D03*
D81*
X502892Y146630D03*
D108*
X576281Y146630D03*
D43*
X593412Y146630D03*
D204*
X646166Y146630D03*
D117*
X382783Y147019D03*
D102*
X397578Y147019D03*
D118*
X471940Y147019D03*
D88*
X478753Y147019D03*
D104*
X503087Y147019D03*
D226*
X578033Y147019D03*
D58*
X593022Y147019D03*
D74*
X646945Y147019D03*
D106*
X382783Y147409D03*
D103*
X397383Y147409D03*
D224*
X472524Y147409D03*
D101*
X478169Y147409D03*
D12*
X503087Y147409D03*
D244*
X586209Y147409D03*
D144*
X647723Y147409D03*
D88*
X382588Y147798D03*
D82*
X397383Y147798D03*
D196*
X475055Y147798D03*
D99*
X503281Y147798D03*
D245*
X583873Y147798D03*
D42*
X597110Y147798D03*
X648502Y147798D03*
D84*
X382588Y148187D03*
D106*
X397188Y148187D03*
D43*
X475444Y148187D03*
D97*
X503281Y148187D03*
D246*
X584652Y148187D03*
D144*
X597889Y148187D03*
X649281Y148187D03*
D84*
X382588Y148577D03*
D106*
X397188Y148577D03*
D132*
X475444Y148577D03*
D12*
X503476Y148577D03*
D121*
X585430Y148577D03*
D54*
X599057Y148577D03*
D144*
X650449Y148577D03*
D113*
X382394Y148966D03*
D117*
X397188Y148966D03*
D13*
X475833Y148966D03*
D104*
X503476Y148966D03*
D247*
X586404Y148966D03*
D151*
X599836Y148966D03*
D42*
X651227Y148966D03*
D86*
X382394Y149355D03*
D84*
X396994Y149355D03*
D248*
X476028Y149355D03*
D100*
X503671Y149355D03*
D124*
X587377Y149355D03*
D43*
X600420Y149355D03*
D144*
X652006Y149355D03*
D86*
X382394Y149745D03*
D84*
X396994Y149745D03*
D100*
X476417Y149745D03*
X503671Y149745D03*
D238*
X601393Y149745D03*
D144*
X652785Y149745D03*
D113*
X382394Y150134D03*
D88*
X396994Y150134D03*
D249*
X476807Y150134D03*
D211*
X503865Y150134D03*
D53*
X602366Y150134D03*
D42*
X653563Y150134D03*
D86*
X382394Y150523D03*
X396799Y150523D03*
D237*
X503865Y150523D03*
D238*
X603340Y150523D03*
D144*
X654342Y150523D03*
D88*
X382199Y150913D03*
X396604Y150913D03*
D107*
X504060Y150913D03*
D40*
X604702Y150913D03*
D42*
X655121Y150913D03*
D84*
X382199Y151302D03*
X396604Y151302D03*
D237*
X504255Y151302D03*
D55*
X605870Y151302D03*
D144*
X655899Y151302D03*
D84*
X382199Y151691D03*
X396604Y151691D03*
D237*
X504255Y151691D03*
D238*
X607233Y151691D03*
D144*
X656678Y151691D03*
D88*
X382199Y152081D03*
X396604Y152081D03*
D211*
X504255Y152081D03*
D56*
X608401Y152081D03*
D127*
X657262Y152081D03*
D106*
X382004Y152470D03*
D90*
X396410Y152470D03*
D237*
X504255Y152470D03*
D72*
X609180Y152470D03*
D138*
X658041Y152470D03*
D88*
X381810Y152859D03*
D99*
X396604Y152859D03*
D211*
X504644Y152859D03*
D196*
X610542Y152859D03*
D42*
X659014Y152859D03*
D84*
X381810Y153249D03*
D111*
X396994Y153249D03*
D237*
X504644Y153249D03*
D72*
X611905Y153249D03*
D144*
X659793Y153249D03*
D84*
X381810Y153638D03*
D41*
X397578Y153638D03*
D237*
X504644Y153638D03*
D54*
X612684Y153638D03*
D144*
X660571Y153638D03*
D88*
X381810Y154027D03*
D151*
X398162Y154027D03*
D211*
X504644Y154027D03*
D53*
X613657Y154027D03*
D134*
X661155Y154027D03*
D84*
X381810Y154417D03*
D28*
X398940Y154417D03*
D237*
X504644Y154417D03*
D54*
X614630Y154417D03*
D109*
X661739Y154417D03*
D84*
X381810Y154806D03*
D26*
X399914Y154806D03*
D250*
X504839Y154806D03*
D72*
X615798Y154806D03*
D109*
X661739Y154806D03*
D88*
X381420Y155195D03*
D110*
X400692Y155195D03*
D98*
X504839Y155195D03*
D56*
X616966Y155195D03*
D105*
X661545Y155195D03*
D84*
X381420Y155585D03*
D121*
X401666Y155585D03*
D237*
X505033Y155585D03*
D54*
X618134Y155585D03*
D224*
X661350Y155585D03*
D88*
X381420Y155974D03*
D193*
X402444Y155974D03*
D122*
X505228Y155974D03*
D126*
X619497Y155974D03*
D127*
X661155Y155974D03*
D84*
X381420Y156363D03*
D251*
X403807Y156363D03*
D12*
X505423Y156363D03*
D133*
X620470Y156363D03*
D224*
X660961Y156363D03*
D84*
X381420Y156753D03*
D252*
X404975Y156753D03*
D12*
X505423Y156753D03*
D204*
X621638Y156753D03*
D248*
X660571Y156753D03*
D88*
X381420Y157142D03*
D193*
X408284Y157142D03*
D211*
X505812Y157142D03*
D223*
X622611Y157142D03*
D243*
X660571Y157142D03*
D101*
X381226Y157531D03*
D62*
X410231Y157531D03*
D100*
X506007Y157531D03*
D93*
X623779Y157531D03*
D224*
X660182Y157531D03*
D47*
X702035Y157531D03*
D82*
X381031Y157921D03*
D253*
X411983Y157921D03*
D211*
X506201Y157921D03*
D56*
X624753Y157921D03*
D118*
X659987Y157921D03*
D194*
X701840Y157921D03*
D103*
X381031Y158310D03*
D192*
X414708Y158310D03*
D254*
X506396Y158310D03*
D72*
X625921Y158310D03*
D96*
X659598Y158310D03*
D255*
X701256Y158310D03*
D103*
X381031Y158699D03*
D256*
X416655Y158699D03*
D100*
X506785Y158699D03*
D93*
X627283Y158699D03*
D96*
X659598Y158699D03*
D163*
X700283Y158699D03*
D82*
X381031Y159089D03*
D182*
X418212Y159089D03*
D107*
X506785Y159089D03*
D126*
X628451Y159089D03*
D118*
X659209Y159089D03*
D257*
X700283Y159089D03*
D103*
X381031Y159478D03*
D171*
X419770Y159478D03*
D100*
X507175Y159478D03*
D132*
X629230Y159478D03*
D111*
X659014Y159478D03*
D258*
X700283Y159478D03*
D101*
X380836Y159867D03*
D25*
X421327Y159867D03*
D97*
X507564Y159867D03*
D72*
X630203Y159867D03*
D81*
X658625Y159867D03*
D259*
X700283Y159867D03*
D102*
X380836Y160257D03*
D139*
X422884Y160257D03*
D99*
X507953Y160257D03*
D56*
X631371Y160257D03*
D104*
X658430Y160257D03*
D260*
X687825Y160257D03*
D110*
X715272Y160257D03*
D101*
X380836Y160646D03*
D246*
X425026Y160646D03*
D12*
X508537Y160646D03*
D54*
X632539Y160646D03*
D12*
X658041Y160646D03*
D157*
X685099Y160646D03*
D15*
X717024Y160646D03*
D88*
X380642Y161035D03*
D261*
X426194Y161035D03*
D118*
X508927Y161035D03*
D126*
X633513Y161035D03*
D99*
X657846Y161035D03*
D159*
X683542Y161035D03*
D27*
X718971Y161035D03*
D84*
X380642Y161425D03*
D233*
X427946Y161425D03*
D115*
X510095Y161425D03*
D132*
X634291Y161425D03*
D12*
X657651Y161425D03*
D36*
X682374Y161425D03*
D33*
X720528Y161425D03*
D84*
X380642Y161814D03*
D62*
X429308Y161814D03*
D72*
X511068Y161814D03*
D133*
X635265Y161814D03*
D97*
X657457Y161814D03*
D68*
X681011Y161814D03*
D47*
X722280Y161814D03*
D88*
X380642Y162203D03*
D261*
X430866Y162203D03*
D49*
X512041Y162203D03*
D236*
X636433Y162203D03*
D107*
X657067Y162203D03*
D34*
X679843Y162203D03*
D196*
X723448Y162203D03*
D101*
X380447Y162593D03*
D62*
X432423Y162593D03*
D35*
X513209Y162593D03*
D133*
X637211Y162593D03*
D100*
X657067Y162593D03*
D14*
X679065Y162593D03*
D47*
X725006Y162593D03*
D102*
X380447Y162982D03*
D262*
X433980Y162982D03*
D91*
X514183Y162982D03*
D13*
X638574Y162982D03*
D104*
X656873Y162982D03*
D53*
X677897Y162982D03*
D40*
X726174Y162982D03*
D101*
X380447Y163371D03*
D246*
X435538Y163371D03*
D15*
X515351Y163371D03*
D133*
X639547Y163371D03*
D12*
X656873Y163371D03*
D43*
X677118Y163371D03*
D72*
X727536Y163371D03*
D101*
X380447Y163761D03*
D240*
X437290Y163761D03*
D186*
X516519Y163761D03*
D133*
X640715Y163761D03*
D79*
X656873Y163761D03*
D43*
X676339Y163761D03*
D72*
X729094Y163761D03*
D99*
X380252Y164150D03*
D260*
X439042Y164150D03*
D189*
X517492Y164150D03*
D223*
X641689Y164150D03*
D112*
X657067Y164150D03*
D151*
X675755Y164150D03*
D56*
X730262Y164150D03*
D12*
X379668Y164539D03*
D263*
X440599Y164539D03*
D171*
X518660Y164539D03*
D238*
X642662Y164539D03*
D138*
X657262Y164539D03*
D133*
X674587Y164539D03*
D43*
X731624Y164539D03*
D153*
X378111Y164929D03*
D233*
X442351Y164929D03*
D191*
X519633Y164929D03*
D55*
X644025Y164929D03*
D133*
X657457Y164929D03*
D144*
X673809Y164929D03*
D52*
X732987Y164929D03*
D264*
X367599Y165318D03*
D253*
X444298Y165318D03*
D110*
X522553Y165318D03*
D196*
X645193Y165318D03*
D227*
X657651Y165318D03*
D42*
X673030Y165318D03*
D59*
X734155Y165318D03*
D265*
X352221Y165707D03*
D266*
X446050Y165707D03*
D172*
X523721Y165707D03*
D124*
X646166Y165707D03*
D136*
X657846Y165707D03*
D138*
X672446Y165707D03*
D96*
X704371Y165707D03*
D43*
X735518Y165707D03*
D267*
X344434Y166097D03*
D260*
X447607Y166097D03*
D27*
X526641Y166097D03*
D40*
X647139Y166097D03*
D107*
X655121Y166097D03*
D118*
X659987Y166097D03*
D112*
X671862Y166097D03*
D58*
X703982Y166097D03*
D151*
X736491Y166097D03*
D268*
X339567Y166486D03*
D233*
X448970Y166486D03*
D45*
X528199Y166486D03*
D55*
X648307Y166486D03*
D12*
X654537Y166486D03*
D79*
X660766Y166486D03*
D224*
X671473Y166486D03*
D17*
X703592Y166486D03*
D132*
X737854Y166486D03*
D269*
X332170Y166875D03*
D233*
X450527Y166875D03*
D137*
X529561Y166875D03*
D26*
X651033Y166875D03*
D79*
X661155Y166875D03*
D41*
X670889Y166875D03*
D78*
X703008Y166875D03*
D132*
X739022Y166875D03*
D270*
X322242Y167265D03*
D193*
X451890Y167265D03*
D91*
X530924Y167265D03*
D34*
X651422Y167265D03*
D135*
X661545Y167265D03*
D112*
X670305Y167265D03*
D271*
X703592Y167265D03*
D126*
X740190Y167265D03*
D272*
X282920Y167654D03*
D62*
X453447Y167654D03*
D26*
X532287Y167654D03*
D54*
X652006Y167654D03*
D95*
X662129Y167654D03*
D224*
X669915Y167654D03*
D273*
X703787Y167654D03*
D132*
X741358Y167654D03*
D274*
X276690Y168043D03*
D193*
X455004Y168043D03*
D176*
X534039Y168043D03*
D134*
X652201Y168043D03*
D197*
X666022Y168043D03*
D275*
X703982Y168043D03*
D74*
X742331Y168043D03*
D276*
X267736Y168433D03*
D192*
X456367Y168433D03*
D14*
X535790Y168433D03*
D248*
X652785Y168433D03*
D26*
X666217Y168433D03*
D25*
X693859Y168433D03*
D17*
X715272Y168433D03*
D131*
X743304Y168433D03*
D277*
X258002Y168822D03*
D62*
X458119Y168822D03*
D29*
X537348Y168822D03*
D12*
X652979Y168822D03*
D39*
X666217Y168822D03*
D188*
X691718Y168822D03*
D172*
X717219Y168822D03*
D204*
X744278Y168822D03*
D278*
X249632Y169211D03*
D139*
X459871Y169211D03*
D61*
X538905Y169211D03*
D107*
X653174Y169211D03*
D155*
X666022Y169211D03*
D159*
X689382Y169211D03*
X718971Y169211D03*
D223*
X745640Y169211D03*
D279*
X236589Y169601D03*
D191*
X462012Y169601D03*
D39*
X540462Y169601D03*
D100*
X653174Y169601D03*
D136*
X666022Y169601D03*
D26*
X687630Y169601D03*
D137*
X720723Y169601D03*
D55*
X746808Y169601D03*
D280*
X228413Y169990D03*
D182*
X463764Y169990D03*
D58*
X542020Y169990D03*
D104*
X652979Y169990D03*
D56*
X666022Y169990D03*
D34*
X686462Y169990D03*
D27*
X722475Y169990D03*
D151*
X747782Y169990D03*
D281*
X207000Y170379D03*
D20*
X222962Y170379D03*
D191*
X465127Y170379D03*
D31*
X543772Y170379D03*
D97*
X652785Y170379D03*
D204*
X666022Y170379D03*
D33*
X685099Y170379D03*
D68*
X724227Y170379D03*
D132*
X748755Y170379D03*
D224*
X203107Y170769D03*
D281*
X207000Y170769D03*
D255*
X219264Y170769D03*
D191*
X466684Y170769D03*
D48*
X545524Y170769D03*
D97*
X652785Y170769D03*
D109*
X666022Y170769D03*
D136*
X683931Y170769D03*
D39*
X725784Y170769D03*
D54*
X749728Y170769D03*
D282*
X211283Y171158D03*
D194*
X467852Y171158D03*
D34*
X547470Y171158D03*
D107*
X652395Y171158D03*
D283*
X666022Y171158D03*
D56*
X682763Y171158D03*
D58*
X727342Y171158D03*
D126*
X750702Y171158D03*
D284*
X199408Y171547D03*
D25*
X469604Y171547D03*
D33*
X549612Y171547D03*
D100*
X652395Y171547D03*
D96*
X665827Y171547D03*
D132*
X681790Y171547D03*
D68*
X728510Y171547D03*
D133*
X751675Y171547D03*
D137*
X186560Y171937D03*
D169*
X202523Y171937D03*
D25*
X471551Y171937D03*
D29*
X551753Y171937D03*
D97*
X652006Y171937D03*
D96*
X665438Y171937D03*
D76*
X681011Y171937D03*
D31*
X729872Y171937D03*
D133*
X752454Y171937D03*
D232*
X194931Y172326D03*
D212*
X472913Y172326D03*
D61*
X553310Y172326D03*
D99*
X652006Y172326D03*
D98*
X665243Y172326D03*
D134*
X680233Y172326D03*
D34*
X731235Y172326D03*
D126*
X753427Y172326D03*
D285*
X192789Y172715D03*
D286*
X474860Y172715D03*
D31*
X554673Y172715D03*
D97*
X651617Y172715D03*
D81*
X664854Y172715D03*
D144*
X679649Y172715D03*
D14*
X732403Y172715D03*
D133*
X754400Y172715D03*
D287*
X190648Y173105D03*
D182*
X475833Y173105D03*
D176*
X555841Y173105D03*
D102*
X651422Y173105D03*
D98*
X664465Y173105D03*
D42*
X678870Y173105D03*
D53*
X733960Y173105D03*
D236*
X755179Y173105D03*
D18*
X188701Y173494D03*
D25*
X477391Y173494D03*
D35*
X557204Y173494D03*
D100*
X651227Y173494D03*
D81*
X664075Y173494D03*
D224*
X678091Y173494D03*
D72*
X734934Y173494D03*
D115*
X756152Y173494D03*
D25*
X186949Y173883D03*
D17*
X479337Y173883D03*
D35*
X559150Y173883D03*
D101*
X651033Y173883D03*
D81*
X663686Y173883D03*
D138*
X677507Y173883D03*
D132*
X736296Y173883D03*
D115*
X756931Y173883D03*
D37*
X185003Y174273D03*
D184*
X481479Y174273D03*
D50*
X561486Y174273D03*
D102*
X650643Y174273D03*
D211*
X663491Y174273D03*
D243*
X676923Y174273D03*
D227*
X737464Y174273D03*
D13*
X757710Y174273D03*
D153*
X183056Y174662D03*
D190*
X482841Y174662D03*
D39*
X563433Y174662D03*
D101*
X650643Y174662D03*
D237*
X663102Y174662D03*
D79*
X676339Y174662D03*
D204*
X738438Y174662D03*
D144*
X758294Y174662D03*
D88*
X180915Y175051D03*
D288*
X484204Y175051D03*
D38*
X565185Y175051D03*
D107*
X650449Y175051D03*
D122*
X662907Y175051D03*
X676145Y175051D03*
D236*
X739606Y175051D03*
D42*
X759072Y175051D03*
D23*
X485956Y175441D03*
D47*
X566548Y175441D03*
D101*
X650254Y175441D03*
D250*
X662518Y175441D03*
D12*
X675561Y175441D03*
D93*
X740579Y175441D03*
D41*
X759656Y175441D03*
D23*
X487513Y175830D03*
D47*
X568105Y175830D03*
D97*
X650059Y175830D03*
D12*
X662323Y175830D03*
X675171Y175830D03*
D132*
X741358Y175830D03*
D41*
X760435Y175830D03*
D182*
X489460Y176219D03*
D49*
X570052Y176219D03*
D99*
X649670Y176219D03*
D104*
X661934Y176219D03*
X674782Y176219D03*
D74*
X742331Y176219D03*
D127*
X761214Y176219D03*
D185*
X491407Y176609D03*
D14*
X571609Y176609D03*
D97*
X649670Y176609D03*
D12*
X661545Y176609D03*
D81*
X674198Y176609D03*
D204*
X743110Y176609D03*
D138*
X761992Y176609D03*
D188*
X493159Y176998D03*
D47*
X573166Y176998D03*
D101*
X649475Y176998D03*
D12*
X661155Y176998D03*
X673614Y176998D03*
D204*
X743888Y176998D03*
D289*
X762771Y176998D03*
D212*
X495105Y177387D03*
D46*
X574918Y177387D03*
D107*
X649281Y177387D03*
X660961Y177387D03*
D104*
X673225Y177387D03*
D74*
X744667Y177387D03*
D112*
X763355Y177387D03*
D17*
X496468Y177777D03*
D28*
X576476Y177777D03*
D101*
X649086Y177777D03*
D97*
X660571Y177777D03*
D12*
X672835Y177777D03*
D76*
X745640Y177777D03*
D224*
X764134Y177777D03*
D219*
X497636Y178166D03*
D183*
X578033Y178166D03*
D99*
X648891Y178166D03*
D102*
X660377Y178166D03*
D104*
X672446Y178166D03*
D13*
X746419Y178166D03*
D283*
X764912Y178166D03*
D121*
X498999Y178555D03*
D14*
X579785Y178555D03*
D101*
X648697Y178555D03*
X659987Y178555D03*
D12*
X672057Y178555D03*
D144*
X747392Y178555D03*
D95*
X765691Y178555D03*
D17*
X500361Y178945D03*
D47*
X581342Y178945D03*
D100*
X648502Y178945D03*
D101*
X659987Y178945D03*
D12*
X671667Y178945D03*
D41*
X747976Y178945D03*
D224*
X766470Y178945D03*
D206*
X501919Y179334D03*
D196*
X582900Y179334D03*
D99*
X648113Y179334D03*
D92*
X659598Y179334D03*
D104*
X671278Y179334D03*
D105*
X748755Y179334D03*
D135*
X767054Y179334D03*
D25*
X503087Y179723D03*
D48*
X584457Y179723D03*
D97*
X648113Y179723D03*
D84*
X659403Y179723D03*
D97*
X671083Y179723D03*
D224*
X749728Y179723D03*
D111*
X767638Y179723D03*
D139*
X504644Y180113D03*
D177*
X586014Y180113D03*
D99*
X647723Y180113D03*
D102*
X659209Y180113D03*
D107*
X670694Y180113D03*
D112*
X750507Y180113D03*
D104*
X768222Y180113D03*
D62*
X506396Y180502D03*
D28*
X587377Y180502D03*
D97*
X647723Y180502D03*
D101*
X659209Y180502D03*
D84*
X670694Y180502D03*
D224*
X751286Y180502D03*
D12*
X769000Y180502D03*
D62*
X508343Y180891D03*
D47*
X588740Y180891D03*
D100*
X647334Y180891D03*
D101*
X658819Y180891D03*
D86*
X670499Y180891D03*
D224*
X752064Y180891D03*
D111*
X769584Y180891D03*
D290*
X510484Y181281D03*
D196*
X590297Y181281D03*
D107*
X647334Y181281D03*
D82*
X658625Y181281D03*
D113*
X670499Y181281D03*
D118*
X752648Y181281D03*
D140*
X770363Y181281D03*
D157*
X512236Y181670D03*
D14*
X591854Y181670D03*
D101*
X647139Y181670D03*
D84*
X658235Y181670D03*
D291*
X670499Y181670D03*
D79*
X753427Y181670D03*
D12*
X770947Y181670D03*
D292*
X513988Y182059D03*
D14*
X593412Y182059D03*
D97*
X646945Y182059D03*
D84*
X658235Y182059D03*
D281*
X670305Y182059D03*
D79*
X754206Y182059D03*
D111*
X771531Y182059D03*
D197*
X515740Y182449D03*
D46*
X594774Y182449D03*
D102*
X646750Y182449D03*
X658041Y182449D03*
D118*
X754984Y182449D03*
D140*
X772310Y182449D03*
D15*
X517297Y182838D03*
D47*
X596137Y182838D03*
D100*
X646555Y182838D03*
D84*
X657846Y182838D03*
D79*
X755763Y182838D03*
D224*
X773088Y182838D03*
D197*
X519244Y183227D03*
D49*
X597305Y183227D03*
D102*
X646361Y183227D03*
D88*
X657846Y183227D03*
D118*
X756542Y183227D03*
X773672Y183227D03*
D188*
X521191Y183617D03*
D52*
X598668Y183617D03*
D100*
X646166Y183617D03*
D90*
X657651Y183617D03*
D79*
X757320Y183617D03*
X774061Y183617D03*
D15*
X522359Y184006D03*
D43*
X600420Y184006D03*
D101*
X645971Y184006D03*
D84*
X657457Y184006D03*
D79*
X758099Y184006D03*
D81*
X774645Y184006D03*
D27*
X524695Y184395D03*
D56*
X601782Y184395D03*
D102*
X645971Y184395D03*
D88*
X657457Y184395D03*
D118*
X758878Y184395D03*
X775229Y184395D03*
D36*
X525863Y184785D03*
D136*
X603340Y184785D03*
D179*
X645582Y184785D03*
D84*
X657457Y184785D03*
D79*
X759656Y184785D03*
D81*
X775813Y184785D03*
D235*
X527615Y185174D03*
D196*
X604702Y185174D03*
D181*
X645582Y185174D03*
D88*
X657067Y185174D03*
D135*
X760435Y185174D03*
D118*
X776397Y185174D03*
D123*
X529561Y185563D03*
D136*
X606065Y185563D03*
D101*
X645193Y185563D03*
D84*
X657067Y185563D03*
D79*
X761214Y185563D03*
X777176Y185563D03*
D123*
X531119Y185953D03*
D136*
X607233Y185953D03*
D101*
X645193Y185953D03*
D84*
X657067Y185953D03*
D81*
X761798Y185953D03*
D79*
X777955Y185953D03*
D37*
X532287Y186342D03*
D40*
X608596Y186342D03*
D181*
X644803Y186342D03*
D102*
X656873Y186342D03*
D122*
X762576Y186342D03*
D112*
X778539Y186342D03*
D26*
X533844Y186731D03*
D43*
X610153Y186731D03*
D179*
X644803Y186731D03*
D103*
X656678Y186731D03*
D237*
X763160Y186731D03*
D79*
X779123Y186731D03*
D29*
X535791Y187121D03*
D14*
X611710Y187121D03*
D179*
X644414Y187121D03*
D103*
X656678Y187121D03*
D96*
X763939Y187121D03*
D79*
X779901Y187121D03*
D61*
X536958Y187510D03*
D34*
X612878Y187510D03*
D181*
X644414Y187510D03*
D102*
X656483Y187510D03*
D135*
X764718Y187510D03*
D118*
X780291Y187510D03*
D147*
X538321Y187899D03*
D48*
X614046Y187899D03*
D101*
X644025Y187899D03*
D84*
X656289Y187899D03*
D96*
X765496Y187899D03*
D81*
X780875Y187899D03*
D58*
X539684Y188289D03*
D176*
X615409Y188289D03*
D102*
X644025Y188289D03*
D88*
X656289Y188289D03*
D118*
X766275Y188289D03*
D135*
X781459Y188289D03*
D51*
X541046Y188678D03*
D31*
X616577Y188678D03*
D179*
X643635Y188678D03*
D101*
X656094Y188678D03*
D79*
X766664Y188678D03*
D81*
X782043Y188678D03*
D48*
X542409Y189067D03*
D29*
X618329Y189067D03*
D179*
X643635Y189067D03*
D101*
X656094Y189067D03*
D224*
X767248Y189067D03*
D250*
X782432Y189067D03*
D155*
X543772Y189457D03*
D38*
X620081Y189457D03*
D107*
X643441Y189457D03*
D88*
X655899Y189457D03*
D243*
X768027Y189457D03*
D122*
X783211Y189457D03*
D48*
X545134Y189846D03*
D31*
X621638Y189846D03*
D101*
X643246Y189846D03*
D84*
X655899Y189846D03*
D79*
X768611Y189846D03*
D250*
X783600Y189846D03*
D50*
X547081Y190235D03*
D58*
X623390Y190235D03*
D107*
X643051Y190235D03*
D92*
X655705Y190235D03*
D118*
X769390Y190235D03*
D98*
X784379Y190235D03*
D137*
X548638Y190625D03*
D51*
X624753Y190625D03*
D100*
X643051Y190625D03*
D84*
X655510Y190625D03*
D79*
X769779Y190625D03*
D81*
X784768Y190625D03*
D123*
X550196Y191014D03*
D39*
X626115Y191014D03*
D237*
X642857Y191014D03*
D84*
X655510Y191014D03*
D79*
X770558Y191014D03*
D250*
X785547Y191014D03*
D293*
X552142Y191403D03*
D27*
X627478Y191403D03*
D107*
X642662Y191403D03*
D88*
X655510Y191403D03*
D118*
X771336Y191403D03*
D140*
X785936Y191403D03*
D157*
X553894Y191793D03*
D45*
X629035Y191793D03*
D100*
X642662Y191793D03*
D84*
X655510Y191793D03*
D248*
X771920Y191793D03*
D79*
X786520Y191793D03*
D189*
X555646Y192182D03*
D61*
X630398Y192182D03*
D99*
X642273Y192182D03*
D113*
X655315Y192182D03*
D112*
X772699Y192182D03*
D122*
X787104Y192182D03*
D225*
X557204Y192571D03*
D68*
X631955Y192571D03*
D97*
X642273Y192571D03*
D84*
X655121Y192571D03*
D138*
X773283Y192571D03*
D79*
X787688Y192571D03*
D180*
X558566Y192961D03*
D242*
X633513Y192961D03*
D101*
X642078Y192961D03*
D84*
X655121Y192961D03*
D41*
X774062Y192961D03*
D79*
X788077Y192961D03*
D212*
X560124Y193350D03*
D24*
X636433Y193350D03*
D88*
X655121Y193350D03*
D112*
X774646Y193350D03*
D140*
X788661Y193350D03*
D185*
X561876Y193739D03*
D188*
X637211Y193739D03*
D84*
X655121Y193739D03*
D138*
X775229Y193739D03*
D96*
X789245Y193739D03*
D123*
X563433Y194129D03*
D26*
X637795Y194129D03*
D106*
X654926Y194129D03*
D41*
X776008Y194129D03*
D79*
X789635Y194129D03*
D247*
X565769Y194518D03*
D176*
X638379Y194518D03*
D117*
X654926Y194518D03*
D105*
X776787Y194518D03*
D104*
X790413Y194518D03*
D26*
X567326Y194907D03*
D14*
X638963Y194907D03*
D106*
X654926Y194907D03*
D138*
X777176Y194907D03*
D81*
X790997Y194907D03*
D91*
X568689Y195297D03*
D151*
X639158Y195297D03*
D117*
X654926Y195297D03*
D105*
X777955Y195297D03*
D122*
X791387Y195297D03*
D294*
X570246Y195686D03*
D133*
X639547Y195686D03*
D103*
X654731Y195686D03*
D138*
X778344Y195686D03*
D12*
X791971Y195686D03*
D188*
X571804Y196075D03*
D166*
X639937Y196075D03*
D103*
X654731Y196075D03*
D224*
X778928Y196075D03*
D12*
X792360Y196075D03*
D187*
X573361Y196465D03*
D118*
X640131Y196465D03*
D82*
X654731Y196465D03*
D243*
X779707Y196465D03*
D104*
X792749Y196465D03*
D295*
X574724Y196854D03*
D81*
X640326Y196854D03*
D106*
X654537Y196854D03*
D79*
X780291Y196854D03*
D12*
X793139Y196854D03*
D296*
X576281Y197243D03*
D104*
X640521Y197243D03*
D117*
X654537Y197243D03*
D104*
X780680Y197243D03*
D140*
X793723Y197243D03*
D295*
X577838Y197633D03*
D12*
X640131Y197633D03*
D84*
X654342Y197633D03*
D86*
X781069Y197633D03*
D81*
X794112Y197633D03*
D17*
X579396Y198022D03*
D12*
X640131Y198022D03*
D84*
X654342Y198022D03*
D12*
X794696Y198022D03*
D290*
X581342Y198411D03*
D104*
X640131Y198411D03*
D88*
X654342Y198411D03*
D122*
X795280Y198411D03*
D171*
X583289Y198801D03*
D100*
X639937Y198801D03*
D84*
X654342Y198801D03*
D111*
X795669Y198801D03*
D121*
X585041Y199190D03*
D100*
X639937Y199190D03*
D84*
X654342Y199190D03*
D81*
X796059Y199190D03*
D189*
X586793Y199579D03*
D107*
X639937Y199579D03*
D88*
X654342Y199579D03*
D118*
X796643Y199579D03*
D180*
X588156Y199969D03*
D101*
X639742Y199969D03*
D84*
X654342Y199969D03*
D81*
X797227Y199969D03*
D189*
X589129Y200358D03*
D99*
X639547Y200358D03*
D88*
X654342Y200358D03*
D140*
X797616Y200358D03*
D185*
X591076Y200747D03*
D97*
X639547Y200747D03*
D84*
X654342Y200747D03*
D297*
X729678Y200747D03*
D81*
X798005Y200747D03*
D185*
X592633Y201137D03*
D97*
X639547Y201137D03*
D84*
X654342Y201137D03*
D108*
X730846Y201137D03*
D111*
X798395Y201137D03*
D24*
X593996Y201526D03*
D104*
X639353Y201526D03*
D88*
X653953Y201526D03*
D298*
X732014Y201526D03*
D122*
X798784Y201526D03*
D192*
X595358Y201915D03*
D79*
X639742Y201915D03*
D84*
X653953Y201915D03*
D299*
X732792Y201915D03*
D81*
X799173Y201915D03*
D286*
X596332Y202305D03*
D41*
X640131Y202305D03*
D84*
X653953Y202305D03*
D300*
X732987Y202305D03*
D81*
X799952Y202305D03*
D194*
X599057Y202694D03*
D236*
X640326Y202694D03*
D92*
X653758Y202694D03*
D301*
X733376Y202694D03*
D140*
X800341Y202694D03*
D23*
X600809Y203083D03*
D28*
X641494Y203083D03*
D90*
X653758Y203083D03*
D20*
X733766Y203083D03*
D81*
X800731Y203083D03*
D139*
X601977Y203473D03*
D44*
X642273Y203473D03*
D92*
X653758Y203473D03*
D302*
X733960Y203473D03*
D122*
X801120Y203473D03*
D303*
X603340Y203862D03*
D172*
X642857Y203862D03*
D90*
X653758Y203862D03*
D304*
X734350Y203862D03*
D81*
X801509Y203862D03*
D191*
X604508Y204251D03*
D180*
X643441Y204251D03*
D90*
X653758Y204251D03*
D305*
X734544Y204251D03*
D250*
X801899Y204251D03*
D290*
X606260Y204641D03*
D140*
X638769Y204641D03*
D212*
X648502Y204641D03*
D155*
X721696Y204641D03*
D189*
X745640Y204641D03*
D98*
X802677Y204641D03*
D121*
X607622Y205030D03*
D97*
X638379Y205030D03*
D15*
X649281Y205030D03*
D238*
X720528Y205030D03*
D137*
X748366Y205030D03*
D81*
X803067Y205030D03*
D189*
X609374Y205419D03*
D104*
X638185Y205419D03*
D44*
X650059Y205419D03*
D126*
X719555Y205419D03*
D34*
X750312Y205419D03*
D122*
X803456Y205419D03*
D17*
X610932Y205809D03*
D100*
X637990Y205809D03*
D29*
X650643Y205809D03*
D115*
X718776Y205809D03*
D60*
X751675Y205809D03*
D250*
X803845Y205809D03*
D89*
X612294Y206198D03*
D100*
X637990Y206198D03*
D43*
X651422Y206198D03*
D248*
X718192Y206198D03*
D60*
X752843Y206198D03*
D81*
X804235Y206198D03*
D24*
X613852Y206587D03*
D107*
X637990Y206587D03*
D236*
X652006Y206587D03*
D118*
X717608Y206587D03*
D59*
X754011Y206587D03*
D98*
X804624Y206587D03*
D25*
X615603Y206977D03*
D101*
X637795Y206977D03*
D41*
X652590Y206977D03*
D12*
X717219Y206977D03*
D52*
X755179Y206977D03*
D81*
X805013Y206977D03*
D194*
X617356Y207366D03*
D99*
X637601Y207366D03*
D118*
X652979Y207366D03*
D104*
X716830Y207366D03*
D59*
X756347Y207366D03*
D135*
X805597Y207366D03*
D266*
X619691Y207755D03*
D97*
X637601Y207755D03*
D111*
X653174Y207755D03*
D12*
X716440Y207755D03*
D43*
X757710Y207755D03*
D79*
X805987Y207755D03*
D251*
X621833Y208145D03*
D97*
X637601Y208145D03*
D12*
X653369Y208145D03*
X716051Y208145D03*
D43*
X758878Y208145D03*
D79*
X806376Y208145D03*
D87*
X623585Y208534D03*
D99*
X637601Y208534D03*
X653563Y208534D03*
D104*
X716051Y208534D03*
D56*
X760240Y208534D03*
D122*
X806571Y208534D03*
D18*
X625531Y208923D03*
D97*
X637211Y208923D03*
D90*
X653758Y208923D03*
D12*
X715662Y208923D03*
D72*
X761408Y208923D03*
D111*
X806960Y208923D03*
D80*
X628257Y209313D03*
D90*
X653758Y209313D03*
D306*
X707680Y209313D03*
D12*
X715272Y209313D03*
D93*
X762771Y209313D03*
D81*
X807349Y209313D03*
D307*
X629230Y209702D03*
D92*
X653758Y209702D03*
D11*
X707680Y209702D03*
D104*
X715272Y209702D03*
D13*
X763939Y209702D03*
D122*
X807739Y209702D03*
D62*
X630982Y210091D03*
D84*
X653953Y210091D03*
X707680Y210091D03*
D97*
X715078Y210091D03*
D109*
X764912Y210091D03*
D111*
X808128Y210091D03*
D189*
X631566Y210481D03*
D88*
X653953Y210481D03*
X707680Y210481D03*
D99*
X715078Y210481D03*
D239*
X766080Y210481D03*
D122*
X808517Y210481D03*
D292*
X632345Y210870D03*
D84*
X653953Y210870D03*
X707291Y210870D03*
D12*
X714883Y210870D03*
D144*
X766859Y210870D03*
D111*
X808907Y210870D03*
D26*
X633123Y211259D03*
D101*
X654147Y211259D03*
D84*
X707291Y211259D03*
D12*
X714883Y211259D03*
D224*
X767638Y211259D03*
D12*
X809101Y211259D03*
D59*
X634097Y211649D03*
D102*
X654147Y211649D03*
X707096Y211649D03*
D104*
X714883Y211649D03*
D127*
X768611Y211649D03*
D104*
X809491Y211649D03*
D144*
X635265Y212038D03*
D84*
X654342Y212038D03*
D101*
X707096Y212038D03*
D12*
X714883Y212038D03*
D138*
X769390Y212038D03*
D12*
X809880Y212038D03*
D117*
X636627Y212427D03*
D88*
X654342Y212427D03*
D102*
X707096Y212427D03*
D104*
X714883Y212427D03*
D112*
X770363Y212427D03*
D104*
X810269Y212427D03*
D84*
X654342Y212816D03*
X706902Y212816D03*
D12*
X714883Y212816D03*
D224*
X771142Y212816D03*
D97*
X810464Y212816D03*
D84*
X654342Y213206D03*
D101*
X706707Y213206D03*
D12*
X714883Y213206D03*
D248*
X771920Y213206D03*
D81*
X810464Y213206D03*
D102*
X654537Y213595D03*
X706707Y213595D03*
D104*
X714883Y213595D03*
D105*
X772894Y213595D03*
D122*
X810464Y213595D03*
D101*
X654537Y213984D03*
X706707Y213984D03*
D12*
X714883Y213984D03*
D248*
X773867Y213984D03*
D79*
X810269Y213984D03*
D103*
X654731Y214374D03*
D101*
X706707Y214374D03*
D12*
X714883Y214374D03*
D224*
X774646Y214374D03*
X810075Y214374D03*
D82*
X654731Y214763D03*
X706512Y214763D03*
D122*
X715078Y214763D03*
D42*
X775424Y214763D03*
D112*
X809685Y214763D03*
D101*
X654926Y215152D03*
D103*
X706512Y215152D03*
D81*
X715078Y215152D03*
D41*
X776008Y215152D03*
X809491Y215152D03*
D102*
X654926Y215542D03*
D82*
X706512Y215542D03*
D122*
X715078Y215542D03*
D112*
X776592Y215542D03*
D127*
X809101Y215542D03*
D101*
X654926Y215931D03*
D103*
X706512Y215931D03*
D96*
X715272Y215931D03*
D138*
X777176Y215931D03*
D41*
X808712Y215931D03*
D84*
X655121Y216320D03*
D103*
X706512Y216320D03*
D81*
X715467Y216320D03*
D41*
X777955Y216320D03*
X808323Y216320D03*
D102*
X655315Y216710D03*
D82*
X706512Y216710D03*
D118*
X715662Y216710D03*
D112*
X778539Y216710D03*
D127*
X807933Y216710D03*
D101*
X655315Y217099D03*
D103*
X706512Y217099D03*
D111*
X715856Y217099D03*
D224*
X779317Y217099D03*
D41*
X807544Y217099D03*
D88*
X655510Y217488D03*
X706902Y217488D03*
D118*
X716051Y217488D03*
D243*
X779707Y217488D03*
D127*
X807155Y217488D03*
D90*
X655705Y217878D03*
D84*
X706902Y217878D03*
D248*
X716246Y217878D03*
D224*
X780485Y217878D03*
D41*
X806765Y217878D03*
D90*
X655705Y218267D03*
D84*
X706902Y218267D03*
D79*
X716440Y218267D03*
X781069Y218267D03*
D144*
X806181Y218267D03*
D92*
X655705Y218656D03*
D113*
X707096Y218656D03*
D112*
X716635Y218656D03*
X781653Y218656D03*
D239*
X805792Y218656D03*
D101*
X656094Y219046D03*
D84*
X707291Y219046D03*
D79*
X716830Y219046D03*
D96*
X782237Y219046D03*
D109*
X805403Y219046D03*
D101*
X656094Y219435D03*
D84*
X707291Y219435D03*
D224*
X717024Y219435D03*
D81*
X782821Y219435D03*
D109*
X805013Y219435D03*
D102*
X656094Y219824D03*
D92*
X707486Y219824D03*
D135*
X717219Y219824D03*
X783405Y219824D03*
D239*
X804624Y219824D03*
D101*
X656483Y220214D03*
D84*
X707680Y220214D03*
D224*
X717414Y220214D03*
D81*
X783989Y220214D03*
D144*
X804235Y220214D03*
D102*
X656483Y220603D03*
D88*
X707680Y220603D03*
D112*
X717803Y220603D03*
D98*
X784379Y220603D03*
D239*
X803845Y220603D03*
D97*
X656678Y220992D03*
D84*
X708070Y220992D03*
D41*
X717998Y220992D03*
D81*
X785157Y220992D03*
D109*
X803456Y220992D03*
D101*
X656873Y221382D03*
D84*
X708070Y221382D03*
D144*
X718192Y221382D03*
D250*
X785547Y221382D03*
D138*
X802872Y221382D03*
D107*
X657067Y221771D03*
D82*
X708459Y221771D03*
D42*
X718582Y221771D03*
D122*
X786325Y221771D03*
D127*
X802483Y221771D03*
D101*
X657262Y222160D03*
X708654Y222160D03*
D144*
X718971Y222160D03*
D111*
X786715Y222160D03*
D224*
X801899Y222160D03*
D99*
X657457Y222550D03*
D102*
X708654Y222550D03*
D42*
X719360Y222550D03*
D135*
X787299Y222550D03*
D283*
X801509Y222550D03*
D97*
X657457Y222939D03*
D101*
X709043Y222939D03*
D115*
X719555Y222939D03*
D224*
X787883Y222939D03*
D95*
X801120Y222939D03*
D97*
X657846Y223328D03*
D101*
X709043Y223328D03*
D76*
X719944Y223328D03*
D248*
X788272Y223328D03*
D138*
X800536Y223328D03*
D99*
X657846Y223718D03*
D92*
X709432Y223718D03*
D13*
X720334Y223718D03*
D135*
X789245Y223718D03*
D105*
X800147Y223718D03*
D100*
X658235Y224107D03*
D97*
X709627Y224107D03*
D133*
X720528Y224107D03*
D111*
X789829Y224107D03*
D41*
X799757Y224107D03*
D12*
X658430Y224496D03*
D101*
X709822Y224496D03*
D132*
X721112Y224496D03*
D81*
X790219Y224496D03*
D138*
X799368Y224496D03*
D104*
X658819Y224886D03*
D107*
X710016Y224886D03*
D56*
X721307Y224886D03*
D104*
X790803Y224886D03*
D112*
X798784Y224886D03*
D111*
X659014Y225275D03*
D97*
X710406Y225275D03*
D72*
X721696Y225275D03*
D81*
X791387Y225275D03*
D224*
X798395Y225275D03*
D104*
X659209Y225664D03*
D99*
X710406Y225664D03*
D56*
X722086Y225664D03*
D122*
X792165Y225664D03*
D105*
X797811Y225664D03*
D81*
X659403Y226054D03*
D100*
X710795Y226054D03*
D55*
X722670Y226054D03*
D31*
X795280Y226054D03*
D81*
X659793Y226443D03*
D12*
X710990Y226443D03*
D136*
X723254Y226443D03*
D28*
X795280Y226443D03*
D104*
X659987Y226832D03*
X711379Y226832D03*
D128*
X723254Y226832D03*
X795280Y226832D03*
D12*
X660377Y227222D03*
X711768Y227222D03*
D136*
X723643Y227222D03*
D133*
X795280Y227222D03*
D104*
X660766Y227611D03*
X712158Y227611D03*
D128*
X724422Y227611D03*
D42*
X795280Y227611D03*
D111*
X660961Y228000D03*
D12*
X712158Y228000D03*
D47*
X725006Y228000D03*
D224*
X795280Y228000D03*
D81*
X661350Y228390D03*
D12*
X712547Y228390D03*
D47*
X725395Y228390D03*
D81*
X795280Y228390D03*
D122*
X661739Y228779D03*
D104*
X712547Y228779D03*
D196*
X725784Y228779D03*
D88*
X795280Y228779D03*
D111*
X662129Y229168D03*
D12*
X712936Y229168D03*
D48*
X726174Y229168D03*
D116*
X795280Y229168D03*
D98*
X662518Y229558D03*
D122*
X713520Y229558D03*
D34*
X726563Y229558D03*
D308*
X795085Y229558D03*
D81*
X662907Y229947D03*
D111*
X713910Y229947D03*
D47*
X727342Y229947D03*
D250*
X663297Y230336D03*
D79*
X714494Y230336D03*
D28*
X727926Y230336D03*
D122*
X663686Y230726D03*
D112*
X714688Y230726D03*
D49*
X728510Y230726D03*
D96*
X664270Y231115D03*
D224*
X715078Y231115D03*
D14*
X728899Y231115D03*
D96*
X664659Y231504D03*
D224*
X715467Y231504D03*
D14*
X729288Y231504D03*
D135*
X665049Y231894D03*
D243*
X716246Y231894D03*
D49*
X730067Y231894D03*
D96*
X665438Y232283D03*
D224*
X716635Y232283D03*
D14*
X730846Y232283D03*
D135*
X665827Y232672D03*
D112*
X717024Y232672D03*
D128*
X731430Y232672D03*
D96*
X666217Y233062D03*
D224*
X717414Y233062D03*
D14*
X732014Y233062D03*
D95*
X666801Y233451D03*
D41*
X717998Y233451D03*
D136*
X732598Y233451D03*
D243*
X667190Y233840D03*
D112*
X718582Y233840D03*
D128*
X733376Y233840D03*
D224*
X667579Y234230D03*
X718971Y234230D03*
D14*
X733960Y234230D03*
D112*
X668358Y234619D03*
X719360Y234619D03*
D128*
X734544Y234619D03*
D224*
X668747Y235008D03*
D41*
X719944Y235008D03*
D14*
X735128Y235008D03*
D248*
X669137Y235398D03*
D41*
X720334Y235398D03*
D14*
X735907Y235398D03*
D127*
X669721Y235787D03*
X720723Y235787D03*
D49*
X736686Y235787D03*
D41*
X670110Y236176D03*
D79*
X721502Y236176D03*
D47*
X737464Y236176D03*
D41*
X670889Y236566D03*
D250*
X722086Y236566D03*
D14*
X738243Y236566D03*
D112*
X671473Y236955D03*
D122*
X722475Y236955D03*
D49*
X739022Y236955D03*
D224*
X671862Y237344D03*
D237*
X723059Y237344D03*
D33*
X739995Y237344D03*
D127*
X672446Y237734D03*
D122*
X723643Y237734D03*
D155*
X740774Y237734D03*
D144*
X673030Y238123D03*
D96*
X724227Y238123D03*
D33*
X741552Y238123D03*
D144*
X673419Y238512D03*
D224*
X724811Y238512D03*
D28*
X742331Y238512D03*
D127*
X674393Y238902D03*
D283*
X725590Y238902D03*
D155*
X743499Y238902D03*
D144*
X674977Y239291D03*
D95*
X726368Y239291D03*
D48*
X744472Y239291D03*
D42*
X675755Y239680D03*
D118*
X726952Y239680D03*
D38*
X745446Y239680D03*
D144*
X676534Y240070D03*
D224*
X727536Y240070D03*
D28*
X746224Y240070D03*
D76*
X677118Y240459D03*
D79*
X728120Y240459D03*
D28*
X747003Y240459D03*
D13*
X677897Y240848D03*
D118*
X728899Y240848D03*
D155*
X747782Y240848D03*
D133*
X678481Y241238D03*
D96*
X729678Y241238D03*
D28*
X748560Y241238D03*
D76*
X679065Y241627D03*
D224*
X730262Y241627D03*
D14*
X749534Y241627D03*
D13*
X679843Y242016D03*
D42*
X731040Y242016D03*
D32*
X750702Y242016D03*
D133*
X680427Y242406D03*
D144*
X731819Y242406D03*
D28*
X751286Y242406D03*
D74*
X681206Y242795D03*
D13*
X732792Y242795D03*
D32*
X751870Y242795D03*
D93*
X682179Y243184D03*
D133*
X733766Y243184D03*
D14*
X753038Y243184D03*
D93*
X682958Y243574D03*
D132*
X734350Y243574D03*
D14*
X753816Y243574D03*
D126*
X683737Y243963D03*
D236*
X734934Y243963D03*
D49*
X754595Y243963D03*
D72*
X684321Y244352D03*
D153*
X735518Y244352D03*
D14*
X755763Y244352D03*
D57*
X685099Y244742D03*
D74*
X736491Y244742D03*
D49*
X756542Y244742D03*
D136*
X686267Y245131D03*
D133*
X737270Y245131D03*
D60*
X757515Y245131D03*
D47*
X687241Y245520D03*
D132*
X738243Y245520D03*
D60*
X758683Y245520D03*
D196*
X688019Y245910D03*
D151*
X739216Y245910D03*
D196*
X759656Y245910D03*
D14*
X688798Y246299D03*
D72*
X739995Y246299D03*
D33*
X760630Y246299D03*
D14*
X689577Y246688D03*
D93*
X740968Y246688D03*
D48*
X761603Y246688D03*
D46*
X690550Y247078D03*
D56*
X741942Y247078D03*
D34*
X762382Y247078D03*
D29*
X691523Y247467D03*
D55*
X742915Y247467D03*
D51*
X763355Y247467D03*
D34*
X692691Y247856D03*
D40*
X744083Y247856D03*
D177*
X764718Y247856D03*
D29*
X693859Y248246D03*
D47*
X745251Y248246D03*
D51*
X766080Y248246D03*
D31*
X694832Y248635D03*
D33*
X746614Y248635D03*
D45*
X767248Y248635D03*
D32*
X696195Y249024D03*
D177*
X747587Y249024D03*
D27*
X768416Y249024D03*
D29*
X697363Y249414D03*
D14*
X749144Y249414D03*
D36*
X769584Y249414D03*
D34*
X698531Y249803D03*
D46*
X750507Y249803D03*
D309*
X770947Y249803D03*
D48*
X699699Y250192D03*
D14*
X751870Y250192D03*
D31*
X772310Y250192D03*
D28*
X701062Y250582D03*
D136*
X752843Y250582D03*
D47*
X772894Y250582D03*
D38*
X702619Y250971D03*
D59*
X754011Y250971D03*
D53*
X773672Y250971D03*
D51*
X703787Y251360D03*
D43*
X754984Y251360D03*
D132*
X774061Y251360D03*
D34*
X704760Y251750D03*
D151*
X755958Y251750D03*
D134*
X774451Y251750D03*
D48*
X705928Y252139D03*
D72*
X757126Y252139D03*
D144*
X774645Y252139D03*
D310*
X707096Y252528D03*
D174*
X758099Y252528D03*
D224*
X775035Y252528D03*
D34*
X708264Y252918D03*
D56*
X759072Y252918D03*
D140*
X775424Y252918D03*
D31*
X709238Y253307D03*
D132*
X759656Y253307D03*
D12*
X775619Y253307D03*
D31*
X710406Y253696D03*
D204*
X760630Y253696D03*
D12*
X775619Y253696D03*
D176*
X711574Y254086D03*
D239*
X761408Y254086D03*
D104*
X775619Y254086D03*
D31*
X712742Y254475D03*
D138*
X762382Y254475D03*
D12*
X775619Y254475D03*
D32*
X714104Y254864D03*
D122*
X762966Y254864D03*
D104*
X775619Y254864D03*
D48*
X715662Y255254D03*
D100*
X763355Y255254D03*
D12*
X775619Y255254D03*
D48*
X716830Y255643D03*
D106*
X763550Y255643D03*
D97*
X775813Y255643D03*
D176*
X718192Y256032D03*
D308*
X763939Y256032D03*
D99*
X775813Y256032D03*
D36*
X720139Y256422D03*
D97*
X775813Y256422D03*
D91*
X721307Y256811D03*
D99*
X775813Y256811D03*
D311*
X722475Y257200D03*
D97*
X775813Y257200D03*
D123*
X724227Y257590D03*
D97*
X775813Y257590D03*
D197*
X725590Y257979D03*
D99*
X775813Y257979D03*
D294*
X726758Y258368D03*
D97*
X775813Y258368D03*
D123*
X727731Y258758D03*
D97*
X775813Y258758D03*
D91*
X729483Y259147D03*
D99*
X775813Y259147D03*
D45*
X730651Y259536D03*
D97*
X775813Y259536D03*
D91*
X732208Y259926D03*
D99*
X775813Y259926D03*
D149*
X733766Y260315D03*
D97*
X775813Y260315D03*
D26*
X735128Y260704D03*
D97*
X775813Y260704D03*
D37*
X736686Y261094D03*
D99*
X775813Y261094D03*
D147*
X738048Y261483D03*
D97*
X775813Y261483D03*
D45*
X739606Y261872D03*
D97*
X775813Y261872D03*
D27*
X741163Y262262D03*
D99*
X775813Y262262D03*
D137*
X742915Y262651D03*
D97*
X775813Y262651D03*
D114*
X744667Y263040D03*
D99*
X775813Y263040D03*
D36*
X746224Y263430D03*
D97*
X775813Y263430D03*
D45*
X747782Y263819D03*
D97*
X775813Y263819D03*
D58*
X749923Y264208D03*
D99*
X775813Y264208D03*
D68*
X751870Y264598D03*
D97*
X775813Y264598D03*
D30*
X754011Y264987D03*
D99*
X775813Y264987D03*
D188*
X755958Y265376D03*
D97*
X775813Y265376D03*
D180*
X757515Y265766D03*
D12*
X775619Y265766D03*
D16*
X759072Y266155D03*
D104*
X775619Y266155D03*
D171*
X760824Y266544D03*
D12*
X775619Y266544D03*
D182*
X763160Y266934D03*
D104*
X775619Y266934D03*
D191*
X765302Y267323D03*
D111*
X775424Y267323D03*
D18*
X768416Y267712D03*
D253*
X769390Y268102D03*
D121*
X770752Y268491D03*
D108*
X771726Y268880D03*
D176*
X772699Y269270D03*
D72*
X773478Y269659D03*
D42*
X773867Y270048D03*
D90*
X774840Y270438D03*
M02*
