G04 EAGLE Gerber X2 export*
G75*
%MOMM*%
%FSLAX34Y34*%
%LPD*%
%AMOC8*
5,1,8,0,0,1.08239X$1,22.5*%
G01*
%ADD10C,0.076200*%
%ADD11C,2.082800*%
%ADD12R,0.194666X0.038931*%
%ADD13R,0.389331X0.038934*%
%ADD14R,0.622931X0.038931*%
%ADD15R,0.856528X0.038934*%
%ADD16R,1.206928X0.038934*%
%ADD17R,1.440528X0.038931*%
%ADD18R,1.401594X0.038934*%
%ADD19R,1.829859X0.038934*%
%ADD20R,2.141325X0.038931*%
%ADD21R,2.842122X0.038934*%
%ADD22R,2.608522X0.038931*%
%ADD23R,1.868794X0.038934*%
%ADD24R,1.557328X0.038934*%
%ADD25R,1.440525X0.038931*%
%ADD26R,1.479459X0.038934*%
%ADD27R,1.090128X0.038934*%
%ADD28R,1.051197X0.038931*%
%ADD29R,0.895463X0.038934*%
%ADD30R,0.934394X0.038934*%
%ADD31R,1.129059X0.038931*%
%ADD32R,0.973328X0.038934*%
%ADD33R,0.934394X0.038931*%
%ADD34R,0.895466X0.038934*%
%ADD35R,0.934397X0.038931*%
%ADD36R,1.012259X0.038934*%
%ADD37R,1.129063X0.038934*%
%ADD38R,1.090128X0.038931*%
%ADD39R,0.973331X0.038931*%
%ADD40R,1.012266X0.038934*%
%ADD41R,0.778666X0.038931*%
%ADD42R,0.545063X0.038934*%
%ADD43R,0.583997X0.038931*%
%ADD44R,0.778663X0.038934*%
%ADD45R,1.051194X0.038931*%
%ADD46R,1.051197X0.038934*%
%ADD47R,0.895463X0.038931*%
%ADD48R,0.856531X0.038934*%
%ADD49R,0.934397X0.038934*%
%ADD50R,0.856528X0.038931*%
%ADD51R,1.012266X0.038931*%
%ADD52R,0.973331X0.038934*%
%ADD53R,0.817594X0.038934*%
%ADD54R,0.778663X0.038931*%
%ADD55R,0.739728X0.038934*%
%ADD56R,0.778666X0.038934*%
%ADD57R,0.739731X0.038931*%
%ADD58R,0.739734X0.038931*%
%ADD59R,1.012263X0.038931*%
%ADD60R,0.817594X0.038931*%
%ADD61R,0.895459X0.038934*%
%ADD62R,1.012259X0.038931*%
%ADD63R,1.596259X0.038934*%
%ADD64R,2.374922X0.038931*%
%ADD65R,2.958919X0.038934*%
%ADD66R,3.815450X0.038934*%
%ADD67R,4.321581X0.038931*%
%ADD68R,4.555181X0.038934*%
%ADD69R,1.012263X0.038934*%
%ADD70R,4.866647X0.038931*%
%ADD71R,5.217047X0.038934*%
%ADD72R,2.842125X0.038934*%
%ADD73R,0.739731X0.038934*%
%ADD74R,2.413856X0.038931*%
%ADD75R,0.661866X0.038931*%
%ADD76R,2.258125X0.038934*%
%ADD77R,0.622931X0.038934*%
%ADD78R,2.258128X0.038931*%
%ADD79R,2.063456X0.038934*%
%ADD80R,0.467197X0.038934*%
%ADD81R,2.141322X0.038934*%
%ADD82R,0.428266X0.038934*%
%ADD83R,0.272534X0.038931*%
%ADD84R,2.297056X0.038934*%
%ADD85R,0.272531X0.038934*%
%ADD86R,2.063459X0.038934*%
%ADD87R,0.233597X0.038934*%
%ADD88R,1.751991X0.038931*%
%ADD89R,0.272531X0.038931*%
%ADD90R,1.440525X0.038934*%
%ADD91R,0.311463X0.038934*%
%ADD92R,1.129063X0.038931*%
%ADD93R,0.311463X0.038931*%
%ADD94R,0.700800X0.038934*%
%ADD95R,0.622934X0.038931*%
%ADD96R,0.506134X0.038934*%
%ADD97R,0.467200X0.038934*%
%ADD98R,0.350397X0.038934*%
%ADD99R,0.428269X0.038931*%
%ADD100R,0.350397X0.038931*%
%ADD101R,0.350400X0.038934*%
%ADD102R,0.311466X0.038934*%
%ADD103R,0.311466X0.038931*%
%ADD104R,0.272534X0.038934*%
%ADD105R,0.389331X0.038931*%
%ADD106R,0.545063X0.038931*%
%ADD107R,0.233600X0.038934*%
%ADD108R,0.350400X0.038931*%
%ADD109R,1.167994X0.038934*%
%ADD110R,0.584000X0.038934*%
%ADD111R,1.245863X0.038931*%
%ADD112R,0.428263X0.038934*%
%ADD113R,0.506131X0.038931*%
%ADD114R,0.233597X0.038931*%
%ADD115R,1.129066X0.038931*%
%ADD116R,0.622928X0.038934*%
%ADD117R,0.194666X0.038934*%
%ADD118R,0.233600X0.038931*%
%ADD119R,0.467197X0.038931*%
%ADD120R,0.233603X0.038934*%
%ADD121R,1.284797X0.038931*%
%ADD122R,1.440528X0.038934*%
%ADD123R,0.428266X0.038931*%
%ADD124R,1.167997X0.038934*%
%ADD125R,0.817600X0.038934*%
%ADD126R,1.090131X0.038931*%
%ADD127R,0.700797X0.038931*%
%ADD128R,0.545066X0.038931*%
%ADD129R,0.817597X0.038931*%
%ADD130R,0.077869X0.038934*%
%ADD131R,0.077866X0.038934*%
%ADD132R,0.622934X0.038934*%
%ADD133R,0.700797X0.038934*%
%ADD134R,0.661863X0.038934*%
%ADD135R,0.622928X0.038931*%
%ADD136R,0.467200X0.038931*%
%ADD137R,0.817597X0.038934*%
%ADD138R,1.090131X0.038934*%
%ADD139R,0.545066X0.038934*%
%ADD140R,1.557328X0.038931*%
%ADD141R,0.428263X0.038931*%
%ADD142R,3.231453X0.038934*%
%ADD143R,4.126916X0.038931*%
%ADD144R,4.438378X0.038934*%
%ADD145R,0.583997X0.038934*%
%ADD146R,4.087981X0.038931*%
%ADD147R,4.126916X0.038934*%
%ADD148R,1.051194X0.038934*%
%ADD149R,4.087984X0.038934*%
%ADD150R,1.129059X0.038934*%
%ADD151R,4.126919X0.038931*%
%ADD152R,0.739728X0.038931*%
%ADD153R,3.893319X0.038934*%
%ADD154R,0.700794X0.038934*%
%ADD155R,3.270388X0.038931*%
%ADD156R,0.895466X0.038931*%
%ADD157R,3.309322X0.038934*%
%ADD158R,1.362659X0.038934*%
%ADD159R,3.309316X0.038931*%
%ADD160R,1.206931X0.038931*%
%ADD161R,3.192519X0.038934*%
%ADD162R,2.919987X0.038934*%
%ADD163R,2.647456X0.038931*%
%ADD164R,2.686387X0.038934*%
%ADD165R,2.491725X0.038931*%
%ADD166R,2.335991X0.038934*%
%ADD167R,0.583994X0.038934*%
%ADD168R,2.803191X0.038934*%
%ADD169R,2.335991X0.038931*%
%ADD170R,2.024525X0.038934*%
%ADD171R,1.713063X0.038931*%
%ADD172R,1.479463X0.038934*%
%ADD173R,1.245863X0.038934*%
%ADD174R,0.583994X0.038931*%
%ADD175R,0.778659X0.038934*%
%ADD176R,1.206925X0.038934*%
%ADD177R,0.973328X0.038931*%
%ADD178R,0.934400X0.038931*%
%ADD179R,1.323728X0.038931*%
%ADD180R,0.311469X0.038934*%
%ADD181R,1.362663X0.038934*%
%ADD182R,0.311469X0.038931*%
%ADD183R,1.479459X0.038931*%
%ADD184R,0.895459X0.038931*%
%ADD185R,1.362663X0.038931*%
%ADD186R,1.323728X0.038934*%
%ADD187R,1.284791X0.038934*%
%ADD188R,1.284794X0.038931*%
%ADD189R,1.284794X0.038934*%
%ADD190R,1.401594X0.038931*%
%ADD191R,1.401597X0.038934*%
%ADD192R,1.518394X0.038934*%
%ADD193R,1.557325X0.038934*%
%ADD194R,1.596259X0.038931*%
%ADD195R,1.518394X0.038931*%
%ADD196R,1.479456X0.038931*%
%ADD197R,0.856531X0.038931*%
%ADD198R,1.206928X0.038931*%
%ADD199R,5.217044X0.038934*%
%ADD200R,0.038931X0.038934*%
%ADD201R,10.901288X0.038934*%
%ADD202R,12.964744X0.038931*%
%ADD203R,17.403128X0.038934*%
%ADD204R,18.337522X0.038934*%
%ADD205R,0.661866X0.038934*%
%ADD206R,19.232988X0.038931*%
%ADD207R,1.401597X0.038931*%
%ADD208R,19.933781X0.038934*%
%ADD209R,10.044756X0.038931*%
%ADD210R,3.192522X0.038931*%
%ADD211R,4.905578X0.038931*%
%ADD212R,0.389334X0.038931*%
%ADD213R,1.362659X0.038931*%
%ADD214R,8.098100X0.038934*%
%ADD215R,5.178113X0.038934*%
%ADD216R,7.864500X0.038934*%
%ADD217R,4.126919X0.038934*%
%ADD218R,5.178113X0.038931*%
%ADD219R,3.542919X0.038931*%
%ADD220R,1.401591X0.038931*%
%ADD221R,4.165850X0.038934*%
%ADD222R,2.297059X0.038934*%
%ADD223R,1.751991X0.038934*%
%ADD224R,0.700800X0.038931*%
%ADD225R,0.506131X0.038934*%
%ADD226R,1.401591X0.038934*%
%ADD227R,1.284791X0.038931*%
%ADD228R,0.700794X0.038931*%
%ADD229R,2.881053X0.038934*%
%ADD230R,0.194669X0.038934*%
%ADD231R,2.919984X0.038934*%
%ADD232R,0.194669X0.038931*%
%ADD233R,2.919987X0.038931*%
%ADD234R,1.635194X0.038934*%
%ADD235R,0.233603X0.038931*%
%ADD236R,1.167994X0.038931*%
%ADD237R,0.661863X0.038931*%
%ADD238R,0.389334X0.038934*%
%ADD239R,0.739734X0.038934*%
%ADD240R,0.584000X0.038931*%
%ADD241R,1.713059X0.038934*%
%ADD242R,1.713059X0.038931*%
%ADD243R,1.090125X0.038934*%
%ADD244R,0.506128X0.038931*%
%ADD245R,2.608522X0.038934*%
%ADD246R,1.829859X0.038931*%
%ADD247R,1.674125X0.038934*%
%ADD248R,1.167997X0.038931*%
%ADD249R,0.506128X0.038934*%
%ADD250R,0.038934X0.038931*%
%ADD251R,0.428269X0.038934*%
%ADD252R,1.790925X0.038934*%
%ADD253R,1.868791X0.038934*%
%ADD254R,1.635194X0.038931*%
%ADD255R,0.350403X0.038934*%
%ADD256R,2.102391X0.038934*%
%ADD257R,1.479456X0.038934*%
%ADD258R,3.153584X0.038931*%
%ADD259R,3.542919X0.038934*%
%ADD260R,3.854384X0.038934*%
%ADD261R,1.674128X0.038931*%
%ADD262R,1.596263X0.038931*%
%ADD263R,1.674125X0.038931*%
%ADD264R,1.596263X0.038934*%
%ADD265R,2.725322X0.038931*%
%ADD266R,5.723175X0.038934*%
%ADD267R,1.674128X0.038934*%
%ADD268R,7.124769X0.038931*%
%ADD269R,7.942369X0.038934*%
%ADD270R,9.188228X0.038934*%
%ADD271R,10.473022X0.038931*%
%ADD272R,2.569587X0.038931*%
%ADD273R,5.100244X0.038934*%
%ADD274R,2.997850X0.038934*%
%ADD275R,5.255975X0.038931*%
%ADD276R,3.348250X0.038931*%
%ADD277R,5.255978X0.038934*%
%ADD278R,5.567441X0.038934*%
%ADD279R,4.983447X0.038931*%
%ADD280R,3.620784X0.038934*%
%ADD281R,3.387184X0.038931*%
%ADD282R,0.038934X0.038934*%
%ADD283R,2.297056X0.038931*%
%ADD284R,0.506134X0.038931*%
%ADD285R,3.426119X0.038934*%
%ADD286R,2.569591X0.038934*%
%ADD287R,1.518391X0.038934*%
%ADD288R,2.219191X0.038931*%
%ADD289R,1.518397X0.038931*%
%ADD290R,0.545069X0.038934*%
%ADD291R,1.479463X0.038931*%
%ADD292R,0.155734X0.038934*%
%ADD293R,1.245859X0.038934*%
%ADD294R,1.245859X0.038931*%
%ADD295R,1.206931X0.038934*%
%ADD296R,1.323725X0.038934*%
%ADD297R,1.323725X0.038931*%
%ADD298R,0.155731X0.038934*%
%ADD299R,1.790925X0.038931*%
%ADD300R,2.180259X0.038934*%
%ADD301R,2.452794X0.038934*%
%ADD302R,2.686391X0.038931*%
%ADD303R,3.036791X0.038931*%
%ADD304R,1.518397X0.038934*%
%ADD305R,3.192522X0.038934*%
%ADD306R,3.387184X0.038934*%
%ADD307R,0.116800X0.038934*%
%ADD308R,1.946656X0.038931*%
%ADD309R,0.077869X0.038931*%
%ADD310R,1.090125X0.038931*%
%ADD311R,0.934400X0.038934*%
%ADD312R,1.129066X0.038934*%


D10*
X58836Y104775D02*
X58836Y97409D01*
X60882Y97409D01*
X60951Y97411D01*
X61019Y97417D01*
X61088Y97426D01*
X61155Y97440D01*
X61222Y97457D01*
X61288Y97478D01*
X61352Y97502D01*
X61415Y97531D01*
X61476Y97562D01*
X61535Y97597D01*
X61593Y97635D01*
X61648Y97677D01*
X61700Y97721D01*
X61750Y97769D01*
X61798Y97819D01*
X61842Y97871D01*
X61884Y97926D01*
X61922Y97984D01*
X61957Y98043D01*
X61988Y98104D01*
X62017Y98167D01*
X62041Y98231D01*
X62062Y98297D01*
X62079Y98364D01*
X62093Y98431D01*
X62102Y98500D01*
X62108Y98568D01*
X62110Y98637D01*
X62109Y98637D02*
X62109Y101092D01*
X62110Y101092D02*
X62108Y101161D01*
X62102Y101229D01*
X62093Y101298D01*
X62079Y101365D01*
X62062Y101432D01*
X62041Y101498D01*
X62017Y101562D01*
X61988Y101625D01*
X61957Y101686D01*
X61922Y101745D01*
X61884Y101803D01*
X61842Y101858D01*
X61798Y101910D01*
X61750Y101960D01*
X61700Y102008D01*
X61648Y102052D01*
X61593Y102094D01*
X61535Y102132D01*
X61476Y102167D01*
X61415Y102198D01*
X61352Y102227D01*
X61288Y102251D01*
X61222Y102272D01*
X61155Y102289D01*
X61088Y102303D01*
X61019Y102312D01*
X60951Y102318D01*
X60882Y102320D01*
X58836Y102320D01*
X64891Y94954D02*
X65709Y94954D01*
X68164Y102320D01*
X64891Y102320D02*
X66528Y97409D01*
X32384Y91355D02*
X31156Y91355D01*
X31156Y91356D02*
X31087Y91354D01*
X31019Y91348D01*
X30950Y91339D01*
X30883Y91325D01*
X30816Y91308D01*
X30750Y91287D01*
X30686Y91263D01*
X30623Y91234D01*
X30562Y91203D01*
X30503Y91168D01*
X30445Y91130D01*
X30390Y91088D01*
X30338Y91044D01*
X30288Y90996D01*
X30240Y90946D01*
X30196Y90894D01*
X30155Y90839D01*
X30116Y90781D01*
X30081Y90722D01*
X30050Y90661D01*
X30021Y90598D01*
X29997Y90534D01*
X29976Y90468D01*
X29959Y90401D01*
X29945Y90334D01*
X29936Y90266D01*
X29930Y90197D01*
X29928Y90128D01*
X29929Y90128D02*
X29929Y87672D01*
X29928Y87672D02*
X29930Y87603D01*
X29936Y87535D01*
X29945Y87466D01*
X29959Y87399D01*
X29976Y87332D01*
X29997Y87266D01*
X30021Y87202D01*
X30050Y87139D01*
X30081Y87078D01*
X30116Y87019D01*
X30154Y86961D01*
X30196Y86906D01*
X30240Y86854D01*
X30288Y86804D01*
X30338Y86756D01*
X30390Y86712D01*
X30445Y86670D01*
X30503Y86632D01*
X30562Y86597D01*
X30623Y86566D01*
X30686Y86537D01*
X30750Y86513D01*
X30816Y86492D01*
X30883Y86475D01*
X30950Y86461D01*
X31019Y86452D01*
X31087Y86446D01*
X31156Y86444D01*
X31225Y86446D01*
X31293Y86452D01*
X31362Y86461D01*
X31429Y86475D01*
X31496Y86492D01*
X31562Y86513D01*
X31626Y86537D01*
X31689Y86566D01*
X31750Y86597D01*
X31809Y86632D01*
X31867Y86670D01*
X31922Y86712D01*
X31974Y86756D01*
X32024Y86804D01*
X32072Y86854D01*
X32116Y86906D01*
X32158Y86961D01*
X32196Y87019D01*
X32231Y87078D01*
X32262Y87139D01*
X32291Y87202D01*
X32315Y87266D01*
X32336Y87332D01*
X32353Y87399D01*
X32367Y87466D01*
X32376Y87535D01*
X32382Y87603D01*
X32384Y87672D01*
X32384Y87468D02*
X32384Y91355D01*
X32384Y87468D02*
X32386Y87405D01*
X32392Y87342D01*
X32401Y87280D01*
X32415Y87218D01*
X32432Y87158D01*
X32453Y87098D01*
X32478Y87040D01*
X32506Y86984D01*
X32537Y86929D01*
X32572Y86877D01*
X32610Y86827D01*
X32651Y86779D01*
X32695Y86734D01*
X32741Y86691D01*
X32791Y86652D01*
X32842Y86615D01*
X32896Y86582D01*
X32951Y86552D01*
X33008Y86526D01*
X33067Y86503D01*
X33127Y86484D01*
X33188Y86469D01*
X33250Y86457D01*
X33313Y86449D01*
X33375Y86445D01*
X33439Y86445D01*
X33501Y86449D01*
X33564Y86457D01*
X33626Y86469D01*
X33687Y86484D01*
X33747Y86503D01*
X33806Y86526D01*
X33863Y86552D01*
X33918Y86582D01*
X33972Y86615D01*
X34023Y86652D01*
X34073Y86691D01*
X34119Y86734D01*
X34163Y86779D01*
X34204Y86827D01*
X34242Y86877D01*
X34277Y86929D01*
X34308Y86984D01*
X34336Y87040D01*
X34361Y87098D01*
X34382Y87158D01*
X34399Y87218D01*
X34413Y87280D01*
X34422Y87342D01*
X34428Y87405D01*
X34430Y87468D01*
X34430Y90537D01*
X34428Y90650D01*
X34422Y90763D01*
X34412Y90875D01*
X34399Y90988D01*
X34381Y91099D01*
X34360Y91210D01*
X34335Y91321D01*
X34306Y91430D01*
X34273Y91538D01*
X34237Y91645D01*
X34197Y91751D01*
X34153Y91855D01*
X34106Y91958D01*
X34055Y92059D01*
X34001Y92158D01*
X33943Y92255D01*
X33882Y92350D01*
X33818Y92443D01*
X33751Y92534D01*
X33680Y92622D01*
X33607Y92708D01*
X33530Y92791D01*
X33451Y92872D01*
X33369Y92950D01*
X33284Y93025D01*
X33197Y93097D01*
X33108Y93166D01*
X33016Y93231D01*
X32922Y93294D01*
X32826Y93353D01*
X32727Y93409D01*
X32627Y93462D01*
X32525Y93511D01*
X32422Y93556D01*
X32317Y93598D01*
X32211Y93636D01*
X32103Y93671D01*
X31994Y93702D01*
X31885Y93729D01*
X31774Y93752D01*
X31663Y93772D01*
X31551Y93787D01*
X31438Y93799D01*
X31325Y93807D01*
X31213Y93811D01*
X31099Y93811D01*
X30987Y93807D01*
X30874Y93799D01*
X30761Y93787D01*
X30649Y93772D01*
X30538Y93752D01*
X30427Y93729D01*
X30318Y93702D01*
X30209Y93671D01*
X30101Y93636D01*
X29995Y93598D01*
X29890Y93556D01*
X29787Y93511D01*
X29685Y93462D01*
X29585Y93409D01*
X29486Y93353D01*
X29390Y93294D01*
X29296Y93231D01*
X29204Y93166D01*
X29115Y93097D01*
X29028Y93025D01*
X28943Y92950D01*
X28861Y92872D01*
X28782Y92791D01*
X28705Y92708D01*
X28632Y92622D01*
X28561Y92534D01*
X28494Y92443D01*
X28430Y92350D01*
X28369Y92255D01*
X28311Y92158D01*
X28257Y92059D01*
X28206Y91958D01*
X28159Y91855D01*
X28115Y91751D01*
X28075Y91645D01*
X28039Y91538D01*
X28006Y91430D01*
X27977Y91321D01*
X27952Y91210D01*
X27931Y91099D01*
X27913Y90988D01*
X27900Y90875D01*
X27890Y90763D01*
X27884Y90650D01*
X27882Y90537D01*
X27883Y90537D02*
X27883Y87059D01*
X27885Y86949D01*
X27891Y86839D01*
X27901Y86730D01*
X27914Y86621D01*
X27932Y86512D01*
X27954Y86404D01*
X27979Y86297D01*
X28008Y86191D01*
X28041Y86086D01*
X28078Y85982D01*
X28118Y85880D01*
X28162Y85779D01*
X28209Y85680D01*
X28260Y85583D01*
X28315Y85487D01*
X28373Y85394D01*
X28434Y85302D01*
X28498Y85213D01*
X28566Y85126D01*
X28637Y85042D01*
X28710Y84960D01*
X28787Y84881D01*
X28866Y84805D01*
X28948Y84731D01*
X29032Y84661D01*
X29119Y84594D01*
X29209Y84530D01*
X29300Y84469D01*
X29394Y84411D01*
X29490Y84357D01*
X29587Y84306D01*
X29686Y84259D01*
X29787Y84215D01*
X29890Y84175D01*
X29994Y84138D01*
X30099Y84106D01*
X30205Y84077D01*
X30312Y84052D01*
X30420Y84031D01*
X30528Y84013D01*
X30638Y84000D01*
X30747Y83990D01*
X38668Y88082D02*
X40714Y87263D01*
X38668Y88082D02*
X38609Y88107D01*
X38552Y88136D01*
X38497Y88169D01*
X38444Y88205D01*
X38393Y88243D01*
X38345Y88285D01*
X38299Y88330D01*
X38256Y88377D01*
X38216Y88427D01*
X38179Y88479D01*
X38145Y88534D01*
X38114Y88590D01*
X38087Y88648D01*
X38064Y88708D01*
X38044Y88768D01*
X38028Y88830D01*
X38015Y88893D01*
X38007Y88957D01*
X38002Y89020D01*
X38001Y89084D01*
X38004Y89148D01*
X38011Y89212D01*
X38022Y89275D01*
X38036Y89337D01*
X38054Y89399D01*
X38076Y89459D01*
X38101Y89518D01*
X38130Y89575D01*
X38163Y89630D01*
X38198Y89683D01*
X38237Y89734D01*
X38279Y89783D01*
X38323Y89829D01*
X38371Y89872D01*
X38420Y89912D01*
X38473Y89949D01*
X38527Y89983D01*
X38583Y90014D01*
X38641Y90041D01*
X38700Y90065D01*
X38761Y90084D01*
X38823Y90101D01*
X38886Y90113D01*
X38949Y90122D01*
X39013Y90127D01*
X39077Y90128D01*
X39213Y90124D01*
X39348Y90116D01*
X39484Y90104D01*
X39618Y90088D01*
X39753Y90068D01*
X39886Y90045D01*
X40019Y90017D01*
X40151Y89986D01*
X40282Y89951D01*
X40412Y89912D01*
X40541Y89869D01*
X40668Y89822D01*
X40794Y89772D01*
X40919Y89718D01*
X40714Y87263D02*
X40773Y87238D01*
X40830Y87209D01*
X40885Y87176D01*
X40938Y87140D01*
X40989Y87102D01*
X41037Y87060D01*
X41083Y87015D01*
X41126Y86968D01*
X41166Y86918D01*
X41203Y86866D01*
X41237Y86811D01*
X41268Y86755D01*
X41295Y86697D01*
X41318Y86637D01*
X41338Y86577D01*
X41354Y86515D01*
X41367Y86452D01*
X41375Y86388D01*
X41380Y86325D01*
X41381Y86261D01*
X41378Y86197D01*
X41371Y86133D01*
X41360Y86070D01*
X41346Y86008D01*
X41328Y85946D01*
X41306Y85886D01*
X41281Y85827D01*
X41252Y85770D01*
X41219Y85715D01*
X41184Y85662D01*
X41145Y85611D01*
X41103Y85562D01*
X41059Y85516D01*
X41011Y85473D01*
X40962Y85433D01*
X40909Y85396D01*
X40855Y85362D01*
X40799Y85331D01*
X40741Y85304D01*
X40682Y85280D01*
X40621Y85261D01*
X40559Y85244D01*
X40496Y85232D01*
X40433Y85223D01*
X40369Y85218D01*
X40305Y85217D01*
X40141Y85221D01*
X39977Y85229D01*
X39813Y85241D01*
X39650Y85257D01*
X39487Y85277D01*
X39324Y85300D01*
X39163Y85328D01*
X39001Y85359D01*
X38841Y85394D01*
X38682Y85433D01*
X38523Y85476D01*
X38366Y85522D01*
X38209Y85572D01*
X38054Y85626D01*
X45621Y85217D02*
X47667Y85217D01*
X45621Y85217D02*
X45552Y85219D01*
X45484Y85225D01*
X45415Y85234D01*
X45348Y85248D01*
X45281Y85265D01*
X45215Y85286D01*
X45151Y85310D01*
X45088Y85339D01*
X45027Y85370D01*
X44968Y85405D01*
X44910Y85443D01*
X44855Y85485D01*
X44803Y85529D01*
X44753Y85577D01*
X44705Y85627D01*
X44661Y85679D01*
X44619Y85734D01*
X44581Y85792D01*
X44546Y85851D01*
X44515Y85912D01*
X44486Y85975D01*
X44462Y86039D01*
X44441Y86105D01*
X44424Y86172D01*
X44410Y86239D01*
X44401Y86308D01*
X44395Y86376D01*
X44393Y86445D01*
X44394Y86445D02*
X44394Y88491D01*
X44396Y88570D01*
X44402Y88649D01*
X44411Y88728D01*
X44424Y88806D01*
X44442Y88883D01*
X44462Y88959D01*
X44487Y89034D01*
X44515Y89108D01*
X44546Y89181D01*
X44582Y89252D01*
X44620Y89321D01*
X44662Y89388D01*
X44707Y89453D01*
X44755Y89516D01*
X44806Y89577D01*
X44860Y89634D01*
X44916Y89690D01*
X44975Y89742D01*
X45037Y89792D01*
X45101Y89838D01*
X45167Y89882D01*
X45235Y89922D01*
X45305Y89958D01*
X45377Y89992D01*
X45451Y90022D01*
X45525Y90048D01*
X45601Y90071D01*
X45678Y90089D01*
X45755Y90105D01*
X45834Y90116D01*
X45912Y90124D01*
X45991Y90128D01*
X46071Y90128D01*
X46150Y90124D01*
X46228Y90116D01*
X46307Y90105D01*
X46384Y90089D01*
X46461Y90071D01*
X46537Y90048D01*
X46611Y90022D01*
X46685Y89992D01*
X46757Y89958D01*
X46827Y89922D01*
X46895Y89882D01*
X46961Y89838D01*
X47025Y89792D01*
X47087Y89742D01*
X47146Y89690D01*
X47202Y89634D01*
X47256Y89577D01*
X47307Y89516D01*
X47355Y89453D01*
X47400Y89388D01*
X47442Y89321D01*
X47480Y89252D01*
X47516Y89181D01*
X47547Y89108D01*
X47575Y89034D01*
X47600Y88959D01*
X47620Y88883D01*
X47638Y88806D01*
X47651Y88728D01*
X47660Y88649D01*
X47666Y88570D01*
X47668Y88491D01*
X47667Y88491D02*
X47667Y87672D01*
X44394Y87672D01*
X51970Y85217D02*
X53607Y85217D01*
X51970Y85217D02*
X51901Y85219D01*
X51833Y85225D01*
X51764Y85234D01*
X51697Y85248D01*
X51630Y85265D01*
X51564Y85286D01*
X51500Y85310D01*
X51437Y85339D01*
X51376Y85370D01*
X51317Y85405D01*
X51259Y85443D01*
X51204Y85485D01*
X51152Y85529D01*
X51102Y85577D01*
X51054Y85627D01*
X51010Y85679D01*
X50968Y85734D01*
X50930Y85792D01*
X50895Y85851D01*
X50864Y85912D01*
X50835Y85975D01*
X50811Y86039D01*
X50790Y86105D01*
X50773Y86172D01*
X50759Y86239D01*
X50750Y86308D01*
X50744Y86376D01*
X50742Y86445D01*
X50743Y86445D02*
X50743Y88900D01*
X50742Y88900D02*
X50744Y88969D01*
X50750Y89037D01*
X50759Y89106D01*
X50773Y89173D01*
X50790Y89240D01*
X50811Y89306D01*
X50835Y89370D01*
X50864Y89433D01*
X50895Y89494D01*
X50930Y89553D01*
X50968Y89611D01*
X51010Y89666D01*
X51054Y89718D01*
X51102Y89768D01*
X51152Y89816D01*
X51204Y89860D01*
X51259Y89902D01*
X51317Y89940D01*
X51376Y89975D01*
X51437Y90006D01*
X51500Y90035D01*
X51564Y90059D01*
X51630Y90080D01*
X51697Y90097D01*
X51764Y90111D01*
X51833Y90120D01*
X51901Y90126D01*
X51970Y90128D01*
X53607Y90128D01*
X56586Y90128D02*
X56586Y86445D01*
X56585Y86445D02*
X56587Y86376D01*
X56593Y86308D01*
X56602Y86239D01*
X56616Y86172D01*
X56633Y86105D01*
X56654Y86039D01*
X56678Y85975D01*
X56707Y85912D01*
X56738Y85851D01*
X56773Y85792D01*
X56811Y85734D01*
X56853Y85679D01*
X56897Y85627D01*
X56945Y85577D01*
X56995Y85529D01*
X57047Y85485D01*
X57102Y85443D01*
X57160Y85405D01*
X57219Y85370D01*
X57280Y85339D01*
X57343Y85310D01*
X57407Y85286D01*
X57473Y85265D01*
X57540Y85248D01*
X57607Y85234D01*
X57676Y85225D01*
X57744Y85219D01*
X57813Y85217D01*
X59859Y85217D01*
X59859Y90128D01*
X63459Y90128D02*
X63459Y85217D01*
X63459Y90128D02*
X65915Y90128D01*
X65915Y89309D01*
X69518Y85217D02*
X71564Y85217D01*
X69518Y85217D02*
X69449Y85219D01*
X69381Y85225D01*
X69312Y85234D01*
X69245Y85248D01*
X69178Y85265D01*
X69112Y85286D01*
X69048Y85310D01*
X68985Y85339D01*
X68924Y85370D01*
X68865Y85405D01*
X68807Y85443D01*
X68752Y85485D01*
X68700Y85529D01*
X68650Y85577D01*
X68602Y85627D01*
X68558Y85679D01*
X68516Y85734D01*
X68478Y85792D01*
X68443Y85851D01*
X68412Y85912D01*
X68383Y85975D01*
X68359Y86039D01*
X68338Y86105D01*
X68321Y86172D01*
X68307Y86239D01*
X68298Y86308D01*
X68292Y86376D01*
X68290Y86445D01*
X68290Y88491D01*
X68292Y88570D01*
X68298Y88649D01*
X68307Y88728D01*
X68320Y88806D01*
X68338Y88883D01*
X68358Y88959D01*
X68383Y89034D01*
X68411Y89108D01*
X68442Y89181D01*
X68478Y89252D01*
X68516Y89321D01*
X68558Y89388D01*
X68603Y89453D01*
X68651Y89516D01*
X68702Y89577D01*
X68756Y89634D01*
X68812Y89690D01*
X68871Y89742D01*
X68933Y89792D01*
X68997Y89838D01*
X69063Y89882D01*
X69131Y89922D01*
X69201Y89958D01*
X69273Y89992D01*
X69347Y90022D01*
X69421Y90048D01*
X69497Y90071D01*
X69574Y90089D01*
X69651Y90105D01*
X69730Y90116D01*
X69808Y90124D01*
X69887Y90128D01*
X69967Y90128D01*
X70046Y90124D01*
X70124Y90116D01*
X70203Y90105D01*
X70280Y90089D01*
X70357Y90071D01*
X70433Y90048D01*
X70507Y90022D01*
X70581Y89992D01*
X70653Y89958D01*
X70723Y89922D01*
X70791Y89882D01*
X70857Y89838D01*
X70921Y89792D01*
X70983Y89742D01*
X71042Y89690D01*
X71098Y89634D01*
X71152Y89577D01*
X71203Y89516D01*
X71251Y89453D01*
X71296Y89388D01*
X71338Y89321D01*
X71376Y89252D01*
X71412Y89181D01*
X71443Y89108D01*
X71471Y89034D01*
X71496Y88959D01*
X71516Y88883D01*
X71534Y88806D01*
X71547Y88728D01*
X71556Y88649D01*
X71562Y88570D01*
X71564Y88491D01*
X71564Y87672D01*
X68290Y87672D01*
X74713Y86445D02*
X74713Y92583D01*
X74712Y86445D02*
X74714Y86376D01*
X74720Y86308D01*
X74729Y86239D01*
X74743Y86172D01*
X74760Y86105D01*
X74781Y86039D01*
X74805Y85975D01*
X74834Y85912D01*
X74865Y85851D01*
X74900Y85792D01*
X74938Y85734D01*
X74980Y85679D01*
X75024Y85627D01*
X75072Y85577D01*
X75122Y85529D01*
X75174Y85485D01*
X75229Y85443D01*
X75287Y85405D01*
X75346Y85370D01*
X75407Y85339D01*
X75470Y85310D01*
X75534Y85286D01*
X75600Y85265D01*
X75667Y85248D01*
X75734Y85234D01*
X75803Y85225D01*
X75871Y85219D01*
X75940Y85217D01*
X78287Y82762D02*
X79106Y82762D01*
X81561Y90128D01*
X78287Y90128D02*
X79924Y85217D01*
X84777Y85217D02*
X84777Y91355D01*
X84776Y91355D02*
X84778Y91424D01*
X84784Y91492D01*
X84793Y91561D01*
X84807Y91628D01*
X84824Y91695D01*
X84845Y91761D01*
X84869Y91825D01*
X84898Y91888D01*
X84929Y91949D01*
X84964Y92008D01*
X85002Y92066D01*
X85044Y92121D01*
X85088Y92173D01*
X85136Y92223D01*
X85186Y92271D01*
X85238Y92315D01*
X85293Y92356D01*
X85351Y92395D01*
X85410Y92430D01*
X85471Y92461D01*
X85534Y92490D01*
X85598Y92514D01*
X85664Y92535D01*
X85731Y92552D01*
X85798Y92566D01*
X85866Y92575D01*
X85935Y92581D01*
X86004Y92583D01*
X86414Y92583D01*
X86414Y90128D02*
X83958Y90128D01*
X88458Y90128D02*
X88458Y85217D01*
X88254Y92174D02*
X88254Y92583D01*
X88663Y92583D01*
X88663Y92174D01*
X88254Y92174D01*
X90824Y90128D02*
X93279Y90128D01*
X91643Y92583D02*
X91643Y86445D01*
X91642Y86445D02*
X91644Y86376D01*
X91650Y86308D01*
X91659Y86239D01*
X91673Y86172D01*
X91690Y86105D01*
X91711Y86039D01*
X91735Y85975D01*
X91764Y85912D01*
X91795Y85851D01*
X91830Y85792D01*
X91868Y85734D01*
X91910Y85679D01*
X91954Y85627D01*
X92002Y85577D01*
X92052Y85529D01*
X92104Y85485D01*
X92159Y85443D01*
X92217Y85405D01*
X92276Y85370D01*
X92337Y85339D01*
X92400Y85310D01*
X92464Y85286D01*
X92530Y85265D01*
X92597Y85248D01*
X92664Y85234D01*
X92733Y85225D01*
X92801Y85219D01*
X92870Y85217D01*
X93279Y85217D01*
X95844Y90128D02*
X99117Y90128D01*
X95844Y85217D01*
X99117Y85217D01*
X24903Y73025D02*
X22857Y73025D01*
X22788Y73027D01*
X22720Y73033D01*
X22651Y73042D01*
X22584Y73056D01*
X22517Y73073D01*
X22451Y73094D01*
X22387Y73118D01*
X22324Y73147D01*
X22263Y73178D01*
X22204Y73213D01*
X22146Y73251D01*
X22091Y73293D01*
X22039Y73337D01*
X21989Y73385D01*
X21941Y73435D01*
X21897Y73487D01*
X21855Y73542D01*
X21817Y73600D01*
X21782Y73659D01*
X21751Y73720D01*
X21722Y73783D01*
X21698Y73847D01*
X21677Y73913D01*
X21660Y73980D01*
X21646Y74047D01*
X21637Y74116D01*
X21631Y74184D01*
X21629Y74253D01*
X21629Y76708D01*
X21631Y76777D01*
X21637Y76845D01*
X21646Y76914D01*
X21660Y76981D01*
X21677Y77048D01*
X21698Y77114D01*
X21722Y77178D01*
X21751Y77241D01*
X21782Y77302D01*
X21817Y77361D01*
X21855Y77419D01*
X21897Y77474D01*
X21941Y77526D01*
X21989Y77576D01*
X22039Y77624D01*
X22091Y77668D01*
X22146Y77710D01*
X22204Y77748D01*
X22263Y77783D01*
X22324Y77814D01*
X22387Y77843D01*
X22451Y77867D01*
X22517Y77888D01*
X22584Y77905D01*
X22651Y77919D01*
X22720Y77928D01*
X22788Y77934D01*
X22857Y77936D01*
X24903Y77936D01*
X24903Y71797D01*
X24901Y71728D01*
X24895Y71660D01*
X24886Y71591D01*
X24872Y71524D01*
X24855Y71457D01*
X24834Y71391D01*
X24810Y71327D01*
X24781Y71264D01*
X24750Y71203D01*
X24715Y71144D01*
X24677Y71086D01*
X24635Y71031D01*
X24591Y70979D01*
X24543Y70929D01*
X24493Y70881D01*
X24441Y70837D01*
X24386Y70796D01*
X24328Y70757D01*
X24269Y70722D01*
X24208Y70691D01*
X24145Y70662D01*
X24081Y70638D01*
X24015Y70617D01*
X23948Y70600D01*
X23881Y70586D01*
X23813Y70577D01*
X23744Y70571D01*
X23675Y70569D01*
X23675Y70570D02*
X22038Y70570D01*
X28183Y73025D02*
X28183Y77936D01*
X27979Y79982D02*
X27979Y80391D01*
X28388Y80391D01*
X28388Y79982D01*
X27979Y79982D01*
X30549Y77936D02*
X33005Y77936D01*
X31368Y80391D02*
X31368Y74253D01*
X31367Y74253D02*
X31369Y74184D01*
X31375Y74116D01*
X31384Y74047D01*
X31398Y73980D01*
X31415Y73913D01*
X31436Y73847D01*
X31460Y73783D01*
X31489Y73720D01*
X31520Y73659D01*
X31555Y73600D01*
X31593Y73542D01*
X31635Y73487D01*
X31679Y73435D01*
X31727Y73385D01*
X31777Y73337D01*
X31829Y73293D01*
X31884Y73251D01*
X31942Y73213D01*
X32001Y73178D01*
X32062Y73147D01*
X32125Y73118D01*
X32189Y73094D01*
X32255Y73073D01*
X32322Y73056D01*
X32389Y73042D01*
X32458Y73033D01*
X32526Y73027D01*
X32595Y73025D01*
X33005Y73025D01*
X35538Y73025D02*
X35538Y73434D01*
X35947Y73434D01*
X35947Y73025D01*
X35538Y73025D01*
X38668Y73025D02*
X38668Y77936D01*
X38464Y79982D02*
X38464Y80391D01*
X38873Y80391D01*
X38873Y79982D01*
X38464Y79982D01*
X41665Y76299D02*
X41665Y74662D01*
X41664Y76299D02*
X41666Y76378D01*
X41672Y76457D01*
X41681Y76536D01*
X41694Y76614D01*
X41712Y76691D01*
X41732Y76767D01*
X41757Y76842D01*
X41785Y76916D01*
X41816Y76989D01*
X41852Y77060D01*
X41890Y77129D01*
X41932Y77196D01*
X41977Y77261D01*
X42025Y77324D01*
X42076Y77385D01*
X42130Y77442D01*
X42186Y77498D01*
X42245Y77550D01*
X42307Y77600D01*
X42371Y77646D01*
X42437Y77690D01*
X42505Y77730D01*
X42575Y77766D01*
X42647Y77800D01*
X42721Y77830D01*
X42795Y77856D01*
X42871Y77879D01*
X42948Y77897D01*
X43025Y77913D01*
X43104Y77924D01*
X43182Y77932D01*
X43261Y77936D01*
X43341Y77936D01*
X43420Y77932D01*
X43498Y77924D01*
X43577Y77913D01*
X43654Y77897D01*
X43731Y77879D01*
X43807Y77856D01*
X43881Y77830D01*
X43955Y77800D01*
X44027Y77766D01*
X44097Y77730D01*
X44165Y77690D01*
X44231Y77646D01*
X44295Y77600D01*
X44357Y77550D01*
X44416Y77498D01*
X44472Y77442D01*
X44526Y77385D01*
X44577Y77324D01*
X44625Y77261D01*
X44670Y77196D01*
X44712Y77129D01*
X44750Y77060D01*
X44786Y76989D01*
X44817Y76916D01*
X44845Y76842D01*
X44870Y76767D01*
X44890Y76691D01*
X44908Y76614D01*
X44921Y76536D01*
X44930Y76457D01*
X44936Y76378D01*
X44938Y76299D01*
X44938Y74662D01*
X44936Y74583D01*
X44930Y74504D01*
X44921Y74425D01*
X44908Y74347D01*
X44890Y74270D01*
X44870Y74194D01*
X44845Y74119D01*
X44817Y74045D01*
X44786Y73972D01*
X44750Y73901D01*
X44712Y73832D01*
X44670Y73765D01*
X44625Y73700D01*
X44577Y73637D01*
X44526Y73576D01*
X44472Y73519D01*
X44416Y73463D01*
X44357Y73411D01*
X44295Y73361D01*
X44231Y73315D01*
X44165Y73271D01*
X44097Y73231D01*
X44027Y73195D01*
X43955Y73161D01*
X43881Y73131D01*
X43807Y73105D01*
X43731Y73082D01*
X43654Y73064D01*
X43577Y73048D01*
X43498Y73037D01*
X43420Y73029D01*
X43341Y73025D01*
X43261Y73025D01*
X43182Y73029D01*
X43104Y73037D01*
X43025Y73048D01*
X42948Y73064D01*
X42871Y73082D01*
X42795Y73105D01*
X42721Y73131D01*
X42647Y73161D01*
X42575Y73195D01*
X42505Y73231D01*
X42437Y73271D01*
X42371Y73315D01*
X42307Y73361D01*
X42245Y73411D01*
X42186Y73463D01*
X42130Y73519D01*
X42076Y73576D01*
X42025Y73637D01*
X41977Y73700D01*
X41932Y73765D01*
X41890Y73832D01*
X41852Y73901D01*
X41816Y73972D01*
X41785Y74045D01*
X41757Y74119D01*
X41732Y74194D01*
X41712Y74270D01*
X41694Y74347D01*
X41681Y74425D01*
X41672Y74504D01*
X41666Y74583D01*
X41664Y74662D01*
X47760Y72207D02*
X51034Y81209D01*
X54470Y75890D02*
X56516Y75071D01*
X54470Y75890D02*
X54411Y75915D01*
X54354Y75944D01*
X54299Y75977D01*
X54246Y76013D01*
X54195Y76051D01*
X54147Y76093D01*
X54101Y76138D01*
X54058Y76185D01*
X54018Y76235D01*
X53981Y76287D01*
X53947Y76342D01*
X53916Y76398D01*
X53889Y76456D01*
X53866Y76516D01*
X53846Y76576D01*
X53830Y76638D01*
X53817Y76701D01*
X53809Y76765D01*
X53804Y76828D01*
X53803Y76892D01*
X53806Y76956D01*
X53813Y77020D01*
X53824Y77083D01*
X53838Y77145D01*
X53856Y77207D01*
X53878Y77267D01*
X53903Y77326D01*
X53932Y77383D01*
X53965Y77438D01*
X54000Y77491D01*
X54039Y77542D01*
X54081Y77591D01*
X54125Y77637D01*
X54173Y77680D01*
X54222Y77720D01*
X54275Y77757D01*
X54329Y77791D01*
X54385Y77822D01*
X54443Y77849D01*
X54502Y77873D01*
X54563Y77892D01*
X54625Y77909D01*
X54688Y77921D01*
X54751Y77930D01*
X54815Y77935D01*
X54879Y77936D01*
X55015Y77932D01*
X55150Y77924D01*
X55286Y77912D01*
X55420Y77896D01*
X55555Y77876D01*
X55688Y77853D01*
X55821Y77825D01*
X55953Y77794D01*
X56084Y77759D01*
X56214Y77720D01*
X56343Y77677D01*
X56470Y77630D01*
X56596Y77580D01*
X56721Y77526D01*
X56516Y75071D02*
X56575Y75046D01*
X56632Y75017D01*
X56687Y74984D01*
X56740Y74948D01*
X56791Y74910D01*
X56839Y74868D01*
X56885Y74823D01*
X56928Y74776D01*
X56968Y74726D01*
X57005Y74674D01*
X57039Y74619D01*
X57070Y74563D01*
X57097Y74505D01*
X57120Y74445D01*
X57140Y74385D01*
X57156Y74323D01*
X57169Y74260D01*
X57177Y74196D01*
X57182Y74133D01*
X57183Y74069D01*
X57180Y74005D01*
X57173Y73941D01*
X57162Y73878D01*
X57148Y73816D01*
X57130Y73754D01*
X57108Y73694D01*
X57083Y73635D01*
X57054Y73578D01*
X57021Y73523D01*
X56986Y73470D01*
X56947Y73419D01*
X56905Y73370D01*
X56861Y73324D01*
X56813Y73281D01*
X56764Y73241D01*
X56711Y73204D01*
X56657Y73170D01*
X56601Y73139D01*
X56543Y73112D01*
X56484Y73088D01*
X56423Y73069D01*
X56361Y73052D01*
X56298Y73040D01*
X56235Y73031D01*
X56171Y73026D01*
X56107Y73025D01*
X55943Y73029D01*
X55779Y73037D01*
X55615Y73049D01*
X55452Y73065D01*
X55289Y73085D01*
X55126Y73108D01*
X54965Y73136D01*
X54803Y73167D01*
X54643Y73202D01*
X54484Y73241D01*
X54325Y73284D01*
X54168Y73330D01*
X54011Y73380D01*
X53856Y73434D01*
X61588Y75890D02*
X63429Y75890D01*
X61588Y75889D02*
X61513Y75887D01*
X61438Y75881D01*
X61364Y75871D01*
X61290Y75858D01*
X61217Y75840D01*
X61145Y75819D01*
X61075Y75794D01*
X61006Y75765D01*
X60938Y75733D01*
X60872Y75697D01*
X60808Y75658D01*
X60746Y75616D01*
X60687Y75570D01*
X60630Y75521D01*
X60575Y75470D01*
X60524Y75415D01*
X60475Y75358D01*
X60429Y75299D01*
X60387Y75237D01*
X60348Y75173D01*
X60312Y75107D01*
X60280Y75039D01*
X60251Y74970D01*
X60226Y74900D01*
X60205Y74828D01*
X60187Y74755D01*
X60174Y74681D01*
X60164Y74607D01*
X60158Y74532D01*
X60156Y74457D01*
X60158Y74382D01*
X60164Y74307D01*
X60174Y74233D01*
X60187Y74159D01*
X60205Y74086D01*
X60226Y74014D01*
X60251Y73944D01*
X60280Y73875D01*
X60312Y73807D01*
X60348Y73741D01*
X60387Y73677D01*
X60429Y73615D01*
X60475Y73556D01*
X60524Y73499D01*
X60575Y73444D01*
X60630Y73393D01*
X60687Y73344D01*
X60746Y73298D01*
X60808Y73256D01*
X60872Y73217D01*
X60938Y73181D01*
X61006Y73149D01*
X61075Y73120D01*
X61145Y73095D01*
X61217Y73074D01*
X61290Y73056D01*
X61364Y73043D01*
X61438Y73033D01*
X61513Y73027D01*
X61588Y73025D01*
X63429Y73025D01*
X63429Y76708D01*
X63427Y76777D01*
X63421Y76845D01*
X63412Y76914D01*
X63398Y76981D01*
X63381Y77048D01*
X63360Y77114D01*
X63336Y77178D01*
X63307Y77241D01*
X63276Y77302D01*
X63241Y77361D01*
X63203Y77419D01*
X63161Y77474D01*
X63117Y77526D01*
X63069Y77576D01*
X63019Y77624D01*
X62967Y77668D01*
X62912Y77710D01*
X62854Y77748D01*
X62795Y77783D01*
X62734Y77814D01*
X62671Y77843D01*
X62607Y77867D01*
X62541Y77888D01*
X62474Y77905D01*
X62407Y77919D01*
X62338Y77928D01*
X62270Y77934D01*
X62201Y77936D01*
X60565Y77936D01*
X66780Y76299D02*
X66780Y74662D01*
X66780Y76299D02*
X66782Y76378D01*
X66788Y76457D01*
X66797Y76536D01*
X66810Y76614D01*
X66828Y76691D01*
X66848Y76767D01*
X66873Y76842D01*
X66901Y76916D01*
X66932Y76989D01*
X66968Y77060D01*
X67006Y77129D01*
X67048Y77196D01*
X67093Y77261D01*
X67141Y77324D01*
X67192Y77385D01*
X67246Y77442D01*
X67302Y77498D01*
X67361Y77550D01*
X67423Y77600D01*
X67487Y77646D01*
X67553Y77690D01*
X67621Y77730D01*
X67691Y77766D01*
X67763Y77800D01*
X67837Y77830D01*
X67911Y77856D01*
X67987Y77879D01*
X68064Y77897D01*
X68141Y77913D01*
X68220Y77924D01*
X68298Y77932D01*
X68377Y77936D01*
X68457Y77936D01*
X68536Y77932D01*
X68614Y77924D01*
X68693Y77913D01*
X68770Y77897D01*
X68847Y77879D01*
X68923Y77856D01*
X68997Y77830D01*
X69071Y77800D01*
X69143Y77766D01*
X69213Y77730D01*
X69281Y77690D01*
X69347Y77646D01*
X69411Y77600D01*
X69473Y77550D01*
X69532Y77498D01*
X69588Y77442D01*
X69642Y77385D01*
X69693Y77324D01*
X69741Y77261D01*
X69786Y77196D01*
X69828Y77129D01*
X69866Y77060D01*
X69902Y76989D01*
X69933Y76916D01*
X69961Y76842D01*
X69986Y76767D01*
X70006Y76691D01*
X70024Y76614D01*
X70037Y76536D01*
X70046Y76457D01*
X70052Y76378D01*
X70054Y76299D01*
X70054Y74662D01*
X70052Y74583D01*
X70046Y74504D01*
X70037Y74425D01*
X70024Y74347D01*
X70006Y74270D01*
X69986Y74194D01*
X69961Y74119D01*
X69933Y74045D01*
X69902Y73972D01*
X69866Y73901D01*
X69828Y73832D01*
X69786Y73765D01*
X69741Y73700D01*
X69693Y73637D01*
X69642Y73576D01*
X69588Y73519D01*
X69532Y73463D01*
X69473Y73411D01*
X69411Y73361D01*
X69347Y73315D01*
X69281Y73271D01*
X69213Y73231D01*
X69143Y73195D01*
X69071Y73161D01*
X68997Y73131D01*
X68923Y73105D01*
X68847Y73082D01*
X68770Y73064D01*
X68693Y73048D01*
X68614Y73037D01*
X68536Y73029D01*
X68457Y73025D01*
X68377Y73025D01*
X68298Y73029D01*
X68220Y73037D01*
X68141Y73048D01*
X68064Y73064D01*
X67987Y73082D01*
X67911Y73105D01*
X67837Y73131D01*
X67763Y73161D01*
X67691Y73195D01*
X67621Y73231D01*
X67553Y73271D01*
X67487Y73315D01*
X67423Y73361D01*
X67361Y73411D01*
X67302Y73463D01*
X67246Y73519D01*
X67192Y73576D01*
X67141Y73637D01*
X67093Y73700D01*
X67048Y73765D01*
X67006Y73832D01*
X66968Y73901D01*
X66932Y73972D01*
X66901Y74045D01*
X66873Y74119D01*
X66848Y74194D01*
X66828Y74270D01*
X66810Y74347D01*
X66797Y74425D01*
X66788Y74504D01*
X66782Y74583D01*
X66780Y74662D01*
X73277Y75890D02*
X78187Y75890D01*
X82802Y75890D02*
X84643Y75890D01*
X82802Y75889D02*
X82727Y75887D01*
X82652Y75881D01*
X82578Y75871D01*
X82504Y75858D01*
X82431Y75840D01*
X82359Y75819D01*
X82289Y75794D01*
X82220Y75765D01*
X82152Y75733D01*
X82086Y75697D01*
X82022Y75658D01*
X81960Y75616D01*
X81901Y75570D01*
X81844Y75521D01*
X81789Y75470D01*
X81738Y75415D01*
X81689Y75358D01*
X81643Y75299D01*
X81601Y75237D01*
X81562Y75173D01*
X81526Y75107D01*
X81494Y75039D01*
X81465Y74970D01*
X81440Y74900D01*
X81419Y74828D01*
X81401Y74755D01*
X81388Y74681D01*
X81378Y74607D01*
X81372Y74532D01*
X81370Y74457D01*
X81372Y74382D01*
X81378Y74307D01*
X81388Y74233D01*
X81401Y74159D01*
X81419Y74086D01*
X81440Y74014D01*
X81465Y73944D01*
X81494Y73875D01*
X81526Y73807D01*
X81562Y73741D01*
X81601Y73677D01*
X81643Y73615D01*
X81689Y73556D01*
X81738Y73499D01*
X81789Y73444D01*
X81844Y73393D01*
X81901Y73344D01*
X81960Y73298D01*
X82022Y73256D01*
X82086Y73217D01*
X82152Y73181D01*
X82220Y73149D01*
X82289Y73120D01*
X82359Y73095D01*
X82431Y73074D01*
X82504Y73056D01*
X82578Y73043D01*
X82652Y73033D01*
X82727Y73027D01*
X82802Y73025D01*
X84643Y73025D01*
X84643Y76708D01*
X84641Y76777D01*
X84635Y76845D01*
X84626Y76914D01*
X84612Y76981D01*
X84595Y77048D01*
X84574Y77114D01*
X84550Y77178D01*
X84521Y77241D01*
X84490Y77302D01*
X84455Y77361D01*
X84417Y77419D01*
X84375Y77474D01*
X84331Y77526D01*
X84283Y77576D01*
X84233Y77624D01*
X84181Y77668D01*
X84126Y77710D01*
X84068Y77748D01*
X84009Y77783D01*
X83948Y77814D01*
X83885Y77843D01*
X83821Y77867D01*
X83755Y77888D01*
X83688Y77905D01*
X83621Y77919D01*
X83552Y77928D01*
X83484Y77934D01*
X83415Y77936D01*
X81779Y77936D01*
X88284Y77936D02*
X88284Y73025D01*
X88284Y77936D02*
X90739Y77936D01*
X90739Y77117D01*
X93515Y77936D02*
X93515Y73025D01*
X93515Y77936D02*
X97198Y77936D01*
X97267Y77934D01*
X97335Y77928D01*
X97404Y77919D01*
X97471Y77905D01*
X97538Y77888D01*
X97604Y77867D01*
X97668Y77843D01*
X97731Y77814D01*
X97792Y77783D01*
X97851Y77748D01*
X97909Y77710D01*
X97964Y77668D01*
X98016Y77624D01*
X98066Y77576D01*
X98114Y77526D01*
X98158Y77474D01*
X98200Y77419D01*
X98238Y77361D01*
X98273Y77302D01*
X98304Y77241D01*
X98333Y77178D01*
X98357Y77114D01*
X98378Y77048D01*
X98395Y76981D01*
X98409Y76914D01*
X98418Y76845D01*
X98424Y76777D01*
X98426Y76708D01*
X98426Y73025D01*
X95971Y73025D02*
X95971Y77936D01*
X102507Y75890D02*
X104553Y75071D01*
X102507Y75890D02*
X102448Y75915D01*
X102391Y75944D01*
X102336Y75977D01*
X102283Y76013D01*
X102232Y76051D01*
X102184Y76093D01*
X102138Y76138D01*
X102095Y76185D01*
X102055Y76235D01*
X102018Y76287D01*
X101984Y76342D01*
X101953Y76398D01*
X101926Y76456D01*
X101903Y76516D01*
X101883Y76576D01*
X101867Y76638D01*
X101854Y76701D01*
X101846Y76765D01*
X101841Y76828D01*
X101840Y76892D01*
X101843Y76956D01*
X101850Y77020D01*
X101861Y77083D01*
X101875Y77145D01*
X101893Y77207D01*
X101915Y77267D01*
X101940Y77326D01*
X101969Y77383D01*
X102002Y77438D01*
X102037Y77491D01*
X102076Y77542D01*
X102118Y77591D01*
X102162Y77637D01*
X102210Y77680D01*
X102259Y77720D01*
X102312Y77757D01*
X102366Y77791D01*
X102422Y77822D01*
X102480Y77849D01*
X102539Y77873D01*
X102600Y77892D01*
X102662Y77909D01*
X102725Y77921D01*
X102788Y77930D01*
X102852Y77935D01*
X102916Y77936D01*
X102915Y77936D02*
X103051Y77932D01*
X103186Y77924D01*
X103322Y77912D01*
X103456Y77896D01*
X103591Y77876D01*
X103724Y77853D01*
X103857Y77825D01*
X103989Y77794D01*
X104120Y77759D01*
X104250Y77720D01*
X104379Y77677D01*
X104506Y77630D01*
X104632Y77580D01*
X104757Y77526D01*
X104553Y75071D02*
X104612Y75046D01*
X104669Y75017D01*
X104724Y74984D01*
X104777Y74948D01*
X104828Y74910D01*
X104876Y74868D01*
X104922Y74823D01*
X104965Y74776D01*
X105005Y74726D01*
X105042Y74674D01*
X105076Y74619D01*
X105107Y74563D01*
X105134Y74505D01*
X105157Y74445D01*
X105177Y74385D01*
X105193Y74323D01*
X105206Y74260D01*
X105214Y74196D01*
X105219Y74133D01*
X105220Y74069D01*
X105217Y74005D01*
X105210Y73941D01*
X105199Y73878D01*
X105185Y73816D01*
X105167Y73754D01*
X105145Y73694D01*
X105120Y73635D01*
X105091Y73578D01*
X105058Y73523D01*
X105023Y73470D01*
X104984Y73419D01*
X104942Y73370D01*
X104898Y73324D01*
X104850Y73281D01*
X104801Y73241D01*
X104748Y73204D01*
X104694Y73170D01*
X104638Y73139D01*
X104580Y73112D01*
X104521Y73088D01*
X104460Y73069D01*
X104398Y73052D01*
X104335Y73040D01*
X104272Y73031D01*
X104208Y73026D01*
X104144Y73025D01*
X103980Y73029D01*
X103816Y73037D01*
X103652Y73049D01*
X103489Y73065D01*
X103326Y73085D01*
X103163Y73108D01*
X103002Y73136D01*
X102840Y73167D01*
X102680Y73202D01*
X102521Y73241D01*
X102362Y73284D01*
X102205Y73330D01*
X102048Y73380D01*
X101893Y73434D01*
D11*
X747522Y215900D03*
X776478Y215900D03*
X747522Y241300D03*
X776478Y241300D03*
X23622Y25400D03*
X52578Y25400D03*
X23622Y50800D03*
X52578Y50800D03*
D12*
X180136Y12700D03*
D13*
X180720Y13089D03*
D14*
X181888Y13479D03*
D15*
X183445Y13868D03*
D16*
X185197Y14257D03*
D17*
X186755Y14647D03*
D18*
X187339Y15036D03*
D19*
X190648Y15425D03*
D20*
X192984Y15815D03*
D21*
X197267Y16204D03*
D22*
X202717Y16593D03*
D23*
X209531Y16983D03*
D24*
X212645Y17372D03*
D25*
X215176Y17761D03*
D26*
X218485Y18151D03*
D24*
X222378Y18540D03*
D17*
X225688Y18929D03*
D27*
X228218Y19319D03*
D28*
X230749Y19708D03*
D29*
X233474Y20097D03*
D30*
X236005Y20487D03*
D31*
X238536Y20876D03*
D32*
X240482Y21265D03*
D33*
X242624Y21655D03*
D34*
X244765Y22044D03*
X247101Y22433D03*
D35*
X250021Y22823D03*
D36*
X252746Y23212D03*
D37*
X255666Y23601D03*
D38*
X257808Y23991D03*
D32*
X260338Y24380D03*
D39*
X263064Y24769D03*
D40*
X265594Y25159D03*
D32*
X268125Y25548D03*
D41*
X270656Y25937D03*
D42*
X272213Y26327D03*
D43*
X274354Y26716D03*
D44*
X276885Y27105D03*
D30*
X279221Y27495D03*
D45*
X281752Y27884D03*
D46*
X284477Y28273D03*
D47*
X286813Y28663D03*
D48*
X288954Y29052D03*
D49*
X291290Y29441D03*
D33*
X293626Y29831D03*
D30*
X295573Y30220D03*
D29*
X297714Y30609D03*
D50*
X299855Y30999D03*
D30*
X302191Y31388D03*
D51*
X304917Y31777D03*
D40*
X306863Y32167D03*
D52*
X309005Y32556D03*
D35*
X311146Y32945D03*
D15*
X313093Y33335D03*
D53*
X315234Y33724D03*
D54*
X316986Y34113D03*
D44*
X318933Y34503D03*
D54*
X320879Y34892D03*
D55*
X322631Y35281D03*
D56*
X324383Y35671D03*
D57*
X326135Y36060D03*
D56*
X327887Y36449D03*
D58*
X329639Y36839D03*
D44*
X331391Y37228D03*
D48*
X332949Y37617D03*
D35*
X335285Y38007D03*
D30*
X337621Y38396D03*
D35*
X339178Y38785D03*
D49*
X340346Y39175D03*
D30*
X341903Y39564D03*
D59*
X343850Y39953D03*
D49*
X346186Y40343D03*
D48*
X348133Y40732D03*
D54*
X349690Y41121D03*
D44*
X351247Y41511D03*
D60*
X352610Y41900D03*
D30*
X354362Y42289D03*
D61*
X356893Y42679D03*
D38*
X359423Y43068D03*
D32*
X360786Y43457D03*
D35*
X362538Y43847D03*
D52*
X364290Y44236D03*
D40*
X365653Y44625D03*
D39*
X367794Y45015D03*
D34*
X370130Y45404D03*
D30*
X372271Y45793D03*
D62*
X373829Y46183D03*
D63*
X186365Y46572D03*
D29*
X375581Y46572D03*
D64*
X189480Y46961D03*
D50*
X377332Y46961D03*
D65*
X192400Y47351D03*
D53*
X379474Y47351D03*
D66*
X196683Y47740D03*
D29*
X381810Y47740D03*
D67*
X199213Y48129D03*
D59*
X383562Y48129D03*
D68*
X200771Y48519D03*
D69*
X385119Y48519D03*
D70*
X202328Y48908D03*
D59*
X386287Y48908D03*
D71*
X204080Y49297D03*
D34*
X387260Y49297D03*
D72*
X220237Y49687D03*
D73*
X388818Y49687D03*
D74*
X226661Y50076D03*
D75*
X389596Y50076D03*
D76*
X231722Y50465D03*
D77*
X390570Y50465D03*
D78*
X236394Y50855D03*
D43*
X391154Y50855D03*
D79*
X239704Y51244D03*
D80*
X392127Y51244D03*
D81*
X243208Y51633D03*
D82*
X392322Y51633D03*
D64*
X247101Y52023D03*
D83*
X393490Y52023D03*
D84*
X251384Y52412D03*
D85*
X393879Y52412D03*
D86*
X254498Y52801D03*
D87*
X394074Y52801D03*
D88*
X256834Y53191D03*
D89*
X394268Y53191D03*
D90*
X259170Y53580D03*
D91*
X394463Y53580D03*
D92*
X261896Y53969D03*
D93*
X394463Y53969D03*
D34*
X264232Y54358D03*
D91*
X394463Y54358D03*
D94*
X265984Y54748D03*
D91*
X394463Y54748D03*
D95*
X266762Y55137D03*
D93*
X394463Y55137D03*
D96*
X267346Y55526D03*
D91*
X394463Y55526D03*
D97*
X267930Y55916D03*
D98*
X394268Y55916D03*
D99*
X268514Y56305D03*
D100*
X394268Y56305D03*
D101*
X268904Y56694D03*
D98*
X394268Y56694D03*
D100*
X269293Y57084D03*
X394268Y57084D03*
D98*
X269682Y57473D03*
X394268Y57473D03*
D102*
X269877Y57862D03*
D98*
X394268Y57862D03*
D103*
X270266Y58252D03*
D100*
X394268Y58252D03*
D104*
X270461Y58641D03*
D98*
X394268Y58641D03*
D105*
X197072Y59030D03*
D106*
X221600Y59030D03*
D103*
X270656Y59030D03*
D105*
X394074Y59030D03*
D107*
X195515Y59420D03*
D85*
X198824Y59420D03*
D44*
X221210Y59420D03*
D85*
X270850Y59420D03*
D13*
X394074Y59420D03*
D55*
X197267Y59809D03*
D29*
X221405Y59809D03*
D102*
X271045Y59809D03*
D101*
X393879Y59809D03*
D50*
X197072Y60198D03*
D45*
X221405Y60198D03*
D83*
X245544Y60198D03*
D93*
X271434Y60198D03*
D108*
X393879Y60198D03*
D49*
X197072Y60588D03*
D109*
X221600Y60588D03*
D110*
X245544Y60588D03*
D85*
X271629Y60588D03*
D101*
X393879Y60588D03*
D62*
X197072Y60977D03*
D111*
X221600Y60977D03*
D41*
X245738Y60977D03*
D103*
X271824Y60977D03*
D108*
X393879Y60977D03*
D27*
X197072Y61366D03*
D112*
X217123Y61366D03*
D77*
X225882Y61366D03*
D34*
X245933Y61366D03*
D102*
X272213Y61366D03*
D101*
X393879Y61366D03*
D42*
X193568Y61756D03*
D85*
X201549Y61756D03*
D101*
X216344Y61756D03*
D82*
X226856Y61756D03*
D69*
X245738Y61756D03*
D104*
X272408Y61756D03*
D101*
X393879Y61756D03*
D113*
X192984Y62145D03*
D114*
X201744Y62145D03*
D93*
X215760Y62145D03*
D103*
X227440Y62145D03*
D115*
X245933Y62145D03*
D83*
X272408Y62145D03*
D105*
X393684Y62145D03*
D100*
X418407Y62145D03*
D80*
X192400Y62534D03*
D87*
X201744Y62534D03*
D85*
X215565Y62534D03*
D104*
X227634Y62534D03*
D16*
X245933Y62534D03*
D85*
X272797Y62534D03*
D13*
X393684Y62534D03*
D116*
X418991Y62534D03*
D82*
X191816Y62924D03*
D117*
X201939Y62924D03*
D85*
X215565Y62924D03*
D104*
X227634Y62924D03*
D13*
X241456Y62924D03*
D110*
X249437Y62924D03*
D85*
X273186Y62924D03*
D13*
X393684Y62924D03*
D53*
X419964Y62924D03*
D100*
X191427Y63313D03*
D12*
X201939Y63313D03*
D114*
X215371Y63313D03*
D83*
X227634Y63313D03*
D118*
X240677Y63313D03*
D119*
X250410Y63313D03*
D93*
X273381Y63313D03*
D105*
X393684Y63313D03*
D59*
X420548Y63313D03*
D85*
X191037Y63702D03*
D117*
X201939Y63702D03*
D85*
X215565Y63702D03*
D120*
X227440Y63702D03*
D117*
X240482Y63702D03*
D13*
X250800Y63702D03*
D102*
X273770Y63702D03*
D13*
X393684Y63702D03*
D37*
X421132Y63702D03*
D12*
X191037Y64092D03*
D114*
X201744Y64092D03*
D89*
X215565Y64092D03*
D118*
X227050Y64092D03*
D114*
X240288Y64092D03*
D100*
X250994Y64092D03*
D103*
X273770Y64092D03*
D100*
X393490Y64092D03*
D121*
X421911Y64092D03*
D87*
X191232Y64481D03*
X201744Y64481D03*
D85*
X215955Y64481D03*
D104*
X226856Y64481D03*
D117*
X240482Y64481D03*
D91*
X251189Y64481D03*
D85*
X273965Y64481D03*
D13*
X393295Y64481D03*
D122*
X422690Y64481D03*
D98*
X191816Y64870D03*
D87*
X201744Y64870D03*
D102*
X216539Y64870D03*
D104*
X226466Y64870D03*
D85*
X240872Y64870D03*
X250994Y64870D03*
D102*
X274160Y64870D03*
D13*
X393295Y64870D03*
X417044Y64870D03*
D69*
X426388Y64870D03*
D113*
X192984Y65260D03*
D89*
X201549Y65260D03*
D123*
X217512Y65260D03*
D103*
X225882Y65260D03*
D100*
X241650Y65260D03*
D103*
X250800Y65260D03*
D83*
X274354Y65260D03*
D105*
X393295Y65260D03*
D108*
X416850Y65260D03*
D35*
X428335Y65260D03*
D15*
X194736Y65649D03*
D87*
X200965Y65649D03*
D109*
X221600Y65649D03*
D124*
X246128Y65649D03*
D102*
X274549Y65649D03*
D13*
X393295Y65649D03*
D104*
X416460Y65649D03*
D125*
X430087Y65649D03*
D38*
X196293Y66038D03*
D45*
X221405Y66038D03*
D126*
X246128Y66038D03*
D108*
X274744Y66038D03*
D105*
X393295Y66038D03*
D89*
X416071Y66038D03*
D127*
X431450Y66038D03*
D69*
X196293Y66428D03*
D30*
X221600Y66428D03*
D46*
X245933Y66428D03*
D98*
X275133Y66428D03*
D13*
X393295Y66428D03*
D85*
X416071Y66428D03*
D55*
X432812Y66428D03*
D61*
X196488Y66817D03*
D55*
X221405Y66817D03*
D34*
X245933Y66817D03*
D13*
X275328Y66817D03*
X393295Y66817D03*
D85*
X415682Y66817D03*
D44*
X433786Y66817D03*
D127*
X196683Y67206D03*
D128*
X221210Y67206D03*
D41*
X245738Y67206D03*
D100*
X275522Y67206D03*
D105*
X393295Y67206D03*
D118*
X415487Y67206D03*
D129*
X434759Y67206D03*
D130*
X197461Y67596D03*
D131*
X221210Y67596D03*
D132*
X245349Y67596D03*
D98*
X275522Y67596D03*
D13*
X393295Y67596D03*
D85*
X415292Y67596D03*
D133*
X436511Y67596D03*
D101*
X275912Y67985D03*
X393100Y67985D03*
D85*
X415292Y67985D03*
D134*
X437484Y67985D03*
D100*
X276301Y68374D03*
D108*
X393100Y68374D03*
D114*
X415098Y68374D03*
D43*
X439042Y68374D03*
D101*
X276690Y68764D03*
X393100Y68764D03*
D85*
X414903Y68764D03*
D116*
X440015Y68764D03*
D100*
X277080Y69153D03*
D105*
X392906Y69153D03*
D89*
X414903Y69153D03*
D135*
X441183Y69153D03*
D13*
X277274Y69542D03*
X392906Y69542D03*
D102*
X414708Y69542D03*
D42*
X442740Y69542D03*
D13*
X277664Y69932D03*
X392906Y69932D03*
D102*
X414708Y69932D03*
D97*
X443519Y69932D03*
D106*
X278442Y70321D03*
D105*
X392906Y70321D03*
D103*
X414319Y70321D03*
D99*
X444492Y70321D03*
D77*
X279221Y70710D03*
D13*
X392906Y70710D03*
D102*
X414319Y70710D03*
D82*
X445660Y70710D03*
D127*
X280000Y71100D03*
D105*
X392906Y71100D03*
D103*
X414319Y71100D03*
D136*
X446634Y71100D03*
D137*
X280973Y71489D03*
D13*
X392906Y71489D03*
D102*
X413930Y71489D03*
D96*
X447607Y71489D03*
D138*
X282336Y71878D03*
D13*
X392906Y71878D03*
D102*
X413930Y71878D03*
D139*
X448580Y71878D03*
D140*
X285061Y72268D03*
D141*
X393100Y72268D03*
D100*
X413735Y72268D03*
D128*
X449748Y72268D03*
D142*
X293432Y72657D03*
D80*
X393295Y72657D03*
D98*
X413735Y72657D03*
D139*
X450527Y72657D03*
D143*
X298298Y73046D03*
D43*
X393879Y73046D03*
D93*
X413540Y73046D03*
D43*
X451500Y73046D03*
D144*
X299855Y73436D03*
D55*
X394658Y73436D03*
D98*
X413346Y73436D03*
D116*
X452474Y73436D03*
D144*
X303749Y73825D03*
D15*
X395242Y73825D03*
D98*
X413346Y73825D03*
D145*
X453447Y73825D03*
D146*
X309394Y74214D03*
D33*
X395631Y74214D03*
D100*
X413346Y74214D03*
D135*
X454420Y74214D03*
D147*
X314261Y74604D03*
D148*
X396215Y74604D03*
D101*
X412956Y74604D03*
D77*
X455199Y74604D03*
D149*
X319517Y74993D03*
D150*
X396604Y74993D03*
D101*
X412956Y74993D03*
D134*
X456172Y74993D03*
D151*
X322437Y75382D03*
D100*
X392711Y75382D03*
D152*
X399330Y75382D03*
D108*
X412956Y75382D03*
D75*
X456951Y75382D03*
D153*
X326330Y75772D03*
D91*
X392516Y75772D03*
D53*
X400887Y75772D03*
D13*
X412762Y75772D03*
D154*
X457924Y75772D03*
D155*
X331002Y76161D03*
D93*
X392516Y76161D03*
D156*
X402834Y76161D03*
D100*
X412567Y76161D03*
D54*
X459092Y76161D03*
D142*
X335090Y76550D03*
D91*
X392516Y76550D03*
D49*
X404196Y76550D03*
D13*
X412372Y76550D03*
D44*
X460260Y76550D03*
D157*
X339762Y76940D03*
D98*
X392322Y76940D03*
D158*
X407506Y76940D03*
D73*
X461233Y76940D03*
D159*
X344045Y77329D03*
D100*
X392322Y77329D03*
D160*
X407895Y77329D03*
D152*
X462012Y77329D03*
D161*
X348911Y77718D03*
D98*
X392322Y77718D03*
D37*
X408284Y77718D03*
D94*
X462985Y77718D03*
D162*
X353778Y78108D03*
D98*
X392322Y78108D03*
D46*
X408674Y78108D03*
D73*
X463959Y78108D03*
D163*
X359034Y78497D03*
D100*
X392322Y78497D03*
D47*
X409063Y78497D03*
D57*
X465127Y78497D03*
D164*
X361954Y78886D03*
D98*
X392322Y78886D03*
D56*
X409647Y78886D03*
D73*
X465905Y78886D03*
D165*
X366042Y79276D03*
D103*
X392127Y79276D03*
D127*
X410036Y79276D03*
D129*
X467073Y79276D03*
D166*
X371493Y79665D03*
D102*
X391348Y79665D03*
D167*
X410231Y79665D03*
D137*
X468241Y79665D03*
D168*
X378890Y80054D03*
D80*
X410426Y80054D03*
D125*
X469409Y80054D03*
D169*
X381226Y80444D03*
D105*
X410426Y80444D03*
D129*
X470188Y80444D03*
D170*
X382783Y80833D03*
D98*
X410620Y80833D03*
D44*
X471161Y80833D03*
D171*
X384340Y81222D03*
D100*
X410620Y81222D03*
D50*
X472329Y81222D03*
D172*
X385508Y81612D03*
D98*
X410620Y81612D03*
D48*
X473108Y81612D03*
D173*
X386676Y82001D03*
D98*
X410620Y82001D03*
D15*
X474276Y82001D03*
D51*
X387844Y82390D03*
D100*
X410620Y82390D03*
D129*
X475249Y82390D03*
D94*
X389402Y82780D03*
D98*
X410620Y82780D03*
D53*
X476417Y82780D03*
D85*
X391154Y83169D03*
D98*
X410620Y83169D03*
D44*
X477391Y83169D03*
D89*
X391154Y83558D03*
D103*
X410426Y83558D03*
D54*
X478559Y83558D03*
D102*
X390959Y83948D03*
X410426Y83948D03*
D73*
X479532Y83948D03*
D103*
X390959Y84337D03*
D108*
X410231Y84337D03*
D54*
X480505Y84337D03*
D102*
X390959Y84726D03*
D101*
X410231Y84726D03*
D44*
X481673Y84726D03*
D102*
X390959Y85116D03*
X410036Y85116D03*
D56*
X482452Y85116D03*
D89*
X390764Y85505D03*
D103*
X410036Y85505D03*
D129*
X483425Y85505D03*
D85*
X390764Y85894D03*
D91*
X409647Y85894D03*
D125*
X484593Y85894D03*
D89*
X390764Y86284D03*
D93*
X409647Y86284D03*
D41*
X485567Y86284D03*
D85*
X390764Y86673D03*
X409452Y86673D03*
D125*
X486540Y86673D03*
D85*
X390764Y87062D03*
X409452Y87062D03*
D56*
X487903Y87062D03*
D93*
X390570Y87452D03*
D103*
X409258Y87452D03*
D54*
X489071Y87452D03*
D91*
X390570Y87841D03*
D85*
X409063Y87841D03*
D44*
X490239Y87841D03*
D93*
X390570Y88230D03*
D89*
X409063Y88230D03*
D129*
X491212Y88230D03*
D91*
X390570Y88620D03*
D85*
X409063Y88620D03*
D53*
X491991Y88620D03*
D91*
X390570Y89009D03*
D98*
X409452Y89009D03*
D53*
X492769Y89009D03*
D89*
X390375Y89398D03*
D174*
X410231Y89398D03*
D50*
X493743Y89398D03*
D102*
X390180Y89788D03*
D154*
X410815Y89788D03*
D15*
X494521Y89788D03*
D102*
X390180Y90177D03*
D175*
X411204Y90177D03*
D29*
X495495Y90177D03*
D89*
X389986Y90566D03*
D50*
X411594Y90566D03*
D47*
X496663Y90566D03*
D85*
X389986Y90956D03*
D32*
X411788Y90956D03*
D15*
X498025Y90956D03*
D89*
X389986Y91345D03*
D38*
X412372Y91345D03*
D47*
X498999Y91345D03*
D104*
X389596Y91734D03*
D176*
X412956Y91734D03*
D30*
X499972Y91734D03*
D104*
X389596Y92124D03*
D102*
X408479Y92124D03*
D29*
X415682Y92124D03*
D49*
X501140Y92124D03*
D83*
X389596Y92513D03*
D108*
X408284Y92513D03*
D35*
X417044Y92513D03*
D39*
X502113Y92513D03*
D104*
X389596Y92902D03*
D101*
X408284Y92902D03*
D32*
X418018Y92902D03*
D49*
X503087Y92902D03*
D104*
X389596Y93292D03*
D101*
X408284Y93292D03*
D49*
X418991Y93292D03*
X504255Y93292D03*
D118*
X389402Y93681D03*
D103*
X408090Y93681D03*
D177*
X420354Y93681D03*
D178*
X505423Y93681D03*
D107*
X389402Y94070D03*
D102*
X408090Y94070D03*
D37*
X423079Y94070D03*
D49*
X506591Y94070D03*
D89*
X389207Y94460D03*
D108*
X407895Y94460D03*
D179*
X424831Y94460D03*
D35*
X507759Y94460D03*
D85*
X389207Y94849D03*
D180*
X407700Y94849D03*
D181*
X426972Y94849D03*
D29*
X508732Y94849D03*
D85*
X389207Y95238D03*
D180*
X407700Y95238D03*
D122*
X428140Y95238D03*
D34*
X509511Y95238D03*
D103*
X389012Y95628D03*
D182*
X407700Y95628D03*
D183*
X429114Y95628D03*
D184*
X510679Y95628D03*
D102*
X389012Y96017D03*
D104*
X407506Y96017D03*
D122*
X430476Y96017D03*
D36*
X512041Y96017D03*
D89*
X388818Y96406D03*
D182*
X407311Y96406D03*
D185*
X432034Y96406D03*
D45*
X513015Y96406D03*
D85*
X388818Y96796D03*
D104*
X407116Y96796D03*
D186*
X433396Y96796D03*
D36*
X513988Y96796D03*
D85*
X388818Y97185D03*
D104*
X407116Y97185D03*
D187*
X434759Y97185D03*
D30*
X514767Y97185D03*
D89*
X388818Y97574D03*
D83*
X407116Y97574D03*
D188*
X436316Y97574D03*
D35*
X515935Y97574D03*
D91*
X388623Y97964D03*
D104*
X406727Y97964D03*
D189*
X437874Y97964D03*
D29*
X516908Y97964D03*
D93*
X388623Y98353D03*
D83*
X406727Y98353D03*
D179*
X439236Y98353D03*
D33*
X518271Y98353D03*
D91*
X388623Y98742D03*
D104*
X406727Y98742D03*
D158*
X440988Y98742D03*
D30*
X519439Y98742D03*
D85*
X388428Y99132D03*
D104*
X406727Y99132D03*
D122*
X442546Y99132D03*
D29*
X520801Y99132D03*
D89*
X388428Y99521D03*
D118*
X406532Y99521D03*
D190*
X443908Y99521D03*
D50*
X522164Y99521D03*
D85*
X388428Y99910D03*
D104*
X406338Y99910D03*
D191*
X445466Y99910D03*
D49*
X522943Y99910D03*
D85*
X388428Y100300D03*
D104*
X406338Y100300D03*
D122*
X446828Y100300D03*
D49*
X524111Y100300D03*
D89*
X388428Y100689D03*
D83*
X406338Y100689D03*
D17*
X448386Y100689D03*
D47*
X525084Y100689D03*
D102*
X388234Y101078D03*
X406143Y101078D03*
D122*
X449943Y101078D03*
D49*
X526057Y101078D03*
D103*
X388234Y101468D03*
X406143Y101468D03*
D17*
X451500Y101468D03*
D39*
X527031Y101468D03*
D85*
X388039Y101857D03*
D102*
X406143Y101857D03*
D192*
X453058Y101857D03*
D49*
X528004Y101857D03*
D85*
X388039Y102246D03*
D102*
X406143Y102246D03*
D193*
X454810Y102246D03*
D49*
X528783Y102246D03*
D89*
X388039Y102636D03*
D108*
X405948Y102636D03*
D194*
X456172Y102636D03*
D47*
X529756Y102636D03*
D85*
X388039Y103025D03*
D180*
X405754Y103025D03*
D193*
X457146Y103025D03*
D32*
X531703Y103025D03*
D89*
X388039Y103414D03*
D182*
X405754Y103414D03*
D195*
X458508Y103414D03*
D45*
X532871Y103414D03*
D85*
X388039Y103804D03*
D180*
X405754Y103804D03*
D26*
X459871Y103804D03*
D69*
X533844Y103804D03*
D107*
X387844Y104193D03*
D104*
X405559Y104193D03*
D18*
X461039Y104193D03*
D32*
X534817Y104193D03*
D118*
X387844Y104582D03*
D83*
X405170Y104582D03*
D17*
X462401Y104582D03*
D60*
X535985Y104582D03*
D104*
X387650Y104972D03*
X405170Y104972D03*
D26*
X463764Y104972D03*
D15*
X537348Y104972D03*
D104*
X387650Y105361D03*
X405170Y105361D03*
D26*
X465321Y105361D03*
D29*
X538321Y105361D03*
D83*
X387650Y105750D03*
X405170Y105750D03*
D183*
X466489Y105750D03*
D33*
X539294Y105750D03*
D104*
X387650Y106140D03*
X405170Y106140D03*
D181*
X468241Y106140D03*
D49*
X540073Y106140D03*
D83*
X387650Y106529D03*
D118*
X404975Y106529D03*
D179*
X469604Y106529D03*
D35*
X541241Y106529D03*
D107*
X387455Y106918D03*
X404975Y106918D03*
D158*
X470967Y106918D03*
D29*
X542214Y106918D03*
D107*
X387455Y107308D03*
X404975Y107308D03*
D122*
X472913Y107308D03*
D29*
X543382Y107308D03*
D118*
X387455Y107697D03*
D114*
X404586Y107697D03*
D196*
X474276Y107697D03*
D156*
X544550Y107697D03*
D107*
X387455Y108086D03*
D87*
X404586Y108086D03*
D90*
X475639Y108086D03*
D29*
X545329Y108086D03*
D118*
X387455Y108476D03*
D114*
X404586Y108476D03*
D190*
X477001Y108476D03*
D197*
X546302Y108476D03*
D107*
X387455Y108865D03*
D87*
X404586Y108865D03*
D18*
X478169Y108865D03*
D48*
X547470Y108865D03*
D107*
X387066Y109254D03*
D87*
X404586Y109254D03*
D181*
X479532Y109254D03*
D137*
X548444Y109254D03*
D118*
X387066Y109644D03*
X404196Y109644D03*
D179*
X480895Y109644D03*
D57*
X549612Y109644D03*
D107*
X387066Y110033D03*
X404196Y110033D03*
D173*
X482063Y110033D03*
D134*
X550780Y110033D03*
D108*
X287592Y110422D03*
D118*
X387066Y110422D03*
X404196Y110422D03*
D198*
X483036Y110422D03*
D127*
X551753Y110422D03*
D199*
X299466Y110812D03*
D107*
X387066Y110812D03*
X404196Y110812D03*
D16*
X484204Y110812D03*
D55*
X553116Y110812D03*
D200*
X182472Y111201D03*
D201*
X282336Y111201D03*
D107*
X387066Y111201D03*
X404196Y111201D03*
D37*
X485372Y111201D03*
D44*
X554089Y111201D03*
D57*
X184808Y111590D03*
D202*
X280973Y111590D03*
D118*
X387066Y111590D03*
D89*
X404002Y111590D03*
D160*
X486540Y111590D03*
D127*
X555257Y111590D03*
D203*
X267736Y111980D03*
D104*
X386871Y111980D03*
D85*
X404002Y111980D03*
D18*
X488292Y111980D03*
D134*
X556620Y111980D03*
D204*
X272018Y112369D03*
D120*
X386676Y112369D03*
D87*
X403807Y112369D03*
D191*
X489460Y112369D03*
D205*
X557788Y112369D03*
D206*
X276106Y112758D03*
D83*
X386482Y112758D03*
D114*
X403807Y112758D03*
D207*
X490628Y112758D03*
D152*
X558956Y112758D03*
D208*
X279221Y113148D03*
D104*
X386482Y113148D03*
D87*
X403807Y113148D03*
D186*
X491796Y113148D03*
D44*
X559929Y113148D03*
D209*
X229776Y113537D03*
D210*
X301802Y113537D03*
D211*
X357866Y113537D03*
D212*
X385898Y113537D03*
D89*
X403612Y113537D03*
D213*
X493159Y113537D03*
D152*
X560513Y113537D03*
D214*
X219653Y113926D03*
D85*
X291485Y113926D03*
D215*
X361954Y113926D03*
D102*
X403807Y113926D03*
D26*
X494521Y113926D03*
D73*
X561681Y113926D03*
D216*
X218485Y114316D03*
D217*
X367210Y114316D03*
D98*
X404002Y114316D03*
D26*
X496079Y114316D03*
D73*
X562849Y114316D03*
D218*
X205053Y114705D03*
D219*
X370130Y114705D03*
D105*
X404196Y114705D03*
D220*
X497636Y114705D03*
D58*
X564017Y114705D03*
D221*
X199992Y115094D03*
D222*
X376359Y115094D03*
D96*
X404391Y115094D03*
D181*
X499388Y115094D03*
D73*
X564796Y115094D03*
D223*
X188312Y115484D03*
D172*
X380447Y115484D03*
D110*
X404780Y115484D03*
D181*
X500945Y115484D03*
D56*
X565769Y115484D03*
D28*
X187923Y115873D03*
D156*
X383367Y115873D03*
D224*
X405364Y115873D03*
D190*
X502697Y115873D03*
D57*
X567132Y115873D03*
D225*
X384924Y116262D03*
D56*
X405754Y116262D03*
D158*
X504449Y116262D03*
D94*
X568105Y116262D03*
D103*
X385898Y116652D03*
D35*
X406532Y116652D03*
D207*
X505812Y116652D03*
D152*
X569078Y116652D03*
D107*
X386287Y117041D03*
D138*
X407311Y117041D03*
D122*
X507175Y117041D03*
D55*
X570246Y117041D03*
D107*
X386287Y117430D03*
D189*
X407895Y117430D03*
D191*
X508927Y117430D03*
D137*
X571414Y117430D03*
D118*
X386287Y117820D03*
D89*
X402834Y117820D03*
D39*
X410620Y117820D03*
D183*
X509705Y117820D03*
D129*
X572193Y117820D03*
D107*
X386287Y118209D03*
D87*
X402639Y118209D03*
D32*
X411788Y118209D03*
D122*
X511068Y118209D03*
D48*
X573166Y118209D03*
D118*
X386287Y118598D03*
D114*
X402639Y118598D03*
D50*
X413540Y118598D03*
D190*
X512820Y118598D03*
D129*
X574140Y118598D03*
D107*
X386287Y118988D03*
D117*
X402444Y118988D03*
D44*
X415487Y118988D03*
D226*
X513988Y118988D03*
D44*
X575502Y118988D03*
D107*
X386287Y119377D03*
X402250Y119377D03*
D73*
X416850Y119377D03*
D90*
X514961Y119377D03*
D112*
X533260Y119377D03*
D73*
X576476Y119377D03*
D118*
X386287Y119766D03*
X402250Y119766D03*
D54*
X418212Y119766D03*
D220*
X515935Y119766D03*
D129*
X533649Y119766D03*
D152*
X577644Y119766D03*
D107*
X386287Y120156D03*
X402250Y120156D03*
D137*
X419575Y120156D03*
D158*
X517297Y120156D03*
D27*
X533844Y120156D03*
D133*
X578617Y120156D03*
D118*
X386287Y120545D03*
X402250Y120545D03*
D47*
X421132Y120545D03*
D227*
X518465Y120545D03*
D188*
X534428Y120545D03*
D228*
X579785Y120545D03*
D107*
X386287Y120934D03*
D117*
X402055Y120934D03*
D32*
X422690Y120934D03*
D229*
X527615Y120934D03*
D154*
X580953Y120934D03*
D230*
X386092Y121324D03*
D117*
X402055Y121324D03*
D69*
X424442Y121324D03*
D231*
X528588Y121324D03*
D94*
X582121Y121324D03*
D232*
X386092Y121713D03*
D114*
X401860Y121713D03*
D28*
X426194Y121713D03*
D233*
X529756Y121713D03*
D224*
X583289Y121713D03*
D120*
X385898Y122102D03*
D87*
X401860Y122102D03*
D46*
X427751Y122102D03*
D234*
X524500Y122102D03*
D16*
X539878Y122102D03*
D56*
X584457Y122102D03*
D120*
X385898Y122492D03*
D87*
X401860Y122492D03*
D69*
X429503Y122492D03*
D18*
X524889Y122492D03*
D124*
X541241Y122492D03*
D56*
X585625Y122492D03*
D235*
X385898Y122881D03*
D114*
X401860Y122881D03*
D177*
X431255Y122881D03*
D92*
X525084Y122881D03*
D236*
X542798Y122881D03*
D57*
X586598Y122881D03*
D120*
X385898Y123270D03*
D87*
X401860Y123270D03*
D32*
X433202Y123270D03*
D34*
X525473Y123270D03*
D37*
X544161Y123270D03*
D73*
X587766Y123270D03*
D235*
X385898Y123660D03*
D118*
X401471Y123660D03*
D33*
X434954Y123660D03*
D57*
X525863Y123660D03*
D126*
X545913Y123660D03*
D152*
X589324Y123660D03*
D120*
X385898Y124049D03*
D107*
X401471Y124049D03*
D32*
X436706Y124049D03*
D139*
X526057Y124049D03*
D32*
X547665Y124049D03*
D55*
X590102Y124049D03*
D230*
X385703Y124438D03*
D107*
X401471Y124438D03*
D30*
X438458Y124438D03*
D82*
X526252Y124438D03*
D48*
X549417Y124438D03*
D73*
X590881Y124438D03*
D232*
X385703Y124828D03*
D118*
X401471Y124828D03*
D177*
X440210Y124828D03*
D108*
X526252Y124828D03*
D54*
X550974Y124828D03*
D152*
X592049Y124828D03*
D230*
X385703Y125217D03*
D104*
X401276Y125217D03*
D69*
X441962Y125217D03*
D104*
X525863Y125217D03*
D133*
X552532Y125217D03*
X593022Y125217D03*
D118*
X385508Y125606D03*
X401082Y125606D03*
D39*
X443714Y125606D03*
D83*
X525863Y125606D03*
D75*
X553894Y125606D03*
D237*
X594385Y125606D03*
D107*
X385508Y125996D03*
X401082Y125996D03*
D40*
X445466Y125996D03*
D104*
X525863Y125996D03*
D134*
X555062Y125996D03*
D77*
X595358Y125996D03*
D117*
X385314Y126385D03*
D107*
X401082Y126385D03*
D46*
X447218Y126385D03*
D102*
X526057Y126385D03*
D55*
X556620Y126385D03*
D145*
X596332Y126385D03*
D12*
X385314Y126774D03*
D118*
X401082Y126774D03*
D59*
X448970Y126774D03*
D103*
X526057Y126774D03*
D54*
X557593Y126774D03*
D113*
X597500Y126774D03*
D117*
X385314Y127164D03*
D87*
X400692Y127164D03*
D46*
X450722Y127164D03*
D102*
X526057Y127164D03*
D44*
X559150Y127164D03*
D42*
X598862Y127164D03*
D117*
X385314Y127553D03*
D87*
X400692Y127553D03*
D148*
X452279Y127553D03*
D101*
X526252Y127553D03*
D73*
X560124Y127553D03*
D77*
X600030Y127553D03*
D12*
X385314Y127942D03*
D114*
X400692Y127942D03*
D177*
X454226Y127942D03*
D108*
X526641Y127942D03*
D54*
X561097Y127942D03*
D237*
X601393Y127942D03*
D107*
X385119Y128332D03*
D87*
X400692Y128332D03*
D30*
X455978Y128332D03*
D101*
X526641Y128332D03*
D56*
X561876Y128332D03*
D77*
X602366Y128332D03*
D118*
X385119Y128721D03*
D12*
X400498Y128721D03*
D35*
X457535Y128721D03*
D108*
X527031Y128721D03*
D54*
X563044Y128721D03*
D75*
X603340Y128721D03*
D107*
X385119Y129110D03*
D117*
X400498Y129110D03*
D29*
X459287Y129110D03*
D238*
X527225Y129110D03*
D73*
X564406Y129110D03*
D77*
X604313Y129110D03*
D117*
X384924Y129500D03*
D107*
X400303Y129500D03*
D97*
X424052Y129500D03*
D61*
X460844Y129500D03*
D13*
X527615Y129500D03*
D125*
X565574Y129500D03*
D205*
X605286Y129500D03*
D12*
X384924Y129889D03*
D118*
X400303Y129889D03*
D75*
X424247Y129889D03*
D197*
X462207Y129889D03*
D108*
X528199Y129889D03*
D129*
X566742Y129889D03*
D75*
X606454Y129889D03*
D117*
X384924Y130278D03*
D107*
X400303Y130278D03*
D56*
X424442Y130278D03*
D48*
X463764Y130278D03*
D13*
X528783Y130278D03*
D34*
X567910Y130278D03*
D205*
X607233Y130278D03*
D12*
X384924Y130668D03*
D118*
X400303Y130668D03*
D197*
X424831Y130668D03*
X465321Y130668D03*
D141*
X529367Y130668D03*
D35*
X569273Y130668D03*
D43*
X608012Y130668D03*
D107*
X384730Y131057D03*
X400303Y131057D03*
D49*
X424831Y131057D03*
D29*
X466684Y131057D03*
D42*
X529951Y131057D03*
D30*
X570052Y131057D03*
D145*
X609180Y131057D03*
D107*
X384730Y131446D03*
X400303Y131446D03*
D13*
X422106Y131446D03*
D238*
X427946Y131446D03*
D48*
X468047Y131446D03*
D139*
X530340Y131446D03*
D29*
X571025Y131446D03*
D145*
X610348Y131446D03*
D118*
X384730Y131836D03*
X400303Y131836D03*
D103*
X421716Y131836D03*
D108*
X428530Y131836D03*
D47*
X469409Y131836D03*
D113*
X531313Y131836D03*
D50*
X572388Y131836D03*
D43*
X611516Y131836D03*
D107*
X384730Y132225D03*
D85*
X400108Y132225D03*
D91*
X421327Y132225D03*
D98*
X428919Y132225D03*
D49*
X470772Y132225D03*
D139*
X532287Y132225D03*
D15*
X573556Y132225D03*
D42*
X612489Y132225D03*
D118*
X384730Y132614D03*
D114*
X399914Y132614D03*
D93*
X421327Y132614D03*
D108*
X429308Y132614D03*
D177*
X472135Y132614D03*
D135*
X533065Y132614D03*
D47*
X574529Y132614D03*
D43*
X613462Y132614D03*
D107*
X384730Y133003D03*
D87*
X399914Y133003D03*
D102*
X420938Y133003D03*
D98*
X429698Y133003D03*
D49*
X473497Y133003D03*
D77*
X533844Y133003D03*
D29*
X575308Y133003D03*
D77*
X614436Y133003D03*
D107*
X384730Y133393D03*
D87*
X399914Y133393D03*
D102*
X420548Y133393D03*
D91*
X429892Y133393D03*
D29*
X474860Y133393D03*
D116*
X535012Y133393D03*
D30*
X576281Y133393D03*
D205*
X615409Y133393D03*
D118*
X384730Y133782D03*
D114*
X399914Y133782D03*
D103*
X420548Y133782D03*
D89*
X430087Y133782D03*
D47*
X476417Y133782D03*
D135*
X536180Y133782D03*
D47*
X577254Y133782D03*
D228*
X616382Y133782D03*
D85*
X384535Y134171D03*
D87*
X399914Y134171D03*
D104*
X420354Y134171D03*
D87*
X430282Y134171D03*
D44*
X478559Y134171D03*
D205*
X537542Y134171D03*
D15*
X578228Y134171D03*
D55*
X618134Y134171D03*
D85*
X384535Y134561D03*
D87*
X399914Y134561D03*
D104*
X420354Y134561D03*
D87*
X430282Y134561D03*
D44*
X479337Y134561D03*
D154*
X538516Y134561D03*
D53*
X579201Y134561D03*
D133*
X619107Y134561D03*
D114*
X384340Y134950D03*
D118*
X399524Y134950D03*
D83*
X420354Y134950D03*
D114*
X430282Y134950D03*
D100*
X447996Y134950D03*
D60*
X480311Y134950D03*
D54*
X539684Y134950D03*
D129*
X579980Y134950D03*
D127*
X619886Y134950D03*
D87*
X384340Y135339D03*
D107*
X399524Y135339D03*
D85*
X420743Y135339D03*
D107*
X429892Y135339D03*
D139*
X448191Y135339D03*
D53*
X481479Y135339D03*
D44*
X540852Y135339D03*
D137*
X580758Y135339D03*
D134*
X620859Y135339D03*
D114*
X384340Y135729D03*
D118*
X399524Y135729D03*
D100*
X421132Y135729D03*
D89*
X429698Y135729D03*
D75*
X448386Y135729D03*
D41*
X482841Y135729D03*
D224*
X542020Y135729D03*
D129*
X581537Y135729D03*
D75*
X621638Y135729D03*
D87*
X384340Y136118D03*
D117*
X399330Y136118D03*
D112*
X421911Y136118D03*
D98*
X428919Y136118D03*
D56*
X448580Y136118D03*
X484009Y136118D03*
D205*
X542993Y136118D03*
D137*
X582316Y136118D03*
D77*
X622611Y136118D03*
D85*
X384146Y136507D03*
D117*
X399330Y136507D03*
D27*
X425220Y136507D03*
D48*
X448580Y136507D03*
D73*
X485372Y136507D03*
X544161Y136507D03*
D137*
X583094Y136507D03*
D77*
X623390Y136507D03*
D89*
X384146Y136897D03*
D12*
X399330Y136897D03*
D39*
X425415Y136897D03*
D35*
X448580Y136897D03*
D127*
X486735Y136897D03*
D41*
X545524Y136897D03*
D129*
X583873Y136897D03*
D224*
X624558Y136897D03*
D85*
X384146Y137286D03*
D107*
X399135Y137286D03*
D48*
X425610Y137286D03*
D69*
X448970Y137286D03*
D94*
X487903Y137286D03*
D73*
X546497Y137286D03*
D56*
X584846Y137286D03*
D77*
X625337Y137286D03*
D102*
X384340Y137675D03*
D107*
X399135Y137675D03*
D56*
X425999Y137675D03*
D138*
X448970Y137675D03*
D94*
X489071Y137675D03*
D239*
X547665Y137675D03*
D56*
X585625Y137675D03*
D132*
X626115Y137675D03*
D240*
X385703Y138065D03*
D12*
X398940Y138065D03*
D75*
X425804Y138065D03*
D108*
X445271Y138065D03*
D135*
X451695Y138065D03*
D127*
X490239Y138065D03*
D54*
X548638Y138065D03*
D224*
X586793Y138065D03*
D95*
X626894Y138065D03*
D49*
X387455Y138454D03*
D87*
X398746Y138454D03*
D97*
X425610Y138454D03*
D180*
X445076Y138454D03*
D102*
X453642Y138454D03*
D154*
X491407Y138454D03*
D44*
X549806Y138454D03*
D205*
X587377Y138454D03*
X627867Y138454D03*
D88*
X391154Y138843D03*
D83*
X444882Y138843D03*
D89*
X453836Y138843D03*
D152*
X492380Y138843D03*
D197*
X550974Y138843D03*
D14*
X587961Y138843D03*
D237*
X629035Y138843D03*
D223*
X391154Y139233D03*
D104*
X444882Y139233D03*
D85*
X454226Y139233D03*
D55*
X493548Y139233D03*
D61*
X551948Y139233D03*
D145*
X588545Y139233D03*
D205*
X629814Y139233D03*
D241*
X390959Y139622D03*
D104*
X444882Y139622D03*
D87*
X454420Y139622D03*
D55*
X494327Y139622D03*
D29*
X553116Y139622D03*
D42*
X589129Y139622D03*
D134*
X630593Y139622D03*
D242*
X390959Y140011D03*
D83*
X445271Y140011D03*
D114*
X454420Y140011D03*
D152*
X495495Y140011D03*
D47*
X554284Y140011D03*
D43*
X589713Y140011D03*
D237*
X631371Y140011D03*
D13*
X384340Y140401D03*
D16*
X393490Y140401D03*
D104*
X445660Y140401D03*
D87*
X454420Y140401D03*
D133*
X496468Y140401D03*
D29*
X555452Y140401D03*
D225*
X590102Y140401D03*
D134*
X632150Y140401D03*
D93*
X383951Y140790D03*
D50*
X395242Y140790D03*
D108*
X446439Y140790D03*
D89*
X454226Y140790D03*
D141*
X472524Y140790D03*
D237*
X497441Y140790D03*
D47*
X556230Y140790D03*
D113*
X590492Y140790D03*
D237*
X632929Y140790D03*
D91*
X383951Y141179D03*
D77*
X396410Y141179D03*
D97*
X447412Y141179D03*
D91*
X454031Y141179D03*
D134*
X472524Y141179D03*
D205*
X498220Y141179D03*
D49*
X557204Y141179D03*
D225*
X590881Y141179D03*
D205*
X633707Y141179D03*
D102*
X383562Y141569D03*
D80*
X397188Y141569D03*
D69*
X450527Y141569D03*
D73*
X472524Y141569D03*
D134*
X498609Y141569D03*
D29*
X558566Y141569D03*
D80*
X591076Y141569D03*
D154*
X634681Y141569D03*
D103*
X383562Y141958D03*
X397578Y141958D03*
D35*
X450527Y141958D03*
D50*
X472719Y141958D03*
D237*
X499388Y141958D03*
D33*
X559540Y141958D03*
D119*
X591465Y141958D03*
D228*
X635459Y141958D03*
D102*
X383562Y142347D03*
D85*
X397772Y142347D03*
D15*
X450916Y142347D03*
D29*
X472913Y142347D03*
D77*
X499972Y142347D03*
D52*
X560513Y142347D03*
D112*
X591660Y142347D03*
D134*
X636433Y142347D03*
D102*
X383562Y142737D03*
D85*
X397772Y142737D03*
D55*
X451111Y142737D03*
D30*
X473108Y142737D03*
D145*
X500167Y142737D03*
D52*
X561681Y142737D03*
D13*
X591854Y142737D03*
D134*
X637211Y142737D03*
D89*
X383367Y143126D03*
X397772Y143126D03*
D14*
X451306Y143126D03*
D141*
X470577Y143126D03*
D123*
X476028Y143126D03*
D128*
X500751Y143126D03*
D51*
X562654Y143126D03*
D123*
X592049Y143126D03*
D237*
X637990Y143126D03*
D85*
X383367Y143515D03*
X397772Y143515D03*
D80*
X451306Y143515D03*
D98*
X470188Y143515D03*
D91*
X477001Y143515D03*
D42*
X501140Y143515D03*
D69*
X563822Y143515D03*
D13*
X592244Y143515D03*
D116*
X638963Y143515D03*
D103*
X383172Y143905D03*
D89*
X397772Y143905D03*
D103*
X469993Y143905D03*
D89*
X477585Y143905D03*
D113*
X501335Y143905D03*
D59*
X564990Y143905D03*
D100*
X592438Y143905D03*
D174*
X639937Y143905D03*
D102*
X383172Y144294D03*
D85*
X397772Y144294D03*
X469799Y144294D03*
D107*
X477780Y144294D03*
D225*
X501724Y144294D03*
D40*
X566548Y144294D03*
D13*
X592633Y144294D03*
D116*
X640910Y144294D03*
D102*
X383172Y144683D03*
D85*
X397772Y144683D03*
X469799Y144683D03*
D107*
X478169Y144683D03*
D80*
X501919Y144683D03*
D69*
X567716Y144683D03*
D13*
X592633Y144683D03*
D77*
X641689Y144683D03*
D103*
X383172Y145073D03*
D89*
X397772Y145073D03*
X469799Y145073D03*
D118*
X478169Y145073D03*
D119*
X502308Y145073D03*
D28*
X569468Y145073D03*
D141*
X592828Y145073D03*
D14*
X642467Y145073D03*
D104*
X382978Y145462D03*
D85*
X397772Y145462D03*
X469799Y145462D03*
D87*
X478559Y145462D03*
D112*
X502503Y145462D03*
D243*
X571220Y145462D03*
D80*
X593022Y145462D03*
D77*
X643635Y145462D03*
D83*
X382978Y145851D03*
D89*
X397772Y145851D03*
D103*
X470383Y145851D03*
D114*
X478559Y145851D03*
D141*
X502503Y145851D03*
D45*
X572972Y145851D03*
D244*
X593217Y145851D03*
D75*
X644219Y145851D03*
D104*
X382978Y146241D03*
D85*
X397772Y146241D03*
D101*
X470577Y146241D03*
D85*
X478753Y146241D03*
D82*
X502892Y146241D03*
D27*
X574724Y146241D03*
D77*
X593412Y146241D03*
D133*
X645193Y146241D03*
D107*
X382783Y146630D03*
D85*
X397772Y146630D03*
D13*
X471161Y146630D03*
D85*
X478753Y146630D03*
D82*
X502892Y146630D03*
D109*
X576281Y146630D03*
D44*
X593412Y146630D03*
D205*
X646166Y146630D03*
D118*
X382783Y147019D03*
D103*
X397578Y147019D03*
D119*
X471940Y147019D03*
D89*
X478753Y147019D03*
D105*
X503087Y147019D03*
D227*
X578033Y147019D03*
D59*
X593022Y147019D03*
D75*
X646945Y147019D03*
D107*
X382783Y147409D03*
D104*
X397383Y147409D03*
D225*
X472524Y147409D03*
D102*
X478169Y147409D03*
D13*
X503087Y147409D03*
D245*
X586209Y147409D03*
D145*
X647723Y147409D03*
D89*
X382588Y147798D03*
D83*
X397383Y147798D03*
D197*
X475055Y147798D03*
D100*
X503281Y147798D03*
D246*
X583873Y147798D03*
D43*
X597110Y147798D03*
X648502Y147798D03*
D85*
X382588Y148187D03*
D107*
X397188Y148187D03*
D44*
X475444Y148187D03*
D98*
X503281Y148187D03*
D247*
X584652Y148187D03*
D145*
X597889Y148187D03*
X649281Y148187D03*
D85*
X382588Y148577D03*
D107*
X397188Y148577D03*
D133*
X475444Y148577D03*
D13*
X503476Y148577D03*
D122*
X585430Y148577D03*
D55*
X599057Y148577D03*
D145*
X650449Y148577D03*
D114*
X382394Y148966D03*
D118*
X397188Y148966D03*
D14*
X475833Y148966D03*
D105*
X503476Y148966D03*
D248*
X586404Y148966D03*
D152*
X599836Y148966D03*
D43*
X651227Y148966D03*
D87*
X382394Y149355D03*
D85*
X396994Y149355D03*
D249*
X476028Y149355D03*
D101*
X503671Y149355D03*
D125*
X587377Y149355D03*
D44*
X600420Y149355D03*
D145*
X652006Y149355D03*
D87*
X382394Y149745D03*
D85*
X396994Y149745D03*
D101*
X476417Y149745D03*
X503671Y149745D03*
D239*
X601393Y149745D03*
D145*
X652785Y149745D03*
D114*
X382394Y150134D03*
D89*
X396994Y150134D03*
D250*
X476807Y150134D03*
D212*
X503865Y150134D03*
D54*
X602366Y150134D03*
D43*
X653563Y150134D03*
D87*
X382394Y150523D03*
X396799Y150523D03*
D238*
X503865Y150523D03*
D239*
X603340Y150523D03*
D145*
X654342Y150523D03*
D89*
X382199Y150913D03*
X396604Y150913D03*
D108*
X504060Y150913D03*
D41*
X604702Y150913D03*
D43*
X655121Y150913D03*
D85*
X382199Y151302D03*
X396604Y151302D03*
D238*
X504255Y151302D03*
D56*
X605870Y151302D03*
D145*
X655899Y151302D03*
D85*
X382199Y151691D03*
X396604Y151691D03*
D238*
X504255Y151691D03*
D239*
X607233Y151691D03*
D145*
X656678Y151691D03*
D89*
X382199Y152081D03*
X396604Y152081D03*
D212*
X504255Y152081D03*
D57*
X608401Y152081D03*
D128*
X657262Y152081D03*
D107*
X382004Y152470D03*
D91*
X396410Y152470D03*
D238*
X504255Y152470D03*
D73*
X609180Y152470D03*
D139*
X658041Y152470D03*
D89*
X381810Y152859D03*
D100*
X396604Y152859D03*
D212*
X504644Y152859D03*
D197*
X610542Y152859D03*
D43*
X659014Y152859D03*
D85*
X381810Y153249D03*
D112*
X396994Y153249D03*
D238*
X504644Y153249D03*
D73*
X611905Y153249D03*
D145*
X659793Y153249D03*
D85*
X381810Y153638D03*
D42*
X397578Y153638D03*
D238*
X504644Y153638D03*
D55*
X612684Y153638D03*
D145*
X660571Y153638D03*
D89*
X381810Y154027D03*
D152*
X398162Y154027D03*
D212*
X504644Y154027D03*
D54*
X613657Y154027D03*
D135*
X661155Y154027D03*
D85*
X381810Y154417D03*
D29*
X398940Y154417D03*
D238*
X504644Y154417D03*
D55*
X614630Y154417D03*
D110*
X661739Y154417D03*
D85*
X381810Y154806D03*
D27*
X399914Y154806D03*
D251*
X504839Y154806D03*
D73*
X615798Y154806D03*
D110*
X661739Y154806D03*
D89*
X381420Y155195D03*
D111*
X400692Y155195D03*
D99*
X504839Y155195D03*
D57*
X616966Y155195D03*
D106*
X661545Y155195D03*
D85*
X381420Y155585D03*
D122*
X401666Y155585D03*
D238*
X505033Y155585D03*
D55*
X618134Y155585D03*
D225*
X661350Y155585D03*
D89*
X381420Y155974D03*
D194*
X402444Y155974D03*
D123*
X505228Y155974D03*
D127*
X619497Y155974D03*
D128*
X661155Y155974D03*
D85*
X381420Y156363D03*
D252*
X403807Y156363D03*
D13*
X505423Y156363D03*
D134*
X620470Y156363D03*
D225*
X660961Y156363D03*
D85*
X381420Y156753D03*
D253*
X404975Y156753D03*
D13*
X505423Y156753D03*
D205*
X621638Y156753D03*
D249*
X660571Y156753D03*
D89*
X381420Y157142D03*
D194*
X408284Y157142D03*
D212*
X505812Y157142D03*
D224*
X622611Y157142D03*
D244*
X660571Y157142D03*
D102*
X381226Y157531D03*
D63*
X410231Y157531D03*
D101*
X506007Y157531D03*
D94*
X623779Y157531D03*
D225*
X660182Y157531D03*
D48*
X702035Y157531D03*
D83*
X381031Y157921D03*
D254*
X411983Y157921D03*
D212*
X506201Y157921D03*
D57*
X624753Y157921D03*
D119*
X659987Y157921D03*
D195*
X701840Y157921D03*
D104*
X381031Y158310D03*
D193*
X414708Y158310D03*
D255*
X506396Y158310D03*
D73*
X625921Y158310D03*
D97*
X659598Y158310D03*
D256*
X701256Y158310D03*
D104*
X381031Y158699D03*
D257*
X416655Y158699D03*
D101*
X506785Y158699D03*
D94*
X627283Y158699D03*
D97*
X659598Y158699D03*
D164*
X700283Y158699D03*
D83*
X381031Y159089D03*
D183*
X418212Y159089D03*
D108*
X506785Y159089D03*
D127*
X628451Y159089D03*
D119*
X659209Y159089D03*
D258*
X700283Y159089D03*
D104*
X381031Y159478D03*
D172*
X419770Y159478D03*
D101*
X507175Y159478D03*
D133*
X629230Y159478D03*
D112*
X659014Y159478D03*
D259*
X700283Y159478D03*
D102*
X380836Y159867D03*
D26*
X421327Y159867D03*
D98*
X507564Y159867D03*
D73*
X630203Y159867D03*
D82*
X658625Y159867D03*
D260*
X700283Y159867D03*
D103*
X380836Y160257D03*
D140*
X422884Y160257D03*
D100*
X507953Y160257D03*
D57*
X631371Y160257D03*
D105*
X658430Y160257D03*
D261*
X687825Y160257D03*
D111*
X715272Y160257D03*
D102*
X380836Y160646D03*
D247*
X425026Y160646D03*
D13*
X508537Y160646D03*
D55*
X632539Y160646D03*
D13*
X658041Y160646D03*
D158*
X685099Y160646D03*
D16*
X717024Y160646D03*
D89*
X380642Y161035D03*
D262*
X426194Y161035D03*
D119*
X508927Y161035D03*
D127*
X633513Y161035D03*
D100*
X657846Y161035D03*
D160*
X683542Y161035D03*
D28*
X718971Y161035D03*
D85*
X380642Y161425D03*
D234*
X427946Y161425D03*
D116*
X510095Y161425D03*
D133*
X634291Y161425D03*
D13*
X657651Y161425D03*
D37*
X682374Y161425D03*
D34*
X720528Y161425D03*
D85*
X380642Y161814D03*
D63*
X429308Y161814D03*
D73*
X511068Y161814D03*
D134*
X635265Y161814D03*
D98*
X657457Y161814D03*
D69*
X681011Y161814D03*
D48*
X722280Y161814D03*
D89*
X380642Y162203D03*
D262*
X430866Y162203D03*
D50*
X512041Y162203D03*
D237*
X636433Y162203D03*
D108*
X657067Y162203D03*
D35*
X679843Y162203D03*
D197*
X723448Y162203D03*
D102*
X380447Y162593D03*
D63*
X432423Y162593D03*
D36*
X513209Y162593D03*
D134*
X637211Y162593D03*
D101*
X657067Y162593D03*
D15*
X679065Y162593D03*
D48*
X725006Y162593D03*
D103*
X380447Y162982D03*
D263*
X433980Y162982D03*
D92*
X514183Y162982D03*
D14*
X638574Y162982D03*
D105*
X656873Y162982D03*
D54*
X677897Y162982D03*
D41*
X726174Y162982D03*
D102*
X380447Y163371D03*
D247*
X435538Y163371D03*
D16*
X515351Y163371D03*
D134*
X639547Y163371D03*
D13*
X656873Y163371D03*
D44*
X677118Y163371D03*
D73*
X727536Y163371D03*
D102*
X380447Y163761D03*
D241*
X437290Y163761D03*
D187*
X516519Y163761D03*
D134*
X640715Y163761D03*
D80*
X656873Y163761D03*
D44*
X676339Y163761D03*
D73*
X729094Y163761D03*
D100*
X380252Y164150D03*
D261*
X439042Y164150D03*
D190*
X517492Y164150D03*
D224*
X641689Y164150D03*
D113*
X657067Y164150D03*
D152*
X675755Y164150D03*
D57*
X730262Y164150D03*
D13*
X379668Y164539D03*
D264*
X440599Y164539D03*
D172*
X518660Y164539D03*
D239*
X642662Y164539D03*
D139*
X657262Y164539D03*
D134*
X674587Y164539D03*
D44*
X731624Y164539D03*
D154*
X378111Y164929D03*
D234*
X442351Y164929D03*
D192*
X519633Y164929D03*
D56*
X644025Y164929D03*
D134*
X657457Y164929D03*
D145*
X673809Y164929D03*
D53*
X732987Y164929D03*
D265*
X367599Y165318D03*
D254*
X444298Y165318D03*
D111*
X522553Y165318D03*
D197*
X645193Y165318D03*
D228*
X657651Y165318D03*
D43*
X673030Y165318D03*
D60*
X734155Y165318D03*
D266*
X352221Y165707D03*
D267*
X446050Y165707D03*
D173*
X523721Y165707D03*
D125*
X646166Y165707D03*
D137*
X657846Y165707D03*
D139*
X672446Y165707D03*
D97*
X704371Y165707D03*
D44*
X735518Y165707D03*
D268*
X344434Y166097D03*
D261*
X447607Y166097D03*
D28*
X526641Y166097D03*
D41*
X647139Y166097D03*
D108*
X655121Y166097D03*
D119*
X659987Y166097D03*
D113*
X671862Y166097D03*
D59*
X703982Y166097D03*
D152*
X736491Y166097D03*
D269*
X339567Y166486D03*
D234*
X448970Y166486D03*
D46*
X528199Y166486D03*
D56*
X648307Y166486D03*
D13*
X654537Y166486D03*
D80*
X660766Y166486D03*
D225*
X671473Y166486D03*
D18*
X703592Y166486D03*
D133*
X737854Y166486D03*
D270*
X332170Y166875D03*
D234*
X450527Y166875D03*
D138*
X529561Y166875D03*
D27*
X651033Y166875D03*
D80*
X661155Y166875D03*
D42*
X670889Y166875D03*
D79*
X703008Y166875D03*
D133*
X739022Y166875D03*
D271*
X322242Y167265D03*
D194*
X451890Y167265D03*
D92*
X530924Y167265D03*
D35*
X651422Y167265D03*
D136*
X661545Y167265D03*
D113*
X670305Y167265D03*
D272*
X703592Y167265D03*
D127*
X740190Y167265D03*
D273*
X282920Y167654D03*
D63*
X453447Y167654D03*
D27*
X532287Y167654D03*
D55*
X652006Y167654D03*
D96*
X662129Y167654D03*
D225*
X669915Y167654D03*
D274*
X703787Y167654D03*
D133*
X741358Y167654D03*
D275*
X276690Y168043D03*
D194*
X455004Y168043D03*
D177*
X534039Y168043D03*
D135*
X652201Y168043D03*
D198*
X666022Y168043D03*
D276*
X703982Y168043D03*
D75*
X742331Y168043D03*
D277*
X267736Y168433D03*
D193*
X456367Y168433D03*
D15*
X535790Y168433D03*
D249*
X652785Y168433D03*
D27*
X666217Y168433D03*
D26*
X693859Y168433D03*
D18*
X715272Y168433D03*
D132*
X743304Y168433D03*
D278*
X258002Y168822D03*
D63*
X458119Y168822D03*
D30*
X537348Y168822D03*
D13*
X652979Y168822D03*
D40*
X666217Y168822D03*
D189*
X691718Y168822D03*
D173*
X717219Y168822D03*
D205*
X744278Y168822D03*
D279*
X249632Y169211D03*
D140*
X459871Y169211D03*
D62*
X538905Y169211D03*
D108*
X653174Y169211D03*
D156*
X666022Y169211D03*
D160*
X689382Y169211D03*
X718971Y169211D03*
D224*
X745640Y169211D03*
D280*
X236589Y169601D03*
D192*
X462012Y169601D03*
D40*
X540462Y169601D03*
D101*
X653174Y169601D03*
D137*
X666022Y169601D03*
D27*
X687630Y169601D03*
D138*
X720723Y169601D03*
D56*
X746808Y169601D03*
D281*
X228413Y169990D03*
D183*
X463764Y169990D03*
D59*
X542020Y169990D03*
D105*
X652979Y169990D03*
D57*
X666022Y169990D03*
D35*
X686462Y169990D03*
D28*
X722475Y169990D03*
D152*
X747782Y169990D03*
D282*
X207000Y170379D03*
D21*
X222962Y170379D03*
D192*
X465127Y170379D03*
D32*
X543772Y170379D03*
D98*
X652785Y170379D03*
D205*
X666022Y170379D03*
D34*
X685099Y170379D03*
D69*
X724227Y170379D03*
D133*
X748755Y170379D03*
D225*
X203107Y170769D03*
D282*
X207000Y170769D03*
D256*
X219264Y170769D03*
D192*
X466684Y170769D03*
D49*
X545524Y170769D03*
D98*
X652785Y170769D03*
D110*
X666022Y170769D03*
D137*
X683931Y170769D03*
D40*
X725784Y170769D03*
D55*
X749728Y170769D03*
D283*
X211283Y171158D03*
D195*
X467852Y171158D03*
D35*
X547470Y171158D03*
D108*
X652395Y171158D03*
D284*
X666022Y171158D03*
D57*
X682763Y171158D03*
D59*
X727342Y171158D03*
D127*
X750702Y171158D03*
D285*
X199408Y171547D03*
D26*
X469604Y171547D03*
D34*
X549612Y171547D03*
D101*
X652395Y171547D03*
D97*
X665827Y171547D03*
D133*
X681790Y171547D03*
D69*
X728510Y171547D03*
D134*
X751675Y171547D03*
D138*
X186560Y171937D03*
D170*
X202523Y171937D03*
D26*
X471551Y171937D03*
D30*
X551753Y171937D03*
D98*
X652006Y171937D03*
D97*
X665438Y171937D03*
D77*
X681011Y171937D03*
D32*
X729872Y171937D03*
D134*
X752454Y171937D03*
D233*
X194931Y172326D03*
D213*
X472913Y172326D03*
D62*
X553310Y172326D03*
D100*
X652006Y172326D03*
D99*
X665243Y172326D03*
D135*
X680233Y172326D03*
D35*
X731235Y172326D03*
D127*
X753427Y172326D03*
D286*
X192789Y172715D03*
D287*
X474860Y172715D03*
D32*
X554673Y172715D03*
D98*
X651617Y172715D03*
D82*
X664854Y172715D03*
D145*
X679649Y172715D03*
D15*
X732403Y172715D03*
D134*
X754400Y172715D03*
D288*
X190648Y173105D03*
D183*
X475833Y173105D03*
D177*
X555841Y173105D03*
D103*
X651422Y173105D03*
D99*
X664465Y173105D03*
D43*
X678870Y173105D03*
D54*
X733960Y173105D03*
D237*
X755179Y173105D03*
D19*
X188701Y173494D03*
D26*
X477391Y173494D03*
D36*
X557204Y173494D03*
D101*
X651227Y173494D03*
D82*
X664075Y173494D03*
D225*
X678091Y173494D03*
D73*
X734934Y173494D03*
D116*
X756152Y173494D03*
D26*
X186949Y173883D03*
D18*
X479337Y173883D03*
D36*
X559150Y173883D03*
D102*
X651033Y173883D03*
D82*
X663686Y173883D03*
D139*
X677507Y173883D03*
D133*
X736296Y173883D03*
D116*
X756931Y173883D03*
D38*
X185003Y174273D03*
D185*
X481479Y174273D03*
D51*
X561486Y174273D03*
D103*
X650643Y174273D03*
D212*
X663491Y174273D03*
D244*
X676923Y174273D03*
D228*
X737464Y174273D03*
D14*
X757710Y174273D03*
D154*
X183056Y174662D03*
D191*
X482841Y174662D03*
D40*
X563433Y174662D03*
D102*
X650643Y174662D03*
D238*
X663102Y174662D03*
D80*
X676339Y174662D03*
D205*
X738438Y174662D03*
D145*
X758294Y174662D03*
D89*
X180915Y175051D03*
D289*
X484204Y175051D03*
D39*
X565185Y175051D03*
D108*
X650449Y175051D03*
D123*
X662907Y175051D03*
X676145Y175051D03*
D237*
X739606Y175051D03*
D43*
X759072Y175051D03*
D24*
X485956Y175441D03*
D48*
X566548Y175441D03*
D102*
X650254Y175441D03*
D251*
X662518Y175441D03*
D13*
X675561Y175441D03*
D94*
X740579Y175441D03*
D42*
X759656Y175441D03*
D24*
X487513Y175830D03*
D48*
X568105Y175830D03*
D98*
X650059Y175830D03*
D13*
X662323Y175830D03*
X675171Y175830D03*
D133*
X741358Y175830D03*
D42*
X760435Y175830D03*
D183*
X489460Y176219D03*
D50*
X570052Y176219D03*
D100*
X649670Y176219D03*
D105*
X661934Y176219D03*
X674782Y176219D03*
D75*
X742331Y176219D03*
D128*
X761214Y176219D03*
D186*
X491407Y176609D03*
D15*
X571609Y176609D03*
D98*
X649670Y176609D03*
D13*
X661545Y176609D03*
D82*
X674198Y176609D03*
D205*
X743110Y176609D03*
D139*
X761992Y176609D03*
D189*
X493159Y176998D03*
D48*
X573166Y176998D03*
D102*
X649475Y176998D03*
D13*
X661155Y176998D03*
X673614Y176998D03*
D205*
X743888Y176998D03*
D290*
X762771Y176998D03*
D213*
X495105Y177387D03*
D47*
X574918Y177387D03*
D108*
X649281Y177387D03*
X660961Y177387D03*
D105*
X673225Y177387D03*
D75*
X744667Y177387D03*
D113*
X763355Y177387D03*
D18*
X496468Y177777D03*
D29*
X576476Y177777D03*
D102*
X649086Y177777D03*
D98*
X660571Y177777D03*
D13*
X672835Y177777D03*
D77*
X745640Y177777D03*
D225*
X764134Y177777D03*
D220*
X497636Y178166D03*
D184*
X578033Y178166D03*
D100*
X648891Y178166D03*
D103*
X660377Y178166D03*
D105*
X672446Y178166D03*
D14*
X746419Y178166D03*
D284*
X764912Y178166D03*
D122*
X498999Y178555D03*
D15*
X579785Y178555D03*
D102*
X648697Y178555D03*
X659987Y178555D03*
D13*
X672057Y178555D03*
D145*
X747392Y178555D03*
D96*
X765691Y178555D03*
D18*
X500361Y178945D03*
D48*
X581342Y178945D03*
D101*
X648502Y178945D03*
D102*
X659987Y178945D03*
D13*
X671667Y178945D03*
D42*
X747976Y178945D03*
D225*
X766470Y178945D03*
D207*
X501919Y179334D03*
D197*
X582900Y179334D03*
D100*
X648113Y179334D03*
D93*
X659598Y179334D03*
D105*
X671278Y179334D03*
D106*
X748755Y179334D03*
D136*
X767054Y179334D03*
D26*
X503087Y179723D03*
D49*
X584457Y179723D03*
D98*
X648113Y179723D03*
D85*
X659403Y179723D03*
D98*
X671083Y179723D03*
D225*
X749728Y179723D03*
D112*
X767638Y179723D03*
D140*
X504644Y180113D03*
D178*
X586014Y180113D03*
D100*
X647723Y180113D03*
D103*
X659209Y180113D03*
D108*
X670694Y180113D03*
D113*
X750507Y180113D03*
D105*
X768222Y180113D03*
D63*
X506396Y180502D03*
D29*
X587377Y180502D03*
D98*
X647723Y180502D03*
D102*
X659209Y180502D03*
D85*
X670694Y180502D03*
D225*
X751286Y180502D03*
D13*
X769000Y180502D03*
D63*
X508343Y180891D03*
D48*
X588740Y180891D03*
D101*
X647334Y180891D03*
D102*
X658819Y180891D03*
D87*
X670499Y180891D03*
D225*
X752064Y180891D03*
D112*
X769584Y180891D03*
D291*
X510484Y181281D03*
D197*
X590297Y181281D03*
D108*
X647334Y181281D03*
D83*
X658625Y181281D03*
D114*
X670499Y181281D03*
D119*
X752648Y181281D03*
D141*
X770363Y181281D03*
D158*
X512236Y181670D03*
D15*
X591854Y181670D03*
D102*
X647139Y181670D03*
D85*
X658235Y181670D03*
D292*
X670499Y181670D03*
D80*
X753427Y181670D03*
D13*
X770947Y181670D03*
D293*
X513988Y182059D03*
D15*
X593412Y182059D03*
D98*
X646945Y182059D03*
D85*
X658235Y182059D03*
D282*
X670305Y182059D03*
D80*
X754206Y182059D03*
D112*
X771531Y182059D03*
D198*
X515740Y182449D03*
D47*
X594774Y182449D03*
D103*
X646750Y182449D03*
X658041Y182449D03*
D119*
X754984Y182449D03*
D141*
X772310Y182449D03*
D16*
X517297Y182838D03*
D48*
X596137Y182838D03*
D101*
X646555Y182838D03*
D85*
X657846Y182838D03*
D80*
X755763Y182838D03*
D225*
X773088Y182838D03*
D198*
X519244Y183227D03*
D50*
X597305Y183227D03*
D103*
X646361Y183227D03*
D89*
X657846Y183227D03*
D119*
X756542Y183227D03*
X773672Y183227D03*
D189*
X521191Y183617D03*
D53*
X598668Y183617D03*
D101*
X646166Y183617D03*
D91*
X657651Y183617D03*
D80*
X757320Y183617D03*
X774061Y183617D03*
D16*
X522359Y184006D03*
D44*
X600420Y184006D03*
D102*
X645971Y184006D03*
D85*
X657457Y184006D03*
D80*
X758099Y184006D03*
D82*
X774645Y184006D03*
D28*
X524695Y184395D03*
D57*
X601782Y184395D03*
D103*
X645971Y184395D03*
D89*
X657457Y184395D03*
D119*
X758878Y184395D03*
X775229Y184395D03*
D37*
X525863Y184785D03*
D137*
X603340Y184785D03*
D180*
X645582Y184785D03*
D85*
X657457Y184785D03*
D80*
X759656Y184785D03*
D82*
X775813Y184785D03*
D236*
X527615Y185174D03*
D197*
X604702Y185174D03*
D182*
X645582Y185174D03*
D89*
X657067Y185174D03*
D136*
X760435Y185174D03*
D119*
X776397Y185174D03*
D124*
X529561Y185563D03*
D137*
X606065Y185563D03*
D102*
X645193Y185563D03*
D85*
X657067Y185563D03*
D80*
X761214Y185563D03*
X777176Y185563D03*
D124*
X531119Y185953D03*
D137*
X607233Y185953D03*
D102*
X645193Y185953D03*
D85*
X657067Y185953D03*
D82*
X761798Y185953D03*
D80*
X777955Y185953D03*
D38*
X532287Y186342D03*
D41*
X608596Y186342D03*
D182*
X644803Y186342D03*
D103*
X656873Y186342D03*
D123*
X762576Y186342D03*
D113*
X778539Y186342D03*
D27*
X533844Y186731D03*
D44*
X610153Y186731D03*
D180*
X644803Y186731D03*
D104*
X656678Y186731D03*
D238*
X763160Y186731D03*
D80*
X779123Y186731D03*
D30*
X535791Y187121D03*
D15*
X611710Y187121D03*
D180*
X644414Y187121D03*
D104*
X656678Y187121D03*
D97*
X763939Y187121D03*
D80*
X779901Y187121D03*
D62*
X536958Y187510D03*
D35*
X612878Y187510D03*
D182*
X644414Y187510D03*
D103*
X656483Y187510D03*
D136*
X764718Y187510D03*
D119*
X780291Y187510D03*
D148*
X538321Y187899D03*
D49*
X614046Y187899D03*
D102*
X644025Y187899D03*
D85*
X656289Y187899D03*
D97*
X765496Y187899D03*
D82*
X780875Y187899D03*
D59*
X539684Y188289D03*
D177*
X615409Y188289D03*
D103*
X644025Y188289D03*
D89*
X656289Y188289D03*
D119*
X766275Y188289D03*
D136*
X781459Y188289D03*
D52*
X541046Y188678D03*
D32*
X616577Y188678D03*
D180*
X643635Y188678D03*
D102*
X656094Y188678D03*
D80*
X766664Y188678D03*
D82*
X782043Y188678D03*
D49*
X542409Y189067D03*
D30*
X618329Y189067D03*
D180*
X643635Y189067D03*
D102*
X656094Y189067D03*
D225*
X767248Y189067D03*
D251*
X782432Y189067D03*
D156*
X543772Y189457D03*
D39*
X620081Y189457D03*
D108*
X643441Y189457D03*
D89*
X655899Y189457D03*
D244*
X768027Y189457D03*
D123*
X783211Y189457D03*
D49*
X545134Y189846D03*
D32*
X621638Y189846D03*
D102*
X643246Y189846D03*
D85*
X655899Y189846D03*
D80*
X768611Y189846D03*
D251*
X783600Y189846D03*
D51*
X547081Y190235D03*
D59*
X623390Y190235D03*
D108*
X643051Y190235D03*
D93*
X655705Y190235D03*
D119*
X769390Y190235D03*
D99*
X784379Y190235D03*
D138*
X548638Y190625D03*
D52*
X624753Y190625D03*
D101*
X643051Y190625D03*
D85*
X655510Y190625D03*
D80*
X769779Y190625D03*
D82*
X784768Y190625D03*
D124*
X550196Y191014D03*
D40*
X626115Y191014D03*
D238*
X642857Y191014D03*
D85*
X655510Y191014D03*
D80*
X770558Y191014D03*
D251*
X785547Y191014D03*
D294*
X552142Y191403D03*
D28*
X627478Y191403D03*
D108*
X642662Y191403D03*
D89*
X655510Y191403D03*
D119*
X771336Y191403D03*
D141*
X785936Y191403D03*
D158*
X553894Y191793D03*
D46*
X629035Y191793D03*
D101*
X642662Y191793D03*
D85*
X655510Y191793D03*
D249*
X771920Y191793D03*
D80*
X786520Y191793D03*
D190*
X555646Y192182D03*
D62*
X630398Y192182D03*
D100*
X642273Y192182D03*
D114*
X655315Y192182D03*
D113*
X772699Y192182D03*
D123*
X787104Y192182D03*
D226*
X557204Y192571D03*
D69*
X631955Y192571D03*
D98*
X642273Y192571D03*
D85*
X655121Y192571D03*
D139*
X773283Y192571D03*
D80*
X787688Y192571D03*
D181*
X558566Y192961D03*
D243*
X633513Y192961D03*
D102*
X642078Y192961D03*
D85*
X655121Y192961D03*
D42*
X774062Y192961D03*
D80*
X788077Y192961D03*
D213*
X560124Y193350D03*
D25*
X636433Y193350D03*
D89*
X655121Y193350D03*
D113*
X774646Y193350D03*
D141*
X788661Y193350D03*
D186*
X561876Y193739D03*
D189*
X637211Y193739D03*
D85*
X655121Y193739D03*
D139*
X775229Y193739D03*
D97*
X789245Y193739D03*
D124*
X563433Y194129D03*
D27*
X637795Y194129D03*
D107*
X654926Y194129D03*
D42*
X776008Y194129D03*
D80*
X789635Y194129D03*
D248*
X565769Y194518D03*
D177*
X638379Y194518D03*
D118*
X654926Y194518D03*
D106*
X776787Y194518D03*
D105*
X790413Y194518D03*
D27*
X567326Y194907D03*
D15*
X638963Y194907D03*
D107*
X654926Y194907D03*
D139*
X777176Y194907D03*
D82*
X790997Y194907D03*
D92*
X568689Y195297D03*
D152*
X639158Y195297D03*
D118*
X654926Y195297D03*
D106*
X777955Y195297D03*
D123*
X791387Y195297D03*
D295*
X570246Y195686D03*
D134*
X639547Y195686D03*
D104*
X654731Y195686D03*
D139*
X778344Y195686D03*
D13*
X791971Y195686D03*
D189*
X571804Y196075D03*
D167*
X639937Y196075D03*
D104*
X654731Y196075D03*
D225*
X778928Y196075D03*
D13*
X792360Y196075D03*
D188*
X573361Y196465D03*
D119*
X640131Y196465D03*
D83*
X654731Y196465D03*
D244*
X779707Y196465D03*
D105*
X792749Y196465D03*
D296*
X574724Y196854D03*
D82*
X640326Y196854D03*
D107*
X654537Y196854D03*
D80*
X780291Y196854D03*
D13*
X793139Y196854D03*
D297*
X576281Y197243D03*
D105*
X640521Y197243D03*
D118*
X654537Y197243D03*
D105*
X780680Y197243D03*
D141*
X793723Y197243D03*
D296*
X577838Y197633D03*
D13*
X640131Y197633D03*
D85*
X654342Y197633D03*
D87*
X781069Y197633D03*
D82*
X794112Y197633D03*
D18*
X579396Y198022D03*
D13*
X640131Y198022D03*
D85*
X654342Y198022D03*
D13*
X794696Y198022D03*
D291*
X581342Y198411D03*
D105*
X640131Y198411D03*
D89*
X654342Y198411D03*
D123*
X795280Y198411D03*
D172*
X583289Y198801D03*
D101*
X639937Y198801D03*
D85*
X654342Y198801D03*
D112*
X795669Y198801D03*
D122*
X585041Y199190D03*
D101*
X639937Y199190D03*
D85*
X654342Y199190D03*
D82*
X796059Y199190D03*
D190*
X586793Y199579D03*
D108*
X639937Y199579D03*
D89*
X654342Y199579D03*
D119*
X796643Y199579D03*
D181*
X588156Y199969D03*
D102*
X639742Y199969D03*
D85*
X654342Y199969D03*
D82*
X797227Y199969D03*
D190*
X589129Y200358D03*
D100*
X639547Y200358D03*
D89*
X654342Y200358D03*
D141*
X797616Y200358D03*
D186*
X591076Y200747D03*
D98*
X639547Y200747D03*
D85*
X654342Y200747D03*
D298*
X729678Y200747D03*
D82*
X798005Y200747D03*
D186*
X592633Y201137D03*
D98*
X639547Y201137D03*
D85*
X654342Y201137D03*
D109*
X730846Y201137D03*
D112*
X798395Y201137D03*
D25*
X593996Y201526D03*
D105*
X639353Y201526D03*
D89*
X653953Y201526D03*
D299*
X732014Y201526D03*
D123*
X798784Y201526D03*
D193*
X595358Y201915D03*
D80*
X639742Y201915D03*
D85*
X653953Y201915D03*
D300*
X732792Y201915D03*
D82*
X799173Y201915D03*
D287*
X596332Y202305D03*
D42*
X640131Y202305D03*
D85*
X653953Y202305D03*
D301*
X732987Y202305D03*
D82*
X799952Y202305D03*
D195*
X599057Y202694D03*
D237*
X640326Y202694D03*
D93*
X653758Y202694D03*
D302*
X733376Y202694D03*
D141*
X800341Y202694D03*
D24*
X600809Y203083D03*
D29*
X641494Y203083D03*
D91*
X653758Y203083D03*
D21*
X733766Y203083D03*
D82*
X800731Y203083D03*
D140*
X601977Y203473D03*
D45*
X642273Y203473D03*
D93*
X653758Y203473D03*
D303*
X733960Y203473D03*
D123*
X801120Y203473D03*
D304*
X603340Y203862D03*
D173*
X642857Y203862D03*
D91*
X653758Y203862D03*
D305*
X734350Y203862D03*
D82*
X801509Y203862D03*
D192*
X604508Y204251D03*
D181*
X643441Y204251D03*
D91*
X653758Y204251D03*
D306*
X734544Y204251D03*
D251*
X801899Y204251D03*
D291*
X606260Y204641D03*
D141*
X638769Y204641D03*
D213*
X648502Y204641D03*
D156*
X721696Y204641D03*
D190*
X745640Y204641D03*
D99*
X802677Y204641D03*
D122*
X607622Y205030D03*
D98*
X638379Y205030D03*
D16*
X649281Y205030D03*
D239*
X720528Y205030D03*
D138*
X748366Y205030D03*
D82*
X803067Y205030D03*
D190*
X609374Y205419D03*
D105*
X638185Y205419D03*
D45*
X650059Y205419D03*
D127*
X719555Y205419D03*
D35*
X750312Y205419D03*
D123*
X803456Y205419D03*
D18*
X610932Y205809D03*
D101*
X637990Y205809D03*
D30*
X650643Y205809D03*
D116*
X718776Y205809D03*
D61*
X751675Y205809D03*
D251*
X803845Y205809D03*
D90*
X612294Y206198D03*
D101*
X637990Y206198D03*
D44*
X651422Y206198D03*
D249*
X718192Y206198D03*
D61*
X752843Y206198D03*
D82*
X804235Y206198D03*
D25*
X613852Y206587D03*
D108*
X637990Y206587D03*
D237*
X652006Y206587D03*
D119*
X717608Y206587D03*
D60*
X754011Y206587D03*
D99*
X804624Y206587D03*
D26*
X615603Y206977D03*
D102*
X637795Y206977D03*
D42*
X652590Y206977D03*
D13*
X717219Y206977D03*
D53*
X755179Y206977D03*
D82*
X805013Y206977D03*
D195*
X617356Y207366D03*
D100*
X637601Y207366D03*
D119*
X652979Y207366D03*
D105*
X716830Y207366D03*
D60*
X756347Y207366D03*
D136*
X805597Y207366D03*
D267*
X619691Y207755D03*
D98*
X637601Y207755D03*
D112*
X653174Y207755D03*
D13*
X716440Y207755D03*
D44*
X757710Y207755D03*
D80*
X805987Y207755D03*
D252*
X621833Y208145D03*
D98*
X637601Y208145D03*
D13*
X653369Y208145D03*
X716051Y208145D03*
D44*
X758878Y208145D03*
D80*
X806376Y208145D03*
D88*
X623585Y208534D03*
D100*
X637601Y208534D03*
X653563Y208534D03*
D105*
X716051Y208534D03*
D57*
X760240Y208534D03*
D123*
X806571Y208534D03*
D19*
X625531Y208923D03*
D98*
X637211Y208923D03*
D91*
X653758Y208923D03*
D13*
X715662Y208923D03*
D73*
X761408Y208923D03*
D112*
X806960Y208923D03*
D81*
X628257Y209313D03*
D91*
X653758Y209313D03*
D307*
X707680Y209313D03*
D13*
X715272Y209313D03*
D94*
X762771Y209313D03*
D82*
X807349Y209313D03*
D308*
X629230Y209702D03*
D93*
X653758Y209702D03*
D12*
X707680Y209702D03*
D105*
X715272Y209702D03*
D14*
X763939Y209702D03*
D123*
X807739Y209702D03*
D63*
X630982Y210091D03*
D85*
X653953Y210091D03*
X707680Y210091D03*
D98*
X715078Y210091D03*
D110*
X764912Y210091D03*
D112*
X808128Y210091D03*
D190*
X631566Y210481D03*
D89*
X653953Y210481D03*
X707680Y210481D03*
D100*
X715078Y210481D03*
D240*
X766080Y210481D03*
D123*
X808517Y210481D03*
D293*
X632345Y210870D03*
D85*
X653953Y210870D03*
X707291Y210870D03*
D13*
X714883Y210870D03*
D145*
X766859Y210870D03*
D112*
X808907Y210870D03*
D27*
X633123Y211259D03*
D102*
X654147Y211259D03*
D85*
X707291Y211259D03*
D13*
X714883Y211259D03*
D225*
X767638Y211259D03*
D13*
X809101Y211259D03*
D60*
X634097Y211649D03*
D103*
X654147Y211649D03*
X707096Y211649D03*
D105*
X714883Y211649D03*
D128*
X768611Y211649D03*
D105*
X809491Y211649D03*
D145*
X635265Y212038D03*
D85*
X654342Y212038D03*
D102*
X707096Y212038D03*
D13*
X714883Y212038D03*
D139*
X769390Y212038D03*
D13*
X809880Y212038D03*
D118*
X636627Y212427D03*
D89*
X654342Y212427D03*
D103*
X707096Y212427D03*
D105*
X714883Y212427D03*
D113*
X770363Y212427D03*
D105*
X810269Y212427D03*
D85*
X654342Y212816D03*
X706902Y212816D03*
D13*
X714883Y212816D03*
D225*
X771142Y212816D03*
D98*
X810464Y212816D03*
D85*
X654342Y213206D03*
D102*
X706707Y213206D03*
D13*
X714883Y213206D03*
D249*
X771920Y213206D03*
D82*
X810464Y213206D03*
D103*
X654537Y213595D03*
X706707Y213595D03*
D105*
X714883Y213595D03*
D106*
X772894Y213595D03*
D123*
X810464Y213595D03*
D102*
X654537Y213984D03*
X706707Y213984D03*
D13*
X714883Y213984D03*
D249*
X773867Y213984D03*
D80*
X810269Y213984D03*
D104*
X654731Y214374D03*
D102*
X706707Y214374D03*
D13*
X714883Y214374D03*
D225*
X774646Y214374D03*
X810075Y214374D03*
D83*
X654731Y214763D03*
X706512Y214763D03*
D123*
X715078Y214763D03*
D43*
X775424Y214763D03*
D113*
X809685Y214763D03*
D102*
X654926Y215152D03*
D104*
X706512Y215152D03*
D82*
X715078Y215152D03*
D42*
X776008Y215152D03*
X809491Y215152D03*
D103*
X654926Y215542D03*
D83*
X706512Y215542D03*
D123*
X715078Y215542D03*
D113*
X776592Y215542D03*
D128*
X809101Y215542D03*
D102*
X654926Y215931D03*
D104*
X706512Y215931D03*
D97*
X715272Y215931D03*
D139*
X777176Y215931D03*
D42*
X808712Y215931D03*
D85*
X655121Y216320D03*
D104*
X706512Y216320D03*
D82*
X715467Y216320D03*
D42*
X777955Y216320D03*
X808323Y216320D03*
D103*
X655315Y216710D03*
D83*
X706512Y216710D03*
D119*
X715662Y216710D03*
D113*
X778539Y216710D03*
D128*
X807933Y216710D03*
D102*
X655315Y217099D03*
D104*
X706512Y217099D03*
D112*
X715856Y217099D03*
D225*
X779317Y217099D03*
D42*
X807544Y217099D03*
D89*
X655510Y217488D03*
X706902Y217488D03*
D119*
X716051Y217488D03*
D244*
X779707Y217488D03*
D128*
X807155Y217488D03*
D91*
X655705Y217878D03*
D85*
X706902Y217878D03*
D249*
X716246Y217878D03*
D225*
X780485Y217878D03*
D42*
X806765Y217878D03*
D91*
X655705Y218267D03*
D85*
X706902Y218267D03*
D80*
X716440Y218267D03*
X781069Y218267D03*
D145*
X806181Y218267D03*
D93*
X655705Y218656D03*
D114*
X707096Y218656D03*
D113*
X716635Y218656D03*
X781653Y218656D03*
D240*
X805792Y218656D03*
D102*
X656094Y219046D03*
D85*
X707291Y219046D03*
D80*
X716830Y219046D03*
D97*
X782237Y219046D03*
D110*
X805403Y219046D03*
D102*
X656094Y219435D03*
D85*
X707291Y219435D03*
D225*
X717024Y219435D03*
D82*
X782821Y219435D03*
D110*
X805013Y219435D03*
D103*
X656094Y219824D03*
D93*
X707486Y219824D03*
D136*
X717219Y219824D03*
X783405Y219824D03*
D240*
X804624Y219824D03*
D102*
X656483Y220214D03*
D85*
X707680Y220214D03*
D225*
X717414Y220214D03*
D82*
X783989Y220214D03*
D145*
X804235Y220214D03*
D103*
X656483Y220603D03*
D89*
X707680Y220603D03*
D113*
X717803Y220603D03*
D99*
X784379Y220603D03*
D240*
X803845Y220603D03*
D98*
X656678Y220992D03*
D85*
X708070Y220992D03*
D42*
X717998Y220992D03*
D82*
X785157Y220992D03*
D110*
X803456Y220992D03*
D102*
X656873Y221382D03*
D85*
X708070Y221382D03*
D145*
X718192Y221382D03*
D251*
X785547Y221382D03*
D139*
X802872Y221382D03*
D108*
X657067Y221771D03*
D83*
X708459Y221771D03*
D43*
X718582Y221771D03*
D123*
X786325Y221771D03*
D128*
X802483Y221771D03*
D102*
X657262Y222160D03*
X708654Y222160D03*
D145*
X718971Y222160D03*
D112*
X786715Y222160D03*
D225*
X801899Y222160D03*
D100*
X657457Y222550D03*
D103*
X708654Y222550D03*
D43*
X719360Y222550D03*
D136*
X787299Y222550D03*
D284*
X801509Y222550D03*
D98*
X657457Y222939D03*
D102*
X709043Y222939D03*
D116*
X719555Y222939D03*
D225*
X787883Y222939D03*
D96*
X801120Y222939D03*
D98*
X657846Y223328D03*
D102*
X709043Y223328D03*
D77*
X719944Y223328D03*
D249*
X788272Y223328D03*
D139*
X800536Y223328D03*
D100*
X657846Y223718D03*
D93*
X709432Y223718D03*
D14*
X720334Y223718D03*
D136*
X789245Y223718D03*
D106*
X800147Y223718D03*
D101*
X658235Y224107D03*
D98*
X709627Y224107D03*
D134*
X720528Y224107D03*
D112*
X789829Y224107D03*
D42*
X799757Y224107D03*
D13*
X658430Y224496D03*
D102*
X709822Y224496D03*
D133*
X721112Y224496D03*
D82*
X790219Y224496D03*
D139*
X799368Y224496D03*
D105*
X658819Y224886D03*
D108*
X710016Y224886D03*
D57*
X721307Y224886D03*
D105*
X790803Y224886D03*
D113*
X798784Y224886D03*
D112*
X659014Y225275D03*
D98*
X710406Y225275D03*
D73*
X721696Y225275D03*
D82*
X791387Y225275D03*
D225*
X798395Y225275D03*
D105*
X659209Y225664D03*
D100*
X710406Y225664D03*
D57*
X722086Y225664D03*
D123*
X792165Y225664D03*
D106*
X797811Y225664D03*
D82*
X659403Y226054D03*
D101*
X710795Y226054D03*
D56*
X722670Y226054D03*
D32*
X795280Y226054D03*
D82*
X659793Y226443D03*
D13*
X710990Y226443D03*
D137*
X723254Y226443D03*
D29*
X795280Y226443D03*
D105*
X659987Y226832D03*
X711379Y226832D03*
D129*
X723254Y226832D03*
X795280Y226832D03*
D13*
X660377Y227222D03*
X711768Y227222D03*
D137*
X723643Y227222D03*
D134*
X795280Y227222D03*
D105*
X660766Y227611D03*
X712158Y227611D03*
D129*
X724422Y227611D03*
D43*
X795280Y227611D03*
D112*
X660961Y228000D03*
D13*
X712158Y228000D03*
D48*
X725006Y228000D03*
D225*
X795280Y228000D03*
D82*
X661350Y228390D03*
D13*
X712547Y228390D03*
D48*
X725395Y228390D03*
D82*
X795280Y228390D03*
D123*
X661739Y228779D03*
D105*
X712547Y228779D03*
D197*
X725784Y228779D03*
D89*
X795280Y228779D03*
D112*
X662129Y229168D03*
D13*
X712936Y229168D03*
D49*
X726174Y229168D03*
D117*
X795280Y229168D03*
D99*
X662518Y229558D03*
D123*
X713520Y229558D03*
D35*
X726563Y229558D03*
D309*
X795085Y229558D03*
D82*
X662907Y229947D03*
D112*
X713910Y229947D03*
D48*
X727342Y229947D03*
D251*
X663297Y230336D03*
D80*
X714494Y230336D03*
D29*
X727926Y230336D03*
D123*
X663686Y230726D03*
D113*
X714688Y230726D03*
D50*
X728510Y230726D03*
D97*
X664270Y231115D03*
D225*
X715078Y231115D03*
D15*
X728899Y231115D03*
D97*
X664659Y231504D03*
D225*
X715467Y231504D03*
D15*
X729288Y231504D03*
D136*
X665049Y231894D03*
D244*
X716246Y231894D03*
D50*
X730067Y231894D03*
D97*
X665438Y232283D03*
D225*
X716635Y232283D03*
D15*
X730846Y232283D03*
D136*
X665827Y232672D03*
D113*
X717024Y232672D03*
D129*
X731430Y232672D03*
D97*
X666217Y233062D03*
D225*
X717414Y233062D03*
D15*
X732014Y233062D03*
D96*
X666801Y233451D03*
D42*
X717998Y233451D03*
D137*
X732598Y233451D03*
D244*
X667190Y233840D03*
D113*
X718582Y233840D03*
D129*
X733376Y233840D03*
D225*
X667579Y234230D03*
X718971Y234230D03*
D15*
X733960Y234230D03*
D113*
X668358Y234619D03*
X719360Y234619D03*
D129*
X734544Y234619D03*
D225*
X668747Y235008D03*
D42*
X719944Y235008D03*
D15*
X735128Y235008D03*
D249*
X669137Y235398D03*
D42*
X720334Y235398D03*
D15*
X735907Y235398D03*
D128*
X669721Y235787D03*
X720723Y235787D03*
D50*
X736686Y235787D03*
D42*
X670110Y236176D03*
D80*
X721502Y236176D03*
D48*
X737464Y236176D03*
D42*
X670889Y236566D03*
D251*
X722086Y236566D03*
D15*
X738243Y236566D03*
D113*
X671473Y236955D03*
D123*
X722475Y236955D03*
D50*
X739022Y236955D03*
D225*
X671862Y237344D03*
D238*
X723059Y237344D03*
D34*
X739995Y237344D03*
D128*
X672446Y237734D03*
D123*
X723643Y237734D03*
D156*
X740774Y237734D03*
D145*
X673030Y238123D03*
D97*
X724227Y238123D03*
D34*
X741552Y238123D03*
D145*
X673419Y238512D03*
D225*
X724811Y238512D03*
D29*
X742331Y238512D03*
D128*
X674393Y238902D03*
D284*
X725590Y238902D03*
D156*
X743499Y238902D03*
D145*
X674977Y239291D03*
D96*
X726368Y239291D03*
D49*
X744472Y239291D03*
D43*
X675755Y239680D03*
D119*
X726952Y239680D03*
D39*
X745446Y239680D03*
D145*
X676534Y240070D03*
D225*
X727536Y240070D03*
D29*
X746224Y240070D03*
D77*
X677118Y240459D03*
D80*
X728120Y240459D03*
D29*
X747003Y240459D03*
D14*
X677897Y240848D03*
D119*
X728899Y240848D03*
D156*
X747782Y240848D03*
D134*
X678481Y241238D03*
D97*
X729678Y241238D03*
D29*
X748560Y241238D03*
D77*
X679065Y241627D03*
D225*
X730262Y241627D03*
D15*
X749534Y241627D03*
D14*
X679843Y242016D03*
D43*
X731040Y242016D03*
D33*
X750702Y242016D03*
D134*
X680427Y242406D03*
D145*
X731819Y242406D03*
D29*
X751286Y242406D03*
D75*
X681206Y242795D03*
D14*
X732792Y242795D03*
D33*
X751870Y242795D03*
D94*
X682179Y243184D03*
D134*
X733766Y243184D03*
D15*
X753038Y243184D03*
D94*
X682958Y243574D03*
D133*
X734350Y243574D03*
D15*
X753816Y243574D03*
D127*
X683737Y243963D03*
D237*
X734934Y243963D03*
D50*
X754595Y243963D03*
D73*
X684321Y244352D03*
D154*
X735518Y244352D03*
D15*
X755763Y244352D03*
D58*
X685099Y244742D03*
D75*
X736491Y244742D03*
D50*
X756542Y244742D03*
D137*
X686267Y245131D03*
D134*
X737270Y245131D03*
D61*
X757515Y245131D03*
D48*
X687241Y245520D03*
D133*
X738243Y245520D03*
D61*
X758683Y245520D03*
D197*
X688019Y245910D03*
D152*
X739216Y245910D03*
D197*
X759656Y245910D03*
D15*
X688798Y246299D03*
D73*
X739995Y246299D03*
D34*
X760630Y246299D03*
D15*
X689577Y246688D03*
D94*
X740968Y246688D03*
D49*
X761603Y246688D03*
D47*
X690550Y247078D03*
D57*
X741942Y247078D03*
D35*
X762382Y247078D03*
D30*
X691523Y247467D03*
D56*
X742915Y247467D03*
D52*
X763355Y247467D03*
D35*
X692691Y247856D03*
D41*
X744083Y247856D03*
D178*
X764718Y247856D03*
D30*
X693859Y248246D03*
D48*
X745251Y248246D03*
D52*
X766080Y248246D03*
D32*
X694832Y248635D03*
D34*
X746614Y248635D03*
D46*
X767248Y248635D03*
D33*
X696195Y249024D03*
D178*
X747587Y249024D03*
D28*
X768416Y249024D03*
D30*
X697363Y249414D03*
D15*
X749144Y249414D03*
D37*
X769584Y249414D03*
D35*
X698531Y249803D03*
D47*
X750507Y249803D03*
D310*
X770947Y249803D03*
D49*
X699699Y250192D03*
D15*
X751870Y250192D03*
D32*
X772310Y250192D03*
D29*
X701062Y250582D03*
D137*
X752843Y250582D03*
D48*
X772894Y250582D03*
D39*
X702619Y250971D03*
D60*
X754011Y250971D03*
D54*
X773672Y250971D03*
D52*
X703787Y251360D03*
D44*
X754984Y251360D03*
D133*
X774061Y251360D03*
D35*
X704760Y251750D03*
D152*
X755958Y251750D03*
D135*
X774451Y251750D03*
D49*
X705928Y252139D03*
D73*
X757126Y252139D03*
D145*
X774645Y252139D03*
D311*
X707096Y252528D03*
D175*
X758099Y252528D03*
D225*
X775035Y252528D03*
D35*
X708264Y252918D03*
D57*
X759072Y252918D03*
D141*
X775424Y252918D03*
D32*
X709238Y253307D03*
D133*
X759656Y253307D03*
D13*
X775619Y253307D03*
D32*
X710406Y253696D03*
D205*
X760630Y253696D03*
D13*
X775619Y253696D03*
D177*
X711574Y254086D03*
D240*
X761408Y254086D03*
D105*
X775619Y254086D03*
D32*
X712742Y254475D03*
D139*
X762382Y254475D03*
D13*
X775619Y254475D03*
D33*
X714104Y254864D03*
D123*
X762966Y254864D03*
D105*
X775619Y254864D03*
D49*
X715662Y255254D03*
D101*
X763355Y255254D03*
D13*
X775619Y255254D03*
D49*
X716830Y255643D03*
D107*
X763550Y255643D03*
D98*
X775813Y255643D03*
D177*
X718192Y256032D03*
D309*
X763939Y256032D03*
D100*
X775813Y256032D03*
D37*
X720139Y256422D03*
D98*
X775813Y256422D03*
D92*
X721307Y256811D03*
D100*
X775813Y256811D03*
D312*
X722475Y257200D03*
D98*
X775813Y257200D03*
D124*
X724227Y257590D03*
D98*
X775813Y257590D03*
D198*
X725590Y257979D03*
D100*
X775813Y257979D03*
D295*
X726758Y258368D03*
D98*
X775813Y258368D03*
D124*
X727731Y258758D03*
D98*
X775813Y258758D03*
D92*
X729483Y259147D03*
D100*
X775813Y259147D03*
D46*
X730651Y259536D03*
D98*
X775813Y259536D03*
D92*
X732208Y259926D03*
D100*
X775813Y259926D03*
D150*
X733766Y260315D03*
D98*
X775813Y260315D03*
D27*
X735128Y260704D03*
D98*
X775813Y260704D03*
D38*
X736686Y261094D03*
D100*
X775813Y261094D03*
D148*
X738048Y261483D03*
D98*
X775813Y261483D03*
D46*
X739606Y261872D03*
D98*
X775813Y261872D03*
D28*
X741163Y262262D03*
D100*
X775813Y262262D03*
D138*
X742915Y262651D03*
D98*
X775813Y262651D03*
D115*
X744667Y263040D03*
D100*
X775813Y263040D03*
D37*
X746224Y263430D03*
D98*
X775813Y263430D03*
D46*
X747782Y263819D03*
D98*
X775813Y263819D03*
D59*
X749923Y264208D03*
D100*
X775813Y264208D03*
D69*
X751870Y264598D03*
D98*
X775813Y264598D03*
D31*
X754011Y264987D03*
D100*
X775813Y264987D03*
D189*
X755958Y265376D03*
D98*
X775813Y265376D03*
D181*
X757515Y265766D03*
D13*
X775619Y265766D03*
D17*
X759072Y266155D03*
D105*
X775619Y266155D03*
D172*
X760824Y266544D03*
D13*
X775619Y266544D03*
D183*
X763160Y266934D03*
D105*
X775619Y266934D03*
D192*
X765302Y267323D03*
D112*
X775424Y267323D03*
D19*
X768416Y267712D03*
D254*
X769390Y268102D03*
D122*
X770752Y268491D03*
D109*
X771726Y268880D03*
D177*
X772699Y269270D03*
D73*
X773478Y269659D03*
D43*
X773867Y270048D03*
D91*
X774840Y270438D03*
M02*
