G04 EAGLE Gerber X2 export*
G75*
%MOMM*%
%FSLAX34Y34*%
%LPD*%
%AMOC8*
5,1,8,0,0,1.08239X$1,22.5*%
G01*
%ADD10C,1.879600*%

G36*
X11958Y50042D02*
X11958Y50042D01*
X11977Y50040D01*
X12079Y50062D01*
X12181Y50079D01*
X12198Y50088D01*
X12218Y50092D01*
X12307Y50145D01*
X12398Y50194D01*
X12412Y50208D01*
X12429Y50218D01*
X12496Y50297D01*
X12568Y50372D01*
X12576Y50390D01*
X12589Y50405D01*
X12628Y50501D01*
X12671Y50595D01*
X12673Y50615D01*
X12681Y50633D01*
X12699Y50800D01*
X12699Y52973D01*
X14362Y56987D01*
X17435Y60060D01*
X21449Y61723D01*
X25795Y61723D01*
X29809Y60060D01*
X32882Y56987D01*
X34545Y52973D01*
X34545Y50800D01*
X34548Y50780D01*
X34546Y50761D01*
X34568Y50659D01*
X34584Y50557D01*
X34594Y50540D01*
X34598Y50520D01*
X34651Y50431D01*
X34700Y50340D01*
X34714Y50326D01*
X34724Y50309D01*
X34803Y50242D01*
X34878Y50171D01*
X34896Y50162D01*
X34911Y50149D01*
X35007Y50110D01*
X35101Y50067D01*
X35121Y50065D01*
X35139Y50057D01*
X35306Y50039D01*
X50800Y50039D01*
X50827Y50043D01*
X50854Y50041D01*
X51019Y50071D01*
X52035Y50376D01*
X52064Y50390D01*
X52096Y50397D01*
X52174Y50443D01*
X52256Y50483D01*
X52279Y50506D01*
X52307Y50523D01*
X52366Y50592D01*
X52431Y50656D01*
X52446Y50685D01*
X52467Y50710D01*
X52501Y50795D01*
X52504Y50801D01*
X53340Y50801D01*
X53360Y50804D01*
X53379Y50802D01*
X53481Y50824D01*
X53583Y50841D01*
X53600Y50850D01*
X53620Y50854D01*
X53709Y50907D01*
X53800Y50956D01*
X53814Y50970D01*
X53831Y50980D01*
X53898Y51059D01*
X53969Y51134D01*
X53978Y51152D01*
X53991Y51167D01*
X54030Y51263D01*
X54073Y51357D01*
X54075Y51377D01*
X54083Y51395D01*
X54101Y51562D01*
X54101Y62646D01*
X55374Y62445D01*
X57161Y61864D01*
X58835Y61011D01*
X60356Y59906D01*
X61684Y58578D01*
X62789Y57057D01*
X63642Y55383D01*
X63864Y54701D01*
X63869Y54691D01*
X63871Y54680D01*
X63925Y54582D01*
X63976Y54482D01*
X63984Y54475D01*
X63990Y54465D01*
X64072Y54390D01*
X64153Y54311D01*
X64163Y54306D01*
X64171Y54299D01*
X64273Y54254D01*
X64375Y54205D01*
X64386Y54204D01*
X64396Y54199D01*
X64508Y54189D01*
X64619Y54176D01*
X64630Y54178D01*
X64641Y54177D01*
X64806Y54207D01*
X177935Y88146D01*
X381048Y100840D01*
X381055Y100842D01*
X381209Y100868D01*
X470109Y126268D01*
X470126Y126276D01*
X470158Y126284D01*
X727968Y218994D01*
X728041Y219034D01*
X728117Y219067D01*
X728158Y219100D01*
X728183Y219113D01*
X728203Y219135D01*
X728248Y219172D01*
X736915Y227839D01*
X774700Y227839D01*
X774790Y227854D01*
X774881Y227861D01*
X774911Y227873D01*
X774943Y227879D01*
X775023Y227921D01*
X775107Y227957D01*
X775139Y227983D01*
X775160Y227994D01*
X775182Y228017D01*
X775238Y228062D01*
X775345Y228168D01*
X775352Y228178D01*
X775361Y228185D01*
X775424Y228278D01*
X775488Y228368D01*
X775492Y228379D01*
X775498Y228389D01*
X775528Y228497D01*
X775561Y228603D01*
X775560Y228615D01*
X775563Y228627D01*
X775557Y228738D01*
X775554Y228849D01*
X775550Y228860D01*
X775549Y228872D01*
X775508Y228975D01*
X775470Y229080D01*
X775462Y229089D01*
X775458Y229100D01*
X775386Y229185D01*
X775316Y229272D01*
X775306Y229278D01*
X775298Y229288D01*
X775203Y229345D01*
X775109Y229405D01*
X775098Y229408D01*
X775087Y229414D01*
X774926Y229458D01*
X773682Y229655D01*
X771895Y230236D01*
X770221Y231089D01*
X768700Y232194D01*
X767372Y233522D01*
X766267Y235043D01*
X765414Y236717D01*
X764833Y238504D01*
X764632Y239777D01*
X775716Y239777D01*
X775736Y239780D01*
X775755Y239778D01*
X775857Y239800D01*
X775959Y239817D01*
X775976Y239826D01*
X775996Y239830D01*
X776085Y239883D01*
X776176Y239932D01*
X776190Y239946D01*
X776207Y239956D01*
X776274Y240035D01*
X776345Y240110D01*
X776354Y240128D01*
X776367Y240143D01*
X776405Y240239D01*
X776449Y240333D01*
X776451Y240353D01*
X776459Y240371D01*
X776477Y240538D01*
X776477Y241301D01*
X777240Y241301D01*
X777260Y241304D01*
X777279Y241302D01*
X777381Y241324D01*
X777483Y241341D01*
X777500Y241350D01*
X777520Y241354D01*
X777609Y241407D01*
X777700Y241456D01*
X777714Y241470D01*
X777731Y241480D01*
X777798Y241559D01*
X777869Y241634D01*
X777878Y241652D01*
X777891Y241667D01*
X777930Y241763D01*
X777973Y241857D01*
X777975Y241877D01*
X777983Y241895D01*
X778001Y242062D01*
X778001Y253146D01*
X779274Y252945D01*
X781061Y252364D01*
X782735Y251511D01*
X784256Y250406D01*
X785584Y249078D01*
X786689Y247557D01*
X787542Y245883D01*
X788123Y244096D01*
X788320Y242852D01*
X788323Y242841D01*
X788324Y242829D01*
X788362Y242724D01*
X788397Y242619D01*
X788404Y242609D01*
X788408Y242598D01*
X788478Y242511D01*
X788545Y242422D01*
X788554Y242415D01*
X788562Y242406D01*
X788656Y242346D01*
X788747Y242283D01*
X788759Y242280D01*
X788769Y242273D01*
X788877Y242246D01*
X788984Y242215D01*
X788996Y242216D01*
X789007Y242213D01*
X789118Y242222D01*
X789229Y242227D01*
X789241Y242231D01*
X789253Y242232D01*
X789355Y242276D01*
X789459Y242316D01*
X789468Y242324D01*
X789479Y242328D01*
X789610Y242433D01*
X798350Y251173D01*
X798397Y251239D01*
X798452Y251300D01*
X798469Y251339D01*
X798493Y251373D01*
X798517Y251451D01*
X798550Y251526D01*
X798553Y251568D01*
X798566Y251608D01*
X798563Y251689D01*
X798570Y251771D01*
X798560Y251812D01*
X798559Y251854D01*
X798531Y251931D01*
X798512Y252010D01*
X798485Y252058D01*
X798475Y252085D01*
X798457Y252107D01*
X798429Y252156D01*
X780283Y277385D01*
X780199Y277469D01*
X780116Y277554D01*
X780112Y277555D01*
X780109Y277558D01*
X780003Y277611D01*
X779897Y277665D01*
X779893Y277666D01*
X779889Y277668D01*
X779771Y277684D01*
X779654Y277701D01*
X779649Y277701D01*
X779645Y277701D01*
X779632Y277698D01*
X779487Y277680D01*
X703407Y259354D01*
X703385Y259345D01*
X703373Y259343D01*
X703346Y259328D01*
X703335Y259324D01*
X703260Y259302D01*
X703223Y259276D01*
X703180Y259258D01*
X703179Y259258D01*
X702114Y259042D01*
X702104Y259038D01*
X702087Y259036D01*
X701282Y258842D01*
X701281Y258842D01*
X701280Y258841D01*
X695044Y257320D01*
X695016Y257309D01*
X694958Y257294D01*
X681502Y252275D01*
X681473Y252258D01*
X681393Y252224D01*
X668888Y245161D01*
X668862Y245141D01*
X668789Y245095D01*
X657543Y236162D01*
X657520Y236138D01*
X657455Y236081D01*
X647744Y225499D01*
X647728Y225474D01*
X647688Y225430D01*
X643492Y219610D01*
X643484Y219595D01*
X643466Y219573D01*
X642917Y218705D01*
X641888Y218497D01*
X641882Y218494D01*
X641872Y218493D01*
X393585Y162755D01*
X393533Y162734D01*
X393478Y162723D01*
X393385Y162675D01*
X393357Y162663D01*
X393347Y162655D01*
X393329Y162646D01*
X392964Y162402D01*
X392619Y162471D01*
X392544Y162474D01*
X392470Y162486D01*
X392404Y162479D01*
X392373Y162480D01*
X392349Y162473D01*
X392303Y162467D01*
X391960Y162390D01*
X391589Y162625D01*
X391537Y162647D01*
X391490Y162678D01*
X391390Y162710D01*
X391362Y162722D01*
X391350Y162723D01*
X391331Y162729D01*
X390900Y162815D01*
X390705Y163108D01*
X390653Y163163D01*
X390610Y163224D01*
X390558Y163265D01*
X390537Y163288D01*
X390514Y163300D01*
X390479Y163329D01*
X390181Y163517D01*
X390085Y163945D01*
X390064Y163997D01*
X390053Y164052D01*
X390005Y164145D01*
X389993Y164173D01*
X389985Y164183D01*
X389976Y164201D01*
X383619Y173736D01*
X383602Y173754D01*
X383591Y173776D01*
X383519Y173844D01*
X383451Y173916D01*
X383430Y173928D01*
X383412Y173945D01*
X383322Y173986D01*
X383235Y174033D01*
X383211Y174037D01*
X383189Y174048D01*
X383023Y174074D01*
X181779Y184005D01*
X181724Y183999D01*
X180418Y184073D01*
X180415Y184072D01*
X180412Y184073D01*
X180401Y184073D01*
X180392Y184073D01*
X180380Y184074D01*
X168375Y184328D01*
X168348Y184325D01*
X168295Y184326D01*
X144374Y182323D01*
X144343Y182315D01*
X144269Y182307D01*
X120860Y176994D01*
X120830Y176982D01*
X120758Y176963D01*
X98316Y168444D01*
X98288Y168428D01*
X98219Y168400D01*
X77181Y156840D01*
X77156Y156820D01*
X77092Y156783D01*
X57867Y142408D01*
X57845Y142384D01*
X57787Y142338D01*
X40750Y125428D01*
X40730Y125402D01*
X40680Y125348D01*
X26162Y106231D01*
X26147Y106202D01*
X26104Y106142D01*
X14388Y85190D01*
X14377Y85160D01*
X14342Y85094D01*
X5656Y62716D01*
X5651Y62689D01*
X5632Y62640D01*
X4952Y60140D01*
X4538Y58618D01*
X4538Y58617D01*
X3502Y54811D01*
X2567Y51373D01*
X2566Y51356D01*
X2559Y51340D01*
X2541Y51173D01*
X2541Y50800D01*
X2544Y50780D01*
X2542Y50761D01*
X2564Y50659D01*
X2580Y50557D01*
X2590Y50540D01*
X2594Y50520D01*
X2647Y50431D01*
X2696Y50340D01*
X2710Y50326D01*
X2720Y50309D01*
X2799Y50242D01*
X2874Y50171D01*
X2892Y50162D01*
X2907Y50149D01*
X3003Y50110D01*
X3097Y50067D01*
X3117Y50065D01*
X3135Y50057D01*
X3302Y50039D01*
X11938Y50039D01*
X11958Y50042D01*
G37*
G36*
X177673Y2545D02*
X177673Y2545D01*
X177719Y2544D01*
X205626Y5159D01*
X205635Y5161D01*
X205651Y5161D01*
X261499Y12244D01*
X261512Y12248D01*
X261532Y12249D01*
X317019Y21761D01*
X317031Y21765D01*
X317051Y21767D01*
X372070Y33691D01*
X372080Y33694D01*
X372095Y33696D01*
X399335Y40540D01*
X399351Y40547D01*
X399379Y40552D01*
X435026Y51803D01*
X435035Y51808D01*
X435050Y51811D01*
X505683Y76673D01*
X505695Y76680D01*
X505714Y76685D01*
X575196Y104605D01*
X575207Y104611D01*
X575227Y104618D01*
X643424Y135541D01*
X643432Y135547D01*
X643447Y135552D01*
X676677Y151952D01*
X676688Y151959D01*
X676700Y151963D01*
X676838Y152058D01*
X677316Y152471D01*
X677450Y152461D01*
X677572Y152472D01*
X677693Y152482D01*
X677694Y152483D01*
X677695Y152483D01*
X677699Y152485D01*
X677850Y152541D01*
X677969Y152602D01*
X678539Y152416D01*
X678560Y152412D01*
X678580Y152404D01*
X678746Y152379D01*
X690310Y151928D01*
X690337Y151931D01*
X690389Y151929D01*
X714181Y153451D01*
X714212Y153458D01*
X714284Y153465D01*
X737645Y158225D01*
X737675Y158236D01*
X737745Y158253D01*
X760236Y166162D01*
X760264Y166177D01*
X760332Y166203D01*
X781530Y177112D01*
X781556Y177132D01*
X781619Y177166D01*
X801127Y190871D01*
X801150Y190894D01*
X801208Y190937D01*
X818659Y207180D01*
X818676Y207201D01*
X818714Y207236D01*
X824913Y214327D01*
X824943Y214375D01*
X824981Y214417D01*
X825007Y214479D01*
X825043Y214536D01*
X825056Y214591D01*
X825078Y214643D01*
X825084Y214710D01*
X825099Y214776D01*
X825094Y214831D01*
X825099Y214888D01*
X825083Y214953D01*
X825077Y215020D01*
X825054Y215072D01*
X825040Y215127D01*
X824989Y215217D01*
X824977Y215245D01*
X824968Y215255D01*
X824958Y215273D01*
X801625Y247713D01*
X801561Y247777D01*
X801502Y247847D01*
X801474Y247863D01*
X801451Y247887D01*
X801370Y247927D01*
X801292Y247974D01*
X801260Y247981D01*
X801231Y247996D01*
X801141Y248008D01*
X801052Y248028D01*
X801020Y248025D01*
X800987Y248029D01*
X800898Y248012D01*
X800807Y248003D01*
X800778Y247989D01*
X800746Y247983D01*
X800666Y247938D01*
X800584Y247901D01*
X800552Y247874D01*
X800531Y247862D01*
X800510Y247838D01*
X800455Y247792D01*
X780766Y227066D01*
X780745Y227037D01*
X780719Y227012D01*
X780676Y226935D01*
X780627Y226863D01*
X780617Y226828D01*
X780600Y226797D01*
X780584Y226710D01*
X780561Y226626D01*
X780563Y226590D01*
X780556Y226554D01*
X780569Y226468D01*
X780574Y226381D01*
X780587Y226347D01*
X780592Y226311D01*
X780632Y226233D01*
X780664Y226152D01*
X780687Y226124D01*
X780704Y226092D01*
X780766Y226031D01*
X780822Y225964D01*
X780853Y225945D01*
X780879Y225920D01*
X781026Y225839D01*
X782665Y225160D01*
X785738Y222087D01*
X787401Y218073D01*
X787401Y213727D01*
X785738Y209713D01*
X782665Y206640D01*
X778651Y204977D01*
X774305Y204977D01*
X770291Y206640D01*
X767218Y209713D01*
X765555Y213727D01*
X765555Y218073D01*
X767165Y221959D01*
X767175Y222003D01*
X767195Y222045D01*
X767203Y222122D01*
X767221Y222198D01*
X767217Y222244D01*
X767222Y222289D01*
X767205Y222366D01*
X767198Y222443D01*
X767179Y222485D01*
X767170Y222530D01*
X767130Y222597D01*
X767098Y222668D01*
X767067Y222702D01*
X767043Y222741D01*
X766984Y222792D01*
X766932Y222849D01*
X766891Y222871D01*
X766856Y222901D01*
X766784Y222930D01*
X766716Y222967D01*
X766671Y222976D01*
X766628Y222993D01*
X766492Y223008D01*
X766474Y223011D01*
X766469Y223010D01*
X766462Y223011D01*
X758540Y223011D01*
X758465Y222999D01*
X758390Y222996D01*
X758345Y222979D01*
X758297Y222972D01*
X758230Y222936D01*
X758160Y222909D01*
X758122Y222879D01*
X758080Y222856D01*
X758028Y222802D01*
X757969Y222754D01*
X757944Y222713D01*
X757911Y222678D01*
X757879Y222609D01*
X757838Y222545D01*
X757827Y222499D01*
X757807Y222455D01*
X757799Y222380D01*
X757781Y222306D01*
X757785Y222258D01*
X757780Y222211D01*
X757796Y222137D01*
X757803Y222061D01*
X757825Y222001D01*
X757832Y221970D01*
X757845Y221948D01*
X757862Y221904D01*
X758586Y220483D01*
X759167Y218696D01*
X759368Y217423D01*
X748284Y217423D01*
X748264Y217420D01*
X748245Y217422D01*
X748143Y217400D01*
X748041Y217383D01*
X748024Y217374D01*
X748004Y217370D01*
X747915Y217317D01*
X747824Y217268D01*
X747810Y217254D01*
X747793Y217244D01*
X747726Y217165D01*
X747655Y217090D01*
X747646Y217072D01*
X747633Y217057D01*
X747595Y216961D01*
X747551Y216867D01*
X747549Y216847D01*
X747541Y216829D01*
X747523Y216662D01*
X747523Y215899D01*
X747521Y215899D01*
X747521Y216662D01*
X747518Y216682D01*
X747520Y216701D01*
X747498Y216803D01*
X747481Y216905D01*
X747472Y216922D01*
X747468Y216942D01*
X747415Y217031D01*
X747366Y217122D01*
X747352Y217136D01*
X747342Y217153D01*
X747263Y217220D01*
X747188Y217291D01*
X747170Y217300D01*
X747155Y217313D01*
X747059Y217352D01*
X746965Y217395D01*
X746945Y217397D01*
X746927Y217405D01*
X746760Y217423D01*
X735452Y217423D01*
X735406Y217495D01*
X735379Y217517D01*
X735358Y217545D01*
X735284Y217595D01*
X735215Y217651D01*
X735183Y217663D01*
X735154Y217682D01*
X735068Y217706D01*
X734985Y217737D01*
X734950Y217738D01*
X734917Y217748D01*
X734828Y217743D01*
X734739Y217746D01*
X734696Y217735D01*
X734671Y217734D01*
X734642Y217722D01*
X734576Y217706D01*
X469665Y121375D01*
X380870Y96005D01*
X177753Y83310D01*
X177716Y83301D01*
X177679Y83302D01*
X177517Y83257D01*
X59054Y35872D01*
X59011Y35845D01*
X58963Y35828D01*
X58906Y35782D01*
X58844Y35745D01*
X58811Y35706D01*
X58771Y35674D01*
X58732Y35613D01*
X58684Y35557D01*
X58666Y35510D01*
X58638Y35468D01*
X58621Y35396D01*
X58593Y35328D01*
X58591Y35278D01*
X58578Y35229D01*
X58584Y35156D01*
X58580Y35083D01*
X58594Y35034D01*
X58597Y34984D01*
X58626Y34916D01*
X58646Y34846D01*
X58674Y34804D01*
X58694Y34757D01*
X58769Y34664D01*
X58783Y34642D01*
X58790Y34637D01*
X58799Y34626D01*
X61838Y31587D01*
X63501Y27573D01*
X63501Y23227D01*
X61838Y19213D01*
X58765Y16140D01*
X54751Y14477D01*
X50405Y14477D01*
X46391Y16140D01*
X43318Y19213D01*
X41655Y23227D01*
X41655Y27573D01*
X43265Y31459D01*
X43275Y31503D01*
X43295Y31545D01*
X43303Y31622D01*
X43321Y31698D01*
X43317Y31744D01*
X43322Y31789D01*
X43305Y31866D01*
X43298Y31943D01*
X43279Y31985D01*
X43270Y32030D01*
X43230Y32097D01*
X43198Y32168D01*
X43167Y32202D01*
X43143Y32241D01*
X43084Y32292D01*
X43032Y32349D01*
X42991Y32371D01*
X42956Y32401D01*
X42884Y32430D01*
X42816Y32467D01*
X42771Y32476D01*
X42728Y32493D01*
X42592Y32508D01*
X42574Y32511D01*
X42569Y32510D01*
X42562Y32511D01*
X34640Y32511D01*
X34565Y32499D01*
X34490Y32496D01*
X34445Y32479D01*
X34397Y32472D01*
X34330Y32436D01*
X34260Y32409D01*
X34222Y32379D01*
X34180Y32356D01*
X34128Y32302D01*
X34069Y32254D01*
X34044Y32213D01*
X34011Y32178D01*
X33979Y32109D01*
X33938Y32045D01*
X33927Y31999D01*
X33907Y31955D01*
X33899Y31880D01*
X33881Y31806D01*
X33885Y31758D01*
X33880Y31711D01*
X33896Y31637D01*
X33903Y31561D01*
X33925Y31501D01*
X33932Y31470D01*
X33945Y31448D01*
X33962Y31404D01*
X34686Y29983D01*
X35267Y28196D01*
X35468Y26923D01*
X24384Y26923D01*
X24364Y26920D01*
X24345Y26922D01*
X24243Y26900D01*
X24141Y26883D01*
X24124Y26874D01*
X24104Y26870D01*
X24015Y26817D01*
X23924Y26768D01*
X23910Y26754D01*
X23893Y26744D01*
X23826Y26665D01*
X23755Y26590D01*
X23746Y26572D01*
X23733Y26557D01*
X23695Y26461D01*
X23651Y26367D01*
X23649Y26347D01*
X23641Y26329D01*
X23623Y26162D01*
X23623Y25399D01*
X23621Y25399D01*
X23621Y26162D01*
X23619Y26173D01*
X23620Y26179D01*
X23618Y26187D01*
X23620Y26201D01*
X23598Y26303D01*
X23581Y26405D01*
X23572Y26422D01*
X23568Y26442D01*
X23515Y26531D01*
X23466Y26622D01*
X23452Y26636D01*
X23442Y26653D01*
X23363Y26720D01*
X23288Y26791D01*
X23270Y26800D01*
X23255Y26813D01*
X23159Y26852D01*
X23065Y26895D01*
X23045Y26897D01*
X23027Y26905D01*
X22860Y26923D01*
X11776Y26923D01*
X11977Y28196D01*
X12558Y29983D01*
X13282Y31404D01*
X13305Y31476D01*
X13337Y31545D01*
X13342Y31593D01*
X13357Y31639D01*
X13356Y31714D01*
X13364Y31789D01*
X13354Y31837D01*
X13353Y31885D01*
X13328Y31956D01*
X13312Y32030D01*
X13287Y32071D01*
X13271Y32117D01*
X13225Y32176D01*
X13186Y32241D01*
X13149Y32272D01*
X13119Y32310D01*
X13056Y32352D01*
X12999Y32401D01*
X12954Y32419D01*
X12914Y32445D01*
X12841Y32465D01*
X12771Y32493D01*
X12706Y32500D01*
X12676Y32508D01*
X12650Y32506D01*
X12604Y32511D01*
X3302Y32511D01*
X3282Y32508D01*
X3263Y32510D01*
X3161Y32488D01*
X3059Y32472D01*
X3042Y32462D01*
X3022Y32458D01*
X2933Y32405D01*
X2842Y32356D01*
X2828Y32342D01*
X2811Y32332D01*
X2744Y32253D01*
X2672Y32178D01*
X2664Y32160D01*
X2651Y32145D01*
X2612Y32049D01*
X2569Y31955D01*
X2567Y31935D01*
X2559Y31917D01*
X2541Y31750D01*
X2541Y21499D01*
X2544Y21477D01*
X2543Y21439D01*
X2767Y18592D01*
X2768Y18587D01*
X2768Y18581D01*
X2802Y18417D01*
X4561Y13002D01*
X4578Y12971D01*
X4586Y12936D01*
X4669Y12790D01*
X8016Y8184D01*
X8038Y8163D01*
X8051Y8140D01*
X8056Y8136D01*
X8060Y8129D01*
X8184Y8016D01*
X12790Y4669D01*
X12822Y4653D01*
X12850Y4630D01*
X13002Y4561D01*
X18417Y2802D01*
X18423Y2801D01*
X18428Y2799D01*
X18592Y2767D01*
X21439Y2543D01*
X21461Y2545D01*
X21499Y2541D01*
X177648Y2541D01*
X177673Y2545D01*
G37*
%LPC*%
G36*
X745349Y230377D02*
X745349Y230377D01*
X741335Y232040D01*
X738262Y235113D01*
X736599Y239127D01*
X736599Y243473D01*
X738262Y247487D01*
X741335Y250560D01*
X745349Y252223D01*
X749695Y252223D01*
X753709Y250560D01*
X756782Y247487D01*
X758445Y243473D01*
X758445Y239127D01*
X756782Y235113D01*
X753709Y232040D01*
X749695Y230377D01*
X745349Y230377D01*
G37*
%LPD*%
%LPC*%
G36*
X764632Y242823D02*
X764632Y242823D01*
X764833Y244096D01*
X765414Y245883D01*
X766267Y247557D01*
X767372Y249078D01*
X768700Y250406D01*
X770221Y251511D01*
X771895Y252364D01*
X773682Y252945D01*
X774955Y253146D01*
X774955Y242823D01*
X764632Y242823D01*
G37*
%LPD*%
%LPC*%
G36*
X749045Y214377D02*
X749045Y214377D01*
X759368Y214377D01*
X759167Y213104D01*
X758586Y211317D01*
X757733Y209643D01*
X756628Y208122D01*
X755300Y206794D01*
X753779Y205689D01*
X752105Y204836D01*
X750318Y204255D01*
X749045Y204054D01*
X749045Y214377D01*
G37*
%LPD*%
%LPC*%
G36*
X40732Y52323D02*
X40732Y52323D01*
X40933Y53596D01*
X41514Y55383D01*
X42367Y57057D01*
X43472Y58578D01*
X44800Y59906D01*
X46321Y61011D01*
X47995Y61864D01*
X49782Y62445D01*
X51055Y62646D01*
X51055Y52323D01*
X40732Y52323D01*
G37*
%LPD*%
%LPC*%
G36*
X25145Y23877D02*
X25145Y23877D01*
X35468Y23877D01*
X35267Y22604D01*
X34686Y20817D01*
X33833Y19143D01*
X32728Y17622D01*
X31400Y16294D01*
X29879Y15189D01*
X28205Y14336D01*
X26418Y13755D01*
X25145Y13554D01*
X25145Y23877D01*
G37*
%LPD*%
%LPC*%
G36*
X744726Y204255D02*
X744726Y204255D01*
X742939Y204836D01*
X741265Y205689D01*
X739744Y206794D01*
X738416Y208122D01*
X737311Y209643D01*
X736458Y211317D01*
X735877Y213104D01*
X735676Y214377D01*
X745999Y214377D01*
X745999Y204054D01*
X744726Y204255D01*
G37*
%LPD*%
%LPC*%
G36*
X20826Y13755D02*
X20826Y13755D01*
X19039Y14336D01*
X17365Y15189D01*
X15844Y16294D01*
X14516Y17622D01*
X13411Y19143D01*
X12558Y20817D01*
X11977Y22604D01*
X11776Y23877D01*
X22099Y23877D01*
X22099Y13554D01*
X20826Y13755D01*
G37*
%LPD*%
D10*
X747522Y215900D03*
X776478Y215900D03*
X747522Y241300D03*
X776478Y241300D03*
X23622Y25400D03*
X52578Y25400D03*
X23622Y50800D03*
X52578Y50800D03*
M02*
