G04 EAGLE Gerber X2 export*
G75*
%MOMM*%
%FSLAX34Y34*%
%LPD*%
%AMOC8*
5,1,8,0,0,1.08239X$1,22.5*%
G01*
%ADD10C,0.254000*%


D10*
X0Y21499D02*
X82Y19625D01*
X327Y17766D01*
X733Y15935D01*
X1297Y14146D01*
X2014Y12413D01*
X2880Y10749D01*
X3888Y9168D01*
X5030Y7680D01*
X6297Y6297D01*
X7680Y5030D01*
X9168Y3888D01*
X10749Y2880D01*
X12413Y2014D01*
X14146Y1297D01*
X15935Y733D01*
X17766Y327D01*
X19625Y82D01*
X21499Y0D01*
X177800Y0D01*
X289757Y14198D01*
X400050Y38100D01*
X541555Y87908D01*
X678180Y149860D01*
X693640Y149402D01*
X709081Y150293D01*
X724385Y152527D01*
X739436Y156086D01*
X754120Y160943D01*
X768325Y167062D01*
X781943Y174395D01*
X794869Y182887D01*
X807006Y192474D01*
X818262Y203082D01*
X828550Y214630D01*
X781050Y280670D01*
X701550Y261520D01*
X693522Y259525D01*
X685698Y256837D01*
X678138Y253478D01*
X670899Y249473D01*
X664038Y244852D01*
X657605Y239651D01*
X651650Y233908D01*
X646218Y227669D01*
X641350Y220980D01*
X392430Y165100D01*
X384810Y176530D01*
X180551Y186610D01*
X165254Y186800D01*
X149998Y185657D01*
X134900Y183188D01*
X120075Y179413D01*
X105635Y174360D01*
X91690Y168068D01*
X78347Y160584D01*
X65707Y151966D01*
X53866Y142279D01*
X42915Y131597D01*
X32936Y120001D01*
X24005Y107579D01*
X16192Y94426D01*
X9554Y80643D01*
X4143Y66333D01*
X0Y51606D01*
X0Y21499D01*
M02*
