G04 EAGLE Gerber X2 export*
G75*
%MOMM*%
%FSLAX34Y34*%
%LPD*%
%AMOC8*
5,1,8,0,0,1.08239X$1,22.5*%
G01*
%ADD10C,2.082800*%
%ADD11R,0.593853X0.042419*%
%ADD12R,0.933194X0.042419*%
%ADD13R,1.230122X0.042416*%
%ADD14R,1.357375X0.042419*%
%ADD15R,1.484631X0.042419*%
%ADD16R,1.654300X0.042419*%
%ADD17R,0.848363X0.042419*%
%ADD18R,0.805944X0.042416*%
%ADD19R,0.636272X0.042416*%
%ADD20R,1.357375X0.042416*%
%ADD21R,0.593850X0.042419*%
%ADD22R,0.551434X0.042419*%
%ADD23R,1.611881X0.042419*%
%ADD24R,0.509016X0.042419*%
%ADD25R,1.908809X0.042419*%
%ADD26R,2.078484X0.042419*%
%ADD27R,0.551434X0.042416*%
%ADD28R,1.102869X0.042416*%
%ADD29R,1.060450X0.042416*%
%ADD30R,0.763522X0.042419*%
%ADD31R,0.551431X0.042419*%
%ADD32R,0.763525X0.042419*%
%ADD33R,0.636272X0.042419*%
%ADD34R,0.424181X0.042419*%
%ADD35R,0.678687X0.042419*%
%ADD36R,0.636269X0.042419*%
%ADD37R,0.424178X0.042419*%
%ADD38R,0.466597X0.042419*%
%ADD39R,0.509016X0.042416*%
%ADD40R,0.593850X0.042416*%
%ADD41R,0.466600X0.042419*%
%ADD42R,0.424181X0.042416*%
%ADD43R,0.466597X0.042416*%
%ADD44R,0.381763X0.042419*%
%ADD45R,0.339344X0.042419*%
%ADD46R,0.339344X0.042416*%
%ADD47R,0.296925X0.042419*%
%ADD48R,0.296928X0.042416*%
%ADD49R,0.296928X0.042419*%
%ADD50R,0.254509X0.042419*%
%ADD51R,0.254509X0.042416*%
%ADD52R,0.296925X0.042416*%
%ADD53R,0.721103X0.042419*%
%ADD54R,1.314956X0.042419*%
%ADD55R,1.569469X0.042419*%
%ADD56R,2.036062X0.042419*%
%ADD57R,2.417825X0.042416*%
%ADD58R,2.587497X0.042419*%
%ADD59R,2.799588X0.042419*%
%ADD60R,0.890778X0.042419*%
%ADD61R,1.018034X0.042419*%
%ADD62R,0.763525X0.042416*%
%ADD63R,0.678687X0.042416*%
%ADD64R,0.805944X0.042419*%
%ADD65R,0.509019X0.042419*%
%ADD66R,1.060450X0.042419*%
%ADD67R,2.926844X0.042419*%
%ADD68R,0.381763X0.042416*%
%ADD69R,2.799588X0.042416*%
%ADD70R,2.248153X0.042419*%
%ADD71R,0.042419X0.042419*%
%ADD72R,1.823972X0.042419*%
%ADD73R,1.399794X0.042419*%
%ADD74R,0.084838X0.042419*%
%ADD75R,1.272541X0.042419*%
%ADD76R,0.933197X0.042416*%
%ADD77R,1.908813X0.042416*%
%ADD78R,0.254506X0.042419*%
%ADD79R,1.781556X0.042419*%
%ADD80R,0.381759X0.042416*%
%ADD81R,0.339347X0.042416*%
%ADD82R,0.339347X0.042419*%
%ADD83R,0.636269X0.042416*%
%ADD84R,0.424178X0.042416*%
%ADD85R,0.212091X0.042416*%
%ADD86R,1.187706X0.042419*%
%ADD87R,1.187703X0.042419*%
%ADD88R,1.018031X0.042419*%
%ADD89R,2.884425X0.042416*%
%ADD90R,1.611884X0.042416*%
%ADD91R,2.629916X0.042419*%
%ADD92R,1.823975X0.042419*%
%ADD93R,2.290572X0.042419*%
%ADD94R,2.078481X0.042419*%
%ADD95R,2.248156X0.042419*%
%ADD96R,0.212088X0.042419*%
%ADD97R,1.399794X0.042416*%
%ADD98R,0.933194X0.042416*%
%ADD99R,0.254506X0.042416*%
%ADD100R,0.721106X0.042419*%
%ADD101R,0.593853X0.042416*%
%ADD102R,0.805941X0.042419*%
%ADD103R,1.442213X0.042416*%
%ADD104R,1.611884X0.042419*%
%ADD105R,0.212091X0.042419*%
%ADD106R,2.078484X0.042416*%
%ADD107R,2.460244X0.042419*%
%ADD108R,0.381759X0.042419*%
%ADD109R,0.848359X0.042419*%
%ADD110R,0.805941X0.042416*%
%ADD111R,0.466600X0.042416*%
%ADD112R,0.890778X0.042416*%
%ADD113R,0.042416X0.042419*%
%ADD114R,1.654303X0.042419*%
%ADD115R,1.442213X0.042419*%
%ADD116R,1.145288X0.042416*%
%ADD117R,0.975612X0.042419*%
%ADD118R,0.933197X0.042419*%
%ADD119R,1.145284X0.042416*%
%ADD120R,1.357378X0.042419*%
%ADD121R,1.314959X0.042419*%
%ADD122R,1.314956X0.042416*%
%ADD123R,1.527050X0.042416*%
%ADD124R,2.163319X0.042416*%
%ADD125R,0.509019X0.042416*%
%ADD126R,1.951228X0.042419*%
%ADD127R,1.739138X0.042419*%
%ADD128R,0.721106X0.042416*%
%ADD129R,0.678691X0.042419*%
%ADD130R,1.696722X0.042419*%
%ADD131R,1.527047X0.042419*%
%ADD132R,1.272541X0.042416*%
%ADD133R,1.187706X0.042416*%
%ADD134R,1.527050X0.042419*%
%ADD135R,0.084834X0.042419*%
%ADD136R,0.042416X0.042416*%
%ADD137R,1.187703X0.042416*%
%ADD138R,0.212088X0.042416*%
%ADD139R,0.169672X0.042416*%
%ADD140R,0.169672X0.042419*%
%ADD141R,0.084838X0.042416*%
%ADD142R,1.145288X0.042419*%
%ADD143R,1.102869X0.042419*%
%ADD144R,0.975612X0.042416*%
%ADD145R,1.145284X0.042419*%
%ADD146R,0.678691X0.042416*%
%ADD147R,1.102866X0.042416*%
%ADD148R,0.042419X0.042416*%
%ADD149R,1.230122X0.042419*%
%ADD150R,2.120900X0.042419*%
%ADD151R,1.018034X0.042416*%
%ADD152R,0.975616X0.042419*%
%ADD153R,0.848359X0.042416*%
%ADD154R,0.127256X0.042416*%
%ADD155R,0.848363X0.042416*%
%ADD156R,0.084834X0.042416*%
%ADD157R,1.442209X0.042416*%
%ADD158R,1.230125X0.042419*%
%ADD159R,1.442209X0.042419*%
%ADD160R,1.739141X0.042419*%
%ADD161R,1.866391X0.042419*%
%ADD162R,1.993647X0.042419*%
%ADD163R,1.569466X0.042416*%
%ADD164R,0.975616X0.042416*%
%ADD165R,1.823972X0.042416*%
%ADD166R,1.102866X0.042419*%
%ADD167R,0.127253X0.042416*%
%ADD168R,1.696722X0.042416*%
%ADD169R,2.205734X0.042419*%
%ADD170R,0.127253X0.042419*%
%ADD171R,1.272538X0.042419*%
%ADD172R,2.036066X0.042419*%
%ADD173R,1.823975X0.042416*%
%ADD174R,1.866391X0.042416*%
%ADD175R,1.484628X0.042419*%
%ADD176R,1.569466X0.042419*%
%ADD177R,0.890775X0.042419*%
%ADD178R,1.314959X0.042416*%
%ADD179R,2.332991X0.042416*%
%ADD180R,0.551431X0.042416*%
%ADD181R,2.502663X0.042416*%
%ADD182R,2.332988X0.042419*%
%ADD183R,1.018031X0.042416*%


D10*
X696722Y330200D03*
X725678Y330200D03*
X696722Y304800D03*
X725678Y304800D03*
X23622Y88900D03*
X52578Y88900D03*
X23622Y63500D03*
X52578Y63500D03*
D11*
X144179Y12700D03*
D12*
X144603Y13124D03*
D13*
X144391Y13548D03*
D14*
X144603Y13973D03*
D15*
X144391Y14397D03*
D16*
X144391Y14821D03*
D17*
X187021Y14821D03*
D18*
X139301Y15245D03*
D19*
X151178Y15245D03*
D20*
X187021Y15245D03*
D21*
X137817Y15669D03*
D22*
X152875Y15669D03*
D23*
X187021Y15669D03*
D22*
X137180Y16093D03*
D24*
X153935Y16093D03*
D25*
X187658Y16093D03*
D11*
X136968Y16518D03*
D24*
X154784Y16518D03*
D26*
X188082Y16518D03*
D19*
X136756Y16942D03*
D27*
X155420Y16942D03*
D28*
X182356Y16942D03*
D29*
X194869Y16942D03*
D30*
X136544Y17366D03*
D11*
X155632Y17366D03*
D31*
X178326Y17366D03*
D32*
X197626Y17366D03*
D33*
X156268Y17790D03*
D34*
X176841Y17790D03*
D35*
X198899Y17790D03*
D21*
X156905Y18214D03*
D34*
X176417Y18214D03*
D36*
X199959Y18214D03*
D37*
X158177Y18639D03*
D38*
X175781Y18639D03*
D35*
X201444Y18639D03*
D39*
X175144Y19063D03*
D40*
X202716Y19063D03*
D22*
X173660Y19487D03*
D24*
X203564Y19487D03*
X173448Y19911D03*
D37*
X203989Y19911D03*
D41*
X173236Y20335D03*
X204625Y20335D03*
D42*
X173024Y20759D03*
D43*
X205473Y20759D03*
D44*
X172811Y21184D03*
D41*
X206322Y21184D03*
D44*
X172811Y21608D03*
D34*
X206958Y21608D03*
D45*
X172599Y22032D03*
D37*
X207382Y22032D03*
D46*
X172599Y22456D03*
D42*
X207806Y22456D03*
D45*
X172599Y22880D03*
X208655Y22880D03*
X172599Y23305D03*
X209503Y23305D03*
D47*
X173236Y23729D03*
D44*
X210139Y23729D03*
D48*
X173660Y24153D03*
D46*
X210351Y24153D03*
D49*
X174084Y24577D03*
X210988Y24577D03*
D47*
X174508Y25001D03*
D50*
X211200Y25001D03*
D47*
X174932Y25425D03*
X211412Y25425D03*
D51*
X175144Y25850D03*
D52*
X211836Y25850D03*
D49*
X175781Y26274D03*
D47*
X211836Y26274D03*
D45*
X176417Y26698D03*
D47*
X212260Y26698D03*
D45*
X176841Y27122D03*
D47*
X212260Y27122D03*
D46*
X177265Y27546D03*
D52*
X212260Y27546D03*
D53*
X149057Y27970D03*
D44*
X177902Y27970D03*
D49*
X212684Y27970D03*
D54*
X148209Y28395D03*
D44*
X178750Y28395D03*
D49*
X212684Y28395D03*
D55*
X148209Y28819D03*
D44*
X179598Y28819D03*
D49*
X212684Y28819D03*
D56*
X148421Y29243D03*
D38*
X180447Y29243D03*
D49*
X212684Y29243D03*
D57*
X149482Y29667D03*
D39*
X181083Y29667D03*
D48*
X212684Y29667D03*
D58*
X149482Y30091D03*
D44*
X181295Y30091D03*
D49*
X212684Y30091D03*
D59*
X150118Y30516D03*
D24*
X182780Y30516D03*
D44*
X212260Y30516D03*
D60*
X140150Y30940D03*
D61*
X159874Y30940D03*
D33*
X184264Y30940D03*
D34*
X212048Y30940D03*
D62*
X139089Y31364D03*
X161995Y31364D03*
X185749Y31364D03*
D63*
X210776Y31364D03*
D31*
X137605Y31788D03*
D33*
X164752Y31788D03*
D60*
X187234Y31788D03*
D64*
X210139Y31788D03*
D24*
X136544Y32212D03*
D65*
X165812Y32212D03*
D66*
X189354Y32212D03*
X208867Y32212D03*
D34*
X136120Y32636D03*
D38*
X166449Y32636D03*
D67*
X199535Y32636D03*
D68*
X135908Y33061D03*
D46*
X167509Y33061D03*
D69*
X200171Y33061D03*
D44*
X135484Y33485D03*
X167721Y33485D03*
D70*
X199111Y33485D03*
D71*
X213957Y33485D03*
D45*
X234954Y33485D03*
D44*
X135484Y33909D03*
D45*
X167933Y33909D03*
D72*
X198686Y33909D03*
D60*
X235590Y33909D03*
D45*
X134847Y34333D03*
X168358Y34333D03*
D73*
X198686Y34333D03*
D74*
X223925Y34333D03*
D75*
X235378Y34333D03*
D52*
X134635Y34757D03*
X168994Y34757D03*
D76*
X198050Y34757D03*
D77*
X233045Y34757D03*
D78*
X134423Y35182D03*
D47*
X169418Y35182D03*
D44*
X197414Y35182D03*
D79*
X234105Y35182D03*
D47*
X134211Y35606D03*
D45*
X169630Y35606D03*
D60*
X229652Y35606D03*
D35*
X241317Y35606D03*
D47*
X134211Y36030D03*
X169842Y36030D03*
D41*
X229227Y36030D03*
D11*
X242589Y36030D03*
D52*
X133787Y36454D03*
D51*
X170054Y36454D03*
D46*
X229015Y36454D03*
D27*
X243225Y36454D03*
D47*
X133787Y36878D03*
D50*
X170478Y36878D03*
X229015Y36878D03*
D38*
X244074Y36878D03*
D50*
X133575Y37302D03*
X170478Y37302D03*
D37*
X244710Y37302D03*
D49*
X133363Y37727D03*
D50*
X170478Y37727D03*
D34*
X245558Y37727D03*
D48*
X133363Y38151D03*
D51*
X170478Y38151D03*
D80*
X246195Y38151D03*
D49*
X133363Y38575D03*
D47*
X170691Y38575D03*
D44*
X246619Y38575D03*
D49*
X133363Y38999D03*
D47*
X170691Y38999D03*
D44*
X247043Y38999D03*
D45*
X133575Y39423D03*
D47*
X170691Y39423D03*
D44*
X247467Y39423D03*
D45*
X133575Y39848D03*
X170903Y39848D03*
D44*
X247891Y39848D03*
D68*
X133787Y40272D03*
D46*
X170903Y40272D03*
D68*
X248315Y40272D03*
D34*
X133999Y40696D03*
D44*
X171115Y40696D03*
X248740Y40696D03*
D34*
X134423Y41120D03*
D44*
X171115Y41120D03*
X249164Y41120D03*
D38*
X135059Y41544D03*
D34*
X170903Y41544D03*
D45*
X249376Y41544D03*
D39*
X135272Y41968D03*
D42*
X170903Y41968D03*
D81*
X249800Y41968D03*
D24*
X135696Y42393D03*
D34*
X170903Y42393D03*
D82*
X249800Y42393D03*
D22*
X136332Y42817D03*
D34*
X170903Y42817D03*
D45*
X250224Y42817D03*
D22*
X136756Y43241D03*
D34*
X170903Y43241D03*
D45*
X250224Y43241D03*
D83*
X137180Y43665D03*
D84*
X170478Y43665D03*
D46*
X250648Y43665D03*
D35*
X137817Y44089D03*
D37*
X170478Y44089D03*
D45*
X250648Y44089D03*
D35*
X138665Y44514D03*
D38*
X170266Y44514D03*
D45*
X251073Y44514D03*
D36*
X139301Y44938D03*
D37*
X170054Y44938D03*
D47*
X251285Y44938D03*
D19*
X140574Y45362D03*
D39*
X169630Y45362D03*
D85*
X211412Y45362D03*
D52*
X251285Y45362D03*
D86*
X144603Y45786D03*
D22*
X168994Y45786D03*
D30*
X210776Y45786D03*
D50*
X251497Y45786D03*
D87*
X145452Y46210D03*
D35*
X168358Y46210D03*
D66*
X210139Y46210D03*
D49*
X251709Y46210D03*
D88*
X145876Y46634D03*
D21*
X155208Y46634D03*
D66*
X166025Y46634D03*
D73*
X210139Y46634D03*
D50*
X251921Y46634D03*
D89*
X156481Y47059D03*
D90*
X209927Y47059D03*
D85*
X252133Y47059D03*
D91*
X157329Y47483D03*
D92*
X209715Y47483D03*
D78*
X252345Y47483D03*
D93*
X158177Y47907D03*
D94*
X210139Y47907D03*
D78*
X252345Y47907D03*
D25*
X159238Y48331D03*
D95*
X210139Y48331D03*
D96*
X252557Y48331D03*
D97*
X160086Y48755D03*
D98*
X203140Y48755D03*
D83*
X219047Y48755D03*
D99*
X252769Y48755D03*
D60*
X160934Y49179D03*
D100*
X201656Y49179D03*
D22*
X220320Y49179D03*
D45*
X161571Y49604D03*
D22*
X200383Y49604D03*
D24*
X220956Y49604D03*
D41*
X199535Y50028D03*
D34*
X222653Y50028D03*
D38*
X198686Y50452D03*
X223713Y50452D03*
D42*
X198050Y50876D03*
X224349Y50876D03*
D44*
X197414Y51300D03*
D45*
X225198Y51300D03*
D44*
X196990Y51725D03*
X226258Y51725D03*
D82*
X196778Y52149D03*
D44*
X226682Y52149D03*
D52*
X196141Y52573D03*
D68*
X227106Y52573D03*
D47*
X195717Y52997D03*
X227531Y52997D03*
D45*
X195505Y53421D03*
X228167Y53421D03*
D49*
X195293Y53845D03*
D44*
X228803Y53845D03*
D51*
X195081Y54270D03*
D46*
X229015Y54270D03*
D101*
X259980Y54270D03*
D50*
X195081Y54694D03*
D47*
X229652Y54694D03*
D102*
X260617Y54694D03*
D50*
X195081Y55118D03*
D47*
X230076Y55118D03*
D66*
X261465Y55118D03*
D50*
X195081Y55542D03*
X230288Y55542D03*
D75*
X262101Y55542D03*
D48*
X195293Y55966D03*
D51*
X230712Y55966D03*
D103*
X262526Y55966D03*
D49*
X195293Y56391D03*
D78*
X231136Y56391D03*
D104*
X262526Y56391D03*
D47*
X195717Y56815D03*
D78*
X231560Y56815D03*
D33*
X256799Y56815D03*
D36*
X268252Y56815D03*
D44*
X163904Y57239D03*
D45*
X196353Y57239D03*
D47*
X231772Y57239D03*
D21*
X255739Y57239D03*
D35*
X268888Y57239D03*
D29*
X165600Y57663D03*
D68*
X196566Y57663D03*
D48*
X232197Y57663D03*
D27*
X255102Y57663D03*
D40*
X270161Y57663D03*
D75*
X165388Y58087D03*
D82*
X196778Y58087D03*
D50*
X232409Y58087D03*
D24*
X254466Y58087D03*
D22*
X271221Y58087D03*
D104*
X166237Y58511D03*
D49*
X196990Y58511D03*
D105*
X232621Y58511D03*
D38*
X253830Y58511D03*
D41*
X272070Y58511D03*
D79*
X166661Y58936D03*
D47*
X197414Y58936D03*
X233045Y58936D03*
D37*
X253194Y58936D03*
X273130Y58936D03*
D106*
X166873Y59360D03*
D52*
X197838Y59360D03*
D99*
X233257Y59360D03*
D46*
X252769Y59360D03*
D68*
X273766Y59360D03*
D93*
X167085Y59784D03*
D47*
X198262Y59784D03*
D50*
X233681Y59784D03*
D45*
X252345Y59784D03*
D44*
X274190Y59784D03*
D107*
X167509Y60208D03*
D44*
X199111Y60208D03*
D50*
X233681Y60208D03*
D47*
X252133Y60208D03*
D108*
X274615Y60208D03*
D24*
X157329Y60632D03*
D14*
X174296Y60632D03*
D45*
X199747Y60632D03*
D49*
X233893Y60632D03*
X251709Y60632D03*
D45*
X275251Y60632D03*
D38*
X156693Y61057D03*
D86*
X176417Y61057D03*
D45*
X200171Y61057D03*
D78*
X234530Y61057D03*
D49*
X251709Y61057D03*
D45*
X275675Y61057D03*
D43*
X156268Y61481D03*
D29*
X177902Y61481D03*
D46*
X201019Y61481D03*
D99*
X234530Y61481D03*
D48*
X251709Y61481D03*
D52*
X275887Y61481D03*
D44*
X155844Y61905D03*
D60*
X179598Y61905D03*
D38*
X202080Y61905D03*
D78*
X234954Y61905D03*
D49*
X251709Y61905D03*
D50*
X276523Y61905D03*
D45*
X155208Y62329D03*
D109*
X180659Y62329D03*
D41*
X202928Y62329D03*
D78*
X234954Y62329D03*
D49*
X251709Y62329D03*
D78*
X276948Y62329D03*
D45*
X154784Y62753D03*
D64*
X181719Y62753D03*
D38*
X203352Y62753D03*
D50*
X235378Y62753D03*
D45*
X251497Y62753D03*
D78*
X277372Y62753D03*
D81*
X154360Y63177D03*
D110*
X182568Y63177D03*
D39*
X204413Y63177D03*
D51*
X235378Y63177D03*
D46*
X251497Y63177D03*
D51*
X277796Y63177D03*
D82*
X154360Y63602D03*
D64*
X183416Y63602D03*
D41*
X205049Y63602D03*
D49*
X235590Y63602D03*
X251709Y63602D03*
D105*
X278432Y63602D03*
D45*
X153935Y64026D03*
D30*
X184476Y64026D03*
D37*
X205685Y64026D03*
D50*
X235802Y64026D03*
D45*
X251921Y64026D03*
D78*
X278644Y64026D03*
D44*
X153723Y64450D03*
D35*
X185749Y64450D03*
D41*
X206746Y64450D03*
D50*
X235802Y64450D03*
D47*
X252133Y64450D03*
D78*
X279069Y64450D03*
D46*
X153511Y64874D03*
D101*
X186597Y64874D03*
D43*
X207594Y64874D03*
D51*
X235802Y64874D03*
D52*
X252133Y64874D03*
D51*
X279493Y64874D03*
D47*
X153299Y65298D03*
D22*
X187234Y65298D03*
D65*
X208230Y65298D03*
D47*
X236014Y65298D03*
D45*
X252345Y65298D03*
D105*
X279705Y65298D03*
D45*
X153087Y65723D03*
D24*
X187870Y65723D03*
D38*
X209291Y65723D03*
D47*
X236014Y65723D03*
D45*
X252345Y65723D03*
D50*
X279917Y65723D03*
D49*
X152875Y66147D03*
D24*
X188718Y66147D03*
D34*
X210351Y66147D03*
D47*
X236014Y66147D03*
D45*
X252769Y66147D03*
D50*
X280341Y66147D03*
D48*
X152875Y66571D03*
D43*
X189354Y66571D03*
D84*
X211200Y66571D03*
D52*
X236438Y66571D03*
D46*
X252769Y66571D03*
D52*
X280553Y66571D03*
D49*
X152875Y66995D03*
D34*
X190415Y66995D03*
D38*
X212260Y66995D03*
D47*
X236438Y66995D03*
D45*
X253194Y66995D03*
D47*
X280977Y66995D03*
D45*
X153087Y67419D03*
D44*
X191051Y67419D03*
D24*
X212896Y67419D03*
D47*
X236438Y67419D03*
D108*
X253406Y67419D03*
D47*
X280977Y67419D03*
D45*
X153087Y67843D03*
D108*
X191475Y67843D03*
D11*
X214169Y67843D03*
D47*
X236438Y67843D03*
D45*
X253618Y67843D03*
D49*
X281402Y67843D03*
D46*
X153511Y68268D03*
X192112Y68268D03*
D27*
X215229Y68268D03*
D46*
X236226Y68268D03*
D68*
X253830Y68268D03*
D81*
X281614Y68268D03*
D45*
X153511Y68692D03*
X192536Y68692D03*
D11*
X216290Y68692D03*
D45*
X236226Y68692D03*
X254042Y68692D03*
D49*
X281826Y68692D03*
D45*
X153935Y69116D03*
D49*
X193172Y69116D03*
D100*
X217775Y69116D03*
D45*
X236226Y69116D03*
X254466Y69116D03*
X282038Y69116D03*
D37*
X154360Y69540D03*
D47*
X193596Y69540D03*
D32*
X219259Y69540D03*
D44*
X236014Y69540D03*
D45*
X254466Y69540D03*
D47*
X282250Y69540D03*
D111*
X154996Y69964D03*
D99*
X194233Y69964D03*
D112*
X220744Y69964D03*
D84*
X235378Y69964D03*
D46*
X254890Y69964D03*
D52*
X282250Y69964D03*
D24*
X155632Y70388D03*
D50*
X194657Y70388D03*
D88*
X222653Y70388D03*
D24*
X234530Y70388D03*
D45*
X255314Y70388D03*
X282462Y70388D03*
D24*
X156056Y70813D03*
D49*
X194869Y70813D03*
D92*
X227955Y70813D03*
D45*
X255739Y70813D03*
X282462Y70813D03*
D24*
X156481Y71237D03*
D113*
X159662Y71237D03*
D49*
X195293Y71237D03*
D114*
X228379Y71237D03*
D44*
X255951Y71237D03*
X282674Y71237D03*
D36*
X157541Y71661D03*
D47*
X195717Y71661D03*
D115*
X229015Y71661D03*
D44*
X256375Y71661D03*
D45*
X282886Y71661D03*
D62*
X159026Y72085D03*
D52*
X195717Y72085D03*
D116*
X229652Y72085D03*
D80*
X256799Y72085D03*
D46*
X282886Y72085D03*
D117*
X160934Y72509D03*
D45*
X195929Y72509D03*
D109*
X230288Y72509D03*
D37*
X257011Y72509D03*
D45*
X282886Y72509D03*
D118*
X161571Y72934D03*
D45*
X195929Y72934D03*
D41*
X231348Y72934D03*
D34*
X257435Y72934D03*
D44*
X283098Y72934D03*
D66*
X163479Y73358D03*
D45*
X195929Y73358D03*
D34*
X257860Y73358D03*
D44*
X283098Y73358D03*
D119*
X164752Y73782D03*
D68*
X196141Y73782D03*
D111*
X258072Y73782D03*
D68*
X283098Y73782D03*
D87*
X166661Y74206D03*
D34*
X196353Y74206D03*
D38*
X258496Y74206D03*
D108*
X283522Y74206D03*
D120*
X168782Y74630D03*
D34*
X196353Y74630D03*
D38*
X258920Y74630D03*
D108*
X283522Y74630D03*
D121*
X170266Y75054D03*
D34*
X196353Y75054D03*
D65*
X259556Y75054D03*
D37*
X283735Y75054D03*
D122*
X171539Y75479D03*
D42*
X196353Y75479D03*
D39*
X259980Y75479D03*
D84*
X283735Y75479D03*
D14*
X173024Y75903D03*
D34*
X196353Y75903D03*
D24*
X260405Y75903D03*
D37*
X283735Y75903D03*
D115*
X174296Y76327D03*
D34*
X196353Y76327D03*
D22*
X261041Y76327D03*
D38*
X283522Y76327D03*
D73*
X176629Y76751D03*
D34*
X196353Y76751D03*
D22*
X261465Y76751D03*
D38*
X283522Y76751D03*
D123*
X178538Y77175D03*
D42*
X196353Y77175D03*
D27*
X262313Y77175D03*
D84*
X283310Y77175D03*
D104*
X179810Y77600D03*
D34*
X195929Y77600D03*
D21*
X262950Y77600D03*
D38*
X283098Y77600D03*
D114*
X181295Y78024D03*
D24*
X195505Y78024D03*
D22*
X263586Y78024D03*
D34*
X282886Y78024D03*
D114*
X182568Y78448D03*
D11*
X194657Y78448D03*
X264222Y78448D03*
D41*
X282674Y78448D03*
D124*
X186809Y78872D03*
D40*
X265071Y78872D03*
D125*
X282462Y78872D03*
D126*
X187446Y79296D03*
D36*
X266131Y79296D03*
D65*
X282462Y79296D03*
D127*
X188506Y79720D03*
D36*
X266979Y79720D03*
D22*
X282250Y79720D03*
D15*
X188930Y80145D03*
D100*
X267828Y80145D03*
D11*
X282038Y80145D03*
D13*
X188930Y80569D03*
D128*
X268676Y80569D03*
D19*
X281826Y80569D03*
D129*
X269312Y80993D03*
X281614Y80993D03*
D79*
X276099Y81417D03*
D130*
X276523Y81841D03*
D131*
X276523Y82266D03*
D132*
X276948Y82690D03*
D88*
X277372Y83114D03*
D64*
X277584Y83538D03*
D22*
X277584Y83962D03*
D38*
X233469Y85235D03*
D66*
X232621Y85659D03*
D133*
X232833Y86083D03*
D73*
X233045Y86507D03*
D134*
X233257Y86932D03*
D79*
X233257Y87356D03*
D101*
X226894Y87780D03*
D112*
X238984Y87780D03*
D41*
X225834Y88204D03*
D30*
X240892Y88204D03*
D37*
X225198Y88628D03*
D35*
X241741Y88628D03*
D47*
X224561Y89052D03*
D35*
X242589Y89052D03*
D99*
X224349Y89477D03*
D83*
X243650Y89477D03*
D96*
X224137Y89901D03*
D24*
X245134Y89901D03*
D78*
X223925Y90325D03*
D38*
X245770Y90325D03*
D78*
X223925Y90749D03*
D38*
X246619Y90749D03*
D52*
X224137Y91173D03*
D42*
X247255Y91173D03*
D47*
X224137Y91597D03*
D34*
X247679Y91597D03*
D47*
X224561Y92022D03*
D44*
X248315Y92022D03*
D47*
X224561Y92446D03*
D34*
X248952Y92446D03*
D47*
X224561Y92870D03*
D34*
X249376Y92870D03*
D105*
X297096Y92870D03*
D48*
X224986Y93294D03*
D84*
X249800Y93294D03*
D68*
X297945Y93294D03*
D50*
X225198Y93718D03*
D34*
X250224Y93718D03*
D37*
X299005Y93718D03*
D78*
X225622Y94143D03*
D34*
X250648Y94143D03*
D24*
X299429Y94143D03*
D47*
X225834Y94567D03*
D37*
X251497Y94567D03*
D11*
X299853Y94567D03*
D52*
X226258Y94991D03*
D80*
X251709Y94991D03*
D83*
X300065Y94991D03*
D50*
X226470Y95415D03*
D37*
X251921Y95415D03*
D33*
X300914Y95415D03*
D105*
X226682Y95839D03*
D44*
X252133Y95839D03*
D11*
X301550Y95839D03*
D105*
X227106Y96263D03*
D45*
X252345Y96263D03*
D135*
X299429Y96263D03*
D44*
X303459Y96263D03*
D85*
X227531Y96688D03*
D46*
X252769Y96688D03*
D136*
X299217Y96688D03*
D46*
X304095Y96688D03*
D105*
X227955Y97112D03*
D45*
X253194Y97112D03*
D35*
X277372Y97112D03*
D113*
X299217Y97112D03*
D45*
X304519Y97112D03*
D105*
X228379Y97536D03*
D49*
X253406Y97536D03*
D12*
X277372Y97536D03*
D45*
X304944Y97536D03*
D105*
X228803Y97960D03*
D47*
X253830Y97960D03*
D66*
X277584Y97960D03*
D47*
X305156Y97960D03*
D51*
X229015Y98384D03*
D52*
X254254Y98384D03*
D137*
X277796Y98384D03*
D99*
X305368Y98384D03*
D47*
X229652Y98809D03*
X254254Y98809D03*
D75*
X278220Y98809D03*
D78*
X305792Y98809D03*
D45*
X229864Y99233D03*
D47*
X254678Y99233D03*
D41*
X273766Y99233D03*
D34*
X282886Y99233D03*
D105*
X306004Y99233D03*
D45*
X230288Y99657D03*
D49*
X255102Y99657D03*
D108*
X272918Y99657D03*
D37*
X283735Y99657D03*
D50*
X306216Y99657D03*
D46*
X230712Y100081D03*
D51*
X255314Y100081D03*
D46*
X272282Y100081D03*
D68*
X284371Y100081D03*
D85*
X306428Y100081D03*
D44*
X230924Y100505D03*
D47*
X255527Y100505D03*
X272070Y100505D03*
D45*
X285007Y100505D03*
D50*
X306640Y100505D03*
D44*
X231348Y100929D03*
D78*
X255739Y100929D03*
D45*
X271857Y100929D03*
D47*
X285643Y100929D03*
D78*
X307064Y100929D03*
D37*
X231985Y101354D03*
D47*
X255951Y101354D03*
X271645Y101354D03*
X286492Y101354D03*
D78*
X307064Y101354D03*
D84*
X232409Y101778D03*
D52*
X255951Y101778D03*
D46*
X271433Y101778D03*
D48*
X286916Y101778D03*
D138*
X307277Y101778D03*
D34*
X232833Y102202D03*
D47*
X256375Y102202D03*
D49*
X271221Y102202D03*
D45*
X287552Y102202D03*
D78*
X307489Y102202D03*
D44*
X233045Y102626D03*
D50*
X256587Y102626D03*
X271009Y102626D03*
D45*
X287976Y102626D03*
D105*
X307701Y102626D03*
D45*
X233257Y103050D03*
D50*
X256587Y103050D03*
D49*
X270797Y103050D03*
X288613Y103050D03*
D105*
X307701Y103050D03*
D108*
X233893Y103475D03*
D50*
X257011Y103475D03*
D82*
X271009Y103475D03*
D47*
X289037Y103475D03*
D105*
X307701Y103475D03*
D42*
X234530Y103899D03*
D51*
X257011Y103899D03*
D81*
X271009Y103899D03*
D52*
X289461Y103899D03*
D85*
X307701Y103899D03*
D34*
X234954Y104323D03*
D78*
X257435Y104323D03*
D44*
X271221Y104323D03*
D47*
X289885Y104323D03*
D105*
X308125Y104323D03*
D37*
X235378Y104747D03*
D78*
X257435Y104747D03*
D44*
X271221Y104747D03*
D50*
X290521Y104747D03*
D105*
X308125Y104747D03*
D37*
X235802Y105171D03*
D78*
X257435Y105171D03*
D44*
X271221Y105171D03*
D50*
X290946Y105171D03*
D105*
X308125Y105171D03*
D111*
X236438Y105595D03*
D99*
X257860Y105595D03*
D68*
X271221Y105595D03*
D99*
X291370Y105595D03*
D85*
X308125Y105595D03*
D41*
X236863Y106020D03*
D78*
X257860Y106020D03*
D34*
X271433Y106020D03*
D50*
X291794Y106020D03*
D105*
X308125Y106020D03*
D38*
X237287Y106444D03*
D105*
X258072Y106444D03*
D34*
X271433Y106444D03*
D50*
X292218Y106444D03*
D105*
X308125Y106444D03*
D24*
X237923Y106868D03*
D50*
X258284Y106868D03*
D34*
X271433Y106868D03*
D50*
X292642Y106868D03*
D105*
X308125Y106868D03*
D125*
X238347Y107292D03*
D85*
X258496Y107292D03*
D111*
X271645Y107292D03*
D51*
X292642Y107292D03*
D85*
X308125Y107292D03*
D24*
X238771Y107716D03*
D105*
X258496Y107716D03*
D34*
X271857Y107716D03*
D78*
X293066Y107716D03*
D105*
X308125Y107716D03*
D24*
X239196Y108141D03*
D50*
X258708Y108141D03*
D41*
X272070Y108141D03*
D78*
X293491Y108141D03*
D105*
X308125Y108141D03*
D24*
X239620Y108565D03*
D50*
X258708Y108565D03*
D41*
X272070Y108565D03*
D50*
X293915Y108565D03*
D105*
X308125Y108565D03*
D111*
X240256Y108989D03*
D85*
X258920Y108989D03*
D43*
X272494Y108989D03*
D85*
X294127Y108989D03*
D139*
X308337Y108989D03*
D38*
X240680Y109413D03*
D50*
X259132Y109413D03*
D38*
X272494Y109413D03*
D50*
X294339Y109413D03*
D140*
X308337Y109413D03*
D38*
X241104Y109837D03*
D50*
X259132Y109837D03*
D38*
X272918Y109837D03*
D78*
X294763Y109837D03*
D140*
X308337Y109837D03*
D24*
X241741Y110261D03*
D50*
X259132Y110261D03*
D37*
X273130Y110261D03*
D78*
X295187Y110261D03*
D140*
X308337Y110261D03*
D39*
X242165Y110686D03*
D51*
X259132Y110686D03*
D43*
X273342Y110686D03*
D51*
X295612Y110686D03*
D141*
X308761Y110686D03*
D24*
X242589Y111110D03*
D50*
X259132Y111110D03*
D34*
X273554Y111110D03*
D50*
X295612Y111110D03*
D71*
X308973Y111110D03*
D38*
X243225Y111534D03*
D50*
X259132Y111534D03*
D34*
X273978Y111534D03*
D50*
X296036Y111534D03*
D41*
X243650Y111958D03*
D50*
X259132Y111958D03*
D38*
X274190Y111958D03*
D50*
X296036Y111958D03*
D43*
X244074Y112382D03*
D51*
X259132Y112382D03*
D43*
X274615Y112382D03*
D99*
X296460Y112382D03*
D37*
X244710Y112806D03*
D50*
X259132Y112806D03*
D24*
X274827Y112806D03*
D96*
X296672Y112806D03*
D34*
X245134Y113231D03*
D50*
X259132Y113231D03*
D38*
X275039Y113231D03*
D78*
X296884Y113231D03*
D37*
X245982Y113655D03*
D50*
X259132Y113655D03*
D24*
X275251Y113655D03*
D50*
X297308Y113655D03*
D37*
X246407Y114079D03*
D49*
X258920Y114079D03*
D38*
X275887Y114079D03*
D49*
X297520Y114079D03*
D68*
X247043Y114503D03*
D48*
X258920Y114503D03*
D43*
X275887Y114503D03*
D51*
X297732Y114503D03*
D44*
X247891Y114927D03*
D82*
X258708Y114927D03*
D38*
X276311Y114927D03*
D47*
X297945Y114927D03*
D44*
X248315Y115352D03*
X258496Y115352D03*
D38*
X276736Y115352D03*
D78*
X298157Y115352D03*
D44*
X249164Y115776D03*
D34*
X258284Y115776D03*
D41*
X277160Y115776D03*
D78*
X298157Y115776D03*
D68*
X250012Y116200D03*
D42*
X257860Y116200D03*
D111*
X277160Y116200D03*
D99*
X298581Y116200D03*
D34*
X251073Y116624D03*
D41*
X257647Y116624D03*
D38*
X277584Y116624D03*
D78*
X298581Y116624D03*
D88*
X254890Y117048D03*
D38*
X278008Y117048D03*
D47*
X298793Y117048D03*
D118*
X254890Y117472D03*
D38*
X278432Y117472D03*
D47*
X298793Y117472D03*
D112*
X255102Y117897D03*
D111*
X278856Y117897D03*
D48*
X299217Y117897D03*
D102*
X255102Y118321D03*
D65*
X279069Y118321D03*
D49*
X299217Y118321D03*
D35*
X255314Y118745D03*
D24*
X279493Y118745D03*
D49*
X299217Y118745D03*
D11*
X255314Y119169D03*
D24*
X279917Y119169D03*
D47*
X299641Y119169D03*
D39*
X255314Y119593D03*
X280341Y119593D03*
D52*
X299641Y119593D03*
D44*
X254678Y120018D03*
D65*
X280765Y120018D03*
D45*
X299853Y120018D03*
D24*
X281189Y120442D03*
D47*
X300065Y120442D03*
D24*
X281614Y120866D03*
D45*
X300278Y120866D03*
D39*
X282038Y121290D03*
D46*
X300278Y121290D03*
D68*
X314912Y121290D03*
D65*
X282462Y121714D03*
D47*
X300490Y121714D03*
D11*
X315124Y121714D03*
D38*
X283098Y122138D03*
D47*
X300490Y122138D03*
D100*
X315760Y122138D03*
D38*
X283522Y122563D03*
D45*
X300702Y122563D03*
D17*
X315972Y122563D03*
D43*
X283947Y122987D03*
D46*
X300702Y122987D03*
D98*
X315972Y122987D03*
D41*
X284371Y123411D03*
D45*
X300702Y123411D03*
D38*
X313215Y123411D03*
D37*
X318517Y123411D03*
D38*
X284795Y123835D03*
D49*
X300914Y123835D03*
D44*
X313215Y123835D03*
D45*
X319366Y123835D03*
D38*
X285219Y124259D03*
D49*
X300914Y124259D03*
D45*
X313003Y124259D03*
X320214Y124259D03*
D34*
X285855Y124684D03*
D49*
X300914Y124684D03*
D45*
X313003Y124684D03*
D47*
X320850Y124684D03*
D68*
X286492Y125108D03*
D81*
X301126Y125108D03*
D46*
X313003Y125108D03*
D52*
X321274Y125108D03*
D44*
X287340Y125532D03*
X300914Y125532D03*
D47*
X312791Y125532D03*
X321699Y125532D03*
D44*
X287764Y125956D03*
X300914Y125956D03*
D47*
X312791Y125956D03*
D49*
X322123Y125956D03*
D45*
X288401Y126380D03*
D44*
X300914Y126380D03*
D50*
X313003Y126380D03*
D49*
X322547Y126380D03*
D68*
X289037Y126804D03*
X300914Y126804D03*
D51*
X313003Y126804D03*
X322759Y126804D03*
D44*
X289461Y127229D03*
D34*
X300702Y127229D03*
D50*
X313003Y127229D03*
D78*
X323183Y127229D03*
D45*
X290097Y127653D03*
D34*
X300702Y127653D03*
D50*
X313003Y127653D03*
X323607Y127653D03*
D44*
X290733Y128077D03*
D41*
X300490Y128077D03*
D50*
X313003Y128077D03*
X324032Y128077D03*
D68*
X291582Y128501D03*
D125*
X300278Y128501D03*
D51*
X313003Y128501D03*
X324032Y128501D03*
D38*
X292430Y128925D03*
D24*
X299853Y128925D03*
D50*
X313003Y128925D03*
X324456Y128925D03*
D142*
X296672Y129350D03*
D50*
X313003Y129350D03*
D78*
X324880Y129350D03*
D143*
X296884Y129774D03*
D50*
X313003Y129774D03*
D78*
X324880Y129774D03*
D144*
X297096Y130198D03*
D85*
X313215Y130198D03*
D99*
X325304Y130198D03*
D60*
X297096Y130622D03*
D105*
X313215Y130622D03*
D78*
X325304Y130622D03*
D30*
X297308Y131046D03*
D105*
X313215Y131046D03*
D50*
X325728Y131046D03*
D24*
X297308Y131470D03*
D105*
X313215Y131470D03*
D50*
X325728Y131470D03*
D85*
X313215Y131895D03*
D51*
X326153Y131895D03*
D50*
X313427Y132319D03*
D47*
X326365Y132319D03*
D50*
X313427Y132743D03*
D47*
X326789Y132743D03*
D105*
X313639Y133167D03*
D47*
X326789Y133167D03*
D51*
X313851Y133591D03*
D99*
X327001Y133591D03*
D105*
X276311Y134015D03*
D50*
X313851Y134015D03*
D78*
X327001Y134015D03*
D35*
X276948Y134440D03*
D50*
X313851Y134440D03*
X327425Y134440D03*
D109*
X276948Y134864D03*
D47*
X314063Y134864D03*
D50*
X327425Y134864D03*
D117*
X277160Y135288D03*
D78*
X314275Y135288D03*
D50*
X327425Y135288D03*
D116*
X277584Y135712D03*
D52*
X314488Y135712D03*
D51*
X327849Y135712D03*
D87*
X277796Y136136D03*
D47*
X314488Y136136D03*
D50*
X327849Y136136D03*
D121*
X278008Y136561D03*
D47*
X314912Y136561D03*
D78*
X328273Y136561D03*
D120*
X278220Y136985D03*
D47*
X314912Y136985D03*
D78*
X328273Y136985D03*
D39*
X273978Y137409D03*
D43*
X283522Y137409D03*
D46*
X315124Y137409D03*
D52*
X328486Y137409D03*
D108*
X272918Y137833D03*
D34*
X284159Y137833D03*
D45*
X315548Y137833D03*
D78*
X328698Y137833D03*
D45*
X272706Y138257D03*
D37*
X285007Y138257D03*
D44*
X315760Y138257D03*
D78*
X328698Y138257D03*
D47*
X272494Y138681D03*
D37*
X285431Y138681D03*
D44*
X316184Y138681D03*
D47*
X328910Y138681D03*
D52*
X272494Y139106D03*
D42*
X285855Y139106D03*
D68*
X316184Y139106D03*
D52*
X328910Y139106D03*
D47*
X272494Y139530D03*
D38*
X286492Y139530D03*
D34*
X316396Y139530D03*
D50*
X329122Y139530D03*
D47*
X272494Y139954D03*
D37*
X286704Y139954D03*
D44*
X316608Y139954D03*
D50*
X329122Y139954D03*
D47*
X272494Y140378D03*
D37*
X287128Y140378D03*
X316821Y140378D03*
D50*
X329122Y140378D03*
D52*
X272494Y140802D03*
D42*
X287552Y140802D03*
D84*
X317245Y140802D03*
D48*
X329334Y140802D03*
D47*
X272494Y141227D03*
D44*
X287764Y141227D03*
D38*
X317457Y141227D03*
D49*
X329334Y141227D03*
D47*
X272494Y141651D03*
D44*
X288188Y141651D03*
D41*
X317881Y141651D03*
D49*
X329334Y141651D03*
X272918Y142075D03*
D45*
X288825Y142075D03*
D38*
X318305Y142075D03*
D49*
X329334Y142075D03*
D48*
X272918Y142499D03*
D68*
X289037Y142499D03*
D39*
X318517Y142499D03*
D46*
X329122Y142499D03*
D45*
X273130Y142923D03*
D44*
X289461Y142923D03*
D24*
X318941Y142923D03*
D45*
X329122Y142923D03*
X273130Y143347D03*
D44*
X289885Y143347D03*
D24*
X319366Y143347D03*
D45*
X329122Y143347D03*
D47*
X273342Y143772D03*
D44*
X290309Y143772D03*
D31*
X319578Y143772D03*
D45*
X328698Y143772D03*
D46*
X273554Y144196D03*
D68*
X290733Y144196D03*
D27*
X320002Y144196D03*
D68*
X328486Y144196D03*
D45*
X273554Y144620D03*
X290946Y144620D03*
D11*
X320638Y144620D03*
D34*
X328273Y144620D03*
D47*
X273766Y145044D03*
D45*
X291370Y145044D03*
D11*
X321062Y145044D03*
D38*
X328061Y145044D03*
D45*
X273978Y145468D03*
X291794Y145468D03*
D145*
X324244Y145468D03*
D47*
X274190Y145893D03*
D44*
X292006Y145893D03*
D143*
X324456Y145893D03*
D46*
X274403Y146317D03*
D81*
X292218Y146317D03*
D29*
X324668Y146317D03*
D49*
X274615Y146741D03*
D45*
X292642Y146741D03*
D12*
X324880Y146741D03*
D45*
X274827Y147165D03*
X293066Y147165D03*
D60*
X325092Y147165D03*
D47*
X275039Y147589D03*
D45*
X293066Y147589D03*
D32*
X325304Y147589D03*
D46*
X275251Y148013D03*
X293491Y148013D03*
D146*
X325728Y148013D03*
D47*
X275463Y148438D03*
D45*
X293915Y148438D03*
D74*
X325304Y148438D03*
D45*
X275675Y148862D03*
X293915Y148862D03*
X276099Y149286D03*
X294339Y149286D03*
D46*
X276099Y149710D03*
X294763Y149710D03*
D45*
X276523Y150134D03*
D44*
X294975Y150134D03*
X276736Y150559D03*
D45*
X295187Y150559D03*
D44*
X277160Y150983D03*
X295399Y150983D03*
D46*
X277372Y151407D03*
D80*
X295824Y151407D03*
D44*
X277584Y151831D03*
D108*
X295824Y151831D03*
D45*
X277796Y152255D03*
D44*
X296248Y152255D03*
D108*
X278008Y152679D03*
D44*
X296248Y152679D03*
D46*
X278220Y153104D03*
D68*
X296672Y153104D03*
D44*
X278432Y153528D03*
X296672Y153528D03*
X278856Y153952D03*
D45*
X296884Y153952D03*
D34*
X279069Y154376D03*
D45*
X296884Y154376D03*
D42*
X279493Y154800D03*
D46*
X297308Y154800D03*
D37*
X279917Y155224D03*
D108*
X297520Y155224D03*
D37*
X279917Y155649D03*
D45*
X297732Y155649D03*
D44*
X323820Y155649D03*
X280129Y156073D03*
X297945Y156073D03*
D32*
X323607Y156073D03*
D41*
X280553Y156497D03*
D45*
X298157Y156497D03*
D60*
X323820Y156497D03*
D42*
X280765Y156921D03*
D68*
X298369Y156921D03*
D147*
X324032Y156921D03*
D148*
X330182Y156921D03*
D41*
X280977Y157345D03*
D45*
X298581Y157345D03*
D75*
X324456Y157345D03*
D38*
X281402Y157770D03*
D45*
X298581Y157770D03*
D121*
X324244Y157770D03*
D96*
X542272Y157770D03*
D37*
X281614Y158194D03*
D44*
X298793Y158194D03*
X319578Y158194D03*
D100*
X328486Y158194D03*
D35*
X542484Y158194D03*
D43*
X281826Y158618D03*
D46*
X299005Y158618D03*
X318941Y158618D03*
D27*
X329334Y158618D03*
D98*
X542484Y158618D03*
D34*
X282038Y159042D03*
D45*
X299005Y159042D03*
D49*
X318729Y159042D03*
D38*
X329758Y159042D03*
D142*
X542272Y159042D03*
D34*
X282462Y159466D03*
D108*
X299217Y159466D03*
D47*
X318305Y159466D03*
D44*
X330182Y159466D03*
D75*
X542060Y159466D03*
D41*
X282674Y159890D03*
D45*
X299429Y159890D03*
D78*
X318093Y159890D03*
D37*
X331243Y159890D03*
D15*
X542272Y159890D03*
D42*
X282886Y160315D03*
D46*
X299429Y160315D03*
D99*
X317669Y160315D03*
D68*
X331455Y160315D03*
D83*
X537182Y160315D03*
D40*
X547574Y160315D03*
D37*
X283310Y160739D03*
D45*
X299429Y160739D03*
D78*
X317669Y160739D03*
D45*
X331667Y160739D03*
D24*
X536122Y160739D03*
D38*
X548635Y160739D03*
X283522Y161163D03*
D44*
X299641Y161163D03*
D105*
X317457Y161163D03*
D45*
X332091Y161163D03*
D41*
X535485Y161163D03*
D34*
X549271Y161163D03*
D38*
X283947Y161587D03*
D45*
X299853Y161587D03*
D105*
X317457Y161587D03*
D44*
X332727Y161587D03*
D41*
X535061Y161587D03*
D44*
X549907Y161587D03*
D43*
X283947Y162011D03*
D46*
X299853Y162011D03*
D51*
X317245Y162011D03*
D81*
X332939Y162011D03*
D43*
X534637Y162011D03*
D68*
X550756Y162011D03*
D41*
X284371Y162436D03*
D45*
X299853Y162436D03*
D50*
X317245Y162436D03*
D49*
X333151Y162436D03*
D44*
X533789Y162436D03*
X551180Y162436D03*
D38*
X284795Y162860D03*
D45*
X299853Y162860D03*
D50*
X317245Y162860D03*
D45*
X333788Y162860D03*
X533577Y162860D03*
D44*
X551604Y162860D03*
D38*
X285219Y163284D03*
D45*
X299853Y163284D03*
D50*
X317245Y163284D03*
D45*
X334212Y163284D03*
D44*
X533364Y163284D03*
D45*
X552240Y163284D03*
D43*
X285643Y163708D03*
D52*
X300065Y163708D03*
D51*
X317245Y163708D03*
D48*
X334424Y163708D03*
D68*
X532940Y163708D03*
D46*
X552665Y163708D03*
D41*
X286068Y164132D03*
D47*
X300065Y164132D03*
D50*
X317245Y164132D03*
X334636Y164132D03*
D49*
X532516Y164132D03*
D45*
X553089Y164132D03*
D38*
X286492Y164556D03*
D47*
X300065Y164556D03*
D50*
X317245Y164556D03*
D47*
X335272Y164556D03*
X532092Y164556D03*
D45*
X553513Y164556D03*
D38*
X286916Y164981D03*
D47*
X300065Y164981D03*
D50*
X317245Y164981D03*
D47*
X335697Y164981D03*
D45*
X531880Y164981D03*
X553937Y164981D03*
D43*
X287340Y165405D03*
D52*
X300065Y165405D03*
D51*
X317245Y165405D03*
D99*
X335909Y165405D03*
D42*
X531880Y165405D03*
D52*
X554149Y165405D03*
D24*
X287976Y165829D03*
D47*
X300065Y165829D03*
D50*
X317245Y165829D03*
D105*
X336121Y165829D03*
D45*
X553937Y165829D03*
D24*
X288400Y166253D03*
D47*
X300065Y166253D03*
D78*
X317669Y166253D03*
D50*
X336757Y166253D03*
D44*
X554149Y166253D03*
D22*
X289037Y166677D03*
D47*
X300065Y166677D03*
D78*
X317669Y166677D03*
D105*
X336969Y166677D03*
D36*
X289885Y167102D03*
D47*
X300065Y167102D03*
D78*
X318093Y167102D03*
D105*
X336969Y167102D03*
D109*
X514913Y167102D03*
D19*
X290309Y167526D03*
D99*
X299853Y167526D03*
D52*
X318305Y167526D03*
D139*
X337181Y167526D03*
D137*
X515337Y167526D03*
D33*
X290733Y167950D03*
D78*
X299853Y167950D03*
D49*
X318729Y167950D03*
D105*
X337817Y167950D03*
D15*
X515973Y167950D03*
D36*
X291582Y168374D03*
D45*
X299429Y168374D03*
D50*
X318941Y168374D03*
D105*
X337817Y168374D03*
D92*
X517246Y168374D03*
D149*
X294975Y168798D03*
D47*
X319154Y168798D03*
D105*
X338242Y168798D03*
D150*
X517882Y168798D03*
D137*
X295187Y169222D03*
D52*
X319578Y169222D03*
D99*
X338878Y169222D03*
D151*
X511519Y169222D03*
D137*
X525093Y169222D03*
D143*
X295187Y169647D03*
D47*
X320002Y169647D03*
X339090Y169647D03*
D100*
X509186Y169647D03*
D117*
X526153Y169647D03*
D66*
X295399Y170071D03*
D49*
X320426Y170071D03*
D108*
X339938Y170071D03*
D11*
X507702Y170071D03*
D32*
X526790Y170071D03*
D152*
X295399Y170495D03*
D47*
X320850Y170495D03*
D44*
X340363Y170495D03*
D24*
X506853Y170495D03*
D33*
X527426Y170495D03*
D153*
X295612Y170919D03*
D46*
X321062Y170919D03*
D68*
X340363Y170919D03*
D27*
X505793Y170919D03*
D39*
X528062Y170919D03*
D30*
X295612Y171343D03*
D44*
X321699Y171343D03*
X340363Y171343D03*
D22*
X505369Y171343D03*
D34*
X528486Y171343D03*
X567087Y171343D03*
D11*
X295612Y171768D03*
D44*
X322123Y171768D03*
D45*
X340575Y171768D03*
D49*
X491795Y171768D03*
D22*
X504944Y171768D03*
D45*
X528911Y171768D03*
D102*
X566450Y171768D03*
D108*
X295824Y172192D03*
D34*
X322759Y172192D03*
D45*
X340575Y172192D03*
D33*
X491795Y172192D03*
D24*
X504732Y172192D03*
D49*
X529123Y172192D03*
D143*
X565814Y172192D03*
D42*
X323183Y172616D03*
D52*
X340787Y172616D03*
D18*
X491371Y172616D03*
D39*
X504732Y172616D03*
D48*
X529123Y172616D03*
D13*
X566026Y172616D03*
D44*
X323820Y173040D03*
D47*
X340787Y173040D03*
D117*
X491371Y173040D03*
D24*
X504732Y173040D03*
D50*
X529335Y173040D03*
D121*
X566450Y173040D03*
D45*
X324456Y173464D03*
D108*
X341635Y173464D03*
D152*
X490522Y173464D03*
D38*
X504520Y173464D03*
D50*
X529335Y173464D03*
D115*
X566663Y173464D03*
D44*
X324668Y173888D03*
D108*
X341635Y173888D03*
D143*
X489886Y173888D03*
D38*
X504520Y173888D03*
D50*
X529335Y173888D03*
D100*
X563057Y173888D03*
X570692Y173888D03*
D68*
X325092Y174313D03*
D46*
X341847Y174313D03*
D128*
X487553Y174313D03*
D154*
X493067Y174313D03*
D42*
X504732Y174313D03*
D51*
X529335Y174313D03*
D43*
X561360Y174313D03*
X572813Y174313D03*
D44*
X325516Y174737D03*
D45*
X341847Y174737D03*
D11*
X486493Y174737D03*
D34*
X504732Y174737D03*
D50*
X529335Y174737D03*
D44*
X560512Y174737D03*
D37*
X573449Y174737D03*
D108*
X325940Y175161D03*
D47*
X342059Y175161D03*
D24*
X486068Y175161D03*
D34*
X504732Y175161D03*
D50*
X529335Y175161D03*
D47*
X560088Y175161D03*
D44*
X574086Y175161D03*
D45*
X326577Y175585D03*
D47*
X342059Y175585D03*
D38*
X485432Y175585D03*
D34*
X504732Y175585D03*
D50*
X529335Y175585D03*
D47*
X559664Y175585D03*
D44*
X574510Y175585D03*
D68*
X327213Y176009D03*
D46*
X342271Y176009D03*
D43*
X485008Y176009D03*
D42*
X504732Y176009D03*
D48*
X529123Y176009D03*
X559239Y176009D03*
D80*
X574934Y176009D03*
D45*
X327849Y176433D03*
D47*
X342483Y176433D03*
D34*
X484372Y176433D03*
X504732Y176433D03*
D45*
X528911Y176433D03*
D50*
X559027Y176433D03*
D44*
X575358Y176433D03*
D45*
X328273Y176858D03*
D47*
X342483Y176858D03*
D44*
X483735Y176858D03*
D41*
X504944Y176858D03*
D34*
X528486Y176858D03*
D78*
X558603Y176858D03*
D44*
X575782Y176858D03*
D45*
X328698Y177282D03*
X342696Y177282D03*
X483523Y177282D03*
D34*
X505156Y177282D03*
X528062Y177282D03*
D78*
X558603Y177282D03*
D44*
X576207Y177282D03*
D49*
X329334Y177706D03*
D45*
X342696Y177706D03*
D82*
X483099Y177706D03*
D41*
X505369Y177706D03*
D24*
X527638Y177706D03*
D78*
X558603Y177706D03*
D37*
X576843Y177706D03*
D46*
X329970Y178130D03*
D52*
X342908Y178130D03*
D27*
X353512Y178130D03*
D48*
X482887Y178130D03*
D39*
X505581Y178130D03*
D27*
X527002Y178130D03*
D52*
X558391Y178130D03*
D42*
X577267Y178130D03*
D45*
X330394Y178554D03*
D47*
X342908Y178554D03*
D100*
X354360Y178554D03*
D45*
X482675Y178554D03*
D38*
X505793Y178554D03*
D11*
X525941Y178554D03*
D78*
X558603Y178554D03*
D65*
X577691Y178554D03*
D45*
X331243Y178979D03*
X343120Y178979D03*
D100*
X354785Y178979D03*
D44*
X482463Y178979D03*
D24*
X506429Y178979D03*
D36*
X524881Y178979D03*
D78*
X558603Y178979D03*
D41*
X577903Y178979D03*
D45*
X331667Y179403D03*
D44*
X343332Y179403D03*
D64*
X355209Y179403D03*
D44*
X482463Y179403D03*
D22*
X506641Y179403D03*
D102*
X524032Y179403D03*
D47*
X558815Y179403D03*
D24*
X578540Y179403D03*
D68*
X332303Y179827D03*
X343332Y179827D03*
D153*
X355421Y179827D03*
D68*
X482039Y179827D03*
D40*
X507277Y179827D03*
D155*
X522972Y179827D03*
D48*
X559239Y179827D03*
D39*
X578964Y179827D03*
D44*
X333151Y180251D03*
X343332Y180251D03*
D32*
X356693Y180251D03*
D45*
X481827Y180251D03*
D35*
X508126Y180251D03*
D60*
X521487Y180251D03*
D45*
X559452Y180251D03*
D21*
X579388Y180251D03*
D44*
X334000Y180675D03*
X343332Y180675D03*
D32*
X357118Y180675D03*
D140*
X480554Y180675D03*
D25*
X515125Y180675D03*
D45*
X559876Y180675D03*
D22*
X579600Y180675D03*
D38*
X334848Y181099D03*
D34*
X343120Y181099D03*
D109*
X357542Y181099D03*
D130*
X514913Y181099D03*
D44*
X560088Y181099D03*
D22*
X580024Y181099D03*
D116*
X339090Y181524D03*
D156*
X354148Y181524D03*
D83*
X359026Y181524D03*
D157*
X514913Y181524D03*
D68*
X560512Y181524D03*
D27*
X580024Y181524D03*
D143*
X339302Y181948D03*
D24*
X359663Y181948D03*
D149*
X514701Y181948D03*
D108*
X560936Y181948D03*
D24*
X580236Y181948D03*
D12*
X339302Y182372D03*
D34*
X360511Y182372D03*
D152*
X514701Y182372D03*
D44*
X561360Y182372D03*
D24*
X580236Y182372D03*
D102*
X339514Y182796D03*
D44*
X360723Y182796D03*
D11*
X514913Y182796D03*
D44*
X561785Y182796D03*
D24*
X580236Y182796D03*
D83*
X339514Y183220D03*
D46*
X361359Y183220D03*
D68*
X562209Y183220D03*
D43*
X580448Y183220D03*
D44*
X339514Y183645D03*
D47*
X361572Y183645D03*
D37*
X562845Y183645D03*
D38*
X580448Y183645D03*
D47*
X361996Y184069D03*
D41*
X563481Y184069D03*
D38*
X580448Y184069D03*
D78*
X362208Y184493D03*
D24*
X564117Y184493D03*
X580661Y184493D03*
D51*
X362632Y184917D03*
D43*
X564754Y184917D03*
D39*
X580661Y184917D03*
D50*
X362632Y185341D03*
D65*
X565390Y185341D03*
D24*
X580661Y185341D03*
D50*
X363056Y185765D03*
D24*
X565814Y185765D03*
D38*
X580873Y185765D03*
D50*
X363056Y186190D03*
D24*
X566663Y186190D03*
D37*
X580661Y186190D03*
D99*
X363480Y186614D03*
D27*
X567299Y186614D03*
D84*
X580661Y186614D03*
D78*
X363480Y187038D03*
D22*
X568147Y187038D03*
D37*
X580661Y187038D03*
D71*
X592325Y187038D03*
D78*
X363480Y187462D03*
D102*
X539727Y187462D03*
D33*
X569420Y187462D03*
D37*
X580661Y187462D03*
D30*
X596355Y187462D03*
D78*
X363480Y187886D03*
D158*
X540576Y187886D03*
D35*
X570480Y187886D03*
D37*
X580661Y187886D03*
D60*
X597416Y187886D03*
D78*
X363480Y188311D03*
D115*
X540788Y188311D03*
D159*
X575146Y188311D03*
D118*
X597628Y188311D03*
D99*
X363480Y188735D03*
D90*
X541212Y188735D03*
D122*
X575782Y188735D03*
D76*
X598476Y188735D03*
D96*
X363692Y189159D03*
D109*
X467829Y189159D03*
D160*
X541424Y189159D03*
D86*
X575995Y189159D03*
D88*
X599324Y189159D03*
D66*
X467192Y189583D03*
D161*
X541636Y189583D03*
D66*
X576631Y189583D03*
X599537Y189583D03*
D54*
X466344Y190007D03*
D162*
X541848Y190007D03*
D118*
X576843Y190007D03*
D21*
X602294Y190007D03*
D163*
X465920Y190431D03*
D164*
X504096Y190431D03*
D46*
X533577Y190431D03*
D83*
X549483Y190431D03*
D62*
X577267Y190431D03*
D43*
X602930Y190431D03*
D25*
X465496Y190856D03*
D142*
X503672Y190856D03*
D47*
X532940Y190856D03*
D11*
X550544Y190856D03*
D22*
X577479Y190856D03*
D38*
X603354Y190856D03*
D150*
X464859Y191280D03*
D73*
X503672Y191280D03*
D50*
X532728Y191280D03*
D22*
X551604Y191280D03*
D45*
X578115Y191280D03*
D38*
X603778Y191280D03*
D41*
X324668Y191704D03*
D12*
X457648Y191704D03*
D22*
X473131Y191704D03*
D16*
X503248Y191704D03*
D49*
X532516Y191704D03*
D24*
X552240Y191704D03*
D34*
X604415Y191704D03*
D62*
X324880Y192128D03*
D128*
X456164Y192128D03*
D84*
X474191Y192128D03*
D165*
X502823Y192128D03*
D48*
X532516Y192128D03*
D39*
X553089Y192128D03*
D80*
X605051Y192128D03*
D152*
X325516Y192552D03*
D100*
X455315Y192552D03*
D37*
X474616Y192552D03*
D117*
X497733Y192552D03*
D100*
X508762Y192552D03*
D49*
X532516Y192552D03*
D24*
X553937Y192552D03*
D44*
X605475Y192552D03*
D166*
X325728Y192977D03*
D65*
X367298Y192977D03*
D36*
X454467Y192977D03*
D44*
X474828Y192977D03*
D109*
X495825Y192977D03*
D22*
X509610Y192977D03*
D47*
X532940Y192977D03*
D38*
X554149Y192977D03*
D45*
X605687Y192977D03*
D149*
X325940Y193401D03*
D129*
X368146Y193401D03*
D24*
X452982Y193401D03*
D47*
X475252Y193401D03*
D32*
X494552Y193401D03*
D38*
X510035Y193401D03*
D45*
X533152Y193401D03*
D34*
X554786Y193401D03*
D45*
X606111Y193401D03*
D97*
X326365Y193825D03*
D144*
X369207Y193825D03*
D111*
X452346Y193825D03*
D99*
X475464Y193825D03*
D128*
X493067Y193825D03*
D42*
X510247Y193825D03*
D46*
X533152Y193825D03*
D42*
X555210Y193825D03*
D46*
X606111Y193825D03*
D41*
X321274Y194249D03*
D35*
X330819Y194249D03*
D73*
X371328Y194249D03*
D44*
X451498Y194249D03*
D78*
X475464Y194249D03*
D129*
X492007Y194249D03*
D44*
X510459Y194249D03*
X533789Y194249D03*
X555422Y194249D03*
D45*
X606536Y194249D03*
D37*
X320638Y194673D03*
D36*
X332303Y194673D03*
D131*
X371964Y194673D03*
D45*
X450861Y194673D03*
D78*
X475464Y194673D03*
D22*
X490522Y194673D03*
D45*
X510671Y194673D03*
D34*
X534001Y194673D03*
D44*
X555422Y194673D03*
D45*
X606536Y194673D03*
X320214Y195097D03*
D36*
X333576Y195097D03*
D104*
X371964Y195097D03*
D47*
X450649Y195097D03*
D78*
X475464Y195097D03*
D24*
X489462Y195097D03*
D45*
X510671Y195097D03*
D38*
X534637Y195097D03*
D44*
X555422Y195097D03*
D49*
X606748Y195097D03*
D167*
X235166Y195522D03*
D46*
X319790Y195522D03*
D27*
X334424Y195522D03*
D168*
X371964Y195522D03*
D52*
X450225Y195522D03*
D99*
X475464Y195522D03*
D43*
X488826Y195522D03*
D46*
X510671Y195522D03*
D125*
X535273Y195522D03*
D68*
X555422Y195522D03*
D48*
X606748Y195522D03*
D37*
X235802Y195946D03*
D47*
X319578Y195946D03*
D24*
X335060Y195946D03*
D129*
X366450Y195946D03*
D109*
X377054Y195946D03*
D50*
X449589Y195946D03*
D47*
X475252Y195946D03*
D37*
X488189Y195946D03*
D45*
X510671Y195946D03*
D24*
X535697Y195946D03*
D44*
X555422Y195946D03*
D45*
X606960Y195946D03*
D38*
X236014Y196370D03*
D47*
X319578Y196370D03*
D22*
X335697Y196370D03*
X364965Y196370D03*
D11*
X378751Y196370D03*
D60*
X440469Y196370D03*
D49*
X449377Y196370D03*
D47*
X475252Y196370D03*
D34*
X487765Y196370D03*
D45*
X510671Y196370D03*
D22*
X536334Y196370D03*
D44*
X555422Y196370D03*
D47*
X607172Y196370D03*
D11*
X237075Y196794D03*
D47*
X319578Y196794D03*
D24*
X336333Y196794D03*
X364329Y196794D03*
X379599Y196794D03*
D117*
X440045Y196794D03*
D47*
X448953Y196794D03*
X474828Y196794D03*
D45*
X487341Y196794D03*
X510671Y196794D03*
D36*
X537182Y196794D03*
D44*
X554998Y196794D03*
D47*
X607172Y196794D03*
D101*
X237499Y197218D03*
D52*
X319578Y197218D03*
D43*
X336969Y197218D03*
D39*
X363480Y197218D03*
D43*
X380235Y197218D03*
D29*
X439621Y197218D03*
D46*
X448741Y197218D03*
X474616Y197218D03*
X486917Y197218D03*
X510671Y197218D03*
D112*
X539303Y197218D03*
D42*
X554786Y197218D03*
D51*
X606960Y197218D03*
D21*
X238347Y197642D03*
D47*
X319578Y197642D03*
D41*
X337393Y197642D03*
D38*
X362844Y197642D03*
D37*
X380872Y197642D03*
D143*
X439409Y197642D03*
D44*
X448528Y197642D03*
D45*
X474191Y197642D03*
X486493Y197642D03*
X510671Y197642D03*
D60*
X540151Y197642D03*
D38*
X554149Y197642D03*
D50*
X606960Y197642D03*
D11*
X239196Y198067D03*
D45*
X319790Y198067D03*
D37*
X338030Y198067D03*
X362632Y198067D03*
D34*
X381296Y198067D03*
D88*
X438136Y198067D03*
D44*
X448528Y198067D03*
X473555Y198067D03*
D45*
X486068Y198067D03*
D44*
X510459Y198067D03*
D142*
X542272Y198067D03*
D22*
X553301Y198067D03*
D50*
X606960Y198067D03*
D21*
X240044Y198491D03*
D47*
X320002Y198491D03*
D37*
X338454Y198491D03*
D44*
X361996Y198491D03*
D34*
X381720Y198491D03*
D60*
X437076Y198491D03*
D44*
X448528Y198491D03*
X473131Y198491D03*
D47*
X485856Y198491D03*
D34*
X510247Y198491D03*
D72*
X546938Y198491D03*
D49*
X606748Y198491D03*
D22*
X240680Y198915D03*
D45*
X320214Y198915D03*
D34*
X339302Y198915D03*
D44*
X361572Y198915D03*
D37*
X382144Y198915D03*
D60*
X436651Y198915D03*
D44*
X448528Y198915D03*
D37*
X472495Y198915D03*
D78*
X485644Y198915D03*
D34*
X510247Y198915D03*
D16*
X547362Y198915D03*
D44*
X606323Y198915D03*
D27*
X241529Y199339D03*
D46*
X320638Y199339D03*
D84*
X339726Y199339D03*
D80*
X361147Y199339D03*
D84*
X382568Y199339D03*
D153*
X436015Y199339D03*
D68*
X448528Y199339D03*
D111*
X471858Y199339D03*
D52*
X485432Y199339D03*
D39*
X509822Y199339D03*
D97*
X548211Y199339D03*
D68*
X606323Y199339D03*
D22*
X242377Y199763D03*
D45*
X320638Y199763D03*
D37*
X340150Y199763D03*
D45*
X360935Y199763D03*
D34*
X382993Y199763D03*
D35*
X434743Y199763D03*
D44*
X448528Y199763D03*
D24*
X471222Y199763D03*
D47*
X485432Y199763D03*
D24*
X509398Y199763D03*
D66*
X548635Y199763D03*
D49*
X573237Y199763D03*
D44*
X606323Y199763D03*
D22*
X243225Y200188D03*
D47*
X320850Y200188D03*
D34*
X340575Y200188D03*
D45*
X360511Y200188D03*
D44*
X383205Y200188D03*
D22*
X434106Y200188D03*
D44*
X448528Y200188D03*
D22*
X470162Y200188D03*
D50*
X485220Y200188D03*
D24*
X508974Y200188D03*
D32*
X549271Y200188D03*
D38*
X573662Y200188D03*
D45*
X606536Y200188D03*
D22*
X244074Y200612D03*
D45*
X321062Y200612D03*
D37*
X341423Y200612D03*
D47*
X360299Y200612D03*
D34*
X383417Y200612D03*
D11*
X433894Y200612D03*
D34*
X448741Y200612D03*
D32*
X468253Y200612D03*
D49*
X485008Y200612D03*
D22*
X508338Y200612D03*
D24*
X549695Y200612D03*
D31*
X574086Y200612D03*
D49*
X606748Y200612D03*
D27*
X244922Y201036D03*
D46*
X321487Y201036D03*
D84*
X341847Y201036D03*
D52*
X359875Y201036D03*
D84*
X383841Y201036D03*
D101*
X396991Y201036D03*
D167*
X415867Y201036D03*
D19*
X433682Y201036D03*
D39*
X449165Y201036D03*
D112*
X467192Y201036D03*
D48*
X485008Y201036D03*
D27*
X507914Y201036D03*
D128*
X574510Y201036D03*
D48*
X606748Y201036D03*
D21*
X245558Y201460D03*
D45*
X321487Y201460D03*
D44*
X342059Y201460D03*
D49*
X359451Y201460D03*
D37*
X384265Y201460D03*
D64*
X397203Y201460D03*
D109*
X416503Y201460D03*
D74*
X430925Y201460D03*
D35*
X450013Y201460D03*
D143*
X464859Y201460D03*
D49*
X485008Y201460D03*
D21*
X507277Y201460D03*
D109*
X574722Y201460D03*
D105*
X606748Y201460D03*
D33*
X246195Y201884D03*
D45*
X321911Y201884D03*
D44*
X342483Y201884D03*
D45*
X359239Y201884D03*
D34*
X384689Y201884D03*
D118*
X396991Y201884D03*
D143*
X416927Y201884D03*
D169*
X458497Y201884D03*
D49*
X485008Y201884D03*
D36*
X506641Y201884D03*
D152*
X574934Y201884D03*
D170*
X607172Y201884D03*
D35*
X246831Y202308D03*
D82*
X322335Y202308D03*
D44*
X342908Y202308D03*
D47*
X359026Y202308D03*
D34*
X384689Y202308D03*
D88*
X396991Y202308D03*
D171*
X416927Y202308D03*
D172*
X458072Y202308D03*
D49*
X485008Y202308D03*
D129*
X506005Y202308D03*
D44*
X571965Y202308D03*
D41*
X577903Y202308D03*
D63*
X247679Y202733D03*
D46*
X322759Y202733D03*
D68*
X343332Y202733D03*
D46*
X358814Y202733D03*
D68*
X384901Y202733D03*
D116*
X397203Y202733D03*
D97*
X416715Y202733D03*
D173*
X457860Y202733D03*
D48*
X485008Y202733D03*
D128*
X505369Y202733D03*
D46*
X571329Y202733D03*
D43*
X578752Y202733D03*
D129*
X248103Y203157D03*
D44*
X322971Y203157D03*
X343756Y203157D03*
D45*
X358814Y203157D03*
D41*
X385326Y203157D03*
D75*
X396991Y203157D03*
D16*
X417139Y203157D03*
D55*
X457436Y203157D03*
D49*
X485008Y203157D03*
D100*
X504520Y203157D03*
D47*
X571116Y203157D03*
D34*
X579388Y203157D03*
D36*
X248740Y203581D03*
D34*
X323607Y203581D03*
D44*
X344180Y203581D03*
D45*
X358814Y203581D03*
D24*
X385962Y203581D03*
D121*
X396778Y203581D03*
D38*
X410776Y203581D03*
D35*
X422441Y203581D03*
D71*
X427744Y203581D03*
D171*
X457648Y203581D03*
D49*
X485008Y203581D03*
D64*
X503672Y203581D03*
D47*
X570692Y203581D03*
D37*
X580236Y203581D03*
D36*
X249164Y204005D03*
D37*
X324032Y204005D03*
D44*
X344604Y204005D03*
D45*
X358814Y204005D03*
D166*
X389355Y204005D03*
D37*
X401657Y204005D03*
D34*
X410140Y204005D03*
D100*
X424350Y204005D03*
D74*
X459345Y204005D03*
D49*
X485008Y204005D03*
D60*
X502823Y204005D03*
D47*
X570692Y204005D03*
D34*
X581085Y204005D03*
D101*
X249800Y204429D03*
D42*
X324456Y204429D03*
D68*
X345029Y204429D03*
X359026Y204429D03*
D29*
X389143Y204429D03*
D46*
X402505Y204429D03*
X409716Y204429D03*
D63*
X424562Y204429D03*
D46*
X485220Y204429D03*
D144*
X501551Y204429D03*
D46*
X570480Y204429D03*
D68*
X581721Y204429D03*
D36*
X250436Y204854D03*
D34*
X324880Y204854D03*
D44*
X345453Y204854D03*
X359026Y204854D03*
D152*
X389143Y204854D03*
D47*
X402717Y204854D03*
D45*
X409292Y204854D03*
D35*
X425411Y204854D03*
D44*
X485432Y204854D03*
D87*
X499642Y204854D03*
D45*
X570480Y204854D03*
D37*
X582357Y204854D03*
D11*
X251073Y205278D03*
D41*
X325092Y205278D03*
D44*
X345877Y205278D03*
D37*
X359663Y205278D03*
D152*
X389143Y205278D03*
D47*
X403141Y205278D03*
D82*
X408868Y205278D03*
D36*
X426047Y205278D03*
D41*
X485856Y205278D03*
D14*
X497945Y205278D03*
D45*
X570480Y205278D03*
D44*
X582994Y205278D03*
D11*
X251497Y205702D03*
D38*
X325516Y205702D03*
D44*
X346301Y205702D03*
D38*
X359875Y205702D03*
D60*
X388719Y205702D03*
D45*
X403777Y205702D03*
X408443Y205702D03*
D22*
X426471Y205702D03*
D172*
X493704Y205702D03*
D45*
X570480Y205702D03*
D44*
X583418Y205702D03*
D39*
X251921Y206126D03*
X326153Y206126D03*
D46*
X346513Y206126D03*
D39*
X360511Y206126D03*
D27*
X387022Y206126D03*
D62*
X405898Y206126D03*
D39*
X426683Y206126D03*
D174*
X493279Y206126D03*
D46*
X570904Y206126D03*
D80*
X583842Y206126D03*
D24*
X252345Y206550D03*
D31*
X326789Y206550D03*
D45*
X346937Y206550D03*
D24*
X360935Y206550D03*
D65*
X386810Y206550D03*
D21*
X406323Y206550D03*
D22*
X427319Y206550D03*
D127*
X492643Y206550D03*
D45*
X570904Y206550D03*
X584478Y206550D03*
D34*
X252769Y206974D03*
D22*
X327213Y206974D03*
D108*
X347149Y206974D03*
D22*
X361147Y206974D03*
D65*
X386810Y206974D03*
D21*
X406323Y206974D03*
D65*
X427532Y206974D03*
D175*
X492219Y206974D03*
D44*
X571116Y206974D03*
D45*
X584902Y206974D03*
D44*
X252981Y207399D03*
D22*
X327213Y207399D03*
D44*
X347574Y207399D03*
D31*
X361996Y207399D03*
D41*
X387022Y207399D03*
D34*
X406747Y207399D03*
D24*
X427956Y207399D03*
D149*
X491371Y207399D03*
D45*
X571329Y207399D03*
D44*
X585114Y207399D03*
D48*
X253406Y207823D03*
D27*
X327637Y207823D03*
D68*
X347998Y207823D03*
D27*
X362844Y207823D03*
D111*
X387022Y207823D03*
D42*
X406747Y207823D03*
D27*
X428168Y207823D03*
D144*
X491371Y207823D03*
D80*
X571541Y207823D03*
X585539Y207823D03*
D105*
X253830Y208247D03*
D22*
X328061Y208247D03*
D44*
X347998Y208247D03*
D35*
X363905Y208247D03*
D44*
X386598Y208247D03*
X406535Y208247D03*
D24*
X428380Y208247D03*
D32*
X491159Y208247D03*
D45*
X571753Y208247D03*
X586175Y208247D03*
D74*
X254042Y208671D03*
D31*
X328486Y208671D03*
D44*
X348422Y208671D03*
D30*
X364753Y208671D03*
D44*
X386598Y208671D03*
X406535Y208671D03*
D24*
X428380Y208671D03*
D170*
X490098Y208671D03*
D45*
X572177Y208671D03*
X586599Y208671D03*
D22*
X328910Y209095D03*
D37*
X348634Y209095D03*
D32*
X365601Y209095D03*
D44*
X386598Y209095D03*
X406535Y209095D03*
D24*
X428804Y209095D03*
D45*
X572601Y209095D03*
X587023Y209095D03*
D22*
X329334Y209520D03*
D108*
X348846Y209520D03*
D102*
X366238Y209520D03*
D44*
X386598Y209520D03*
X406535Y209520D03*
D41*
X429016Y209520D03*
D44*
X572813Y209520D03*
D82*
X587447Y209520D03*
D27*
X329758Y209944D03*
D84*
X349058Y209944D03*
D155*
X367298Y209944D03*
D46*
X386386Y209944D03*
D68*
X406110Y209944D03*
D111*
X429440Y209944D03*
D46*
X573025Y209944D03*
D68*
X587659Y209944D03*
D141*
X607384Y209944D03*
D31*
X330182Y210368D03*
D34*
X349482Y210368D03*
D60*
X368358Y210368D03*
D44*
X386174Y210368D03*
X406110Y210368D03*
D34*
X429652Y210368D03*
D45*
X573449Y210368D03*
D44*
X588084Y210368D03*
D170*
X607172Y210368D03*
D22*
X330606Y210792D03*
D44*
X349695Y210792D03*
D66*
X370055Y210792D03*
D37*
X385962Y210792D03*
D44*
X406110Y210792D03*
D34*
X429652Y210792D03*
D45*
X573874Y210792D03*
X588296Y210792D03*
D105*
X606748Y210792D03*
D22*
X331031Y211216D03*
D34*
X349907Y211216D03*
D66*
X371328Y211216D03*
D41*
X385326Y211216D03*
D44*
X406110Y211216D03*
D41*
X429440Y211216D03*
D45*
X574298Y211216D03*
D49*
X588932Y211216D03*
D50*
X606535Y211216D03*
D27*
X331455Y211640D03*
D68*
X350119Y211640D03*
D29*
X372600Y211640D03*
D39*
X384689Y211640D03*
D68*
X406110Y211640D03*
D111*
X429016Y211640D03*
D68*
X574510Y211640D03*
D48*
X588932Y211640D03*
D52*
X606323Y211640D03*
D22*
X331879Y212065D03*
D37*
X350331Y212065D03*
D25*
X377690Y212065D03*
D44*
X406535Y212065D03*
D38*
X428592Y212065D03*
D108*
X574934Y212065D03*
D49*
X589356Y212065D03*
D45*
X606111Y212065D03*
D22*
X332727Y212489D03*
D37*
X350755Y212489D03*
D114*
X378539Y212489D03*
D44*
X406535Y212489D03*
D22*
X428168Y212489D03*
D45*
X452982Y212489D03*
D44*
X575358Y212489D03*
D49*
X589356Y212489D03*
D34*
X606111Y212489D03*
D22*
X333151Y212913D03*
D37*
X350755Y212913D03*
D15*
X379387Y212913D03*
D34*
X406747Y212913D03*
D21*
X427532Y212913D03*
D102*
X452770Y212913D03*
D34*
X575570Y212913D03*
D47*
X589780Y212913D03*
D41*
X605899Y212913D03*
D27*
X333576Y213337D03*
D43*
X350967Y213337D03*
D137*
X380023Y213337D03*
D42*
X406747Y213337D03*
D19*
X426895Y213337D03*
D29*
X452770Y213337D03*
D42*
X575995Y213337D03*
D46*
X589992Y213337D03*
D144*
X608020Y213337D03*
D22*
X334000Y213761D03*
D38*
X350967Y213761D03*
D109*
X380872Y213761D03*
D34*
X406747Y213761D03*
D100*
X426047Y213761D03*
D54*
X452346Y213761D03*
D34*
X576419Y213761D03*
D45*
X589992Y213761D03*
D66*
X608020Y213761D03*
D38*
X334424Y214186D03*
D41*
X351391Y214186D03*
D47*
X381932Y214186D03*
D37*
X407171Y214186D03*
D102*
X425199Y214186D03*
D176*
X451922Y214186D03*
D37*
X576843Y214186D03*
D45*
X590417Y214186D03*
D143*
X608232Y214186D03*
D38*
X334848Y214610D03*
D41*
X351391Y214610D03*
D38*
X407383Y214610D03*
D177*
X423926Y214610D03*
D127*
X451074Y214610D03*
D34*
X577267Y214610D03*
D44*
X590629Y214610D03*
D87*
X608656Y214610D03*
D42*
X335484Y215034D03*
D39*
X351603Y215034D03*
D124*
X416291Y215034D03*
D110*
X445559Y215034D03*
D27*
X457012Y215034D03*
D111*
X577903Y215034D03*
D68*
X590629Y215034D03*
X604203Y215034D03*
D27*
X612262Y215034D03*
D34*
X335909Y215458D03*
D24*
X351603Y215458D03*
D26*
X415867Y215458D03*
D33*
X444287Y215458D03*
D34*
X457648Y215458D03*
D38*
X578328Y215458D03*
D37*
X590841Y215458D03*
D47*
X603778Y215458D03*
D38*
X613534Y215458D03*
D108*
X336545Y215882D03*
D24*
X351603Y215882D03*
D126*
X415654Y215882D03*
D21*
X443226Y215882D03*
D44*
X457860Y215882D03*
D38*
X578752Y215882D03*
D37*
X590841Y215882D03*
D47*
X603778Y215882D03*
D37*
X614171Y215882D03*
D34*
X337181Y216306D03*
D22*
X351815Y216306D03*
D127*
X415018Y216306D03*
D22*
X442166Y216306D03*
D45*
X458073Y216306D03*
D65*
X579388Y216306D03*
D108*
X591053Y216306D03*
D47*
X603778Y216306D03*
D44*
X614807Y216306D03*
D42*
X337605Y216731D03*
D40*
X351603Y216731D03*
D178*
X413746Y216731D03*
D27*
X441317Y216731D03*
D48*
X458285Y216731D03*
D39*
X579812Y216731D03*
D84*
X591265Y216731D03*
D52*
X603778Y216731D03*
D46*
X615443Y216731D03*
D108*
X338242Y217155D03*
D21*
X351603Y217155D03*
D41*
X411625Y217155D03*
D38*
X440469Y217155D03*
D49*
X458285Y217155D03*
D22*
X580448Y217155D03*
D37*
X591265Y217155D03*
D47*
X603778Y217155D03*
D49*
X615655Y217155D03*
D34*
X338878Y217579D03*
D31*
X351391Y217579D03*
D41*
X439621Y217579D03*
D50*
X458072Y217579D03*
D22*
X580873Y217579D03*
D37*
X591265Y217579D03*
D47*
X603778Y217579D03*
X616080Y217579D03*
D24*
X339726Y218003D03*
D36*
X350967Y218003D03*
D34*
X438560Y218003D03*
D50*
X458072Y218003D03*
D21*
X581509Y218003D03*
D37*
X591265Y218003D03*
D47*
X603778Y218003D03*
X616504Y218003D03*
D40*
X340999Y218427D03*
D63*
X350755Y218427D03*
D42*
X438136Y218427D03*
D52*
X457860Y218427D03*
D101*
X581933Y218427D03*
D84*
X591265Y218427D03*
D52*
X603778Y218427D03*
X616504Y218427D03*
D113*
X267404Y218851D03*
D131*
X346513Y218851D03*
D37*
X437288Y218851D03*
D47*
X457860Y218851D03*
D11*
X582357Y218851D03*
D38*
X591477Y218851D03*
D47*
X603778Y218851D03*
X616928Y218851D03*
D140*
X268040Y219276D03*
D73*
X346725Y219276D03*
D44*
X436651Y219276D03*
D47*
X457436Y219276D03*
D21*
X583206Y219276D03*
D38*
X591477Y219276D03*
D47*
X603778Y219276D03*
D50*
X617140Y219276D03*
D96*
X268252Y219700D03*
D14*
X346513Y219700D03*
D44*
X436227Y219700D03*
D45*
X457224Y219700D03*
D121*
X587235Y219700D03*
D47*
X604203Y219700D03*
D49*
X617352Y219700D03*
D50*
X268888Y220124D03*
D145*
X347149Y220124D03*
D45*
X436015Y220124D03*
D47*
X457012Y220124D03*
D87*
X587872Y220124D03*
D47*
X604203Y220124D03*
X617776Y220124D03*
D51*
X269312Y220548D03*
D76*
X346937Y220548D03*
D46*
X435591Y220548D03*
D48*
X456588Y220548D03*
D116*
X588508Y220548D03*
D52*
X604203Y220548D03*
X617776Y220548D03*
D50*
X269737Y220972D03*
D11*
X346513Y220972D03*
D47*
X434955Y220972D03*
D45*
X456376Y220972D03*
D66*
X588932Y220972D03*
D47*
X604203Y220972D03*
X617776Y220972D03*
D78*
X270161Y221397D03*
D47*
X434531Y221397D03*
D45*
X455952Y221397D03*
D152*
X589356Y221397D03*
D47*
X604203Y221397D03*
X618200Y221397D03*
D50*
X270585Y221821D03*
D45*
X434318Y221821D03*
D44*
X455315Y221821D03*
D17*
X589992Y221821D03*
D47*
X604627Y221821D03*
X618200Y221821D03*
D51*
X271009Y222245D03*
D46*
X433894Y222245D03*
D80*
X454891Y222245D03*
D63*
X589992Y222245D03*
D52*
X604627Y222245D03*
X618200Y222245D03*
D50*
X271433Y222669D03*
D49*
X433682Y222669D03*
D44*
X454467Y222669D03*
D140*
X588720Y222669D03*
D50*
X604839Y222669D03*
D47*
X618200Y222669D03*
D78*
X271857Y223093D03*
D47*
X433258Y223093D03*
D44*
X454043Y223093D03*
D50*
X604839Y223093D03*
D47*
X618200Y223093D03*
X272070Y223517D03*
X433258Y223517D03*
D37*
X453407Y223517D03*
D50*
X604839Y223517D03*
D47*
X618625Y223517D03*
D52*
X272494Y223942D03*
D99*
X433046Y223942D03*
D84*
X452982Y223942D03*
D51*
X605263Y223942D03*
D52*
X618625Y223942D03*
D50*
X272706Y224366D03*
D115*
X393597Y224366D03*
D78*
X433046Y224366D03*
D41*
X452346Y224366D03*
D50*
X605263Y224366D03*
D47*
X618625Y224366D03*
X273342Y224790D03*
D160*
X392961Y224790D03*
D47*
X432834Y224790D03*
D34*
X451710Y224790D03*
D47*
X605475Y224790D03*
X618625Y224790D03*
X273766Y225214D03*
D94*
X392537Y225214D03*
D78*
X432622Y225214D03*
D37*
X451286Y225214D03*
D78*
X605687Y225214D03*
D47*
X618625Y225214D03*
D52*
X274190Y225638D03*
D179*
X392537Y225638D03*
D99*
X432622Y225638D03*
D42*
X450861Y225638D03*
D99*
X605687Y225638D03*
D52*
X618625Y225638D03*
D49*
X274615Y226063D03*
D121*
X386174Y226063D03*
D61*
X399960Y226063D03*
D78*
X432622Y226063D03*
D34*
X450013Y226063D03*
D96*
X605899Y226063D03*
D47*
X618625Y226063D03*
X275039Y226487D03*
D60*
X383205Y226487D03*
D30*
X402081Y226487D03*
D47*
X432410Y226487D03*
D41*
X448953Y226487D03*
D78*
X606111Y226487D03*
D45*
X618837Y226487D03*
D78*
X275251Y226911D03*
D35*
X381720Y226911D03*
D33*
X403565Y226911D03*
D50*
X432198Y226911D03*
D22*
X448104Y226911D03*
D50*
X606535Y226911D03*
D45*
X618837Y226911D03*
D99*
X275675Y227335D03*
D19*
X380660Y227335D03*
D40*
X404626Y227335D03*
D51*
X432198Y227335D03*
D83*
X447256Y227335D03*
D51*
X606535Y227335D03*
D68*
X618625Y227335D03*
D50*
X276099Y227759D03*
D21*
X380023Y227759D03*
D22*
X405262Y227759D03*
D50*
X432198Y227759D03*
D35*
X446620Y227759D03*
D49*
X606748Y227759D03*
D44*
X618625Y227759D03*
D50*
X276523Y228183D03*
D22*
X379387Y228183D03*
D41*
X406110Y228183D03*
D45*
X432622Y228183D03*
D100*
X445559Y228183D03*
D50*
X606960Y228183D03*
D44*
X618625Y228183D03*
D78*
X276948Y228608D03*
D38*
X378963Y228608D03*
D34*
X406323Y228608D03*
D45*
X432622Y228608D03*
D30*
X444499Y228608D03*
D47*
X607172Y228608D03*
D44*
X618625Y228608D03*
D99*
X277372Y229032D03*
D43*
X378539Y229032D03*
D68*
X406959Y229032D03*
X432834Y229032D03*
D155*
X443226Y229032D03*
D52*
X607172Y229032D03*
D68*
X618625Y229032D03*
D50*
X277796Y229456D03*
D44*
X378115Y229456D03*
X407383Y229456D03*
D34*
X433046Y229456D03*
D118*
X441954Y229456D03*
D47*
X607596Y229456D03*
D44*
X618625Y229456D03*
D47*
X278432Y229880D03*
D44*
X377690Y229880D03*
D45*
X408019Y229880D03*
D175*
X438772Y229880D03*
D45*
X607808Y229880D03*
D44*
X618200Y229880D03*
D45*
X278644Y230304D03*
X377478Y230304D03*
X408019Y230304D03*
D73*
X438348Y230304D03*
D47*
X608020Y230304D03*
D44*
X618200Y230304D03*
D45*
X279069Y230729D03*
D82*
X377054Y230729D03*
D45*
X408443Y230729D03*
D171*
X438136Y230729D03*
D45*
X608232Y230729D03*
D44*
X618200Y230729D03*
D46*
X279493Y231153D03*
D48*
X376842Y231153D03*
D81*
X408868Y231153D03*
D29*
X437500Y231153D03*
D81*
X608656Y231153D03*
D42*
X617988Y231153D03*
D49*
X279705Y231577D03*
X376842Y231577D03*
D44*
X409080Y231577D03*
D118*
X437288Y231577D03*
D49*
X608868Y231577D03*
D34*
X617988Y231577D03*
D45*
X280341Y232001D03*
D50*
X376630Y232001D03*
D44*
X409080Y232001D03*
D35*
X436439Y232001D03*
D45*
X609081Y232001D03*
D108*
X617352Y232001D03*
D44*
X280977Y232425D03*
D47*
X376418Y232425D03*
D34*
X409292Y232425D03*
D45*
X609505Y232425D03*
D37*
X617140Y232425D03*
D68*
X281402Y232849D03*
D99*
X376206Y232849D03*
D42*
X409292Y232849D03*
D68*
X609717Y232849D03*
D42*
X616292Y232849D03*
D49*
X281402Y233274D03*
D78*
X376206Y233274D03*
D34*
X409292Y233274D03*
D44*
X610141Y233274D03*
D38*
X615655Y233274D03*
D50*
X281614Y233698D03*
D47*
X376418Y233698D03*
D44*
X409080Y233698D03*
D118*
X613322Y233698D03*
D105*
X281826Y234122D03*
D82*
X377054Y234122D03*
D34*
X408443Y234122D03*
D32*
X612898Y234122D03*
D139*
X282038Y234546D03*
D81*
X377054Y234546D03*
D42*
X408019Y234546D03*
D83*
X612686Y234546D03*
D45*
X377478Y234970D03*
D38*
X407383Y234970D03*
D50*
X598052Y234970D03*
D24*
X612474Y234970D03*
D44*
X378115Y235395D03*
D22*
X406535Y235395D03*
D44*
X598264Y235395D03*
D45*
X612474Y235395D03*
D38*
X378963Y235819D03*
D11*
X405474Y235819D03*
D38*
X598264Y235819D03*
D180*
X379811Y236243D03*
D63*
X404202Y236243D03*
D27*
X598264Y236243D03*
D33*
X380660Y236667D03*
D102*
X403141Y236667D03*
D33*
X598264Y236667D03*
D32*
X381720Y237091D03*
D66*
X401020Y237091D03*
D35*
X598476Y237091D03*
D12*
X383417Y237515D03*
D14*
X398687Y237515D03*
D100*
X598688Y237515D03*
D181*
X392113Y237940D03*
D128*
X598688Y237940D03*
D182*
X392113Y238364D03*
D50*
X596355Y238364D03*
D44*
X600809Y238364D03*
D94*
X392113Y238788D03*
D105*
X596143Y238788D03*
D45*
X601445Y238788D03*
D127*
X392113Y239212D03*
D50*
X595931Y239212D03*
D49*
X601657Y239212D03*
D132*
X391900Y239636D03*
D51*
X595931Y239636D03*
D52*
X602082Y239636D03*
D38*
X390840Y240060D03*
D50*
X595931Y240060D03*
D45*
X602294Y240060D03*
D50*
X595931Y240485D03*
D47*
X602506Y240485D03*
D50*
X595931Y240909D03*
D47*
X602930Y240909D03*
D50*
X595931Y241333D03*
D45*
X603142Y241333D03*
D51*
X595931Y241757D03*
D48*
X603354Y241757D03*
D50*
X595931Y242181D03*
X603566Y242181D03*
D105*
X596143Y242606D03*
D47*
X603778Y242606D03*
D105*
X596143Y243030D03*
D78*
X603990Y243030D03*
D85*
X596143Y243454D03*
D52*
X604203Y243454D03*
D105*
X596143Y243878D03*
D47*
X604203Y243878D03*
D105*
X596143Y244302D03*
D78*
X604415Y244302D03*
D50*
X596355Y244726D03*
D47*
X604627Y244726D03*
D51*
X596355Y245151D03*
X604839Y245151D03*
D50*
X596355Y245575D03*
X604839Y245575D03*
D105*
X596567Y245999D03*
D50*
X604839Y245999D03*
D105*
X596567Y246423D03*
X605051Y246423D03*
D99*
X596779Y246847D03*
D51*
X605263Y246847D03*
D78*
X596779Y247272D03*
D50*
X605263Y247272D03*
D78*
X597204Y247696D03*
D105*
X605475Y247696D03*
D71*
X619897Y247696D03*
D78*
X597204Y248120D03*
D50*
X605263Y248120D03*
D74*
X619685Y248120D03*
D51*
X597628Y248544D03*
D48*
X605051Y248544D03*
D139*
X619261Y248544D03*
D140*
X496249Y248968D03*
D49*
X597840Y248968D03*
D45*
X604839Y248968D03*
D100*
X621170Y248968D03*
D45*
X495400Y249392D03*
D49*
X598264Y249392D03*
D44*
X604627Y249392D03*
D109*
X620958Y249392D03*
D34*
X494976Y249817D03*
D45*
X598900Y249817D03*
D34*
X604415Y249817D03*
D152*
X621170Y249817D03*
D125*
X494552Y250241D03*
D76*
X601870Y250241D03*
D144*
X621594Y250241D03*
D33*
X493916Y250665D03*
D109*
X601870Y250665D03*
D44*
X618625Y250665D03*
D38*
X624139Y250665D03*
D35*
X493279Y251089D03*
D64*
X602082Y251089D03*
D47*
X618200Y251089D03*
D44*
X624987Y251089D03*
D32*
X492431Y251513D03*
X602294Y251513D03*
D47*
X618200Y251513D03*
D44*
X625412Y251513D03*
D32*
X490734Y251938D03*
D35*
X602294Y251938D03*
D78*
X617988Y251938D03*
D44*
X625836Y251938D03*
D110*
X490098Y252362D03*
D180*
X602506Y252362D03*
D99*
X617988Y252362D03*
D80*
X626260Y252362D03*
D64*
X489250Y252786D03*
D34*
X602718Y252786D03*
D105*
X617776Y252786D03*
D45*
X626472Y252786D03*
D109*
X488613Y253210D03*
D105*
X603354Y253210D03*
X617776Y253210D03*
D45*
X626896Y253210D03*
D177*
X487553Y253634D03*
D105*
X617776Y253634D03*
D45*
X626896Y253634D03*
D76*
X486493Y254058D03*
D99*
X617988Y254058D03*
D52*
X627108Y254058D03*
D12*
X485644Y254483D03*
D78*
X617988Y254483D03*
D45*
X627320Y254483D03*
D118*
X484796Y254907D03*
D96*
X618200Y254907D03*
D45*
X627320Y254907D03*
D117*
X483735Y255331D03*
D78*
X618413Y255331D03*
D45*
X627320Y255331D03*
D164*
X482887Y255755D03*
D99*
X618413Y255755D03*
D52*
X627532Y255755D03*
D118*
X481827Y256179D03*
D78*
X618413Y256179D03*
D47*
X627532Y256179D03*
D60*
X480766Y256604D03*
D50*
X618837Y256604D03*
D47*
X627532Y256604D03*
D118*
X480130Y257028D03*
D49*
X619049Y257028D03*
D47*
X627532Y257028D03*
D76*
X479281Y257452D03*
D48*
X619049Y257452D03*
D46*
X627320Y257452D03*
D60*
X478221Y257876D03*
D50*
X619261Y257876D03*
D45*
X627320Y257876D03*
D109*
X477161Y258300D03*
D50*
X619261Y258300D03*
D45*
X627320Y258300D03*
D109*
X476312Y258724D03*
D49*
X619473Y258724D03*
D45*
X627320Y258724D03*
D153*
X475464Y259149D03*
D52*
X619897Y259149D03*
D68*
X627108Y259149D03*
D109*
X474616Y259573D03*
D78*
X620109Y259573D03*
D44*
X627108Y259573D03*
D102*
X473979Y259997D03*
D47*
X620321Y259997D03*
D44*
X626684Y259997D03*
D64*
X473131Y260421D03*
D49*
X620746Y260421D03*
D37*
X626472Y260421D03*
D110*
X472283Y260845D03*
D68*
X621170Y260845D03*
D43*
X626260Y260845D03*
D64*
X471858Y261269D03*
D109*
X623927Y261269D03*
D102*
X471010Y261694D03*
X624139Y261694D03*
D64*
X470162Y262118D03*
D100*
X624139Y262118D03*
D102*
X469313Y262542D03*
D35*
X623927Y262542D03*
D18*
X468465Y262966D03*
D27*
X624139Y262966D03*
D109*
X467829Y263390D03*
D38*
X624563Y263390D03*
D109*
X466980Y263815D03*
D140*
X609929Y263815D03*
D108*
X624563Y263815D03*
D109*
X466132Y264239D03*
D49*
X610141Y264239D03*
D153*
X465284Y264663D03*
D81*
X610353Y264663D03*
D60*
X464647Y265087D03*
D37*
X610353Y265087D03*
D60*
X463799Y265511D03*
D24*
X610777Y265511D03*
D109*
X463163Y265935D03*
D11*
X610777Y265935D03*
D18*
X462526Y266360D03*
D63*
X610777Y266360D03*
D100*
X462102Y266784D03*
X610989Y266784D03*
D35*
X461466Y267208D03*
D100*
X610989Y267208D03*
D35*
X461042Y267632D03*
D50*
X608656Y267632D03*
D45*
X612898Y267632D03*
D63*
X460618Y268056D03*
D51*
X608656Y268056D03*
D46*
X613322Y268056D03*
D33*
X460405Y268481D03*
D50*
X608656Y268481D03*
D45*
X613747Y268481D03*
D11*
X459769Y268905D03*
D50*
X608656Y268905D03*
D49*
X613959Y268905D03*
D22*
X459557Y269329D03*
D50*
X608656Y269329D03*
D47*
X614383Y269329D03*
D39*
X458921Y269753D03*
D48*
X608444Y269753D03*
D99*
X614595Y269753D03*
D108*
X458285Y270177D03*
D49*
X608444Y270177D03*
D78*
X615019Y270177D03*
D45*
X458073Y270601D03*
D49*
X608444Y270601D03*
D78*
X615019Y270601D03*
X457648Y271026D03*
D49*
X608444Y271026D03*
D50*
X615443Y271026D03*
D148*
X457860Y271450D03*
D48*
X608444Y271450D03*
D51*
X615443Y271450D03*
D49*
X608444Y271874D03*
D105*
X615655Y271874D03*
D49*
X608444Y272298D03*
D105*
X615655Y272298D03*
D49*
X608444Y272722D03*
D50*
X615867Y272722D03*
D49*
X608444Y273147D03*
D105*
X616080Y273147D03*
D51*
X608656Y273571D03*
D85*
X616080Y273571D03*
D50*
X608656Y273995D03*
D105*
X616080Y273995D03*
D50*
X608656Y274419D03*
D96*
X616504Y274419D03*
D50*
X608656Y274843D03*
D96*
X616504Y274843D03*
D51*
X609081Y275267D03*
D138*
X616504Y275267D03*
D45*
X609505Y275692D03*
D96*
X616504Y275692D03*
D135*
X624775Y275692D03*
D45*
X609929Y276116D03*
D96*
X616504Y276116D03*
D38*
X626260Y276116D03*
D45*
X609929Y276540D03*
D78*
X616292Y276540D03*
D22*
X626260Y276540D03*
D81*
X610353Y276964D03*
D99*
X616292Y276964D03*
D63*
X626472Y276964D03*
D45*
X610777Y277388D03*
D78*
X616292Y277388D03*
D102*
X626684Y277388D03*
D44*
X611414Y277813D03*
D47*
X616080Y277813D03*
D60*
X626684Y277813D03*
D100*
X613534Y278237D03*
D45*
X623927Y278237D03*
D41*
X629229Y278237D03*
D128*
X613534Y278661D03*
D52*
X623715Y278661D03*
D84*
X629865Y278661D03*
D35*
X613747Y279085D03*
D47*
X623715Y279085D03*
D44*
X630502Y279085D03*
D11*
X613747Y279509D03*
D47*
X623715Y279509D03*
D45*
X630714Y279509D03*
D38*
X613959Y279933D03*
D47*
X623715Y279933D03*
D45*
X631138Y279933D03*
D68*
X614383Y280358D03*
D99*
X623927Y280358D03*
D48*
X631350Y280358D03*
D105*
X614383Y280782D03*
D78*
X623927Y280782D03*
D49*
X631774Y280782D03*
D78*
X623927Y281206D03*
D47*
X632198Y281206D03*
D78*
X623927Y281630D03*
D47*
X632198Y281630D03*
D99*
X623927Y282054D03*
D52*
X632623Y282054D03*
D50*
X624351Y282478D03*
D78*
X632835Y282478D03*
D50*
X624351Y282903D03*
D47*
X633047Y282903D03*
D50*
X624351Y283327D03*
X633259Y283327D03*
X624351Y283751D03*
X633259Y283751D03*
D51*
X624775Y284175D03*
D48*
X633471Y284175D03*
D50*
X624775Y284599D03*
X633683Y284599D03*
D47*
X624987Y285024D03*
X633895Y285024D03*
D78*
X625199Y285448D03*
D47*
X633895Y285448D03*
D52*
X625412Y285872D03*
X633895Y285872D03*
D47*
X625836Y286296D03*
X633895Y286296D03*
D45*
X626048Y286720D03*
D47*
X633895Y286720D03*
D45*
X626472Y287144D03*
X633683Y287144D03*
D46*
X626896Y287569D03*
X633683Y287569D03*
D44*
X627108Y287993D03*
D108*
X633471Y287993D03*
D44*
X627532Y288417D03*
D37*
X633259Y288417D03*
D12*
X630714Y288841D03*
D155*
X630714Y289265D03*
D64*
X630926Y289690D03*
D100*
X630926Y290114D03*
D105*
X619049Y290538D03*
D36*
X630926Y290538D03*
D68*
X619049Y290962D03*
D27*
X630926Y290962D03*
D24*
X618837Y291386D03*
D41*
X630926Y291386D03*
D11*
X618837Y291810D03*
D44*
X630926Y291810D03*
D33*
X619049Y292235D03*
D146*
X619261Y292659D03*
D100*
X619473Y293083D03*
D50*
X617140Y293507D03*
D45*
X621806Y293507D03*
D50*
X617140Y293931D03*
D45*
X622230Y293931D03*
D50*
X617140Y294356D03*
D47*
X622442Y294356D03*
D51*
X617140Y294780D03*
X622654Y294780D03*
D50*
X617140Y295204D03*
D105*
X622866Y295204D03*
D50*
X617140Y295628D03*
X623079Y295628D03*
X617140Y296052D03*
D78*
X623503Y296052D03*
D48*
X617352Y296476D03*
D99*
X623503Y296476D03*
D49*
X617352Y296901D03*
D47*
X623715Y296901D03*
D50*
X617564Y297325D03*
D78*
X623927Y297325D03*
D47*
X617776Y297749D03*
D78*
X623927Y297749D03*
D52*
X617776Y298173D03*
D99*
X623927Y298173D03*
D47*
X617776Y298597D03*
D78*
X623927Y298597D03*
D47*
X618200Y299022D03*
D78*
X623927Y299022D03*
D105*
X635168Y299022D03*
D47*
X618200Y299446D03*
D78*
X623927Y299446D03*
D45*
X635380Y299446D03*
D46*
X618413Y299870D03*
D99*
X623927Y299870D03*
D42*
X635804Y299870D03*
D45*
X618413Y300294D03*
D78*
X623927Y300294D03*
D36*
X635592Y300294D03*
D45*
X618837Y300718D03*
D47*
X623715Y300718D03*
D35*
X635804Y300718D03*
D82*
X619261Y301142D03*
D45*
X623503Y301142D03*
D100*
X636440Y301142D03*
D128*
X621594Y301567D03*
D110*
X636864Y301567D03*
D100*
X621594Y301991D03*
D109*
X637076Y301991D03*
D35*
X621806Y302415D03*
D45*
X634531Y302415D03*
D41*
X639409Y302415D03*
D36*
X622018Y302839D03*
D45*
X634531Y302839D03*
D34*
X640046Y302839D03*
D101*
X622230Y303263D03*
D52*
X634319Y303263D03*
D42*
X640894Y303263D03*
D22*
X622442Y303687D03*
D78*
X634531Y303687D03*
D44*
X641106Y303687D03*
D24*
X622654Y304112D03*
D47*
X634743Y304112D03*
D44*
X641530Y304112D03*
D45*
X622654Y304536D03*
D47*
X634743Y304536D03*
D45*
X641742Y304536D03*
D50*
X634956Y304960D03*
D82*
X642167Y304960D03*
D48*
X635168Y305384D03*
D81*
X642167Y305384D03*
D47*
X635592Y305808D03*
D45*
X642591Y305808D03*
D47*
X635592Y306233D03*
D45*
X643015Y306233D03*
D47*
X636016Y306657D03*
D45*
X643015Y306657D03*
D46*
X636228Y307081D03*
D52*
X643227Y307081D03*
D45*
X636652Y307505D03*
X643439Y307505D03*
X637076Y307929D03*
X643439Y307929D03*
D44*
X637289Y308353D03*
D45*
X643439Y308353D03*
D68*
X637713Y308778D03*
D46*
X643439Y308778D03*
D37*
X638349Y309202D03*
D45*
X643015Y309202D03*
D102*
X640682Y309626D03*
D32*
X640894Y310050D03*
D63*
X640894Y310474D03*
D35*
X640894Y310899D03*
D11*
X640894Y311323D03*
D24*
X640894Y311747D03*
D111*
X641106Y312171D03*
D49*
X640682Y312595D03*
D105*
X640258Y313019D03*
D170*
X631350Y314292D03*
D41*
X632623Y314716D03*
D11*
X632835Y315140D03*
D100*
X633047Y315565D03*
D110*
X633471Y315989D03*
D60*
X633471Y316413D03*
D117*
X633895Y316837D03*
D45*
X630714Y317261D03*
D36*
X636440Y317261D03*
D52*
X630502Y317685D03*
D27*
X637289Y317685D03*
D47*
X630502Y318110D03*
D24*
X637925Y318110D03*
D45*
X630714Y318534D03*
D38*
X638561Y318534D03*
D45*
X630714Y318958D03*
D34*
X639197Y318958D03*
D46*
X631138Y319382D03*
D42*
X639622Y319382D03*
D49*
X631350Y319806D03*
D44*
X640258Y319806D03*
D82*
X631562Y320231D03*
X640470Y320231D03*
D45*
X631986Y320655D03*
X640894Y320655D03*
D46*
X632410Y321079D03*
X641318Y321079D03*
D45*
X632835Y321503D03*
D47*
X641530Y321503D03*
D45*
X633259Y321927D03*
D47*
X641530Y321927D03*
D44*
X633895Y322351D03*
D49*
X641955Y322351D03*
D68*
X634319Y322776D03*
D48*
X641955Y322776D03*
D44*
X634743Y323200D03*
D82*
X642167Y323200D03*
D108*
X635168Y323624D03*
D82*
X642167Y323624D03*
D34*
X635804Y324048D03*
D44*
X641955Y324048D03*
D42*
X636228Y324472D03*
X641742Y324472D03*
D118*
X639197Y324896D03*
D60*
X639409Y325321D03*
D64*
X639834Y325745D03*
D32*
X640046Y326169D03*
D146*
X640470Y326593D03*
D33*
X640682Y327017D03*
D37*
X640470Y327442D03*
X656165Y330411D03*
D24*
X655740Y330835D03*
D100*
X655528Y331259D03*
D183*
X656589Y331683D03*
D143*
X656589Y332108D03*
D86*
X657013Y332532D03*
D47*
X652135Y332956D03*
D22*
X660194Y332956D03*
D52*
X652135Y333380D03*
D83*
X662315Y333380D03*
D47*
X652135Y333804D03*
D24*
X662951Y333804D03*
D47*
X652135Y334228D03*
D65*
X664224Y334228D03*
D45*
X652347Y334653D03*
D34*
X664648Y334653D03*
D48*
X652559Y335077D03*
D43*
X665284Y335077D03*
D44*
X652983Y335501D03*
D22*
X666557Y335501D03*
D34*
X653619Y335925D03*
D38*
X666557Y335925D03*
D22*
X654256Y336349D03*
D37*
X666769Y336349D03*
D11*
X654892Y336774D03*
D37*
X666769Y336774D03*
D128*
X655528Y337198D03*
D80*
X666981Y337198D03*
D30*
X656165Y337622D03*
D108*
X666981Y337622D03*
D64*
X657225Y338046D03*
D108*
X666981Y338046D03*
D109*
X658285Y338470D03*
D108*
X666981Y338470D03*
D157*
X661679Y338894D03*
D14*
X662103Y339319D03*
D171*
X662527Y339743D03*
D66*
X663164Y340167D03*
D153*
X663376Y340591D03*
D11*
X663800Y341015D03*
D50*
X663800Y341440D03*
M02*
