G04 EAGLE Gerber X2 export*
G75*
%MOMM*%
%FSLAX34Y34*%
%LPD*%
%AMOC8*
5,1,8,0,0,1.08239X$1,22.5*%
G01*
%ADD10C,0.254000*%


D10*
X0Y63400D02*
X241Y57874D01*
X963Y52391D01*
X2160Y46991D01*
X3824Y41716D01*
X5940Y36606D01*
X8494Y31700D01*
X11466Y27035D01*
X14833Y22647D01*
X18569Y18569D01*
X22647Y14833D01*
X27035Y11466D01*
X31700Y8494D01*
X36606Y5940D01*
X41716Y3824D01*
X46991Y2160D01*
X52391Y963D01*
X57874Y241D01*
X63400Y0D01*
X212600Y0D01*
X225793Y3125D01*
X238663Y7388D01*
X251113Y12756D01*
X263047Y19189D01*
X274376Y26637D01*
X285012Y35045D01*
X294875Y44347D01*
X303889Y54474D01*
X311987Y65348D01*
X319106Y76886D01*
X325193Y89001D01*
X330200Y101600D01*
X354857Y151562D01*
X357290Y155995D01*
X360101Y160199D01*
X363268Y164143D01*
X366766Y167795D01*
X370569Y171128D01*
X374649Y174117D01*
X378973Y176740D01*
X383509Y178975D01*
X388223Y180807D01*
X393079Y182221D01*
X398039Y183206D01*
X403067Y183755D01*
X408123Y183864D01*
X413169Y183532D01*
X418167Y182761D01*
X423079Y181557D01*
X427868Y179930D01*
X428085Y179845D01*
X511375Y147042D01*
X519331Y144770D01*
X527454Y143201D01*
X535683Y142345D01*
X543955Y142210D01*
X552208Y142797D01*
X560378Y144100D01*
X568403Y146111D01*
X576223Y148813D01*
X583777Y152187D01*
X591009Y156206D01*
X597862Y160841D01*
X604286Y166055D01*
X610231Y171808D01*
X615652Y178059D01*
X620507Y184758D01*
X624760Y191854D01*
X628378Y199294D01*
X631335Y207022D01*
X633606Y214977D01*
X633615Y215015D01*
X651027Y288037D01*
X651599Y288513D01*
X652210Y288938D01*
X652856Y289308D01*
X653532Y289620D01*
X654232Y289872D01*
X654952Y290061D01*
X655685Y290188D01*
X656427Y290250D01*
X657171Y290247D01*
X657912Y290179D01*
X658644Y290047D01*
X659362Y289852D01*
X660061Y289595D01*
X660734Y289278D01*
X661377Y288903D01*
X661985Y288474D01*
X662553Y287994D01*
X663078Y287465D01*
X663554Y286893D01*
X663978Y286282D01*
X664348Y285636D01*
X664660Y284961D01*
X664781Y284649D01*
X665595Y280902D01*
X666260Y278381D01*
X667141Y275927D01*
X668234Y273560D01*
X669528Y271296D01*
X671015Y269154D01*
X672683Y267150D01*
X674519Y265299D01*
X676509Y263614D01*
X678639Y262110D01*
X680892Y260797D01*
X683250Y259685D01*
X685697Y258784D01*
X688213Y258098D01*
X690779Y257635D01*
X693375Y257397D01*
X695983Y257386D01*
X698581Y257603D01*
X701151Y258045D01*
X703672Y258710D01*
X705902Y259501D01*
X723900Y266700D01*
X755650Y289560D01*
X758747Y293181D01*
X761516Y297057D01*
X763937Y301161D01*
X765991Y305460D01*
X767663Y309921D01*
X768940Y314511D01*
X769811Y319195D01*
X770271Y323937D01*
X770316Y328701D01*
X769946Y333451D01*
X769163Y338151D01*
X767973Y342764D01*
X766386Y347256D01*
X764413Y351593D01*
X762070Y355741D01*
X759374Y359670D01*
X756346Y363348D01*
X753009Y366749D01*
X749389Y369845D01*
X745512Y372615D01*
X741409Y375036D01*
X737110Y377090D01*
X726478Y381129D01*
X715535Y384226D01*
X704363Y386357D01*
X693048Y387506D01*
X681676Y387665D01*
X670333Y386832D01*
X659106Y385014D01*
X648081Y382224D01*
X637340Y378484D01*
X626966Y373822D01*
X617038Y368273D01*
X607632Y361881D01*
X598818Y354693D01*
X590664Y346764D01*
X583233Y338154D01*
X576580Y328930D01*
X562361Y299558D01*
X561386Y296743D01*
X560169Y294024D01*
X558720Y291421D01*
X557050Y288955D01*
X555171Y286643D01*
X553097Y284504D01*
X550845Y282554D01*
X548432Y280807D01*
X545876Y279278D01*
X543196Y277977D01*
X540412Y276914D01*
X537547Y276099D01*
X534622Y275536D01*
X531659Y275230D01*
X528680Y275183D01*
X525708Y275397D01*
X522767Y275868D01*
X519878Y276594D01*
X517063Y277569D01*
X514344Y278786D01*
X512344Y279873D01*
X469900Y304800D01*
X456178Y310984D01*
X441969Y315949D01*
X427382Y319656D01*
X412527Y322078D01*
X397518Y323196D01*
X382468Y323001D01*
X367493Y321496D01*
X352705Y318691D01*
X338219Y314608D01*
X324143Y309277D01*
X310585Y302741D01*
X297649Y295048D01*
X285433Y286256D01*
X274029Y276433D01*
X263525Y265654D01*
X254000Y254000D01*
X242046Y243438D01*
X229216Y233957D01*
X215609Y225631D01*
X201329Y218523D01*
X186483Y212686D01*
X171185Y208166D01*
X155551Y204995D01*
X139700Y203200D01*
X127517Y202660D01*
X115427Y201060D01*
X103522Y198412D01*
X91893Y194737D01*
X80629Y190063D01*
X69816Y184424D01*
X59535Y177865D01*
X49864Y170434D01*
X40878Y162189D01*
X32645Y153192D01*
X25228Y143512D01*
X18682Y133222D01*
X13058Y122401D01*
X8399Y111131D01*
X4739Y99497D01*
X2108Y87589D01*
X524Y75497D01*
X0Y63400D01*
M02*
