G04 EAGLE Gerber X2 export*
G75*
%MOMM*%
%FSLAX34Y34*%
%LPD*%
%AMOC8*
5,1,8,0,0,1.08239X$1,22.5*%
G01*
%ADD10C,1.879600*%

G36*
X211395Y10161D02*
X211395Y10161D01*
X211397Y10161D01*
X211564Y10180D01*
X221249Y12411D01*
X221276Y12422D01*
X221331Y12434D01*
X241701Y19606D01*
X241729Y19622D01*
X241805Y19652D01*
X260878Y29780D01*
X260904Y29800D01*
X260974Y29840D01*
X278325Y42698D01*
X278348Y42721D01*
X278411Y42772D01*
X293651Y58072D01*
X293671Y58099D01*
X293725Y58158D01*
X306515Y75558D01*
X306530Y75588D01*
X306576Y75655D01*
X316630Y94767D01*
X316639Y94795D01*
X316665Y94845D01*
X320120Y103698D01*
X320127Y103730D01*
X320141Y103759D01*
X320170Y103925D01*
X320194Y104284D01*
X320789Y105490D01*
X320798Y105519D01*
X320825Y105577D01*
X321267Y106846D01*
X321628Y107252D01*
X321638Y107268D01*
X321652Y107280D01*
X321742Y107422D01*
X346706Y158007D01*
X346707Y158007D01*
X348961Y162575D01*
X357997Y173958D01*
X369230Y183179D01*
X382155Y189823D01*
X396191Y193592D01*
X410706Y194316D01*
X425047Y191962D01*
X431808Y189299D01*
X433829Y188503D01*
X433830Y188503D01*
X514701Y156652D01*
X514727Y156647D01*
X514773Y156628D01*
X522059Y154567D01*
X522091Y154563D01*
X522162Y154545D01*
X537457Y152429D01*
X537486Y152430D01*
X537597Y152423D01*
X553022Y153145D01*
X553050Y153151D01*
X553160Y153165D01*
X568191Y156701D01*
X568218Y156712D01*
X568324Y156745D01*
X582453Y162976D01*
X582477Y162992D01*
X582575Y163044D01*
X595323Y171758D01*
X595344Y171778D01*
X595431Y171848D01*
X606366Y182750D01*
X606383Y182773D01*
X606456Y182858D01*
X607806Y184820D01*
X608853Y186343D01*
X609901Y187865D01*
X610948Y189388D01*
X611996Y190910D01*
X612519Y191671D01*
X612520Y191672D01*
X613567Y193194D01*
X614614Y194716D01*
X614614Y194717D01*
X615208Y195579D01*
X615220Y195605D01*
X615276Y195701D01*
X621549Y209811D01*
X621558Y209842D01*
X621585Y209910D01*
X623722Y217337D01*
X623724Y217351D01*
X623731Y217371D01*
X640906Y289400D01*
X640908Y289428D01*
X640926Y289540D01*
X640973Y290538D01*
X641353Y291345D01*
X641358Y291361D01*
X641405Y291493D01*
X641612Y292360D01*
X642198Y293169D01*
X642211Y293194D01*
X642270Y293291D01*
X642696Y294195D01*
X643355Y294795D01*
X643366Y294808D01*
X643460Y294912D01*
X643983Y295634D01*
X644834Y296157D01*
X644855Y296176D01*
X644947Y296242D01*
X646935Y298050D01*
X653914Y300567D01*
X661325Y300229D01*
X668045Y297086D01*
X673055Y291615D01*
X673843Y289457D01*
X673849Y289444D01*
X673853Y289431D01*
X673932Y289283D01*
X674280Y288782D01*
X674552Y287533D01*
X674564Y287503D01*
X674581Y287433D01*
X675019Y286232D01*
X674993Y285623D01*
X674994Y285609D01*
X674992Y285595D01*
X675009Y285428D01*
X675062Y285184D01*
X675524Y283061D01*
X675532Y283042D01*
X675538Y283008D01*
X676313Y280376D01*
X676315Y280371D01*
X676376Y280224D01*
X679017Y275431D01*
X679033Y275410D01*
X679044Y275386D01*
X679150Y275255D01*
X683049Y271416D01*
X683071Y271401D01*
X683088Y271381D01*
X683226Y271286D01*
X688060Y268720D01*
X688085Y268711D01*
X688107Y268697D01*
X688267Y268646D01*
X693631Y267566D01*
X693658Y267565D01*
X693683Y267558D01*
X693851Y267554D01*
X699301Y268052D01*
X699306Y268053D01*
X699462Y268084D01*
X702076Y268916D01*
X702095Y268925D01*
X702128Y268935D01*
X702909Y269247D01*
X704145Y269742D01*
X704146Y269742D01*
X718885Y275638D01*
X718893Y275642D01*
X718901Y275644D01*
X719048Y275727D01*
X748637Y297031D01*
X748647Y297041D01*
X748659Y297047D01*
X748779Y297164D01*
X751594Y300566D01*
X751609Y300592D01*
X751671Y300679D01*
X753774Y304428D01*
X753805Y304513D01*
X753843Y304595D01*
X753847Y304628D01*
X753858Y304659D01*
X753861Y304750D01*
X753871Y304839D01*
X753864Y304872D01*
X753864Y304905D01*
X753838Y304991D01*
X753818Y305080D01*
X753801Y305108D01*
X753792Y305140D01*
X753739Y305213D01*
X753692Y305291D01*
X753667Y305312D01*
X753648Y305339D01*
X753574Y305392D01*
X753505Y305451D01*
X753475Y305463D01*
X753448Y305482D01*
X753361Y305509D01*
X753277Y305543D01*
X753235Y305547D01*
X753213Y305554D01*
X753181Y305553D01*
X753110Y305561D01*
X726440Y305561D01*
X726420Y305558D01*
X726401Y305560D01*
X726299Y305538D01*
X726197Y305522D01*
X726180Y305512D01*
X726160Y305508D01*
X726071Y305455D01*
X725980Y305406D01*
X725966Y305392D01*
X725949Y305382D01*
X725882Y305303D01*
X725811Y305228D01*
X725802Y305210D01*
X725789Y305195D01*
X725751Y305099D01*
X725707Y305005D01*
X725705Y304985D01*
X725697Y304967D01*
X725679Y304800D01*
X725679Y304799D01*
X725677Y304799D01*
X725677Y304800D01*
X725674Y304820D01*
X725676Y304839D01*
X725654Y304941D01*
X725637Y305043D01*
X725628Y305060D01*
X725624Y305080D01*
X725571Y305169D01*
X725522Y305260D01*
X725508Y305274D01*
X725498Y305291D01*
X725419Y305358D01*
X725344Y305430D01*
X725326Y305438D01*
X725311Y305451D01*
X725215Y305490D01*
X725121Y305533D01*
X725101Y305535D01*
X725083Y305543D01*
X724916Y305561D01*
X708406Y305561D01*
X708386Y305558D01*
X708367Y305560D01*
X708265Y305538D01*
X708163Y305522D01*
X708146Y305512D01*
X708126Y305508D01*
X708037Y305455D01*
X707946Y305406D01*
X707932Y305392D01*
X707915Y305382D01*
X707848Y305303D01*
X707776Y305228D01*
X707768Y305210D01*
X707755Y305195D01*
X707716Y305099D01*
X707673Y305005D01*
X707671Y304985D01*
X707663Y304967D01*
X707645Y304800D01*
X707645Y302627D01*
X705982Y298613D01*
X702909Y295540D01*
X698895Y293877D01*
X694549Y293877D01*
X690535Y295540D01*
X687462Y298613D01*
X685799Y302627D01*
X685799Y304800D01*
X685796Y304820D01*
X685798Y304839D01*
X685776Y304941D01*
X685760Y305043D01*
X685750Y305060D01*
X685746Y305080D01*
X685693Y305169D01*
X685644Y305260D01*
X685630Y305274D01*
X685620Y305291D01*
X685541Y305358D01*
X685466Y305430D01*
X685448Y305438D01*
X685433Y305451D01*
X685337Y305490D01*
X685243Y305533D01*
X685223Y305535D01*
X685205Y305543D01*
X685038Y305561D01*
X673861Y305561D01*
X673861Y342900D01*
X673851Y342965D01*
X673850Y343030D01*
X673831Y343085D01*
X673822Y343143D01*
X673791Y343201D01*
X673769Y343263D01*
X673734Y343309D01*
X673706Y343360D01*
X673659Y343405D01*
X673619Y343457D01*
X673552Y343507D01*
X673528Y343530D01*
X673510Y343538D01*
X673484Y343557D01*
X670572Y345260D01*
X670541Y345272D01*
X670468Y345311D01*
X667333Y346556D01*
X667300Y346563D01*
X667223Y346590D01*
X667115Y346615D01*
X663935Y347348D01*
X663903Y347351D01*
X663822Y347366D01*
X660458Y347621D01*
X660425Y347618D01*
X660343Y347621D01*
X656978Y347366D01*
X656946Y347358D01*
X656865Y347348D01*
X653577Y346590D01*
X653547Y346577D01*
X653467Y346556D01*
X650332Y345311D01*
X650303Y345294D01*
X650228Y345260D01*
X647316Y343557D01*
X647292Y343538D01*
X647239Y343506D01*
X636346Y335225D01*
X636329Y335207D01*
X636293Y335181D01*
X626194Y325949D01*
X626178Y325929D01*
X626145Y325900D01*
X616922Y315792D01*
X616908Y315772D01*
X616877Y315740D01*
X608606Y304839D01*
X608594Y304818D01*
X608567Y304783D01*
X601314Y293179D01*
X601305Y293156D01*
X601281Y293119D01*
X595107Y280907D01*
X595100Y280884D01*
X595079Y280845D01*
X590035Y268125D01*
X590030Y268101D01*
X590013Y268060D01*
X586140Y254936D01*
X586137Y254911D01*
X586124Y254869D01*
X583455Y241457D01*
X582531Y237356D01*
X581055Y233465D01*
X579048Y229821D01*
X576548Y226494D01*
X573606Y223552D01*
X570279Y221052D01*
X566635Y219045D01*
X562744Y217569D01*
X558676Y216652D01*
X543868Y215093D01*
X528970Y214908D01*
X514118Y216098D01*
X499440Y218655D01*
X485060Y222556D01*
X471102Y227767D01*
X457685Y234245D01*
X444893Y241952D01*
X444889Y241954D01*
X444885Y241957D01*
X436756Y246716D01*
X436728Y246726D01*
X436676Y246756D01*
X428045Y250527D01*
X428016Y250535D01*
X427961Y250558D01*
X418946Y253290D01*
X418917Y253294D01*
X418859Y253311D01*
X409587Y254965D01*
X409557Y254966D01*
X409498Y254976D01*
X400095Y255530D01*
X400065Y255527D01*
X400005Y255530D01*
X390602Y254976D01*
X390573Y254969D01*
X390513Y254965D01*
X381241Y253311D01*
X381213Y253301D01*
X381154Y253290D01*
X372139Y250558D01*
X372112Y250545D01*
X372055Y250527D01*
X363424Y246756D01*
X363399Y246740D01*
X363344Y246716D01*
X355215Y241957D01*
X355196Y241941D01*
X355156Y241918D01*
X324014Y219544D01*
X324000Y219530D01*
X323972Y219512D01*
X294449Y195041D01*
X294436Y195026D01*
X294410Y195006D01*
X266646Y168555D01*
X266634Y168539D01*
X266609Y168518D01*
X240742Y140218D01*
X227990Y126508D01*
X214126Y113973D01*
X212545Y112775D01*
X209532Y110491D01*
X207524Y108968D01*
X207523Y108968D01*
X204511Y106685D01*
X202502Y105162D01*
X199489Y102878D01*
X199231Y102682D01*
X183415Y92720D01*
X166799Y84161D01*
X149506Y77069D01*
X131664Y71498D01*
X113408Y67488D01*
X94874Y65070D01*
X76184Y64261D01*
X53340Y64261D01*
X53320Y64258D01*
X53301Y64260D01*
X53199Y64238D01*
X53097Y64222D01*
X53080Y64212D01*
X53060Y64208D01*
X52971Y64155D01*
X52880Y64106D01*
X52866Y64092D01*
X52849Y64082D01*
X52782Y64003D01*
X52711Y63928D01*
X52702Y63910D01*
X52689Y63895D01*
X52651Y63799D01*
X52607Y63705D01*
X52605Y63685D01*
X52597Y63667D01*
X52579Y63500D01*
X52579Y63499D01*
X52577Y63499D01*
X52577Y63500D01*
X52574Y63520D01*
X52576Y63539D01*
X52554Y63641D01*
X52537Y63743D01*
X52528Y63760D01*
X52524Y63780D01*
X52471Y63869D01*
X52422Y63960D01*
X52408Y63974D01*
X52398Y63991D01*
X52319Y64058D01*
X52244Y64130D01*
X52226Y64138D01*
X52211Y64151D01*
X52115Y64190D01*
X52021Y64233D01*
X52001Y64235D01*
X51983Y64243D01*
X51816Y64261D01*
X35306Y64261D01*
X35286Y64258D01*
X35267Y64260D01*
X35165Y64238D01*
X35063Y64222D01*
X35046Y64212D01*
X35026Y64208D01*
X34937Y64155D01*
X34846Y64106D01*
X34832Y64092D01*
X34815Y64082D01*
X34748Y64003D01*
X34676Y63928D01*
X34668Y63910D01*
X34655Y63895D01*
X34616Y63799D01*
X34573Y63705D01*
X34571Y63685D01*
X34563Y63667D01*
X34545Y63500D01*
X34545Y61327D01*
X32882Y57313D01*
X29809Y54240D01*
X25795Y52577D01*
X21449Y52577D01*
X17435Y54240D01*
X14362Y57313D01*
X12699Y61327D01*
X12699Y63500D01*
X12696Y63520D01*
X12698Y63539D01*
X12676Y63641D01*
X12660Y63743D01*
X12650Y63760D01*
X12646Y63780D01*
X12593Y63869D01*
X12544Y63960D01*
X12530Y63974D01*
X12520Y63991D01*
X12441Y64058D01*
X12366Y64130D01*
X12348Y64138D01*
X12333Y64151D01*
X12237Y64190D01*
X12143Y64233D01*
X12123Y64235D01*
X12105Y64243D01*
X11938Y64261D01*
X10926Y64261D01*
X10921Y64260D01*
X10916Y64261D01*
X10800Y64241D01*
X10683Y64222D01*
X10679Y64219D01*
X10674Y64218D01*
X10570Y64162D01*
X10466Y64106D01*
X10462Y64103D01*
X10458Y64101D01*
X10377Y64013D01*
X10296Y63928D01*
X10294Y63924D01*
X10291Y63920D01*
X10243Y63812D01*
X10193Y63705D01*
X10192Y63700D01*
X10190Y63696D01*
X10165Y63530D01*
X10161Y63430D01*
X10163Y63419D01*
X10161Y63400D01*
X10163Y63386D01*
X10162Y63362D01*
X10414Y58219D01*
X10421Y58187D01*
X10428Y58108D01*
X12435Y48018D01*
X12443Y47996D01*
X12478Y47875D01*
X16415Y38371D01*
X16428Y38350D01*
X16486Y38239D01*
X22201Y29685D01*
X22218Y29668D01*
X22296Y29570D01*
X29570Y22296D01*
X29589Y22282D01*
X29685Y22201D01*
X38239Y16486D01*
X38261Y16476D01*
X38371Y16415D01*
X47875Y12478D01*
X47898Y12473D01*
X48018Y12435D01*
X58108Y10428D01*
X58141Y10427D01*
X58219Y10414D01*
X63363Y10162D01*
X63377Y10163D01*
X63400Y10161D01*
X211393Y10161D01*
X211395Y10161D01*
G37*
G36*
X40914Y88142D02*
X40914Y88142D01*
X40933Y88140D01*
X41035Y88162D01*
X41137Y88179D01*
X41154Y88188D01*
X41174Y88192D01*
X41263Y88245D01*
X41354Y88294D01*
X41368Y88308D01*
X41385Y88318D01*
X41452Y88397D01*
X41524Y88472D01*
X41532Y88490D01*
X41545Y88505D01*
X41584Y88601D01*
X41627Y88695D01*
X41629Y88715D01*
X41637Y88733D01*
X41655Y88900D01*
X41655Y91073D01*
X43318Y95087D01*
X46391Y98160D01*
X50405Y99823D01*
X54751Y99823D01*
X58765Y98160D01*
X61838Y95087D01*
X63501Y91073D01*
X63501Y88931D01*
X63506Y88896D01*
X63504Y88861D01*
X63526Y88775D01*
X63540Y88688D01*
X63557Y88657D01*
X63566Y88623D01*
X63614Y88549D01*
X63656Y88471D01*
X63681Y88446D01*
X63701Y88417D01*
X63770Y88362D01*
X63834Y88301D01*
X63866Y88286D01*
X63894Y88265D01*
X63977Y88235D01*
X64057Y88198D01*
X64092Y88194D01*
X64125Y88182D01*
X64293Y88170D01*
X83392Y88944D01*
X83414Y88949D01*
X83453Y88949D01*
X103184Y91357D01*
X103206Y91364D01*
X103245Y91367D01*
X122717Y95364D01*
X122738Y95372D01*
X122777Y95379D01*
X141861Y100938D01*
X141881Y100947D01*
X141919Y100957D01*
X160492Y108041D01*
X160511Y108053D01*
X160548Y108066D01*
X178487Y116629D01*
X178505Y116642D01*
X178541Y116658D01*
X195728Y126644D01*
X195745Y126658D01*
X195780Y126677D01*
X212103Y138021D01*
X212119Y138036D01*
X212152Y138058D01*
X227504Y150685D01*
X227518Y150702D01*
X227550Y150726D01*
X241830Y164553D01*
X241830Y164554D01*
X241831Y164555D01*
X267824Y189891D01*
X295606Y213207D01*
X325043Y234394D01*
X355967Y253332D01*
X365162Y257835D01*
X374803Y261262D01*
X384770Y263571D01*
X394934Y264734D01*
X405166Y264734D01*
X415330Y263571D01*
X425297Y261262D01*
X434938Y257835D01*
X444161Y253319D01*
X459277Y245633D01*
X459300Y245626D01*
X459336Y245606D01*
X475049Y239212D01*
X475072Y239207D01*
X475109Y239191D01*
X491303Y234136D01*
X491326Y234132D01*
X491365Y234119D01*
X493900Y233556D01*
X497325Y232795D01*
X500751Y232033D01*
X504177Y231272D01*
X507602Y230511D01*
X507926Y230439D01*
X507949Y230438D01*
X507989Y230428D01*
X524799Y228148D01*
X524823Y228149D01*
X524863Y228143D01*
X541806Y227280D01*
X541829Y227282D01*
X541870Y227279D01*
X558825Y227839D01*
X558856Y227845D01*
X558924Y227849D01*
X561334Y228247D01*
X561363Y228257D01*
X561465Y228281D01*
X563766Y229099D01*
X563793Y229113D01*
X563889Y229155D01*
X566010Y230366D01*
X566034Y230386D01*
X566121Y230443D01*
X567994Y232011D01*
X568014Y232034D01*
X568089Y232106D01*
X569657Y233979D01*
X569672Y234006D01*
X569734Y234090D01*
X570945Y236211D01*
X570956Y236240D01*
X571001Y236334D01*
X571819Y238635D01*
X571822Y238652D01*
X571826Y238661D01*
X571828Y238679D01*
X571853Y238766D01*
X572251Y241176D01*
X572251Y241188D01*
X572256Y241207D01*
X574089Y256042D01*
X577329Y270597D01*
X581949Y284775D01*
X587908Y298445D01*
X595149Y311479D01*
X603608Y323760D01*
X613204Y335173D01*
X623851Y345614D01*
X635444Y354980D01*
X639959Y357837D01*
X644810Y360056D01*
X649916Y361604D01*
X655184Y362450D01*
X660517Y362579D01*
X665819Y361990D01*
X670994Y360693D01*
X675948Y358712D01*
X680590Y356082D01*
X684836Y352852D01*
X688608Y349080D01*
X691839Y344834D01*
X693305Y342247D01*
X693310Y342241D01*
X693312Y342235D01*
X693387Y342145D01*
X693460Y342055D01*
X693466Y342051D01*
X693470Y342046D01*
X693570Y341985D01*
X693667Y341923D01*
X693674Y341921D01*
X693680Y341917D01*
X693793Y341891D01*
X693906Y341863D01*
X693913Y341864D01*
X693919Y341862D01*
X694087Y341870D01*
X695199Y342046D01*
X695199Y338517D01*
X695209Y338457D01*
X695208Y338396D01*
X695233Y338306D01*
X695239Y338274D01*
X695246Y338260D01*
X695253Y338234D01*
X696451Y335240D01*
X696746Y334067D01*
X696758Y334039D01*
X696762Y334009D01*
X696806Y333927D01*
X696843Y333841D01*
X696863Y333818D01*
X696878Y333792D01*
X696945Y333728D01*
X697008Y333658D01*
X697034Y333643D01*
X697056Y333622D01*
X697141Y333583D01*
X697222Y333537D01*
X697252Y333531D01*
X697279Y333519D01*
X697372Y333508D01*
X697463Y333491D01*
X697493Y333495D01*
X697523Y333492D01*
X697615Y333511D01*
X697707Y333524D01*
X697734Y333537D01*
X697764Y333544D01*
X697844Y333592D01*
X697928Y333633D01*
X697949Y333655D01*
X697975Y333670D01*
X698036Y333741D01*
X698102Y333807D01*
X698115Y333834D01*
X698135Y333857D01*
X698170Y333944D01*
X698211Y334027D01*
X698215Y334057D01*
X698227Y334085D01*
X698245Y334252D01*
X698245Y342046D01*
X699518Y341845D01*
X701305Y341264D01*
X702979Y340411D01*
X704500Y339306D01*
X705828Y337978D01*
X706933Y336457D01*
X707786Y334783D01*
X708367Y332996D01*
X708568Y331723D01*
X698309Y331723D01*
X698197Y331705D01*
X698086Y331690D01*
X698076Y331685D01*
X698066Y331683D01*
X697967Y331631D01*
X697865Y331581D01*
X697858Y331573D01*
X697849Y331568D01*
X697771Y331487D01*
X697691Y331407D01*
X697687Y331398D01*
X697679Y331390D01*
X697632Y331288D01*
X697582Y331187D01*
X697580Y331176D01*
X697576Y331167D01*
X697563Y331055D01*
X697548Y330943D01*
X697550Y330931D01*
X697549Y330922D01*
X697554Y330898D01*
X697571Y330777D01*
X697762Y330015D01*
X697780Y329972D01*
X697788Y329936D01*
X697789Y329935D01*
X697792Y329920D01*
X697830Y329857D01*
X697859Y329789D01*
X697893Y329752D01*
X697918Y329709D01*
X697974Y329661D01*
X698024Y329606D01*
X698067Y329582D01*
X698105Y329549D01*
X698174Y329522D01*
X698238Y329485D01*
X698287Y329476D01*
X698333Y329457D01*
X698455Y329444D01*
X698480Y329439D01*
X698488Y329440D01*
X698500Y329439D01*
X713994Y329439D01*
X714014Y329442D01*
X714033Y329440D01*
X714135Y329462D01*
X714237Y329479D01*
X714254Y329488D01*
X714274Y329492D01*
X714363Y329545D01*
X714454Y329594D01*
X714468Y329608D01*
X714485Y329618D01*
X714552Y329697D01*
X714624Y329772D01*
X714632Y329790D01*
X714645Y329805D01*
X714684Y329901D01*
X714727Y329995D01*
X714729Y330015D01*
X714737Y330033D01*
X714755Y330200D01*
X714755Y332373D01*
X716418Y336387D01*
X719491Y339460D01*
X723505Y341123D01*
X727851Y341123D01*
X731865Y339460D01*
X734938Y336387D01*
X736601Y332373D01*
X736601Y330200D01*
X736603Y330187D01*
X736602Y330177D01*
X736603Y330171D01*
X736602Y330161D01*
X736624Y330059D01*
X736640Y329957D01*
X736650Y329940D01*
X736654Y329920D01*
X736707Y329831D01*
X736756Y329740D01*
X736770Y329726D01*
X736780Y329709D01*
X736859Y329642D01*
X736934Y329571D01*
X736952Y329562D01*
X736967Y329549D01*
X737063Y329510D01*
X737157Y329467D01*
X737177Y329465D01*
X737195Y329457D01*
X737362Y329439D01*
X759238Y329439D01*
X759246Y329440D01*
X759254Y329439D01*
X759367Y329460D01*
X759481Y329479D01*
X759488Y329482D01*
X759496Y329484D01*
X759597Y329540D01*
X759698Y329594D01*
X759704Y329599D01*
X759711Y329603D01*
X759789Y329689D01*
X759868Y329772D01*
X759871Y329779D01*
X759876Y329785D01*
X759923Y329890D01*
X759971Y329995D01*
X759972Y330003D01*
X759975Y330010D01*
X759999Y330176D01*
X760015Y330682D01*
X760014Y330689D01*
X760015Y330697D01*
X759999Y330864D01*
X757831Y341097D01*
X757829Y341103D01*
X757828Y341111D01*
X757773Y341269D01*
X753235Y350693D01*
X753231Y350700D01*
X753229Y350706D01*
X753137Y350847D01*
X746489Y358923D01*
X746484Y358928D01*
X746480Y358934D01*
X746358Y359049D01*
X737981Y365313D01*
X737954Y365327D01*
X737864Y365385D01*
X733177Y367720D01*
X733161Y367725D01*
X733138Y367738D01*
X733113Y367749D01*
X733111Y367749D01*
X733109Y367750D01*
X733085Y367760D01*
X733075Y367763D01*
X733061Y367770D01*
X724420Y371101D01*
X724391Y371107D01*
X724336Y371127D01*
X706406Y375735D01*
X706373Y375738D01*
X706290Y375755D01*
X687863Y377537D01*
X687830Y377535D01*
X687745Y377539D01*
X669265Y376452D01*
X669233Y376445D01*
X669148Y376436D01*
X651057Y372507D01*
X651027Y372495D01*
X650944Y372473D01*
X633678Y365795D01*
X633650Y365778D01*
X633572Y365744D01*
X617545Y356479D01*
X617520Y356458D01*
X617448Y356412D01*
X603045Y344781D01*
X603023Y344757D01*
X602959Y344700D01*
X590527Y330984D01*
X590511Y330959D01*
X590471Y330915D01*
X585409Y323824D01*
X585397Y323799D01*
X585391Y323793D01*
X585384Y323778D01*
X585343Y323713D01*
X571891Y295924D01*
X571881Y295893D01*
X571846Y295810D01*
X570450Y291128D01*
X564434Y281287D01*
X556100Y273314D01*
X546002Y267740D01*
X534814Y264936D01*
X523281Y265090D01*
X512171Y268191D01*
X508339Y270441D01*
X465162Y295799D01*
X465138Y295808D01*
X465096Y295834D01*
X455058Y300463D01*
X455032Y300470D01*
X454984Y300493D01*
X433636Y307743D01*
X433604Y307749D01*
X433533Y307770D01*
X411384Y311979D01*
X411351Y311980D01*
X411278Y311992D01*
X388759Y313077D01*
X388726Y313074D01*
X388652Y313075D01*
X366201Y311016D01*
X366169Y311008D01*
X366096Y310999D01*
X344149Y305835D01*
X344119Y305822D01*
X344115Y305821D01*
X344086Y305817D01*
X344074Y305810D01*
X344048Y305803D01*
X323033Y297635D01*
X323006Y297619D01*
X322937Y297590D01*
X303264Y286577D01*
X303239Y286557D01*
X303175Y286519D01*
X285227Y272875D01*
X285213Y272860D01*
X285196Y272850D01*
X285180Y272832D01*
X285147Y272805D01*
X269271Y256796D01*
X269255Y256773D01*
X269218Y256736D01*
X262847Y248800D01*
X262838Y248785D01*
X262826Y248773D01*
X262743Y248628D01*
X262508Y248089D01*
X261691Y247302D01*
X261672Y247275D01*
X261610Y247209D01*
X260931Y246300D01*
X260282Y245914D01*
X260279Y245912D01*
X260275Y245910D01*
X260142Y245808D01*
X251339Y237317D01*
X229489Y221465D01*
X205647Y208807D01*
X180275Y199591D01*
X153867Y193996D01*
X142184Y193187D01*
X142145Y193178D01*
X142106Y193177D01*
X141945Y193131D01*
X141728Y193041D01*
X140081Y193040D01*
X140062Y193036D01*
X140029Y193038D01*
X138386Y192924D01*
X138350Y192936D01*
X138296Y192945D01*
X138245Y192963D01*
X138137Y192971D01*
X138107Y192975D01*
X138096Y192974D01*
X138078Y192975D01*
X129570Y192635D01*
X129541Y192629D01*
X129481Y192626D01*
X109517Y189452D01*
X109486Y189441D01*
X109401Y189424D01*
X90180Y183167D01*
X90150Y183152D01*
X90070Y183121D01*
X72063Y173935D01*
X72036Y173916D01*
X71961Y173873D01*
X55612Y161984D01*
X55589Y161961D01*
X55522Y161907D01*
X41233Y147608D01*
X41214Y147581D01*
X41156Y147517D01*
X29279Y131160D01*
X29264Y131130D01*
X29216Y131058D01*
X20043Y113045D01*
X20033Y113013D01*
X19998Y112934D01*
X15659Y99574D01*
X15658Y99566D01*
X15654Y99559D01*
X15639Y99445D01*
X15622Y99331D01*
X15623Y99323D01*
X15622Y99315D01*
X15644Y99203D01*
X15664Y99088D01*
X15668Y99081D01*
X15670Y99074D01*
X15727Y98973D01*
X15782Y98872D01*
X15787Y98867D01*
X15791Y98860D01*
X15878Y98783D01*
X15962Y98705D01*
X15969Y98702D01*
X15975Y98696D01*
X16081Y98651D01*
X16186Y98604D01*
X16194Y98603D01*
X16201Y98600D01*
X16316Y98591D01*
X16431Y98579D01*
X16438Y98581D01*
X16446Y98580D01*
X16558Y98608D01*
X16670Y98634D01*
X16677Y98638D01*
X16685Y98640D01*
X16831Y98723D01*
X17365Y99111D01*
X19039Y99964D01*
X20826Y100545D01*
X22099Y100746D01*
X22099Y89662D01*
X22102Y89642D01*
X22100Y89623D01*
X22122Y89521D01*
X22139Y89419D01*
X22148Y89402D01*
X22152Y89382D01*
X22205Y89293D01*
X22254Y89202D01*
X22268Y89188D01*
X22278Y89171D01*
X22357Y89104D01*
X22432Y89033D01*
X22450Y89024D01*
X22465Y89011D01*
X22561Y88973D01*
X22655Y88929D01*
X22675Y88927D01*
X22693Y88919D01*
X22860Y88901D01*
X23623Y88901D01*
X23623Y88900D01*
X23626Y88880D01*
X23624Y88861D01*
X23646Y88759D01*
X23663Y88657D01*
X23672Y88640D01*
X23676Y88620D01*
X23729Y88531D01*
X23778Y88440D01*
X23792Y88426D01*
X23802Y88409D01*
X23881Y88342D01*
X23956Y88271D01*
X23974Y88262D01*
X23989Y88249D01*
X24085Y88210D01*
X24179Y88167D01*
X24199Y88165D01*
X24217Y88157D01*
X24384Y88139D01*
X40894Y88139D01*
X40914Y88142D01*
G37*
%LPC*%
G36*
X25145Y90423D02*
X25145Y90423D01*
X25145Y100746D01*
X26418Y100545D01*
X28205Y99964D01*
X29879Y99111D01*
X31400Y98006D01*
X32728Y96678D01*
X33833Y95157D01*
X34686Y93483D01*
X35267Y91696D01*
X35468Y90423D01*
X25145Y90423D01*
G37*
%LPD*%
%LPC*%
G36*
X727201Y303277D02*
X727201Y303277D01*
X737524Y303277D01*
X737323Y302004D01*
X736742Y300217D01*
X735889Y298543D01*
X734784Y297022D01*
X733456Y295694D01*
X731935Y294589D01*
X730261Y293736D01*
X728474Y293155D01*
X727201Y292954D01*
X727201Y303277D01*
G37*
%LPD*%
%LPC*%
G36*
X54101Y61977D02*
X54101Y61977D01*
X64424Y61977D01*
X64223Y60704D01*
X63642Y58917D01*
X62789Y57243D01*
X61684Y55722D01*
X60356Y54394D01*
X58835Y53289D01*
X57161Y52436D01*
X55374Y51855D01*
X54101Y51654D01*
X54101Y61977D01*
G37*
%LPD*%
%LPC*%
G36*
X722882Y293155D02*
X722882Y293155D01*
X721095Y293736D01*
X719421Y294589D01*
X717900Y295694D01*
X716572Y297022D01*
X715467Y298543D01*
X714614Y300217D01*
X714033Y302004D01*
X713832Y303277D01*
X724155Y303277D01*
X724155Y292954D01*
X722882Y293155D01*
G37*
%LPD*%
%LPC*%
G36*
X49782Y51855D02*
X49782Y51855D01*
X47995Y52436D01*
X46321Y53289D01*
X44800Y54394D01*
X43472Y55722D01*
X42367Y57243D01*
X41514Y58917D01*
X40933Y60704D01*
X40732Y61977D01*
X51055Y61977D01*
X51055Y51654D01*
X49782Y51855D01*
G37*
%LPD*%
D10*
X696722Y330200D03*
X725678Y330200D03*
X696722Y304800D03*
X725678Y304800D03*
X23622Y88900D03*
X52578Y88900D03*
X23622Y63500D03*
X52578Y63500D03*
M02*
