G04 EAGLE Gerber X2 export*
G75*
%MOMM*%
%FSLAX34Y34*%
%LPD*%
%AMOC8*
5,1,8,0,0,1.08239X$1,22.5*%
G01*
%ADD10C,1.879600*%

G36*
X211395Y10161D02*
X211395Y10161D01*
X211397Y10161D01*
X211564Y10180D01*
X221249Y12411D01*
X221276Y12422D01*
X221331Y12434D01*
X241701Y19606D01*
X241729Y19622D01*
X241805Y19652D01*
X260878Y29780D01*
X260904Y29800D01*
X260974Y29840D01*
X278325Y42698D01*
X278348Y42721D01*
X278411Y42772D01*
X293651Y58072D01*
X293671Y58099D01*
X293725Y58158D01*
X306515Y75558D01*
X306530Y75588D01*
X306576Y75655D01*
X316630Y94767D01*
X316639Y94795D01*
X316665Y94845D01*
X320120Y103698D01*
X320127Y103730D01*
X320141Y103759D01*
X320170Y103925D01*
X320194Y104284D01*
X320789Y105490D01*
X320798Y105519D01*
X320825Y105577D01*
X321267Y106846D01*
X321628Y107252D01*
X321638Y107268D01*
X321652Y107280D01*
X321742Y107422D01*
X346706Y158007D01*
X346707Y158007D01*
X348961Y162575D01*
X357997Y173958D01*
X369230Y183179D01*
X382155Y189823D01*
X396191Y193592D01*
X410706Y194316D01*
X425047Y191962D01*
X431808Y189299D01*
X433829Y188503D01*
X433830Y188503D01*
X514701Y156652D01*
X514727Y156647D01*
X514773Y156628D01*
X522059Y154567D01*
X522091Y154563D01*
X522162Y154545D01*
X537457Y152429D01*
X537486Y152430D01*
X537597Y152423D01*
X553022Y153145D01*
X553050Y153151D01*
X553160Y153165D01*
X568191Y156701D01*
X568218Y156712D01*
X568324Y156745D01*
X582453Y162976D01*
X582477Y162992D01*
X582575Y163044D01*
X595323Y171758D01*
X595344Y171778D01*
X595431Y171848D01*
X606366Y182750D01*
X606383Y182773D01*
X606456Y182858D01*
X607806Y184820D01*
X608853Y186343D01*
X609901Y187865D01*
X610948Y189388D01*
X611996Y190910D01*
X612519Y191671D01*
X612520Y191672D01*
X613567Y193194D01*
X614614Y194716D01*
X614614Y194717D01*
X615208Y195579D01*
X615220Y195605D01*
X615276Y195701D01*
X621549Y209811D01*
X621558Y209842D01*
X621585Y209910D01*
X623722Y217337D01*
X623724Y217351D01*
X623731Y217371D01*
X640906Y289400D01*
X640908Y289428D01*
X640926Y289540D01*
X640973Y290538D01*
X641353Y291345D01*
X641358Y291361D01*
X641405Y291493D01*
X641612Y292360D01*
X642198Y293169D01*
X642211Y293194D01*
X642270Y293291D01*
X642696Y294195D01*
X643355Y294795D01*
X643366Y294808D01*
X643460Y294912D01*
X643983Y295634D01*
X644834Y296157D01*
X644855Y296176D01*
X644947Y296242D01*
X646935Y298050D01*
X653914Y300567D01*
X661325Y300229D01*
X668045Y297086D01*
X673055Y291615D01*
X673843Y289457D01*
X673849Y289444D01*
X673853Y289431D01*
X673932Y289283D01*
X674280Y288782D01*
X674552Y287533D01*
X674564Y287503D01*
X674581Y287433D01*
X675019Y286232D01*
X674993Y285623D01*
X674994Y285609D01*
X674992Y285595D01*
X675009Y285428D01*
X675062Y285184D01*
X675524Y283061D01*
X675532Y283042D01*
X675538Y283008D01*
X676313Y280376D01*
X676315Y280371D01*
X676376Y280224D01*
X679017Y275431D01*
X679033Y275410D01*
X679044Y275386D01*
X679150Y275255D01*
X683049Y271416D01*
X683071Y271401D01*
X683088Y271381D01*
X683226Y271286D01*
X688060Y268720D01*
X688085Y268711D01*
X688107Y268697D01*
X688267Y268646D01*
X693631Y267566D01*
X693658Y267565D01*
X693683Y267558D01*
X693851Y267554D01*
X699301Y268052D01*
X699306Y268053D01*
X699462Y268084D01*
X702076Y268916D01*
X702095Y268925D01*
X702128Y268935D01*
X702909Y269247D01*
X704145Y269742D01*
X704146Y269742D01*
X718885Y275638D01*
X718893Y275642D01*
X718901Y275644D01*
X719048Y275727D01*
X748637Y297031D01*
X748647Y297041D01*
X748659Y297047D01*
X748779Y297164D01*
X751594Y300566D01*
X751609Y300592D01*
X751671Y300679D01*
X753774Y304428D01*
X753805Y304513D01*
X753843Y304595D01*
X753847Y304628D01*
X753858Y304659D01*
X753861Y304750D01*
X753871Y304839D01*
X753864Y304872D01*
X753864Y304905D01*
X753838Y304991D01*
X753818Y305080D01*
X753801Y305108D01*
X753792Y305140D01*
X753739Y305213D01*
X753692Y305291D01*
X753667Y305312D01*
X753648Y305339D01*
X753574Y305392D01*
X753505Y305451D01*
X753475Y305463D01*
X753448Y305482D01*
X753361Y305509D01*
X753277Y305543D01*
X753235Y305547D01*
X753213Y305554D01*
X753181Y305553D01*
X753110Y305561D01*
X737362Y305561D01*
X737342Y305558D01*
X737323Y305560D01*
X737221Y305538D01*
X737119Y305522D01*
X737102Y305512D01*
X737082Y305508D01*
X736993Y305455D01*
X736902Y305406D01*
X736888Y305392D01*
X736871Y305382D01*
X736804Y305303D01*
X736732Y305228D01*
X736724Y305210D01*
X736711Y305195D01*
X736672Y305099D01*
X736629Y305005D01*
X736627Y304985D01*
X736619Y304967D01*
X736601Y304800D01*
X736601Y302627D01*
X734938Y298613D01*
X731865Y295540D01*
X727851Y293877D01*
X723505Y293877D01*
X719491Y295540D01*
X716418Y298613D01*
X714755Y302627D01*
X714755Y304800D01*
X714752Y304820D01*
X714754Y304839D01*
X714732Y304941D01*
X714716Y305043D01*
X714706Y305060D01*
X714702Y305080D01*
X714649Y305169D01*
X714600Y305260D01*
X714586Y305274D01*
X714576Y305291D01*
X714497Y305358D01*
X714422Y305430D01*
X714404Y305438D01*
X714389Y305451D01*
X714293Y305490D01*
X714199Y305533D01*
X714179Y305535D01*
X714161Y305543D01*
X713994Y305561D01*
X697484Y305561D01*
X697464Y305558D01*
X697445Y305560D01*
X697343Y305538D01*
X697241Y305522D01*
X697224Y305512D01*
X697204Y305508D01*
X697115Y305455D01*
X697024Y305406D01*
X697010Y305392D01*
X696993Y305382D01*
X696926Y305303D01*
X696855Y305228D01*
X696846Y305210D01*
X696833Y305195D01*
X696795Y305099D01*
X696751Y305005D01*
X696749Y304985D01*
X696741Y304967D01*
X696723Y304800D01*
X696723Y304799D01*
X696721Y304799D01*
X696721Y304800D01*
X696718Y304820D01*
X696720Y304839D01*
X696698Y304941D01*
X696681Y305043D01*
X696672Y305060D01*
X696668Y305080D01*
X696615Y305169D01*
X696566Y305260D01*
X696552Y305274D01*
X696542Y305291D01*
X696463Y305358D01*
X696388Y305430D01*
X696370Y305438D01*
X696355Y305451D01*
X696259Y305490D01*
X696165Y305533D01*
X696145Y305535D01*
X696127Y305543D01*
X695960Y305561D01*
X673861Y305561D01*
X673861Y342900D01*
X673851Y342965D01*
X673850Y343030D01*
X673831Y343085D01*
X673822Y343143D01*
X673791Y343201D01*
X673769Y343263D01*
X673734Y343309D01*
X673706Y343360D01*
X673659Y343405D01*
X673619Y343457D01*
X673552Y343507D01*
X673528Y343530D01*
X673510Y343538D01*
X673484Y343557D01*
X670572Y345260D01*
X670541Y345272D01*
X670468Y345311D01*
X667333Y346556D01*
X667300Y346563D01*
X667223Y346590D01*
X667115Y346615D01*
X663935Y347348D01*
X663903Y347351D01*
X663822Y347366D01*
X660458Y347621D01*
X660425Y347618D01*
X660343Y347621D01*
X656978Y347366D01*
X656946Y347358D01*
X656865Y347348D01*
X653577Y346590D01*
X653547Y346577D01*
X653467Y346556D01*
X650332Y345311D01*
X650303Y345294D01*
X650228Y345260D01*
X647316Y343557D01*
X647292Y343538D01*
X647239Y343506D01*
X636346Y335225D01*
X636329Y335207D01*
X636293Y335181D01*
X626194Y325949D01*
X626178Y325929D01*
X626145Y325900D01*
X616922Y315792D01*
X616908Y315772D01*
X616877Y315740D01*
X608606Y304839D01*
X608594Y304818D01*
X608567Y304783D01*
X601314Y293179D01*
X601305Y293156D01*
X601281Y293119D01*
X595107Y280907D01*
X595100Y280884D01*
X595079Y280845D01*
X590035Y268125D01*
X590030Y268101D01*
X590013Y268060D01*
X586140Y254936D01*
X586137Y254911D01*
X586124Y254869D01*
X583455Y241457D01*
X582531Y237356D01*
X581055Y233465D01*
X579048Y229821D01*
X576548Y226494D01*
X573606Y223552D01*
X570279Y221052D01*
X566635Y219045D01*
X562744Y217569D01*
X558676Y216652D01*
X543868Y215093D01*
X528970Y214908D01*
X514118Y216098D01*
X499440Y218655D01*
X485060Y222556D01*
X471102Y227767D01*
X457685Y234245D01*
X444893Y241952D01*
X444889Y241954D01*
X444885Y241957D01*
X436756Y246716D01*
X436728Y246726D01*
X436676Y246756D01*
X428045Y250527D01*
X428016Y250535D01*
X427961Y250558D01*
X418946Y253290D01*
X418917Y253294D01*
X418859Y253311D01*
X409587Y254965D01*
X409557Y254966D01*
X409498Y254976D01*
X400095Y255530D01*
X400065Y255527D01*
X400005Y255530D01*
X390602Y254976D01*
X390573Y254969D01*
X390513Y254965D01*
X381241Y253311D01*
X381213Y253301D01*
X381154Y253290D01*
X372139Y250558D01*
X372112Y250545D01*
X372055Y250527D01*
X363424Y246756D01*
X363399Y246740D01*
X363344Y246716D01*
X355215Y241957D01*
X355196Y241941D01*
X355156Y241918D01*
X324014Y219544D01*
X324000Y219530D01*
X323972Y219512D01*
X294449Y195041D01*
X294436Y195026D01*
X294410Y195006D01*
X266646Y168555D01*
X266634Y168539D01*
X266609Y168518D01*
X240742Y140218D01*
X227990Y126508D01*
X214126Y113973D01*
X212545Y112775D01*
X209532Y110491D01*
X207524Y108968D01*
X207523Y108968D01*
X204511Y106685D01*
X202502Y105162D01*
X199489Y102878D01*
X199231Y102682D01*
X183415Y92720D01*
X166799Y84161D01*
X149506Y77069D01*
X131664Y71498D01*
X113408Y67488D01*
X94874Y65070D01*
X76184Y64261D01*
X64262Y64261D01*
X64242Y64258D01*
X64223Y64260D01*
X64121Y64238D01*
X64019Y64222D01*
X64002Y64212D01*
X63982Y64208D01*
X63893Y64155D01*
X63802Y64106D01*
X63788Y64092D01*
X63771Y64082D01*
X63704Y64003D01*
X63632Y63928D01*
X63624Y63910D01*
X63611Y63895D01*
X63572Y63799D01*
X63529Y63705D01*
X63527Y63685D01*
X63519Y63667D01*
X63501Y63500D01*
X63501Y61327D01*
X61838Y57313D01*
X58765Y54240D01*
X54751Y52577D01*
X50405Y52577D01*
X46391Y54240D01*
X43318Y57313D01*
X41655Y61327D01*
X41655Y63500D01*
X41652Y63520D01*
X41654Y63539D01*
X41632Y63641D01*
X41616Y63743D01*
X41606Y63760D01*
X41602Y63780D01*
X41549Y63869D01*
X41500Y63960D01*
X41486Y63974D01*
X41476Y63991D01*
X41397Y64058D01*
X41322Y64130D01*
X41304Y64138D01*
X41289Y64151D01*
X41193Y64190D01*
X41099Y64233D01*
X41079Y64235D01*
X41061Y64243D01*
X40894Y64261D01*
X24384Y64261D01*
X24364Y64258D01*
X24345Y64260D01*
X24243Y64238D01*
X24141Y64222D01*
X24124Y64212D01*
X24104Y64208D01*
X24015Y64155D01*
X23924Y64106D01*
X23910Y64092D01*
X23893Y64082D01*
X23826Y64003D01*
X23755Y63928D01*
X23746Y63910D01*
X23733Y63895D01*
X23695Y63799D01*
X23651Y63705D01*
X23649Y63685D01*
X23641Y63667D01*
X23623Y63500D01*
X23623Y63499D01*
X22860Y63499D01*
X22840Y63496D01*
X22821Y63498D01*
X22719Y63476D01*
X22617Y63459D01*
X22600Y63450D01*
X22580Y63446D01*
X22491Y63393D01*
X22400Y63344D01*
X22386Y63330D01*
X22369Y63320D01*
X22302Y63241D01*
X22231Y63166D01*
X22222Y63148D01*
X22209Y63133D01*
X22170Y63037D01*
X22127Y62943D01*
X22125Y62923D01*
X22117Y62905D01*
X22099Y62738D01*
X22099Y51654D01*
X20826Y51855D01*
X19039Y52436D01*
X17365Y53289D01*
X15844Y54394D01*
X14516Y55722D01*
X13411Y57243D01*
X12558Y58917D01*
X11977Y60704D01*
X11738Y62216D01*
X11712Y62294D01*
X11695Y62374D01*
X11674Y62410D01*
X11661Y62449D01*
X11611Y62515D01*
X11569Y62586D01*
X11538Y62613D01*
X11513Y62646D01*
X11445Y62693D01*
X11383Y62746D01*
X11344Y62762D01*
X11310Y62785D01*
X11231Y62808D01*
X11155Y62839D01*
X11113Y62841D01*
X11074Y62853D01*
X10992Y62849D01*
X10909Y62854D01*
X10869Y62843D01*
X10828Y62841D01*
X10751Y62811D01*
X10672Y62790D01*
X10637Y62767D01*
X10599Y62752D01*
X10536Y62699D01*
X10467Y62654D01*
X10442Y62621D01*
X10410Y62594D01*
X10367Y62524D01*
X10317Y62459D01*
X10303Y62420D01*
X10281Y62385D01*
X10263Y62305D01*
X10236Y62227D01*
X10233Y62173D01*
X10226Y62145D01*
X10228Y62102D01*
X10226Y62059D01*
X10414Y58219D01*
X10421Y58187D01*
X10428Y58108D01*
X12435Y48018D01*
X12443Y47996D01*
X12478Y47875D01*
X16415Y38371D01*
X16428Y38350D01*
X16486Y38239D01*
X22201Y29685D01*
X22218Y29668D01*
X22296Y29570D01*
X29570Y22296D01*
X29589Y22282D01*
X29685Y22201D01*
X38239Y16486D01*
X38261Y16476D01*
X38371Y16415D01*
X47875Y12478D01*
X47898Y12473D01*
X48018Y12435D01*
X58108Y10428D01*
X58141Y10427D01*
X58219Y10414D01*
X63363Y10162D01*
X63377Y10163D01*
X63400Y10161D01*
X211393Y10161D01*
X211395Y10161D01*
G37*
G36*
X51836Y88142D02*
X51836Y88142D01*
X51855Y88140D01*
X51957Y88162D01*
X52059Y88179D01*
X52076Y88188D01*
X52096Y88192D01*
X52185Y88245D01*
X52276Y88294D01*
X52290Y88308D01*
X52307Y88318D01*
X52374Y88397D01*
X52445Y88472D01*
X52454Y88490D01*
X52467Y88505D01*
X52505Y88601D01*
X52549Y88695D01*
X52551Y88715D01*
X52559Y88733D01*
X52577Y88900D01*
X52577Y88901D01*
X52579Y88901D01*
X52579Y88900D01*
X52582Y88880D01*
X52580Y88861D01*
X52602Y88759D01*
X52619Y88657D01*
X52628Y88640D01*
X52632Y88620D01*
X52685Y88531D01*
X52734Y88440D01*
X52748Y88426D01*
X52758Y88409D01*
X52837Y88342D01*
X52912Y88271D01*
X52930Y88262D01*
X52945Y88249D01*
X53041Y88210D01*
X53135Y88167D01*
X53155Y88165D01*
X53173Y88157D01*
X53340Y88139D01*
X63500Y88139D01*
X63512Y88141D01*
X63531Y88139D01*
X83392Y88944D01*
X83414Y88949D01*
X83453Y88949D01*
X103184Y91357D01*
X103206Y91364D01*
X103245Y91367D01*
X122717Y95364D01*
X122738Y95372D01*
X122777Y95379D01*
X141861Y100938D01*
X141881Y100947D01*
X141919Y100957D01*
X160492Y108041D01*
X160511Y108053D01*
X160548Y108066D01*
X178487Y116629D01*
X178505Y116642D01*
X178541Y116658D01*
X195728Y126644D01*
X195745Y126658D01*
X195780Y126677D01*
X212103Y138021D01*
X212119Y138036D01*
X212152Y138058D01*
X227504Y150685D01*
X227518Y150702D01*
X227550Y150726D01*
X241830Y164553D01*
X241830Y164554D01*
X241831Y164555D01*
X267824Y189891D01*
X295606Y213207D01*
X325043Y234394D01*
X355967Y253332D01*
X365162Y257835D01*
X374803Y261262D01*
X384770Y263571D01*
X394934Y264734D01*
X405166Y264734D01*
X415330Y263571D01*
X425297Y261262D01*
X434938Y257835D01*
X444161Y253319D01*
X459277Y245633D01*
X459300Y245626D01*
X459336Y245606D01*
X475049Y239212D01*
X475072Y239207D01*
X475109Y239191D01*
X491303Y234136D01*
X491326Y234132D01*
X491365Y234119D01*
X493900Y233556D01*
X497325Y232795D01*
X500751Y232033D01*
X504177Y231272D01*
X507602Y230511D01*
X507926Y230439D01*
X507949Y230438D01*
X507989Y230428D01*
X524799Y228148D01*
X524823Y228149D01*
X524863Y228143D01*
X541806Y227280D01*
X541829Y227282D01*
X541870Y227279D01*
X558825Y227839D01*
X558856Y227845D01*
X558924Y227849D01*
X561334Y228247D01*
X561363Y228257D01*
X561465Y228281D01*
X563766Y229099D01*
X563793Y229113D01*
X563889Y229155D01*
X566010Y230366D01*
X566034Y230386D01*
X566121Y230443D01*
X567994Y232011D01*
X568014Y232034D01*
X568089Y232106D01*
X569657Y233979D01*
X569672Y234006D01*
X569734Y234090D01*
X570945Y236211D01*
X570956Y236240D01*
X571001Y236334D01*
X571819Y238635D01*
X571822Y238652D01*
X571826Y238661D01*
X571828Y238679D01*
X571853Y238766D01*
X572251Y241176D01*
X572251Y241188D01*
X572256Y241207D01*
X574089Y256042D01*
X577329Y270597D01*
X581949Y284775D01*
X587908Y298445D01*
X595149Y311479D01*
X603608Y323760D01*
X613204Y335173D01*
X623851Y345614D01*
X635444Y354980D01*
X639959Y357837D01*
X644810Y360056D01*
X649916Y361604D01*
X655184Y362450D01*
X660517Y362579D01*
X665819Y361990D01*
X670994Y360693D01*
X675948Y358712D01*
X680590Y356082D01*
X684836Y352852D01*
X688608Y349080D01*
X691839Y344834D01*
X693726Y341505D01*
X693787Y341429D01*
X693843Y341349D01*
X693864Y341334D01*
X693880Y341313D01*
X693962Y341261D01*
X694040Y341203D01*
X694065Y341195D01*
X694088Y341181D01*
X694182Y341157D01*
X694230Y341142D01*
X694231Y341141D01*
X694274Y341127D01*
X694301Y341128D01*
X694326Y341121D01*
X694375Y341125D01*
X694398Y341123D01*
X698895Y341123D01*
X702909Y339460D01*
X705982Y336387D01*
X707645Y332373D01*
X707645Y330200D01*
X707647Y330187D01*
X707646Y330177D01*
X707647Y330171D01*
X707646Y330161D01*
X707668Y330059D01*
X707684Y329957D01*
X707694Y329940D01*
X707698Y329920D01*
X707751Y329831D01*
X707800Y329740D01*
X707814Y329726D01*
X707824Y329709D01*
X707903Y329642D01*
X707978Y329571D01*
X707996Y329562D01*
X708011Y329549D01*
X708107Y329510D01*
X708201Y329467D01*
X708221Y329465D01*
X708239Y329457D01*
X708406Y329439D01*
X724916Y329439D01*
X724936Y329442D01*
X724955Y329440D01*
X725057Y329462D01*
X725159Y329479D01*
X725176Y329488D01*
X725196Y329492D01*
X725285Y329545D01*
X725376Y329594D01*
X725390Y329608D01*
X725407Y329618D01*
X725474Y329697D01*
X725545Y329772D01*
X725554Y329790D01*
X725567Y329805D01*
X725605Y329901D01*
X725649Y329995D01*
X725651Y330015D01*
X725659Y330033D01*
X725677Y330200D01*
X725677Y330201D01*
X725679Y330201D01*
X725679Y330200D01*
X725681Y330187D01*
X725680Y330177D01*
X725681Y330171D01*
X725680Y330161D01*
X725702Y330059D01*
X725719Y329957D01*
X725728Y329940D01*
X725732Y329920D01*
X725785Y329831D01*
X725834Y329740D01*
X725848Y329726D01*
X725858Y329709D01*
X725937Y329642D01*
X726012Y329571D01*
X726030Y329562D01*
X726045Y329549D01*
X726141Y329510D01*
X726235Y329467D01*
X726255Y329465D01*
X726273Y329457D01*
X726440Y329439D01*
X759238Y329439D01*
X759246Y329440D01*
X759254Y329439D01*
X759367Y329460D01*
X759481Y329479D01*
X759488Y329482D01*
X759496Y329484D01*
X759597Y329540D01*
X759698Y329594D01*
X759704Y329599D01*
X759711Y329603D01*
X759789Y329689D01*
X759868Y329772D01*
X759871Y329779D01*
X759876Y329785D01*
X759923Y329890D01*
X759971Y329995D01*
X759972Y330003D01*
X759975Y330010D01*
X759999Y330176D01*
X760015Y330682D01*
X760014Y330689D01*
X760015Y330697D01*
X759999Y330864D01*
X757831Y341097D01*
X757829Y341103D01*
X757828Y341111D01*
X757773Y341269D01*
X753235Y350693D01*
X753231Y350700D01*
X753229Y350706D01*
X753137Y350847D01*
X746489Y358923D01*
X746484Y358928D01*
X746480Y358934D01*
X746358Y359049D01*
X737981Y365313D01*
X737954Y365327D01*
X737864Y365385D01*
X733177Y367720D01*
X733161Y367725D01*
X733138Y367738D01*
X733113Y367749D01*
X733111Y367749D01*
X733109Y367750D01*
X733085Y367760D01*
X733075Y367763D01*
X733061Y367770D01*
X724420Y371101D01*
X724391Y371107D01*
X724336Y371127D01*
X706406Y375735D01*
X706373Y375738D01*
X706290Y375755D01*
X687863Y377537D01*
X687830Y377535D01*
X687745Y377539D01*
X669265Y376452D01*
X669233Y376445D01*
X669148Y376436D01*
X651057Y372507D01*
X651027Y372495D01*
X650944Y372473D01*
X633678Y365795D01*
X633650Y365778D01*
X633572Y365744D01*
X617545Y356479D01*
X617520Y356458D01*
X617448Y356412D01*
X603045Y344781D01*
X603023Y344757D01*
X602959Y344700D01*
X590527Y330984D01*
X590511Y330959D01*
X590471Y330915D01*
X585409Y323824D01*
X585397Y323799D01*
X585391Y323793D01*
X585384Y323778D01*
X585343Y323713D01*
X571891Y295924D01*
X571881Y295893D01*
X571846Y295810D01*
X570450Y291128D01*
X564434Y281287D01*
X556100Y273314D01*
X546002Y267740D01*
X534814Y264936D01*
X523281Y265090D01*
X512171Y268191D01*
X508339Y270441D01*
X465162Y295799D01*
X465138Y295808D01*
X465096Y295834D01*
X455058Y300463D01*
X455032Y300470D01*
X454984Y300493D01*
X433636Y307743D01*
X433604Y307749D01*
X433533Y307770D01*
X411384Y311979D01*
X411351Y311980D01*
X411278Y311992D01*
X388759Y313077D01*
X388726Y313074D01*
X388652Y313075D01*
X366201Y311016D01*
X366169Y311008D01*
X366096Y310999D01*
X344149Y305835D01*
X344119Y305822D01*
X344115Y305821D01*
X344086Y305817D01*
X344074Y305810D01*
X344048Y305803D01*
X323033Y297635D01*
X323006Y297619D01*
X322937Y297590D01*
X303264Y286577D01*
X303239Y286557D01*
X303175Y286519D01*
X285227Y272875D01*
X285213Y272860D01*
X285196Y272850D01*
X285180Y272832D01*
X285147Y272805D01*
X269271Y256796D01*
X269255Y256773D01*
X269218Y256736D01*
X262847Y248800D01*
X262838Y248785D01*
X262826Y248773D01*
X262743Y248628D01*
X262508Y248089D01*
X261691Y247302D01*
X261672Y247275D01*
X261610Y247209D01*
X260931Y246300D01*
X260282Y245914D01*
X260279Y245912D01*
X260275Y245910D01*
X260142Y245808D01*
X251339Y237317D01*
X229489Y221465D01*
X205647Y208807D01*
X180275Y199591D01*
X153867Y193996D01*
X142184Y193187D01*
X142145Y193178D01*
X142106Y193177D01*
X141945Y193131D01*
X141728Y193041D01*
X140081Y193040D01*
X140062Y193036D01*
X140029Y193038D01*
X138386Y192924D01*
X138350Y192936D01*
X138296Y192945D01*
X138245Y192963D01*
X138137Y192971D01*
X138107Y192975D01*
X138096Y192974D01*
X138078Y192975D01*
X129570Y192635D01*
X129541Y192629D01*
X129481Y192626D01*
X109517Y189452D01*
X109486Y189441D01*
X109401Y189424D01*
X90180Y183167D01*
X90150Y183152D01*
X90070Y183121D01*
X72063Y173935D01*
X72036Y173916D01*
X71961Y173873D01*
X55612Y161984D01*
X55589Y161961D01*
X55522Y161907D01*
X41233Y147608D01*
X41214Y147581D01*
X41156Y147517D01*
X29279Y131160D01*
X29264Y131130D01*
X29216Y131058D01*
X20043Y113045D01*
X20033Y113013D01*
X19998Y112934D01*
X15104Y97865D01*
X15094Y97798D01*
X15074Y97733D01*
X15076Y97677D01*
X15067Y97622D01*
X15079Y97555D01*
X15080Y97487D01*
X15100Y97435D01*
X15109Y97380D01*
X15142Y97320D01*
X15165Y97256D01*
X15200Y97213D01*
X15227Y97163D01*
X15276Y97117D01*
X15319Y97064D01*
X15366Y97034D01*
X15407Y96996D01*
X15469Y96968D01*
X15526Y96931D01*
X15580Y96918D01*
X15631Y96895D01*
X15698Y96888D01*
X15764Y96871D01*
X15820Y96876D01*
X15876Y96870D01*
X15942Y96885D01*
X16009Y96891D01*
X16061Y96912D01*
X16116Y96925D01*
X16173Y96960D01*
X16236Y96987D01*
X16297Y97036D01*
X16325Y97053D01*
X16339Y97069D01*
X16367Y97092D01*
X17435Y98160D01*
X21449Y99823D01*
X25795Y99823D01*
X29809Y98160D01*
X32882Y95087D01*
X34545Y91073D01*
X34545Y88900D01*
X34548Y88880D01*
X34546Y88861D01*
X34568Y88759D01*
X34584Y88657D01*
X34594Y88640D01*
X34598Y88620D01*
X34651Y88531D01*
X34700Y88440D01*
X34714Y88426D01*
X34724Y88409D01*
X34803Y88342D01*
X34878Y88271D01*
X34896Y88262D01*
X34911Y88249D01*
X35007Y88210D01*
X35101Y88167D01*
X35121Y88165D01*
X35139Y88157D01*
X35306Y88139D01*
X51816Y88139D01*
X51836Y88142D01*
G37*
%LPC*%
G36*
X727201Y331723D02*
X727201Y331723D01*
X727201Y342046D01*
X728474Y341845D01*
X730261Y341264D01*
X731935Y340411D01*
X733456Y339306D01*
X734784Y337978D01*
X735889Y336457D01*
X736742Y334783D01*
X737323Y332996D01*
X737524Y331723D01*
X727201Y331723D01*
G37*
%LPD*%
%LPC*%
G36*
X54101Y90423D02*
X54101Y90423D01*
X54101Y100746D01*
X55374Y100545D01*
X57161Y99964D01*
X58835Y99111D01*
X60356Y98006D01*
X61684Y96678D01*
X62789Y95157D01*
X63642Y93483D01*
X64223Y91696D01*
X64424Y90423D01*
X54101Y90423D01*
G37*
%LPD*%
%LPC*%
G36*
X713832Y331723D02*
X713832Y331723D01*
X714033Y332996D01*
X714614Y334783D01*
X715467Y336457D01*
X716572Y337978D01*
X717900Y339306D01*
X719421Y340411D01*
X721095Y341264D01*
X722882Y341845D01*
X724155Y342046D01*
X724155Y331723D01*
X713832Y331723D01*
G37*
%LPD*%
%LPC*%
G36*
X698245Y303277D02*
X698245Y303277D01*
X708568Y303277D01*
X708367Y302004D01*
X707786Y300217D01*
X706933Y298543D01*
X705828Y297022D01*
X704500Y295694D01*
X702979Y294589D01*
X701305Y293736D01*
X699518Y293155D01*
X698245Y292954D01*
X698245Y303277D01*
G37*
%LPD*%
%LPC*%
G36*
X40732Y90423D02*
X40732Y90423D01*
X40933Y91696D01*
X41514Y93483D01*
X42367Y95157D01*
X43472Y96678D01*
X44800Y98006D01*
X46321Y99111D01*
X47995Y99964D01*
X49782Y100545D01*
X51055Y100746D01*
X51055Y90423D01*
X40732Y90423D01*
G37*
%LPD*%
%LPC*%
G36*
X25145Y61977D02*
X25145Y61977D01*
X35468Y61977D01*
X35267Y60704D01*
X34686Y58917D01*
X33833Y57243D01*
X32728Y55722D01*
X31400Y54394D01*
X29879Y53289D01*
X28205Y52436D01*
X26418Y51855D01*
X25145Y51654D01*
X25145Y61977D01*
G37*
%LPD*%
%LPC*%
G36*
X693926Y293155D02*
X693926Y293155D01*
X692139Y293736D01*
X690465Y294589D01*
X688944Y295694D01*
X687616Y297022D01*
X686511Y298543D01*
X685658Y300217D01*
X685077Y302004D01*
X684876Y303277D01*
X695199Y303277D01*
X695199Y292954D01*
X693926Y293155D01*
G37*
%LPD*%
D10*
X696722Y330200D03*
X725678Y330200D03*
X696722Y304800D03*
X725678Y304800D03*
X23622Y88900D03*
X52578Y88900D03*
X23622Y63500D03*
X52578Y63500D03*
M02*
