G04 EAGLE Gerber X2 export*
G75*
%MOMM*%
%FSLAX34Y34*%
%LPD*%
%AMOC8*
5,1,8,0,0,1.08239X$1,22.5*%
G01*
%ADD10C,1.879600*%

G36*
X75086Y2549D02*
X75086Y2549D01*
X75137Y2547D01*
X75207Y2569D01*
X75279Y2580D01*
X75324Y2604D01*
X75373Y2619D01*
X75473Y2683D01*
X75496Y2696D01*
X75502Y2702D01*
X75514Y2709D01*
X88448Y13138D01*
X88454Y13144D01*
X88461Y13148D01*
X88471Y13159D01*
X88489Y13173D01*
X114388Y37298D01*
X114404Y37319D01*
X114439Y37350D01*
X137928Y63828D01*
X137941Y63850D01*
X137973Y63884D01*
X158838Y92475D01*
X158850Y92498D01*
X158878Y92536D01*
X176932Y122980D01*
X176941Y123004D01*
X176966Y123044D01*
X192043Y155067D01*
X192050Y155092D01*
X192071Y155134D01*
X204036Y188445D01*
X204041Y188470D01*
X204057Y188514D01*
X212802Y222812D01*
X212804Y222837D01*
X212817Y222883D01*
X218262Y257856D01*
X218261Y257882D01*
X218269Y257928D01*
X220365Y293261D01*
X220363Y293286D01*
X220366Y293333D01*
X219094Y328705D01*
X219090Y328725D01*
X219090Y328759D01*
X217232Y345998D01*
X217228Y346014D01*
X217228Y346031D01*
X217185Y346193D01*
X216961Y346767D01*
X217013Y346886D01*
X217046Y347017D01*
X217074Y347124D01*
X217074Y347125D01*
X217074Y347126D01*
X217071Y347292D01*
X217053Y347421D01*
X217451Y347939D01*
X217454Y347946D01*
X217460Y347951D01*
X217544Y348097D01*
X222979Y360484D01*
X236351Y384918D01*
X251801Y408094D01*
X269213Y429835D01*
X278584Y439644D01*
X278586Y439648D01*
X278684Y439775D01*
X279043Y440367D01*
X279129Y440388D01*
X279137Y440392D01*
X279146Y440392D01*
X279250Y440440D01*
X279355Y440485D01*
X279362Y440490D01*
X279370Y440494D01*
X279498Y440602D01*
X279560Y440666D01*
X280251Y440682D01*
X280256Y440683D01*
X280415Y440704D01*
X281087Y440868D01*
X281163Y440822D01*
X281171Y440819D01*
X281178Y440813D01*
X281285Y440773D01*
X281391Y440730D01*
X281400Y440730D01*
X281408Y440727D01*
X281575Y440712D01*
X281664Y440714D01*
X282133Y440266D01*
X282141Y440260D01*
X282148Y440253D01*
X282283Y440154D01*
X293907Y433563D01*
X293929Y433555D01*
X293966Y433533D01*
X318843Y422167D01*
X318871Y422159D01*
X318925Y422135D01*
X344953Y413733D01*
X344983Y413729D01*
X345039Y413711D01*
X371866Y408388D01*
X371896Y408387D01*
X371954Y408376D01*
X399218Y406203D01*
X399248Y406206D01*
X399307Y406202D01*
X426638Y407209D01*
X426662Y407214D01*
X426705Y407214D01*
X439901Y408861D01*
X439924Y408868D01*
X439949Y408868D01*
X440109Y408918D01*
X440645Y409150D01*
X440791Y409092D01*
X440848Y409080D01*
X440880Y409067D01*
X440931Y409061D01*
X441019Y409040D01*
X441026Y409041D01*
X441031Y409040D01*
X441050Y409042D01*
X441187Y409048D01*
X441342Y409072D01*
X441848Y408701D01*
X441860Y408695D01*
X441870Y408685D01*
X442019Y408607D01*
X558771Y362494D01*
X560043Y361991D01*
X560063Y361987D01*
X560095Y361973D01*
X563532Y360892D01*
X563540Y360891D01*
X563692Y360861D01*
X570852Y360218D01*
X570877Y360219D01*
X570902Y360215D01*
X571069Y360229D01*
X578118Y361636D01*
X578142Y361645D01*
X578167Y361648D01*
X578323Y361709D01*
X584687Y365051D01*
X584708Y365067D01*
X584731Y365076D01*
X584863Y365179D01*
X590023Y370184D01*
X590028Y370191D01*
X590127Y370310D01*
X592111Y373301D01*
X592122Y373325D01*
X592150Y373367D01*
X641394Y466803D01*
X641409Y466847D01*
X641432Y466888D01*
X641465Y467017D01*
X641472Y467036D01*
X641472Y467042D01*
X641474Y467050D01*
X641948Y470376D01*
X641947Y470395D01*
X641952Y470414D01*
X641949Y470581D01*
X641011Y477837D01*
X640996Y477888D01*
X640990Y477941D01*
X640949Y478046D01*
X640941Y478073D01*
X640934Y478082D01*
X640928Y478097D01*
X637495Y484558D01*
X637463Y484600D01*
X637439Y484648D01*
X637363Y484731D01*
X637346Y484754D01*
X637337Y484760D01*
X637326Y484772D01*
X631837Y489609D01*
X631792Y489637D01*
X631753Y489673D01*
X631652Y489725D01*
X631628Y489740D01*
X631618Y489742D01*
X631603Y489750D01*
X624762Y492344D01*
X624743Y492347D01*
X624727Y492356D01*
X624562Y492390D01*
X620905Y492729D01*
X620880Y492727D01*
X620837Y492732D01*
X620113Y492734D01*
X609602Y492759D01*
X609601Y492759D01*
X609600Y492759D01*
X584200Y492759D01*
X584180Y492756D01*
X584161Y492758D01*
X584059Y492736D01*
X583957Y492720D01*
X583940Y492710D01*
X583920Y492706D01*
X583831Y492653D01*
X583740Y492604D01*
X583726Y492590D01*
X583709Y492580D01*
X583642Y492501D01*
X583571Y492426D01*
X583562Y492408D01*
X583549Y492393D01*
X583510Y492297D01*
X583467Y492203D01*
X583465Y492183D01*
X583457Y492165D01*
X583439Y491998D01*
X583439Y481584D01*
X583442Y481564D01*
X583440Y481545D01*
X583462Y481443D01*
X583479Y481341D01*
X583488Y481324D01*
X583492Y481304D01*
X583545Y481215D01*
X583594Y481124D01*
X583608Y481110D01*
X583618Y481093D01*
X583697Y481026D01*
X583772Y480954D01*
X583790Y480946D01*
X583805Y480933D01*
X583901Y480894D01*
X583995Y480851D01*
X584015Y480849D01*
X584033Y480841D01*
X584200Y480823D01*
X588151Y480823D01*
X592165Y479160D01*
X595238Y476087D01*
X596901Y472073D01*
X596901Y467727D01*
X595238Y463713D01*
X592165Y460640D01*
X588151Y458977D01*
X584200Y458977D01*
X584180Y458974D01*
X584161Y458976D01*
X584059Y458954D01*
X583957Y458938D01*
X583940Y458928D01*
X583920Y458924D01*
X583831Y458871D01*
X583740Y458822D01*
X583726Y458808D01*
X583709Y458798D01*
X583642Y458719D01*
X583571Y458644D01*
X583562Y458626D01*
X583549Y458611D01*
X583510Y458515D01*
X583467Y458421D01*
X583465Y458401D01*
X583457Y458383D01*
X583439Y458216D01*
X583439Y457077D01*
X583452Y456998D01*
X583455Y456919D01*
X583471Y456878D01*
X583479Y456834D01*
X583516Y456764D01*
X583545Y456690D01*
X583573Y456656D01*
X583594Y456617D01*
X583651Y456562D01*
X583702Y456501D01*
X583740Y456478D01*
X583772Y456447D01*
X583844Y456414D01*
X583912Y456372D01*
X583955Y456362D01*
X583995Y456344D01*
X584074Y456335D01*
X584152Y456317D01*
X584210Y456320D01*
X584239Y456316D01*
X584267Y456322D01*
X584319Y456325D01*
X584455Y456346D01*
X584455Y445262D01*
X584458Y445242D01*
X584456Y445223D01*
X584478Y445121D01*
X584495Y445019D01*
X584504Y445002D01*
X584508Y444982D01*
X584561Y444893D01*
X584610Y444802D01*
X584624Y444788D01*
X584634Y444771D01*
X584713Y444704D01*
X584788Y444633D01*
X584806Y444624D01*
X584821Y444611D01*
X584917Y444573D01*
X585011Y444529D01*
X585031Y444527D01*
X585049Y444519D01*
X585216Y444501D01*
X585979Y444501D01*
X585979Y444499D01*
X585216Y444499D01*
X585196Y444496D01*
X585177Y444498D01*
X585075Y444476D01*
X584973Y444459D01*
X584956Y444450D01*
X584936Y444446D01*
X584847Y444393D01*
X584756Y444344D01*
X584742Y444330D01*
X584725Y444320D01*
X584658Y444241D01*
X584587Y444166D01*
X584578Y444148D01*
X584565Y444133D01*
X584526Y444037D01*
X584483Y443943D01*
X584481Y443923D01*
X584473Y443905D01*
X584455Y443738D01*
X584455Y432654D01*
X583182Y432855D01*
X581395Y433436D01*
X580110Y434090D01*
X580059Y434107D01*
X580011Y434133D01*
X579966Y434140D01*
X579939Y434151D01*
X579911Y434154D01*
X579876Y434165D01*
X579822Y434164D01*
X579768Y434173D01*
X579700Y434163D01*
X579630Y434161D01*
X579579Y434143D01*
X579525Y434135D01*
X579464Y434102D01*
X579398Y434079D01*
X579356Y434046D01*
X579307Y434021D01*
X579259Y433970D01*
X579205Y433928D01*
X579175Y433882D01*
X579137Y433843D01*
X579086Y433747D01*
X579070Y433722D01*
X579067Y433711D01*
X579058Y433695D01*
X558376Y381990D01*
X432083Y432507D01*
X432051Y432514D01*
X431985Y432539D01*
X279585Y470639D01*
X279523Y470644D01*
X279462Y470659D01*
X279401Y470654D01*
X279340Y470659D01*
X279279Y470644D01*
X279217Y470639D01*
X279133Y470608D01*
X279101Y470600D01*
X279086Y470591D01*
X279060Y470581D01*
X228260Y445181D01*
X228233Y445162D01*
X228203Y445150D01*
X228134Y445090D01*
X228060Y445037D01*
X228041Y445011D01*
X228017Y444989D01*
X227924Y444850D01*
X37424Y76550D01*
X37394Y76457D01*
X37357Y76367D01*
X37354Y76334D01*
X37348Y76316D01*
X37348Y76283D01*
X37339Y76200D01*
X37339Y62484D01*
X37342Y62464D01*
X37340Y62445D01*
X37362Y62343D01*
X37379Y62241D01*
X37388Y62224D01*
X37392Y62204D01*
X37445Y62115D01*
X37494Y62024D01*
X37508Y62010D01*
X37518Y61993D01*
X37597Y61926D01*
X37672Y61854D01*
X37690Y61846D01*
X37705Y61833D01*
X37801Y61794D01*
X37895Y61751D01*
X37915Y61749D01*
X37933Y61741D01*
X38100Y61723D01*
X42051Y61723D01*
X46065Y60060D01*
X49138Y56987D01*
X50801Y52973D01*
X50801Y48627D01*
X49138Y44613D01*
X46065Y41540D01*
X42051Y39877D01*
X38100Y39877D01*
X38080Y39874D01*
X38061Y39876D01*
X37959Y39854D01*
X37857Y39838D01*
X37840Y39828D01*
X37820Y39824D01*
X37731Y39771D01*
X37640Y39722D01*
X37626Y39708D01*
X37609Y39698D01*
X37542Y39619D01*
X37471Y39544D01*
X37462Y39526D01*
X37449Y39511D01*
X37410Y39415D01*
X37367Y39321D01*
X37365Y39301D01*
X37357Y39283D01*
X37339Y39116D01*
X37339Y37977D01*
X37352Y37898D01*
X37355Y37819D01*
X37371Y37778D01*
X37379Y37734D01*
X37416Y37664D01*
X37445Y37590D01*
X37473Y37556D01*
X37494Y37517D01*
X37551Y37462D01*
X37602Y37401D01*
X37640Y37378D01*
X37672Y37347D01*
X37744Y37314D01*
X37812Y37272D01*
X37855Y37262D01*
X37895Y37244D01*
X37974Y37235D01*
X38052Y37217D01*
X38110Y37220D01*
X38139Y37216D01*
X38167Y37222D01*
X38219Y37225D01*
X38355Y37246D01*
X38355Y26162D01*
X38358Y26142D01*
X38356Y26123D01*
X38378Y26021D01*
X38395Y25919D01*
X38404Y25902D01*
X38408Y25882D01*
X38461Y25793D01*
X38510Y25702D01*
X38524Y25688D01*
X38534Y25671D01*
X38613Y25604D01*
X38688Y25533D01*
X38706Y25524D01*
X38721Y25511D01*
X38817Y25473D01*
X38911Y25429D01*
X38931Y25427D01*
X38949Y25419D01*
X39116Y25401D01*
X39879Y25401D01*
X39879Y25399D01*
X39116Y25399D01*
X39096Y25396D01*
X39077Y25398D01*
X38975Y25376D01*
X38873Y25359D01*
X38856Y25350D01*
X38836Y25346D01*
X38747Y25293D01*
X38656Y25244D01*
X38642Y25230D01*
X38625Y25220D01*
X38558Y25141D01*
X38487Y25066D01*
X38478Y25048D01*
X38465Y25033D01*
X38426Y24937D01*
X38383Y24843D01*
X38381Y24823D01*
X38373Y24805D01*
X38355Y24638D01*
X38355Y13554D01*
X38219Y13575D01*
X38140Y13575D01*
X38061Y13584D01*
X38017Y13574D01*
X37973Y13574D01*
X37898Y13548D01*
X37820Y13531D01*
X37782Y13509D01*
X37740Y13494D01*
X37677Y13446D01*
X37609Y13405D01*
X37580Y13371D01*
X37545Y13345D01*
X37501Y13279D01*
X37449Y13218D01*
X37433Y13177D01*
X37408Y13141D01*
X37387Y13064D01*
X37357Y12990D01*
X37351Y12932D01*
X37343Y12903D01*
X37345Y12876D01*
X37339Y12823D01*
X37339Y3302D01*
X37342Y3282D01*
X37340Y3263D01*
X37362Y3161D01*
X37379Y3059D01*
X37388Y3042D01*
X37392Y3022D01*
X37445Y2933D01*
X37494Y2842D01*
X37508Y2828D01*
X37518Y2811D01*
X37597Y2744D01*
X37672Y2672D01*
X37690Y2664D01*
X37705Y2651D01*
X37801Y2612D01*
X37895Y2569D01*
X37915Y2567D01*
X37933Y2559D01*
X38100Y2541D01*
X75036Y2541D01*
X75086Y2549D01*
G37*
G36*
X12720Y2544D02*
X12720Y2544D01*
X12739Y2542D01*
X12841Y2564D01*
X12943Y2580D01*
X12960Y2590D01*
X12980Y2594D01*
X13069Y2647D01*
X13160Y2696D01*
X13174Y2710D01*
X13191Y2720D01*
X13258Y2799D01*
X13330Y2874D01*
X13338Y2892D01*
X13351Y2907D01*
X13390Y3003D01*
X13433Y3097D01*
X13435Y3117D01*
X13443Y3135D01*
X13461Y3302D01*
X13461Y12823D01*
X13448Y12902D01*
X13445Y12981D01*
X13429Y13022D01*
X13422Y13066D01*
X13384Y13136D01*
X13355Y13210D01*
X13327Y13244D01*
X13306Y13283D01*
X13249Y13338D01*
X13198Y13399D01*
X13160Y13422D01*
X13128Y13453D01*
X13056Y13486D01*
X12988Y13528D01*
X12945Y13538D01*
X12905Y13556D01*
X12826Y13565D01*
X12748Y13583D01*
X12690Y13580D01*
X12661Y13584D01*
X12633Y13578D01*
X12581Y13575D01*
X12445Y13554D01*
X12445Y24638D01*
X12443Y24649D01*
X12444Y24656D01*
X12443Y24664D01*
X12444Y24677D01*
X12422Y24779D01*
X12405Y24881D01*
X12396Y24898D01*
X12392Y24918D01*
X12339Y25007D01*
X12290Y25098D01*
X12276Y25112D01*
X12266Y25129D01*
X12187Y25196D01*
X12112Y25267D01*
X12094Y25276D01*
X12079Y25289D01*
X11983Y25327D01*
X11889Y25371D01*
X11869Y25373D01*
X11851Y25381D01*
X11684Y25399D01*
X10921Y25399D01*
X10921Y25401D01*
X11684Y25401D01*
X11704Y25404D01*
X11723Y25402D01*
X11825Y25424D01*
X11927Y25441D01*
X11944Y25450D01*
X11964Y25454D01*
X12053Y25507D01*
X12144Y25556D01*
X12158Y25570D01*
X12175Y25580D01*
X12242Y25659D01*
X12313Y25734D01*
X12322Y25752D01*
X12335Y25767D01*
X12374Y25863D01*
X12417Y25957D01*
X12419Y25977D01*
X12427Y25995D01*
X12445Y26162D01*
X12445Y37246D01*
X12581Y37225D01*
X12660Y37225D01*
X12739Y37216D01*
X12783Y37226D01*
X12827Y37226D01*
X12902Y37252D01*
X12980Y37269D01*
X13018Y37291D01*
X13060Y37306D01*
X13123Y37354D01*
X13191Y37395D01*
X13220Y37428D01*
X13255Y37455D01*
X13299Y37521D01*
X13351Y37582D01*
X13367Y37623D01*
X13392Y37659D01*
X13413Y37736D01*
X13443Y37810D01*
X13449Y37868D01*
X13457Y37897D01*
X13455Y37924D01*
X13461Y37977D01*
X13461Y39116D01*
X13458Y39136D01*
X13460Y39155D01*
X13438Y39257D01*
X13422Y39359D01*
X13412Y39376D01*
X13408Y39396D01*
X13355Y39485D01*
X13306Y39576D01*
X13292Y39590D01*
X13282Y39607D01*
X13203Y39674D01*
X13128Y39746D01*
X13110Y39754D01*
X13095Y39767D01*
X12999Y39806D01*
X12905Y39849D01*
X12885Y39851D01*
X12867Y39859D01*
X12700Y39877D01*
X8749Y39877D01*
X4735Y41540D01*
X1662Y44613D01*
X-1Y48627D01*
X-1Y52973D01*
X1662Y56987D01*
X4735Y60060D01*
X8749Y61723D01*
X12700Y61723D01*
X12720Y61726D01*
X12739Y61724D01*
X12841Y61746D01*
X12943Y61762D01*
X12960Y61772D01*
X12980Y61776D01*
X13069Y61829D01*
X13160Y61878D01*
X13174Y61892D01*
X13191Y61902D01*
X13258Y61981D01*
X13330Y62056D01*
X13338Y62074D01*
X13351Y62089D01*
X13390Y62185D01*
X13433Y62279D01*
X13435Y62299D01*
X13443Y62317D01*
X13461Y62484D01*
X13461Y76010D01*
X216441Y456596D01*
X279454Y481802D01*
X431551Y443777D01*
X545791Y393004D01*
X545874Y392983D01*
X545954Y392953D01*
X545992Y392952D01*
X546029Y392942D01*
X546114Y392948D01*
X546200Y392945D01*
X546236Y392956D01*
X546274Y392959D01*
X546353Y392992D01*
X546435Y393017D01*
X546466Y393039D01*
X546501Y393053D01*
X546566Y393110D01*
X546636Y393159D01*
X546658Y393190D01*
X546687Y393215D01*
X546730Y393289D01*
X546780Y393358D01*
X546797Y393404D01*
X546811Y393427D01*
X546817Y393457D01*
X546839Y393515D01*
X556379Y431676D01*
X556383Y431729D01*
X556397Y431781D01*
X556393Y431851D01*
X556399Y431921D01*
X556386Y431973D01*
X556383Y432026D01*
X556357Y432091D01*
X556340Y432160D01*
X556311Y432205D01*
X556292Y432254D01*
X556246Y432308D01*
X556208Y432367D01*
X556167Y432401D01*
X556132Y432442D01*
X556072Y432478D01*
X556017Y432522D01*
X555967Y432541D01*
X555921Y432568D01*
X555813Y432598D01*
X555786Y432608D01*
X555775Y432608D01*
X555759Y432612D01*
X554226Y432855D01*
X552439Y433436D01*
X550765Y434289D01*
X549244Y435394D01*
X547916Y436722D01*
X546811Y438243D01*
X545958Y439917D01*
X545377Y441704D01*
X545176Y442977D01*
X556260Y442977D01*
X556280Y442980D01*
X556299Y442978D01*
X556401Y443000D01*
X556503Y443017D01*
X556520Y443026D01*
X556540Y443030D01*
X556629Y443083D01*
X556720Y443132D01*
X556734Y443146D01*
X556751Y443156D01*
X556818Y443235D01*
X556889Y443310D01*
X556898Y443328D01*
X556911Y443343D01*
X556949Y443439D01*
X556993Y443533D01*
X556995Y443553D01*
X557003Y443571D01*
X557021Y443738D01*
X557021Y444501D01*
X557784Y444501D01*
X557804Y444504D01*
X557823Y444502D01*
X557925Y444524D01*
X558027Y444541D01*
X558044Y444550D01*
X558064Y444554D01*
X558153Y444607D01*
X558244Y444656D01*
X558258Y444670D01*
X558275Y444680D01*
X558342Y444759D01*
X558413Y444834D01*
X558422Y444852D01*
X558435Y444867D01*
X558474Y444963D01*
X558517Y445057D01*
X558519Y445077D01*
X558527Y445095D01*
X558545Y445262D01*
X558545Y456346D01*
X558681Y456325D01*
X558760Y456325D01*
X558839Y456316D01*
X558883Y456326D01*
X558927Y456326D01*
X559002Y456352D01*
X559080Y456369D01*
X559118Y456391D01*
X559160Y456406D01*
X559223Y456454D01*
X559291Y456495D01*
X559320Y456528D01*
X559355Y456555D01*
X559399Y456621D01*
X559451Y456682D01*
X559467Y456723D01*
X559492Y456759D01*
X559513Y456836D01*
X559543Y456910D01*
X559549Y456968D01*
X559557Y456997D01*
X559555Y457024D01*
X559561Y457077D01*
X559561Y458216D01*
X559558Y458236D01*
X559560Y458255D01*
X559538Y458357D01*
X559522Y458459D01*
X559512Y458476D01*
X559508Y458496D01*
X559455Y458585D01*
X559406Y458676D01*
X559392Y458690D01*
X559382Y458707D01*
X559303Y458774D01*
X559228Y458846D01*
X559210Y458854D01*
X559195Y458867D01*
X559099Y458906D01*
X559005Y458949D01*
X558985Y458951D01*
X558967Y458959D01*
X558800Y458977D01*
X554849Y458977D01*
X550835Y460640D01*
X547762Y463713D01*
X546099Y467727D01*
X546099Y472073D01*
X547762Y476087D01*
X550835Y479160D01*
X554849Y480823D01*
X558800Y480823D01*
X558820Y480826D01*
X558839Y480824D01*
X558941Y480846D01*
X559043Y480862D01*
X559060Y480872D01*
X559080Y480876D01*
X559169Y480929D01*
X559260Y480978D01*
X559274Y480992D01*
X559291Y481002D01*
X559358Y481081D01*
X559430Y481156D01*
X559438Y481174D01*
X559451Y481189D01*
X559490Y481285D01*
X559533Y481379D01*
X559535Y481399D01*
X559543Y481417D01*
X559561Y481584D01*
X559561Y491998D01*
X559558Y492018D01*
X559560Y492037D01*
X559538Y492139D01*
X559522Y492241D01*
X559512Y492258D01*
X559508Y492278D01*
X559455Y492367D01*
X559406Y492458D01*
X559392Y492472D01*
X559382Y492489D01*
X559303Y492556D01*
X559228Y492628D01*
X559210Y492636D01*
X559195Y492649D01*
X559099Y492688D01*
X559005Y492731D01*
X558985Y492733D01*
X558967Y492741D01*
X558800Y492759D01*
X554331Y492759D01*
X554309Y492756D01*
X554271Y492757D01*
X551514Y492540D01*
X551508Y492539D01*
X551502Y492539D01*
X551338Y492505D01*
X546092Y490801D01*
X546061Y490784D01*
X546026Y490775D01*
X545880Y490692D01*
X541418Y487450D01*
X541393Y487425D01*
X541363Y487406D01*
X541250Y487282D01*
X538008Y482820D01*
X537991Y482788D01*
X537969Y482760D01*
X537899Y482608D01*
X536195Y477362D01*
X536194Y477356D01*
X536192Y477351D01*
X536160Y477186D01*
X535943Y474429D01*
X535945Y474407D01*
X535941Y474369D01*
X535941Y447969D01*
X533336Y440209D01*
X528397Y433682D01*
X521638Y429065D01*
X513760Y426839D01*
X505585Y427236D01*
X502949Y428265D01*
X502880Y428280D01*
X502813Y428304D01*
X502760Y428305D01*
X502708Y428316D01*
X502670Y428312D01*
X501726Y428741D01*
X501711Y428746D01*
X501688Y428758D01*
X500728Y429132D01*
X500687Y429165D01*
X500639Y429216D01*
X500575Y429254D01*
X500550Y429274D01*
X500529Y429282D01*
X500495Y429302D01*
X307658Y517056D01*
X307645Y517060D01*
X307625Y517071D01*
X299056Y520491D01*
X299024Y520498D01*
X298953Y520524D01*
X281040Y524871D01*
X281013Y524874D01*
X280898Y524892D01*
X262487Y525797D01*
X262459Y525794D01*
X262343Y525790D01*
X244090Y523220D01*
X244064Y523212D01*
X243950Y523187D01*
X226505Y517233D01*
X226480Y517220D01*
X226374Y517174D01*
X210357Y508050D01*
X210332Y508029D01*
X210268Y507990D01*
X202976Y502336D01*
X202967Y502326D01*
X202948Y502313D01*
X201908Y501425D01*
X103452Y417341D01*
X103431Y417316D01*
X103365Y417253D01*
X90697Y402220D01*
X90687Y402204D01*
X90666Y402181D01*
X67114Y370202D01*
X67103Y370180D01*
X67077Y370147D01*
X46403Y336237D01*
X46394Y336215D01*
X46371Y336179D01*
X28730Y300596D01*
X28723Y300573D01*
X28703Y300536D01*
X14231Y263551D01*
X14226Y263528D01*
X14209Y263488D01*
X3016Y225383D01*
X3013Y225359D01*
X3000Y225319D01*
X-4830Y186383D01*
X-4831Y186359D01*
X-4841Y186317D01*
X-9247Y146847D01*
X-9246Y146828D01*
X-9251Y146797D01*
X-10158Y126976D01*
X-10157Y126963D01*
X-10159Y126942D01*
X-10159Y3302D01*
X-10156Y3282D01*
X-10158Y3263D01*
X-10136Y3161D01*
X-10120Y3059D01*
X-10110Y3042D01*
X-10106Y3022D01*
X-10053Y2933D01*
X-10004Y2842D01*
X-9990Y2828D01*
X-9980Y2811D01*
X-9901Y2744D01*
X-9826Y2672D01*
X-9808Y2664D01*
X-9793Y2651D01*
X-9697Y2612D01*
X-9603Y2569D01*
X-9583Y2567D01*
X-9565Y2559D01*
X-9398Y2541D01*
X12700Y2541D01*
X12720Y2544D01*
G37*
%LPC*%
G36*
X587501Y446023D02*
X587501Y446023D01*
X587501Y456346D01*
X588774Y456145D01*
X590561Y455564D01*
X592235Y454711D01*
X593756Y453606D01*
X595084Y452278D01*
X596189Y450757D01*
X597042Y449083D01*
X597623Y447296D01*
X597824Y446023D01*
X587501Y446023D01*
G37*
%LPD*%
%LPC*%
G36*
X41401Y26923D02*
X41401Y26923D01*
X41401Y37246D01*
X42674Y37045D01*
X44461Y36464D01*
X46135Y35611D01*
X47656Y34506D01*
X48984Y33178D01*
X50089Y31657D01*
X50942Y29983D01*
X51523Y28196D01*
X51724Y26923D01*
X41401Y26923D01*
G37*
%LPD*%
%LPC*%
G36*
X545176Y446023D02*
X545176Y446023D01*
X545377Y447296D01*
X545958Y449083D01*
X546811Y450757D01*
X547916Y452278D01*
X549244Y453606D01*
X550765Y454711D01*
X552439Y455564D01*
X554226Y456145D01*
X555499Y456346D01*
X555499Y446023D01*
X545176Y446023D01*
G37*
%LPD*%
%LPC*%
G36*
X587501Y442977D02*
X587501Y442977D01*
X597824Y442977D01*
X597623Y441704D01*
X597042Y439917D01*
X596189Y438243D01*
X595084Y436722D01*
X593756Y435394D01*
X592235Y434289D01*
X590561Y433436D01*
X588774Y432855D01*
X587501Y432654D01*
X587501Y442977D01*
G37*
%LPD*%
%LPC*%
G36*
X41401Y23877D02*
X41401Y23877D01*
X51724Y23877D01*
X51523Y22604D01*
X50942Y20817D01*
X50089Y19143D01*
X48984Y17622D01*
X47656Y16294D01*
X46135Y15189D01*
X44461Y14336D01*
X42674Y13755D01*
X41401Y13554D01*
X41401Y23877D01*
G37*
%LPD*%
%LPC*%
G36*
X-924Y26923D02*
X-924Y26923D01*
X-723Y28196D01*
X-142Y29983D01*
X711Y31657D01*
X1816Y33178D01*
X3144Y34506D01*
X4665Y35611D01*
X6339Y36464D01*
X8126Y37045D01*
X9399Y37246D01*
X9399Y26923D01*
X-924Y26923D01*
G37*
%LPD*%
%LPC*%
G36*
X8126Y13755D02*
X8126Y13755D01*
X6339Y14336D01*
X4665Y15189D01*
X3144Y16294D01*
X1816Y17622D01*
X711Y19143D01*
X-142Y20817D01*
X-723Y22604D01*
X-924Y23877D01*
X9399Y23877D01*
X9399Y13554D01*
X8126Y13755D01*
G37*
%LPD*%
D10*
X10922Y50800D03*
X39878Y50800D03*
X557022Y444500D03*
X585978Y444500D03*
X557022Y469900D03*
X585978Y469900D03*
X10922Y25400D03*
X39878Y25400D03*
M02*
