G04 EAGLE Gerber X2 export*
G75*
%MOMM*%
%FSLAX34Y34*%
%LPD*%
%AMOC8*
5,1,8,0,0,1.08239X$1,22.5*%
G01*
%ADD10C,1.879600*%

G36*
X75086Y2549D02*
X75086Y2549D01*
X75137Y2547D01*
X75207Y2569D01*
X75279Y2580D01*
X75324Y2604D01*
X75373Y2619D01*
X75473Y2683D01*
X75496Y2696D01*
X75502Y2702D01*
X75514Y2709D01*
X88448Y13138D01*
X88454Y13144D01*
X88461Y13148D01*
X88471Y13159D01*
X88489Y13173D01*
X114388Y37298D01*
X114404Y37319D01*
X114439Y37350D01*
X137928Y63828D01*
X137941Y63850D01*
X137973Y63884D01*
X158838Y92475D01*
X158850Y92498D01*
X158878Y92536D01*
X176932Y122980D01*
X176941Y123004D01*
X176966Y123044D01*
X192043Y155067D01*
X192050Y155092D01*
X192071Y155134D01*
X204036Y188445D01*
X204041Y188470D01*
X204057Y188514D01*
X212802Y222812D01*
X212804Y222837D01*
X212817Y222883D01*
X218262Y257856D01*
X218261Y257882D01*
X218269Y257928D01*
X220365Y293261D01*
X220363Y293286D01*
X220366Y293333D01*
X219094Y328705D01*
X219090Y328725D01*
X219090Y328759D01*
X217232Y345998D01*
X217228Y346014D01*
X217228Y346031D01*
X217185Y346193D01*
X216961Y346767D01*
X217013Y346886D01*
X217046Y347017D01*
X217074Y347124D01*
X217074Y347125D01*
X217074Y347126D01*
X217071Y347292D01*
X217053Y347421D01*
X217451Y347939D01*
X217454Y347946D01*
X217460Y347951D01*
X217544Y348097D01*
X222979Y360484D01*
X236351Y384918D01*
X251801Y408094D01*
X269213Y429835D01*
X278584Y439644D01*
X278586Y439648D01*
X278684Y439775D01*
X279043Y440367D01*
X279129Y440388D01*
X279137Y440392D01*
X279146Y440392D01*
X279250Y440440D01*
X279355Y440485D01*
X279362Y440490D01*
X279370Y440494D01*
X279498Y440602D01*
X279560Y440666D01*
X280251Y440682D01*
X280256Y440683D01*
X280415Y440704D01*
X281087Y440868D01*
X281163Y440822D01*
X281171Y440819D01*
X281178Y440813D01*
X281285Y440773D01*
X281391Y440730D01*
X281400Y440730D01*
X281408Y440727D01*
X281575Y440712D01*
X281664Y440714D01*
X282133Y440266D01*
X282141Y440260D01*
X282148Y440253D01*
X282283Y440154D01*
X293907Y433563D01*
X293929Y433555D01*
X293966Y433533D01*
X318843Y422167D01*
X318871Y422159D01*
X318925Y422135D01*
X344953Y413733D01*
X344983Y413729D01*
X345039Y413711D01*
X371866Y408388D01*
X371896Y408387D01*
X371954Y408376D01*
X399218Y406203D01*
X399248Y406206D01*
X399307Y406202D01*
X426638Y407209D01*
X426662Y407214D01*
X426705Y407214D01*
X439901Y408861D01*
X439924Y408868D01*
X439949Y408868D01*
X440109Y408918D01*
X440645Y409150D01*
X440791Y409092D01*
X440848Y409080D01*
X440880Y409067D01*
X440931Y409061D01*
X441019Y409040D01*
X441026Y409041D01*
X441031Y409040D01*
X441050Y409042D01*
X441187Y409048D01*
X441342Y409072D01*
X441848Y408701D01*
X441860Y408695D01*
X441870Y408685D01*
X442019Y408607D01*
X558771Y362494D01*
X560043Y361991D01*
X560063Y361987D01*
X560095Y361973D01*
X563532Y360892D01*
X563540Y360891D01*
X563692Y360861D01*
X570852Y360218D01*
X570877Y360219D01*
X570902Y360215D01*
X571069Y360229D01*
X578118Y361636D01*
X578142Y361645D01*
X578167Y361648D01*
X578323Y361709D01*
X584687Y365051D01*
X584708Y365067D01*
X584731Y365076D01*
X584863Y365179D01*
X590023Y370184D01*
X590028Y370191D01*
X590127Y370310D01*
X592111Y373301D01*
X592122Y373325D01*
X592150Y373367D01*
X641394Y466803D01*
X641409Y466847D01*
X641432Y466888D01*
X641465Y467017D01*
X641472Y467036D01*
X641472Y467042D01*
X641474Y467050D01*
X641948Y470376D01*
X641947Y470395D01*
X641952Y470414D01*
X641949Y470581D01*
X641011Y477837D01*
X640996Y477888D01*
X640990Y477941D01*
X640949Y478046D01*
X640941Y478073D01*
X640934Y478082D01*
X640928Y478097D01*
X637495Y484558D01*
X637463Y484600D01*
X637439Y484648D01*
X637363Y484731D01*
X637346Y484754D01*
X637337Y484760D01*
X637326Y484772D01*
X631837Y489609D01*
X631792Y489637D01*
X631753Y489673D01*
X631652Y489725D01*
X631628Y489740D01*
X631618Y489742D01*
X631603Y489750D01*
X624762Y492344D01*
X624743Y492347D01*
X624727Y492356D01*
X624562Y492390D01*
X620905Y492729D01*
X620880Y492727D01*
X620837Y492732D01*
X620113Y492734D01*
X609602Y492759D01*
X609601Y492759D01*
X609600Y492759D01*
X584200Y492759D01*
X584180Y492756D01*
X584161Y492758D01*
X584059Y492736D01*
X583957Y492720D01*
X583940Y492710D01*
X583920Y492706D01*
X583831Y492653D01*
X583740Y492604D01*
X583726Y492590D01*
X583709Y492580D01*
X583642Y492501D01*
X583571Y492426D01*
X583562Y492408D01*
X583549Y492393D01*
X583510Y492297D01*
X583467Y492203D01*
X583465Y492183D01*
X583457Y492165D01*
X583439Y491998D01*
X583439Y482477D01*
X583452Y482398D01*
X583455Y482319D01*
X583471Y482278D01*
X583479Y482234D01*
X583516Y482164D01*
X583545Y482090D01*
X583573Y482056D01*
X583594Y482017D01*
X583651Y481962D01*
X583702Y481901D01*
X583740Y481878D01*
X583772Y481847D01*
X583844Y481814D01*
X583912Y481772D01*
X583955Y481762D01*
X583995Y481744D01*
X584074Y481735D01*
X584152Y481717D01*
X584210Y481720D01*
X584239Y481716D01*
X584267Y481722D01*
X584319Y481725D01*
X584455Y481746D01*
X584455Y470662D01*
X584458Y470642D01*
X584456Y470623D01*
X584478Y470521D01*
X584495Y470419D01*
X584504Y470402D01*
X584508Y470382D01*
X584561Y470293D01*
X584610Y470202D01*
X584624Y470188D01*
X584634Y470171D01*
X584713Y470104D01*
X584788Y470033D01*
X584806Y470024D01*
X584821Y470011D01*
X584917Y469973D01*
X585011Y469929D01*
X585031Y469927D01*
X585049Y469919D01*
X585216Y469901D01*
X585979Y469901D01*
X585979Y469899D01*
X585216Y469899D01*
X585196Y469896D01*
X585177Y469898D01*
X585075Y469876D01*
X584973Y469859D01*
X584956Y469850D01*
X584936Y469846D01*
X584847Y469793D01*
X584756Y469744D01*
X584742Y469730D01*
X584725Y469720D01*
X584658Y469641D01*
X584587Y469566D01*
X584578Y469548D01*
X584565Y469533D01*
X584526Y469437D01*
X584483Y469343D01*
X584481Y469323D01*
X584473Y469305D01*
X584455Y469138D01*
X584455Y458054D01*
X584319Y458075D01*
X584240Y458075D01*
X584161Y458084D01*
X584117Y458074D01*
X584073Y458074D01*
X583998Y458048D01*
X583920Y458031D01*
X583882Y458009D01*
X583840Y457994D01*
X583777Y457946D01*
X583709Y457905D01*
X583680Y457871D01*
X583645Y457845D01*
X583601Y457779D01*
X583549Y457718D01*
X583533Y457677D01*
X583508Y457641D01*
X583487Y457564D01*
X583457Y457490D01*
X583451Y457432D01*
X583443Y457403D01*
X583445Y457376D01*
X583439Y457323D01*
X583439Y456184D01*
X583442Y456164D01*
X583440Y456145D01*
X583462Y456043D01*
X583479Y455941D01*
X583488Y455924D01*
X583492Y455904D01*
X583545Y455815D01*
X583594Y455724D01*
X583608Y455710D01*
X583618Y455693D01*
X583697Y455626D01*
X583772Y455554D01*
X583790Y455546D01*
X583805Y455533D01*
X583901Y455494D01*
X583995Y455451D01*
X584015Y455449D01*
X584033Y455441D01*
X584200Y455423D01*
X588151Y455423D01*
X592165Y453760D01*
X595238Y450687D01*
X596901Y446673D01*
X596901Y442327D01*
X595238Y438313D01*
X592165Y435240D01*
X588151Y433577D01*
X583805Y433577D01*
X580404Y434986D01*
X580380Y434992D01*
X580359Y435003D01*
X580261Y435020D01*
X580165Y435042D01*
X580141Y435040D01*
X580116Y435044D01*
X580018Y435028D01*
X579920Y435019D01*
X579898Y435009D01*
X579873Y435005D01*
X579786Y434959D01*
X579695Y434919D01*
X579677Y434902D01*
X579655Y434891D01*
X579587Y434820D01*
X579514Y434753D01*
X579502Y434731D01*
X579485Y434713D01*
X579406Y434565D01*
X558376Y381990D01*
X432083Y432507D01*
X432051Y432514D01*
X431985Y432539D01*
X279585Y470639D01*
X279523Y470644D01*
X279462Y470659D01*
X279401Y470654D01*
X279340Y470659D01*
X279279Y470644D01*
X279217Y470639D01*
X279133Y470608D01*
X279101Y470600D01*
X279086Y470591D01*
X279060Y470581D01*
X228260Y445181D01*
X228233Y445162D01*
X228203Y445150D01*
X228134Y445090D01*
X228060Y445037D01*
X228041Y445011D01*
X228017Y444989D01*
X227924Y444850D01*
X37424Y76550D01*
X37394Y76457D01*
X37357Y76367D01*
X37354Y76334D01*
X37348Y76316D01*
X37348Y76283D01*
X37339Y76200D01*
X37339Y63377D01*
X37352Y63298D01*
X37355Y63219D01*
X37371Y63178D01*
X37379Y63134D01*
X37416Y63064D01*
X37445Y62990D01*
X37473Y62956D01*
X37494Y62917D01*
X37551Y62862D01*
X37602Y62801D01*
X37640Y62778D01*
X37672Y62747D01*
X37744Y62714D01*
X37812Y62672D01*
X37855Y62662D01*
X37895Y62644D01*
X37974Y62635D01*
X38052Y62617D01*
X38110Y62620D01*
X38139Y62616D01*
X38167Y62622D01*
X38219Y62625D01*
X38355Y62646D01*
X38355Y51562D01*
X38358Y51542D01*
X38356Y51523D01*
X38378Y51421D01*
X38395Y51319D01*
X38404Y51302D01*
X38408Y51282D01*
X38461Y51193D01*
X38510Y51102D01*
X38524Y51088D01*
X38534Y51071D01*
X38613Y51004D01*
X38688Y50933D01*
X38706Y50924D01*
X38721Y50911D01*
X38817Y50873D01*
X38911Y50829D01*
X38931Y50827D01*
X38949Y50819D01*
X39116Y50801D01*
X39879Y50801D01*
X39879Y50799D01*
X39116Y50799D01*
X39096Y50796D01*
X39077Y50798D01*
X38975Y50776D01*
X38873Y50759D01*
X38856Y50750D01*
X38836Y50746D01*
X38747Y50693D01*
X38656Y50644D01*
X38642Y50630D01*
X38625Y50620D01*
X38558Y50541D01*
X38487Y50466D01*
X38478Y50448D01*
X38465Y50433D01*
X38426Y50337D01*
X38383Y50243D01*
X38381Y50223D01*
X38373Y50205D01*
X38355Y50038D01*
X38355Y38954D01*
X38219Y38975D01*
X38140Y38975D01*
X38061Y38984D01*
X38017Y38974D01*
X37973Y38974D01*
X37898Y38948D01*
X37820Y38931D01*
X37782Y38909D01*
X37740Y38894D01*
X37677Y38846D01*
X37609Y38805D01*
X37580Y38771D01*
X37545Y38745D01*
X37501Y38679D01*
X37449Y38618D01*
X37433Y38577D01*
X37408Y38541D01*
X37387Y38464D01*
X37357Y38390D01*
X37351Y38332D01*
X37343Y38303D01*
X37345Y38276D01*
X37339Y38223D01*
X37339Y37084D01*
X37342Y37064D01*
X37340Y37045D01*
X37362Y36943D01*
X37379Y36841D01*
X37388Y36824D01*
X37392Y36804D01*
X37445Y36715D01*
X37494Y36624D01*
X37508Y36610D01*
X37518Y36593D01*
X37597Y36526D01*
X37672Y36454D01*
X37690Y36446D01*
X37705Y36433D01*
X37801Y36394D01*
X37895Y36351D01*
X37915Y36349D01*
X37933Y36341D01*
X38100Y36323D01*
X42051Y36323D01*
X46065Y34660D01*
X49138Y31587D01*
X50801Y27573D01*
X50801Y23227D01*
X49138Y19213D01*
X46065Y16140D01*
X42051Y14477D01*
X38100Y14477D01*
X38080Y14474D01*
X38061Y14476D01*
X37959Y14454D01*
X37857Y14438D01*
X37840Y14428D01*
X37820Y14424D01*
X37731Y14371D01*
X37640Y14322D01*
X37626Y14308D01*
X37609Y14298D01*
X37542Y14219D01*
X37471Y14144D01*
X37462Y14126D01*
X37449Y14111D01*
X37410Y14015D01*
X37367Y13921D01*
X37365Y13901D01*
X37357Y13883D01*
X37339Y13716D01*
X37339Y3302D01*
X37342Y3282D01*
X37340Y3263D01*
X37362Y3161D01*
X37379Y3059D01*
X37388Y3042D01*
X37392Y3022D01*
X37445Y2933D01*
X37494Y2842D01*
X37508Y2828D01*
X37518Y2811D01*
X37597Y2744D01*
X37672Y2672D01*
X37690Y2664D01*
X37705Y2651D01*
X37801Y2612D01*
X37895Y2569D01*
X37915Y2567D01*
X37933Y2559D01*
X38100Y2541D01*
X75036Y2541D01*
X75086Y2549D01*
G37*
G36*
X12720Y2544D02*
X12720Y2544D01*
X12739Y2542D01*
X12841Y2564D01*
X12943Y2580D01*
X12960Y2590D01*
X12980Y2594D01*
X13069Y2647D01*
X13160Y2696D01*
X13174Y2710D01*
X13191Y2720D01*
X13258Y2799D01*
X13330Y2874D01*
X13338Y2892D01*
X13351Y2907D01*
X13390Y3003D01*
X13433Y3097D01*
X13435Y3117D01*
X13443Y3135D01*
X13461Y3302D01*
X13461Y13716D01*
X13458Y13736D01*
X13460Y13755D01*
X13438Y13857D01*
X13422Y13959D01*
X13412Y13976D01*
X13408Y13996D01*
X13355Y14085D01*
X13306Y14176D01*
X13292Y14190D01*
X13282Y14207D01*
X13203Y14274D01*
X13128Y14346D01*
X13110Y14354D01*
X13095Y14367D01*
X12999Y14406D01*
X12905Y14449D01*
X12885Y14451D01*
X12867Y14459D01*
X12700Y14477D01*
X8749Y14477D01*
X4735Y16140D01*
X1662Y19213D01*
X-1Y23227D01*
X-1Y27573D01*
X1662Y31587D01*
X4735Y34660D01*
X8749Y36323D01*
X12700Y36323D01*
X12720Y36326D01*
X12739Y36324D01*
X12841Y36346D01*
X12943Y36362D01*
X12960Y36372D01*
X12980Y36376D01*
X13069Y36429D01*
X13160Y36478D01*
X13174Y36492D01*
X13191Y36502D01*
X13258Y36581D01*
X13330Y36656D01*
X13338Y36674D01*
X13351Y36689D01*
X13390Y36785D01*
X13433Y36879D01*
X13435Y36899D01*
X13443Y36917D01*
X13461Y37084D01*
X13461Y38223D01*
X13448Y38302D01*
X13445Y38381D01*
X13429Y38422D01*
X13422Y38466D01*
X13384Y38536D01*
X13355Y38610D01*
X13327Y38644D01*
X13306Y38683D01*
X13249Y38738D01*
X13198Y38799D01*
X13160Y38822D01*
X13128Y38853D01*
X13056Y38886D01*
X12988Y38928D01*
X12945Y38938D01*
X12905Y38956D01*
X12826Y38965D01*
X12748Y38983D01*
X12690Y38980D01*
X12661Y38984D01*
X12633Y38978D01*
X12581Y38975D01*
X12445Y38954D01*
X12445Y50038D01*
X12442Y50058D01*
X12444Y50077D01*
X12422Y50179D01*
X12405Y50281D01*
X12396Y50298D01*
X12392Y50318D01*
X12339Y50407D01*
X12290Y50498D01*
X12276Y50512D01*
X12266Y50529D01*
X12187Y50596D01*
X12112Y50667D01*
X12094Y50676D01*
X12079Y50689D01*
X11983Y50727D01*
X11889Y50771D01*
X11869Y50773D01*
X11851Y50781D01*
X11684Y50799D01*
X10921Y50799D01*
X10921Y50801D01*
X11684Y50801D01*
X11704Y50804D01*
X11723Y50802D01*
X11825Y50824D01*
X11927Y50841D01*
X11944Y50850D01*
X11964Y50854D01*
X12053Y50907D01*
X12144Y50956D01*
X12158Y50970D01*
X12175Y50980D01*
X12242Y51059D01*
X12313Y51134D01*
X12322Y51152D01*
X12335Y51167D01*
X12374Y51263D01*
X12417Y51357D01*
X12419Y51377D01*
X12427Y51395D01*
X12445Y51562D01*
X12445Y62646D01*
X12581Y62625D01*
X12660Y62625D01*
X12739Y62616D01*
X12783Y62626D01*
X12827Y62626D01*
X12902Y62652D01*
X12980Y62669D01*
X13018Y62691D01*
X13060Y62706D01*
X13123Y62754D01*
X13191Y62795D01*
X13220Y62828D01*
X13255Y62855D01*
X13299Y62921D01*
X13351Y62982D01*
X13367Y63023D01*
X13392Y63059D01*
X13413Y63136D01*
X13443Y63210D01*
X13449Y63268D01*
X13457Y63297D01*
X13455Y63324D01*
X13461Y63377D01*
X13461Y76010D01*
X216441Y456596D01*
X279454Y481802D01*
X431551Y443777D01*
X545791Y393004D01*
X545874Y392983D01*
X545954Y392953D01*
X545992Y392952D01*
X546029Y392942D01*
X546114Y392948D01*
X546200Y392945D01*
X546236Y392956D01*
X546274Y392959D01*
X546353Y392992D01*
X546435Y393017D01*
X546466Y393039D01*
X546501Y393053D01*
X546566Y393110D01*
X546636Y393159D01*
X546658Y393190D01*
X546687Y393215D01*
X546730Y393289D01*
X546780Y393358D01*
X546797Y393404D01*
X546811Y393427D01*
X546817Y393457D01*
X546839Y393515D01*
X556618Y432631D01*
X556627Y432744D01*
X556639Y432855D01*
X556637Y432866D01*
X556638Y432877D01*
X556611Y432986D01*
X556587Y433096D01*
X556581Y433105D01*
X556579Y433115D01*
X556518Y433210D01*
X556461Y433307D01*
X556453Y433314D01*
X556447Y433323D01*
X556359Y433394D01*
X556274Y433467D01*
X556264Y433471D01*
X556256Y433478D01*
X556150Y433517D01*
X556046Y433559D01*
X556033Y433560D01*
X556025Y433563D01*
X556000Y433564D01*
X555879Y433577D01*
X554849Y433577D01*
X550835Y435240D01*
X547762Y438313D01*
X546099Y442327D01*
X546099Y446673D01*
X547762Y450687D01*
X550835Y453760D01*
X554849Y455423D01*
X558800Y455423D01*
X558820Y455426D01*
X558839Y455424D01*
X558941Y455446D01*
X559043Y455462D01*
X559060Y455472D01*
X559080Y455476D01*
X559169Y455529D01*
X559260Y455578D01*
X559274Y455592D01*
X559291Y455602D01*
X559358Y455681D01*
X559430Y455756D01*
X559438Y455774D01*
X559451Y455789D01*
X559490Y455885D01*
X559533Y455979D01*
X559535Y455999D01*
X559543Y456017D01*
X559561Y456184D01*
X559561Y457323D01*
X559548Y457402D01*
X559545Y457481D01*
X559529Y457522D01*
X559522Y457566D01*
X559484Y457636D01*
X559455Y457710D01*
X559427Y457744D01*
X559406Y457783D01*
X559349Y457838D01*
X559298Y457899D01*
X559260Y457922D01*
X559228Y457953D01*
X559156Y457986D01*
X559088Y458028D01*
X559045Y458038D01*
X559005Y458056D01*
X558926Y458065D01*
X558848Y458083D01*
X558790Y458080D01*
X558761Y458084D01*
X558733Y458078D01*
X558681Y458075D01*
X558545Y458054D01*
X558545Y469138D01*
X558542Y469158D01*
X558544Y469177D01*
X558522Y469279D01*
X558505Y469381D01*
X558496Y469398D01*
X558492Y469418D01*
X558439Y469507D01*
X558390Y469598D01*
X558376Y469612D01*
X558366Y469629D01*
X558287Y469696D01*
X558212Y469767D01*
X558194Y469776D01*
X558179Y469789D01*
X558083Y469827D01*
X557989Y469871D01*
X557969Y469873D01*
X557951Y469881D01*
X557784Y469899D01*
X557021Y469899D01*
X557021Y469901D01*
X557784Y469901D01*
X557804Y469904D01*
X557823Y469902D01*
X557925Y469924D01*
X558027Y469941D01*
X558044Y469950D01*
X558064Y469954D01*
X558153Y470007D01*
X558244Y470056D01*
X558258Y470070D01*
X558275Y470080D01*
X558342Y470159D01*
X558413Y470234D01*
X558422Y470252D01*
X558435Y470267D01*
X558474Y470363D01*
X558517Y470457D01*
X558519Y470477D01*
X558527Y470495D01*
X558545Y470662D01*
X558545Y481746D01*
X558681Y481725D01*
X558760Y481725D01*
X558839Y481716D01*
X558883Y481726D01*
X558927Y481726D01*
X559002Y481752D01*
X559080Y481769D01*
X559118Y481791D01*
X559160Y481806D01*
X559223Y481854D01*
X559291Y481895D01*
X559320Y481928D01*
X559355Y481955D01*
X559399Y482021D01*
X559451Y482082D01*
X559467Y482123D01*
X559492Y482159D01*
X559513Y482236D01*
X559543Y482310D01*
X559549Y482368D01*
X559557Y482397D01*
X559555Y482424D01*
X559561Y482477D01*
X559561Y491998D01*
X559558Y492018D01*
X559560Y492037D01*
X559538Y492139D01*
X559522Y492241D01*
X559512Y492258D01*
X559508Y492278D01*
X559455Y492367D01*
X559406Y492458D01*
X559392Y492472D01*
X559382Y492489D01*
X559303Y492556D01*
X559228Y492628D01*
X559210Y492636D01*
X559195Y492649D01*
X559099Y492688D01*
X559005Y492731D01*
X558985Y492733D01*
X558967Y492741D01*
X558800Y492759D01*
X554331Y492759D01*
X554309Y492756D01*
X554271Y492757D01*
X551514Y492540D01*
X551508Y492539D01*
X551502Y492539D01*
X551338Y492505D01*
X546092Y490801D01*
X546061Y490784D01*
X546026Y490775D01*
X545880Y490692D01*
X541418Y487450D01*
X541393Y487425D01*
X541363Y487406D01*
X541250Y487282D01*
X538008Y482820D01*
X537991Y482788D01*
X537969Y482760D01*
X537899Y482608D01*
X536195Y477362D01*
X536194Y477356D01*
X536192Y477351D01*
X536160Y477186D01*
X535943Y474429D01*
X535945Y474407D01*
X535941Y474369D01*
X535941Y447969D01*
X533336Y440209D01*
X528397Y433682D01*
X521638Y429065D01*
X513760Y426839D01*
X505585Y427236D01*
X502949Y428265D01*
X502880Y428280D01*
X502813Y428304D01*
X502760Y428305D01*
X502708Y428316D01*
X502670Y428312D01*
X501726Y428741D01*
X501711Y428746D01*
X501688Y428758D01*
X500728Y429132D01*
X500687Y429165D01*
X500639Y429216D01*
X500575Y429254D01*
X500550Y429274D01*
X500529Y429282D01*
X500495Y429302D01*
X307658Y517056D01*
X307645Y517060D01*
X307625Y517071D01*
X299056Y520491D01*
X299024Y520498D01*
X298953Y520524D01*
X281040Y524871D01*
X281013Y524874D01*
X280898Y524892D01*
X262487Y525797D01*
X262459Y525794D01*
X262343Y525790D01*
X244090Y523220D01*
X244064Y523212D01*
X243950Y523187D01*
X226505Y517233D01*
X226480Y517220D01*
X226374Y517174D01*
X210357Y508050D01*
X210332Y508029D01*
X210268Y507990D01*
X202976Y502336D01*
X202967Y502326D01*
X202948Y502313D01*
X201908Y501425D01*
X103452Y417341D01*
X103431Y417316D01*
X103365Y417253D01*
X90697Y402220D01*
X90687Y402204D01*
X90666Y402181D01*
X67114Y370202D01*
X67103Y370180D01*
X67077Y370147D01*
X46403Y336237D01*
X46394Y336215D01*
X46371Y336179D01*
X28730Y300596D01*
X28723Y300573D01*
X28703Y300536D01*
X14231Y263551D01*
X14226Y263528D01*
X14209Y263488D01*
X3016Y225383D01*
X3013Y225359D01*
X3000Y225319D01*
X-4830Y186383D01*
X-4831Y186359D01*
X-4841Y186317D01*
X-9247Y146847D01*
X-9246Y146828D01*
X-9251Y146797D01*
X-10158Y126976D01*
X-10157Y126963D01*
X-10159Y126942D01*
X-10159Y3302D01*
X-10156Y3282D01*
X-10158Y3263D01*
X-10136Y3161D01*
X-10120Y3059D01*
X-10110Y3042D01*
X-10106Y3022D01*
X-10053Y2933D01*
X-10004Y2842D01*
X-9990Y2828D01*
X-9980Y2811D01*
X-9901Y2744D01*
X-9826Y2672D01*
X-9808Y2664D01*
X-9793Y2651D01*
X-9697Y2612D01*
X-9603Y2569D01*
X-9583Y2567D01*
X-9565Y2559D01*
X-9398Y2541D01*
X12700Y2541D01*
X12720Y2544D01*
G37*
%LPC*%
G36*
X587501Y471423D02*
X587501Y471423D01*
X587501Y481746D01*
X588774Y481545D01*
X590561Y480964D01*
X592235Y480111D01*
X593756Y479006D01*
X595084Y477678D01*
X596189Y476157D01*
X597042Y474483D01*
X597623Y472696D01*
X597824Y471423D01*
X587501Y471423D01*
G37*
%LPD*%
%LPC*%
G36*
X41401Y52323D02*
X41401Y52323D01*
X41401Y62646D01*
X42674Y62445D01*
X44461Y61864D01*
X46135Y61011D01*
X47656Y59906D01*
X48984Y58578D01*
X50089Y57057D01*
X50942Y55383D01*
X51523Y53596D01*
X51724Y52323D01*
X41401Y52323D01*
G37*
%LPD*%
%LPC*%
G36*
X545176Y471423D02*
X545176Y471423D01*
X545377Y472696D01*
X545958Y474483D01*
X546811Y476157D01*
X547916Y477678D01*
X549244Y479006D01*
X550765Y480111D01*
X552439Y480964D01*
X554226Y481545D01*
X555499Y481746D01*
X555499Y471423D01*
X545176Y471423D01*
G37*
%LPD*%
%LPC*%
G36*
X587501Y468377D02*
X587501Y468377D01*
X597824Y468377D01*
X597623Y467104D01*
X597042Y465317D01*
X596189Y463643D01*
X595084Y462122D01*
X593756Y460794D01*
X592235Y459689D01*
X590561Y458836D01*
X588774Y458255D01*
X587501Y458054D01*
X587501Y468377D01*
G37*
%LPD*%
%LPC*%
G36*
X41401Y49277D02*
X41401Y49277D01*
X51724Y49277D01*
X51523Y48004D01*
X50942Y46217D01*
X50089Y44543D01*
X48984Y43022D01*
X47656Y41694D01*
X46135Y40589D01*
X44461Y39736D01*
X42674Y39155D01*
X41401Y38954D01*
X41401Y49277D01*
G37*
%LPD*%
%LPC*%
G36*
X-924Y52323D02*
X-924Y52323D01*
X-723Y53596D01*
X-142Y55383D01*
X711Y57057D01*
X1816Y58578D01*
X3144Y59906D01*
X4665Y61011D01*
X6339Y61864D01*
X8126Y62445D01*
X9399Y62646D01*
X9399Y52323D01*
X-924Y52323D01*
G37*
%LPD*%
%LPC*%
G36*
X554226Y458255D02*
X554226Y458255D01*
X552439Y458836D01*
X550765Y459689D01*
X549244Y460794D01*
X547916Y462122D01*
X546811Y463643D01*
X545958Y465317D01*
X545377Y467104D01*
X545176Y468377D01*
X555499Y468377D01*
X555499Y458054D01*
X554226Y458255D01*
G37*
%LPD*%
%LPC*%
G36*
X8126Y39155D02*
X8126Y39155D01*
X6339Y39736D01*
X4665Y40589D01*
X3144Y41694D01*
X1816Y43022D01*
X711Y44543D01*
X-142Y46217D01*
X-723Y48004D01*
X-924Y49277D01*
X9399Y49277D01*
X9399Y38954D01*
X8126Y39155D01*
G37*
%LPD*%
D10*
X10922Y50800D03*
X39878Y50800D03*
X557022Y444500D03*
X585978Y444500D03*
X557022Y469900D03*
X585978Y469900D03*
X10922Y25400D03*
X39878Y25400D03*
M02*
