G04 EAGLE Gerber X2 export*
G75*
%MOMM*%
%FSLAX34Y34*%
%LPD*%
%AMOC8*
5,1,8,0,0,1.08239X$1,22.5*%
G01*
%ADD10C,0.076200*%
%ADD11C,2.082800*%


D10*
X90805Y52924D02*
X83439Y52924D01*
X83439Y50878D01*
X83441Y50809D01*
X83447Y50741D01*
X83456Y50672D01*
X83470Y50605D01*
X83487Y50538D01*
X83508Y50472D01*
X83532Y50408D01*
X83561Y50345D01*
X83592Y50284D01*
X83627Y50225D01*
X83665Y50167D01*
X83707Y50112D01*
X83751Y50060D01*
X83799Y50010D01*
X83849Y49962D01*
X83901Y49918D01*
X83956Y49876D01*
X84014Y49838D01*
X84073Y49803D01*
X84134Y49772D01*
X84197Y49743D01*
X84261Y49719D01*
X84327Y49698D01*
X84394Y49681D01*
X84461Y49667D01*
X84530Y49658D01*
X84598Y49652D01*
X84667Y49650D01*
X84667Y49651D02*
X87122Y49651D01*
X87122Y49650D02*
X87191Y49652D01*
X87259Y49658D01*
X87328Y49667D01*
X87395Y49681D01*
X87462Y49698D01*
X87528Y49719D01*
X87592Y49743D01*
X87655Y49772D01*
X87716Y49803D01*
X87775Y49838D01*
X87833Y49876D01*
X87888Y49918D01*
X87940Y49962D01*
X87990Y50010D01*
X88038Y50060D01*
X88082Y50112D01*
X88124Y50167D01*
X88162Y50225D01*
X88197Y50284D01*
X88228Y50345D01*
X88257Y50408D01*
X88281Y50472D01*
X88302Y50538D01*
X88319Y50605D01*
X88333Y50672D01*
X88342Y50741D01*
X88348Y50809D01*
X88350Y50878D01*
X88350Y52924D01*
X80984Y46869D02*
X80984Y46051D01*
X88350Y43596D01*
X88350Y46869D02*
X83439Y45233D01*
X77385Y79376D02*
X77385Y80604D01*
X77386Y80604D02*
X77384Y80673D01*
X77378Y80741D01*
X77369Y80810D01*
X77355Y80877D01*
X77338Y80944D01*
X77317Y81010D01*
X77293Y81074D01*
X77264Y81137D01*
X77233Y81198D01*
X77198Y81257D01*
X77160Y81315D01*
X77118Y81370D01*
X77074Y81422D01*
X77026Y81472D01*
X76976Y81520D01*
X76924Y81564D01*
X76869Y81606D01*
X76811Y81644D01*
X76752Y81679D01*
X76691Y81710D01*
X76628Y81739D01*
X76564Y81763D01*
X76498Y81784D01*
X76431Y81801D01*
X76364Y81815D01*
X76295Y81824D01*
X76227Y81830D01*
X76158Y81832D01*
X76158Y81831D02*
X73702Y81831D01*
X73702Y81832D02*
X73633Y81830D01*
X73565Y81824D01*
X73496Y81815D01*
X73429Y81801D01*
X73362Y81784D01*
X73296Y81763D01*
X73232Y81739D01*
X73169Y81710D01*
X73108Y81679D01*
X73049Y81644D01*
X72991Y81606D01*
X72936Y81564D01*
X72884Y81520D01*
X72834Y81472D01*
X72786Y81422D01*
X72742Y81370D01*
X72700Y81315D01*
X72662Y81257D01*
X72627Y81198D01*
X72596Y81137D01*
X72567Y81074D01*
X72543Y81010D01*
X72522Y80944D01*
X72505Y80877D01*
X72491Y80810D01*
X72482Y80741D01*
X72476Y80673D01*
X72474Y80604D01*
X72476Y80535D01*
X72482Y80467D01*
X72491Y80398D01*
X72505Y80331D01*
X72522Y80264D01*
X72543Y80198D01*
X72567Y80134D01*
X72596Y80071D01*
X72627Y80010D01*
X72662Y79951D01*
X72700Y79893D01*
X72742Y79838D01*
X72786Y79786D01*
X72834Y79736D01*
X72884Y79688D01*
X72936Y79644D01*
X72991Y79602D01*
X73049Y79564D01*
X73108Y79529D01*
X73169Y79498D01*
X73232Y79469D01*
X73296Y79445D01*
X73362Y79424D01*
X73429Y79407D01*
X73496Y79393D01*
X73565Y79384D01*
X73633Y79378D01*
X73702Y79376D01*
X73498Y79376D02*
X77385Y79376D01*
X73498Y79376D02*
X73435Y79374D01*
X73372Y79368D01*
X73310Y79359D01*
X73248Y79345D01*
X73188Y79328D01*
X73128Y79307D01*
X73070Y79282D01*
X73014Y79254D01*
X72959Y79223D01*
X72907Y79188D01*
X72857Y79150D01*
X72809Y79109D01*
X72764Y79065D01*
X72721Y79019D01*
X72682Y78969D01*
X72645Y78918D01*
X72612Y78865D01*
X72582Y78809D01*
X72556Y78752D01*
X72533Y78693D01*
X72514Y78633D01*
X72499Y78572D01*
X72487Y78510D01*
X72479Y78447D01*
X72475Y78385D01*
X72475Y78321D01*
X72479Y78259D01*
X72487Y78196D01*
X72499Y78134D01*
X72514Y78073D01*
X72533Y78013D01*
X72556Y77954D01*
X72582Y77897D01*
X72612Y77842D01*
X72645Y77788D01*
X72682Y77737D01*
X72721Y77687D01*
X72764Y77641D01*
X72809Y77597D01*
X72857Y77556D01*
X72907Y77518D01*
X72959Y77483D01*
X73014Y77452D01*
X73070Y77424D01*
X73128Y77399D01*
X73188Y77378D01*
X73248Y77361D01*
X73310Y77347D01*
X73372Y77338D01*
X73435Y77332D01*
X73498Y77330D01*
X76567Y77330D01*
X76680Y77332D01*
X76793Y77338D01*
X76905Y77348D01*
X77018Y77361D01*
X77129Y77379D01*
X77240Y77400D01*
X77351Y77425D01*
X77460Y77454D01*
X77568Y77487D01*
X77675Y77523D01*
X77781Y77563D01*
X77885Y77607D01*
X77988Y77654D01*
X78089Y77705D01*
X78188Y77759D01*
X78285Y77817D01*
X78380Y77878D01*
X78473Y77942D01*
X78564Y78009D01*
X78652Y78080D01*
X78738Y78153D01*
X78821Y78230D01*
X78902Y78309D01*
X78980Y78391D01*
X79055Y78476D01*
X79127Y78563D01*
X79196Y78652D01*
X79261Y78744D01*
X79324Y78838D01*
X79383Y78934D01*
X79439Y79033D01*
X79492Y79133D01*
X79541Y79235D01*
X79586Y79338D01*
X79628Y79443D01*
X79666Y79549D01*
X79701Y79657D01*
X79732Y79766D01*
X79759Y79875D01*
X79782Y79986D01*
X79802Y80097D01*
X79817Y80209D01*
X79829Y80322D01*
X79837Y80435D01*
X79841Y80547D01*
X79841Y80661D01*
X79837Y80773D01*
X79829Y80886D01*
X79817Y80999D01*
X79802Y81111D01*
X79782Y81222D01*
X79759Y81333D01*
X79732Y81442D01*
X79701Y81551D01*
X79666Y81659D01*
X79628Y81765D01*
X79586Y81870D01*
X79541Y81973D01*
X79492Y82075D01*
X79439Y82175D01*
X79383Y82274D01*
X79324Y82370D01*
X79261Y82464D01*
X79196Y82556D01*
X79127Y82645D01*
X79055Y82732D01*
X78980Y82817D01*
X78902Y82899D01*
X78821Y82978D01*
X78738Y83055D01*
X78652Y83128D01*
X78564Y83199D01*
X78473Y83266D01*
X78380Y83330D01*
X78285Y83391D01*
X78188Y83449D01*
X78089Y83503D01*
X77988Y83554D01*
X77885Y83601D01*
X77781Y83645D01*
X77675Y83685D01*
X77568Y83721D01*
X77460Y83754D01*
X77351Y83783D01*
X77240Y83808D01*
X77129Y83829D01*
X77018Y83847D01*
X76905Y83860D01*
X76793Y83870D01*
X76680Y83876D01*
X76567Y83878D01*
X76567Y83877D02*
X73089Y83877D01*
X73089Y83878D02*
X72979Y83876D01*
X72869Y83870D01*
X72760Y83860D01*
X72650Y83847D01*
X72542Y83829D01*
X72434Y83807D01*
X72327Y83782D01*
X72221Y83753D01*
X72116Y83720D01*
X72012Y83683D01*
X71910Y83643D01*
X71809Y83599D01*
X71710Y83551D01*
X71612Y83500D01*
X71517Y83446D01*
X71423Y83388D01*
X71332Y83327D01*
X71242Y83262D01*
X71156Y83195D01*
X71071Y83124D01*
X70990Y83050D01*
X70910Y82974D01*
X70834Y82895D01*
X70761Y82813D01*
X70690Y82728D01*
X70623Y82641D01*
X70559Y82552D01*
X70498Y82460D01*
X70440Y82367D01*
X70386Y82271D01*
X70335Y82173D01*
X70288Y82074D01*
X70244Y81973D01*
X70204Y81871D01*
X70167Y81767D01*
X70135Y81662D01*
X70106Y81556D01*
X70081Y81448D01*
X70060Y81340D01*
X70042Y81232D01*
X70029Y81123D01*
X70019Y81013D01*
X74112Y73092D02*
X73293Y71046D01*
X74112Y73092D02*
X74137Y73151D01*
X74166Y73208D01*
X74199Y73263D01*
X74235Y73316D01*
X74273Y73367D01*
X74315Y73415D01*
X74360Y73461D01*
X74407Y73504D01*
X74457Y73544D01*
X74509Y73581D01*
X74564Y73615D01*
X74620Y73646D01*
X74678Y73673D01*
X74738Y73696D01*
X74798Y73716D01*
X74860Y73732D01*
X74923Y73745D01*
X74987Y73753D01*
X75050Y73758D01*
X75114Y73759D01*
X75178Y73756D01*
X75242Y73749D01*
X75305Y73738D01*
X75367Y73724D01*
X75429Y73706D01*
X75489Y73684D01*
X75548Y73659D01*
X75605Y73630D01*
X75660Y73597D01*
X75713Y73562D01*
X75764Y73523D01*
X75813Y73481D01*
X75859Y73437D01*
X75902Y73389D01*
X75942Y73340D01*
X75979Y73287D01*
X76013Y73233D01*
X76044Y73177D01*
X76071Y73119D01*
X76095Y73060D01*
X76114Y72999D01*
X76131Y72937D01*
X76143Y72874D01*
X76152Y72811D01*
X76157Y72747D01*
X76158Y72683D01*
X76154Y72547D01*
X76146Y72412D01*
X76134Y72276D01*
X76118Y72142D01*
X76098Y72007D01*
X76075Y71874D01*
X76047Y71741D01*
X76016Y71609D01*
X75981Y71478D01*
X75942Y71348D01*
X75899Y71219D01*
X75852Y71092D01*
X75802Y70966D01*
X75748Y70841D01*
X73293Y71046D02*
X73268Y70987D01*
X73239Y70930D01*
X73206Y70875D01*
X73170Y70822D01*
X73132Y70771D01*
X73090Y70723D01*
X73045Y70677D01*
X72998Y70634D01*
X72948Y70594D01*
X72896Y70557D01*
X72841Y70523D01*
X72785Y70492D01*
X72727Y70465D01*
X72667Y70442D01*
X72607Y70422D01*
X72545Y70406D01*
X72482Y70393D01*
X72418Y70385D01*
X72355Y70380D01*
X72291Y70379D01*
X72227Y70382D01*
X72163Y70389D01*
X72100Y70400D01*
X72038Y70414D01*
X71976Y70432D01*
X71916Y70454D01*
X71857Y70479D01*
X71800Y70508D01*
X71745Y70541D01*
X71692Y70576D01*
X71641Y70615D01*
X71592Y70657D01*
X71546Y70701D01*
X71503Y70749D01*
X71463Y70798D01*
X71426Y70851D01*
X71392Y70905D01*
X71361Y70961D01*
X71334Y71019D01*
X71310Y71078D01*
X71291Y71139D01*
X71274Y71201D01*
X71262Y71264D01*
X71253Y71327D01*
X71248Y71391D01*
X71247Y71455D01*
X71251Y71619D01*
X71259Y71783D01*
X71271Y71947D01*
X71287Y72110D01*
X71307Y72273D01*
X71330Y72436D01*
X71358Y72597D01*
X71389Y72759D01*
X71424Y72919D01*
X71463Y73078D01*
X71506Y73237D01*
X71552Y73394D01*
X71602Y73551D01*
X71656Y73706D01*
X71247Y66139D02*
X71247Y64093D01*
X71247Y66139D02*
X71249Y66208D01*
X71255Y66276D01*
X71264Y66345D01*
X71278Y66412D01*
X71295Y66479D01*
X71316Y66545D01*
X71340Y66609D01*
X71369Y66672D01*
X71400Y66733D01*
X71435Y66792D01*
X71473Y66850D01*
X71515Y66905D01*
X71559Y66957D01*
X71607Y67007D01*
X71657Y67055D01*
X71709Y67099D01*
X71764Y67141D01*
X71822Y67179D01*
X71881Y67214D01*
X71942Y67245D01*
X72005Y67274D01*
X72069Y67298D01*
X72135Y67319D01*
X72202Y67336D01*
X72269Y67350D01*
X72338Y67359D01*
X72406Y67365D01*
X72475Y67367D01*
X72475Y67366D02*
X74521Y67366D01*
X74600Y67364D01*
X74679Y67358D01*
X74758Y67349D01*
X74836Y67336D01*
X74913Y67318D01*
X74989Y67298D01*
X75064Y67273D01*
X75138Y67245D01*
X75211Y67214D01*
X75282Y67178D01*
X75351Y67140D01*
X75418Y67098D01*
X75483Y67053D01*
X75546Y67005D01*
X75607Y66954D01*
X75664Y66900D01*
X75720Y66844D01*
X75772Y66785D01*
X75822Y66723D01*
X75868Y66659D01*
X75912Y66593D01*
X75952Y66525D01*
X75988Y66455D01*
X76022Y66383D01*
X76052Y66309D01*
X76078Y66235D01*
X76101Y66159D01*
X76119Y66082D01*
X76135Y66005D01*
X76146Y65926D01*
X76154Y65848D01*
X76158Y65769D01*
X76158Y65689D01*
X76154Y65610D01*
X76146Y65532D01*
X76135Y65453D01*
X76119Y65376D01*
X76101Y65299D01*
X76078Y65223D01*
X76052Y65149D01*
X76022Y65075D01*
X75988Y65003D01*
X75952Y64933D01*
X75912Y64865D01*
X75868Y64799D01*
X75822Y64735D01*
X75772Y64673D01*
X75720Y64614D01*
X75664Y64558D01*
X75607Y64504D01*
X75546Y64453D01*
X75483Y64405D01*
X75418Y64360D01*
X75351Y64318D01*
X75282Y64280D01*
X75211Y64244D01*
X75138Y64213D01*
X75064Y64185D01*
X74989Y64160D01*
X74913Y64140D01*
X74836Y64122D01*
X74758Y64109D01*
X74679Y64100D01*
X74600Y64094D01*
X74521Y64092D01*
X74521Y64093D02*
X73702Y64093D01*
X73702Y67366D01*
X71247Y59790D02*
X71247Y58153D01*
X71247Y59790D02*
X71249Y59859D01*
X71255Y59927D01*
X71264Y59996D01*
X71278Y60063D01*
X71295Y60130D01*
X71316Y60196D01*
X71340Y60260D01*
X71369Y60323D01*
X71400Y60384D01*
X71435Y60443D01*
X71473Y60501D01*
X71515Y60556D01*
X71559Y60608D01*
X71607Y60658D01*
X71657Y60706D01*
X71709Y60750D01*
X71764Y60792D01*
X71822Y60830D01*
X71881Y60865D01*
X71942Y60896D01*
X72005Y60925D01*
X72069Y60949D01*
X72135Y60970D01*
X72202Y60987D01*
X72269Y61001D01*
X72338Y61010D01*
X72406Y61016D01*
X72475Y61018D01*
X72475Y61017D02*
X74930Y61017D01*
X74930Y61018D02*
X74999Y61016D01*
X75067Y61010D01*
X75136Y61001D01*
X75203Y60987D01*
X75270Y60970D01*
X75336Y60949D01*
X75400Y60925D01*
X75463Y60896D01*
X75524Y60865D01*
X75583Y60830D01*
X75641Y60792D01*
X75696Y60750D01*
X75748Y60706D01*
X75798Y60658D01*
X75846Y60608D01*
X75890Y60556D01*
X75932Y60501D01*
X75970Y60443D01*
X76005Y60384D01*
X76036Y60323D01*
X76065Y60260D01*
X76089Y60196D01*
X76110Y60130D01*
X76127Y60063D01*
X76141Y59996D01*
X76150Y59927D01*
X76156Y59859D01*
X76158Y59790D01*
X76158Y58153D01*
X76158Y55174D02*
X72475Y55174D01*
X72475Y55175D02*
X72406Y55173D01*
X72338Y55167D01*
X72269Y55158D01*
X72202Y55144D01*
X72135Y55127D01*
X72069Y55106D01*
X72005Y55082D01*
X71942Y55053D01*
X71881Y55022D01*
X71822Y54987D01*
X71764Y54949D01*
X71709Y54907D01*
X71657Y54863D01*
X71607Y54815D01*
X71559Y54765D01*
X71515Y54713D01*
X71474Y54658D01*
X71435Y54600D01*
X71400Y54541D01*
X71369Y54480D01*
X71340Y54417D01*
X71316Y54353D01*
X71295Y54287D01*
X71278Y54220D01*
X71264Y54153D01*
X71255Y54085D01*
X71249Y54016D01*
X71247Y53947D01*
X71247Y51901D01*
X76158Y51901D01*
X76158Y48301D02*
X71247Y48301D01*
X76158Y48301D02*
X76158Y45845D01*
X75339Y45845D01*
X71247Y42242D02*
X71247Y40196D01*
X71247Y42242D02*
X71249Y42311D01*
X71255Y42379D01*
X71264Y42448D01*
X71278Y42515D01*
X71295Y42582D01*
X71316Y42648D01*
X71340Y42712D01*
X71369Y42775D01*
X71400Y42836D01*
X71435Y42895D01*
X71473Y42953D01*
X71515Y43008D01*
X71559Y43060D01*
X71607Y43110D01*
X71657Y43158D01*
X71709Y43202D01*
X71764Y43244D01*
X71822Y43282D01*
X71881Y43317D01*
X71942Y43348D01*
X72005Y43377D01*
X72069Y43401D01*
X72135Y43422D01*
X72202Y43439D01*
X72269Y43453D01*
X72338Y43462D01*
X72406Y43468D01*
X72475Y43470D01*
X74521Y43470D01*
X74600Y43468D01*
X74679Y43462D01*
X74758Y43453D01*
X74836Y43440D01*
X74913Y43422D01*
X74989Y43402D01*
X75064Y43377D01*
X75138Y43349D01*
X75211Y43318D01*
X75282Y43282D01*
X75351Y43244D01*
X75418Y43202D01*
X75483Y43157D01*
X75546Y43109D01*
X75607Y43058D01*
X75664Y43004D01*
X75720Y42948D01*
X75772Y42889D01*
X75822Y42827D01*
X75868Y42763D01*
X75912Y42697D01*
X75952Y42629D01*
X75988Y42559D01*
X76022Y42487D01*
X76052Y42413D01*
X76078Y42339D01*
X76101Y42263D01*
X76119Y42186D01*
X76135Y42109D01*
X76146Y42030D01*
X76154Y41952D01*
X76158Y41873D01*
X76158Y41793D01*
X76154Y41714D01*
X76146Y41636D01*
X76135Y41557D01*
X76119Y41480D01*
X76101Y41403D01*
X76078Y41327D01*
X76052Y41253D01*
X76022Y41179D01*
X75988Y41107D01*
X75952Y41037D01*
X75912Y40969D01*
X75868Y40903D01*
X75822Y40839D01*
X75772Y40777D01*
X75720Y40718D01*
X75664Y40662D01*
X75607Y40608D01*
X75546Y40557D01*
X75483Y40509D01*
X75418Y40464D01*
X75351Y40422D01*
X75282Y40384D01*
X75211Y40348D01*
X75138Y40317D01*
X75064Y40289D01*
X74989Y40264D01*
X74913Y40244D01*
X74836Y40226D01*
X74758Y40213D01*
X74679Y40204D01*
X74600Y40198D01*
X74521Y40196D01*
X73702Y40196D01*
X73702Y43470D01*
X72475Y37047D02*
X78613Y37047D01*
X72475Y37048D02*
X72406Y37046D01*
X72338Y37040D01*
X72269Y37031D01*
X72202Y37017D01*
X72135Y37000D01*
X72069Y36979D01*
X72005Y36955D01*
X71942Y36926D01*
X71881Y36895D01*
X71822Y36860D01*
X71764Y36822D01*
X71709Y36780D01*
X71657Y36736D01*
X71607Y36688D01*
X71559Y36638D01*
X71515Y36586D01*
X71474Y36531D01*
X71435Y36473D01*
X71400Y36414D01*
X71369Y36353D01*
X71340Y36290D01*
X71316Y36226D01*
X71295Y36160D01*
X71278Y36093D01*
X71264Y36026D01*
X71255Y35958D01*
X71249Y35889D01*
X71247Y35820D01*
X68792Y33473D02*
X68792Y32654D01*
X76158Y30199D01*
X76158Y33473D02*
X71247Y31836D01*
X71247Y26983D02*
X77385Y26983D01*
X77385Y26984D02*
X77454Y26982D01*
X77522Y26976D01*
X77591Y26967D01*
X77658Y26953D01*
X77725Y26936D01*
X77791Y26915D01*
X77855Y26891D01*
X77918Y26862D01*
X77979Y26831D01*
X78038Y26796D01*
X78096Y26758D01*
X78151Y26716D01*
X78203Y26672D01*
X78253Y26624D01*
X78301Y26574D01*
X78345Y26522D01*
X78386Y26467D01*
X78425Y26409D01*
X78460Y26350D01*
X78491Y26289D01*
X78520Y26226D01*
X78544Y26162D01*
X78565Y26096D01*
X78582Y26029D01*
X78596Y25962D01*
X78605Y25894D01*
X78611Y25825D01*
X78613Y25756D01*
X78613Y25346D01*
X76158Y25346D02*
X76158Y27802D01*
X76158Y23302D02*
X71247Y23302D01*
X78204Y23506D02*
X78613Y23506D01*
X78613Y23097D01*
X78204Y23097D01*
X78204Y23506D01*
X76158Y20936D02*
X76158Y18481D01*
X78613Y20117D02*
X72475Y20117D01*
X72475Y20118D02*
X72406Y20116D01*
X72338Y20110D01*
X72269Y20101D01*
X72202Y20087D01*
X72135Y20070D01*
X72069Y20049D01*
X72005Y20025D01*
X71942Y19996D01*
X71881Y19965D01*
X71822Y19930D01*
X71764Y19892D01*
X71709Y19850D01*
X71657Y19806D01*
X71607Y19758D01*
X71559Y19708D01*
X71515Y19656D01*
X71474Y19601D01*
X71435Y19543D01*
X71400Y19484D01*
X71369Y19423D01*
X71340Y19360D01*
X71316Y19296D01*
X71295Y19230D01*
X71278Y19163D01*
X71264Y19096D01*
X71255Y19028D01*
X71249Y18959D01*
X71247Y18890D01*
X71247Y18481D01*
X76158Y15916D02*
X76158Y12643D01*
X71247Y15916D01*
X71247Y12643D01*
X59055Y86857D02*
X59055Y88903D01*
X59057Y88972D01*
X59063Y89040D01*
X59072Y89109D01*
X59086Y89176D01*
X59103Y89243D01*
X59124Y89309D01*
X59148Y89373D01*
X59177Y89436D01*
X59208Y89497D01*
X59243Y89556D01*
X59281Y89614D01*
X59323Y89669D01*
X59367Y89721D01*
X59415Y89771D01*
X59465Y89819D01*
X59517Y89863D01*
X59572Y89905D01*
X59630Y89943D01*
X59689Y89978D01*
X59750Y90009D01*
X59813Y90038D01*
X59877Y90062D01*
X59943Y90083D01*
X60010Y90100D01*
X60077Y90114D01*
X60146Y90123D01*
X60214Y90129D01*
X60283Y90131D01*
X62738Y90131D01*
X62807Y90129D01*
X62875Y90123D01*
X62944Y90114D01*
X63011Y90100D01*
X63078Y90083D01*
X63144Y90062D01*
X63208Y90038D01*
X63271Y90009D01*
X63332Y89978D01*
X63391Y89943D01*
X63449Y89905D01*
X63504Y89863D01*
X63556Y89819D01*
X63606Y89771D01*
X63654Y89721D01*
X63698Y89669D01*
X63740Y89614D01*
X63778Y89556D01*
X63813Y89497D01*
X63844Y89436D01*
X63873Y89373D01*
X63897Y89309D01*
X63918Y89243D01*
X63935Y89176D01*
X63949Y89109D01*
X63958Y89040D01*
X63964Y88972D01*
X63966Y88903D01*
X63966Y86857D01*
X57827Y86857D01*
X57758Y86859D01*
X57690Y86865D01*
X57621Y86874D01*
X57554Y86888D01*
X57487Y86905D01*
X57421Y86926D01*
X57357Y86950D01*
X57294Y86979D01*
X57233Y87010D01*
X57174Y87045D01*
X57116Y87083D01*
X57061Y87125D01*
X57009Y87169D01*
X56959Y87217D01*
X56911Y87267D01*
X56867Y87319D01*
X56825Y87374D01*
X56787Y87432D01*
X56752Y87491D01*
X56721Y87552D01*
X56692Y87615D01*
X56668Y87679D01*
X56647Y87745D01*
X56630Y87812D01*
X56616Y87879D01*
X56607Y87948D01*
X56601Y88016D01*
X56599Y88085D01*
X56600Y88085D02*
X56600Y89722D01*
X59055Y83577D02*
X63966Y83577D01*
X66012Y83781D02*
X66421Y83781D01*
X66421Y83372D01*
X66012Y83372D01*
X66012Y83781D01*
X63966Y81211D02*
X63966Y78756D01*
X66421Y80392D02*
X60283Y80392D01*
X60283Y80393D02*
X60214Y80391D01*
X60146Y80385D01*
X60077Y80376D01*
X60010Y80362D01*
X59943Y80345D01*
X59877Y80324D01*
X59813Y80300D01*
X59750Y80271D01*
X59689Y80240D01*
X59630Y80205D01*
X59572Y80167D01*
X59517Y80125D01*
X59465Y80081D01*
X59415Y80033D01*
X59367Y79983D01*
X59323Y79931D01*
X59282Y79876D01*
X59243Y79818D01*
X59208Y79759D01*
X59177Y79698D01*
X59148Y79635D01*
X59124Y79571D01*
X59103Y79505D01*
X59086Y79438D01*
X59072Y79371D01*
X59063Y79303D01*
X59057Y79234D01*
X59055Y79165D01*
X59055Y78756D01*
X59055Y76222D02*
X59464Y76222D01*
X59464Y75813D01*
X59055Y75813D01*
X59055Y76222D01*
X59055Y73092D02*
X63966Y73092D01*
X66012Y73296D02*
X66421Y73296D01*
X66421Y72887D01*
X66012Y72887D01*
X66012Y73296D01*
X62329Y70096D02*
X60692Y70096D01*
X62329Y70096D02*
X62408Y70094D01*
X62487Y70088D01*
X62566Y70079D01*
X62644Y70066D01*
X62721Y70048D01*
X62797Y70028D01*
X62872Y70003D01*
X62946Y69975D01*
X63019Y69944D01*
X63090Y69908D01*
X63159Y69870D01*
X63226Y69828D01*
X63291Y69783D01*
X63354Y69735D01*
X63415Y69684D01*
X63472Y69630D01*
X63528Y69574D01*
X63580Y69515D01*
X63630Y69453D01*
X63676Y69389D01*
X63720Y69323D01*
X63760Y69255D01*
X63796Y69185D01*
X63830Y69113D01*
X63860Y69039D01*
X63886Y68965D01*
X63909Y68889D01*
X63927Y68812D01*
X63943Y68735D01*
X63954Y68656D01*
X63962Y68578D01*
X63966Y68499D01*
X63966Y68419D01*
X63962Y68340D01*
X63954Y68262D01*
X63943Y68183D01*
X63927Y68106D01*
X63909Y68029D01*
X63886Y67953D01*
X63860Y67879D01*
X63830Y67805D01*
X63796Y67733D01*
X63760Y67663D01*
X63720Y67595D01*
X63676Y67529D01*
X63630Y67465D01*
X63580Y67403D01*
X63528Y67344D01*
X63472Y67288D01*
X63415Y67234D01*
X63354Y67183D01*
X63291Y67135D01*
X63226Y67090D01*
X63159Y67048D01*
X63090Y67010D01*
X63019Y66974D01*
X62946Y66943D01*
X62872Y66915D01*
X62797Y66890D01*
X62721Y66870D01*
X62644Y66852D01*
X62566Y66839D01*
X62487Y66830D01*
X62408Y66824D01*
X62329Y66822D01*
X60692Y66822D01*
X60613Y66824D01*
X60534Y66830D01*
X60455Y66839D01*
X60377Y66852D01*
X60300Y66870D01*
X60224Y66890D01*
X60149Y66915D01*
X60075Y66943D01*
X60002Y66974D01*
X59931Y67010D01*
X59862Y67048D01*
X59795Y67090D01*
X59730Y67135D01*
X59667Y67183D01*
X59606Y67234D01*
X59549Y67288D01*
X59493Y67344D01*
X59441Y67403D01*
X59391Y67465D01*
X59345Y67529D01*
X59301Y67595D01*
X59261Y67663D01*
X59225Y67733D01*
X59191Y67805D01*
X59161Y67879D01*
X59135Y67953D01*
X59112Y68029D01*
X59094Y68106D01*
X59078Y68183D01*
X59067Y68262D01*
X59059Y68340D01*
X59055Y68419D01*
X59055Y68499D01*
X59059Y68578D01*
X59067Y68656D01*
X59078Y68735D01*
X59094Y68812D01*
X59112Y68889D01*
X59135Y68965D01*
X59161Y69039D01*
X59191Y69113D01*
X59225Y69185D01*
X59261Y69255D01*
X59301Y69323D01*
X59345Y69389D01*
X59391Y69453D01*
X59441Y69515D01*
X59493Y69574D01*
X59549Y69630D01*
X59606Y69684D01*
X59667Y69735D01*
X59730Y69783D01*
X59795Y69828D01*
X59862Y69870D01*
X59931Y69908D01*
X60002Y69944D01*
X60075Y69975D01*
X60149Y70003D01*
X60224Y70028D01*
X60300Y70048D01*
X60377Y70066D01*
X60455Y70079D01*
X60534Y70088D01*
X60613Y70094D01*
X60692Y70096D01*
X58237Y64000D02*
X67239Y60726D01*
X61920Y57290D02*
X61101Y55244D01*
X61920Y57290D02*
X61945Y57349D01*
X61974Y57406D01*
X62007Y57461D01*
X62043Y57514D01*
X62081Y57565D01*
X62123Y57613D01*
X62168Y57659D01*
X62215Y57702D01*
X62265Y57742D01*
X62317Y57779D01*
X62372Y57813D01*
X62428Y57844D01*
X62486Y57871D01*
X62546Y57894D01*
X62606Y57914D01*
X62668Y57930D01*
X62731Y57943D01*
X62795Y57951D01*
X62858Y57956D01*
X62922Y57957D01*
X62986Y57954D01*
X63050Y57947D01*
X63113Y57936D01*
X63175Y57922D01*
X63237Y57904D01*
X63297Y57882D01*
X63356Y57857D01*
X63413Y57828D01*
X63468Y57795D01*
X63521Y57760D01*
X63572Y57721D01*
X63621Y57679D01*
X63667Y57635D01*
X63710Y57587D01*
X63750Y57538D01*
X63787Y57485D01*
X63821Y57431D01*
X63852Y57375D01*
X63879Y57317D01*
X63903Y57258D01*
X63922Y57197D01*
X63939Y57135D01*
X63951Y57072D01*
X63960Y57009D01*
X63965Y56945D01*
X63966Y56881D01*
X63962Y56745D01*
X63954Y56610D01*
X63942Y56474D01*
X63926Y56340D01*
X63906Y56205D01*
X63883Y56072D01*
X63855Y55939D01*
X63824Y55807D01*
X63789Y55676D01*
X63750Y55546D01*
X63707Y55417D01*
X63660Y55290D01*
X63610Y55164D01*
X63556Y55039D01*
X61101Y55244D02*
X61076Y55185D01*
X61047Y55128D01*
X61014Y55073D01*
X60978Y55020D01*
X60940Y54969D01*
X60898Y54921D01*
X60853Y54875D01*
X60806Y54832D01*
X60756Y54792D01*
X60704Y54755D01*
X60649Y54721D01*
X60593Y54690D01*
X60535Y54663D01*
X60475Y54640D01*
X60415Y54620D01*
X60353Y54604D01*
X60290Y54591D01*
X60226Y54583D01*
X60163Y54578D01*
X60099Y54577D01*
X60035Y54580D01*
X59971Y54587D01*
X59908Y54598D01*
X59846Y54612D01*
X59784Y54630D01*
X59724Y54652D01*
X59665Y54677D01*
X59608Y54706D01*
X59553Y54739D01*
X59500Y54774D01*
X59449Y54813D01*
X59400Y54855D01*
X59354Y54899D01*
X59311Y54947D01*
X59271Y54996D01*
X59234Y55049D01*
X59200Y55103D01*
X59169Y55159D01*
X59142Y55217D01*
X59118Y55276D01*
X59099Y55337D01*
X59082Y55399D01*
X59070Y55462D01*
X59061Y55525D01*
X59056Y55589D01*
X59055Y55653D01*
X59059Y55817D01*
X59067Y55981D01*
X59079Y56145D01*
X59095Y56308D01*
X59115Y56471D01*
X59138Y56634D01*
X59166Y56795D01*
X59197Y56957D01*
X59232Y57117D01*
X59271Y57276D01*
X59314Y57435D01*
X59360Y57592D01*
X59410Y57749D01*
X59464Y57904D01*
X61920Y50172D02*
X61920Y48331D01*
X61919Y50172D02*
X61917Y50247D01*
X61911Y50322D01*
X61901Y50396D01*
X61888Y50470D01*
X61870Y50543D01*
X61849Y50615D01*
X61824Y50685D01*
X61795Y50754D01*
X61763Y50822D01*
X61727Y50888D01*
X61688Y50952D01*
X61646Y51014D01*
X61600Y51073D01*
X61551Y51130D01*
X61500Y51185D01*
X61445Y51236D01*
X61388Y51285D01*
X61329Y51331D01*
X61267Y51373D01*
X61203Y51412D01*
X61137Y51448D01*
X61069Y51480D01*
X61000Y51509D01*
X60930Y51534D01*
X60858Y51555D01*
X60785Y51573D01*
X60711Y51586D01*
X60637Y51596D01*
X60562Y51602D01*
X60487Y51604D01*
X60412Y51602D01*
X60337Y51596D01*
X60263Y51586D01*
X60189Y51573D01*
X60116Y51555D01*
X60044Y51534D01*
X59974Y51509D01*
X59905Y51480D01*
X59837Y51448D01*
X59771Y51412D01*
X59707Y51373D01*
X59645Y51331D01*
X59586Y51285D01*
X59529Y51236D01*
X59474Y51185D01*
X59423Y51130D01*
X59374Y51073D01*
X59328Y51014D01*
X59286Y50952D01*
X59247Y50888D01*
X59211Y50822D01*
X59179Y50754D01*
X59150Y50685D01*
X59125Y50615D01*
X59104Y50543D01*
X59086Y50470D01*
X59073Y50396D01*
X59063Y50322D01*
X59057Y50247D01*
X59055Y50172D01*
X59055Y48331D01*
X62738Y48331D01*
X62807Y48333D01*
X62875Y48339D01*
X62944Y48348D01*
X63011Y48362D01*
X63078Y48379D01*
X63144Y48400D01*
X63208Y48424D01*
X63271Y48453D01*
X63332Y48484D01*
X63391Y48519D01*
X63449Y48557D01*
X63504Y48599D01*
X63556Y48643D01*
X63606Y48691D01*
X63654Y48741D01*
X63698Y48793D01*
X63740Y48848D01*
X63778Y48906D01*
X63813Y48965D01*
X63844Y49026D01*
X63873Y49089D01*
X63897Y49153D01*
X63918Y49219D01*
X63935Y49286D01*
X63949Y49353D01*
X63958Y49422D01*
X63964Y49490D01*
X63966Y49559D01*
X63966Y51195D01*
X62329Y44980D02*
X60692Y44980D01*
X62329Y44980D02*
X62408Y44978D01*
X62487Y44972D01*
X62566Y44963D01*
X62644Y44950D01*
X62721Y44932D01*
X62797Y44912D01*
X62872Y44887D01*
X62946Y44859D01*
X63019Y44828D01*
X63090Y44792D01*
X63159Y44754D01*
X63226Y44712D01*
X63291Y44667D01*
X63354Y44619D01*
X63415Y44568D01*
X63472Y44514D01*
X63528Y44458D01*
X63580Y44399D01*
X63630Y44337D01*
X63676Y44273D01*
X63720Y44207D01*
X63760Y44139D01*
X63796Y44069D01*
X63830Y43997D01*
X63860Y43923D01*
X63886Y43849D01*
X63909Y43773D01*
X63927Y43696D01*
X63943Y43619D01*
X63954Y43540D01*
X63962Y43462D01*
X63966Y43383D01*
X63966Y43303D01*
X63962Y43224D01*
X63954Y43146D01*
X63943Y43067D01*
X63927Y42990D01*
X63909Y42913D01*
X63886Y42837D01*
X63860Y42763D01*
X63830Y42689D01*
X63796Y42617D01*
X63760Y42547D01*
X63720Y42479D01*
X63676Y42413D01*
X63630Y42349D01*
X63580Y42287D01*
X63528Y42228D01*
X63472Y42172D01*
X63415Y42118D01*
X63354Y42067D01*
X63291Y42019D01*
X63226Y41974D01*
X63159Y41932D01*
X63090Y41894D01*
X63019Y41858D01*
X62946Y41827D01*
X62872Y41799D01*
X62797Y41774D01*
X62721Y41754D01*
X62644Y41736D01*
X62566Y41723D01*
X62487Y41714D01*
X62408Y41708D01*
X62329Y41706D01*
X60692Y41706D01*
X60613Y41708D01*
X60534Y41714D01*
X60455Y41723D01*
X60377Y41736D01*
X60300Y41754D01*
X60224Y41774D01*
X60149Y41799D01*
X60075Y41827D01*
X60002Y41858D01*
X59931Y41894D01*
X59862Y41932D01*
X59795Y41974D01*
X59730Y42019D01*
X59667Y42067D01*
X59606Y42118D01*
X59549Y42172D01*
X59493Y42228D01*
X59441Y42287D01*
X59391Y42349D01*
X59345Y42413D01*
X59301Y42479D01*
X59261Y42547D01*
X59225Y42617D01*
X59191Y42689D01*
X59161Y42763D01*
X59135Y42837D01*
X59112Y42913D01*
X59094Y42990D01*
X59078Y43067D01*
X59067Y43146D01*
X59059Y43224D01*
X59055Y43303D01*
X59055Y43383D01*
X59059Y43462D01*
X59067Y43540D01*
X59078Y43619D01*
X59094Y43696D01*
X59112Y43773D01*
X59135Y43849D01*
X59161Y43923D01*
X59191Y43997D01*
X59225Y44069D01*
X59261Y44139D01*
X59301Y44207D01*
X59345Y44273D01*
X59391Y44337D01*
X59441Y44399D01*
X59493Y44458D01*
X59549Y44514D01*
X59606Y44568D01*
X59667Y44619D01*
X59730Y44667D01*
X59795Y44712D01*
X59862Y44754D01*
X59931Y44792D01*
X60002Y44828D01*
X60075Y44859D01*
X60149Y44887D01*
X60224Y44912D01*
X60300Y44932D01*
X60377Y44950D01*
X60455Y44963D01*
X60534Y44972D01*
X60613Y44978D01*
X60692Y44980D01*
X61920Y38483D02*
X61920Y33573D01*
X61920Y28958D02*
X61920Y27117D01*
X61919Y28958D02*
X61917Y29033D01*
X61911Y29108D01*
X61901Y29182D01*
X61888Y29256D01*
X61870Y29329D01*
X61849Y29401D01*
X61824Y29471D01*
X61795Y29540D01*
X61763Y29608D01*
X61727Y29674D01*
X61688Y29738D01*
X61646Y29800D01*
X61600Y29859D01*
X61551Y29916D01*
X61500Y29971D01*
X61445Y30022D01*
X61388Y30071D01*
X61329Y30117D01*
X61267Y30159D01*
X61203Y30198D01*
X61137Y30234D01*
X61069Y30266D01*
X61000Y30295D01*
X60930Y30320D01*
X60858Y30341D01*
X60785Y30359D01*
X60711Y30372D01*
X60637Y30382D01*
X60562Y30388D01*
X60487Y30390D01*
X60412Y30388D01*
X60337Y30382D01*
X60263Y30372D01*
X60189Y30359D01*
X60116Y30341D01*
X60044Y30320D01*
X59974Y30295D01*
X59905Y30266D01*
X59837Y30234D01*
X59771Y30198D01*
X59707Y30159D01*
X59645Y30117D01*
X59586Y30071D01*
X59529Y30022D01*
X59474Y29971D01*
X59423Y29916D01*
X59374Y29859D01*
X59328Y29800D01*
X59286Y29738D01*
X59247Y29674D01*
X59211Y29608D01*
X59179Y29540D01*
X59150Y29471D01*
X59125Y29401D01*
X59104Y29329D01*
X59086Y29256D01*
X59073Y29182D01*
X59063Y29108D01*
X59057Y29033D01*
X59055Y28958D01*
X59055Y27117D01*
X62738Y27117D01*
X62807Y27119D01*
X62875Y27125D01*
X62944Y27134D01*
X63011Y27148D01*
X63078Y27165D01*
X63144Y27186D01*
X63208Y27210D01*
X63271Y27239D01*
X63332Y27270D01*
X63391Y27305D01*
X63449Y27343D01*
X63504Y27385D01*
X63556Y27429D01*
X63606Y27477D01*
X63654Y27527D01*
X63698Y27579D01*
X63740Y27634D01*
X63778Y27692D01*
X63813Y27751D01*
X63844Y27812D01*
X63873Y27875D01*
X63897Y27939D01*
X63918Y28005D01*
X63935Y28072D01*
X63949Y28139D01*
X63958Y28208D01*
X63964Y28276D01*
X63966Y28345D01*
X63966Y29981D01*
X63966Y23476D02*
X59055Y23476D01*
X63966Y23476D02*
X63966Y21021D01*
X63147Y21021D01*
X63966Y18245D02*
X59055Y18245D01*
X63966Y18245D02*
X63966Y14562D01*
X63964Y14493D01*
X63958Y14425D01*
X63949Y14356D01*
X63935Y14289D01*
X63918Y14222D01*
X63897Y14156D01*
X63873Y14092D01*
X63844Y14029D01*
X63813Y13968D01*
X63778Y13909D01*
X63740Y13851D01*
X63698Y13796D01*
X63654Y13744D01*
X63606Y13694D01*
X63556Y13646D01*
X63504Y13602D01*
X63449Y13561D01*
X63391Y13522D01*
X63332Y13487D01*
X63271Y13456D01*
X63208Y13427D01*
X63144Y13403D01*
X63078Y13382D01*
X63011Y13365D01*
X62944Y13351D01*
X62876Y13342D01*
X62807Y13336D01*
X62738Y13334D01*
X59055Y13334D01*
X59055Y15789D02*
X63966Y15789D01*
X61920Y9253D02*
X61101Y7207D01*
X61920Y9253D02*
X61945Y9312D01*
X61974Y9369D01*
X62007Y9424D01*
X62043Y9477D01*
X62081Y9528D01*
X62123Y9576D01*
X62168Y9622D01*
X62215Y9665D01*
X62265Y9705D01*
X62317Y9742D01*
X62372Y9776D01*
X62428Y9807D01*
X62486Y9834D01*
X62546Y9857D01*
X62606Y9877D01*
X62668Y9893D01*
X62731Y9906D01*
X62795Y9914D01*
X62858Y9919D01*
X62922Y9920D01*
X62986Y9917D01*
X63050Y9910D01*
X63113Y9899D01*
X63175Y9885D01*
X63237Y9867D01*
X63297Y9845D01*
X63356Y9820D01*
X63413Y9791D01*
X63468Y9758D01*
X63521Y9723D01*
X63572Y9684D01*
X63621Y9642D01*
X63667Y9598D01*
X63710Y9550D01*
X63750Y9501D01*
X63787Y9448D01*
X63821Y9394D01*
X63852Y9338D01*
X63879Y9280D01*
X63903Y9221D01*
X63922Y9160D01*
X63939Y9098D01*
X63951Y9035D01*
X63960Y8972D01*
X63965Y8908D01*
X63966Y8844D01*
X63966Y8845D02*
X63962Y8709D01*
X63954Y8574D01*
X63942Y8438D01*
X63926Y8304D01*
X63906Y8169D01*
X63883Y8036D01*
X63855Y7903D01*
X63824Y7771D01*
X63789Y7640D01*
X63750Y7510D01*
X63707Y7381D01*
X63660Y7254D01*
X63610Y7128D01*
X63556Y7003D01*
X61101Y7207D02*
X61076Y7148D01*
X61047Y7091D01*
X61014Y7036D01*
X60978Y6983D01*
X60940Y6932D01*
X60898Y6884D01*
X60853Y6838D01*
X60806Y6795D01*
X60756Y6755D01*
X60704Y6718D01*
X60649Y6684D01*
X60593Y6653D01*
X60535Y6626D01*
X60475Y6603D01*
X60415Y6583D01*
X60353Y6567D01*
X60290Y6554D01*
X60226Y6546D01*
X60163Y6541D01*
X60099Y6540D01*
X60035Y6543D01*
X59971Y6550D01*
X59908Y6561D01*
X59846Y6575D01*
X59784Y6593D01*
X59724Y6615D01*
X59665Y6640D01*
X59608Y6669D01*
X59553Y6702D01*
X59500Y6737D01*
X59449Y6776D01*
X59400Y6818D01*
X59354Y6862D01*
X59311Y6910D01*
X59271Y6959D01*
X59234Y7012D01*
X59200Y7066D01*
X59169Y7122D01*
X59142Y7180D01*
X59118Y7239D01*
X59099Y7300D01*
X59082Y7362D01*
X59070Y7425D01*
X59061Y7488D01*
X59056Y7552D01*
X59055Y7616D01*
X59059Y7780D01*
X59067Y7944D01*
X59079Y8108D01*
X59095Y8271D01*
X59115Y8434D01*
X59138Y8597D01*
X59166Y8758D01*
X59197Y8920D01*
X59232Y9080D01*
X59271Y9239D01*
X59314Y9398D01*
X59360Y9555D01*
X59410Y9712D01*
X59464Y9867D01*
D11*
X10922Y50800D03*
X39878Y50800D03*
X557022Y444500D03*
X585978Y444500D03*
X557022Y469900D03*
X585978Y469900D03*
X10922Y25400D03*
X39878Y25400D03*
M02*
