G04 EAGLE Gerber X2 export*
G75*
%MOMM*%
%FSLAX34Y34*%
%LPD*%
%AMOC8*
5,1,8,0,0,1.08239X$1,22.5*%
G01*
%ADD10C,0.254000*%


D10*
X-12700Y0D02*
X76200Y0D01*
X101271Y21048D01*
X124413Y44201D01*
X145448Y69283D01*
X164218Y96103D01*
X180578Y124457D01*
X194405Y154128D01*
X205594Y184892D01*
X214058Y216514D01*
X219735Y248753D01*
X222579Y281365D01*
X222571Y314100D01*
X219710Y346710D01*
X231894Y371481D01*
X246190Y395097D01*
X262490Y417376D01*
X280670Y438150D01*
X298916Y428151D01*
X317964Y419781D01*
X337669Y413103D01*
X357881Y408167D01*
X378446Y405012D01*
X399208Y403661D01*
X420009Y404125D01*
X440690Y406400D01*
X559110Y359628D01*
X561458Y358817D01*
X563867Y358214D01*
X566320Y357823D01*
X568797Y357648D01*
X571281Y357689D01*
X573751Y357946D01*
X576189Y358418D01*
X578578Y359100D01*
X580897Y359988D01*
X583130Y361075D01*
X585261Y362352D01*
X587271Y363810D01*
X589147Y365438D01*
X590874Y367223D01*
X592439Y369152D01*
X593830Y371210D01*
X594360Y372110D01*
X643890Y466090D01*
X644277Y468124D01*
X644484Y470185D01*
X644512Y472256D01*
X644359Y474321D01*
X644026Y476365D01*
X643517Y478372D01*
X642835Y480327D01*
X641984Y482215D01*
X640973Y484022D01*
X639808Y485734D01*
X638498Y487338D01*
X637053Y488822D01*
X635484Y490174D01*
X633804Y491384D01*
X632024Y492443D01*
X630159Y493343D01*
X628223Y494077D01*
X626230Y494640D01*
X624195Y495027D01*
X622135Y495234D01*
X620843Y495273D01*
X609600Y495300D01*
X554331Y495300D01*
X552507Y495220D01*
X550696Y494982D01*
X548914Y494587D01*
X547172Y494038D01*
X545485Y493339D01*
X543866Y492496D01*
X542325Y491515D01*
X540877Y490403D01*
X539531Y489169D01*
X538297Y487823D01*
X537185Y486375D01*
X536204Y484835D01*
X535361Y483215D01*
X534662Y481528D01*
X534113Y479786D01*
X533718Y478004D01*
X533480Y476193D01*
X533400Y474369D01*
X533400Y452062D01*
X533314Y450100D01*
X533058Y448153D01*
X532633Y446235D01*
X532042Y444362D01*
X531291Y442548D01*
X530384Y440805D01*
X529329Y439149D01*
X528133Y437591D01*
X526806Y436143D01*
X525358Y434816D01*
X523800Y433620D01*
X522143Y432565D01*
X520401Y431658D01*
X518587Y430906D01*
X516714Y430316D01*
X514796Y429891D01*
X512849Y429634D01*
X510887Y429549D01*
X508924Y429634D01*
X506977Y429891D01*
X505060Y430316D01*
X503187Y430906D01*
X502696Y431091D01*
X308711Y519369D01*
X300540Y522665D01*
X292114Y525236D01*
X283495Y527063D01*
X274751Y528132D01*
X265946Y528435D01*
X257148Y527969D01*
X248425Y526738D01*
X239841Y524752D01*
X231464Y522025D01*
X223356Y518578D01*
X215580Y514438D01*
X208194Y509635D01*
X201298Y504245D01*
X101600Y419100D01*
X76495Y387955D01*
X54201Y354740D01*
X34886Y319709D01*
X18697Y283127D01*
X5759Y245274D01*
X-3831Y206437D01*
X-10000Y166912D01*
X-12700Y127000D01*
X-12700Y0D01*
M02*
