G04 EAGLE Gerber X2 export*
G75*
%MOMM*%
%FSLAX34Y34*%
%LPD*%
%AMOC8*
5,1,8,0,0,1.08239X$1,22.5*%
G01*
%ADD10R,0.044956X0.179831*%
%ADD11R,0.044959X0.404622*%
%ADD12R,0.044956X0.539497*%
%ADD13R,0.044959X0.719328*%
%ADD14R,0.044959X0.854200*%
%ADD15R,0.044956X0.989075*%
%ADD16R,0.044959X1.078991*%
%ADD17R,0.044956X0.674369*%
%ADD18R,0.044956X0.449581*%
%ADD19R,0.044959X0.584453*%
%ADD20R,0.044959X0.404625*%
%ADD21R,0.044956X0.494538*%
%ADD22R,0.044956X0.404622*%
%ADD23R,0.044959X0.449578*%
%ADD24R,0.044956X0.449578*%
%ADD25R,0.044959X0.494541*%
%ADD26R,0.044959X0.539497*%
%ADD27R,0.044956X0.539494*%
%ADD28R,0.044959X0.494538*%
%ADD29R,0.044956X0.359662*%
%ADD30R,0.044959X0.449581*%
%ADD31R,0.044956X0.359666*%
%ADD32R,0.044959X0.584456*%
%ADD33R,0.044956X0.584453*%
%ADD34R,0.044959X0.539494*%
%ADD35R,0.044959X0.629413*%
%ADD36R,0.044956X0.629409*%
%ADD37R,0.044959X0.629409*%
%ADD38R,0.044956X0.944119*%
%ADD39R,0.044956X0.629413*%
%ADD40R,0.044959X0.989078*%
%ADD41R,0.044956X1.034034*%
%ADD42R,0.044956X0.674372*%
%ADD43R,0.044959X1.078994*%
%ADD44R,0.044959X0.674372*%
%ADD45R,0.044959X1.034034*%
%ADD46R,0.044956X1.078991*%
%ADD47R,0.044959X1.123950*%
%ADD48R,0.044959X0.674369*%
%ADD49R,0.044956X2.157984*%
%ADD50R,0.044959X1.303784*%
%ADD51R,0.044956X1.168906*%
%ADD52R,0.044959X0.989075*%
%ADD53R,0.044956X0.494541*%
%ADD54R,0.044959X0.314706*%
%ADD55R,0.044956X0.314706*%
%ADD56R,0.044959X0.359666*%
%ADD57R,0.044959X0.359662*%
%ADD58R,0.044956X0.719328*%
%ADD59R,0.044956X0.809247*%
%ADD60R,0.044959X0.854203*%
%ADD61R,0.044959X0.899159*%
%ADD62R,0.044959X1.708403*%
%ADD63R,0.044956X0.764288*%
%ADD64R,0.044959X0.269750*%
%ADD65R,0.044959X0.044956*%
%ADD66R,0.044956X0.179834*%
%ADD67R,0.044959X0.269747*%
%ADD68R,0.044959X0.764288*%
%ADD69R,0.044956X0.809244*%
%ADD70R,0.044956X0.269747*%
%ADD71R,0.044956X0.899163*%
%ADD72R,0.044959X1.258825*%
%ADD73R,0.044956X1.258825*%
%ADD74R,0.044959X0.134875*%
%ADD75R,0.044956X0.764284*%
%ADD76R,0.044959X0.314703*%
%ADD77R,0.044956X0.584456*%
%ADD78R,0.044956X0.899159*%
%ADD79R,0.044956X1.573531*%
%ADD80R,0.044959X2.023109*%
%ADD81R,0.044956X1.978153*%
%ADD82R,0.044956X0.269750*%
%ADD83R,0.044956X0.224791*%
%ADD84R,0.044956X0.314703*%
%ADD85R,0.044956X0.404625*%
%ADD86R,0.044959X0.224791*%
%ADD87R,0.044956X0.089916*%
%ADD88R,0.044959X0.179834*%
%ADD89R,0.044959X0.224788*%
%ADD90R,0.044959X0.089916*%
%ADD91R,0.044956X0.224788*%
%ADD92R,0.044959X0.179831*%
%ADD93R,0.044959X0.089919*%
%ADD94R,0.044956X0.854203*%
%ADD95R,0.044959X0.899163*%
%ADD96R,0.044959X0.944119*%
%ADD97R,0.044959X0.809244*%
%ADD98R,0.044956X0.089919*%
%ADD99R,0.044959X1.213866*%
%ADD100R,0.044956X1.393697*%
%ADD101R,0.044959X1.483613*%
%ADD102R,0.044959X1.573528*%
%ADD103R,0.044956X1.573528*%
%ADD104R,0.044959X1.618488*%
%ADD105R,0.044956X1.663447*%
%ADD106R,0.044959X0.134872*%
%ADD107R,0.044959X0.764284*%
%ADD108R,0.044959X1.303781*%
%ADD109R,0.044956X1.483613*%
%ADD110R,0.044956X1.078994*%
%ADD111R,0.044956X2.023109*%
%ADD112R,0.044959X2.068069*%
%ADD113R,0.044956X0.944116*%
%ADD114R,0.044956X1.168909*%
%ADD115R,0.044956X1.438656*%
%ADD116R,0.044959X1.528572*%
%ADD117R,0.044959X1.663444*%
%ADD118R,0.044956X1.708403*%
%ADD119R,0.044959X1.753363*%
%ADD120R,0.044956X1.303784*%
%ADD121R,0.044956X1.618488*%
%ADD122R,0.044959X1.708406*%
%ADD123R,0.044956X1.843278*%
%ADD124R,0.044959X1.933194*%
%ADD125R,0.044959X1.348738*%
%ADD126R,0.044956X0.854200*%
%ADD127R,0.044959X1.438656*%
%ADD128R,0.044956X1.303781*%
%ADD129R,0.044959X0.809247*%
%ADD130R,0.044956X1.123950*%
%ADD131R,0.044959X0.044959*%
%ADD132R,0.044959X1.168906*%
%ADD133R,0.044959X1.168909*%
%ADD134R,0.044959X1.258822*%
%ADD135R,0.044956X1.348741*%
%ADD136R,0.044956X0.134872*%
%ADD137R,0.044956X1.393700*%
%ADD138R,0.044959X1.393697*%
%ADD139R,0.044956X1.258822*%
%ADD140R,0.044956X1.213866*%
%ADD141R,0.044959X1.438653*%
%ADD142R,0.044959X1.348741*%
%ADD143R,0.044956X1.528572*%
%ADD144R,0.044959X1.663447*%
%ADD145R,0.044956X2.202941*%
%ADD146R,0.044959X2.023113*%
%ADD147R,0.044959X1.888234*%
%ADD148R,0.044956X1.708406*%
%ADD149R,0.044959X1.798319*%
%ADD150R,0.044959X1.573531*%
%ADD151R,0.044956X1.618491*%
%ADD152R,0.044959X1.618491*%
%ADD153R,0.044956X2.068066*%
%ADD154R,0.044956X1.798319*%
%ADD155R,0.044956X0.989078*%
%ADD156R,0.044956X1.483616*%
%ADD157R,0.044959X1.843278*%
%ADD158R,0.044956X0.044959*%
%ADD159R,0.044959X0.944116*%
%ADD160R,0.044956X1.888238*%
%ADD161R,0.044956X0.134875*%
%ADD162R,0.044956X1.348738*%
%ADD163R,0.044959X2.247900*%
%ADD164R,0.044956X0.719325*%
%ADD165R,0.044959X1.034031*%
%ADD166R,0.044956X1.663444*%
%ADD167R,0.044959X1.483616*%
%ADD168R,0.044956X1.034031*%
%ADD169R,0.044959X1.393700*%
%ADD170R,0.044956X2.113025*%
%ADD171R,0.044959X1.798322*%
%ADD172R,0.044956X2.068069*%
%ADD173R,0.044959X4.810506*%
%ADD174R,0.044956X4.630675*%
%ADD175R,0.044959X3.911347*%
%ADD176R,0.044956X3.281934*%
%ADD177R,0.044959X2.157984*%


D10*
X635000Y472053D03*
D11*
X634550Y471828D03*
D12*
X634101Y471603D03*
D13*
X633651Y471603D03*
D14*
X633202Y471378D03*
D15*
X632752Y471154D03*
D16*
X632303Y471153D03*
D17*
X631853Y468231D03*
D18*
X631853Y474750D03*
D19*
X631403Y466882D03*
D20*
X631403Y475425D03*
D21*
X630954Y465983D03*
D22*
X630954Y475874D03*
D23*
X630504Y465309D03*
D11*
X630504Y476324D03*
D12*
X630055Y464410D03*
D24*
X630055Y476548D03*
D25*
X629605Y463735D03*
D23*
X629605Y476548D03*
D26*
X629155Y463061D03*
D23*
X629155Y476548D03*
D27*
X628706Y462611D03*
D24*
X628706Y476548D03*
D28*
X628256Y461937D03*
D11*
X628256Y476324D03*
D24*
X627807Y461263D03*
D29*
X627807Y476099D03*
D30*
X627357Y460813D03*
D11*
X627357Y475874D03*
D21*
X626908Y460139D03*
D31*
X626908Y475649D03*
D28*
X626458Y459240D03*
D20*
X626458Y475425D03*
D21*
X626008Y458790D03*
D22*
X626008Y474975D03*
D23*
X625559Y458116D03*
D11*
X625559Y474975D03*
D30*
X625109Y457666D03*
D23*
X625109Y474301D03*
D12*
X624660Y456767D03*
D22*
X624660Y473626D03*
D26*
X624210Y456317D03*
D11*
X624210Y472727D03*
D21*
X623761Y455643D03*
D18*
X623761Y472053D03*
D26*
X623311Y454969D03*
D30*
X623311Y471603D03*
D27*
X622861Y454519D03*
D21*
X622861Y470929D03*
D32*
X622412Y453845D03*
D23*
X622412Y470254D03*
D19*
X621962Y453395D03*
D23*
X621962Y469355D03*
D33*
X621513Y452496D03*
D24*
X621513Y468456D03*
D34*
X621063Y451372D03*
D26*
X621063Y467107D03*
D12*
X620613Y450922D03*
D33*
X620613Y466433D03*
D34*
X620164Y450473D03*
D19*
X620164Y465534D03*
D12*
X619714Y449574D03*
D33*
X619714Y464635D03*
D28*
X619265Y448899D03*
D35*
X619265Y463511D03*
D21*
X618815Y448000D03*
D36*
X618815Y462162D03*
D30*
X618366Y447326D03*
D19*
X618366Y461488D03*
D28*
X617916Y446651D03*
D19*
X617916Y460588D03*
D21*
X617466Y446202D03*
D33*
X617466Y459689D03*
D26*
X617017Y445527D03*
D37*
X617017Y459015D03*
D12*
X616567Y445078D03*
D33*
X616567Y457891D03*
D19*
X616118Y444403D03*
D32*
X616118Y456992D03*
D38*
X615668Y441706D03*
D39*
X615668Y455868D03*
D40*
X615219Y440582D03*
D37*
X615219Y454969D03*
D41*
X614769Y439908D03*
D42*
X614769Y454294D03*
D43*
X614319Y439233D03*
D44*
X614319Y453395D03*
D45*
X613870Y438559D03*
D44*
X613870Y452496D03*
D46*
X613420Y437885D03*
D42*
X613420Y451597D03*
D47*
X612971Y437660D03*
D48*
X612971Y450698D03*
D49*
X612521Y441931D03*
D28*
X612071Y433164D03*
D50*
X612071Y445303D03*
D24*
X611622Y432490D03*
D51*
X611622Y445078D03*
D30*
X611172Y432040D03*
D52*
X611172Y445078D03*
D26*
X610723Y431590D03*
D14*
X610723Y444853D03*
D53*
X610273Y430916D03*
D42*
X610273Y444403D03*
D28*
X609824Y430467D03*
X609824Y444403D03*
D18*
X609374Y429792D03*
D29*
X609374Y444179D03*
D23*
X608924Y429343D03*
D54*
X608924Y443954D03*
D18*
X608475Y428893D03*
D55*
X608475Y443954D03*
D23*
X608025Y428443D03*
D54*
X608025Y443954D03*
D18*
X607576Y427994D03*
D55*
X607576Y443954D03*
D11*
X607126Y427319D03*
D56*
X607126Y443729D03*
D57*
X606676Y426645D03*
D11*
X606676Y443504D03*
D31*
X606227Y426195D03*
D18*
X606227Y443280D03*
D57*
X605777Y425746D03*
D23*
X605777Y442830D03*
D22*
X605328Y425072D03*
D18*
X605328Y442380D03*
D11*
X604878Y424622D03*
D28*
X604878Y441706D03*
D29*
X604429Y423948D03*
D12*
X604429Y441032D03*
D56*
X603979Y423498D03*
D19*
X603979Y440357D03*
D29*
X603529Y423048D03*
D33*
X603529Y439908D03*
D57*
X603080Y422599D03*
D19*
X603080Y439458D03*
D56*
X602630Y422149D03*
D35*
X602630Y438784D03*
D29*
X602181Y421700D03*
D33*
X602181Y438109D03*
D56*
X601731Y421250D03*
D35*
X601731Y437435D03*
D29*
X601282Y420801D03*
D33*
X601282Y436761D03*
D56*
X600832Y420351D03*
D34*
X600832Y436086D03*
D29*
X600382Y419901D03*
D27*
X600382Y435187D03*
D56*
X599933Y419452D03*
D26*
X599933Y434738D03*
D56*
X599483Y419002D03*
D35*
X599483Y434288D03*
D29*
X599034Y418553D03*
D12*
X599034Y433389D03*
D56*
X598584Y418103D03*
D19*
X598584Y432265D03*
D29*
X598134Y417653D03*
D12*
X598134Y431590D03*
D56*
X597685Y417204D03*
D26*
X597685Y431141D03*
D22*
X597235Y416530D03*
D33*
X597235Y430916D03*
D11*
X596786Y416080D03*
D35*
X596786Y430242D03*
D22*
X596336Y415630D03*
D17*
X596336Y429567D03*
D11*
X595887Y415181D03*
D48*
X595887Y428668D03*
D11*
X595437Y414731D03*
D35*
X595437Y427544D03*
D22*
X594987Y414282D03*
D39*
X594987Y426645D03*
D11*
X594538Y413832D03*
D34*
X594538Y425746D03*
D24*
X594088Y413158D03*
D33*
X594088Y425072D03*
D28*
X593639Y412483D03*
D48*
X593639Y424622D03*
D39*
X593189Y411359D03*
D58*
X593189Y423948D03*
D44*
X592740Y410685D03*
X592740Y422824D03*
D59*
X592290Y410011D03*
D39*
X592290Y421700D03*
D60*
X591840Y409336D03*
D35*
X591840Y420801D03*
D61*
X591391Y409111D03*
D48*
X591391Y420126D03*
D38*
X590941Y408887D03*
D42*
X590941Y418777D03*
D62*
X590492Y412259D03*
D21*
X590042Y405740D03*
D63*
X590042Y415181D03*
D23*
X589592Y405065D03*
D35*
X589592Y414956D03*
D18*
X589143Y404616D03*
D12*
X589143Y414956D03*
D11*
X588693Y403941D03*
D28*
X588693Y414731D03*
D11*
X588244Y403492D03*
X588244Y414731D03*
D22*
X587794Y403042D03*
X587794Y414731D03*
D11*
X587345Y402593D03*
D56*
X587345Y414956D03*
D24*
X586895Y401918D03*
D31*
X586895Y414956D03*
D11*
X586445Y400794D03*
D56*
X586445Y414956D03*
D29*
X585996Y400569D03*
D31*
X585996Y414956D03*
D57*
X585546Y400120D03*
D56*
X585546Y414956D03*
D31*
X585097Y399670D03*
D55*
X585097Y414731D03*
D54*
X584647Y398996D03*
D64*
X584647Y414506D03*
D65*
X584197Y375168D03*
D57*
X584197Y398322D03*
D54*
X584197Y413832D03*
D66*
X583748Y375393D03*
D31*
X583748Y397872D03*
X583748Y413158D03*
D67*
X583298Y375393D03*
D57*
X583298Y397422D03*
D56*
X583298Y412259D03*
D55*
X582849Y375618D03*
D31*
X582849Y396973D03*
D29*
X582849Y411809D03*
D11*
X582399Y375618D03*
D56*
X582399Y396523D03*
D57*
X582399Y411359D03*
D22*
X581950Y375618D03*
D29*
X581950Y396074D03*
D31*
X581950Y410910D03*
D28*
X581500Y375618D03*
D11*
X581500Y395399D03*
X581500Y410235D03*
D27*
X581050Y375843D03*
D22*
X581050Y394950D03*
D55*
X581050Y409336D03*
D67*
X580601Y365952D03*
D19*
X580601Y376067D03*
D11*
X580601Y394500D03*
D54*
X580601Y408887D03*
D56*
X580151Y365952D03*
D37*
X580151Y376292D03*
D30*
X580151Y394275D03*
D54*
X580151Y408437D03*
D21*
X579702Y366177D03*
D58*
X579702Y376292D03*
D24*
X579702Y393826D03*
D55*
X579702Y407988D03*
D26*
X579252Y366401D03*
D68*
X579252Y376517D03*
D11*
X579252Y393151D03*
D64*
X579252Y407313D03*
D33*
X578803Y366626D03*
D69*
X578803Y376742D03*
D22*
X578803Y392702D03*
D70*
X578803Y406864D03*
D13*
X578353Y366851D03*
D60*
X578353Y376517D03*
D11*
X578353Y392252D03*
D64*
X578353Y406414D03*
D69*
X577903Y367301D03*
D71*
X577903Y376742D03*
D22*
X577903Y391803D03*
D55*
X577903Y406189D03*
D50*
X577454Y369773D03*
D28*
X577454Y379214D03*
D11*
X577454Y391353D03*
D54*
X577454Y405740D03*
D72*
X577004Y369548D03*
D11*
X577004Y379664D03*
X577004Y390903D03*
D67*
X577004Y405065D03*
D73*
X576555Y369548D03*
D22*
X576555Y380114D03*
D21*
X576555Y390454D03*
D70*
X576555Y404616D03*
D72*
X576105Y369548D03*
D56*
X576105Y380338D03*
D34*
X576105Y390229D03*
D57*
X576105Y404616D03*
D51*
X575655Y369548D03*
D29*
X575655Y380788D03*
D21*
X575655Y389555D03*
D70*
X575655Y403716D03*
D56*
X575206Y365952D03*
D37*
X575206Y372246D03*
D23*
X575206Y381237D03*
D30*
X575206Y388880D03*
D64*
X575206Y403267D03*
D31*
X574756Y365952D03*
D21*
X574756Y372471D03*
D18*
X574756Y381687D03*
D24*
X574756Y388431D03*
D55*
X574756Y403042D03*
D54*
X574307Y366177D03*
D28*
X574307Y372471D03*
X574307Y382361D03*
X574307Y387756D03*
D54*
X574307Y402593D03*
D29*
X573857Y366401D03*
D18*
X573857Y372695D03*
D15*
X573857Y385284D03*
D55*
X573857Y402143D03*
D57*
X573408Y366401D03*
D54*
X573408Y372920D03*
D61*
X573408Y385284D03*
D54*
X573408Y401693D03*
D57*
X572958Y366851D03*
D74*
X572958Y372920D03*
D60*
X572958Y385059D03*
D54*
X572958Y401244D03*
D31*
X572508Y367301D03*
D75*
X572508Y385059D03*
D55*
X572508Y400794D03*
D57*
X572059Y367750D03*
D35*
X572059Y384834D03*
D76*
X572059Y400345D03*
D22*
X571609Y367975D03*
D77*
X571609Y384609D03*
D55*
X571609Y399895D03*
D56*
X571160Y368200D03*
D26*
X571160Y384834D03*
D54*
X571160Y399445D03*
D29*
X570710Y368649D03*
D77*
X570710Y384609D03*
D29*
X570710Y399221D03*
D54*
X570261Y368874D03*
D30*
X570261Y383935D03*
D56*
X570261Y398771D03*
D55*
X569811Y369324D03*
D22*
X569811Y383261D03*
D55*
X569811Y398097D03*
D54*
X569361Y369773D03*
D11*
X569361Y382811D03*
D54*
X569361Y397647D03*
X568912Y370223D03*
D11*
X568912Y382361D03*
D54*
X568912Y397198D03*
D70*
X568462Y370448D03*
D18*
X568462Y382137D03*
D55*
X568462Y396748D03*
D76*
X568013Y370672D03*
D11*
X568013Y381912D03*
D54*
X568013Y396298D03*
D55*
X567563Y371122D03*
D18*
X567563Y381687D03*
D55*
X567563Y395849D03*
D54*
X567113Y371572D03*
D11*
X567113Y381013D03*
D54*
X567113Y395399D03*
D55*
X566664Y372021D03*
D22*
X566664Y380563D03*
D55*
X566664Y394950D03*
D54*
X566214Y372021D03*
D11*
X566214Y380114D03*
D56*
X566214Y394725D03*
D54*
X565765Y372471D03*
D11*
X565765Y380114D03*
D57*
X565765Y394275D03*
D55*
X565315Y372920D03*
D18*
X565315Y379889D03*
D31*
X565315Y393826D03*
D56*
X564866Y373145D03*
D44*
X564866Y381013D03*
D57*
X564866Y393376D03*
D29*
X564416Y373595D03*
D78*
X564416Y381687D03*
D31*
X564416Y392477D03*
D11*
X563966Y373819D03*
D52*
X563966Y382137D03*
D57*
X563966Y392027D03*
D79*
X563517Y380114D03*
D31*
X563517Y391578D03*
D80*
X563067Y382811D03*
D81*
X562618Y382586D03*
D16*
X562168Y378540D03*
D68*
X562168Y388656D03*
D61*
X561718Y377641D03*
D32*
X561718Y388656D03*
D42*
X561269Y376966D03*
D21*
X561269Y388656D03*
D26*
X560819Y376292D03*
D57*
X560819Y388880D03*
D18*
X560370Y375843D03*
D55*
X560370Y388656D03*
D54*
X559920Y375618D03*
D67*
X559920Y388880D03*
D70*
X559471Y375393D03*
X559471Y388880D03*
D64*
X559021Y375843D03*
D67*
X559021Y388880D03*
D82*
X558571Y375843D03*
D70*
X558571Y388880D03*
D67*
X558122Y376292D03*
X558122Y388880D03*
X557672Y376292D03*
D76*
X557672Y389105D03*
D83*
X557223Y376517D03*
D70*
X557223Y389330D03*
D64*
X556773Y376742D03*
D54*
X556773Y389555D03*
D82*
X556324Y376742D03*
D55*
X556324Y389555D03*
D67*
X555874Y377191D03*
D54*
X555874Y390004D03*
D70*
X555424Y377191D03*
D55*
X555424Y390004D03*
D67*
X554975Y377191D03*
D54*
X554975Y390454D03*
D67*
X554525Y377191D03*
X554525Y390679D03*
D70*
X554076Y377641D03*
D55*
X554076Y390903D03*
D67*
X553626Y377641D03*
D57*
X553626Y391128D03*
D84*
X553176Y377866D03*
D55*
X553176Y391353D03*
D76*
X552727Y377866D03*
D56*
X552727Y391578D03*
D70*
X552277Y378090D03*
D31*
X552277Y391578D03*
D54*
X551828Y378315D03*
D57*
X551828Y392027D03*
D70*
X551378Y378540D03*
D29*
X551378Y392027D03*
D54*
X550929Y378765D03*
D11*
X550929Y392252D03*
D57*
X550479Y378990D03*
D11*
X550479Y392702D03*
D55*
X550029Y379214D03*
D22*
X550029Y392702D03*
D56*
X549580Y379439D03*
D11*
X549580Y393151D03*
D55*
X549130Y379664D03*
D22*
X549130Y393601D03*
D57*
X548681Y379889D03*
D11*
X548681Y393601D03*
D55*
X548231Y380114D03*
D22*
X548231Y394051D03*
D54*
X547782Y380114D03*
D11*
X547782Y394051D03*
D55*
X547332Y380114D03*
D29*
X547332Y394275D03*
D67*
X546882Y380338D03*
D11*
X546882Y394500D03*
D54*
X546433Y380563D03*
D56*
X546433Y394725D03*
D55*
X545983Y380563D03*
D31*
X545983Y394725D03*
D64*
X545534Y380788D03*
D11*
X545534Y394950D03*
D55*
X545084Y381013D03*
D22*
X545084Y394950D03*
D67*
X544634Y381237D03*
D11*
X544634Y395399D03*
D55*
X544185Y381462D03*
D22*
X544185Y395399D03*
D67*
X543735Y381687D03*
D23*
X543735Y395624D03*
D76*
X543286Y381912D03*
D11*
X543286Y395849D03*
D70*
X542836Y382137D03*
D22*
X542836Y395849D03*
D67*
X542387Y382137D03*
D11*
X542387Y396298D03*
D70*
X541937Y382586D03*
D22*
X541937Y396298D03*
D67*
X541487Y382586D03*
D56*
X541487Y396523D03*
D70*
X541038Y382586D03*
D85*
X541038Y396748D03*
D86*
X540588Y382811D03*
D56*
X540588Y396973D03*
D82*
X540139Y383036D03*
D31*
X540139Y396973D03*
D64*
X539689Y383036D03*
D57*
X539689Y397422D03*
D67*
X539239Y383485D03*
D57*
X539239Y397422D03*
D70*
X538790Y383485D03*
D31*
X538790Y397872D03*
D64*
X538340Y383935D03*
D11*
X538340Y398097D03*
D83*
X537891Y384160D03*
D87*
X537891Y391578D03*
D18*
X537891Y398322D03*
D54*
X537441Y384160D03*
D88*
X537441Y391578D03*
D11*
X537441Y398546D03*
D70*
X536992Y384385D03*
D83*
X536992Y391803D03*
D24*
X536992Y398771D03*
D67*
X536542Y384385D03*
X536542Y391578D03*
D23*
X536542Y398771D03*
D82*
X536092Y384834D03*
D55*
X536092Y391803D03*
D18*
X536092Y399221D03*
D64*
X535643Y384834D03*
D54*
X535643Y391803D03*
D30*
X535643Y399221D03*
D54*
X535193Y385059D03*
D57*
X535193Y392027D03*
D11*
X535193Y399445D03*
D70*
X534744Y385284D03*
D55*
X534744Y392252D03*
D22*
X534744Y399445D03*
D67*
X534294Y385284D03*
D56*
X534294Y392477D03*
D11*
X534294Y399895D03*
D55*
X533845Y385509D03*
D29*
X533845Y392927D03*
D22*
X533845Y399895D03*
D54*
X533395Y385509D03*
D76*
X533395Y393151D03*
D11*
X533395Y400345D03*
D70*
X532945Y385733D03*
D29*
X532945Y393376D03*
D22*
X532945Y400345D03*
D54*
X532496Y385958D03*
D57*
X532496Y393376D03*
D11*
X532496Y400794D03*
D54*
X532046Y385958D03*
D56*
X532046Y393826D03*
D11*
X532046Y400794D03*
D82*
X531597Y386183D03*
D31*
X531597Y393826D03*
D24*
X531597Y401019D03*
D64*
X531147Y386183D03*
D54*
X531147Y394051D03*
D30*
X531147Y401469D03*
D55*
X530697Y386408D03*
D29*
X530697Y394275D03*
D18*
X530697Y401469D03*
D67*
X530248Y386632D03*
D57*
X530248Y394275D03*
D23*
X530248Y401918D03*
D55*
X529798Y386857D03*
X529798Y394500D03*
D24*
X529798Y401918D03*
D64*
X529349Y387082D03*
D56*
X529349Y394725D03*
D11*
X529349Y402143D03*
D55*
X528899Y387307D03*
D31*
X528899Y394725D03*
D22*
X528899Y402593D03*
D54*
X528450Y387307D03*
D57*
X528450Y395174D03*
D11*
X528450Y402593D03*
D67*
X528000Y387532D03*
D57*
X528000Y395174D03*
D56*
X528000Y402817D03*
D55*
X527550Y387756D03*
D31*
X527550Y395624D03*
D22*
X527550Y403042D03*
D64*
X527101Y387981D03*
D54*
X527101Y395849D03*
D11*
X527101Y403042D03*
D70*
X526651Y388431D03*
D29*
X526651Y396074D03*
X526651Y403267D03*
D67*
X526202Y388431D03*
D54*
X526202Y396298D03*
D11*
X526202Y403492D03*
D70*
X525752Y388431D03*
X525752Y396523D03*
D24*
X525752Y403716D03*
D54*
X525303Y388656D03*
D89*
X525303Y396748D03*
D23*
X525303Y403716D03*
D55*
X524853Y388656D03*
D10*
X524853Y396973D03*
D18*
X524853Y404166D03*
D76*
X524403Y389105D03*
D90*
X524403Y397422D03*
D25*
X524403Y404391D03*
D76*
X523954Y389105D03*
D25*
X523954Y404391D03*
D84*
X523504Y389105D03*
D18*
X523504Y404616D03*
D54*
X523055Y389555D03*
D28*
X523055Y404840D03*
D55*
X522605Y389555D03*
D21*
X522605Y404840D03*
D67*
X522155Y389780D03*
D23*
X522155Y405065D03*
D55*
X521706Y390004D03*
D18*
X521706Y405515D03*
D54*
X521256Y390004D03*
D30*
X521256Y405515D03*
D64*
X520807Y390229D03*
D23*
X520807Y405964D03*
D55*
X520357Y390454D03*
D24*
X520357Y405964D03*
D67*
X519908Y390679D03*
D30*
X519908Y406414D03*
D70*
X519458Y390679D03*
D18*
X519458Y406414D03*
D54*
X519008Y390903D03*
D23*
X519008Y406864D03*
D55*
X518559Y390903D03*
D24*
X518559Y406864D03*
D54*
X518109Y391353D03*
D11*
X518109Y407088D03*
D55*
X517660Y391353D03*
D18*
X517660Y407313D03*
D54*
X517210Y391353D03*
D11*
X517210Y407538D03*
D54*
X516760Y391803D03*
D30*
X516760Y407763D03*
D55*
X516311Y391803D03*
D85*
X516311Y407988D03*
D54*
X515861Y391803D03*
D11*
X515861Y408437D03*
D55*
X515412Y392252D03*
D22*
X515412Y408437D03*
D54*
X514962Y392252D03*
D11*
X514962Y408887D03*
D70*
X514513Y392477D03*
D22*
X514513Y408887D03*
D67*
X514063Y392477D03*
D11*
X514063Y409336D03*
D70*
X513613Y392927D03*
D22*
X513613Y409336D03*
D67*
X513164Y392927D03*
D11*
X513164Y409336D03*
D86*
X512714Y393151D03*
D30*
X512714Y409561D03*
D70*
X512265Y393376D03*
D18*
X512265Y409561D03*
D54*
X511815Y393601D03*
D23*
X511815Y410011D03*
D55*
X511366Y394051D03*
D22*
X511366Y410235D03*
D54*
X510916Y394051D03*
D57*
X510916Y410460D03*
D55*
X510466Y394051D03*
D22*
X510466Y410685D03*
D64*
X510017Y394275D03*
D56*
X510017Y410910D03*
D64*
X509567Y394275D03*
D11*
X509567Y411135D03*
D55*
X509118Y394500D03*
D29*
X509118Y411359D03*
D67*
X508668Y394725D03*
D57*
X508668Y411359D03*
D70*
X508218Y394725D03*
D29*
X508218Y411809D03*
D64*
X507769Y395174D03*
D57*
X507769Y411809D03*
D82*
X507319Y395174D03*
D31*
X507319Y412259D03*
D54*
X506870Y395399D03*
D56*
X506870Y412259D03*
D70*
X506420Y395624D03*
D29*
X506420Y412708D03*
D67*
X505971Y395624D03*
D54*
X505971Y412933D03*
D64*
X505521Y396074D03*
D54*
X505521Y413382D03*
D82*
X505071Y396074D03*
D55*
X505071Y413382D03*
D64*
X504622Y396074D03*
D57*
X504622Y413607D03*
D83*
X504172Y396298D03*
D55*
X504172Y413832D03*
D67*
X503723Y396523D03*
D56*
X503723Y414057D03*
D70*
X503273Y396523D03*
D55*
X503273Y414282D03*
D89*
X502824Y396748D03*
D54*
X502824Y414282D03*
D70*
X502374Y396973D03*
D29*
X502374Y414506D03*
D67*
X501924Y396973D03*
D54*
X501924Y414731D03*
D64*
X501475Y397422D03*
D56*
X501475Y414956D03*
D82*
X501025Y397422D03*
D55*
X501025Y415181D03*
D67*
X500576Y397872D03*
D76*
X500576Y415630D03*
D70*
X500126Y397872D03*
X500126Y415855D03*
D67*
X499676Y397872D03*
X499676Y415855D03*
D82*
X499227Y398322D03*
D70*
X499227Y416305D03*
D64*
X498777Y398322D03*
D67*
X498777Y416305D03*
D86*
X498328Y398546D03*
D64*
X498328Y416754D03*
D70*
X497878Y398771D03*
D82*
X497878Y416754D03*
D86*
X497429Y398996D03*
D67*
X497429Y417204D03*
D82*
X496979Y399221D03*
D70*
X496979Y417204D03*
D64*
X496529Y399221D03*
D54*
X496529Y417429D03*
D55*
X496080Y399445D03*
X496080Y417429D03*
D67*
X495630Y399670D03*
D64*
X495630Y417653D03*
D55*
X495181Y399895D03*
D70*
X495181Y418103D03*
D54*
X494731Y399895D03*
D64*
X494731Y418553D03*
D76*
X494281Y400345D03*
D64*
X494281Y418553D03*
D84*
X493832Y400345D03*
D70*
X493832Y419002D03*
D67*
X493382Y400569D03*
X493382Y419002D03*
D55*
X492933Y400794D03*
X492933Y419227D03*
D67*
X492483Y401019D03*
D54*
X492483Y419227D03*
D55*
X492034Y401244D03*
X492034Y419677D03*
D64*
X491584Y401469D03*
D54*
X491584Y419677D03*
D82*
X491134Y401469D03*
D29*
X491134Y419901D03*
D54*
X490685Y401693D03*
X490685Y420126D03*
D67*
X490235Y401918D03*
D54*
X490235Y420126D03*
D70*
X489786Y401918D03*
D55*
X489786Y420576D03*
D64*
X489336Y402368D03*
X489336Y420801D03*
D82*
X488887Y402368D03*
D55*
X488887Y421025D03*
D64*
X488437Y402368D03*
D56*
X488437Y421250D03*
D82*
X487987Y402368D03*
D29*
X487987Y421700D03*
D67*
X487538Y402817D03*
D57*
X487538Y421700D03*
D67*
X487088Y402817D03*
D54*
X487088Y421924D03*
D82*
X486639Y403267D03*
D55*
X486639Y421924D03*
D64*
X486189Y403267D03*
D67*
X486189Y422149D03*
D55*
X485739Y403492D03*
D70*
X485739Y422599D03*
D67*
X485290Y403716D03*
X485290Y422599D03*
D70*
X484840Y403716D03*
D84*
X484840Y422824D03*
D67*
X484391Y404166D03*
D76*
X484391Y422824D03*
D70*
X483941Y404166D03*
D55*
X483941Y423273D03*
D67*
X483492Y404616D03*
D56*
X483492Y423498D03*
D54*
X483042Y404840D03*
D56*
X483042Y423498D03*
D55*
X482592Y404840D03*
D29*
X482592Y423948D03*
D67*
X482143Y405065D03*
D54*
X482143Y424172D03*
D70*
X481693Y405065D03*
D55*
X481693Y424172D03*
D54*
X481244Y405290D03*
X481244Y424622D03*
D55*
X480794Y405290D03*
X480794Y424622D03*
D64*
X480345Y405515D03*
D54*
X480345Y424622D03*
D55*
X479895Y405740D03*
D82*
X479895Y424847D03*
D67*
X479445Y405964D03*
D54*
X479445Y425072D03*
X478996Y406189D03*
X478996Y425072D03*
D82*
X478546Y406414D03*
D55*
X478546Y425521D03*
D67*
X478097Y406864D03*
D54*
X478097Y425521D03*
D70*
X477647Y406864D03*
D29*
X477647Y425746D03*
D64*
X477197Y407313D03*
D54*
X477197Y425971D03*
D82*
X476748Y407313D03*
D55*
X476748Y425971D03*
D64*
X476298Y407313D03*
D67*
X476298Y426195D03*
D86*
X475849Y407538D03*
D54*
X475849Y426420D03*
D83*
X475399Y407538D03*
D70*
X475399Y426645D03*
D89*
X474950Y407988D03*
D76*
X474950Y426870D03*
D91*
X474500Y407988D03*
D70*
X474500Y427095D03*
D89*
X474050Y407988D03*
D67*
X474050Y427095D03*
D83*
X473601Y408437D03*
D70*
X473601Y427544D03*
D86*
X473151Y408437D03*
D67*
X473151Y427544D03*
D83*
X472702Y408887D03*
D55*
X472702Y427769D03*
D86*
X472252Y408887D03*
D54*
X472252Y427769D03*
D67*
X471802Y409111D03*
D64*
X471802Y427994D03*
D82*
X471353Y409561D03*
D55*
X471353Y428219D03*
D64*
X470903Y409561D03*
D67*
X470903Y428443D03*
D82*
X470454Y409561D03*
D70*
X470454Y428443D03*
D67*
X470004Y410011D03*
D54*
X470004Y428668D03*
D70*
X469555Y410011D03*
D82*
X469555Y428893D03*
D54*
X469105Y410235D03*
X469105Y429118D03*
D82*
X468655Y410460D03*
D55*
X468655Y429567D03*
D64*
X468206Y410460D03*
D54*
X468206Y429567D03*
D67*
X467756Y410910D03*
D57*
X467756Y429792D03*
D70*
X467307Y410910D03*
D55*
X467307Y430017D03*
D89*
X466857Y411135D03*
D56*
X466857Y430242D03*
D70*
X466408Y411359D03*
D31*
X466408Y430242D03*
D86*
X465958Y411584D03*
D54*
X465958Y430467D03*
D70*
X465508Y411809D03*
D55*
X465508Y430467D03*
D89*
X465059Y412034D03*
D74*
X465059Y421025D03*
D54*
X465059Y430467D03*
D67*
X464609Y412259D03*
D88*
X464609Y421250D03*
D54*
X464609Y430916D03*
D83*
X464160Y412483D03*
X464160Y421025D03*
D55*
X464160Y430916D03*
D64*
X463710Y412708D03*
D67*
X463710Y421250D03*
D57*
X463710Y431141D03*
D83*
X463260Y412933D03*
D70*
X463260Y421250D03*
D31*
X463260Y431590D03*
D67*
X462811Y413158D03*
D64*
X462811Y421700D03*
D56*
X462811Y431590D03*
D55*
X462361Y413382D03*
D82*
X462361Y421700D03*
D55*
X462361Y431815D03*
D64*
X461912Y413607D03*
X461912Y421700D03*
D54*
X461912Y431815D03*
D82*
X461462Y413607D03*
D70*
X461462Y422149D03*
D55*
X461462Y432265D03*
D64*
X461013Y413607D03*
D67*
X461013Y422149D03*
D54*
X461013Y432265D03*
D64*
X460563Y413607D03*
D67*
X460563Y422599D03*
X460563Y432490D03*
D83*
X460113Y413832D03*
D70*
X460113Y422599D03*
D55*
X460113Y432714D03*
D67*
X459664Y414057D03*
D86*
X459664Y422824D03*
D54*
X459664Y432714D03*
D83*
X459214Y414282D03*
D70*
X459214Y423048D03*
D55*
X459214Y433164D03*
D64*
X458765Y414506D03*
D67*
X458765Y423048D03*
D54*
X458765Y433164D03*
D83*
X458315Y414731D03*
D70*
X458315Y423498D03*
D55*
X458315Y433614D03*
D67*
X457866Y414956D03*
D54*
X457866Y423723D03*
X457866Y433614D03*
D91*
X457416Y415181D03*
D82*
X457416Y423948D03*
D55*
X457416Y433614D03*
D67*
X456966Y415406D03*
D54*
X456966Y424172D03*
D67*
X456966Y433838D03*
X456517Y415406D03*
D54*
X456517Y424172D03*
D76*
X456517Y434063D03*
D70*
X456067Y415855D03*
X456067Y424397D03*
X456067Y434288D03*
D67*
X455618Y415855D03*
D54*
X455618Y424622D03*
D67*
X455618Y434288D03*
D70*
X455168Y415855D03*
D55*
X455168Y424622D03*
X455168Y434513D03*
D67*
X454718Y416305D03*
D54*
X454718Y424622D03*
D67*
X454718Y434738D03*
D70*
X454269Y416305D03*
D82*
X454269Y424847D03*
D55*
X454269Y434962D03*
D54*
X453819Y416530D03*
X453819Y425072D03*
D64*
X453819Y435187D03*
X453370Y416754D03*
D54*
X453370Y425072D03*
X453370Y435412D03*
D82*
X452920Y416754D03*
D55*
X452920Y425521D03*
D70*
X452920Y435637D03*
D54*
X452471Y416979D03*
X452471Y425521D03*
D67*
X452471Y435637D03*
D70*
X452021Y417204D03*
D82*
X452021Y425746D03*
D55*
X452021Y435861D03*
D54*
X451571Y417429D03*
X451571Y425971D03*
D64*
X451571Y436086D03*
D55*
X451122Y417429D03*
D70*
X451122Y426195D03*
D82*
X451122Y436086D03*
D54*
X450672Y417878D03*
X450672Y426420D03*
X450672Y436311D03*
D70*
X450223Y418103D03*
X450223Y426645D03*
X450223Y436536D03*
D54*
X449773Y418328D03*
D76*
X449773Y426870D03*
D67*
X449773Y436536D03*
D64*
X449323Y418553D03*
D76*
X449323Y426870D03*
D54*
X449323Y436761D03*
D55*
X448874Y418777D03*
D70*
X448874Y427095D03*
D82*
X448874Y436985D03*
D67*
X448424Y419002D03*
X448424Y427095D03*
D54*
X448424Y437210D03*
D70*
X447975Y419002D03*
X447975Y427544D03*
D55*
X447975Y437210D03*
D67*
X447525Y419002D03*
X447525Y427544D03*
D54*
X447525Y437660D03*
D55*
X447076Y419227D03*
D70*
X447076Y427544D03*
D55*
X447076Y437660D03*
D67*
X446626Y419452D03*
D64*
X446626Y427994D03*
D76*
X446626Y438109D03*
D55*
X446176Y419677D03*
D82*
X446176Y427994D03*
D84*
X446176Y438109D03*
D64*
X445727Y419901D03*
D67*
X445727Y428443D03*
X445727Y438334D03*
D54*
X445277Y420126D03*
D67*
X445277Y428443D03*
D54*
X445277Y438559D03*
D70*
X444828Y420351D03*
D83*
X444828Y428668D03*
D55*
X444828Y438559D03*
D67*
X444378Y420351D03*
D92*
X444378Y428893D03*
D54*
X444378Y439009D03*
D82*
X443929Y420801D03*
D10*
X443929Y428893D03*
D55*
X443929Y439009D03*
D64*
X443479Y420801D03*
D93*
X443479Y428893D03*
D54*
X443479Y439009D03*
D70*
X443029Y421250D03*
D55*
X443029Y439458D03*
D67*
X442580Y421250D03*
D54*
X442580Y439458D03*
D86*
X442130Y421475D03*
D67*
X442130Y439683D03*
D82*
X441681Y421700D03*
D55*
X441681Y439908D03*
D64*
X441231Y421700D03*
D54*
X441231Y439908D03*
D83*
X440781Y421924D03*
D55*
X440781Y440357D03*
D67*
X440332Y422149D03*
X440332Y440582D03*
D70*
X439882Y422149D03*
X439882Y440582D03*
D67*
X439433Y422599D03*
D64*
X439433Y441032D03*
D70*
X438983Y422599D03*
D82*
X438983Y441032D03*
D76*
X438534Y422824D03*
D64*
X438534Y441032D03*
D67*
X438084Y423048D03*
D54*
X438084Y441256D03*
D55*
X437634Y423273D03*
D70*
X437634Y441481D03*
D54*
X437185Y423273D03*
D67*
X437185Y441481D03*
D70*
X436735Y423498D03*
D91*
X436735Y441706D03*
D54*
X436286Y423723D03*
D67*
X436286Y441931D03*
D55*
X435836Y423723D03*
D70*
X435836Y441931D03*
D54*
X435387Y424172D03*
D67*
X435387Y441931D03*
D55*
X434937Y424172D03*
D82*
X434937Y442380D03*
D54*
X434487Y424172D03*
D64*
X434487Y442380D03*
D56*
X434038Y424397D03*
D86*
X434038Y442605D03*
D94*
X433588Y421924D03*
D70*
X433588Y442830D03*
D95*
X433139Y421700D03*
D86*
X433139Y443055D03*
D38*
X432689Y421924D03*
D82*
X432689Y443280D03*
D96*
X432239Y421924D03*
D86*
X432239Y443504D03*
D38*
X431790Y422374D03*
D83*
X431790Y443504D03*
D97*
X431340Y423048D03*
D67*
X431340Y443729D03*
D35*
X430891Y423948D03*
D86*
X430891Y443954D03*
D21*
X430441Y425072D03*
D82*
X430441Y444179D03*
D54*
X429992Y425971D03*
D64*
X429992Y444179D03*
D55*
X429542Y426420D03*
D98*
X429542Y436086D03*
D82*
X429542Y444179D03*
D67*
X429092Y426645D03*
D92*
X429092Y436086D03*
D67*
X429092Y444628D03*
D70*
X428643Y427095D03*
D10*
X428643Y436086D03*
D70*
X428643Y444628D03*
D67*
X428193Y427095D03*
D86*
X428193Y436311D03*
D89*
X428193Y444853D03*
D70*
X427744Y427095D03*
D83*
X427744Y436311D03*
D91*
X427744Y444853D03*
D54*
X427294Y427319D03*
D67*
X427294Y436536D03*
D86*
X427294Y445303D03*
D67*
X426844Y427544D03*
X426844Y436536D03*
D86*
X426844Y445303D03*
D70*
X426395Y427544D03*
D55*
X426395Y436761D03*
D91*
X426395Y445752D03*
D54*
X425945Y427769D03*
D64*
X425945Y436985D03*
D67*
X425945Y445977D03*
D55*
X425496Y427769D03*
D82*
X425496Y436985D03*
D83*
X425496Y446202D03*
D92*
X425046Y421700D03*
D57*
X425046Y427994D03*
D67*
X425046Y437435D03*
D64*
X425046Y446427D03*
D18*
X424597Y422599D03*
D29*
X424597Y427994D03*
D70*
X424597Y437435D03*
D83*
X424597Y446651D03*
D40*
X424147Y425296D03*
D54*
X424147Y437660D03*
D67*
X424147Y446876D03*
D38*
X423697Y425521D03*
D70*
X423697Y437885D03*
X423697Y446876D03*
D60*
X423248Y425971D03*
D76*
X423248Y438109D03*
D67*
X423248Y446876D03*
D13*
X422798Y427095D03*
D67*
X422798Y438334D03*
D54*
X422798Y447101D03*
D33*
X422349Y427769D03*
D70*
X422349Y438334D03*
D82*
X422349Y447326D03*
D26*
X421899Y428443D03*
D54*
X421899Y438559D03*
D64*
X421899Y447326D03*
D18*
X421450Y428893D03*
D70*
X421450Y438784D03*
D55*
X421450Y447551D03*
D11*
X421000Y429118D03*
D67*
X421000Y438784D03*
D54*
X421000Y447551D03*
D22*
X420550Y429567D03*
D70*
X420550Y438784D03*
X420550Y447775D03*
D57*
X420101Y429792D03*
D64*
X420101Y439233D03*
X420101Y448225D03*
D56*
X419651Y430242D03*
D64*
X419651Y439233D03*
X419651Y448225D03*
D55*
X419202Y430467D03*
D82*
X419202Y439233D03*
D70*
X419202Y448674D03*
D54*
X418752Y430467D03*
D86*
X418752Y439458D03*
D67*
X418752Y448674D03*
D55*
X418302Y430916D03*
D70*
X418302Y439683D03*
X418302Y449124D03*
D54*
X417853Y430916D03*
D67*
X417853Y439683D03*
X417853Y449124D03*
D82*
X417403Y431141D03*
D55*
X417403Y439908D03*
D83*
X417403Y449349D03*
D64*
X416954Y431141D03*
D57*
X416954Y440132D03*
D67*
X416954Y449574D03*
D70*
X416504Y431590D03*
D55*
X416504Y440357D03*
D70*
X416504Y449574D03*
D67*
X416055Y431590D03*
D54*
X416055Y440357D03*
X416055Y449798D03*
X415605Y431815D03*
X415605Y440807D03*
X415605Y449798D03*
D82*
X415155Y432040D03*
D55*
X415155Y440807D03*
D70*
X415155Y450023D03*
D54*
X414706Y432265D03*
X414706Y441256D03*
D86*
X414706Y450248D03*
D55*
X414256Y432265D03*
X414256Y441256D03*
D82*
X414256Y450473D03*
D56*
X413807Y432490D03*
D67*
X413807Y441481D03*
D86*
X413807Y450698D03*
D41*
X413357Y429118D03*
D55*
X413357Y441706D03*
D83*
X413357Y450698D03*
D99*
X412908Y428219D03*
D54*
X412908Y441706D03*
D67*
X412908Y450922D03*
D100*
X412458Y427769D03*
D70*
X412458Y441931D03*
D83*
X412458Y451147D03*
D101*
X412008Y427319D03*
D54*
X412008Y442156D03*
D64*
X412008Y451372D03*
D102*
X411559Y426870D03*
D54*
X411559Y442156D03*
D86*
X411559Y451597D03*
D103*
X411109Y426870D03*
D55*
X411109Y442605D03*
D70*
X411109Y451822D03*
D104*
X410660Y427095D03*
D54*
X410660Y442605D03*
D86*
X410660Y452046D03*
D105*
X410210Y426870D03*
D55*
X410210Y443055D03*
D83*
X410210Y452046D03*
D106*
X409760Y419677D03*
D52*
X409760Y430242D03*
D64*
X409760Y443280D03*
D86*
X409760Y452496D03*
D21*
X409311Y432714D03*
D82*
X409311Y443280D03*
D83*
X409311Y452496D03*
D76*
X408861Y434063D03*
D67*
X408861Y443729D03*
X408861Y452721D03*
X408412Y434288D03*
X408412Y443729D03*
X408412Y452721D03*
D70*
X407962Y434288D03*
D83*
X407962Y443954D03*
D70*
X407962Y452721D03*
D67*
X407513Y434738D03*
D86*
X407513Y443954D03*
D89*
X407513Y452946D03*
D70*
X407063Y434738D03*
D83*
X407063Y443954D03*
D70*
X407063Y453170D03*
D86*
X406613Y434962D03*
D92*
X406613Y444179D03*
D67*
X406613Y453170D03*
D82*
X406164Y435187D03*
D83*
X406164Y453395D03*
D64*
X405714Y435187D03*
X405714Y453620D03*
D83*
X405265Y435412D03*
X405265Y453845D03*
D67*
X404815Y435637D03*
X404815Y454069D03*
X404365Y435637D03*
X404365Y454069D03*
D70*
X403916Y435637D03*
D82*
X403916Y454519D03*
D54*
X403466Y435861D03*
D64*
X403466Y454519D03*
D82*
X403017Y436086D03*
D70*
X403017Y454969D03*
D64*
X402567Y436086D03*
D67*
X402567Y454969D03*
D55*
X402118Y436311D03*
D70*
X402118Y454969D03*
D54*
X401668Y436311D03*
X401668Y455193D03*
D70*
X401218Y436536D03*
D55*
X401218Y455193D03*
D54*
X400769Y436761D03*
D64*
X400769Y455418D03*
D54*
X400319Y436761D03*
D67*
X400319Y455868D03*
D82*
X399870Y436985D03*
D91*
X399870Y456093D03*
D54*
X399420Y437210D03*
D67*
X399420Y456317D03*
D55*
X398971Y437210D03*
D83*
X398971Y456542D03*
D54*
X398521Y437660D03*
D86*
X398521Y456542D03*
D55*
X398071Y437660D03*
D70*
X398071Y456767D03*
D57*
X397622Y437885D03*
D89*
X397622Y456992D03*
D57*
X397172Y437885D03*
D67*
X397172Y457217D03*
D84*
X396723Y438109D03*
D83*
X396723Y457441D03*
D57*
X396273Y438334D03*
D64*
X396273Y457666D03*
D29*
X395823Y438334D03*
D83*
X395823Y457891D03*
D54*
X395374Y438559D03*
D67*
X395374Y458116D03*
D55*
X394924Y438559D03*
D70*
X394924Y458116D03*
D56*
X394475Y438784D03*
D86*
X394475Y458340D03*
D31*
X394025Y438784D03*
D82*
X394025Y458565D03*
D54*
X393576Y432265D03*
D56*
X393576Y438784D03*
D64*
X393576Y458565D03*
D28*
X393126Y433164D03*
D11*
X393126Y438559D03*
D86*
X393126Y458790D03*
D41*
X392676Y435861D03*
D83*
X392676Y458790D03*
D45*
X392227Y435861D03*
D86*
X392227Y459240D03*
D41*
X391777Y436311D03*
D82*
X391777Y459464D03*
D96*
X391328Y436761D03*
D86*
X391328Y459689D03*
D63*
X390878Y437660D03*
D70*
X390878Y459914D03*
D107*
X390429Y438109D03*
D89*
X390429Y460139D03*
D17*
X389979Y438559D03*
D70*
X389979Y460364D03*
D19*
X389529Y439009D03*
D86*
X389529Y460588D03*
D34*
X389080Y439233D03*
D86*
X389080Y460588D03*
D21*
X388630Y439458D03*
D70*
X388630Y460813D03*
D28*
X388181Y439908D03*
D89*
X388181Y461038D03*
D18*
X387731Y440132D03*
D70*
X387731Y461263D03*
D11*
X387281Y440357D03*
D67*
X387281Y461263D03*
D22*
X386832Y440357D03*
D82*
X386832Y461712D03*
D11*
X386382Y440807D03*
D64*
X386382Y461712D03*
D57*
X385933Y441032D03*
D67*
X385933Y462162D03*
D29*
X385483Y441032D03*
D70*
X385483Y462162D03*
D56*
X385034Y441481D03*
D64*
X385034Y462611D03*
D31*
X384584Y441481D03*
D82*
X384584Y462611D03*
D56*
X384134Y441481D03*
D67*
X384134Y463061D03*
D31*
X383685Y441931D03*
D70*
X383685Y463061D03*
D56*
X383235Y441931D03*
D54*
X383235Y463286D03*
D31*
X382786Y441931D03*
D82*
X382786Y463511D03*
D56*
X382336Y441931D03*
D64*
X382336Y463511D03*
D11*
X381886Y442156D03*
D54*
X381886Y463735D03*
D22*
X381437Y442156D03*
D70*
X381437Y463960D03*
D57*
X380987Y442380D03*
D67*
X380987Y463960D03*
D29*
X380538Y442380D03*
D70*
X380538Y464410D03*
D56*
X380088Y442830D03*
D67*
X380088Y464410D03*
D31*
X379639Y442830D03*
D70*
X379639Y464410D03*
D56*
X379189Y442830D03*
D64*
X379189Y464859D03*
D29*
X378739Y443280D03*
D82*
X378739Y464859D03*
D57*
X378290Y443280D03*
D86*
X378290Y465084D03*
D57*
X377840Y443280D03*
D67*
X377840Y465309D03*
D29*
X377391Y443280D03*
D83*
X377391Y465534D03*
D56*
X376941Y443729D03*
D64*
X376941Y465759D03*
D31*
X376492Y443729D03*
D82*
X376492Y465759D03*
D56*
X376042Y443729D03*
D67*
X376042Y466208D03*
D22*
X375592Y443954D03*
D70*
X375592Y466208D03*
D57*
X375143Y444179D03*
D64*
X375143Y466658D03*
D67*
X374693Y434738D03*
D57*
X374693Y444179D03*
D64*
X374693Y466658D03*
D12*
X374244Y434738D03*
D22*
X374244Y444403D03*
D83*
X374244Y466882D03*
D48*
X373794Y435412D03*
D11*
X373794Y444403D03*
D67*
X373794Y467107D03*
D75*
X373344Y435861D03*
D22*
X373344Y444403D03*
D91*
X373344Y467332D03*
D60*
X372895Y436311D03*
D23*
X372895Y444628D03*
D67*
X372895Y467557D03*
D100*
X372445Y439908D03*
D70*
X372445Y467557D03*
D108*
X371996Y440807D03*
D67*
X371996Y467557D03*
D41*
X371546Y442156D03*
D70*
X371546Y468006D03*
D61*
X371097Y442830D03*
D67*
X371097Y468006D03*
D60*
X370647Y443504D03*
D54*
X370647Y468231D03*
D63*
X370197Y443954D03*
D70*
X370197Y468456D03*
D107*
X369748Y444403D03*
D67*
X369748Y468456D03*
D17*
X369298Y444853D03*
D82*
X369298Y468906D03*
D35*
X368849Y445078D03*
D64*
X368849Y468906D03*
D77*
X368399Y445752D03*
D55*
X368399Y469130D03*
D26*
X367950Y445977D03*
D67*
X367950Y469355D03*
D27*
X367500Y446427D03*
D55*
X367500Y469580D03*
D28*
X367050Y446651D03*
D64*
X367050Y469805D03*
D23*
X366601Y446876D03*
D54*
X366601Y470030D03*
D22*
X366151Y447101D03*
D55*
X366151Y470030D03*
D30*
X365702Y447326D03*
D67*
X365702Y470254D03*
D22*
X365252Y447551D03*
D55*
X365252Y470479D03*
D11*
X364802Y447551D03*
D54*
X364802Y470479D03*
D24*
X364353Y447775D03*
D55*
X364353Y470929D03*
D11*
X363903Y448000D03*
D54*
X363903Y470929D03*
D11*
X363454Y448000D03*
D54*
X363454Y471378D03*
D18*
X363004Y448225D03*
D55*
X363004Y471378D03*
D11*
X362555Y448450D03*
D54*
X362555Y471378D03*
D22*
X362105Y448450D03*
D84*
X362105Y471828D03*
D11*
X361655Y448450D03*
D76*
X361655Y471828D03*
D31*
X361206Y448674D03*
D55*
X361206Y472277D03*
D64*
X360756Y439233D03*
D11*
X360756Y448899D03*
D54*
X360756Y472277D03*
D39*
X360307Y440132D03*
D22*
X360307Y448899D03*
D70*
X360307Y472502D03*
D97*
X359857Y440582D03*
D11*
X359857Y448899D03*
D54*
X359857Y472727D03*
D52*
X359407Y441481D03*
D11*
X359407Y448899D03*
D64*
X359407Y472952D03*
D109*
X358958Y443954D03*
D55*
X358958Y473177D03*
D101*
X358508Y443954D03*
D54*
X358508Y473177D03*
D46*
X358059Y445977D03*
D70*
X358059Y473401D03*
D95*
X357609Y447326D03*
D54*
X357609Y473626D03*
D69*
X357160Y447775D03*
D82*
X357160Y473851D03*
D13*
X356710Y448225D03*
D64*
X356710Y473851D03*
D39*
X356260Y448675D03*
D70*
X356260Y474301D03*
D19*
X355811Y449349D03*
D67*
X355811Y474301D03*
D28*
X355361Y449798D03*
D54*
X355361Y474525D03*
D22*
X354912Y450248D03*
D82*
X354912Y474750D03*
D11*
X354462Y450698D03*
D64*
X354462Y474750D03*
D31*
X354013Y450922D03*
D55*
X354013Y474975D03*
D54*
X353563Y451147D03*
D67*
X353563Y475200D03*
D55*
X353113Y451147D03*
X353113Y475425D03*
D54*
X352664Y451597D03*
X352664Y475425D03*
X352214Y451597D03*
X352214Y475874D03*
D55*
X351765Y451597D03*
D82*
X351765Y476099D03*
D67*
X351315Y451822D03*
X351315Y476548D03*
D55*
X350865Y452046D03*
D70*
X350865Y476548D03*
D54*
X350416Y452046D03*
D86*
X350416Y476773D03*
D53*
X349966Y441256D03*
D55*
X349966Y452046D03*
D82*
X349966Y476998D03*
D60*
X349517Y441256D03*
D54*
X349517Y452046D03*
D86*
X349517Y477223D03*
D110*
X349067Y441032D03*
D29*
X349067Y452271D03*
D70*
X349067Y477448D03*
D50*
X348618Y441256D03*
D57*
X348618Y452271D03*
D54*
X348618Y477672D03*
D101*
X348168Y441706D03*
D11*
X348168Y452046D03*
D64*
X348168Y477897D03*
D111*
X347718Y443954D03*
D82*
X347718Y477897D03*
D112*
X347269Y444179D03*
D67*
X347269Y478347D03*
D83*
X346819Y435412D03*
D41*
X346819Y449349D03*
D70*
X346819Y478347D03*
D96*
X346370Y449798D03*
D54*
X346370Y478572D03*
D63*
X345920Y451147D03*
D70*
X345920Y478796D03*
D13*
X345471Y451372D03*
D67*
X345471Y478796D03*
D12*
X345021Y452271D03*
D70*
X345021Y479246D03*
D28*
X344571Y452946D03*
D67*
X344571Y479246D03*
D28*
X344122Y452946D03*
D67*
X344122Y479696D03*
D22*
X343672Y453395D03*
D70*
X343672Y479696D03*
D54*
X343223Y453845D03*
D64*
X343223Y480145D03*
D70*
X342773Y454069D03*
D82*
X342773Y480145D03*
D54*
X342323Y454294D03*
D67*
X342323Y480595D03*
D55*
X341874Y454294D03*
D70*
X341874Y480595D03*
D64*
X341424Y454519D03*
X341424Y481044D03*
X340975Y454519D03*
X340975Y481044D03*
D82*
X340525Y454519D03*
D70*
X340525Y481494D03*
D86*
X340076Y454744D03*
D67*
X340076Y481494D03*
D55*
X339626Y443055D03*
D70*
X339626Y454969D03*
D55*
X339626Y481719D03*
D19*
X339176Y443954D03*
D67*
X339176Y454969D03*
D64*
X339176Y481943D03*
D58*
X338727Y444179D03*
D70*
X338727Y454969D03*
D55*
X338727Y482168D03*
D68*
X338277Y444853D03*
D86*
X338277Y455193D03*
D67*
X338277Y482393D03*
D69*
X337828Y445078D03*
D83*
X337828Y455193D03*
D55*
X337828Y482618D03*
D13*
X337378Y446427D03*
D64*
X337378Y455418D03*
D67*
X337378Y482843D03*
D34*
X336928Y448225D03*
D64*
X336928Y455418D03*
D76*
X336928Y483067D03*
D21*
X336479Y448899D03*
D82*
X336479Y455418D03*
D70*
X336479Y483292D03*
D26*
X336029Y449574D03*
D54*
X336029Y455193D03*
X336029Y483517D03*
D113*
X335580Y452496D03*
D70*
X335580Y483742D03*
D14*
X335130Y452946D03*
D67*
X335130Y483742D03*
D75*
X334681Y453395D03*
D82*
X334681Y484191D03*
D48*
X334231Y453845D03*
D64*
X334231Y484191D03*
D42*
X333781Y454294D03*
D70*
X333781Y484641D03*
D19*
X333332Y454744D03*
D67*
X333332Y484641D03*
D26*
X332882Y454969D03*
D54*
X332882Y484866D03*
D21*
X332433Y455193D03*
D82*
X332433Y485090D03*
D28*
X331983Y455643D03*
D54*
X331983Y485315D03*
D24*
X331534Y455868D03*
D70*
X331534Y485540D03*
D11*
X331084Y456093D03*
D54*
X331084Y485765D03*
D22*
X330634Y456093D03*
D82*
X330634Y485990D03*
D11*
X330185Y456542D03*
D54*
X330185Y486214D03*
D57*
X329735Y456767D03*
D67*
X329735Y486439D03*
D29*
X329286Y456767D03*
D70*
X329286Y486439D03*
D54*
X328836Y456992D03*
D67*
X328836Y486889D03*
D31*
X328386Y457217D03*
D70*
X328386Y486889D03*
D56*
X327937Y457217D03*
D64*
X327937Y487338D03*
D31*
X327487Y457217D03*
D82*
X327487Y487338D03*
D54*
X327038Y457441D03*
X327038Y487563D03*
D55*
X326588Y457441D03*
D70*
X326588Y487788D03*
D86*
X326139Y443055D03*
D57*
X326139Y457666D03*
D54*
X326139Y488013D03*
D57*
X325689Y443280D03*
X325689Y457666D03*
D64*
X325689Y488238D03*
D24*
X325239Y443729D03*
D29*
X325239Y457666D03*
D55*
X325239Y488462D03*
D28*
X324790Y443954D03*
D57*
X324790Y457666D03*
D54*
X324790Y488462D03*
D12*
X324340Y444628D03*
D29*
X324340Y457666D03*
D55*
X324340Y488912D03*
D11*
X323891Y445752D03*
D57*
X323891Y457666D03*
D54*
X323891Y488912D03*
D22*
X323441Y446202D03*
D55*
X323441Y457891D03*
X323441Y489361D03*
D56*
X322992Y446876D03*
D54*
X322992Y457891D03*
X322992Y489361D03*
D29*
X322542Y447326D03*
D31*
X322542Y458116D03*
X322542Y489586D03*
D56*
X322092Y447775D03*
X322092Y458116D03*
D54*
X322092Y489811D03*
X321643Y448450D03*
D56*
X321643Y458116D03*
D57*
X321643Y490036D03*
D55*
X321193Y448899D03*
D31*
X321193Y458116D03*
D84*
X321193Y490261D03*
D76*
X320744Y449349D03*
D56*
X320744Y458116D03*
D54*
X320744Y490710D03*
D55*
X320294Y449798D03*
D31*
X320294Y458116D03*
D55*
X320294Y490710D03*
D54*
X319844Y450248D03*
X319844Y458340D03*
X319844Y491160D03*
D55*
X319395Y450698D03*
X319395Y458340D03*
X319395Y491160D03*
D54*
X318945Y451147D03*
X318945Y458340D03*
X318945Y491609D03*
X318496Y451597D03*
X318496Y458340D03*
X318496Y491609D03*
D29*
X318046Y452271D03*
D55*
X318046Y458340D03*
X318046Y492059D03*
D76*
X317597Y438109D03*
D56*
X317597Y452721D03*
D54*
X317597Y458340D03*
X317597Y492059D03*
D77*
X317147Y438559D03*
D55*
X317147Y453395D03*
D31*
X317147Y458116D03*
D55*
X317147Y492509D03*
D13*
X316697Y438784D03*
D54*
X316697Y453845D03*
D56*
X316697Y458116D03*
D54*
X316697Y492509D03*
D94*
X316248Y439009D03*
D63*
X316248Y456093D03*
D55*
X316248Y492958D03*
D96*
X315798Y439458D03*
D13*
X315798Y456317D03*
D54*
X315798Y492958D03*
D41*
X315349Y439908D03*
D42*
X315349Y456542D03*
D29*
X315349Y493183D03*
D14*
X314899Y441706D03*
D35*
X314899Y456767D03*
D56*
X314899Y493632D03*
D44*
X314449Y443055D03*
D32*
X314449Y456992D03*
D56*
X314449Y493632D03*
D39*
X314000Y444179D03*
D12*
X314000Y457217D03*
D29*
X314000Y494082D03*
D26*
X313550Y445078D03*
D28*
X313550Y457441D03*
D57*
X313550Y494082D03*
D21*
X313101Y445752D03*
X313101Y457441D03*
D29*
X313101Y494082D03*
D28*
X312651Y446651D03*
D30*
X312651Y457666D03*
D57*
X312651Y494532D03*
D21*
X312202Y447101D03*
D18*
X312202Y457666D03*
D29*
X312202Y494532D03*
D23*
X311752Y447775D03*
D57*
X311752Y457666D03*
D56*
X311752Y494981D03*
D22*
X311302Y448450D03*
D29*
X311302Y457666D03*
D31*
X311302Y494981D03*
D11*
X310853Y448899D03*
D57*
X310853Y457666D03*
D54*
X310853Y495206D03*
D30*
X310403Y449124D03*
D57*
X310403Y457666D03*
D54*
X310403Y495656D03*
D22*
X309954Y449798D03*
D55*
X309954Y457891D03*
X309954Y495656D03*
D57*
X309504Y450473D03*
D54*
X309504Y457891D03*
X309504Y496105D03*
D70*
X309055Y450922D03*
D55*
X309055Y457891D03*
D114*
X309055Y494082D03*
D64*
X308605Y451372D03*
D54*
X308605Y457891D03*
D50*
X308605Y494307D03*
D70*
X308155Y451822D03*
D55*
X308155Y457891D03*
D115*
X308155Y494532D03*
D54*
X307706Y452046D03*
X307706Y457891D03*
D116*
X307706Y494532D03*
D54*
X307256Y452496D03*
X307256Y457891D03*
D117*
X307256Y494756D03*
D55*
X306807Y452946D03*
X306807Y457891D03*
D118*
X306807Y494532D03*
D54*
X306357Y453395D03*
X306357Y457891D03*
D119*
X306357Y494756D03*
D55*
X305907Y453845D03*
D29*
X305907Y457666D03*
D22*
X305907Y487563D03*
D120*
X305907Y497454D03*
D48*
X305458Y456093D03*
D57*
X305458Y487338D03*
D68*
X305458Y495656D03*
D11*
X305458Y501950D03*
D17*
X305008Y456093D03*
D29*
X305008Y487338D03*
D39*
X305008Y495431D03*
D22*
X305008Y502399D03*
D35*
X304559Y456317D03*
D56*
X304559Y486889D03*
D28*
X304559Y495206D03*
D57*
X304559Y502624D03*
D33*
X304109Y456542D03*
D31*
X304109Y486889D03*
D22*
X304109Y494756D03*
D31*
X304109Y503074D03*
D26*
X303660Y456767D03*
D54*
X303660Y486664D03*
D56*
X303660Y503074D03*
D28*
X303210Y456992D03*
D56*
X303210Y486439D03*
D54*
X303210Y503298D03*
D21*
X302760Y456992D03*
D31*
X302760Y486439D03*
D55*
X302760Y503298D03*
D23*
X302311Y457217D03*
D56*
X302311Y486439D03*
D54*
X302311Y503298D03*
D24*
X301861Y457217D03*
D55*
X301861Y486214D03*
X301861Y503748D03*
D11*
X301412Y457441D03*
D54*
X301412Y486214D03*
X301412Y503748D03*
D22*
X300962Y457441D03*
D29*
X300962Y485990D03*
D55*
X300962Y503748D03*
D57*
X300513Y457666D03*
D54*
X300513Y485765D03*
X300513Y503748D03*
D29*
X300063Y457666D03*
D55*
X300063Y485765D03*
X300063Y503748D03*
D57*
X299613Y457666D03*
D54*
X299613Y485765D03*
D67*
X299613Y503973D03*
D54*
X299164Y457891D03*
X299164Y485765D03*
D67*
X299164Y503973D03*
D55*
X298714Y457891D03*
X298714Y485765D03*
D70*
X298714Y503973D03*
D54*
X298265Y457891D03*
D67*
X298265Y485540D03*
X298265Y503973D03*
D55*
X297815Y457891D03*
D70*
X297815Y485540D03*
X297815Y503973D03*
D54*
X297365Y458340D03*
X297365Y485315D03*
X297365Y504198D03*
D55*
X296916Y458340D03*
X296916Y485315D03*
X296916Y504198D03*
D54*
X296466Y458340D03*
X296466Y485315D03*
X296466Y504198D03*
X296017Y458340D03*
X296017Y485315D03*
D64*
X296017Y504422D03*
D82*
X295567Y458565D03*
D55*
X295567Y485315D03*
D82*
X295567Y504422D03*
D64*
X295118Y458565D03*
X295118Y485090D03*
X295118Y504422D03*
D55*
X294668Y458790D03*
D82*
X294668Y485090D03*
X294668Y504422D03*
D54*
X294218Y458790D03*
D64*
X294218Y485090D03*
X294218Y504422D03*
D55*
X293769Y458790D03*
D82*
X293769Y485090D03*
X293769Y504422D03*
D54*
X293319Y458790D03*
D64*
X293319Y485090D03*
X293319Y504422D03*
D70*
X292870Y459015D03*
D82*
X292870Y485090D03*
X292870Y504422D03*
D54*
X292420Y459240D03*
D64*
X292420Y485090D03*
D54*
X292420Y504647D03*
X291970Y459240D03*
D64*
X291970Y485090D03*
D54*
X291970Y504647D03*
D55*
X291521Y459240D03*
D82*
X291521Y485090D03*
D55*
X291521Y504647D03*
D54*
X291071Y459240D03*
D86*
X291071Y471828D03*
D64*
X291071Y485090D03*
D54*
X291071Y504647D03*
D29*
X290622Y459464D03*
D121*
X290622Y478347D03*
D55*
X290622Y504647D03*
D54*
X290172Y459689D03*
D122*
X290172Y477897D03*
D54*
X290172Y504647D03*
D55*
X289723Y459689D03*
D123*
X289723Y477672D03*
D55*
X289723Y504647D03*
D54*
X289273Y459689D03*
D124*
X289273Y477223D03*
D54*
X289273Y504647D03*
D31*
X288823Y459914D03*
D111*
X288823Y476773D03*
D31*
X288823Y504872D03*
D54*
X288374Y460139D03*
D125*
X288374Y472952D03*
D35*
X288374Y484191D03*
D56*
X288374Y504872D03*
D54*
X287924Y460139D03*
D45*
X287924Y470479D03*
D19*
X287924Y485315D03*
D56*
X287924Y504872D03*
D29*
X287475Y460364D03*
D126*
X287475Y469130D03*
D33*
X287475Y486214D03*
D31*
X287475Y504872D03*
D57*
X287025Y460364D03*
D97*
X287025Y468006D03*
D35*
X287025Y487338D03*
D56*
X287025Y504872D03*
D29*
X286576Y460813D03*
D75*
X286576Y466882D03*
D39*
X286576Y487788D03*
D29*
X286576Y505322D03*
D16*
X286126Y464410D03*
D34*
X286126Y489137D03*
D57*
X286126Y505322D03*
D15*
X285676Y463960D03*
D21*
X285676Y489811D03*
D29*
X285676Y505322D03*
D61*
X285227Y463511D03*
D25*
X285227Y490261D03*
D11*
X285227Y505546D03*
D68*
X284777Y463286D03*
D28*
X284777Y491160D03*
D57*
X284777Y505771D03*
D58*
X284328Y463061D03*
D24*
X284328Y491834D03*
D22*
X284328Y505996D03*
D48*
X283878Y462387D03*
D28*
X283878Y492509D03*
D11*
X283878Y505996D03*
D33*
X283428Y461937D03*
D18*
X283428Y493183D03*
D22*
X283428Y506446D03*
D19*
X282979Y461488D03*
D28*
X282979Y493857D03*
D11*
X282979Y506446D03*
D12*
X282529Y460813D03*
D18*
X282529Y494532D03*
X282529Y506670D03*
D28*
X282080Y460139D03*
D23*
X282080Y494981D03*
D11*
X282080Y506895D03*
D21*
X281630Y459689D03*
D18*
X281630Y495431D03*
D22*
X281630Y507345D03*
D28*
X281181Y459240D03*
D23*
X281181Y495880D03*
D57*
X281181Y507569D03*
D28*
X280731Y458790D03*
D11*
X280731Y496555D03*
D57*
X280731Y507569D03*
D22*
X280281Y458340D03*
X280281Y497454D03*
D31*
X280281Y508019D03*
D11*
X279832Y457891D03*
D30*
X279832Y497679D03*
D56*
X279832Y508019D03*
D22*
X279382Y457441D03*
D18*
X279382Y498128D03*
D29*
X279382Y508469D03*
D11*
X278933Y456992D03*
D30*
X278933Y498578D03*
D57*
X278933Y508469D03*
D22*
X278483Y456542D03*
D24*
X278483Y499027D03*
D31*
X278483Y508918D03*
D11*
X278034Y456093D03*
D56*
X278034Y499927D03*
D54*
X278034Y509143D03*
D22*
X277584Y455643D03*
X277584Y500151D03*
D55*
X277584Y509143D03*
D11*
X277134Y455193D03*
X277134Y500601D03*
D54*
X277134Y509593D03*
D11*
X276685Y454744D03*
D23*
X276685Y500826D03*
D57*
X276685Y509817D03*
D22*
X276235Y454294D03*
D18*
X276235Y501275D03*
D55*
X276235Y510042D03*
D11*
X275786Y453845D03*
D30*
X275786Y501725D03*
D56*
X275786Y510267D03*
D29*
X275336Y453620D03*
D24*
X275336Y502175D03*
D55*
X275336Y510492D03*
D11*
X274886Y453395D03*
D30*
X274886Y502624D03*
D57*
X274886Y510717D03*
D85*
X274437Y452946D03*
D22*
X274437Y502849D03*
D29*
X274437Y510717D03*
D11*
X273987Y452496D03*
X273987Y503298D03*
D54*
X273987Y510941D03*
D57*
X273538Y452271D03*
D11*
X273538Y503748D03*
D56*
X273538Y511166D03*
D31*
X273088Y451822D03*
D22*
X273088Y504198D03*
D31*
X273088Y511166D03*
D11*
X272639Y451597D03*
X272639Y504647D03*
D54*
X272639Y511391D03*
D29*
X272189Y451372D03*
D22*
X272189Y505097D03*
D29*
X272189Y511616D03*
D56*
X271739Y450922D03*
D11*
X271739Y505546D03*
D57*
X271739Y511616D03*
D22*
X271290Y450698D03*
X271290Y505996D03*
D55*
X271290Y511840D03*
D57*
X270840Y450473D03*
D56*
X270840Y506221D03*
D54*
X270840Y511840D03*
D31*
X270391Y450023D03*
D29*
X270391Y506670D03*
D31*
X270391Y512065D03*
D57*
X269941Y449574D03*
D11*
X269941Y506895D03*
D54*
X269941Y512290D03*
D57*
X269491Y449574D03*
D11*
X269491Y507345D03*
D54*
X269491Y512290D03*
D29*
X269042Y449124D03*
D22*
X269042Y507794D03*
D55*
X269042Y512290D03*
D56*
X268592Y448674D03*
D68*
X268592Y510042D03*
D55*
X268143Y448450D03*
D69*
X268143Y510267D03*
D57*
X267693Y448225D03*
D97*
X267693Y510267D03*
D55*
X267244Y448000D03*
D75*
X267244Y510492D03*
D54*
X266794Y447551D03*
D107*
X266794Y510492D03*
D55*
X266344Y447101D03*
D17*
X266344Y510941D03*
D67*
X265895Y446876D03*
D48*
X265895Y510941D03*
D54*
X265445Y446651D03*
D48*
X265445Y511391D03*
D55*
X264996Y446202D03*
D39*
X264996Y511616D03*
D54*
X264546Y445752D03*
D35*
X264546Y511616D03*
D84*
X264097Y445303D03*
D33*
X264097Y511840D03*
D54*
X263647Y444853D03*
D19*
X263647Y511840D03*
D70*
X263197Y444628D03*
D12*
X263197Y512065D03*
D54*
X262748Y444403D03*
D26*
X262748Y512065D03*
D56*
X262298Y443729D03*
D26*
X262298Y512065D03*
D29*
X261849Y443280D03*
D21*
X261849Y512290D03*
D56*
X261399Y442830D03*
D28*
X261399Y512290D03*
D29*
X260949Y442380D03*
D87*
X260949Y484641D03*
D21*
X260949Y512290D03*
D56*
X260500Y441931D03*
D11*
X260500Y483967D03*
D30*
X260500Y512515D03*
D31*
X260050Y441931D03*
D12*
X260050Y483742D03*
D18*
X260050Y512515D03*
D20*
X259601Y441706D03*
D35*
X259601Y483742D03*
D11*
X259601Y512740D03*
D22*
X259151Y441256D03*
D63*
X259151Y483517D03*
D22*
X259151Y512740D03*
D11*
X258702Y440807D03*
D14*
X258702Y483517D03*
D11*
X258702Y512740D03*
X258252Y440357D03*
D96*
X258252Y483517D03*
D11*
X258252Y512740D03*
D31*
X257802Y439683D03*
D41*
X257802Y483517D03*
D22*
X257802Y512740D03*
D57*
X257353Y439233D03*
D16*
X257353Y483742D03*
D11*
X257353Y512740D03*
D31*
X256903Y438784D03*
D114*
X256903Y483742D03*
D22*
X256903Y512740D03*
D11*
X256454Y438559D03*
D19*
X256454Y480819D03*
D30*
X256454Y487338D03*
D11*
X256454Y512740D03*
D22*
X256004Y438109D03*
D33*
X256004Y480370D03*
D24*
X256004Y487788D03*
D22*
X256004Y512740D03*
D11*
X255555Y437660D03*
D19*
X255555Y479920D03*
D11*
X255555Y488013D03*
X255555Y512740D03*
D29*
X255105Y436985D03*
D77*
X255105Y479471D03*
D22*
X255105Y488013D03*
X255105Y512740D03*
D56*
X254655Y436536D03*
D19*
X254655Y479021D03*
D11*
X254655Y488013D03*
X254655Y512740D03*
D57*
X254206Y436086D03*
D32*
X254206Y478572D03*
D57*
X254206Y488238D03*
D11*
X254206Y512740D03*
D22*
X253756Y435861D03*
D33*
X253756Y478122D03*
D29*
X253756Y488238D03*
D22*
X253756Y512740D03*
D11*
X253307Y435412D03*
D19*
X253307Y477672D03*
D57*
X253307Y488238D03*
D11*
X253307Y512740D03*
D22*
X252857Y434962D03*
D33*
X252857Y477223D03*
D29*
X252857Y488238D03*
D22*
X252857Y512740D03*
D11*
X252407Y434513D03*
D35*
X252407Y476998D03*
D54*
X252407Y488462D03*
D11*
X252407Y512740D03*
D29*
X251958Y433838D03*
D77*
X251958Y476324D03*
D55*
X251958Y488462D03*
D29*
X251958Y512515D03*
D11*
X251508Y433164D03*
D26*
X251508Y475649D03*
D54*
X251508Y488462D03*
D57*
X251508Y512515D03*
D11*
X251059Y432714D03*
D26*
X251059Y475200D03*
D54*
X251059Y488462D03*
D57*
X251059Y512515D03*
D24*
X250609Y432490D03*
D12*
X250609Y474750D03*
D55*
X250609Y488462D03*
D29*
X250609Y512515D03*
D30*
X250160Y432040D03*
D19*
X250160Y474076D03*
D54*
X250160Y488462D03*
D57*
X250160Y512515D03*
D24*
X249710Y431590D03*
D12*
X249710Y473401D03*
D55*
X249710Y488462D03*
D29*
X249710Y512515D03*
D11*
X249260Y430916D03*
D34*
X249260Y472952D03*
D54*
X249260Y488462D03*
D57*
X249260Y512515D03*
D85*
X248811Y430467D03*
D12*
X248811Y472502D03*
D55*
X248811Y488462D03*
D29*
X248811Y512515D03*
D11*
X248361Y430017D03*
D26*
X248361Y472053D03*
D54*
X248361Y488462D03*
D57*
X248361Y512515D03*
D18*
X247912Y429792D03*
D77*
X247912Y471378D03*
D55*
X247912Y488462D03*
D29*
X247912Y512515D03*
D23*
X247462Y429343D03*
D19*
X247462Y470929D03*
D54*
X247462Y488462D03*
X247462Y512290D03*
D30*
X247012Y428893D03*
D19*
X247012Y470030D03*
D54*
X247012Y488462D03*
X247012Y512290D03*
D22*
X246563Y428219D03*
D33*
X246563Y469580D03*
D29*
X246563Y488238D03*
D55*
X246563Y512290D03*
D11*
X246113Y427769D03*
D34*
X246113Y468906D03*
D54*
X246113Y488013D03*
X246113Y512290D03*
D22*
X245664Y427319D03*
D77*
X245664Y468231D03*
D55*
X245664Y488013D03*
D70*
X245664Y512065D03*
D30*
X245214Y426645D03*
D26*
X245214Y467557D03*
D54*
X245214Y488013D03*
D67*
X245214Y512065D03*
D24*
X244765Y426195D03*
D12*
X244765Y467107D03*
D31*
X244765Y487788D03*
D83*
X244765Y511840D03*
D30*
X244315Y425746D03*
D28*
X244315Y466433D03*
D54*
X244315Y487563D03*
D64*
X244315Y511616D03*
D24*
X243865Y425296D03*
D21*
X243865Y465534D03*
D55*
X243865Y487563D03*
D82*
X243865Y511616D03*
D30*
X243416Y424847D03*
D28*
X243416Y465084D03*
D54*
X243416Y487563D03*
D86*
X243416Y511391D03*
D23*
X242966Y424397D03*
D30*
X242966Y464410D03*
D54*
X242966Y487114D03*
D67*
X242966Y511166D03*
D24*
X242517Y423498D03*
D18*
X242517Y463960D03*
D55*
X242517Y487114D03*
X242517Y510941D03*
D30*
X242067Y423048D03*
X242067Y463511D03*
D54*
X242067Y486664D03*
X242067Y510941D03*
D22*
X241618Y422374D03*
D24*
X241618Y463061D03*
D55*
X241618Y486664D03*
D82*
X241618Y510717D03*
D11*
X241168Y421924D03*
D30*
X241168Y462611D03*
D54*
X241168Y486214D03*
X241168Y510492D03*
D24*
X240718Y421250D03*
D22*
X240718Y461937D03*
D55*
X240718Y486214D03*
X240718Y510492D03*
D30*
X240269Y420801D03*
D54*
X240269Y461488D03*
X240269Y485765D03*
X240269Y510042D03*
D11*
X239819Y420126D03*
D54*
X239819Y461038D03*
X239819Y485765D03*
X239819Y510042D03*
D18*
X239370Y419452D03*
D84*
X239370Y460588D03*
D55*
X239370Y485315D03*
X239370Y510042D03*
D30*
X238920Y419002D03*
D54*
X238920Y460139D03*
X238920Y484866D03*
D57*
X238920Y509817D03*
D24*
X238470Y418103D03*
D31*
X238470Y459914D03*
X238470Y484641D03*
D55*
X238470Y509593D03*
D30*
X238021Y417653D03*
D54*
X238021Y459689D03*
D57*
X238021Y484191D03*
D20*
X238021Y509143D03*
D18*
X237571Y416754D03*
D55*
X237571Y459240D03*
D29*
X237571Y484191D03*
D22*
X237571Y508693D03*
D23*
X237122Y416305D03*
D67*
X237122Y459015D03*
D56*
X237122Y483742D03*
D11*
X237122Y508244D03*
D18*
X236672Y415855D03*
D70*
X236672Y459015D03*
D31*
X236672Y483742D03*
D22*
X236672Y508244D03*
D25*
X236223Y415630D03*
D64*
X236223Y458565D03*
D11*
X236223Y483517D03*
D23*
X236223Y508019D03*
D26*
X235773Y414956D03*
D64*
X235773Y458565D03*
D57*
X235773Y483292D03*
D11*
X235773Y507794D03*
D21*
X235323Y414282D03*
D70*
X235323Y458116D03*
D22*
X235323Y483067D03*
D18*
X235323Y507569D03*
D30*
X234874Y413607D03*
D67*
X234874Y458116D03*
D11*
X234874Y482618D03*
D28*
X234874Y506895D03*
D22*
X234424Y412933D03*
D82*
X234424Y457666D03*
D22*
X234424Y482168D03*
D21*
X234424Y506895D03*
D11*
X233975Y412483D03*
D64*
X233975Y457666D03*
D57*
X233975Y481943D03*
D28*
X233975Y506446D03*
D18*
X233525Y411809D03*
D55*
X233525Y457441D03*
D31*
X233525Y481494D03*
D24*
X233525Y506221D03*
D11*
X233076Y411135D03*
D67*
X233076Y457217D03*
D11*
X233076Y481269D03*
D28*
X233076Y505996D03*
D22*
X232626Y410235D03*
D55*
X232626Y456992D03*
D22*
X232626Y480819D03*
D53*
X232626Y505546D03*
D11*
X232176Y409786D03*
D54*
X232176Y456992D03*
X232176Y480370D03*
D28*
X232176Y505097D03*
D23*
X231727Y409111D03*
D54*
X231727Y456992D03*
X231727Y479920D03*
D30*
X231727Y504422D03*
D22*
X231277Y408437D03*
D55*
X231277Y456992D03*
X231277Y479471D03*
D18*
X231277Y504422D03*
D30*
X230828Y407763D03*
D54*
X230828Y456992D03*
D57*
X230828Y479246D03*
D23*
X230828Y503973D03*
D18*
X230378Y407313D03*
D55*
X230378Y456992D03*
D29*
X230378Y478796D03*
D21*
X230378Y503748D03*
D30*
X229928Y406414D03*
D67*
X229928Y457217D03*
D56*
X229928Y478347D03*
D28*
X229928Y503298D03*
D24*
X229479Y405964D03*
D70*
X229479Y457217D03*
D29*
X229479Y477897D03*
D21*
X229479Y502849D03*
D28*
X229029Y405290D03*
D54*
X229029Y457441D03*
D11*
X229029Y477223D03*
D28*
X229029Y502399D03*
D30*
X228580Y404616D03*
D54*
X228580Y457441D03*
D11*
X228580Y476773D03*
D28*
X228580Y501950D03*
D21*
X228130Y403941D03*
D55*
X228130Y457891D03*
D22*
X228130Y476324D03*
D12*
X228130Y501725D03*
D28*
X227681Y403492D03*
D56*
X227681Y458116D03*
D30*
X227681Y475649D03*
D26*
X227681Y501275D03*
D12*
X227231Y402817D03*
D55*
X227231Y458790D03*
D53*
X227231Y474975D03*
D77*
X227231Y501051D03*
D19*
X226781Y402143D03*
D54*
X226781Y459240D03*
D28*
X226781Y474525D03*
D19*
X226781Y500601D03*
D27*
X226332Y401469D03*
D22*
X226332Y459689D03*
D33*
X226332Y473626D03*
X226332Y500151D03*
D32*
X225882Y400794D03*
D11*
X225882Y460139D03*
D19*
X225882Y472727D03*
D37*
X225882Y499927D03*
D33*
X225433Y400345D03*
D53*
X225433Y460588D03*
D42*
X225433Y471828D03*
D39*
X225433Y499477D03*
D35*
X224983Y400120D03*
D19*
X224983Y461488D03*
D97*
X224983Y470704D03*
D35*
X224983Y499027D03*
D44*
X224533Y399445D03*
D127*
X224533Y466658D03*
D35*
X224533Y498578D03*
D42*
X224084Y398097D03*
D128*
X224084Y466433D03*
D77*
X224084Y497904D03*
D48*
X223634Y397647D03*
D47*
X223634Y466433D03*
D19*
X223634Y497454D03*
D17*
X223185Y396748D03*
D38*
X223185Y466433D03*
D77*
X223185Y497004D03*
D44*
X222735Y396298D03*
D129*
X222735Y466208D03*
D34*
X222735Y496330D03*
D58*
X222286Y395624D03*
D39*
X222286Y466658D03*
D12*
X222286Y495880D03*
D13*
X221836Y395174D03*
D11*
X221836Y466882D03*
D34*
X221836Y495431D03*
D58*
X221386Y394275D03*
D10*
X221386Y467107D03*
D12*
X221386Y494981D03*
D68*
X220937Y393601D03*
D26*
X220937Y494532D03*
D60*
X220487Y393151D03*
D26*
X220487Y494082D03*
D126*
X220038Y392702D03*
D27*
X220038Y493183D03*
D97*
X219588Y392027D03*
D26*
X219588Y492733D03*
D69*
X219139Y391128D03*
D27*
X219139Y492284D03*
D14*
X218689Y390454D03*
D28*
X218689Y491609D03*
D78*
X218239Y389780D03*
D21*
X218239Y491160D03*
D61*
X217790Y389330D03*
D30*
X217790Y490485D03*
D60*
X217340Y388206D03*
D28*
X217340Y489811D03*
D94*
X216891Y387756D03*
D21*
X216891Y489361D03*
D95*
X216441Y387082D03*
D28*
X216441Y488912D03*
D78*
X215991Y386183D03*
D21*
X215991Y488462D03*
D60*
X215542Y385059D03*
D26*
X215542Y487788D03*
D78*
X215092Y384385D03*
D53*
X215092Y487114D03*
D95*
X214643Y383935D03*
D28*
X214643Y486664D03*
D71*
X214193Y383036D03*
D53*
X214193Y486214D03*
D61*
X213744Y382137D03*
D26*
X213744Y485540D03*
D14*
X213294Y381462D03*
D34*
X213294Y485090D03*
D78*
X212844Y380788D03*
D21*
X212844Y484416D03*
D96*
X212395Y379664D03*
D28*
X212395Y483967D03*
D113*
X211945Y378765D03*
D18*
X211945Y483292D03*
D61*
X211496Y378090D03*
D11*
X211496Y482618D03*
D38*
X211046Y377416D03*
D22*
X211046Y482168D03*
D96*
X210597Y376966D03*
D56*
X210597Y481494D03*
D15*
X210147Y375843D03*
D29*
X210147Y481044D03*
D16*
X209697Y374494D03*
D56*
X209697Y480595D03*
D43*
X209248Y373595D03*
D57*
X209248Y480145D03*
D130*
X208798Y372920D03*
D55*
X208798Y479471D03*
D47*
X208349Y372021D03*
D76*
X208349Y479021D03*
D114*
X207899Y371347D03*
D55*
X207899Y478572D03*
D43*
X207449Y369548D03*
D131*
X207449Y398546D03*
D56*
X207449Y478347D03*
D87*
X207000Y337628D03*
D130*
X207000Y368424D03*
D55*
X207000Y397647D03*
X207000Y478122D03*
D106*
X206550Y337853D03*
D99*
X206550Y367525D03*
D30*
X206550Y396973D03*
D54*
X206550Y477672D03*
D106*
X206101Y337853D03*
D132*
X206101Y366401D03*
D25*
X206101Y396298D03*
D54*
X206101Y477223D03*
D83*
X205651Y337853D03*
D130*
X205651Y365277D03*
D12*
X205651Y395624D03*
D55*
X205651Y476773D03*
D86*
X205202Y337853D03*
D52*
X205202Y363704D03*
D34*
X205202Y395174D03*
D54*
X205202Y476324D03*
D10*
X204752Y337628D03*
D113*
X204752Y362580D03*
D33*
X204752Y394500D03*
D55*
X204752Y475874D03*
D92*
X204302Y337628D03*
D96*
X204302Y361681D03*
D19*
X204302Y394051D03*
D67*
X204302Y475649D03*
D91*
X203853Y337403D03*
D78*
X203853Y361006D03*
D39*
X203853Y393376D03*
D70*
X203853Y475200D03*
D89*
X203403Y337403D03*
D96*
X203403Y359882D03*
D35*
X203403Y392927D03*
D54*
X203403Y474975D03*
D91*
X202954Y337403D03*
D126*
X202954Y358983D03*
D39*
X202954Y392027D03*
D55*
X202954Y474525D03*
D67*
X202504Y337179D03*
D14*
X202504Y358084D03*
D37*
X202504Y391578D03*
D54*
X202504Y474076D03*
D74*
X202054Y295593D03*
D67*
X202054Y337179D03*
D60*
X202054Y357185D03*
D48*
X202054Y390903D03*
D54*
X202054Y473626D03*
D87*
X201605Y276036D03*
D10*
X201605Y295817D03*
D84*
X201605Y336954D03*
D75*
X201605Y355387D03*
D42*
X201605Y390004D03*
D70*
X201605Y473401D03*
D67*
X201155Y276485D03*
D89*
X201155Y295593D03*
D90*
X201155Y316948D03*
D54*
X201155Y336504D03*
D13*
X201155Y354263D03*
X201155Y389330D03*
D64*
X201155Y472952D03*
D29*
X200706Y276935D03*
D10*
X200706Y295817D03*
D66*
X200706Y316948D03*
D55*
X200706Y336504D03*
D58*
X200706Y352914D03*
D17*
X200706Y388656D03*
D70*
X200706Y472502D03*
D11*
X200256Y277160D03*
D86*
X200256Y296042D03*
D88*
X200256Y316948D03*
D56*
X200256Y336279D03*
D107*
X200256Y351340D03*
D13*
X200256Y387981D03*
D54*
X200256Y472277D03*
D18*
X199807Y277834D03*
D83*
X199807Y296042D03*
X199807Y316723D03*
D22*
X199807Y336055D03*
D38*
X199807Y349542D03*
D63*
X199807Y387307D03*
D84*
X199807Y471828D03*
D11*
X199357Y278508D03*
D86*
X199357Y296042D03*
X199357Y316723D03*
D57*
X199357Y335830D03*
D96*
X199357Y348643D03*
D97*
X199357Y386632D03*
D67*
X199357Y471603D03*
D22*
X198907Y278958D03*
D83*
X198907Y296492D03*
X198907Y316723D03*
D22*
X198907Y335605D03*
D51*
X198907Y346170D03*
D69*
X198907Y385284D03*
D70*
X198907Y471153D03*
D11*
X198458Y279408D03*
D86*
X198458Y296492D03*
X198458Y316723D03*
D11*
X198458Y335605D03*
D133*
X198458Y344822D03*
D14*
X198458Y384609D03*
D64*
X198458Y470704D03*
D11*
X198008Y279857D03*
D86*
X198008Y296492D03*
X198008Y316723D03*
D101*
X198008Y341450D03*
D97*
X198008Y383935D03*
D54*
X198008Y470479D03*
D24*
X197559Y280082D03*
D66*
X197559Y296716D03*
D83*
X197559Y316723D03*
D128*
X197559Y340551D03*
D59*
X197559Y383485D03*
D70*
X197559Y470254D03*
D30*
X197109Y280532D03*
D86*
X197109Y296941D03*
X197109Y316723D03*
D134*
X197109Y339427D03*
D60*
X197109Y382811D03*
D64*
X197109Y469805D03*
D22*
X196660Y281206D03*
D83*
X196660Y296941D03*
X196660Y316723D03*
D135*
X196660Y337628D03*
D75*
X196660Y381912D03*
D55*
X196660Y469580D03*
D11*
X196210Y281656D03*
D86*
X196210Y296941D03*
X196210Y316723D03*
D127*
X196210Y335830D03*
D68*
X196210Y381462D03*
D54*
X196210Y469130D03*
D136*
X195760Y212420D03*
D22*
X195760Y282105D03*
D83*
X195760Y296941D03*
X195760Y316723D03*
D137*
X195760Y334256D03*
D69*
X195760Y380338D03*
D82*
X195760Y468906D03*
D86*
X195311Y212420D03*
D106*
X195311Y264571D03*
D56*
X195311Y282330D03*
D86*
X195311Y296941D03*
X195311Y316723D03*
D138*
X195311Y332908D03*
D97*
X195311Y379889D03*
D67*
X195311Y468456D03*
X194861Y212645D03*
D92*
X194861Y264796D03*
D57*
X194861Y282779D03*
D86*
X194861Y296941D03*
D64*
X194861Y316498D03*
D108*
X194861Y331559D03*
D60*
X194861Y378765D03*
D54*
X194861Y468231D03*
D55*
X194412Y212870D03*
D91*
X194412Y265021D03*
D31*
X194412Y283229D03*
D83*
X194412Y296941D03*
D82*
X194412Y316498D03*
D73*
X194412Y329985D03*
D126*
X194412Y378315D03*
D84*
X194412Y467782D03*
D76*
X193962Y213319D03*
D67*
X193962Y265246D03*
D54*
X193962Y283454D03*
D64*
X193962Y297166D03*
D54*
X193962Y316273D03*
D99*
X193962Y328861D03*
D97*
X193962Y377641D03*
D67*
X193962Y467557D03*
D70*
X193512Y213544D03*
D84*
X193512Y265471D03*
D55*
X193512Y283903D03*
D83*
X193512Y297391D03*
D55*
X193512Y316273D03*
D139*
X193512Y328187D03*
D75*
X193512Y376966D03*
D70*
X193512Y467107D03*
D67*
X193063Y213994D03*
X193063Y265695D03*
D54*
X193063Y284353D03*
D86*
X193063Y297391D03*
D56*
X193063Y316048D03*
D134*
X193063Y326389D03*
D129*
X193063Y376292D03*
D54*
X193063Y466882D03*
D70*
X192613Y213994D03*
D55*
X192613Y265920D03*
X192613Y284803D03*
D82*
X192613Y297166D03*
D24*
X192613Y316048D03*
D140*
X192613Y325714D03*
D69*
X192613Y375393D03*
D82*
X192613Y466658D03*
D54*
X192164Y214219D03*
D67*
X192164Y266145D03*
D57*
X192164Y285027D03*
D64*
X192164Y297166D03*
D117*
X192164Y322118D03*
D107*
X192164Y374719D03*
D67*
X192164Y466208D03*
D82*
X191714Y214443D03*
X191714Y266595D03*
D31*
X191714Y285477D03*
D82*
X191714Y297166D03*
D79*
X191714Y321219D03*
D69*
X191714Y374044D03*
D55*
X191714Y465983D03*
D54*
X191265Y214668D03*
D64*
X191265Y266595D03*
D11*
X191265Y285702D03*
D64*
X191265Y297166D03*
D141*
X191265Y320095D03*
D68*
X191265Y373370D03*
D54*
X191265Y465534D03*
X190815Y215118D03*
D86*
X190815Y266819D03*
D54*
X190815Y286151D03*
D86*
X190815Y296941D03*
D142*
X190815Y319195D03*
D60*
X190815Y372471D03*
D67*
X190815Y465309D03*
D82*
X190365Y215342D03*
D83*
X190365Y266819D03*
D55*
X190365Y286601D03*
D83*
X190365Y296941D03*
D100*
X190365Y317622D03*
D69*
X190365Y371347D03*
D82*
X190365Y464859D03*
D54*
X189916Y215567D03*
D67*
X189916Y267044D03*
D54*
X189916Y286601D03*
D67*
X189916Y296716D03*
D141*
X189916Y316048D03*
D97*
X189916Y370448D03*
D67*
X189916Y464410D03*
D55*
X189466Y216017D03*
D82*
X189466Y267494D03*
D136*
X189466Y275811D03*
D55*
X189466Y287050D03*
X189466Y296941D03*
D115*
X189466Y314700D03*
D75*
X189466Y369773D03*
D70*
X189466Y463960D03*
D64*
X189017Y216242D03*
X189017Y267494D03*
D92*
X189017Y276036D03*
D54*
X189017Y287050D03*
D56*
X189017Y296716D03*
D101*
X189017Y313126D03*
D13*
X189017Y369099D03*
D54*
X189017Y463735D03*
D55*
X188567Y216466D03*
D83*
X188567Y267719D03*
D91*
X188567Y276261D03*
D31*
X188567Y287275D03*
X188567Y296716D03*
D143*
X188567Y311553D03*
D69*
X188567Y367750D03*
D55*
X188567Y463735D03*
D67*
X188118Y216691D03*
D86*
X188118Y267719D03*
D89*
X188118Y276261D03*
D54*
X188118Y287500D03*
D23*
X188118Y296716D03*
D144*
X188118Y309529D03*
D14*
X188118Y367076D03*
D54*
X188118Y463286D03*
D55*
X187668Y216916D03*
D83*
X187668Y267719D03*
D91*
X187668Y276261D03*
D55*
X187668Y287500D03*
D145*
X187668Y305034D03*
D69*
X187668Y366401D03*
D31*
X187668Y463061D03*
D67*
X187218Y217141D03*
D90*
X187218Y235124D03*
D67*
X187218Y267943D03*
X187218Y276485D03*
D54*
X187218Y287500D03*
D146*
X187218Y303685D03*
D13*
X187218Y365053D03*
D64*
X187218Y462611D03*
D54*
X186769Y217366D03*
D92*
X186769Y235124D03*
D67*
X186769Y267943D03*
X186769Y276485D03*
D57*
X186769Y287725D03*
D147*
X186769Y302561D03*
D13*
X186769Y364153D03*
D67*
X186769Y462162D03*
D82*
X186319Y217590D03*
D10*
X186319Y235124D03*
D70*
X186319Y267943D03*
X186319Y276485D03*
D29*
X186319Y287725D03*
D148*
X186319Y301212D03*
D75*
X186319Y363479D03*
D55*
X186319Y461937D03*
D54*
X185870Y217815D03*
D86*
X185870Y234899D03*
X185870Y268168D03*
D67*
X185870Y276935D03*
D76*
X185870Y287950D03*
D104*
X185870Y299864D03*
D13*
X185870Y362355D03*
D64*
X185870Y461712D03*
D70*
X185420Y218040D03*
D83*
X185420Y234899D03*
X185420Y268168D03*
D70*
X185420Y276935D03*
D22*
X185420Y288399D03*
D143*
X185420Y298515D03*
D58*
X185420Y361906D03*
D70*
X185420Y461263D03*
D67*
X184970Y218040D03*
D86*
X184970Y234899D03*
X184970Y268168D03*
D67*
X184970Y276935D03*
D149*
X184970Y295368D03*
D129*
X184970Y361006D03*
D67*
X184970Y460813D03*
D82*
X184521Y218490D03*
D83*
X184521Y234899D03*
D70*
X184521Y267943D03*
D55*
X184521Y277160D03*
D118*
X184521Y294469D03*
D69*
X184521Y359208D03*
D84*
X184521Y460588D03*
D64*
X184071Y218490D03*
D86*
X184071Y234899D03*
D67*
X184071Y267943D03*
D54*
X184071Y277160D03*
D150*
X184071Y293345D03*
D107*
X184071Y358534D03*
D67*
X184071Y460364D03*
D54*
X183622Y218714D03*
D86*
X183622Y234899D03*
D93*
X183622Y249061D03*
D67*
X183622Y267943D03*
X183622Y277385D03*
D104*
X183622Y291771D03*
D97*
X183622Y357859D03*
D67*
X183622Y459914D03*
D70*
X183172Y218939D03*
D83*
X183172Y234899D03*
D10*
X183172Y249061D03*
D98*
X183172Y260300D03*
D70*
X183172Y267943D03*
D55*
X183172Y277160D03*
D151*
X183172Y290422D03*
D94*
X183172Y357185D03*
D55*
X183172Y459689D03*
D67*
X182723Y218939D03*
D86*
X182723Y234899D03*
D92*
X182723Y249061D03*
D74*
X182723Y260076D03*
D67*
X182723Y267943D03*
D54*
X182723Y277160D03*
D152*
X182723Y289523D03*
D60*
X182723Y356286D03*
D64*
X182723Y459464D03*
D82*
X182273Y219389D03*
D83*
X182273Y234899D03*
X182273Y248836D03*
D66*
X182273Y259851D03*
D83*
X182273Y267719D03*
D153*
X182273Y285477D03*
D113*
X182273Y355387D03*
D70*
X182273Y459015D03*
D64*
X181823Y219389D03*
D86*
X181823Y234899D03*
X181823Y248836D03*
D88*
X181823Y259851D03*
D64*
X181823Y267494D03*
D147*
X181823Y284578D03*
D52*
X181823Y353364D03*
D64*
X181823Y458565D03*
D82*
X181374Y219389D03*
D83*
X181374Y234899D03*
X181374Y248836D03*
X181374Y259626D03*
D82*
X181374Y267494D03*
D154*
X181374Y283679D03*
D15*
X181374Y352464D03*
D70*
X181374Y458116D03*
D54*
X180924Y219613D03*
D86*
X180924Y234899D03*
X180924Y248387D03*
X180924Y259626D03*
D64*
X180924Y267494D03*
D119*
X180924Y282555D03*
D52*
X180924Y351565D03*
D67*
X180924Y458116D03*
D70*
X180475Y219838D03*
D83*
X180475Y234899D03*
X180475Y248387D03*
X180475Y259626D03*
D55*
X180475Y267269D03*
D121*
X180475Y280532D03*
D155*
X180475Y350666D03*
D82*
X180475Y457666D03*
D67*
X180025Y219838D03*
D86*
X180025Y234899D03*
X180025Y248387D03*
D64*
X180025Y259401D03*
D67*
X180025Y267044D03*
D144*
X180025Y279857D03*
D47*
X180025Y349093D03*
D54*
X180025Y457441D03*
D89*
X179575Y220063D03*
D86*
X179575Y234899D03*
X179575Y248387D03*
X179575Y259177D03*
D124*
X179575Y274912D03*
D16*
X179575Y347969D03*
D67*
X179575Y457217D03*
D91*
X179126Y220063D03*
D83*
X179126Y234899D03*
D82*
X179126Y248162D03*
D83*
X179126Y259177D03*
D154*
X179126Y273788D03*
D15*
X179126Y347069D03*
D55*
X179126Y456992D03*
D67*
X178676Y220288D03*
D64*
X178676Y234674D03*
D86*
X178676Y247937D03*
D92*
X178676Y258952D03*
D104*
X178676Y272889D03*
D97*
X178676Y346170D03*
D76*
X178676Y456542D03*
D70*
X178227Y220288D03*
D87*
X178227Y228380D03*
D82*
X178227Y234674D03*
D83*
X178227Y247937D03*
D91*
X178227Y258727D03*
D79*
X178227Y272214D03*
D12*
X178227Y344822D03*
D55*
X178227Y456093D03*
D67*
X177777Y220288D03*
D89*
X177777Y228156D03*
D64*
X177777Y234674D03*
D67*
X177777Y247712D03*
X177777Y258952D03*
D116*
X177777Y271090D03*
D67*
X177777Y343922D03*
D54*
X177777Y455643D03*
D70*
X177328Y220288D03*
D91*
X177328Y228156D03*
D82*
X177328Y234674D03*
D70*
X177328Y247712D03*
D31*
X177328Y258952D03*
D156*
X177328Y269517D03*
D55*
X177328Y455193D03*
D76*
X176878Y220513D03*
D89*
X176878Y228156D03*
D64*
X176878Y234674D03*
D67*
X176878Y247712D03*
D157*
X176878Y265471D03*
D54*
X176878Y455193D03*
D70*
X176428Y220737D03*
D91*
X176428Y228156D03*
D82*
X176428Y234674D03*
D55*
X176428Y247487D03*
D151*
X176428Y263897D03*
D55*
X176428Y454744D03*
D67*
X175979Y220737D03*
D89*
X175979Y228156D03*
D67*
X175979Y234225D03*
D54*
X175979Y247487D03*
D150*
X175979Y262773D03*
D64*
X175979Y454519D03*
D67*
X175529Y220737D03*
D89*
X175529Y228156D03*
D67*
X175529Y234225D03*
D54*
X175529Y247487D03*
D108*
X175529Y260975D03*
D92*
X175529Y434738D03*
D67*
X175529Y454069D03*
D70*
X175080Y220737D03*
D91*
X175080Y228156D03*
D70*
X175080Y234225D03*
D55*
X175080Y247487D03*
D115*
X175080Y260300D03*
D70*
X175080Y434288D03*
D55*
X175080Y453845D03*
D54*
X174630Y220962D03*
D89*
X174630Y228156D03*
D67*
X174630Y234225D03*
D56*
X174630Y247712D03*
D104*
X174630Y258502D03*
D76*
X174630Y434063D03*
D54*
X174630Y453395D03*
D158*
X174181Y198034D03*
D55*
X174181Y220962D03*
D91*
X174181Y228156D03*
D70*
X174181Y234225D03*
D111*
X174181Y255580D03*
D29*
X174181Y433838D03*
D70*
X174181Y453170D03*
D106*
X173731Y198034D03*
D54*
X173731Y220962D03*
D89*
X173731Y228156D03*
D86*
X173731Y234000D03*
D149*
X173731Y254456D03*
D64*
X173731Y378990D03*
D56*
X173731Y433389D03*
D54*
X173731Y452946D03*
D10*
X173281Y197809D03*
D55*
X173281Y220962D03*
D91*
X173281Y228156D03*
D82*
X173281Y233775D03*
D121*
X173281Y253107D03*
D33*
X173281Y378765D03*
D29*
X173281Y432939D03*
D55*
X173281Y452496D03*
D89*
X172832Y197584D03*
D54*
X172832Y220962D03*
D67*
X172832Y227931D03*
D64*
X172832Y233775D03*
D104*
X172832Y252208D03*
D107*
X172832Y378765D03*
D56*
X172832Y432490D03*
D54*
X172832Y452046D03*
D67*
X172382Y197359D03*
D54*
X172382Y220962D03*
D67*
X172382Y227931D03*
D64*
X172382Y233775D03*
D102*
X172382Y251084D03*
D61*
X172382Y378990D03*
D57*
X172382Y432040D03*
D54*
X172382Y452046D03*
D82*
X171933Y196910D03*
D55*
X171933Y220962D03*
D70*
X171933Y227931D03*
D83*
X171933Y233550D03*
D115*
X171933Y249511D03*
D15*
X171933Y378540D03*
D29*
X171933Y432040D03*
D55*
X171933Y451597D03*
D64*
X171483Y196910D03*
D54*
X171483Y220962D03*
D67*
X171483Y227931D03*
D86*
X171483Y233550D03*
D101*
X171483Y248387D03*
D16*
X171483Y378540D03*
D56*
X171483Y431590D03*
D54*
X171483Y451597D03*
D70*
X171033Y196460D03*
D29*
X171033Y220737D03*
D82*
X171033Y227481D03*
D83*
X171033Y233550D03*
D100*
X171033Y246139D03*
D114*
X171033Y378090D03*
D22*
X171033Y431366D03*
D55*
X171033Y451147D03*
D67*
X170584Y196460D03*
D90*
X170584Y206800D03*
D57*
X170584Y220737D03*
D64*
X170584Y227481D03*
D86*
X170584Y233550D03*
D138*
X170584Y244790D03*
D26*
X170584Y374494D03*
D11*
X170584Y382361D03*
D56*
X170584Y430691D03*
X170584Y450922D03*
D82*
X170134Y196011D03*
D83*
X170134Y206576D03*
D29*
X170134Y220737D03*
D82*
X170134Y227481D03*
D70*
X170134Y233326D03*
D128*
X170134Y243441D03*
D21*
X170134Y373370D03*
D31*
X170134Y382586D03*
X170134Y430242D03*
D55*
X170134Y450698D03*
D64*
X169685Y196011D03*
D86*
X169685Y206576D03*
D76*
X169685Y220513D03*
D54*
X169685Y227256D03*
X169685Y233550D03*
D132*
X169685Y241868D03*
D28*
X169685Y372471D03*
D54*
X169685Y382811D03*
D57*
X169685Y429792D03*
D54*
X169685Y450248D03*
D83*
X169235Y195786D03*
X169235Y206126D03*
D84*
X169235Y220513D03*
D31*
X169235Y227032D03*
D100*
X169235Y238945D03*
D21*
X169235Y372021D03*
D29*
X169235Y383036D03*
D22*
X169235Y429567D03*
D31*
X169235Y450023D03*
D67*
X168786Y195561D03*
X168786Y205901D03*
D76*
X168786Y220513D03*
D57*
X168786Y226582D03*
D72*
X168786Y237821D03*
D28*
X168786Y371122D03*
D54*
X168786Y383261D03*
D56*
X168786Y429343D03*
D57*
X168786Y449574D03*
D67*
X168336Y195561D03*
D89*
X168336Y205677D03*
D76*
X168336Y220513D03*
D57*
X168336Y226582D03*
D16*
X168336Y236473D03*
D25*
X168336Y370672D03*
D54*
X168336Y383261D03*
D57*
X168336Y428893D03*
D76*
X168336Y449349D03*
D82*
X167886Y195111D03*
D70*
X167886Y205452D03*
D29*
X167886Y220288D03*
D143*
X167886Y232427D03*
D24*
X167886Y369998D03*
D55*
X167886Y383261D03*
D31*
X167886Y428443D03*
D29*
X167886Y449124D03*
D54*
X167437Y194887D03*
D67*
X167437Y205452D03*
D56*
X167437Y219838D03*
D142*
X167437Y231078D03*
D11*
X167437Y369324D03*
D57*
X167437Y383036D03*
X167437Y427994D03*
D56*
X167437Y448674D03*
D136*
X166987Y152176D03*
D70*
X166987Y194662D03*
X166987Y205452D03*
D31*
X166987Y219838D03*
D114*
X166987Y230179D03*
D22*
X166987Y368874D03*
D18*
X166987Y383036D03*
D29*
X166987Y427095D03*
X166987Y448225D03*
D67*
X166538Y152401D03*
X166538Y194212D03*
D54*
X166538Y205227D03*
D56*
X166538Y219838D03*
D45*
X166538Y229504D03*
D56*
X166538Y368200D03*
D28*
X166538Y382811D03*
D57*
X166538Y427095D03*
X166538Y448225D03*
D29*
X166088Y152851D03*
D55*
X166088Y193987D03*
D82*
X166088Y205002D03*
D24*
X166088Y219838D03*
D78*
X166088Y227931D03*
D55*
X166088Y367975D03*
D33*
X166088Y382811D03*
D29*
X166088Y426645D03*
D31*
X166088Y447775D03*
D11*
X165639Y153525D03*
D64*
X165639Y193763D03*
D54*
X165639Y204777D03*
D72*
X165639Y223885D03*
D56*
X165639Y367301D03*
D13*
X165639Y382586D03*
D57*
X165639Y426645D03*
D54*
X165639Y447551D03*
D24*
X165189Y153750D03*
D70*
X165189Y193313D03*
D31*
X165189Y204553D03*
D114*
X165189Y222985D03*
D53*
X165189Y366626D03*
D69*
X165189Y382586D03*
D31*
X165189Y426195D03*
D29*
X165189Y447326D03*
D30*
X164739Y154200D03*
D67*
X164739Y193313D03*
D57*
X164739Y204103D03*
D45*
X164739Y221861D03*
D44*
X164739Y365727D03*
D52*
X164739Y382137D03*
D57*
X164739Y425746D03*
D56*
X164739Y446876D03*
D23*
X164290Y154649D03*
D64*
X164290Y192863D03*
D57*
X164290Y204103D03*
D52*
X164290Y220737D03*
D129*
X164290Y365053D03*
D45*
X164290Y381912D03*
D56*
X164290Y425296D03*
D54*
X164290Y446651D03*
D22*
X163840Y155324D03*
D82*
X163840Y192863D03*
D31*
X163840Y203653D03*
D15*
X163840Y219389D03*
D94*
X163840Y364828D03*
D21*
X163840Y378765D03*
D31*
X163840Y385733D03*
D29*
X163840Y424847D03*
X163840Y446427D03*
D57*
X163391Y155998D03*
D67*
X163391Y192414D03*
D57*
X163391Y203204D03*
D96*
X163391Y218265D03*
X163391Y364378D03*
D26*
X163391Y378090D03*
D54*
X163391Y385958D03*
D11*
X163391Y424622D03*
D56*
X163391Y445977D03*
D31*
X162941Y156447D03*
D55*
X162941Y192189D03*
D22*
X162941Y202979D03*
D78*
X162941Y216691D03*
D21*
X162941Y361231D03*
D31*
X162941Y367301D03*
D12*
X162941Y377191D03*
D82*
X162941Y386183D03*
D31*
X162941Y424397D03*
X162941Y445977D03*
D57*
X162491Y156897D03*
D64*
X162491Y191964D03*
D11*
X162491Y202979D03*
D60*
X162491Y215118D03*
D28*
X162491Y360782D03*
D64*
X162491Y367750D03*
D26*
X162491Y376292D03*
D64*
X162491Y386183D03*
D57*
X162491Y423948D03*
X162491Y445527D03*
D29*
X162042Y157347D03*
D70*
X162042Y191515D03*
D22*
X162042Y202529D03*
D94*
X162042Y213319D03*
D12*
X162042Y359658D03*
D82*
X162042Y367750D03*
D27*
X162042Y375843D03*
D82*
X162042Y386183D03*
D31*
X162042Y423498D03*
D29*
X162042Y445078D03*
D56*
X161592Y157796D03*
D54*
X161592Y191290D03*
D30*
X161592Y202305D03*
D68*
X161592Y211971D03*
D30*
X161592Y358309D03*
D64*
X161592Y367750D03*
D32*
X161592Y375168D03*
D86*
X161592Y385958D03*
D57*
X161592Y423048D03*
D11*
X161592Y444853D03*
X161143Y158021D03*
D74*
X161143Y176004D03*
D76*
X161143Y190840D03*
D26*
X161143Y202305D03*
D68*
X161143Y210622D03*
D11*
X161143Y357635D03*
D54*
X161143Y367975D03*
D26*
X161143Y374494D03*
D67*
X161143Y385733D03*
D11*
X161143Y422374D03*
X161143Y444403D03*
D29*
X160693Y158246D03*
D10*
X160693Y176229D03*
D84*
X160693Y190840D03*
D135*
X160693Y205901D03*
D22*
X160693Y356735D03*
D31*
X160693Y368200D03*
D12*
X160693Y373595D03*
D70*
X160693Y385284D03*
D22*
X160693Y421924D03*
D29*
X160693Y444179D03*
D56*
X160244Y158695D03*
D89*
X160244Y176004D03*
D54*
X160244Y190391D03*
D72*
X160244Y205002D03*
D56*
X160244Y356061D03*
D61*
X160244Y370897D03*
D67*
X160244Y385284D03*
D11*
X160244Y421475D03*
D56*
X160244Y443729D03*
D22*
X159794Y158920D03*
D70*
X159794Y176229D03*
D55*
X159794Y189941D03*
D51*
X159794Y204103D03*
D29*
X159794Y355611D03*
D126*
X159794Y370223D03*
D82*
X159794Y384834D03*
D22*
X159794Y421025D03*
D29*
X159794Y443280D03*
D30*
X159344Y159145D03*
D67*
X159344Y176229D03*
D64*
X159344Y189716D03*
D43*
X159344Y203204D03*
D86*
X159344Y341000D03*
D56*
X159344Y354712D03*
D107*
X159344Y369773D03*
D67*
X159344Y384385D03*
D11*
X159344Y420576D03*
D56*
X159344Y442830D03*
D22*
X158895Y159370D03*
D70*
X158895Y176229D03*
D55*
X158895Y189492D03*
D41*
X158895Y202529D03*
D24*
X158895Y341674D03*
D22*
X158895Y354038D03*
D17*
X158895Y369324D03*
D55*
X158895Y384160D03*
D18*
X158895Y419901D03*
D29*
X158895Y442380D03*
D23*
X158445Y159595D03*
D67*
X158445Y176229D03*
D54*
X158445Y189042D03*
D96*
X158445Y201630D03*
D13*
X158445Y341674D03*
D11*
X158445Y353588D03*
D48*
X158445Y368874D03*
D54*
X158445Y383710D03*
D30*
X158445Y419452D03*
D56*
X158445Y441931D03*
D21*
X157996Y159819D03*
D70*
X157996Y176229D03*
D82*
X157996Y188817D03*
D126*
X157996Y200731D03*
D38*
X157996Y341899D03*
D31*
X157996Y352914D03*
D39*
X157996Y368649D03*
D55*
X157996Y383261D03*
D22*
X157996Y418777D03*
D85*
X157996Y441706D03*
D30*
X157546Y160044D03*
D67*
X157546Y176229D03*
D54*
X157546Y188592D03*
D13*
X157546Y199607D03*
D133*
X157546Y341674D03*
D57*
X157546Y352464D03*
D37*
X157546Y368200D03*
D57*
X157546Y383036D03*
X157546Y418553D03*
D11*
X157546Y441256D03*
D25*
X157096Y160269D03*
D67*
X157096Y176229D03*
D54*
X157096Y188143D03*
D32*
X157096Y198483D03*
D108*
X157096Y341450D03*
D56*
X157096Y352015D03*
D13*
X157096Y367750D03*
D11*
X157096Y382811D03*
D56*
X157096Y418103D03*
D57*
X157096Y441032D03*
D18*
X156647Y160494D03*
D70*
X156647Y176229D03*
D82*
X156647Y187918D03*
D39*
X156647Y197809D03*
D156*
X156647Y341000D03*
D22*
X156647Y351340D03*
D75*
X156647Y367525D03*
D29*
X156647Y382137D03*
X156647Y417653D03*
D31*
X156647Y440582D03*
D30*
X156197Y160494D03*
D67*
X156197Y176229D03*
X156197Y187469D03*
D19*
X156197Y197134D03*
D80*
X156197Y342798D03*
D14*
X156197Y367076D03*
D54*
X156197Y381462D03*
X156197Y416979D03*
D57*
X156197Y440132D03*
D18*
X155748Y160943D03*
D91*
X155748Y176004D03*
D55*
X155748Y187244D03*
D33*
X155748Y196685D03*
D94*
X155748Y336055D03*
D38*
X155748Y347744D03*
D41*
X155748Y366626D03*
D31*
X155748Y380338D03*
D83*
X155748Y416530D03*
D31*
X155748Y439683D03*
D30*
X155298Y160943D03*
D89*
X155298Y176004D03*
D76*
X155298Y186794D03*
D26*
X155298Y195561D03*
D60*
X155298Y335156D03*
D13*
X155298Y348418D03*
D132*
X155298Y366401D03*
D57*
X155298Y379889D03*
D92*
X155298Y416305D03*
D57*
X155298Y439233D03*
D22*
X154849Y161168D03*
D91*
X154849Y176004D03*
D29*
X154849Y186569D03*
D12*
X154849Y194662D03*
D78*
X154849Y334481D03*
D17*
X154849Y348643D03*
D140*
X154849Y366177D03*
D22*
X154849Y379214D03*
D31*
X154849Y438784D03*
D11*
X154399Y161168D03*
D89*
X154399Y176004D03*
D30*
X154399Y186569D03*
D26*
X154399Y193313D03*
D159*
X154399Y333807D03*
D32*
X154399Y348643D03*
D35*
X154399Y362805D03*
D26*
X154399Y369998D03*
D11*
X154399Y378765D03*
D57*
X154399Y438334D03*
D29*
X153949Y161393D03*
D70*
X153949Y175779D03*
D130*
X153949Y189492D03*
D113*
X153949Y332908D03*
D77*
X153949Y348643D03*
D39*
X153949Y361906D03*
D18*
X153949Y370897D03*
X153949Y378090D03*
D29*
X153949Y437885D03*
D11*
X153500Y161618D03*
D67*
X153500Y175779D03*
D45*
X153500Y189042D03*
D129*
X153500Y331334D03*
D26*
X153500Y348868D03*
D48*
X153500Y361231D03*
D28*
X153500Y371572D03*
D11*
X153500Y377416D03*
D56*
X153500Y437435D03*
D11*
X153050Y161618D03*
D67*
X153050Y175779D03*
D40*
X153050Y188368D03*
D13*
X153050Y329985D03*
D28*
X153050Y348643D03*
D35*
X153050Y360107D03*
D159*
X153050Y373819D03*
D57*
X153050Y436985D03*
D31*
X152601Y161842D03*
D70*
X152601Y175779D03*
D78*
X152601Y187918D03*
D58*
X152601Y328637D03*
D24*
X152601Y348868D03*
D77*
X152601Y358983D03*
D94*
X152601Y373819D03*
D31*
X152601Y436536D03*
D56*
X152151Y161842D03*
D76*
X152151Y175555D03*
D14*
X152151Y187244D03*
D142*
X152151Y324590D03*
D23*
X152151Y348868D03*
D19*
X152151Y358084D03*
D68*
X152151Y373370D03*
D57*
X152151Y436086D03*
D31*
X151702Y161842D03*
D84*
X151702Y175555D03*
D58*
X151702Y186569D03*
D143*
X151702Y322792D03*
D24*
X151702Y348868D03*
D36*
X151702Y356960D03*
D17*
X151702Y373370D03*
D31*
X151702Y435637D03*
D54*
X151252Y162067D03*
D76*
X151252Y175555D03*
D44*
X151252Y185895D03*
D117*
X151252Y321219D03*
D11*
X151252Y349093D03*
D35*
X151252Y356061D03*
X151252Y373145D03*
D57*
X151252Y435187D03*
D55*
X150802Y162067D03*
X150802Y175105D03*
D17*
X150802Y184996D03*
D160*
X150802Y319645D03*
D130*
X150802Y352689D03*
D18*
X150802Y372695D03*
D31*
X150802Y434738D03*
D54*
X150353Y162067D03*
X150353Y175105D03*
D48*
X150353Y184097D03*
D52*
X150353Y314250D03*
D35*
X150353Y325040D03*
D45*
X150353Y352240D03*
D11*
X150353Y372471D03*
D57*
X150353Y434288D03*
D54*
X149903Y162067D03*
X149903Y175105D03*
D35*
X149903Y183422D03*
D61*
X149903Y312901D03*
D26*
X149903Y325040D03*
D96*
X149903Y351790D03*
D54*
X149903Y372021D03*
D57*
X149903Y433838D03*
D55*
X149454Y162067D03*
D31*
X149454Y174880D03*
D42*
X149454Y182748D03*
D69*
X149454Y311553D03*
D27*
X149454Y324590D03*
D78*
X149454Y351116D03*
D55*
X149454Y371572D03*
D31*
X149454Y433389D03*
D64*
X149004Y162292D03*
D56*
X149004Y174880D03*
D44*
X149004Y181849D03*
D48*
X149004Y309979D03*
D28*
X149004Y324366D03*
D97*
X149004Y350666D03*
D54*
X149004Y371122D03*
D57*
X149004Y432939D03*
D82*
X148554Y162292D03*
D41*
X148554Y178252D03*
D39*
X148554Y308406D03*
D24*
X148554Y324141D03*
D63*
X148554Y349992D03*
D70*
X148554Y370897D03*
D22*
X148554Y432714D03*
D93*
X148105Y147905D03*
D64*
X148105Y162292D03*
D96*
X148105Y177353D03*
D13*
X148105Y294019D03*
D48*
X148105Y307731D03*
D30*
X148105Y323691D03*
D13*
X148105Y349317D03*
D67*
X148105Y370448D03*
D11*
X148105Y432265D03*
D161*
X147655Y148130D03*
D82*
X147655Y162292D03*
D126*
X147655Y176903D03*
D46*
X147655Y293569D03*
D39*
X147655Y307057D03*
D18*
X147655Y323691D03*
D75*
X147655Y348193D03*
D70*
X147655Y369998D03*
D22*
X147655Y431815D03*
D88*
X147206Y148355D03*
D64*
X147206Y162292D03*
D60*
X147206Y176454D03*
D99*
X147206Y293345D03*
D28*
X147206Y305483D03*
D30*
X147206Y323691D03*
D61*
X147206Y347069D03*
D64*
X147206Y369548D03*
D11*
X147206Y431366D03*
D83*
X146756Y148580D03*
D82*
X146756Y162292D03*
D63*
X146756Y176004D03*
D162*
X146756Y293120D03*
D21*
X146756Y304584D03*
D24*
X146756Y323242D03*
D155*
X146756Y346620D03*
D82*
X146756Y368649D03*
D87*
X146756Y407313D03*
D22*
X146756Y430916D03*
D64*
X146307Y148805D03*
X146307Y162292D03*
D48*
X146307Y175105D03*
D101*
X146307Y292445D03*
D28*
X146307Y304135D03*
X146307Y323017D03*
D43*
X146307Y346170D03*
D67*
X146307Y368200D03*
D64*
X146307Y406414D03*
D20*
X146307Y430467D03*
D64*
X145857Y148805D03*
D54*
X145857Y162067D03*
D35*
X145857Y174431D03*
D163*
X145857Y294918D03*
D28*
X145857Y323017D03*
D134*
X145857Y345721D03*
D64*
X145857Y367750D03*
X145857Y406414D03*
D11*
X145857Y430017D03*
D55*
X145407Y149029D03*
X145407Y162067D03*
D33*
X145407Y173756D03*
D63*
X145407Y286151D03*
D69*
X145407Y300763D03*
D33*
X145407Y322567D03*
D109*
X145407Y345496D03*
D70*
X145407Y367301D03*
X145407Y405964D03*
D22*
X145407Y429567D03*
D89*
X144958Y149479D03*
D54*
X144958Y162067D03*
D26*
X144958Y173082D03*
D48*
X144958Y284353D03*
D13*
X144958Y300763D03*
D19*
X144958Y322567D03*
D68*
X144958Y340551D03*
D25*
X144958Y351340D03*
D57*
X144958Y366851D03*
D54*
X144958Y405740D03*
D11*
X144958Y429118D03*
D70*
X144508Y149704D03*
D29*
X144508Y162292D03*
D39*
X144508Y172632D03*
X144508Y283229D03*
D17*
X144508Y300538D03*
D12*
X144508Y322343D03*
D63*
X144508Y339651D03*
D21*
X144508Y351790D03*
D29*
X144508Y366401D03*
D31*
X144508Y405065D03*
D24*
X144508Y428443D03*
D86*
X144059Y149929D03*
D11*
X144059Y162067D03*
D35*
X144059Y171733D03*
D19*
X144059Y282555D03*
X144059Y300538D03*
D26*
X144059Y322343D03*
D129*
X144059Y338527D03*
D30*
X144059Y352015D03*
D56*
X144059Y365952D03*
D54*
X144059Y404840D03*
D30*
X144059Y427994D03*
D10*
X143609Y150153D03*
D22*
X143609Y162067D03*
D39*
X143609Y170834D03*
D63*
X143609Y281206D03*
D27*
X143609Y300313D03*
D77*
X143609Y322118D03*
D69*
X143609Y337628D03*
D53*
X143609Y352240D03*
D29*
X143609Y365502D03*
D84*
X143609Y404391D03*
D24*
X143609Y427544D03*
D86*
X143160Y150378D03*
D11*
X143160Y162067D03*
D48*
X143160Y169710D03*
D68*
X143160Y280307D03*
D30*
X143160Y300313D03*
D26*
X143160Y321893D03*
D107*
X143160Y336954D03*
D28*
X143160Y352689D03*
D23*
X143160Y365053D03*
D54*
X143160Y403941D03*
D11*
X143160Y426870D03*
D83*
X142710Y150378D03*
D24*
X142710Y161842D03*
D17*
X142710Y168811D03*
D164*
X142710Y278733D03*
D18*
X142710Y300313D03*
D33*
X142710Y321668D03*
D58*
X142710Y335830D03*
D24*
X142710Y352914D03*
D18*
X142710Y364603D03*
D31*
X142710Y403716D03*
D22*
X142710Y426420D03*
D67*
X142260Y150603D03*
D47*
X142260Y165214D03*
D44*
X142260Y277609D03*
D11*
X142260Y300088D03*
D26*
X142260Y321443D03*
D68*
X142260Y334256D03*
D28*
X142260Y353139D03*
X142260Y363929D03*
D57*
X142260Y403267D03*
D11*
X142260Y425971D03*
D86*
X141811Y150828D03*
D165*
X141811Y164765D03*
D13*
X141811Y276485D03*
D11*
X141811Y300088D03*
D32*
X141811Y321219D03*
D97*
X141811Y333132D03*
D30*
X141811Y353364D03*
D28*
X141811Y363030D03*
D56*
X141811Y402817D03*
D11*
X141811Y425521D03*
D83*
X141361Y150828D03*
D41*
X141361Y164315D03*
D58*
X141361Y275586D03*
D31*
X141361Y299864D03*
D12*
X141361Y320994D03*
D58*
X141361Y332233D03*
D24*
X141361Y353813D03*
D53*
X141361Y362580D03*
D29*
X141361Y402368D03*
D22*
X141361Y425072D03*
D86*
X140912Y150828D03*
D61*
X140912Y163641D03*
D44*
X140912Y274462D03*
D56*
X140912Y299864D03*
D19*
X140912Y320769D03*
D48*
X140912Y331109D03*
D23*
X140912Y353813D03*
D34*
X140912Y361456D03*
D54*
X140912Y402143D03*
D56*
X140912Y424397D03*
D82*
X140462Y151053D03*
D94*
X140462Y162966D03*
D42*
X140462Y273563D03*
D55*
X140462Y299639D03*
D27*
X140462Y320544D03*
D39*
X140462Y329985D03*
D18*
X140462Y354263D03*
D33*
X140462Y360782D03*
D55*
X140462Y401693D03*
D22*
X140462Y423723D03*
D64*
X140012Y151053D03*
D129*
X140012Y162742D03*
D68*
X140012Y272214D03*
D54*
X140012Y299639D03*
D26*
X140012Y320095D03*
D19*
X140012Y328861D03*
D45*
X140012Y357635D03*
D54*
X140012Y401244D03*
D11*
X140012Y423273D03*
D82*
X139563Y151053D03*
D75*
X139563Y162067D03*
D59*
X139563Y271090D03*
D55*
X139563Y299639D03*
D12*
X139563Y320095D03*
D21*
X139563Y327513D03*
D71*
X139563Y357410D03*
D55*
X139563Y400794D03*
D22*
X139563Y422824D03*
D64*
X139113Y151053D03*
D48*
X139113Y161618D03*
D86*
X139113Y261424D03*
D13*
X139113Y270191D03*
D67*
X139113Y299414D03*
D19*
X139113Y319870D03*
D34*
X139113Y326838D03*
D68*
X139113Y356735D03*
D76*
X139113Y400345D03*
D56*
X139113Y422149D03*
D64*
X138664Y151053D03*
D35*
X138664Y160943D03*
X138664Y260300D03*
D44*
X138664Y268618D03*
D67*
X138664Y299414D03*
D132*
X138664Y322792D03*
D44*
X138664Y356286D03*
D54*
X138664Y399895D03*
D57*
X138664Y421700D03*
D82*
X138214Y151053D03*
D39*
X138214Y160494D03*
D121*
X138214Y263448D03*
D84*
X138214Y299189D03*
D114*
X138214Y322343D03*
D12*
X138214Y355611D03*
D55*
X138214Y399445D03*
D31*
X138214Y421250D03*
D88*
X137765Y136216D03*
D64*
X137765Y151053D03*
D48*
X137765Y159819D03*
D150*
X137765Y261874D03*
D67*
X137765Y298964D03*
D47*
X137765Y321668D03*
D23*
X137765Y354712D03*
D54*
X137765Y398996D03*
D57*
X137765Y420801D03*
D66*
X137315Y136216D03*
D82*
X137315Y151053D03*
D33*
X137315Y158920D03*
D166*
X137315Y260975D03*
D70*
X137315Y298964D03*
D155*
X137315Y320994D03*
D18*
X137315Y354263D03*
D55*
X137315Y398546D03*
X137315Y420126D03*
D86*
X136865Y136441D03*
D64*
X136865Y151053D03*
D19*
X136865Y158021D03*
D62*
X136865Y259851D03*
D67*
X136865Y298964D03*
D96*
X136865Y320319D03*
D56*
X136865Y353813D03*
D54*
X136865Y398097D03*
D56*
X136865Y419452D03*
D82*
X136416Y136666D03*
D55*
X136416Y151277D03*
D39*
X136416Y157347D03*
D69*
X136416Y253557D03*
D63*
X136416Y264122D03*
D70*
X136416Y298964D03*
D94*
X136416Y319870D03*
D29*
X136416Y353364D03*
D31*
X136416Y397872D03*
X136416Y419002D03*
D64*
X135966Y136666D03*
D40*
X135966Y154649D03*
D60*
X135966Y251983D03*
D48*
X135966Y264122D03*
D54*
X135966Y298740D03*
D60*
X135966Y319420D03*
D56*
X135966Y352914D03*
D57*
X135966Y397422D03*
X135966Y418553D03*
D70*
X135517Y137116D03*
D38*
X135517Y154424D03*
D94*
X135517Y251084D03*
D33*
X135517Y264122D03*
D55*
X135517Y298740D03*
D126*
X135517Y318971D03*
D29*
X135517Y352464D03*
D85*
X135517Y396748D03*
D31*
X135517Y418103D03*
D67*
X135067Y137116D03*
D61*
X135067Y154200D03*
D60*
X135067Y250185D03*
D19*
X135067Y264122D03*
D67*
X135067Y298515D03*
D97*
X135067Y318746D03*
D56*
X135067Y352015D03*
D11*
X135067Y396298D03*
D57*
X135067Y417653D03*
D64*
X134617Y137565D03*
D68*
X134617Y153525D03*
D95*
X134617Y249061D03*
D26*
X134617Y263897D03*
D67*
X134617Y298515D03*
D68*
X134617Y318072D03*
D54*
X134617Y351790D03*
D11*
X134617Y395849D03*
X134617Y416979D03*
D83*
X134168Y137790D03*
D42*
X134168Y153076D03*
D126*
X134168Y247487D03*
D21*
X134168Y264122D03*
D55*
X134168Y298290D03*
D75*
X134168Y317622D03*
D31*
X134168Y351565D03*
D29*
X134168Y395174D03*
D18*
X134168Y416754D03*
D67*
X133718Y138015D03*
D35*
X133718Y152851D03*
D68*
X133718Y246588D03*
D28*
X133718Y264122D03*
D54*
X133718Y298290D03*
D35*
X133718Y316948D03*
D57*
X133718Y351116D03*
D56*
X133718Y394725D03*
D23*
X133718Y416305D03*
D91*
X133269Y138240D03*
D33*
X133269Y152176D03*
D63*
X133269Y245689D03*
D24*
X133269Y263897D03*
D55*
X133269Y298290D03*
D39*
X133269Y316498D03*
D55*
X133269Y350441D03*
D29*
X133269Y394275D03*
D22*
X133269Y415630D03*
D67*
X132819Y138464D03*
D19*
X132819Y151727D03*
D107*
X132819Y244790D03*
D23*
X132819Y263897D03*
D54*
X132819Y297840D03*
D48*
X132819Y316273D03*
D56*
X132819Y349767D03*
D11*
X132819Y393601D03*
X132819Y415181D03*
D83*
X132370Y138689D03*
D33*
X132370Y150828D03*
D39*
X132370Y243216D03*
D24*
X132370Y263897D03*
D55*
X132370Y297840D03*
D63*
X132370Y316273D03*
D29*
X132370Y349317D03*
D22*
X132370Y393151D03*
X132370Y414282D03*
D64*
X131920Y138914D03*
D26*
X131920Y150153D03*
D107*
X131920Y242092D03*
D23*
X131920Y263897D03*
D56*
X131920Y297616D03*
D96*
X131920Y316723D03*
D11*
X131920Y349093D03*
X131920Y392702D03*
D23*
X131920Y414057D03*
D55*
X131470Y139139D03*
D77*
X131470Y149479D03*
D33*
X131470Y240744D03*
D24*
X131470Y263897D03*
D31*
X131470Y297616D03*
D130*
X131470Y317172D03*
D22*
X131470Y348643D03*
X131470Y392252D03*
D18*
X131470Y413607D03*
D67*
X131021Y139363D03*
D32*
X131021Y148580D03*
D19*
X131021Y239845D03*
D23*
X131021Y263897D03*
D54*
X131021Y297391D03*
D30*
X131021Y313351D03*
D68*
X131021Y321219D03*
D57*
X131021Y347969D03*
D56*
X131021Y391578D03*
D23*
X131021Y413158D03*
D54*
X130571Y139588D03*
D34*
X130571Y147905D03*
D19*
X130571Y238945D03*
D11*
X130571Y263672D03*
D57*
X130571Y297166D03*
D23*
X130571Y312901D03*
D97*
X130571Y322343D03*
D56*
X130571Y347519D03*
D11*
X130571Y390903D03*
X130571Y412483D03*
D55*
X130122Y139588D03*
D12*
X130122Y147456D03*
D33*
X130122Y238046D03*
D18*
X130122Y263448D03*
D29*
X130122Y297166D03*
D21*
X130122Y312227D03*
D69*
X130122Y323691D03*
D29*
X130122Y347069D03*
D18*
X130122Y390229D03*
X130122Y411809D03*
D54*
X129672Y140038D03*
D34*
X129672Y147006D03*
D37*
X129672Y237372D03*
D30*
X129672Y263448D03*
D54*
X129672Y296941D03*
D28*
X129672Y311777D03*
D68*
X129672Y324366D03*
D11*
X129672Y346395D03*
X129672Y390004D03*
D30*
X129672Y411359D03*
D31*
X129223Y140263D03*
D21*
X129223Y146332D03*
D33*
X129223Y236698D03*
D18*
X129223Y263448D03*
D31*
X129223Y296716D03*
D21*
X129223Y311328D03*
D17*
X129223Y325265D03*
D31*
X129223Y345721D03*
D22*
X129223Y389555D03*
D24*
X129223Y410910D03*
D40*
X128773Y143410D03*
D26*
X128773Y236023D03*
D30*
X128773Y263448D03*
D56*
X128773Y296716D03*
D26*
X128773Y310653D03*
D35*
X128773Y326389D03*
D57*
X128773Y345271D03*
D11*
X128773Y389105D03*
D30*
X128773Y410460D03*
D78*
X128323Y142960D03*
D21*
X128323Y235349D03*
D22*
X128323Y263223D03*
D55*
X128323Y296492D03*
D24*
X128323Y309754D03*
D33*
X128323Y327513D03*
D22*
X128323Y344597D03*
D29*
X128323Y388880D03*
D21*
X128323Y409786D03*
D97*
X127874Y142511D03*
D28*
X127874Y234899D03*
D11*
X127874Y263223D03*
D54*
X127874Y296492D03*
D23*
X127874Y308855D03*
D35*
X127874Y329086D03*
D30*
X127874Y343922D03*
D86*
X127874Y388206D03*
D28*
X127874Y409336D03*
D97*
X127424Y142511D03*
D23*
X127424Y234225D03*
D56*
X127424Y262998D03*
D54*
X127424Y296042D03*
D30*
X127424Y308406D03*
D26*
X127424Y329985D03*
D28*
X127424Y343248D03*
D74*
X127424Y387756D03*
D25*
X127424Y408437D03*
D63*
X126975Y142286D03*
D18*
X126975Y233775D03*
D31*
X126975Y262998D03*
D55*
X126975Y296042D03*
D22*
X126975Y307731D03*
D12*
X126975Y330435D03*
D21*
X126975Y342798D03*
D158*
X126975Y387307D03*
D21*
X126975Y407988D03*
D44*
X126525Y141836D03*
D28*
X126525Y233101D03*
D56*
X126525Y262998D03*
D54*
X126525Y296042D03*
D30*
X126525Y307057D03*
D28*
X126525Y331109D03*
X126525Y342349D03*
D25*
X126525Y407538D03*
D17*
X126075Y141387D03*
D39*
X126075Y231977D03*
D22*
X126075Y262773D03*
D55*
X126075Y295593D03*
D18*
X126075Y306607D03*
D33*
X126075Y332008D03*
D12*
X126075Y341225D03*
D21*
X126075Y407088D03*
D35*
X125626Y141162D03*
D60*
X125626Y230403D03*
D11*
X125626Y262773D03*
D54*
X125626Y295593D03*
D28*
X125626Y305933D03*
D50*
X125626Y336954D03*
D28*
X125626Y406639D03*
D39*
X125176Y140712D03*
D41*
X125176Y229055D03*
D29*
X125176Y262548D03*
D55*
X125176Y295593D03*
D21*
X125176Y305034D03*
D130*
X125176Y336954D03*
D24*
X125176Y405964D03*
D48*
X124727Y140487D03*
D133*
X124727Y228380D03*
D57*
X124727Y262548D03*
D54*
X124727Y295593D03*
D23*
X124727Y303910D03*
D45*
X124727Y336954D03*
D30*
X124727Y405515D03*
D36*
X124277Y140263D03*
D73*
X124277Y227481D03*
D29*
X124277Y262548D03*
D31*
X124277Y295368D03*
D53*
X124277Y303235D03*
D78*
X124277Y336729D03*
D22*
X124277Y404840D03*
D35*
X123828Y139813D03*
D138*
X123828Y226807D03*
D57*
X123828Y262548D03*
D56*
X123828Y295368D03*
D26*
X123828Y302561D03*
D107*
X123828Y336055D03*
D11*
X123828Y404391D03*
D32*
X123378Y139139D03*
D141*
X123378Y226132D03*
D57*
X123378Y262548D03*
D11*
X123378Y295143D03*
D19*
X123378Y301887D03*
D13*
X123378Y335830D03*
D11*
X123378Y403941D03*
D39*
X122928Y138464D03*
D58*
X122928Y221187D03*
D27*
X122928Y230628D03*
D55*
X122928Y262324D03*
D130*
X122928Y298740D03*
D17*
X122928Y335156D03*
D22*
X122928Y403492D03*
D35*
X122479Y138015D03*
X122479Y219838D03*
D34*
X122479Y230628D03*
D56*
X122479Y262099D03*
D40*
X122479Y297616D03*
D26*
X122479Y334481D03*
D11*
X122479Y403042D03*
D39*
X122029Y137565D03*
D33*
X122029Y218714D03*
D21*
X122029Y230403D03*
D31*
X122029Y262099D03*
D71*
X122029Y297166D03*
D27*
X122029Y334032D03*
D22*
X122029Y402593D03*
D35*
X121580Y136666D03*
D32*
X121580Y217815D03*
D28*
X121580Y230403D03*
D56*
X121580Y262099D03*
D14*
X121580Y296492D03*
D19*
X121580Y333807D03*
D23*
X121580Y401918D03*
D36*
X121130Y136216D03*
D77*
X121130Y216916D03*
D24*
X121130Y230179D03*
D31*
X121130Y262099D03*
D75*
X121130Y296042D03*
D77*
X121130Y333357D03*
D18*
X121130Y401469D03*
D35*
X120681Y135767D03*
X120681Y215792D03*
D23*
X120681Y230179D03*
D54*
X120681Y261874D03*
D13*
X120681Y295368D03*
D35*
X120681Y333132D03*
D23*
X120681Y401019D03*
D42*
X120231Y135542D03*
D36*
X120231Y214893D03*
D22*
X120231Y229954D03*
D55*
X120231Y261874D03*
D17*
X120231Y294693D03*
D39*
X120231Y332683D03*
D18*
X120231Y400569D03*
D48*
X119781Y135092D03*
D19*
X119781Y214219D03*
D11*
X119781Y229954D03*
D54*
X119781Y261874D03*
D13*
X119781Y294019D03*
D35*
X119781Y332233D03*
D30*
X119781Y400120D03*
D44*
X119332Y134643D03*
D19*
X119332Y213319D03*
D11*
X119332Y229954D03*
D54*
X119332Y261874D03*
D129*
X119332Y293569D03*
D35*
X119332Y331784D03*
D23*
X119332Y399670D03*
D17*
X118882Y134193D03*
D39*
X118882Y212195D03*
D29*
X118882Y229729D03*
D31*
X118882Y261649D03*
D38*
X118882Y293345D03*
D36*
X118882Y331334D03*
D18*
X118882Y399221D03*
D44*
X118433Y133744D03*
D19*
X118433Y211521D03*
D57*
X118433Y229729D03*
D54*
X118433Y261424D03*
D47*
X118433Y292895D03*
D35*
X118433Y330885D03*
D23*
X118433Y398771D03*
D17*
X117983Y133294D03*
D33*
X117983Y211071D03*
D29*
X117983Y229729D03*
D55*
X117983Y261424D03*
D128*
X117983Y292895D03*
D39*
X117983Y330435D03*
D24*
X117983Y397872D03*
D48*
X117533Y133294D03*
D28*
X117533Y209723D03*
D11*
X117533Y229504D03*
D54*
X117533Y261424D03*
D167*
X117533Y292895D03*
D35*
X117533Y329985D03*
D30*
X117533Y397422D03*
D36*
X117084Y133069D03*
D12*
X117084Y209048D03*
D31*
X117084Y229279D03*
D55*
X117084Y261424D03*
D39*
X117084Y287275D03*
D33*
X117084Y298290D03*
D42*
X117084Y329761D03*
D18*
X117084Y396973D03*
D35*
X116634Y132620D03*
D19*
X116634Y208374D03*
D56*
X116634Y229279D03*
D54*
X116634Y261424D03*
D37*
X116634Y286376D03*
D19*
X116634Y299189D03*
D48*
X116634Y329311D03*
D11*
X116634Y396298D03*
D19*
X116185Y132395D03*
X116185Y207475D03*
D54*
X116185Y229055D03*
D64*
X116185Y261200D03*
D35*
X116185Y285477D03*
D19*
X116185Y300088D03*
D44*
X116185Y328861D03*
D11*
X116185Y395849D03*
D12*
X115735Y132170D03*
X115735Y206351D03*
D55*
X115735Y229055D03*
X115735Y260975D03*
D39*
X115735Y284578D03*
D12*
X115735Y300763D03*
D17*
X115735Y328412D03*
D18*
X115735Y395174D03*
D28*
X115286Y131945D03*
D32*
X115286Y205677D03*
D57*
X115286Y228830D03*
D54*
X115286Y260975D03*
D35*
X115286Y283679D03*
D34*
X115286Y301212D03*
D44*
X115286Y327962D03*
D23*
X115286Y394725D03*
D21*
X114836Y131496D03*
X114836Y204777D03*
D29*
X114836Y228830D03*
D55*
X114836Y260975D03*
D39*
X114836Y282779D03*
D12*
X114836Y301662D03*
D17*
X114836Y327513D03*
D18*
X114836Y394275D03*
D23*
X114386Y131271D03*
D28*
X114386Y203878D03*
D54*
X114386Y228605D03*
X114386Y260975D03*
D35*
X114386Y281431D03*
D28*
X114386Y302336D03*
D48*
X114386Y327063D03*
D23*
X114386Y393826D03*
D21*
X113937Y131046D03*
D33*
X113937Y202979D03*
D31*
X113937Y228380D03*
D55*
X113937Y260975D03*
D17*
X113937Y280307D03*
D21*
X113937Y302786D03*
D42*
X113937Y326614D03*
D18*
X113937Y393376D03*
D30*
X113487Y130821D03*
D19*
X113487Y202080D03*
D56*
X113487Y228380D03*
D67*
X113487Y260750D03*
D107*
X113487Y278958D03*
D25*
X113487Y303235D03*
D48*
X113487Y326164D03*
D11*
X113487Y392252D03*
D18*
X113038Y130372D03*
D33*
X113038Y201181D03*
D55*
X113038Y228156D03*
D70*
X113038Y260750D03*
D63*
X113038Y278059D03*
D21*
X113038Y303685D03*
D58*
X113038Y325490D03*
D22*
X113038Y391803D03*
D23*
X112588Y129922D03*
D19*
X112588Y200731D03*
D56*
X112588Y227931D03*
D67*
X112588Y260750D03*
D68*
X112588Y277160D03*
D28*
X112588Y304135D03*
D44*
X112588Y324815D03*
D11*
X112588Y391353D03*
D30*
X112138Y129473D03*
D19*
X112138Y199832D03*
D56*
X112138Y227931D03*
D54*
X112138Y260525D03*
D68*
X112138Y276261D03*
D28*
X112138Y304584D03*
D13*
X112138Y324141D03*
D30*
X112138Y391128D03*
D24*
X111689Y129023D03*
D12*
X111689Y198708D03*
D55*
X111689Y227706D03*
X111689Y260525D03*
D94*
X111689Y274912D03*
D21*
X111689Y305034D03*
D75*
X111689Y323466D03*
D24*
X111689Y390679D03*
D11*
X111239Y128798D03*
D26*
X111239Y197809D03*
D54*
X111239Y227706D03*
X111239Y260525D03*
D52*
X111239Y273338D03*
D28*
X111239Y305483D03*
D107*
X111239Y322567D03*
D23*
X111239Y389780D03*
D29*
X110790Y128574D03*
D21*
X110790Y197134D03*
D55*
X110790Y227256D03*
D82*
X110790Y260300D03*
D41*
X110790Y272214D03*
D21*
X110790Y305933D03*
D69*
X110790Y321893D03*
D18*
X110790Y389330D03*
D54*
X110340Y128349D03*
D23*
X110340Y196460D03*
D54*
X110340Y227256D03*
X110340Y260076D03*
D43*
X110340Y271540D03*
D30*
X110340Y306158D03*
D14*
X110340Y321219D03*
D11*
X110340Y388656D03*
D55*
X109891Y128349D03*
D24*
X109891Y195561D03*
D55*
X109891Y227256D03*
X109891Y260076D03*
D41*
X109891Y270866D03*
D53*
X109891Y306382D03*
D71*
X109891Y320544D03*
D22*
X109891Y388206D03*
D86*
X109441Y128349D03*
D25*
X109441Y194887D03*
D54*
X109441Y227256D03*
X109441Y260076D03*
D16*
X109441Y270191D03*
D28*
X109441Y306832D03*
D40*
X109441Y320095D03*
D11*
X109441Y387756D03*
D66*
X108991Y128124D03*
D17*
X108991Y193538D03*
D70*
X108991Y227032D03*
D55*
X108991Y260076D03*
D168*
X108991Y269067D03*
D18*
X108991Y307057D03*
D41*
X108991Y318971D03*
D22*
X108991Y387307D03*
D74*
X108542Y127899D03*
D45*
X108542Y191290D03*
D67*
X108542Y227032D03*
D56*
X108542Y259851D03*
D40*
X108542Y267943D03*
D26*
X108542Y307956D03*
D47*
X108542Y317622D03*
D56*
X108542Y386632D03*
D65*
X108092Y127899D03*
D47*
X108092Y190391D03*
D54*
X108092Y226807D03*
D169*
X108092Y265021D03*
D144*
X108092Y313576D03*
D57*
X108092Y386183D03*
D140*
X107643Y189492D03*
D82*
X107643Y226582D03*
D128*
X107643Y264571D03*
D79*
X107643Y313126D03*
D85*
X107643Y385509D03*
D108*
X107193Y189042D03*
D64*
X107193Y226582D03*
D134*
X107193Y263897D03*
D127*
X107193Y312901D03*
D57*
X107193Y384834D03*
D115*
X106744Y188368D03*
D55*
X106744Y226357D03*
D51*
X106744Y263448D03*
D128*
X106744Y312227D03*
D31*
X106744Y384385D03*
D48*
X106294Y183198D03*
D11*
X106294Y193538D03*
D67*
X106294Y226132D03*
D47*
X106294Y262773D03*
D99*
X106294Y311328D03*
D57*
X106294Y383935D03*
D39*
X105844Y181624D03*
D55*
X105844Y193538D03*
D70*
X105844Y226132D03*
D168*
X105844Y261874D03*
D46*
X105844Y309754D03*
D29*
X105844Y383036D03*
D34*
X105395Y180725D03*
D54*
X105395Y193538D03*
X105395Y225908D03*
D43*
X105395Y261200D03*
D52*
X105395Y309305D03*
D56*
X105395Y382586D03*
D32*
X104945Y180050D03*
D54*
X104945Y193538D03*
D64*
X104945Y225683D03*
D47*
X104945Y260525D03*
D13*
X104945Y307506D03*
D11*
X104945Y381912D03*
D12*
X104496Y178926D03*
D55*
X104496Y193538D03*
D82*
X104496Y225683D03*
D73*
X104496Y260300D03*
D12*
X104496Y306607D03*
D22*
X104496Y381462D03*
D26*
X104046Y178027D03*
D67*
X104046Y193313D03*
X104046Y225233D03*
D142*
X104046Y259851D03*
D26*
X104046Y306158D03*
D11*
X104046Y381013D03*
D12*
X103596Y177128D03*
D55*
X103596Y193088D03*
D70*
X103596Y225233D03*
D109*
X103596Y259626D03*
D21*
X103596Y305933D03*
D31*
X103596Y380338D03*
D28*
X103147Y176454D03*
D54*
X103147Y193088D03*
X103147Y225008D03*
D144*
X103147Y259626D03*
D28*
X103147Y305483D03*
D57*
X103147Y379889D03*
D18*
X102697Y175779D03*
D55*
X102697Y193088D03*
D70*
X102697Y224784D03*
D113*
X102697Y255130D03*
D12*
X102697Y266145D03*
D24*
X102697Y304809D03*
D22*
X102697Y379214D03*
D28*
X102248Y175105D03*
D57*
X102248Y192863D03*
D67*
X102248Y224784D03*
D61*
X102248Y254006D03*
D19*
X102248Y267269D03*
D30*
X102248Y304359D03*
D11*
X102248Y378765D03*
D21*
X101798Y174655D03*
D55*
X101798Y192639D03*
D70*
X101798Y224784D03*
D38*
X101798Y252882D03*
D33*
X101798Y268168D03*
D24*
X101798Y303910D03*
D22*
X101798Y377866D03*
D28*
X101349Y174206D03*
D54*
X101349Y192639D03*
D76*
X101349Y224559D03*
D52*
X101349Y252208D03*
D35*
X101349Y269292D03*
D25*
X101349Y303235D03*
D11*
X101349Y377416D03*
D30*
X100899Y173532D03*
D54*
X100899Y192639D03*
D76*
X100899Y224559D03*
D61*
X100899Y250859D03*
D48*
X100899Y269966D03*
D28*
X100899Y302786D03*
D11*
X100899Y376966D03*
D22*
X100449Y172857D03*
D55*
X100449Y192189D03*
D70*
X100449Y224334D03*
D126*
X100449Y249735D03*
D63*
X100449Y271315D03*
D21*
X100449Y302336D03*
D31*
X100449Y376292D03*
D11*
X100000Y172408D03*
D54*
X100000Y192189D03*
X100000Y224109D03*
D61*
X100000Y248611D03*
D68*
X100000Y272214D03*
D23*
X100000Y301662D03*
D11*
X100000Y375618D03*
D85*
X99550Y171958D03*
D29*
X99550Y191964D03*
D55*
X99550Y224109D03*
D126*
X99550Y247487D03*
D58*
X99550Y272889D03*
D21*
X99550Y300987D03*
D18*
X99550Y374943D03*
D57*
X99101Y171284D03*
D54*
X99101Y191740D03*
X99101Y224109D03*
D61*
X99101Y246813D03*
D107*
X99101Y273563D03*
D28*
X99101Y300538D03*
D30*
X99101Y374494D03*
D31*
X98651Y170834D03*
X98651Y191515D03*
D70*
X98651Y223884D03*
D113*
X98651Y246139D03*
D75*
X98651Y274462D03*
D21*
X98651Y300088D03*
D18*
X98651Y374044D03*
D57*
X98202Y170384D03*
D54*
X98202Y191290D03*
X98202Y223660D03*
D95*
X98202Y245015D03*
D68*
X98202Y274912D03*
D30*
X98202Y299414D03*
D11*
X98202Y373370D03*
D31*
X97752Y169935D03*
D55*
X97752Y191290D03*
X97752Y223660D03*
D126*
X97752Y243441D03*
D75*
X97752Y275811D03*
D18*
X97752Y298964D03*
X97752Y372695D03*
D57*
X97302Y169485D03*
X97302Y191065D03*
D54*
X97302Y223660D03*
D61*
X97302Y241418D03*
D107*
X97302Y276710D03*
D11*
X97302Y298290D03*
D23*
X97302Y372246D03*
D56*
X96853Y169036D03*
D76*
X96853Y190840D03*
D54*
X96853Y223210D03*
D61*
X96853Y240069D03*
D97*
X96853Y277385D03*
D28*
X96853Y296941D03*
D23*
X96853Y371347D03*
D29*
X96403Y168586D03*
D84*
X96403Y190840D03*
D55*
X96403Y223210D03*
D78*
X96403Y238721D03*
D63*
X96403Y278059D03*
D18*
X96403Y296267D03*
X96403Y370897D03*
D57*
X95954Y168137D03*
D67*
X95954Y190616D03*
X95954Y222985D03*
D61*
X95954Y237372D03*
D107*
X95954Y278508D03*
D30*
X95954Y295817D03*
D28*
X95954Y370223D03*
D31*
X95504Y167687D03*
D55*
X95504Y190391D03*
X95504Y222761D03*
D78*
X95504Y236023D03*
D58*
X95504Y279183D03*
D22*
X95504Y295143D03*
D21*
X95504Y369773D03*
D57*
X95054Y167237D03*
D54*
X95054Y190391D03*
D64*
X95054Y222536D03*
D159*
X95054Y234899D03*
D107*
X95054Y279857D03*
D11*
X95054Y294693D03*
D28*
X95054Y368874D03*
D31*
X94605Y166788D03*
D55*
X94605Y189941D03*
D82*
X94605Y222536D03*
D78*
X94605Y233326D03*
D58*
X94605Y280532D03*
D18*
X94605Y294019D03*
D21*
X94605Y367975D03*
D57*
X94155Y166338D03*
D54*
X94155Y189941D03*
D64*
X94155Y222536D03*
D97*
X94155Y231527D03*
D13*
X94155Y280981D03*
D28*
X94155Y292895D03*
D34*
X94155Y367750D03*
D57*
X93706Y166338D03*
D64*
X93706Y189716D03*
D67*
X93706Y222086D03*
D60*
X93706Y230403D03*
D13*
X93706Y281880D03*
D26*
X93706Y291771D03*
D25*
X93706Y366626D03*
D31*
X93256Y165889D03*
D55*
X93256Y189492D03*
X93256Y222311D03*
D75*
X93256Y229504D03*
D109*
X93256Y286601D03*
D21*
X93256Y365727D03*
D57*
X92807Y165439D03*
D67*
X92807Y189267D03*
D47*
X92807Y226357D03*
D138*
X92807Y286601D03*
D26*
X92807Y365053D03*
D31*
X92357Y164990D03*
D55*
X92357Y189042D03*
D38*
X92357Y225008D03*
D73*
X92357Y286826D03*
D27*
X92357Y364603D03*
D11*
X91907Y164765D03*
D64*
X91907Y188817D03*
D60*
X91907Y224559D03*
D45*
X91907Y286601D03*
D32*
X91907Y363929D03*
D22*
X91458Y164315D03*
D82*
X91458Y188817D03*
D126*
X91458Y224109D03*
D38*
X91458Y286151D03*
D18*
X91458Y362355D03*
D57*
X91008Y164090D03*
D86*
X91008Y188592D03*
D52*
X91008Y223435D03*
D97*
X91008Y285927D03*
D28*
X91008Y361681D03*
D31*
X90559Y163641D03*
D70*
X90559Y188368D03*
D130*
X90559Y222761D03*
D17*
X90559Y285252D03*
D12*
X90559Y361006D03*
D57*
X90109Y163191D03*
D67*
X90109Y188368D03*
D125*
X90109Y222536D03*
D32*
X90109Y284353D03*
D34*
X90109Y360557D03*
D11*
X89659Y162966D03*
D64*
X89659Y187918D03*
D116*
X89659Y222086D03*
D26*
X89659Y283679D03*
X89659Y359658D03*
D29*
X89210Y162292D03*
D55*
X89210Y187693D03*
D154*
X89210Y221637D03*
D21*
X89210Y283454D03*
D77*
X89210Y358983D03*
D54*
X88760Y162067D03*
D67*
X88760Y187469D03*
D52*
X88760Y215342D03*
D48*
X88760Y228156D03*
D28*
X88760Y283004D03*
D35*
X88760Y358309D03*
D31*
X88311Y161842D03*
D55*
X88311Y187244D03*
D46*
X88311Y213994D03*
D39*
X88311Y229279D03*
D21*
X88311Y282555D03*
D27*
X88311Y357410D03*
D57*
X87861Y161393D03*
D67*
X87861Y187019D03*
D40*
X87861Y211746D03*
D37*
X87861Y230179D03*
D30*
X87861Y281880D03*
D34*
X87861Y356511D03*
D29*
X87412Y161393D03*
D70*
X87412Y187019D03*
D41*
X87412Y210622D03*
D33*
X87412Y230853D03*
D24*
X87412Y281431D03*
D12*
X87412Y356061D03*
D56*
X86962Y160943D03*
D76*
X86962Y186794D03*
D45*
X86962Y208824D03*
D19*
X86962Y231752D03*
D30*
X86962Y280981D03*
D19*
X86962Y355387D03*
D31*
X86512Y160494D03*
D70*
X86512Y186569D03*
D41*
X86512Y206576D03*
D21*
X86512Y233101D03*
D18*
X86512Y280532D03*
D39*
X86512Y354712D03*
D54*
X86063Y160269D03*
X86063Y186345D03*
D52*
X86063Y205002D03*
D28*
X86063Y234000D03*
D11*
X86063Y279857D03*
D28*
X86063Y353588D03*
D57*
X85613Y160044D03*
D67*
X85613Y186120D03*
D96*
X85613Y203429D03*
D30*
X85613Y234674D03*
D11*
X85613Y279408D03*
D28*
X85613Y352689D03*
D31*
X85164Y159595D03*
D55*
X85164Y185895D03*
D94*
X85164Y202080D03*
D24*
X85164Y235124D03*
D22*
X85164Y278958D03*
D21*
X85164Y351790D03*
D56*
X84714Y159595D03*
D54*
X84714Y185895D03*
D97*
X84714Y200506D03*
D25*
X84714Y235798D03*
D11*
X84714Y278508D03*
D26*
X84714Y351116D03*
D29*
X84265Y159145D03*
D82*
X84265Y185670D03*
D75*
X84265Y198933D03*
D12*
X84265Y236473D03*
D22*
X84265Y278059D03*
D27*
X84265Y350216D03*
D57*
X83815Y159145D03*
D54*
X83815Y185445D03*
D68*
X83815Y197584D03*
D28*
X83815Y237147D03*
D23*
X83815Y277385D03*
D26*
X83815Y349767D03*
D31*
X83365Y158695D03*
D70*
X83365Y185221D03*
D75*
X83365Y195786D03*
D27*
X83365Y237821D03*
D18*
X83365Y276935D03*
D33*
X83365Y349093D03*
D56*
X82916Y158695D03*
D54*
X82916Y184996D03*
D13*
X82916Y195111D03*
D19*
X82916Y238945D03*
D30*
X82916Y276485D03*
D26*
X82916Y347969D03*
D57*
X82466Y158246D03*
D64*
X82466Y184771D03*
D44*
X82466Y193987D03*
D32*
X82466Y239395D03*
D11*
X82466Y275811D03*
D26*
X82466Y347519D03*
D31*
X82017Y157796D03*
D55*
X82017Y184546D03*
D75*
X82017Y193088D03*
D33*
X82017Y239845D03*
D24*
X82017Y275137D03*
D33*
X82017Y346845D03*
D56*
X81567Y157796D03*
D134*
X81567Y189267D03*
D35*
X81567Y240519D03*
D28*
X81567Y274462D03*
D19*
X81567Y345945D03*
D29*
X81117Y157347D03*
D114*
X81117Y188368D03*
D33*
X81117Y241193D03*
D12*
X81117Y273788D03*
D27*
X81117Y345271D03*
D76*
X80668Y157122D03*
D45*
X80668Y187693D03*
D48*
X80668Y242542D03*
D26*
X80668Y273338D03*
X80668Y344372D03*
D29*
X80218Y156897D03*
D15*
X80218Y187019D03*
D42*
X80218Y242992D03*
D33*
X80218Y272664D03*
D77*
X80218Y343698D03*
D54*
X79769Y156672D03*
D96*
X79769Y186345D03*
D13*
X79769Y243666D03*
D26*
X79769Y271990D03*
D34*
X79769Y343023D03*
D31*
X79319Y156447D03*
D71*
X79319Y185670D03*
D58*
X79319Y244116D03*
D33*
X79319Y271315D03*
D27*
X79319Y342124D03*
D57*
X78870Y155998D03*
D61*
X78870Y185221D03*
D13*
X78870Y244565D03*
D19*
X78870Y270416D03*
D28*
X78870Y341450D03*
D57*
X78420Y155998D03*
D61*
X78420Y184321D03*
D107*
X78420Y245240D03*
D35*
X78420Y269742D03*
D28*
X78420Y340551D03*
D31*
X77970Y155548D03*
D41*
X77970Y183647D03*
D75*
X77970Y246139D03*
D77*
X77970Y269067D03*
D53*
X77970Y340101D03*
D56*
X77521Y155548D03*
D47*
X77521Y183198D03*
D68*
X77521Y246588D03*
D26*
X77521Y267943D03*
X77521Y339427D03*
D29*
X77071Y155099D03*
D128*
X77071Y183198D03*
D63*
X77071Y247487D03*
D12*
X77071Y267044D03*
X77071Y338527D03*
D54*
X76622Y154874D03*
D101*
X76622Y183198D03*
D107*
X76622Y247937D03*
D19*
X76622Y266370D03*
X76622Y337853D03*
D31*
X76172Y154649D03*
D118*
X76172Y182973D03*
D63*
X76172Y248387D03*
D12*
X76172Y265695D03*
X76172Y336729D03*
D54*
X75723Y154424D03*
D147*
X75723Y182973D03*
D68*
X75723Y248836D03*
D35*
X75723Y264796D03*
D34*
X75723Y335830D03*
D29*
X75273Y154200D03*
D170*
X75273Y182298D03*
D58*
X75273Y249511D03*
D36*
X75273Y263897D03*
D27*
X75273Y334931D03*
D56*
X74823Y153750D03*
D129*
X74823Y173981D03*
D19*
X74823Y190840D03*
D13*
X74823Y250410D03*
D48*
X74823Y262773D03*
D30*
X74823Y334032D03*
D56*
X74374Y153750D03*
D61*
X74374Y172632D03*
D34*
X74374Y191964D03*
D35*
X74374Y251309D03*
D44*
X74374Y261424D03*
D30*
X74374Y333132D03*
D29*
X73924Y153300D03*
D78*
X73924Y171733D03*
D27*
X73924Y192863D03*
D39*
X73924Y252208D03*
D58*
X73924Y260300D03*
D21*
X73924Y332458D03*
D57*
X73475Y153300D03*
D97*
X73475Y170384D03*
D28*
X73475Y193538D03*
D134*
X73475Y256704D03*
D28*
X73475Y331559D03*
D84*
X73025Y153076D03*
D63*
X73025Y168811D03*
D21*
X73025Y194437D03*
D130*
X73025Y256479D03*
D21*
X73025Y330660D03*
D76*
X72575Y153076D03*
D61*
X72575Y166788D03*
D28*
X72575Y195336D03*
D47*
X72575Y256479D03*
D30*
X72575Y329985D03*
D70*
X72126Y152851D03*
D69*
X72126Y165889D03*
D21*
X72126Y195786D03*
D38*
X72126Y255580D03*
D21*
X72126Y329311D03*
D67*
X71676Y152851D03*
D68*
X71676Y164765D03*
D28*
X71676Y196685D03*
D60*
X71676Y255130D03*
D28*
X71676Y328412D03*
D67*
X71227Y152851D03*
D68*
X71227Y163866D03*
D23*
X71227Y197359D03*
D13*
X71227Y254456D03*
D28*
X71227Y327513D03*
D70*
X70777Y152851D03*
D63*
X70777Y162966D03*
D22*
X70777Y198034D03*
D39*
X70777Y254006D03*
D18*
X70777Y326838D03*
D89*
X70328Y152626D03*
D107*
X70328Y162067D03*
D11*
X70328Y198483D03*
D26*
X70328Y253557D03*
D30*
X70328Y325939D03*
D70*
X69878Y152851D03*
D69*
X69878Y160943D03*
D29*
X69878Y199158D03*
D24*
X69878Y252658D03*
D18*
X69878Y325490D03*
D67*
X69428Y152851D03*
D97*
X69428Y159595D03*
D11*
X69428Y199832D03*
D30*
X69428Y252208D03*
D23*
X69428Y325040D03*
D51*
X68979Y157347D03*
D22*
X68979Y200282D03*
D21*
X68979Y251534D03*
D24*
X68979Y324141D03*
D16*
X68529Y156897D03*
D57*
X68529Y200956D03*
D26*
X68529Y250859D03*
D11*
X68529Y323466D03*
D168*
X68080Y156672D03*
D31*
X68080Y201405D03*
D33*
X68080Y250185D03*
D22*
X68080Y322567D03*
D159*
X67630Y156223D03*
D57*
X67630Y202305D03*
D35*
X67630Y249511D03*
D30*
X67630Y321893D03*
D60*
X67180Y156223D03*
D56*
X67180Y202754D03*
D48*
X67180Y248836D03*
D28*
X67180Y321219D03*
D58*
X66731Y155548D03*
D31*
X66731Y203653D03*
D58*
X66731Y247712D03*
D27*
X66731Y320544D03*
D37*
X66281Y155548D03*
D11*
X66281Y204328D03*
D68*
X66281Y246588D03*
D28*
X66281Y319420D03*
D33*
X65832Y155324D03*
D22*
X65832Y205227D03*
D58*
X65832Y245464D03*
D53*
X65832Y318521D03*
D28*
X65382Y155324D03*
D20*
X65382Y205677D03*
D13*
X65382Y244565D03*
D30*
X65382Y317847D03*
D18*
X64933Y155099D03*
D29*
X64933Y206351D03*
D58*
X64933Y243666D03*
D18*
X64933Y317397D03*
D11*
X64483Y154874D03*
X64483Y207025D03*
D68*
X64483Y242542D03*
D30*
X64483Y316498D03*
D22*
X64033Y154424D03*
D24*
X64033Y207700D03*
D63*
X64033Y241193D03*
D18*
X64033Y315599D03*
D11*
X63584Y154424D03*
D23*
X63584Y208599D03*
D13*
X63584Y239170D03*
D28*
X63584Y314924D03*
D56*
X63134Y154649D03*
D25*
X63134Y209273D03*
D60*
X63134Y238046D03*
D30*
X63134Y314250D03*
D22*
X62685Y154874D03*
D24*
X62685Y209948D03*
D155*
X62685Y236473D03*
D18*
X62685Y313351D03*
D57*
X62235Y155099D03*
D30*
X62235Y210397D03*
D47*
X62235Y234450D03*
D23*
X62235Y312901D03*
D31*
X61786Y155548D03*
D18*
X61786Y211296D03*
D120*
X61786Y231752D03*
D24*
X61786Y312002D03*
D54*
X61336Y155773D03*
D30*
X61336Y212195D03*
D167*
X61336Y229504D03*
D23*
X61336Y311103D03*
D55*
X60886Y156223D03*
D18*
X60886Y213095D03*
D109*
X60886Y228156D03*
D18*
X60886Y310204D03*
D67*
X60437Y156447D03*
D30*
X60437Y213544D03*
D167*
X60437Y226807D03*
D28*
X60437Y309529D03*
D67*
X59987Y156897D03*
D80*
X59987Y222311D03*
D19*
X59987Y308630D03*
D70*
X59538Y157347D03*
D123*
X59538Y221861D03*
D12*
X59538Y307956D03*
D54*
X59088Y157571D03*
D104*
X59088Y221187D03*
D19*
X59088Y307282D03*
D70*
X58638Y157796D03*
D135*
X58638Y220737D03*
D12*
X58638Y306607D03*
D54*
X58189Y158021D03*
D45*
X58189Y219613D03*
D26*
X58189Y305708D03*
D55*
X57739Y158471D03*
D77*
X57739Y217815D03*
D33*
X57739Y304584D03*
D54*
X57290Y158920D03*
D30*
X57290Y217141D03*
D32*
X57290Y303685D03*
D82*
X56840Y159145D03*
D18*
X56840Y216691D03*
D33*
X56840Y303235D03*
D67*
X56391Y159595D03*
D30*
X56391Y216242D03*
D19*
X56391Y302336D03*
D64*
X55941Y160044D03*
D23*
X55941Y215792D03*
D37*
X55941Y301662D03*
D70*
X55491Y160494D03*
D18*
X55491Y215342D03*
D36*
X55491Y300763D03*
D54*
X55042Y160719D03*
D23*
X55042Y214893D03*
D19*
X55042Y300088D03*
D55*
X54592Y161168D03*
D27*
X54592Y214443D03*
D12*
X54592Y298964D03*
D64*
X54143Y161393D03*
D26*
X54143Y213994D03*
D34*
X54143Y298065D03*
D70*
X53693Y161842D03*
D12*
X53693Y213544D03*
D27*
X53693Y297166D03*
D54*
X53244Y162517D03*
D32*
X53244Y212870D03*
D26*
X53244Y296267D03*
D82*
X52794Y163191D03*
D27*
X52794Y212195D03*
D12*
X52794Y295368D03*
D67*
X52344Y163641D03*
D34*
X52344Y211296D03*
D35*
X52344Y294019D03*
D76*
X51895Y164315D03*
D19*
X51895Y210622D03*
X51895Y293345D03*
D55*
X51445Y164765D03*
D39*
X51445Y209948D03*
D77*
X51445Y292445D03*
D64*
X50996Y165439D03*
D13*
X50996Y208599D03*
D32*
X50996Y291546D03*
D70*
X50546Y165889D03*
D63*
X50546Y207924D03*
D27*
X50546Y290872D03*
D64*
X50096Y166338D03*
D107*
X50096Y207025D03*
D19*
X50096Y290198D03*
D70*
X49647Y166788D03*
D58*
X49647Y205901D03*
D33*
X49647Y289298D03*
D64*
X49197Y167237D03*
D97*
X49197Y204103D03*
D25*
X49197Y287950D03*
D67*
X48748Y167687D03*
D97*
X48748Y203204D03*
D26*
X48748Y287275D03*
D70*
X48298Y168586D03*
D94*
X48298Y202080D03*
D12*
X48298Y286376D03*
D54*
X47849Y169261D03*
D61*
X47849Y200956D03*
D28*
X47849Y285702D03*
D31*
X47399Y169935D03*
D78*
X47399Y198708D03*
D53*
X47399Y284803D03*
D11*
X46949Y170609D03*
D96*
X46949Y197134D03*
D25*
X46949Y283903D03*
D22*
X46500Y171059D03*
D15*
X46500Y196011D03*
D36*
X46500Y282330D03*
D54*
X46050Y172408D03*
D43*
X46050Y195111D03*
D35*
X46050Y281880D03*
D55*
X45601Y172857D03*
D114*
X45601Y194212D03*
D158*
X45601Y236698D03*
D77*
X45601Y281206D03*
D57*
X45151Y173532D03*
D167*
X45151Y191740D03*
D86*
X45151Y236698D03*
D28*
X45151Y279857D03*
D54*
X44701Y174206D03*
D171*
X44701Y189267D03*
D56*
X44701Y236473D03*
D26*
X44701Y279183D03*
D22*
X44252Y175555D03*
D166*
X44252Y187244D03*
D22*
X44252Y235798D03*
D33*
X44252Y278508D03*
D124*
X43802Y184097D03*
D23*
X43802Y235124D03*
D32*
X43802Y277160D03*
D118*
X43353Y183872D03*
D21*
X43353Y234450D03*
D77*
X43353Y276261D03*
D127*
X42903Y183422D03*
D26*
X42903Y233326D03*
D19*
X42903Y275361D03*
D46*
X42454Y182074D03*
D27*
X42454Y232876D03*
D33*
X42454Y274462D03*
D28*
X42004Y180500D03*
D26*
X42004Y231977D03*
D19*
X42004Y273563D03*
D12*
X41554Y231078D03*
D39*
X41554Y272439D03*
D19*
X41105Y229954D03*
X41105Y271315D03*
D32*
X40655Y229055D03*
D19*
X40655Y270416D03*
D12*
X40206Y228380D03*
D33*
X40206Y269517D03*
D19*
X39756Y227706D03*
D48*
X39756Y268168D03*
D39*
X39307Y226582D03*
X39307Y267494D03*
D107*
X38857Y225458D03*
D19*
X38857Y266819D03*
D39*
X38407Y223885D03*
D77*
X38407Y265920D03*
D13*
X37958Y222985D03*
D26*
X37958Y264796D03*
D97*
X37508Y222086D03*
D26*
X37508Y263897D03*
D63*
X37059Y220962D03*
D77*
X37059Y262773D03*
D97*
X36609Y219838D03*
D26*
X36609Y262099D03*
D58*
X36159Y218490D03*
D33*
X36159Y261424D03*
D107*
X35710Y217366D03*
D19*
X35710Y260525D03*
D58*
X35260Y216242D03*
D33*
X35260Y259177D03*
D68*
X34811Y214668D03*
D35*
X34811Y258502D03*
D69*
X34361Y213544D03*
D39*
X34361Y257603D03*
D60*
X33912Y212420D03*
D19*
X33912Y256929D03*
D60*
X33462Y211071D03*
D48*
X33462Y255580D03*
D113*
X33012Y209273D03*
D42*
X33012Y254231D03*
D40*
X32563Y207700D03*
D35*
X32563Y253107D03*
D15*
X32113Y206351D03*
D39*
X32113Y252208D03*
D43*
X31664Y205002D03*
D35*
X31664Y251309D03*
D114*
X31214Y203653D03*
D42*
X31214Y250185D03*
D142*
X30765Y201405D03*
D68*
X30765Y248836D03*
D115*
X30315Y200057D03*
D58*
X30315Y247712D03*
D72*
X29865Y198258D03*
D13*
X29865Y246813D03*
D99*
X29416Y197134D03*
D107*
X29416Y245240D03*
D130*
X28966Y196235D03*
D75*
X28966Y243891D03*
D45*
X28517Y195786D03*
D13*
X28517Y242767D03*
D69*
X28067Y194662D03*
D58*
X28067Y241868D03*
D92*
X27617Y192863D03*
D13*
X27617Y240969D03*
D39*
X27168Y239620D03*
D35*
X26718Y238271D03*
D37*
X26269Y237372D03*
D17*
X25819Y236248D03*
D44*
X25370Y234899D03*
D63*
X24920Y233101D03*
D13*
X24470Y232427D03*
D17*
X24021Y231303D03*
D48*
X23571Y229954D03*
D58*
X23122Y228830D03*
D13*
X22672Y227931D03*
X22222Y226582D03*
D58*
X21773Y225233D03*
D44*
X21323Y223660D03*
D17*
X20874Y222761D03*
D44*
X20424Y221412D03*
D42*
X19975Y220513D03*
D44*
X19525Y219613D03*
D39*
X19075Y218040D03*
D48*
X18626Y216916D03*
D13*
X18176Y215342D03*
D75*
X17727Y214219D03*
D68*
X17277Y212870D03*
D126*
X16828Y211971D03*
D61*
X16378Y210847D03*
D94*
X15928Y209273D03*
D107*
X15479Y207025D03*
D68*
X15029Y205677D03*
D75*
X14580Y204328D03*
D96*
X14130Y202979D03*
D38*
X13680Y200731D03*
D61*
X13231Y199158D03*
D78*
X12781Y198258D03*
D95*
X12332Y196910D03*
D15*
X11882Y194662D03*
D96*
X11433Y193088D03*
D61*
X10983Y191515D03*
D38*
X10533Y189492D03*
D52*
X10084Y187918D03*
D46*
X9634Y186120D03*
D47*
X9185Y184097D03*
D140*
X8735Y181849D03*
D138*
X8286Y179601D03*
D10*
X7836Y129473D03*
D79*
X7836Y176004D03*
D28*
X7386Y131046D03*
D144*
X7386Y173756D03*
D16*
X6937Y133968D03*
D157*
X6937Y171059D03*
D115*
X6487Y135767D03*
D172*
X6487Y167687D03*
D173*
X6038Y152626D03*
D174*
X5588Y151727D03*
D175*
X5138Y148130D03*
D176*
X4689Y148580D03*
D177*
X4239Y148355D03*
D96*
X3790Y146332D03*
M02*
