G04 EAGLE Gerber X2 export*
G75*
%MOMM*%
%FSLAX34Y34*%
%LPD*%
%AMOC8*
5,1,8,0,0,1.08239X$1,22.5*%
G01*
%ADD10R,1.212597X0.039119*%
%ADD11R,2.425191X0.039116*%
%ADD12R,3.324859X0.039116*%
%ADD13R,3.833369X0.039116*%
%ADD14R,4.263644X0.039116*%
%ADD15R,4.733038X0.039116*%
%ADD16R,5.319778X0.039116*%
%ADD17R,1.095247X0.039116*%
%ADD18R,1.564641X0.039116*%
%ADD19R,0.899669X0.039119*%
%ADD20R,1.329944X0.039119*%
%ADD21R,0.899669X0.039116*%
%ADD22R,1.290828X0.039116*%
%ADD23R,0.938784X0.039116*%
%ADD24R,1.329944X0.039116*%
%ADD25R,0.977900X0.039116*%
%ADD26R,1.447291X0.039116*%
%ADD27R,0.782319X0.039116*%
%ADD28R,1.369059X0.039116*%
%ADD29R,0.704088X0.039116*%
%ADD30R,1.212597X0.039116*%
%ADD31R,0.664972X0.039116*%
%ADD32R,1.056131X0.039116*%
%ADD33R,0.625856X0.039116*%
%ADD34R,1.017016X0.039116*%
%ADD35R,1.173481X0.039116*%
%ADD36R,0.625856X0.039119*%
%ADD37R,1.290828X0.039119*%
%ADD38R,0.586741X0.039116*%
%ADD39R,0.586738X0.039116*%
%ADD40R,1.251713X0.039116*%
%ADD41R,0.508506X0.039116*%
%ADD42R,0.430278X0.039116*%
%ADD43R,1.212594X0.039116*%
%ADD44R,0.430275X0.039116*%
%ADD45R,0.391159X0.039116*%
%ADD46R,0.352044X0.039119*%
%ADD47R,1.251713X0.039119*%
%ADD48R,0.352044X0.039116*%
%ADD49R,0.117350X0.039116*%
%ADD50R,0.312928X0.039116*%
%ADD51R,1.134366X0.039116*%
%ADD52R,0.273813X0.039116*%
%ADD53R,0.234697X0.039116*%
%ADD54R,1.173478X0.039116*%
%ADD55R,0.156466X0.039116*%
%ADD56R,1.134363X0.039116*%
%ADD57R,1.134366X0.039119*%
%ADD58R,0.860553X0.039116*%
%ADD59R,0.586741X0.039119*%
%ADD60R,0.547622X0.039116*%
%ADD61R,0.547625X0.039116*%
%ADD62R,0.547625X0.039119*%
%ADD63R,0.625853X0.039116*%
%ADD64R,0.508509X0.039119*%
%ADD65R,0.743206X0.039116*%
%ADD66R,1.681988X0.039116*%
%ADD67R,1.994916X0.039116*%
%ADD68R,0.469394X0.039116*%
%ADD69R,2.268728X0.039116*%
%ADD70R,2.503425X0.039116*%
%ADD71R,0.469391X0.039116*%
%ADD72R,2.738119X0.039119*%
%ADD73R,0.469394X0.039119*%
%ADD74R,2.933700X0.039116*%
%ADD75R,0.899666X0.039116*%
%ADD76R,0.782322X0.039116*%
%ADD77R,1.095250X0.039116*%
%ADD78R,1.017016X0.039119*%
%ADD79R,0.469391X0.039119*%
%ADD80R,0.508509X0.039116*%
%ADD81R,1.017019X0.039116*%
%ADD82R,1.525522X0.039116*%
%ADD83R,0.704088X0.039119*%
%ADD84R,1.721103X0.039119*%
%ADD85R,0.547622X0.039119*%
%ADD86R,0.664975X0.039116*%
%ADD87R,1.916684X0.039116*%
%ADD88R,2.151378X0.039116*%
%ADD89R,2.346959X0.039116*%
%ADD90R,0.273809X0.039116*%
%ADD91R,1.486406X0.039116*%
%ADD92R,0.234694X0.039116*%
%ADD93R,0.273813X0.039119*%
%ADD94R,0.391163X0.039116*%
%ADD95R,0.821438X0.039116*%
%ADD96R,0.821434X0.039116*%
%ADD97R,0.782319X0.039119*%
%ADD98R,0.743203X0.039116*%
%ADD99R,0.352047X0.039116*%
%ADD100R,1.408178X0.039116*%
%ADD101R,0.312928X0.039119*%
%ADD102R,0.391159X0.039119*%
%ADD103R,1.564641X0.039119*%
%ADD104R,1.721106X0.039116*%
%ADD105R,1.838453X0.039116*%
%ADD106R,0.743203X0.039119*%
%ADD107R,0.430275X0.039119*%
%ADD108R,0.664975X0.039119*%
%ADD109R,2.855469X0.039116*%
%ADD110R,3.950716X0.039116*%
%ADD111R,3.989831X0.039116*%
%ADD112R,4.107181X0.039116*%
%ADD113R,4.341875X0.039116*%
%ADD114R,0.860550X0.039116*%
%ADD115R,4.459225X0.039119*%
%ADD116R,0.938784X0.039119*%
%ADD117R,4.576572X0.039116*%
%ADD118R,4.654803X0.039116*%
%ADD119R,2.777238X0.039116*%
%ADD120R,2.581656X0.039116*%
%ADD121R,1.838450X0.039116*%
%ADD122R,1.877569X0.039116*%
%ADD123R,1.603756X0.039116*%
%ADD124R,2.151381X0.039116*%
%ADD125R,2.386078X0.039116*%
%ADD126R,1.642872X0.039119*%
%ADD127R,1.877569X0.039119*%
%ADD128R,1.369059X0.039119*%
%ADD129R,1.721103X0.039116*%
%ADD130R,1.369063X0.039116*%
%ADD131R,1.955800X0.039116*%
%ADD132R,2.542541X0.039116*%
%ADD133R,1.447294X0.039116*%
%ADD134R,1.408175X0.039116*%
%ADD135R,2.307844X0.039119*%
%ADD136R,1.056131X0.039119*%
%ADD137R,1.447294X0.039119*%
%ADD138R,2.229612X0.039116*%
%ADD139R,1.486409X0.039116*%
%ADD140R,2.190497X0.039116*%
%ADD141R,1.799334X0.039116*%
%ADD142R,1.642872X0.039116*%
%ADD143R,1.799338X0.039116*%
%ADD144R,0.664972X0.039119*%
%ADD145R,1.564638X0.039116*%
%ADD146R,1.760222X0.039116*%
%ADD147R,1.329947X0.039116*%
%ADD148R,1.251709X0.039116*%
%ADD149R,0.821438X0.039119*%
%ADD150R,0.391163X0.039119*%
%ADD151R,1.681988X0.039119*%
%ADD152R,1.056134X0.039116*%
%ADD153R,1.525525X0.039116*%
%ADD154R,0.430278X0.039119*%
%ADD155R,1.877566X0.039119*%
%ADD156R,2.073147X0.039116*%
%ADD157R,0.704091X0.039116*%
%ADD158R,1.877566X0.039116*%
%ADD159R,0.743206X0.039119*%
%ADD160R,0.352047X0.039119*%
%ADD161R,2.229612X0.039119*%
%ADD162R,2.464309X0.039116*%
%ADD163R,2.699003X0.039116*%
%ADD164R,2.972819X0.039116*%
%ADD165R,2.972816X0.039116*%
%ADD166R,0.782322X0.039119*%
%ADD167R,0.860553X0.039119*%
%ADD168R,2.972816X0.039119*%
%ADD169R,0.312925X0.039116*%
%ADD170R,3.324863X0.039116*%
%ADD171R,0.039116X0.039116*%
%ADD172R,2.620772X0.039116*%
%ADD173R,2.659887X0.039116*%
%ADD174R,2.112262X0.039116*%
%ADD175R,2.699006X0.039116*%
%ADD176R,0.195581X0.039119*%
%ADD177R,2.112266X0.039119*%
%ADD178R,1.095250X0.039119*%
%ADD179R,1.173478X0.039119*%
%ADD180R,0.586738X0.039119*%
%ADD181R,1.056134X0.039119*%
%ADD182R,0.938781X0.039116*%
%ADD183R,0.508506X0.039119*%
%ADD184R,0.821434X0.039119*%
%ADD185R,2.034031X0.039116*%
%ADD186R,2.190494X0.039116*%
%ADD187R,1.095247X0.039119*%
%ADD188R,1.486406X0.039119*%
%ADD189R,0.195581X0.039116*%
%ADD190R,1.760219X0.039119*%
%ADD191R,2.894584X0.039116*%
%ADD192R,3.090163X0.039116*%
%ADD193R,2.112266X0.039116*%
%ADD194R,1.134363X0.039119*%
%ADD195R,0.234697X0.039119*%
%ADD196R,0.195578X0.039116*%
%ADD197R,1.994916X0.039119*%
%ADD198R,1.525525X0.039119*%
%ADD199R,0.078231X0.039116*%
%ADD200R,0.156463X0.039116*%
%ADD201R,2.738119X0.039116*%
%ADD202R,3.442209X0.039116*%
%ADD203R,0.860550X0.039119*%
%ADD204R,4.967731X0.039119*%
%ADD205R,5.828284X0.039116*%
%ADD206R,2.386075X0.039116*%
%ADD207R,3.403091X0.039116*%
%ADD208R,1.251709X0.039119*%
%ADD209R,1.916681X0.039116*%
%ADD210R,2.073150X0.039116*%
%ADD211R,3.598672X0.039116*%
%ADD212R,7.940547X0.039119*%
%ADD213R,7.862316X0.039116*%
%ADD214R,6.493256X0.039116*%
%ADD215R,5.241544X0.039116*%
%ADD216R,0.078231X0.039119*%
%ADD217R,0.039116X0.039119*%
%ADD218R,0.234694X0.039119*%
%ADD219R,1.212594X0.039119*%
%ADD220R,0.273809X0.039119*%
%ADD221R,0.195578X0.039119*%
%ADD222R,0.117347X0.039116*%
%ADD223R,0.312925X0.039119*%
%ADD224R,0.977900X0.039119*%
%ADD225R,2.112262X0.039119*%
%ADD226R,0.078234X0.039116*%
%ADD227R,2.190497X0.039119*%
%ADD228R,2.307844X0.039116*%
%ADD229R,4.537456X0.039116*%
%ADD230R,4.107178X0.039116*%
%ADD231R,3.481322X0.039116*%
%ADD232R,0.899666X0.039119*%
%ADD233R,0.156466X0.039119*%
%ADD234R,1.681991X0.039116*%
%ADD235R,0.117347X0.039119*%
%ADD236R,1.408175X0.039119*%
%ADD237R,1.760219X0.039116*%
%ADD238R,1.447291X0.039119*%
%ADD239R,1.642875X0.039116*%


D10*
X156154Y12700D03*
D11*
X157132Y13091D03*
D12*
X155763Y13482D03*
D13*
X155959Y13873D03*
D14*
X156545Y14265D03*
D15*
X157328Y14656D03*
D16*
X157132Y15047D03*
D17*
X134836Y15438D03*
D18*
X178646Y15438D03*
D19*
X132685Y15829D03*
D20*
X182557Y15829D03*
D21*
X131120Y16220D03*
D22*
X185100Y16220D03*
D23*
X129751Y16612D03*
D24*
X188034Y16612D03*
D25*
X127991Y17003D03*
D26*
X191359Y17003D03*
D27*
X126622Y17394D03*
D28*
X193705Y17394D03*
D29*
X125448Y17785D03*
D30*
X196444Y17785D03*
D31*
X124470Y18176D03*
D32*
X199573Y18176D03*
D33*
X123883Y18567D03*
D34*
X202115Y18567D03*
D33*
X123101Y18959D03*
D35*
X204071Y18959D03*
D36*
X122319Y19350D03*
D37*
X205831Y19350D03*
D38*
X121732Y19741D03*
D24*
X207983Y19741D03*
D39*
X120950Y20132D03*
D40*
X210721Y20132D03*
D41*
X120167Y20523D03*
D30*
X213263Y20523D03*
D42*
X118994Y20914D03*
D43*
X215610Y20914D03*
D44*
X118603Y21306D03*
D22*
X217957Y21306D03*
D44*
X118212Y21697D03*
D28*
X219913Y21697D03*
D45*
X117234Y22088D03*
D22*
X221478Y22088D03*
D46*
X116647Y22479D03*
D47*
X222456Y22479D03*
D48*
X116256Y22870D03*
D49*
X218349Y22870D03*
D17*
X224803Y22870D03*
D50*
X116060Y23261D03*
D51*
X226563Y23261D03*
D50*
X115669Y23652D03*
D43*
X228128Y23652D03*
D52*
X115473Y24044D03*
D30*
X229692Y24044D03*
D53*
X115278Y24435D03*
D54*
X231061Y24435D03*
D55*
X114887Y24826D03*
D54*
X232235Y24826D03*
D56*
X234386Y25217D03*
D57*
X236733Y25608D03*
D17*
X238493Y25999D03*
D25*
X240254Y26391D03*
D58*
X241623Y26782D03*
D27*
X243187Y27173D03*
D29*
X244361Y27564D03*
X245534Y27955D03*
X247490Y28346D03*
D33*
X248663Y28738D03*
D59*
X250033Y29129D03*
D60*
X251010Y29520D03*
D61*
X251793Y29911D03*
D38*
X253162Y30302D03*
D31*
X254726Y30693D03*
X255900Y31085D03*
D38*
X257073Y31476D03*
D60*
X258051Y31867D03*
D62*
X259225Y32258D03*
D33*
X260398Y32649D03*
D31*
X261767Y33040D03*
D33*
X263136Y33431D03*
D63*
X264310Y33823D03*
D38*
X265288Y34214D03*
D61*
X266266Y34605D03*
D60*
X267439Y34996D03*
D64*
X268808Y35387D03*
D61*
X269786Y35778D03*
D33*
X271351Y36170D03*
D65*
X173365Y36561D03*
D33*
X272524Y36561D03*
D40*
X173952Y36952D03*
D38*
X273502Y36952D03*
D66*
X174147Y37343D03*
D60*
X274480Y37343D03*
D67*
X174539Y37734D03*
D68*
X275262Y37734D03*
D69*
X174734Y38125D03*
D41*
X276631Y38125D03*
D70*
X175125Y38517D03*
D71*
X277609Y38517D03*
D72*
X175517Y38908D03*
D73*
X278392Y38908D03*
D74*
X175712Y39299D03*
D61*
X279565Y39299D03*
D75*
X164760Y39690D03*
D54*
X185687Y39690D03*
D60*
X280347Y39690D03*
D23*
X164173Y40081D03*
D25*
X187838Y40081D03*
D61*
X281521Y40081D03*
D34*
X163782Y40472D03*
D25*
X189012Y40472D03*
D68*
X282694Y40472D03*
D32*
X163195Y40864D03*
D25*
X189794Y40864D03*
D41*
X283672Y40864D03*
D56*
X162804Y41255D03*
D76*
X191945Y41255D03*
D71*
X284650Y41255D03*
D77*
X161826Y41646D03*
D65*
X192923Y41646D03*
D68*
X285433Y41646D03*
D78*
X160652Y42037D03*
D36*
X193901Y42037D03*
D79*
X286606Y42037D03*
D34*
X159870Y42428D03*
D38*
X195270Y42428D03*
D71*
X287388Y42428D03*
D25*
X159283Y42819D03*
D41*
X196052Y42819D03*
D80*
X288366Y42819D03*
D25*
X158892Y43210D03*
D44*
X196835Y43210D03*
D80*
X289540Y43210D03*
D81*
X158306Y43602D03*
D48*
X197226Y43602D03*
D41*
X290322Y43602D03*
D32*
X157719Y43993D03*
D48*
X197617Y43993D03*
D80*
X291104Y43993D03*
D23*
X156350Y44384D03*
D54*
X202115Y44384D03*
D61*
X291691Y44384D03*
D27*
X155176Y44775D03*
D82*
X204267Y44775D03*
D61*
X292865Y44775D03*
D83*
X154003Y45166D03*
D84*
X205245Y45166D03*
D85*
X293647Y45166D03*
D86*
X153416Y45557D03*
D87*
X206223Y45557D03*
D38*
X294625Y45557D03*
D33*
X152829Y45949D03*
D88*
X207005Y45949D03*
D61*
X295603Y45949D03*
X152047Y46340D03*
D89*
X207983Y46340D03*
D41*
X296189Y46340D03*
D80*
X151069Y46731D03*
D90*
X197226Y46731D03*
D91*
X213850Y46731D03*
D41*
X296972Y46731D03*
X150678Y47122D03*
D92*
X197030Y47122D03*
D35*
X216588Y47122D03*
D80*
X298145Y47122D03*
D71*
X150091Y47513D03*
D52*
X196835Y47513D03*
D56*
X217957Y47513D03*
D61*
X299514Y47513D03*
D41*
X149504Y47904D03*
D52*
X196444Y47904D03*
D17*
X218935Y47904D03*
D60*
X300297Y47904D03*
D68*
X148918Y48296D03*
D52*
X196052Y48296D03*
D81*
X220109Y48296D03*
D61*
X301079Y48296D03*
D73*
X148527Y48687D03*
D93*
X195661Y48687D03*
D78*
X220891Y48687D03*
D62*
X301861Y48687D03*
D71*
X147744Y49078D03*
D52*
X195270Y49078D03*
D34*
X221673Y49078D03*
D38*
X302839Y49078D03*
D44*
X147157Y49469D03*
D50*
X194683Y49469D03*
D25*
X222651Y49469D03*
D39*
X303621Y49469D03*
D45*
X146571Y49860D03*
D50*
X194292Y49860D03*
D25*
X223434Y49860D03*
D38*
X304404Y49860D03*
D45*
X146180Y50251D03*
D48*
X193705Y50251D03*
D25*
X224216Y50251D03*
D80*
X305186Y50251D03*
D94*
X145397Y50643D03*
D48*
X193314Y50643D03*
D23*
X224803Y50643D03*
D39*
X306360Y50643D03*
D94*
X145006Y51034D03*
D48*
X192532Y51034D03*
D95*
X225781Y51034D03*
D33*
X307337Y51034D03*
D48*
X144419Y51425D03*
X192141Y51425D03*
D96*
X226172Y51425D03*
D29*
X308120Y51425D03*
D46*
X144028Y51816D03*
X191359Y51816D03*
D97*
X226759Y51816D03*
D83*
X308902Y51816D03*
D45*
X143441Y52207D03*
D50*
X190772Y52207D03*
D27*
X227150Y52207D03*
D65*
X309489Y52207D03*
D45*
X143050Y52598D03*
D50*
X189989Y52598D03*
D63*
X228323Y52598D03*
D65*
X310271Y52598D03*
D48*
X142464Y52989D03*
X189403Y52989D03*
D61*
X229105Y52989D03*
D98*
X311053Y52989D03*
D99*
X142072Y53381D03*
D48*
X189012Y53381D03*
D61*
X229497Y53381D03*
D98*
X311836Y53381D03*
D48*
X141681Y53772D03*
X188229Y53772D03*
D29*
X230670Y53772D03*
D27*
X312423Y53772D03*
D48*
X141290Y54163D03*
X187447Y54163D03*
D77*
X233017Y54163D03*
D95*
X313009Y54163D03*
D50*
X141094Y54554D03*
D48*
X186665Y54554D03*
D100*
X234582Y54554D03*
D76*
X313596Y54554D03*
D101*
X140703Y54945D03*
D102*
X185687Y54945D03*
D103*
X235364Y54945D03*
D97*
X314378Y54945D03*
D50*
X140703Y55336D03*
D44*
X185100Y55336D03*
D104*
X236146Y55336D03*
D98*
X314965Y55336D03*
D52*
X140508Y55728D03*
D42*
X184318Y55728D03*
D105*
X236733Y55728D03*
D27*
X315552Y55728D03*
D50*
X140312Y56119D03*
D42*
X183926Y56119D03*
D48*
X228910Y56119D03*
D18*
X239276Y56119D03*
D65*
X316139Y56119D03*
D52*
X140117Y56510D03*
D44*
X183535Y56510D03*
D48*
X228128Y56510D03*
D23*
X243578Y56510D03*
D65*
X316530Y56510D03*
D52*
X140117Y56901D03*
D48*
X182362Y56901D03*
X227736Y56901D03*
D58*
X245143Y56901D03*
D98*
X317312Y56901D03*
D50*
X140312Y57292D03*
D42*
X181188Y57292D03*
D45*
X227150Y57292D03*
D98*
X246512Y57292D03*
X317703Y57292D03*
D45*
X140703Y57683D03*
D80*
X180406Y57683D03*
D94*
X226759Y57683D03*
D31*
X247686Y57683D03*
D29*
X318290Y57683D03*
D61*
X141486Y58075D03*
D71*
X179428Y58075D03*
D44*
X226172Y58075D03*
D31*
X248859Y58075D03*
D29*
X319072Y58075D03*
D106*
X142464Y58466D03*
D107*
X178450Y58466D03*
D102*
X225585Y58466D03*
D36*
X249837Y58466D03*
D108*
X319659Y58466D03*
D17*
X144224Y58857D03*
D42*
X177668Y58857D03*
D44*
X224998Y58857D03*
D33*
X250619Y58857D03*
D31*
X320050Y58857D03*
D24*
X145397Y59248D03*
D44*
X176886Y59248D03*
X224216Y59248D03*
D31*
X251597Y59248D03*
D33*
X320637Y59248D03*
D109*
X153025Y59639D03*
D29*
X175125Y59639D03*
D42*
X223825Y59639D03*
D38*
X252771Y59639D03*
D33*
X321028Y59639D03*
D110*
X158501Y60030D03*
D94*
X223238Y60030D03*
D38*
X253553Y60030D03*
D29*
X321810Y60030D03*
D111*
X158697Y60422D03*
D44*
X222651Y60422D03*
D41*
X254335Y60422D03*
D76*
X322984Y60422D03*
D112*
X159283Y60813D03*
D44*
X222260Y60813D03*
D71*
X254922Y60813D03*
D58*
X323766Y60813D03*
D113*
X160457Y61204D03*
D44*
X221869Y61204D03*
X255509Y61204D03*
D114*
X324549Y61204D03*
D115*
X161044Y61595D03*
D107*
X221478Y61595D03*
D73*
X256096Y61595D03*
D116*
X325331Y61595D03*
D117*
X161630Y61986D03*
D68*
X220500Y61986D03*
D80*
X256682Y61986D03*
D25*
X325918Y61986D03*
D118*
X162022Y62377D03*
D68*
X219718Y62377D03*
D29*
X258051Y62377D03*
D34*
X326895Y62377D03*
D98*
X142464Y62768D03*
D119*
X172583Y62768D03*
D71*
X218935Y62768D03*
D54*
X260398Y62768D03*
D77*
X327678Y62768D03*
D38*
X141681Y63160D03*
D120*
X174343Y63160D03*
D71*
X218544Y63160D03*
D82*
X262158Y63160D03*
D30*
X328656Y63160D03*
D71*
X141094Y63551D03*
D121*
X179233Y63551D03*
D71*
X217762Y63551D03*
D122*
X263528Y63551D03*
D43*
X329438Y63551D03*
D45*
X140703Y63942D03*
D123*
X181580Y63942D03*
D68*
X216980Y63942D03*
D124*
X264505Y63942D03*
D22*
X330220Y63942D03*
D48*
X140508Y64333D03*
D18*
X183731Y64333D03*
D71*
X216197Y64333D03*
D125*
X265679Y64333D03*
D24*
X331198Y64333D03*
D46*
X140508Y64724D03*
D126*
X185296Y64724D03*
D107*
X215610Y64724D03*
D73*
X255704Y64724D03*
D127*
X270177Y64724D03*
D128*
X332176Y64724D03*
D50*
X140312Y65115D03*
D129*
X186860Y65115D03*
D44*
X214828Y65115D03*
D48*
X254335Y65115D03*
D130*
X273893Y65115D03*
D100*
X333154Y65115D03*
D50*
X140312Y65507D03*
D105*
X188229Y65507D03*
D80*
X214046Y65507D03*
D48*
X253944Y65507D03*
D77*
X275654Y65507D03*
D24*
X334328Y65507D03*
D50*
X140312Y65898D03*
D131*
X189598Y65898D03*
D61*
X213459Y65898D03*
D48*
X253553Y65898D03*
D58*
X277218Y65898D03*
D28*
X335305Y65898D03*
D50*
X140312Y66289D03*
D48*
X181971Y66289D03*
D82*
X193705Y66289D03*
D38*
X212872Y66289D03*
D94*
X252966Y66289D03*
D31*
X278587Y66289D03*
D100*
X336283Y66289D03*
D52*
X140117Y66680D03*
D48*
X182362Y66680D03*
D100*
X196248Y66680D03*
D86*
X212090Y66680D03*
D94*
X252575Y66680D03*
D33*
X279565Y66680D03*
D28*
X337261Y66680D03*
D52*
X140117Y67071D03*
D48*
X182753Y67071D03*
D26*
X197617Y67071D03*
D95*
X211308Y67071D03*
D44*
X251988Y67071D03*
D33*
X280739Y67071D03*
D26*
X338044Y67071D03*
D52*
X140117Y67462D03*
D45*
X182949Y67462D03*
D132*
X203876Y67462D03*
D71*
X251402Y67462D03*
D98*
X281716Y67462D03*
D133*
X339217Y67462D03*
D52*
X140117Y67854D03*
D48*
X183144Y67854D03*
D11*
X206418Y67854D03*
D71*
X251010Y67854D03*
D23*
X282694Y67854D03*
D134*
X340977Y67854D03*
D93*
X140117Y68245D03*
D102*
X183340Y68245D03*
D135*
X208961Y68245D03*
D73*
X250228Y68245D03*
D136*
X283281Y68245D03*
D137*
X341955Y68245D03*
D52*
X140117Y68636D03*
D45*
X183731Y68636D03*
D138*
X210917Y68636D03*
D80*
X249641Y68636D03*
D54*
X283868Y68636D03*
D139*
X343324Y68636D03*
D52*
X140117Y69027D03*
D99*
X184318Y69027D03*
D140*
X212677Y69027D03*
D80*
X249250Y69027D03*
D22*
X284455Y69027D03*
D139*
X344889Y69027D03*
D52*
X140117Y69418D03*
D48*
X184709Y69418D03*
D122*
X215806Y69418D03*
D61*
X248663Y69418D03*
D26*
X284846Y69418D03*
D18*
X346062Y69418D03*
D52*
X140117Y69809D03*
D48*
X184709Y69809D03*
D141*
X218153Y69809D03*
D44*
X247686Y69809D03*
D48*
X279370Y69809D03*
D75*
X288366Y69809D03*
D142*
X347236Y69809D03*
D52*
X140117Y70201D03*
D48*
X185100Y70201D03*
D143*
X220109Y70201D03*
D41*
X247294Y70201D03*
D94*
X279174Y70201D03*
D76*
X290126Y70201D03*
D66*
X348214Y70201D03*
D52*
X140117Y70592D03*
D45*
X185296Y70592D03*
D121*
X221478Y70592D03*
D68*
X246708Y70592D03*
D99*
X278978Y70592D03*
D98*
X291104Y70592D03*
D142*
X349974Y70592D03*
D52*
X140117Y70983D03*
D45*
X185687Y70983D03*
D48*
X214437Y70983D03*
D133*
X224998Y70983D03*
D68*
X245925Y70983D03*
D48*
X278587Y70983D03*
D29*
X292082Y70983D03*
D123*
X351343Y70983D03*
D93*
X140117Y71374D03*
D46*
X185882Y71374D03*
X214437Y71374D03*
D10*
X227736Y71374D03*
D79*
X245143Y71374D03*
D101*
X278392Y71374D03*
D144*
X293060Y71374D03*
D103*
X352712Y71374D03*
D53*
X140312Y71765D03*
D48*
X186273Y71765D03*
X214828Y71765D03*
D51*
X230083Y71765D03*
D41*
X244556Y71765D03*
D50*
X278000Y71765D03*
D31*
X294625Y71765D03*
D145*
X353886Y71765D03*
D53*
X140312Y72156D03*
D48*
X186665Y72156D03*
X215219Y72156D03*
D56*
X231648Y72156D03*
D80*
X243774Y72156D03*
D50*
X277609Y72156D03*
D33*
X295603Y72156D03*
D123*
X355255Y72156D03*
D53*
X140312Y72547D03*
D48*
X186665Y72547D03*
X215219Y72547D03*
D34*
X233017Y72547D03*
D29*
X242405Y72547D03*
D50*
X277218Y72547D03*
D33*
X296385Y72547D03*
D145*
X357406Y72547D03*
D52*
X140508Y72939D03*
D48*
X187056Y72939D03*
X215610Y72939D03*
D139*
X237711Y72939D03*
D50*
X276827Y72939D03*
D33*
X297167Y72939D03*
D45*
X326504Y72939D03*
D146*
X360731Y72939D03*
D52*
X140508Y73330D03*
D48*
X187447Y73330D03*
X216002Y73330D03*
D147*
X238102Y73330D03*
D48*
X276631Y73330D03*
D61*
X298341Y73330D03*
D71*
X326895Y73330D03*
D105*
X362687Y73330D03*
D52*
X140508Y73721D03*
D48*
X187447Y73721D03*
D45*
X216197Y73721D03*
D148*
X238102Y73721D03*
D48*
X276240Y73721D03*
D61*
X299123Y73721D03*
D80*
X327482Y73721D03*
D142*
X364838Y73721D03*
D52*
X140899Y74112D03*
D48*
X187838Y74112D03*
X216393Y74112D03*
D114*
X240058Y74112D03*
D45*
X276045Y74112D03*
D60*
X299905Y74112D03*
D61*
X328069Y74112D03*
D66*
X366598Y74112D03*
D93*
X140899Y74503D03*
D46*
X187838Y74503D03*
X216784Y74503D03*
D149*
X240645Y74503D03*
D150*
X275654Y74503D03*
D85*
X300297Y74503D03*
D59*
X328656Y74503D03*
D151*
X368163Y74503D03*
D50*
X141094Y74894D03*
X188034Y74894D03*
D48*
X217175Y74894D03*
D21*
X241427Y74894D03*
D45*
X275262Y74894D03*
D61*
X301079Y74894D03*
D86*
X329438Y74894D03*
D66*
X369727Y74894D03*
D50*
X141094Y75286D03*
D48*
X188229Y75286D03*
D45*
X217762Y75286D03*
D23*
X242014Y75286D03*
D45*
X274871Y75286D03*
D38*
X301666Y75286D03*
X330611Y75286D03*
D123*
X371683Y75286D03*
D50*
X141486Y75677D03*
X188425Y75677D03*
D45*
X217762Y75677D03*
D34*
X242796Y75677D03*
D45*
X274480Y75677D03*
D31*
X302448Y75677D03*
D33*
X331589Y75677D03*
D82*
X373639Y75677D03*
D50*
X141486Y76068D03*
X188816Y76068D03*
D48*
X217957Y76068D03*
D152*
X243383Y76068D03*
D44*
X274284Y76068D03*
D76*
X303817Y76068D03*
D31*
X332567Y76068D03*
D153*
X375595Y76068D03*
D48*
X141681Y76459D03*
D50*
X188816Y76459D03*
D48*
X217957Y76459D03*
D51*
X243774Y76459D03*
D44*
X273893Y76459D03*
D34*
X305382Y76459D03*
D31*
X333350Y76459D03*
D82*
X377160Y76459D03*
D50*
X141877Y76850D03*
X188816Y76850D03*
D48*
X218349Y76850D03*
X240254Y76850D03*
D31*
X247294Y76850D03*
D45*
X273307Y76850D03*
D22*
X306751Y76850D03*
D61*
X334719Y76850D03*
D18*
X378529Y76850D03*
D50*
X141877Y77241D03*
X189207Y77241D03*
X218544Y77241D03*
X240449Y77241D03*
D33*
X248272Y77241D03*
D45*
X272915Y77241D03*
D91*
X308120Y77241D03*
D60*
X335892Y77241D03*
D82*
X379898Y77241D03*
D90*
X142072Y77633D03*
D50*
X189207Y77633D03*
D52*
X218740Y77633D03*
X240645Y77633D03*
D33*
X249446Y77633D03*
D42*
X272329Y77633D03*
D66*
X309098Y77633D03*
D38*
X336870Y77633D03*
D18*
X381658Y77633D03*
D101*
X142268Y78024D03*
X189207Y78024D03*
X218935Y78024D03*
D93*
X241036Y78024D03*
D59*
X250424Y78024D03*
D154*
X271937Y78024D03*
D155*
X310076Y78024D03*
D144*
X338044Y78024D03*
D103*
X383614Y78024D03*
D52*
X142464Y78415D03*
D48*
X189403Y78415D03*
D50*
X218935Y78415D03*
D52*
X241036Y78415D03*
D33*
X251402Y78415D03*
D44*
X271546Y78415D03*
D156*
X310662Y78415D03*
D157*
X339021Y78415D03*
D18*
X385569Y78415D03*
D50*
X142659Y78806D03*
D48*
X189403Y78806D03*
D50*
X219326Y78806D03*
D52*
X241427Y78806D03*
D38*
X252379Y78806D03*
D44*
X271155Y78806D03*
X302448Y78806D03*
D17*
X316725Y78806D03*
D98*
X339999Y78806D03*
D133*
X388112Y78806D03*
D52*
X142855Y79197D03*
D48*
X189403Y79197D03*
D50*
X219326Y79197D03*
D52*
X241818Y79197D03*
D33*
X253749Y79197D03*
D45*
X270177Y79197D03*
X302252Y79197D03*
D34*
X318290Y79197D03*
D27*
X340977Y79197D03*
D82*
X389677Y79197D03*
D50*
X143050Y79588D03*
D45*
X189598Y79588D03*
D48*
X219522Y79588D03*
D52*
X241818Y79588D03*
D38*
X255118Y79588D03*
D45*
X269786Y79588D03*
D94*
X301861Y79588D03*
D58*
X319855Y79588D03*
D76*
X342151Y79588D03*
D142*
X391828Y79588D03*
D50*
X143441Y79980D03*
D44*
X189403Y79980D03*
D50*
X219718Y79980D03*
D53*
X242014Y79980D03*
D38*
X256291Y79980D03*
D94*
X269395Y79980D03*
D50*
X301470Y79980D03*
D31*
X321224Y79980D03*
D98*
X343520Y79980D03*
D129*
X394175Y79980D03*
D50*
X143833Y80371D03*
D41*
X189403Y80371D03*
D48*
X219913Y80371D03*
D52*
X242209Y80371D03*
D39*
X257465Y80371D03*
D42*
X269199Y80371D03*
D50*
X301079Y80371D03*
D38*
X322006Y80371D03*
D98*
X344693Y80371D03*
D146*
X395935Y80371D03*
D50*
X143833Y80762D03*
D63*
X189207Y80762D03*
D48*
X219913Y80762D03*
D53*
X242405Y80762D03*
D38*
X258638Y80762D03*
D42*
X268808Y80762D03*
D48*
X300883Y80762D03*
D60*
X322593Y80762D03*
D157*
X345671Y80762D03*
D158*
X398087Y80762D03*
D101*
X144224Y81153D03*
D159*
X189012Y81153D03*
D160*
X220304Y81153D03*
D93*
X242600Y81153D03*
D79*
X260398Y81153D03*
X268221Y81153D03*
D101*
X300688Y81153D03*
D107*
X323571Y81153D03*
D83*
X346845Y81153D03*
D161*
X400629Y81153D03*
D50*
X144615Y81544D03*
D21*
X189012Y81544D03*
D94*
X220500Y81544D03*
D52*
X242600Y81544D03*
D54*
X264701Y81544D03*
D50*
X300297Y81544D03*
D42*
X324353Y81544D03*
D31*
X347823Y81544D03*
D162*
X402976Y81544D03*
D48*
X144810Y81935D03*
D32*
X189012Y81935D03*
D48*
X220696Y81935D03*
D90*
X242992Y81935D03*
D17*
X265092Y81935D03*
D50*
X299905Y81935D03*
D45*
X324940Y81935D03*
D157*
X349192Y81935D03*
D120*
X405127Y81935D03*
D99*
X145202Y82326D03*
D54*
X188816Y82326D03*
D45*
X220891Y82326D03*
D90*
X242992Y82326D03*
D34*
X266266Y82326D03*
D50*
X299514Y82326D03*
D29*
X326895Y82326D03*
X350756Y82326D03*
D132*
X406888Y82326D03*
D48*
X145593Y82718D03*
D31*
X184709Y82718D03*
D41*
X192923Y82718D03*
D45*
X220891Y82718D03*
D50*
X243187Y82718D03*
D56*
X267244Y82718D03*
D50*
X299123Y82718D03*
D25*
X328265Y82718D03*
D65*
X352125Y82718D03*
D132*
X409235Y82718D03*
D48*
X145984Y83109D03*
D76*
X183340Y83109D03*
D80*
X194097Y83109D03*
D45*
X221282Y83109D03*
D50*
X243578Y83109D03*
D40*
X268613Y83109D03*
D48*
X298928Y83109D03*
D56*
X329438Y83109D03*
D98*
X353690Y83109D03*
D163*
X411973Y83109D03*
D48*
X146375Y83500D03*
D114*
X180993Y83500D03*
D38*
X195270Y83500D03*
D45*
X221282Y83500D03*
D50*
X243578Y83500D03*
D24*
X269786Y83500D03*
D99*
X298536Y83500D03*
D28*
X330611Y83500D03*
D76*
X355450Y83500D03*
D164*
X415689Y83500D03*
D45*
X146962Y83891D03*
D32*
X179233Y83891D03*
D33*
X196248Y83891D03*
D44*
X221478Y83891D03*
D48*
X243774Y83891D03*
D100*
X270568Y83891D03*
D94*
X298341Y83891D03*
D82*
X331394Y83891D03*
D98*
X357210Y83891D03*
D165*
X418036Y83891D03*
D102*
X147353Y84282D03*
D37*
X177277Y84282D03*
D36*
X197030Y84282D03*
D107*
X221478Y84282D03*
D46*
X244165Y84282D03*
D150*
X265875Y84282D03*
D166*
X274480Y84282D03*
D102*
X297950Y84282D03*
D126*
X331981Y84282D03*
D167*
X358971Y84282D03*
D168*
X419992Y84282D03*
D44*
X147940Y84673D03*
D82*
X174930Y84673D03*
D29*
X197813Y84673D03*
D71*
X221673Y84673D03*
D48*
X244165Y84673D03*
D169*
X265875Y84673D03*
D31*
X276240Y84673D03*
D45*
X297558Y84673D03*
D44*
X325526Y84673D03*
D32*
X335697Y84673D03*
D25*
X360731Y84673D03*
D74*
X422143Y84673D03*
D38*
X149113Y85065D03*
D141*
X172387Y85065D03*
D98*
X198399Y85065D03*
D41*
X221478Y85065D03*
D45*
X244361Y85065D03*
D50*
X266266Y85065D03*
D29*
X277609Y85065D03*
D48*
X297363Y85065D03*
D45*
X325331Y85065D03*
D96*
X337261Y85065D03*
D51*
X363078Y85065D03*
D119*
X423708Y85065D03*
D170*
X163195Y85456D03*
D76*
X198986Y85456D03*
D38*
X221478Y85456D03*
D48*
X244556Y85456D03*
D52*
X266461Y85456D03*
D68*
X279565Y85456D03*
D48*
X296972Y85456D03*
X325135Y85456D03*
D31*
X338435Y85456D03*
D22*
X365425Y85456D03*
D171*
X382245Y85456D03*
D172*
X425663Y85456D03*
D74*
X162022Y85847D03*
D58*
X199768Y85847D03*
D29*
X221282Y85847D03*
D48*
X244556Y85847D03*
D50*
X266657Y85847D03*
D41*
X280543Y85847D03*
D48*
X296581Y85847D03*
X325135Y85847D03*
D33*
X339021Y85847D03*
D24*
X367185Y85847D03*
D53*
X381658Y85847D03*
D173*
X428206Y85847D03*
D11*
X160261Y86238D03*
D95*
X201529Y86238D03*
D21*
X220696Y86238D03*
D45*
X244752Y86238D03*
D52*
X266852Y86238D03*
D61*
X281130Y86238D03*
D45*
X296385Y86238D03*
D48*
X324744Y86238D03*
D80*
X339999Y86238D03*
D174*
X372661Y86238D03*
D132*
X429966Y86238D03*
D105*
X158110Y86629D03*
D51*
X203876Y86629D03*
D130*
X218740Y86629D03*
D48*
X244947Y86629D03*
D52*
X267244Y86629D03*
D33*
X281912Y86629D03*
D45*
X295994Y86629D03*
X324940Y86629D03*
D94*
X340977Y86629D03*
D156*
X372857Y86629D03*
D89*
X431726Y86629D03*
D130*
X156545Y87020D03*
D175*
X212481Y87020D03*
D45*
X245143Y87020D03*
D52*
X267244Y87020D03*
D71*
X283477Y87020D03*
D44*
X295798Y87020D03*
D48*
X324744Y87020D03*
D45*
X341368Y87020D03*
D123*
X374813Y87020D03*
D124*
X433487Y87020D03*
D34*
X155959Y87412D03*
D173*
X213068Y87412D03*
D45*
X245143Y87412D03*
D52*
X267635Y87412D03*
D61*
X284650Y87412D03*
D42*
X295407Y87412D03*
D48*
X324353Y87412D03*
D71*
X341760Y87412D03*
D139*
X375399Y87412D03*
D67*
X435442Y87412D03*
D176*
X155763Y87803D03*
D177*
X211503Y87803D03*
D79*
X224803Y87803D03*
D102*
X245143Y87803D03*
D93*
X267635Y87803D03*
D36*
X286606Y87803D03*
D73*
X295212Y87803D03*
D46*
X323962Y87803D03*
D144*
X342737Y87803D03*
D178*
X376573Y87803D03*
D155*
X436811Y87803D03*
D141*
X212677Y88194D03*
D44*
X225389Y88194D03*
D45*
X245534Y88194D03*
D52*
X268026Y88194D03*
D27*
X288171Y88194D03*
D80*
X295016Y88194D03*
D45*
X323766Y88194D03*
D96*
X343520Y88194D03*
D29*
X377746Y88194D03*
D146*
X438572Y88194D03*
D153*
X212481Y88585D03*
D44*
X226172Y88585D03*
X245730Y88585D03*
D52*
X268026Y88585D03*
D30*
X291887Y88585D03*
D48*
X323571Y88585D03*
D25*
X344302Y88585D03*
D45*
X378529Y88585D03*
D66*
X440136Y88585D03*
D38*
X214046Y88976D03*
D80*
X226954Y88976D03*
D68*
X245925Y88976D03*
D50*
X268221Y88976D03*
D40*
X292865Y88976D03*
D48*
X323179Y88976D03*
D17*
X344889Y88976D03*
D49*
X378333Y88976D03*
D82*
X441701Y88976D03*
D80*
X227345Y89367D03*
X246121Y89367D03*
D50*
X268221Y89367D03*
D24*
X295603Y89367D03*
D48*
X322788Y89367D03*
D40*
X345280Y89367D03*
D130*
X443266Y89367D03*
D60*
X227932Y89759D03*
D61*
X246317Y89759D03*
D48*
X268417Y89759D03*
D153*
X296972Y89759D03*
D48*
X322397Y89759D03*
D68*
X340977Y89759D03*
D157*
X349192Y89759D03*
D40*
X444635Y89759D03*
D39*
X228519Y90150D03*
D61*
X246317Y90150D03*
D50*
X268613Y90150D03*
D142*
X297950Y90150D03*
D48*
X322006Y90150D03*
D68*
X340586Y90150D03*
D33*
X350756Y90150D03*
D17*
X446199Y90150D03*
D33*
X229497Y90541D03*
D61*
X246317Y90541D03*
D48*
X268808Y90541D03*
D146*
X298928Y90541D03*
D48*
X321615Y90541D03*
D42*
X340390Y90541D03*
D38*
X351734Y90541D03*
D34*
X447373Y90541D03*
D83*
X230670Y90932D03*
D36*
X246317Y90932D03*
D101*
X269004Y90932D03*
D59*
X293060Y90932D03*
D179*
X303426Y90932D03*
D160*
X321224Y90932D03*
D107*
X339999Y90932D03*
D180*
X352516Y90932D03*
D181*
X448351Y90932D03*
D65*
X232039Y91323D03*
D33*
X246317Y91323D03*
D99*
X269199Y91323D03*
D41*
X293060Y91323D03*
D40*
X304599Y91323D03*
D94*
X321028Y91323D03*
D44*
X339608Y91323D03*
D38*
X352908Y91323D03*
D34*
X449329Y91323D03*
D114*
X233799Y91714D03*
D29*
X246317Y91714D03*
D94*
X269395Y91714D03*
D41*
X293451Y91714D03*
D22*
X306360Y91714D03*
D44*
X320441Y91714D03*
X339217Y91714D03*
D80*
X353690Y91714D03*
D23*
X450111Y91714D03*
D67*
X240645Y92105D03*
D48*
X269591Y92105D03*
D71*
X293647Y92105D03*
D17*
X309293Y92105D03*
D45*
X319855Y92105D03*
X338630Y92105D03*
D68*
X354277Y92105D03*
D23*
X450893Y92105D03*
D131*
X241231Y92497D03*
D45*
X269786Y92497D03*
D71*
X294038Y92497D03*
D142*
X313596Y92497D03*
D45*
X338239Y92497D03*
D44*
X354863Y92497D03*
D182*
X451676Y92497D03*
D87*
X242209Y92888D03*
D45*
X269786Y92888D03*
D44*
X294234Y92888D03*
D91*
X314378Y92888D03*
D48*
X338044Y92888D03*
D44*
X355255Y92888D03*
D21*
X452262Y92888D03*
D143*
X243578Y93279D03*
D45*
X270177Y93279D03*
D44*
X294625Y93279D03*
D30*
X315747Y93279D03*
D99*
X337652Y93279D03*
D44*
X355646Y93279D03*
D58*
X452849Y93279D03*
D17*
X241231Y93670D03*
D41*
X250815Y93670D03*
D44*
X270373Y93670D03*
X294625Y93670D03*
D56*
X316530Y93670D03*
D48*
X337261Y93670D03*
D44*
X356037Y93670D03*
D58*
X453631Y93670D03*
D149*
X241427Y94061D03*
D183*
X251597Y94061D03*
D79*
X270568Y94061D03*
D154*
X295016Y94061D03*
D78*
X318290Y94061D03*
D101*
X336674Y94061D03*
D144*
X357602Y94061D03*
D184*
X454218Y94061D03*
D45*
X242014Y94452D03*
D68*
X252184Y94452D03*
D71*
X270568Y94452D03*
D42*
X295407Y94452D03*
D23*
X320246Y94452D03*
D52*
X336479Y94452D03*
D25*
X359166Y94452D03*
D96*
X455000Y94452D03*
D68*
X252966Y94844D03*
D41*
X270764Y94844D03*
D45*
X295603Y94844D03*
D81*
X321419Y94844D03*
D50*
X336283Y94844D03*
D40*
X360926Y94844D03*
D27*
X455587Y94844D03*
D61*
X253749Y95235D03*
D41*
X271155Y95235D03*
D48*
X296189Y95235D03*
D54*
X322593Y95235D03*
D48*
X336088Y95235D03*
D133*
X361904Y95235D03*
D76*
X455978Y95235D03*
D39*
X254335Y95626D03*
D41*
X271155Y95626D03*
D48*
X296581Y95626D03*
D82*
X324744Y95626D03*
D45*
X335892Y95626D03*
D142*
X362882Y95626D03*
D65*
X456565Y95626D03*
D60*
X254922Y96017D03*
D61*
X271351Y96017D03*
D48*
X296581Y96017D03*
D156*
X327482Y96017D03*
D66*
X363078Y96017D03*
D98*
X457347Y96017D03*
D80*
X256291Y96408D03*
D38*
X271546Y96408D03*
D48*
X296972Y96408D03*
D44*
X319659Y96408D03*
D91*
X330807Y96408D03*
D104*
X363273Y96408D03*
D98*
X457738Y96408D03*
D38*
X257073Y96799D03*
D31*
X271937Y96799D03*
D48*
X297363Y96799D03*
D45*
X319855Y96799D03*
D22*
X332176Y96799D03*
D45*
X356624Y96799D03*
D25*
X367381Y96799D03*
D29*
X458325Y96799D03*
D39*
X257856Y97191D03*
D29*
X272524Y97191D03*
D48*
X297363Y97191D03*
D45*
X320246Y97191D03*
D54*
X333154Y97191D03*
D45*
X356624Y97191D03*
D76*
X368750Y97191D03*
D98*
X458912Y97191D03*
D36*
X258834Y97582D03*
D184*
X273111Y97582D03*
D102*
X297950Y97582D03*
X320637Y97582D03*
D47*
X333936Y97582D03*
D46*
X356428Y97582D03*
D144*
X370119Y97582D03*
D106*
X459303Y97582D03*
D31*
X259812Y97973D03*
D21*
X273502Y97973D03*
D45*
X297950Y97973D03*
X320637Y97973D03*
D18*
X336674Y97973D03*
D45*
X356232Y97973D03*
D38*
X370510Y97973D03*
D65*
X459694Y97973D03*
D33*
X261572Y98364D03*
D34*
X274089Y98364D03*
D94*
X298341Y98364D03*
X321028Y98364D03*
D185*
X340586Y98364D03*
D45*
X356232Y98364D03*
D61*
X370705Y98364D03*
D98*
X460477Y98364D03*
D29*
X262354Y98755D03*
D30*
X274676Y98755D03*
D42*
X298536Y98755D03*
D94*
X321028Y98755D03*
D173*
X344889Y98755D03*
D71*
X371097Y98755D03*
D29*
X460672Y98755D03*
D96*
X263332Y99146D03*
D26*
X275458Y99146D03*
D68*
X299123Y99146D03*
D99*
X321224Y99146D03*
D11*
X346062Y99146D03*
D45*
X371097Y99146D03*
D29*
X461063Y99146D03*
D162*
X272329Y99538D03*
D38*
X299710Y99538D03*
D48*
X321615Y99538D03*
D138*
X347040Y99538D03*
D48*
X371292Y99538D03*
D29*
X461455Y99538D03*
D22*
X267244Y99929D03*
D23*
X281130Y99929D03*
D157*
X300297Y99929D03*
D48*
X321615Y99929D03*
D186*
X347627Y99929D03*
D48*
X371292Y99929D03*
D29*
X461846Y99929D03*
D54*
X267439Y100320D03*
D25*
X282499Y100320D03*
D76*
X300688Y100320D03*
D50*
X321810Y100320D03*
D61*
X339804Y100320D03*
D123*
X352125Y100320D03*
D48*
X371292Y100320D03*
D29*
X462237Y100320D03*
D78*
X267830Y100711D03*
D187*
X284259Y100711D03*
D19*
X301274Y100711D03*
D46*
X322006Y100711D03*
D79*
X339804Y100711D03*
D188*
X354277Y100711D03*
D101*
X371097Y100711D03*
D144*
X462432Y100711D03*
D95*
X268026Y101102D03*
D172*
X293842Y101102D03*
D50*
X322202Y101102D03*
D71*
X339804Y101102D03*
D30*
X357210Y101102D03*
D50*
X371097Y101102D03*
D31*
X462824Y101102D03*
D38*
X268026Y101493D03*
D172*
X295407Y101493D03*
D48*
X322397Y101493D03*
D71*
X339804Y101493D03*
D22*
X358384Y101493D03*
D52*
X370901Y101493D03*
D31*
X463215Y101493D03*
D189*
X268417Y101884D03*
D120*
X297167Y101884D03*
D48*
X322397Y101884D03*
D71*
X339804Y101884D03*
D134*
X359753Y101884D03*
D50*
X370705Y101884D03*
D33*
X463410Y101884D03*
D28*
X293060Y102276D03*
D58*
X306946Y102276D03*
D48*
X322788Y102276D03*
D71*
X339804Y102276D03*
D41*
X355646Y102276D03*
D77*
X366403Y102276D03*
D33*
X463801Y102276D03*
D56*
X293842Y102667D03*
D75*
X308315Y102667D03*
D48*
X322788Y102667D03*
D44*
X339999Y102667D03*
D41*
X355646Y102667D03*
D58*
X367576Y102667D03*
D38*
X463997Y102667D03*
D21*
X294625Y103058D03*
D32*
X309880Y103058D03*
D48*
X322788Y103058D03*
D44*
X339999Y103058D03*
D71*
X355841Y103058D03*
D31*
X368163Y103058D03*
D38*
X464388Y103058D03*
X295407Y103449D03*
D35*
X312031Y103449D03*
D45*
X322593Y103449D03*
D44*
X339999Y103449D03*
D45*
X355841Y103449D03*
D41*
X368945Y103449D03*
D61*
X464584Y103449D03*
D176*
X296972Y103840D03*
D190*
X315747Y103840D03*
D79*
X339804Y103840D03*
D102*
X356232Y103840D03*
X369532Y103840D03*
D64*
X464779Y103840D03*
D22*
X318094Y104231D03*
D71*
X339804Y104231D03*
D45*
X356232Y104231D03*
D50*
X370314Y104231D03*
D80*
X464779Y104231D03*
D30*
X318486Y104623D03*
D71*
X339804Y104623D03*
D45*
X356624Y104623D03*
D52*
X370510Y104623D03*
D30*
X432704Y104623D03*
D68*
X464975Y104623D03*
D17*
X319072Y105014D03*
D71*
X339804Y105014D03*
D45*
X356624Y105014D03*
D52*
X370901Y105014D03*
D105*
X431922Y105014D03*
D68*
X465366Y105014D03*
D34*
X319855Y105405D03*
D61*
X339804Y105405D03*
D42*
X356819Y105405D03*
D52*
X371292Y105405D03*
D138*
X431531Y105405D03*
D80*
X465562Y105405D03*
D96*
X320832Y105796D03*
D61*
X339804Y105796D03*
D68*
X357015Y105796D03*
D50*
X371488Y105796D03*
D120*
X431335Y105796D03*
D60*
X466148Y105796D03*
D98*
X321615Y106187D03*
D33*
X339804Y106187D03*
D68*
X357406Y106187D03*
D50*
X371488Y106187D03*
D191*
X430944Y106187D03*
D33*
X466540Y106187D03*
D31*
X322788Y106578D03*
D29*
X339804Y106578D03*
D61*
X357797Y106578D03*
D48*
X371683Y106578D03*
D192*
X430748Y106578D03*
D29*
X466931Y106578D03*
D38*
X323962Y106970D03*
D76*
X339804Y106970D03*
D31*
X357993Y106970D03*
D48*
X371683Y106970D03*
D18*
X421556Y106970D03*
D77*
X441897Y106970D03*
D98*
X467517Y106970D03*
D62*
X324940Y107361D03*
D19*
X339999Y107361D03*
D159*
X358384Y107361D03*
D46*
X371683Y107361D03*
D20*
X418818Y107361D03*
D149*
X444048Y107361D03*
D184*
X467909Y107361D03*
D60*
X326113Y107752D03*
D34*
X339804Y107752D03*
D58*
X358971Y107752D03*
D45*
X371488Y107752D03*
D40*
X416080Y107752D03*
D98*
X445613Y107752D03*
D114*
X468495Y107752D03*
D33*
X327287Y108143D03*
D43*
X339608Y108143D03*
D25*
X359166Y108143D03*
D45*
X371488Y108143D03*
D17*
X414906Y108143D03*
D65*
X446786Y108143D03*
D45*
X466148Y108143D03*
X472016Y108143D03*
D124*
X335697Y108534D03*
D71*
X356232Y108534D03*
D60*
X362100Y108534D03*
D44*
X371292Y108534D03*
D23*
X413342Y108534D03*
D31*
X447568Y108534D03*
D45*
X466148Y108534D03*
D48*
X472994Y108534D03*
D193*
X336674Y108925D03*
D71*
X355450Y108925D03*
D38*
X362687Y108925D03*
D44*
X370901Y108925D03*
D27*
X412168Y108925D03*
D33*
X448546Y108925D03*
D48*
X466344Y108925D03*
D50*
X473580Y108925D03*
D56*
X332567Y109317D03*
D123*
X349387Y109317D03*
D38*
X363469Y109317D03*
D80*
X370510Y109317D03*
D31*
X411190Y109317D03*
D61*
X449329Y109317D03*
D48*
X466344Y109317D03*
D52*
X474167Y109317D03*
D21*
X332567Y109708D03*
D26*
X349778Y109708D03*
D77*
X367185Y109708D03*
D33*
X410604Y109708D03*
D71*
X450111Y109708D03*
D45*
X466540Y109708D03*
D50*
X474754Y109708D03*
D157*
X332763Y110099D03*
D24*
X349974Y110099D03*
D25*
X367381Y110099D03*
D61*
X409821Y110099D03*
D44*
X450698Y110099D03*
D48*
X466735Y110099D03*
D50*
X475145Y110099D03*
D46*
X333350Y110490D03*
D194*
X349778Y110490D03*
D167*
X367967Y110490D03*
D73*
X409039Y110490D03*
D46*
X451089Y110490D03*
X466735Y110490D03*
D195*
X475927Y110490D03*
D21*
X349778Y110881D03*
D76*
X367967Y110881D03*
D45*
X408648Y110881D03*
D48*
X451480Y110881D03*
D45*
X466931Y110881D03*
D52*
X476514Y110881D03*
D31*
X368163Y111272D03*
D50*
X408257Y111272D03*
D48*
X451871Y111272D03*
D44*
X467126Y111272D03*
D52*
X476905Y111272D03*
D50*
X407866Y111663D03*
D48*
X451871Y111663D03*
D61*
X467713Y111663D03*
D53*
X477101Y111663D03*
D50*
X407866Y112055D03*
D48*
X452262Y112055D03*
D38*
X467909Y112055D03*
D92*
X477492Y112055D03*
D48*
X408061Y112446D03*
X452262Y112446D03*
D31*
X468300Y112446D03*
D92*
X477883Y112446D03*
D45*
X408257Y112837D03*
X452458Y112837D03*
D29*
X468495Y112837D03*
D52*
X478470Y112837D03*
D44*
X408452Y113228D03*
D48*
X452653Y113228D03*
D98*
X468691Y113228D03*
D53*
X478666Y113228D03*
D73*
X408648Y113619D03*
D101*
X452849Y113619D03*
D149*
X469082Y113619D03*
D195*
X479057Y113619D03*
D68*
X409039Y114010D03*
D48*
X453045Y114010D03*
D58*
X469278Y114010D03*
D53*
X479448Y114010D03*
D68*
X409821Y114402D03*
D48*
X453045Y114402D03*
D45*
X466931Y114402D03*
X472016Y114402D03*
D53*
X479839Y114402D03*
D44*
X410408Y114793D03*
D48*
X453045Y114793D03*
D45*
X466931Y114793D03*
X472407Y114793D03*
D189*
X480035Y114793D03*
D44*
X411190Y115184D03*
D48*
X453045Y115184D03*
D45*
X466931Y115184D03*
X472798Y115184D03*
D196*
X480426Y115184D03*
D44*
X411973Y115575D03*
D50*
X453240Y115575D03*
D45*
X466931Y115575D03*
D48*
X473385Y115575D03*
D92*
X480621Y115575D03*
D80*
X305577Y115966D03*
D94*
X412560Y115966D03*
D50*
X453240Y115966D03*
D45*
X466931Y115966D03*
D48*
X473776Y115966D03*
D92*
X481013Y115966D03*
D32*
X307533Y116357D03*
D45*
X412951Y116357D03*
D52*
X453436Y116357D03*
D45*
X466931Y116357D03*
D50*
X474363Y116357D03*
D92*
X481404Y116357D03*
D18*
X310076Y116749D03*
D48*
X413537Y116749D03*
D50*
X453240Y116749D03*
D45*
X466931Y116749D03*
D99*
X474558Y116749D03*
D52*
X481599Y116749D03*
D197*
X312618Y117140D03*
D79*
X414906Y117140D03*
D101*
X453240Y117140D03*
D46*
X467126Y117140D03*
X474950Y117140D03*
D93*
X481990Y117140D03*
D69*
X313987Y117531D03*
D61*
X415689Y117531D03*
D48*
X453045Y117531D03*
X467126Y117531D03*
D50*
X475145Y117531D03*
D52*
X482382Y117531D03*
D162*
X315356Y117922D03*
D80*
X416276Y117922D03*
D48*
X453045Y117922D03*
X467126Y117922D03*
D50*
X475536Y117922D03*
D52*
X482773Y117922D03*
D172*
X316921Y118313D03*
D61*
X416862Y118313D03*
D48*
X453045Y118313D03*
D45*
X467322Y118313D03*
D50*
X475927Y118313D03*
D52*
X483164Y118313D03*
D89*
X320246Y118704D03*
D60*
X417645Y118704D03*
D50*
X452849Y118704D03*
D45*
X467322Y118704D03*
D48*
X476123Y118704D03*
D52*
X483555Y118704D03*
D123*
X326700Y119096D03*
D61*
X418427Y119096D03*
D48*
X452653Y119096D03*
D45*
X467322Y119096D03*
D48*
X476514Y119096D03*
D52*
X483946Y119096D03*
D28*
X330220Y119487D03*
D38*
X419405Y119487D03*
D48*
X452653Y119487D03*
X467126Y119487D03*
X476905Y119487D03*
D50*
X484533Y119487D03*
D130*
X332958Y119878D03*
D33*
X420383Y119878D03*
D48*
X452653Y119878D03*
X467126Y119878D03*
X477296Y119878D03*
D52*
X485120Y119878D03*
D198*
X334914Y120269D03*
D144*
X421361Y120269D03*
D101*
X452458Y120269D03*
D46*
X467126Y120269D03*
D160*
X477688Y120269D03*
D93*
X485902Y120269D03*
D26*
X337652Y120660D03*
D31*
X422143Y120660D03*
D48*
X452262Y120660D03*
X467126Y120660D03*
X478079Y120660D03*
D52*
X486293Y120660D03*
D123*
X339608Y121051D03*
D31*
X422925Y121051D03*
D50*
X452067Y121051D03*
D48*
X467126Y121051D03*
D50*
X478274Y121051D03*
X486880Y121051D03*
D153*
X341955Y121442D03*
D65*
X424099Y121442D03*
D48*
X451871Y121442D03*
X467126Y121442D03*
D50*
X478666Y121442D03*
D94*
X487662Y121442D03*
D134*
X344889Y121834D03*
D98*
X424881Y121834D03*
D169*
X451676Y121834D03*
D48*
X467126Y121834D03*
D50*
X479057Y121834D03*
D44*
X488249Y121834D03*
D28*
X346649Y122225D03*
D31*
X426055Y122225D03*
D48*
X451480Y122225D03*
D50*
X466931Y122225D03*
D52*
X479252Y122225D03*
D71*
X489227Y122225D03*
D28*
X348214Y122616D03*
D157*
X427424Y122616D03*
D50*
X451284Y122616D03*
X466931Y122616D03*
D52*
X479643Y122616D03*
D41*
X489814Y122616D03*
D30*
X350561Y123007D03*
D29*
X428597Y123007D03*
D48*
X451089Y123007D03*
D50*
X466931Y123007D03*
D52*
X480035Y123007D03*
D80*
X490596Y123007D03*
D47*
X351930Y123398D03*
D83*
X429379Y123398D03*
D46*
X450698Y123398D03*
D101*
X466931Y123398D03*
D195*
X480230Y123398D03*
D85*
X491965Y123398D03*
D199*
X115278Y123789D03*
D32*
X354863Y123789D03*
D65*
X430357Y123789D03*
D50*
X450502Y123789D03*
X466931Y123789D03*
D92*
X480621Y123789D03*
D60*
X492747Y123789D03*
D200*
X115669Y124181D03*
D152*
X356819Y124181D03*
D98*
X431531Y124181D03*
D50*
X450111Y124181D03*
D52*
X466735Y124181D03*
D92*
X480621Y124181D03*
D61*
X493921Y124181D03*
D92*
X116060Y124572D03*
D32*
X358775Y124572D03*
D76*
X433291Y124572D03*
D48*
X449524Y124572D03*
D50*
X466540Y124572D03*
D92*
X481013Y124572D03*
D41*
X495290Y124572D03*
D50*
X116451Y124963D03*
D51*
X360731Y124963D03*
D114*
X435247Y124963D03*
D45*
X448937Y124963D03*
D50*
X466540Y124963D03*
D92*
X481013Y124963D03*
D42*
X496854Y124963D03*
D44*
X117038Y125354D03*
D131*
X265092Y125354D03*
D56*
X362295Y125354D03*
D105*
X441310Y125354D03*
D50*
X466540Y125354D03*
D45*
X475536Y125354D03*
D90*
X481208Y125354D03*
D42*
X497637Y125354D03*
D41*
X117429Y125745D03*
D201*
X265483Y125745D03*
D35*
X363665Y125745D03*
D104*
X441505Y125745D03*
D48*
X466735Y125745D03*
D60*
X475927Y125745D03*
D90*
X481208Y125745D03*
D71*
X498615Y125745D03*
D29*
X118016Y126136D03*
D202*
X266657Y126136D03*
D56*
X365425Y126136D03*
D145*
X441897Y126136D03*
D44*
X467126Y126136D03*
D25*
X477688Y126136D03*
D41*
X499593Y126136D03*
D27*
X118407Y126528D03*
D112*
X267635Y126528D03*
D25*
X367381Y126528D03*
D24*
X442288Y126528D03*
D80*
X467517Y126528D03*
D34*
X477492Y126528D03*
D61*
X500962Y126528D03*
D203*
X118798Y126919D03*
D204*
X267635Y126919D03*
D167*
X369532Y126919D03*
D187*
X442679Y126919D03*
D36*
X468104Y126919D03*
D78*
X477101Y126919D03*
D180*
X501940Y126919D03*
D75*
X119385Y127310D03*
D205*
X268026Y127310D03*
D27*
X371097Y127310D03*
D29*
X442679Y127310D03*
D129*
X473580Y127310D03*
D61*
X502917Y127310D03*
D25*
X120167Y127701D03*
D138*
X246903Y127701D03*
D13*
X282694Y127701D03*
D98*
X372466Y127701D03*
D142*
X473189Y127701D03*
D80*
X504287Y127701D03*
D30*
X121732Y128092D03*
D206*
X245339Y128092D03*
D33*
X269395Y128092D03*
D89*
X295994Y128092D03*
D98*
X373639Y128092D03*
D142*
X472798Y128092D03*
D41*
X505069Y128092D03*
D35*
X122319Y128483D03*
D131*
X241623Y128483D03*
D50*
X255704Y128483D03*
D44*
X269982Y128483D03*
D74*
X299710Y128483D03*
D31*
X375595Y128483D03*
D153*
X472211Y128483D03*
D61*
X506047Y128483D03*
D56*
X123688Y128875D03*
D156*
X240645Y128875D03*
D48*
X255900Y128875D03*
X270373Y128875D03*
D207*
X302448Y128875D03*
D29*
X376573Y128875D03*
D56*
X470256Y128875D03*
D61*
X506829Y128875D03*
D35*
X125448Y129266D03*
D134*
X235755Y129266D03*
D44*
X248468Y129266D03*
D48*
X256291Y129266D03*
D50*
X270960Y129266D03*
D61*
X288562Y129266D03*
D163*
X309098Y129266D03*
D31*
X377942Y129266D03*
D52*
X465953Y129266D03*
D38*
X472211Y129266D03*
X507807Y129266D03*
D22*
X127208Y129657D03*
D40*
X233408Y129657D03*
D50*
X249055Y129657D03*
D48*
X256291Y129657D03*
D52*
X271155Y129657D03*
D80*
X288757Y129657D03*
D162*
X311445Y129657D03*
D38*
X379115Y129657D03*
D52*
X465562Y129657D03*
D71*
X472407Y129657D03*
D63*
X508785Y129657D03*
D188*
X129360Y130048D03*
D208*
X231452Y130048D03*
D46*
X248859Y130048D03*
X256682Y130048D03*
D93*
X271546Y130048D03*
D64*
X289149Y130048D03*
D161*
X313400Y130048D03*
D83*
X380093Y130048D03*
D195*
X465366Y130048D03*
D46*
X472603Y130048D03*
D59*
X510154Y130048D03*
D139*
X130924Y130439D03*
D34*
X227932Y130439D03*
D48*
X235951Y130439D03*
X248859Y130439D03*
D45*
X256878Y130439D03*
D52*
X271937Y130439D03*
D44*
X289540Y130439D03*
D156*
X315747Y130439D03*
D29*
X381267Y130439D03*
D53*
X465366Y130439D03*
D55*
X472798Y130439D03*
D31*
X510936Y130439D03*
D153*
X131511Y130830D03*
D56*
X225781Y130830D03*
D50*
X236146Y130830D03*
D48*
X248859Y130830D03*
D45*
X256878Y130830D03*
D90*
X272329Y130830D03*
D45*
X290126Y130830D03*
D185*
X317899Y130830D03*
D31*
X382636Y130830D03*
D52*
X465171Y130830D03*
D31*
X511719Y130830D03*
D68*
X126230Y131221D03*
D22*
X135814Y131221D03*
D28*
X223042Y131221D03*
D50*
X236146Y131221D03*
D48*
X248859Y131221D03*
X257073Y131221D03*
D52*
X272720Y131221D03*
D45*
X290518Y131221D03*
D138*
X319268Y131221D03*
D31*
X384200Y131221D03*
D52*
X465171Y131221D03*
D33*
X512696Y131221D03*
D42*
X126035Y131613D03*
D142*
X139921Y131613D03*
D141*
X219326Y131613D03*
D50*
X236146Y131613D03*
D48*
X248859Y131613D03*
D45*
X257269Y131613D03*
D52*
X273111Y131613D03*
D45*
X290909Y131613D03*
D89*
X320246Y131613D03*
D31*
X385765Y131613D03*
D90*
X464779Y131613D03*
D33*
X513870Y131613D03*
D94*
X125839Y132004D03*
D209*
X143637Y132004D03*
D124*
X215219Y132004D03*
D50*
X236146Y132004D03*
D48*
X248859Y132004D03*
D45*
X257269Y132004D03*
D52*
X273502Y132004D03*
D45*
X291300Y132004D03*
D50*
X310467Y132004D03*
D123*
X325526Y132004D03*
D31*
X386547Y132004D03*
D50*
X464584Y132004D03*
D31*
X514848Y132004D03*
D99*
X125644Y132395D03*
D210*
X146375Y132395D03*
D89*
X211894Y132395D03*
D50*
X236146Y132395D03*
X248663Y132395D03*
D45*
X257269Y132395D03*
D52*
X273893Y132395D03*
D94*
X291691Y132395D03*
D53*
X310467Y132395D03*
D123*
X327482Y132395D03*
D38*
X387330Y132395D03*
D48*
X464388Y132395D03*
D31*
X516021Y132395D03*
D48*
X125252Y132786D03*
D132*
X149504Y132786D03*
D211*
X204071Y132786D03*
D50*
X236146Y132786D03*
X248663Y132786D03*
D48*
X257465Y132786D03*
D52*
X274284Y132786D03*
D94*
X292082Y132786D03*
D52*
X310662Y132786D03*
D26*
X330611Y132786D03*
D45*
X387916Y132786D03*
D48*
X463997Y132786D03*
D29*
X516999Y132786D03*
D46*
X124861Y133177D03*
D212*
X176886Y133177D03*
D46*
X219131Y133177D03*
D101*
X236146Y133177D03*
X248663Y133177D03*
D102*
X257660Y133177D03*
D93*
X274676Y133177D03*
D46*
X292278Y133177D03*
D93*
X310662Y133177D03*
D84*
X332763Y133177D03*
D93*
X388112Y133177D03*
D46*
X463997Y133177D03*
D83*
X517782Y133177D03*
D48*
X124470Y133568D03*
D213*
X176494Y133568D03*
D52*
X219131Y133568D03*
D50*
X236146Y133568D03*
D52*
X248468Y133568D03*
D45*
X257660Y133568D03*
D53*
X274871Y133568D03*
D48*
X292669Y133568D03*
D53*
X310858Y133568D03*
D105*
X333741Y133568D03*
D50*
X463801Y133568D03*
D65*
X518759Y133568D03*
D48*
X124079Y133960D03*
D42*
X138943Y133960D03*
D214*
X180210Y133960D03*
D52*
X219131Y133960D03*
D50*
X236146Y133960D03*
D52*
X248468Y133960D03*
D45*
X257660Y133960D03*
D92*
X275262Y133960D03*
D50*
X292865Y133960D03*
D53*
X310858Y133960D03*
D48*
X326700Y133960D03*
D91*
X337457Y133960D03*
D50*
X463410Y133960D03*
D98*
X519542Y133960D03*
D48*
X123688Y134351D03*
D94*
X138748Y134351D03*
D215*
X174734Y134351D03*
D77*
X206809Y134351D03*
D52*
X219131Y134351D03*
X235951Y134351D03*
D53*
X248272Y134351D03*
D45*
X257660Y134351D03*
D92*
X275654Y134351D03*
D50*
X293256Y134351D03*
D196*
X311053Y134351D03*
D50*
X326895Y134351D03*
D40*
X340195Y134351D03*
D50*
X463410Y134351D03*
D98*
X520715Y134351D03*
D50*
X123492Y134742D03*
D42*
X138552Y134742D03*
D50*
X150482Y134742D03*
D14*
X176103Y134742D03*
D48*
X204267Y134742D03*
D52*
X219131Y134742D03*
X235951Y134742D03*
D53*
X248272Y134742D03*
D45*
X257660Y134742D03*
D92*
X276045Y134742D03*
D52*
X293451Y134742D03*
D92*
X311249Y134742D03*
D52*
X327091Y134742D03*
D40*
X341760Y134742D03*
D50*
X463019Y134742D03*
D157*
X521693Y134742D03*
D50*
X123101Y135133D03*
D45*
X138356Y135133D03*
D52*
X149896Y135133D03*
D60*
X162999Y135133D03*
D40*
X178646Y135133D03*
D25*
X190967Y135133D03*
D50*
X204462Y135133D03*
D52*
X219131Y135133D03*
X235951Y135133D03*
D189*
X248077Y135133D03*
D45*
X257660Y135133D03*
D92*
X276045Y135133D03*
D52*
X293842Y135133D03*
D92*
X311249Y135133D03*
D53*
X327287Y135133D03*
D22*
X343129Y135133D03*
D52*
X462824Y135133D03*
D29*
X522867Y135133D03*
D52*
X122906Y135524D03*
D45*
X137965Y135524D03*
D52*
X149896Y135524D03*
D50*
X163782Y135524D03*
D80*
X181971Y135524D03*
D50*
X193901Y135524D03*
D53*
X204462Y135524D03*
D52*
X219131Y135524D03*
X235951Y135524D03*
D55*
X248272Y135524D03*
D45*
X257660Y135524D03*
D53*
X276436Y135524D03*
D52*
X294234Y135524D03*
D92*
X311249Y135524D03*
X327678Y135524D03*
D26*
X344693Y135524D03*
D50*
X462628Y135524D03*
D98*
X523845Y135524D03*
D92*
X122710Y135915D03*
D44*
X137770Y135915D03*
D52*
X149896Y135915D03*
D50*
X163782Y135915D03*
D44*
X182362Y135915D03*
D52*
X193705Y135915D03*
D53*
X204462Y135915D03*
D52*
X219131Y135915D03*
X235951Y135915D03*
D45*
X257660Y135915D03*
D189*
X276631Y135915D03*
D52*
X294234Y135915D03*
D196*
X311445Y135915D03*
D92*
X327678Y135915D03*
D26*
X347040Y135915D03*
D50*
X462237Y135915D03*
D65*
X524627Y135915D03*
D196*
X122514Y136307D03*
D45*
X137574Y136307D03*
D53*
X149700Y136307D03*
D52*
X163977Y136307D03*
D44*
X182362Y136307D03*
D52*
X193314Y136307D03*
D53*
X204462Y136307D03*
D50*
X218935Y136307D03*
D52*
X235951Y136307D03*
D45*
X257660Y136307D03*
D200*
X276436Y136307D03*
D52*
X294625Y136307D03*
D92*
X311640Y136307D03*
X328069Y136307D03*
D142*
X348409Y136307D03*
D50*
X461846Y136307D03*
D65*
X525409Y136307D03*
D216*
X122319Y136698D03*
D107*
X136987Y136698D03*
D93*
X149504Y136698D03*
D101*
X164173Y136698D03*
D107*
X182362Y136698D03*
D93*
X193314Y136698D03*
D195*
X204462Y136698D03*
D101*
X218935Y136698D03*
X235755Y136698D03*
D102*
X257660Y136698D03*
D217*
X276240Y136698D03*
D101*
X294820Y136698D03*
D218*
X311640Y136698D03*
X328069Y136698D03*
D102*
X342151Y136698D03*
D219*
X352516Y136698D03*
D46*
X461650Y136698D03*
D106*
X526191Y136698D03*
D71*
X136401Y137089D03*
D52*
X149504Y137089D03*
D50*
X164173Y137089D03*
D45*
X182166Y137089D03*
D52*
X193314Y137089D03*
D53*
X204462Y137089D03*
D50*
X218935Y137089D03*
D52*
X235560Y137089D03*
D45*
X257660Y137089D03*
D90*
X295016Y137089D03*
D92*
X311640Y137089D03*
X328069Y137089D03*
D48*
X342346Y137089D03*
D30*
X354081Y137089D03*
D169*
X461455Y137089D03*
D27*
X527169Y137089D03*
D68*
X136009Y137480D03*
D52*
X149504Y137480D03*
D50*
X164173Y137480D03*
D48*
X182362Y137480D03*
D52*
X192923Y137480D03*
D53*
X204462Y137480D03*
D50*
X218935Y137480D03*
D52*
X235560Y137480D03*
D45*
X257660Y137480D03*
D90*
X295016Y137480D03*
D92*
X311640Y137480D03*
D196*
X328265Y137480D03*
D48*
X342346Y137480D03*
D54*
X355450Y137480D03*
D50*
X461063Y137480D03*
D65*
X528147Y137480D03*
D68*
X136009Y137871D03*
D52*
X149504Y137871D03*
X164368Y137871D03*
D48*
X182362Y137871D03*
D52*
X192923Y137871D03*
X204267Y137871D03*
D50*
X218935Y137871D03*
X235364Y137871D03*
D48*
X257465Y137871D03*
D90*
X295407Y137871D03*
D196*
X311836Y137871D03*
D53*
X328460Y137871D03*
D45*
X342542Y137871D03*
D30*
X356819Y137871D03*
D48*
X460868Y137871D03*
D29*
X529125Y137871D03*
D68*
X135618Y138262D03*
D52*
X149504Y138262D03*
X164368Y138262D03*
D48*
X181971Y138262D03*
D50*
X192728Y138262D03*
D92*
X204071Y138262D03*
D50*
X218935Y138262D03*
D52*
X235168Y138262D03*
D48*
X257465Y138262D03*
D90*
X295407Y138262D03*
D196*
X311836Y138262D03*
D53*
X328460Y138262D03*
D48*
X342737Y138262D03*
D40*
X358188Y138262D03*
D48*
X460477Y138262D03*
D29*
X530299Y138262D03*
D68*
X135227Y138654D03*
D52*
X149504Y138654D03*
D50*
X164564Y138654D03*
D48*
X181971Y138654D03*
D50*
X192336Y138654D03*
D92*
X204071Y138654D03*
D50*
X218935Y138654D03*
D52*
X235168Y138654D03*
D50*
X257269Y138654D03*
D92*
X295603Y138654D03*
D53*
X312031Y138654D03*
X328460Y138654D03*
D45*
X342933Y138654D03*
D51*
X360340Y138654D03*
D48*
X460085Y138654D03*
D31*
X531277Y138654D03*
D80*
X134640Y139045D03*
D53*
X149309Y139045D03*
D50*
X164564Y139045D03*
X181775Y139045D03*
D52*
X192141Y139045D03*
D92*
X204071Y139045D03*
D50*
X218544Y139045D03*
D52*
X234777Y139045D03*
D50*
X257269Y139045D03*
D92*
X295603Y139045D03*
D53*
X312031Y139045D03*
D189*
X328656Y139045D03*
D48*
X343129Y139045D03*
D34*
X362491Y139045D03*
D48*
X459694Y139045D03*
D31*
X532059Y139045D03*
D41*
X134249Y139436D03*
D53*
X149309Y139436D03*
D50*
X164564Y139436D03*
X181384Y139436D03*
D52*
X191750Y139436D03*
D90*
X203876Y139436D03*
D50*
X218544Y139436D03*
D52*
X234777Y139436D03*
D50*
X257269Y139436D03*
D196*
X295798Y139436D03*
D53*
X312031Y139436D03*
D189*
X328656Y139436D03*
D48*
X343129Y139436D03*
D32*
X364251Y139436D03*
D48*
X459303Y139436D03*
D29*
X532646Y139436D03*
D183*
X133858Y139827D03*
D195*
X149309Y139827D03*
D220*
X164760Y139827D03*
D101*
X181384Y139827D03*
D195*
X191554Y139827D03*
D218*
X203680Y139827D03*
D101*
X218544Y139827D03*
D93*
X234386Y139827D03*
D101*
X257269Y139827D03*
D221*
X295798Y139827D03*
D195*
X312031Y139827D03*
D176*
X328656Y139827D03*
D101*
X343324Y139827D03*
D194*
X365425Y139827D03*
D102*
X459108Y139827D03*
D36*
X533819Y139827D03*
D71*
X133662Y140218D03*
D52*
X149113Y140218D03*
D90*
X164760Y140218D03*
X181188Y140218D03*
D53*
X191554Y140218D03*
D92*
X203680Y140218D03*
D48*
X218349Y140218D03*
D50*
X234191Y140218D03*
X257269Y140218D03*
D222*
X295798Y140218D03*
D53*
X312031Y140218D03*
D189*
X328656Y140218D03*
D50*
X343324Y140218D03*
D51*
X366598Y140218D03*
D45*
X458716Y140218D03*
D33*
X534993Y140218D03*
D44*
X133467Y140609D03*
D90*
X148722Y140609D03*
D50*
X164564Y140609D03*
D90*
X181188Y140609D03*
D200*
X191554Y140609D03*
D92*
X203680Y140609D03*
D50*
X218153Y140609D03*
D52*
X233995Y140609D03*
X257073Y140609D03*
D199*
X295994Y140609D03*
D53*
X312031Y140609D03*
D189*
X328656Y140609D03*
D50*
X343715Y140609D03*
D56*
X368163Y140609D03*
D94*
X458325Y140609D03*
D38*
X535970Y140609D03*
D50*
X133271Y141000D03*
D169*
X148527Y141000D03*
D52*
X164368Y141000D03*
D50*
X180993Y141000D03*
D200*
X191554Y141000D03*
D53*
X203289Y141000D03*
D50*
X218153Y141000D03*
D52*
X233604Y141000D03*
X257073Y141000D03*
D200*
X312031Y141000D03*
D189*
X328656Y141000D03*
D50*
X343715Y141000D03*
D96*
X370901Y141000D03*
D94*
X457934Y141000D03*
D61*
X536948Y141000D03*
D196*
X132685Y141392D03*
D50*
X148135Y141392D03*
D52*
X164368Y141392D03*
D50*
X180602Y141392D03*
D222*
X191750Y141392D03*
D53*
X203289Y141392D03*
D52*
X217957Y141392D03*
X233604Y141392D03*
X256682Y141392D03*
D199*
X312423Y141392D03*
D55*
X328851Y141392D03*
D50*
X343715Y141392D03*
D27*
X373052Y141392D03*
D45*
X457543Y141392D03*
D41*
X537926Y141392D03*
D222*
X132685Y141783D03*
D50*
X147744Y141783D03*
D52*
X164368Y141783D03*
X180406Y141783D03*
D171*
X191750Y141783D03*
D200*
X203289Y141783D03*
D50*
X217762Y141783D03*
D90*
X233213Y141783D03*
D52*
X256682Y141783D03*
D55*
X328851Y141783D03*
D90*
X343911Y141783D03*
D95*
X374813Y141783D03*
D44*
X456956Y141783D03*
D41*
X538709Y141783D03*
D171*
X132685Y142174D03*
D48*
X147549Y142174D03*
D52*
X164368Y142174D03*
D50*
X180210Y142174D03*
D200*
X203289Y142174D03*
D52*
X217566Y142174D03*
X232821Y142174D03*
X256682Y142174D03*
D199*
X328851Y142174D03*
D90*
X343911Y142174D03*
D96*
X376377Y142174D03*
D44*
X456565Y142174D03*
D80*
X539491Y142174D03*
D50*
X147353Y142565D03*
D52*
X164368Y142565D03*
D50*
X179819Y142565D03*
X217371Y142565D03*
D53*
X232626Y142565D03*
D52*
X256682Y142565D03*
D90*
X343911Y142565D03*
D23*
X377746Y142565D03*
D44*
X456174Y142565D03*
D61*
X540469Y142565D03*
D101*
X146962Y142956D03*
D195*
X164173Y142956D03*
D101*
X179428Y142956D03*
D223*
X216980Y142956D03*
D93*
X232430Y142956D03*
X256682Y142956D03*
D220*
X343911Y142956D03*
D224*
X378724Y142956D03*
D107*
X455783Y142956D03*
D183*
X541447Y142956D03*
D52*
X146766Y143347D03*
D53*
X164173Y143347D03*
D50*
X179037Y143347D03*
D169*
X216980Y143347D03*
D52*
X232039Y143347D03*
D92*
X256487Y143347D03*
D90*
X343911Y143347D03*
D75*
X379898Y143347D03*
D80*
X455392Y143347D03*
X542229Y143347D03*
D50*
X146571Y143739D03*
D53*
X164173Y143739D03*
D52*
X178841Y143739D03*
D48*
X216784Y143739D03*
D50*
X231844Y143739D03*
D92*
X256487Y143739D03*
D90*
X343911Y143739D03*
D23*
X381658Y143739D03*
D80*
X455000Y143739D03*
X543403Y143739D03*
D50*
X146180Y144130D03*
D189*
X163977Y144130D03*
D50*
X178255Y144130D03*
D48*
X216393Y144130D03*
D52*
X231257Y144130D03*
D90*
X256291Y144130D03*
X343911Y144130D03*
D81*
X383223Y144130D03*
D61*
X454414Y144130D03*
X543989Y144130D03*
D50*
X145788Y144521D03*
D189*
X163977Y144521D03*
D169*
X177864Y144521D03*
D50*
X216197Y144521D03*
D52*
X230866Y144521D03*
D92*
X256096Y144521D03*
D90*
X343911Y144521D03*
D17*
X384396Y144521D03*
D38*
X453827Y144521D03*
D31*
X486684Y144521D03*
D61*
X545163Y144521D03*
D50*
X145397Y144912D03*
D53*
X163782Y144912D03*
D90*
X177668Y144912D03*
D50*
X215806Y144912D03*
X230279Y144912D03*
D90*
X255900Y144912D03*
X343911Y144912D03*
D35*
X385569Y144912D03*
D39*
X453436Y144912D03*
D40*
X487271Y144912D03*
D61*
X545945Y144912D03*
D50*
X145006Y145303D03*
D53*
X163391Y145303D03*
D90*
X177668Y145303D03*
D52*
X215610Y145303D03*
D50*
X229888Y145303D03*
D92*
X255704Y145303D03*
X343715Y145303D03*
D40*
X387134Y145303D03*
D39*
X453045Y145303D03*
D91*
X487271Y145303D03*
D61*
X547119Y145303D03*
D50*
X144615Y145694D03*
D52*
X163195Y145694D03*
D92*
X177472Y145694D03*
D52*
X215219Y145694D03*
D48*
X229692Y145694D03*
D92*
X255704Y145694D03*
D52*
X343520Y145694D03*
D22*
X388894Y145694D03*
D29*
X452849Y145694D03*
D66*
X487075Y145694D03*
D60*
X547901Y145694D03*
D50*
X144224Y146086D03*
X162999Y146086D03*
D199*
X177472Y146086D03*
D50*
X215024Y146086D03*
D48*
X229301Y146086D03*
D92*
X255704Y146086D03*
D52*
X343520Y146086D03*
D24*
X391046Y146086D03*
D76*
X452849Y146086D03*
D122*
X486880Y146086D03*
D61*
X549074Y146086D03*
D93*
X143637Y146477D03*
D101*
X162608Y146477D03*
D93*
X214828Y146477D03*
D101*
X229105Y146477D03*
D221*
X255509Y146477D03*
D93*
X343520Y146477D03*
D188*
X393002Y146477D03*
D116*
X452458Y146477D03*
D225*
X486880Y146477D03*
D59*
X550052Y146477D03*
D53*
X143441Y146868D03*
D50*
X162217Y146868D03*
X214633Y146868D03*
D53*
X228323Y146868D03*
D196*
X255509Y146868D03*
D53*
X343324Y146868D03*
D18*
X394957Y146868D03*
D51*
X452262Y146868D03*
D17*
X480230Y146868D03*
D21*
X494508Y146868D03*
D39*
X550835Y146868D03*
D226*
X143441Y147259D03*
D50*
X161826Y147259D03*
X214241Y147259D03*
D55*
X227932Y147259D03*
D196*
X255509Y147259D03*
D53*
X343324Y147259D03*
D66*
X396718Y147259D03*
D22*
X452262Y147259D03*
D43*
X479252Y147259D03*
D23*
X495877Y147259D03*
D33*
X551812Y147259D03*
D99*
X161630Y147650D03*
D48*
X214046Y147650D03*
D222*
X227736Y147650D03*
X255509Y147650D03*
D53*
X342933Y147650D03*
D141*
X398478Y147650D03*
D27*
X448937Y147650D03*
D80*
X457347Y147650D03*
D134*
X478274Y147650D03*
D51*
X496854Y147650D03*
D38*
X552790Y147650D03*
D48*
X161239Y148041D03*
D99*
X213655Y148041D03*
D171*
X227736Y148041D03*
D53*
X342933Y148041D03*
D87*
X399847Y148041D03*
D27*
X448155Y148041D03*
D38*
X458130Y148041D03*
D145*
X477492Y148041D03*
D40*
X497441Y148041D03*
D38*
X553964Y148041D03*
D48*
X160848Y148433D03*
X213263Y148433D03*
D53*
X342933Y148433D03*
D185*
X401607Y148433D03*
D95*
X447177Y148433D03*
D98*
X459303Y148433D03*
D56*
X473385Y148433D03*
D45*
X483359Y148433D03*
D44*
X493334Y148433D03*
D75*
X500375Y148433D03*
D61*
X554942Y148433D03*
D48*
X160457Y148824D03*
D50*
X213068Y148824D03*
D53*
X342933Y148824D03*
D131*
X404345Y148824D03*
D21*
X446395Y148824D03*
D210*
X466735Y148824D03*
D48*
X483555Y148824D03*
X492943Y148824D03*
D95*
X501548Y148824D03*
D38*
X555920Y148824D03*
D48*
X160066Y149215D03*
X212872Y149215D03*
D52*
X342737Y149215D03*
D156*
X406105Y149215D03*
D25*
X445221Y149215D03*
D141*
X466148Y149215D03*
D50*
X483751Y149215D03*
D45*
X492747Y149215D03*
D27*
X502917Y149215D03*
D61*
X556898Y149215D03*
D46*
X159675Y149606D03*
X212481Y149606D03*
D93*
X342737Y149606D03*
D227*
X408648Y149606D03*
D136*
X444048Y149606D03*
D103*
X466148Y149606D03*
D101*
X483751Y149606D03*
D46*
X492552Y149606D03*
D184*
X504287Y149606D03*
D180*
X557875Y149606D03*
D48*
X159283Y149997D03*
D50*
X211894Y149997D03*
D52*
X342346Y149997D03*
D228*
X411190Y149997D03*
D40*
X441897Y149997D03*
D24*
X466148Y149997D03*
D50*
X483751Y149997D03*
D48*
X492552Y149997D03*
D23*
X505264Y149997D03*
D38*
X558658Y149997D03*
D48*
X158892Y150388D03*
D50*
X211503Y150388D03*
D52*
X341955Y150388D03*
D229*
X424685Y150388D03*
D54*
X466540Y150388D03*
D52*
X483946Y150388D03*
D48*
X492552Y150388D03*
D34*
X505656Y150388D03*
D38*
X559831Y150388D03*
D48*
X158501Y150779D03*
D50*
X211112Y150779D03*
D52*
X341955Y150779D03*
D230*
X425663Y150779D03*
D25*
X467126Y150779D03*
D52*
X483946Y150779D03*
D48*
X492552Y150779D03*
D56*
X506242Y150779D03*
D63*
X560809Y150779D03*
D44*
X157719Y151171D03*
D50*
X211112Y151171D03*
X341760Y151171D03*
D231*
X426055Y151171D03*
D45*
X470060Y151171D03*
D52*
X483946Y151171D03*
D50*
X492356Y151171D03*
D52*
X501940Y151171D03*
D98*
X509372Y151171D03*
D33*
X561983Y151171D03*
D45*
X157523Y151562D03*
D50*
X210721Y151562D03*
D52*
X341564Y151562D03*
D163*
X424490Y151562D03*
D52*
X470647Y151562D03*
X483946Y151562D03*
D50*
X492356Y151562D03*
D52*
X501940Y151562D03*
D98*
X510545Y151562D03*
D31*
X562961Y151562D03*
D45*
X157132Y151953D03*
D50*
X210330Y151953D03*
X341368Y151953D03*
D11*
X424685Y151953D03*
D90*
X471038Y151953D03*
D52*
X483946Y151953D03*
D50*
X492356Y151953D03*
D53*
X501744Y151953D03*
D65*
X512110Y151953D03*
D157*
X563938Y151953D03*
D45*
X156741Y152344D03*
D52*
X210134Y152344D03*
X341173Y152344D03*
D123*
X427228Y152344D03*
D90*
X471038Y152344D03*
D52*
X483946Y152344D03*
D50*
X492356Y152344D03*
D53*
X501744Y152344D03*
D96*
X512892Y152344D03*
D98*
X565307Y152344D03*
D102*
X156350Y152735D03*
D101*
X209939Y152735D03*
D221*
X341173Y152735D03*
D19*
X427619Y152735D03*
D220*
X471429Y152735D03*
D93*
X483946Y152735D03*
X492161Y152735D03*
D195*
X501744Y152735D03*
D232*
X513283Y152735D03*
D97*
X566285Y152735D03*
D45*
X155959Y153126D03*
D50*
X209547Y153126D03*
D90*
X471429Y153126D03*
D52*
X483946Y153126D03*
X492161Y153126D03*
X501548Y153126D03*
D34*
X513870Y153126D03*
D65*
X567263Y153126D03*
D45*
X155567Y153518D03*
D48*
X209352Y153518D03*
D50*
X471625Y153518D03*
D52*
X483946Y153518D03*
X492161Y153518D03*
X501548Y153518D03*
D169*
X510350Y153518D03*
D98*
X516412Y153518D03*
D27*
X568632Y153518D03*
D48*
X154589Y153909D03*
D50*
X208765Y153909D03*
D48*
X471820Y153909D03*
D52*
X483555Y153909D03*
D53*
X491965Y153909D03*
D52*
X501548Y153909D03*
D169*
X510350Y153909D03*
D29*
X517390Y153909D03*
D98*
X569610Y153909D03*
D52*
X154198Y154300D03*
D50*
X208374Y154300D03*
D48*
X472211Y154300D03*
D52*
X483555Y154300D03*
D53*
X491965Y154300D03*
D52*
X501548Y154300D03*
D90*
X510154Y154300D03*
D157*
X518564Y154300D03*
D76*
X570197Y154300D03*
D52*
X153807Y154691D03*
D50*
X207983Y154691D03*
D48*
X472211Y154691D03*
D52*
X483555Y154691D03*
D189*
X491769Y154691D03*
D50*
X501353Y154691D03*
D90*
X510154Y154691D03*
D29*
X519737Y154691D03*
D96*
X571566Y154691D03*
D48*
X153416Y155082D03*
D50*
X207592Y155082D03*
D45*
X472407Y155082D03*
D189*
X483555Y155082D03*
X491769Y155082D03*
D48*
X501157Y155082D03*
D90*
X510154Y155082D03*
D31*
X521498Y155082D03*
D27*
X572935Y155082D03*
D50*
X152829Y155473D03*
D48*
X207396Y155473D03*
D45*
X472407Y155473D03*
D222*
X483946Y155473D03*
X491769Y155473D03*
D48*
X501157Y155473D03*
D90*
X510154Y155473D03*
D29*
X522475Y155473D03*
D95*
X574304Y155473D03*
D52*
X152243Y155865D03*
D48*
X207005Y155865D03*
D45*
X472407Y155865D03*
D171*
X483946Y155865D03*
D199*
X491574Y155865D03*
D45*
X500962Y155865D03*
D90*
X510154Y155865D03*
D27*
X522867Y155865D03*
D114*
X575282Y155865D03*
D218*
X152047Y156256D03*
D101*
X206418Y156256D03*
D102*
X472407Y156256D03*
D46*
X500766Y156256D03*
D220*
X510154Y156256D03*
D232*
X523453Y156256D03*
D203*
X576064Y156256D03*
D196*
X151851Y156647D03*
D50*
X206027Y156647D03*
D45*
X472016Y156647D03*
D48*
X500766Y156647D03*
D52*
X509763Y156647D03*
D90*
X520324Y156647D03*
D31*
X525409Y156647D03*
D58*
X577238Y156647D03*
D52*
X205440Y157038D03*
D45*
X472016Y157038D03*
D94*
X500571Y157038D03*
D52*
X509763Y157038D03*
D92*
X520129Y157038D03*
D31*
X526583Y157038D03*
D21*
X578216Y157038D03*
D50*
X205245Y157429D03*
D48*
X471820Y157429D03*
D45*
X500179Y157429D03*
D52*
X509763Y157429D03*
D90*
X519933Y157429D03*
D33*
X527952Y157429D03*
D25*
X578998Y157429D03*
D50*
X204854Y157820D03*
D48*
X471820Y157820D03*
X499984Y157820D03*
D52*
X509372Y157820D03*
D90*
X519933Y157820D03*
D31*
X529321Y157820D03*
D23*
X579976Y157820D03*
D50*
X204854Y158212D03*
X471625Y158212D03*
D45*
X499788Y158212D03*
D52*
X509372Y158212D03*
D90*
X519933Y158212D03*
D33*
X530299Y158212D03*
D199*
X560027Y158212D03*
D114*
X581541Y158212D03*
D50*
X204462Y158603D03*
D90*
X471429Y158603D03*
D48*
X499593Y158603D03*
D52*
X508980Y158603D03*
D90*
X519933Y158603D03*
D63*
X531472Y158603D03*
D53*
X560418Y158603D03*
D95*
X582910Y158603D03*
D90*
X203876Y158994D03*
X471429Y158994D03*
D48*
X499201Y158994D03*
D50*
X508785Y158994D03*
X519737Y158994D03*
D33*
X532254Y158994D03*
D50*
X560809Y158994D03*
D95*
X584083Y158994D03*
D195*
X203289Y159385D03*
D218*
X471234Y159385D03*
D102*
X499006Y159385D03*
D101*
X508394Y159385D03*
X519737Y159385D03*
D62*
X533819Y159385D03*
D102*
X561200Y159385D03*
D184*
X584865Y159385D03*
D52*
X202702Y159776D03*
D196*
X471038Y159776D03*
D48*
X498810Y159776D03*
D50*
X508394Y159776D03*
X519737Y159776D03*
D38*
X534406Y159776D03*
D80*
X562178Y159776D03*
D96*
X585648Y159776D03*
D50*
X202507Y160167D03*
D196*
X471038Y160167D03*
D50*
X498615Y160167D03*
X508003Y160167D03*
X519737Y160167D03*
D31*
X535188Y160167D03*
X563352Y160167D03*
D76*
X587017Y160167D03*
D50*
X202115Y160558D03*
D200*
X470842Y160558D03*
D50*
X498224Y160558D03*
D52*
X507807Y160558D03*
D50*
X519346Y160558D03*
D27*
X535775Y160558D03*
D157*
X563938Y160558D03*
D98*
X588386Y160558D03*
D52*
X201529Y160950D03*
D199*
X470842Y160950D03*
D48*
X498028Y160950D03*
D52*
X507807Y160950D03*
D50*
X519346Y160950D03*
D96*
X536362Y160950D03*
D31*
X564916Y160950D03*
D98*
X589559Y160950D03*
D52*
X201138Y161341D03*
D48*
X497637Y161341D03*
D50*
X507611Y161341D03*
D48*
X519151Y161341D03*
D75*
X536753Y161341D03*
D33*
X566285Y161341D03*
D65*
X590342Y161341D03*
D90*
X200746Y161732D03*
D99*
X497246Y161732D03*
D50*
X507220Y161732D03*
D48*
X519151Y161732D03*
D52*
X533624Y161732D03*
D38*
X539100Y161732D03*
D39*
X567263Y161732D03*
D27*
X590928Y161732D03*
D52*
X200355Y162123D03*
D50*
X497050Y162123D03*
X506829Y162123D03*
D48*
X519151Y162123D03*
D196*
X533624Y162123D03*
D61*
X540078Y162123D03*
D60*
X567850Y162123D03*
D29*
X592102Y162123D03*
D93*
X199964Y162514D03*
D46*
X496463Y162514D03*
D101*
X506438Y162514D03*
D46*
X518759Y162514D03*
D221*
X533624Y162514D03*
D183*
X541447Y162514D03*
D107*
X568437Y162514D03*
D144*
X593080Y162514D03*
D52*
X199573Y162905D03*
D48*
X496072Y162905D03*
X506242Y162905D03*
D45*
X518564Y162905D03*
D196*
X533624Y162905D03*
D61*
X542425Y162905D03*
D90*
X569219Y162905D03*
D65*
X593862Y162905D03*
D52*
X199573Y163297D03*
D48*
X495681Y163297D03*
D50*
X506047Y163297D03*
D48*
X518368Y163297D03*
D53*
X533819Y163297D03*
D80*
X543403Y163297D03*
D222*
X569610Y163297D03*
D98*
X595427Y163297D03*
D48*
X495290Y163688D03*
D50*
X505656Y163688D03*
D45*
X518173Y163688D03*
D53*
X533819Y163688D03*
D60*
X544380Y163688D03*
D98*
X596209Y163688D03*
D45*
X494703Y164079D03*
D50*
X505264Y164079D03*
D48*
X517977Y164079D03*
D53*
X533819Y164079D03*
D61*
X545163Y164079D03*
D98*
X597383Y164079D03*
D99*
X494116Y164470D03*
D48*
X504678Y164470D03*
X517586Y164470D03*
D53*
X534210Y164470D03*
D61*
X546336Y164470D03*
D29*
X598361Y164470D03*
D48*
X493725Y164861D03*
X504287Y164861D03*
D45*
X517390Y164861D03*
D53*
X534210Y164861D03*
D33*
X547510Y164861D03*
D31*
X599338Y164861D03*
D48*
X493334Y165252D03*
D99*
X503895Y165252D03*
D94*
X516999Y165252D03*
D52*
X534015Y165252D03*
D31*
X548096Y165252D03*
D33*
X600316Y165252D03*
D48*
X492943Y165644D03*
X503504Y165644D03*
D99*
X516804Y165644D03*
D52*
X534015Y165644D03*
D29*
X548683Y165644D03*
D31*
X601294Y165644D03*
D101*
X492747Y166035D03*
D102*
X502917Y166035D03*
D46*
X516412Y166035D03*
D93*
X534015Y166035D03*
D106*
X549270Y166035D03*
D144*
X602077Y166035D03*
D53*
X492747Y166426D03*
D45*
X502526Y166426D03*
D50*
X515826Y166426D03*
D52*
X534015Y166426D03*
D114*
X549857Y166426D03*
D31*
X602859Y166426D03*
D49*
X492552Y166817D03*
D44*
X501940Y166817D03*
D52*
X515630Y166817D03*
D53*
X533819Y166817D03*
D23*
X550639Y166817D03*
D33*
X603837Y166817D03*
D71*
X501353Y167208D03*
D52*
X515239Y167208D03*
D53*
X533819Y167208D03*
D45*
X547901Y167208D03*
D41*
X553964Y167208D03*
D38*
X604815Y167208D03*
D42*
X500766Y167599D03*
D189*
X514848Y167599D03*
D53*
X533819Y167599D03*
D52*
X547705Y167599D03*
D61*
X554942Y167599D03*
X605793Y167599D03*
D94*
X500571Y167991D03*
D55*
X514652Y167991D03*
D53*
X533819Y167991D03*
D52*
X547705Y167991D03*
D61*
X555724Y167991D03*
D60*
X606966Y167991D03*
D48*
X499984Y168382D03*
D199*
X514261Y168382D03*
D196*
X533624Y168382D03*
D53*
X547901Y168382D03*
D61*
X556898Y168382D03*
X608140Y168382D03*
D50*
X499788Y168773D03*
D196*
X533624Y168773D03*
D52*
X548096Y168773D03*
D41*
X557875Y168773D03*
D61*
X608922Y168773D03*
D233*
X499397Y169164D03*
D221*
X533624Y169164D03*
D195*
X548292Y169164D03*
D62*
X558853Y169164D03*
D85*
X610095Y169164D03*
D200*
X533428Y169555D03*
D53*
X548683Y169555D03*
D61*
X560027Y169555D03*
X610878Y169555D03*
D222*
X533232Y169946D03*
D53*
X548683Y169946D03*
D39*
X561005Y169946D03*
D38*
X611856Y169946D03*
D53*
X548683Y170337D03*
D38*
X562178Y170337D03*
D33*
X612833Y170337D03*
D92*
X549074Y170729D03*
D61*
X563156Y170729D03*
D33*
X613616Y170729D03*
D92*
X549074Y171120D03*
D39*
X564134Y171120D03*
D80*
X614985Y171120D03*
D92*
X549074Y171511D03*
D33*
X565112Y171511D03*
D41*
X615767Y171511D03*
D196*
X549270Y171902D03*
D33*
X565894Y171902D03*
D41*
X616549Y171902D03*
D221*
X549270Y172293D03*
D106*
X566481Y172293D03*
D64*
X617332Y172293D03*
D196*
X549270Y172684D03*
D58*
X567068Y172684D03*
D80*
X618505Y172684D03*
D196*
X549270Y173076D03*
D23*
X567850Y173076D03*
D60*
X619483Y173076D03*
D196*
X549270Y173467D03*
D52*
X564525Y173467D03*
D39*
X570393Y173467D03*
D71*
X620265Y173467D03*
D200*
X549466Y173858D03*
D53*
X564330Y173858D03*
D38*
X571566Y173858D03*
D68*
X621048Y173858D03*
D200*
X549466Y174249D03*
D52*
X564134Y174249D03*
D33*
X572153Y174249D03*
D68*
X621830Y174249D03*
D199*
X549466Y174640D03*
D52*
X564134Y174640D03*
D29*
X572935Y174640D03*
D71*
X622612Y174640D03*
D52*
X563743Y175031D03*
D95*
X573522Y175031D03*
D71*
X623395Y175031D03*
D52*
X563352Y175423D03*
D25*
X574304Y175423D03*
D42*
X624373Y175423D03*
D93*
X562961Y175814D03*
D46*
X570784Y175814D03*
D85*
X577238Y175814D03*
D79*
X625351Y175814D03*
D50*
X562765Y176205D03*
X570588Y176205D03*
D80*
X578216Y176205D03*
D71*
X626524Y176205D03*
D50*
X562374Y176596D03*
X570197Y176596D03*
D61*
X579194Y176596D03*
D80*
X627111Y176596D03*
D50*
X561983Y176987D03*
D48*
X570001Y176987D03*
D60*
X580367Y176987D03*
D38*
X627893Y176987D03*
D50*
X561591Y177378D03*
D48*
X569610Y177378D03*
D61*
X581541Y177378D03*
D53*
X607357Y177378D03*
D60*
X628871Y177378D03*
D50*
X561200Y177770D03*
D48*
X569219Y177770D03*
D80*
X582910Y177770D03*
D48*
X607944Y177770D03*
D41*
X629849Y177770D03*
D52*
X561005Y178161D03*
D48*
X568828Y178161D03*
D60*
X583888Y178161D03*
D68*
X608531Y178161D03*
D61*
X630827Y178161D03*
D53*
X560809Y178552D03*
D48*
X568437Y178552D03*
D61*
X584670Y178552D03*
D60*
X609313Y178552D03*
D61*
X631609Y178552D03*
D176*
X560614Y178943D03*
D46*
X568046Y178943D03*
D59*
X585648Y178943D03*
D85*
X610095Y178943D03*
X632391Y178943D03*
D50*
X567850Y179334D03*
D33*
X586626Y179334D03*
D61*
X610486Y179334D03*
D80*
X633369Y179334D03*
D52*
X567654Y179725D03*
D38*
X587995Y179725D03*
D80*
X611464Y179725D03*
D61*
X634347Y179725D03*
D189*
X747197Y179725D03*
D55*
X567459Y180116D03*
D38*
X589559Y180116D03*
D45*
X612442Y180116D03*
D61*
X635130Y180116D03*
D60*
X746219Y180116D03*
D39*
X590342Y180508D03*
D48*
X613029Y180508D03*
D41*
X636107Y180508D03*
D29*
X745437Y180508D03*
D33*
X591711Y180899D03*
D50*
X613225Y180899D03*
D80*
X636890Y180899D03*
D75*
X744850Y180899D03*
D33*
X592884Y181290D03*
D55*
X613616Y181290D03*
D61*
X637477Y181290D03*
D32*
X744068Y181290D03*
D33*
X594058Y181681D03*
D38*
X638063Y181681D03*
D54*
X743481Y181681D03*
D62*
X595231Y182072D03*
D180*
X639237Y182072D03*
D20*
X742699Y182072D03*
D61*
X596014Y182463D03*
D38*
X640019Y182463D03*
D134*
X742307Y182463D03*
D39*
X596991Y182855D03*
D38*
X641193Y182855D03*
D98*
X737809Y182855D03*
D45*
X747392Y182855D03*
D61*
X597969Y183246D03*
D199*
X624959Y183246D03*
D61*
X641779Y183246D03*
D31*
X736244Y183246D03*
D48*
X747588Y183246D03*
D61*
X598752Y183637D03*
D189*
X625155Y183637D03*
D60*
X642562Y183637D03*
D31*
X734289Y183637D03*
D48*
X747588Y183637D03*
D60*
X599925Y184028D03*
D52*
X625546Y184028D03*
D61*
X643344Y184028D03*
D33*
X733311Y184028D03*
D48*
X747588Y184028D03*
D38*
X600903Y184419D03*
D50*
X626133Y184419D03*
D61*
X644126Y184419D03*
D50*
X719229Y184419D03*
D29*
X731746Y184419D03*
D48*
X747588Y184419D03*
D80*
X602468Y184810D03*
D45*
X626915Y184810D03*
D61*
X644909Y184810D03*
D68*
X719229Y184810D03*
D29*
X730964Y184810D03*
D48*
X747588Y184810D03*
D39*
X603250Y185202D03*
D42*
X627893Y185202D03*
D41*
X645886Y185202D03*
D33*
X718838Y185202D03*
D31*
X729986Y185202D03*
D50*
X747784Y185202D03*
D36*
X604228Y185593D03*
D79*
X628871Y185593D03*
D64*
X646669Y185593D03*
D106*
X718642Y185593D03*
D36*
X729008Y185593D03*
D101*
X747784Y185593D03*
D33*
X605010Y185984D03*
D38*
X630240Y185984D03*
D80*
X647842Y185984D03*
D25*
X718251Y185984D03*
D60*
X727443Y185984D03*
D50*
X747784Y185984D03*
D29*
X605793Y186375D03*
D80*
X631414Y186375D03*
D41*
X648625Y186375D03*
D129*
X720402Y186375D03*
D50*
X747784Y186375D03*
D29*
X606966Y186766D03*
D80*
X631805Y186766D03*
D41*
X649407Y186766D03*
D129*
X719620Y186766D03*
D50*
X747784Y186766D03*
D29*
X608531Y187157D03*
D71*
X632391Y187157D03*
D80*
X650189Y187157D03*
D234*
X719033Y187157D03*
D50*
X747784Y187157D03*
D76*
X609704Y187549D03*
D45*
X632783Y187549D03*
D80*
X650972Y187549D03*
D98*
X713557Y187549D03*
X722554Y187549D03*
D48*
X747588Y187549D03*
D98*
X610682Y187940D03*
D52*
X633369Y187940D03*
D60*
X651949Y187940D03*
D31*
X711992Y187940D03*
D33*
X721967Y187940D03*
D50*
X747392Y187940D03*
D27*
X611660Y188331D03*
D52*
X633369Y188331D03*
D80*
X652927Y188331D03*
D157*
X711015Y188331D03*
D61*
X721576Y188331D03*
D50*
X747392Y188331D03*
D167*
X612833Y188722D03*
D235*
X633369Y188722D03*
D73*
X653905Y188722D03*
D83*
X710232Y188722D03*
D73*
X721576Y188722D03*
D46*
X747197Y188722D03*
D95*
X613811Y189113D03*
D68*
X654296Y189113D03*
D29*
X709450Y189113D03*
D44*
X721380Y189113D03*
D48*
X747197Y189113D03*
D27*
X615180Y189504D03*
D71*
X655079Y189504D03*
D31*
X708472Y189504D03*
D44*
X721380Y189504D03*
X746806Y189504D03*
D76*
X616354Y189895D03*
D41*
X656057Y189895D03*
D31*
X707690Y189895D03*
D45*
X721185Y189895D03*
D71*
X746219Y189895D03*
D27*
X617527Y190287D03*
D80*
X657230Y190287D03*
D33*
X706712Y190287D03*
D45*
X721185Y190287D03*
D61*
X745437Y190287D03*
D27*
X618701Y190678D03*
D41*
X658404Y190678D03*
D52*
X697520Y190678D03*
D38*
X705343Y190678D03*
D45*
X721185Y190678D03*
D98*
X744459Y190678D03*
D95*
X619679Y191069D03*
D41*
X659186Y191069D03*
D61*
X696542Y191069D03*
D33*
X704756Y191069D03*
D48*
X721380Y191069D03*
D23*
X742699Y191069D03*
D96*
X620852Y191460D03*
D80*
X659968Y191460D03*
D31*
X696346Y191460D03*
D39*
X704169Y191460D03*
D48*
X721380Y191460D03*
D54*
X740352Y191460D03*
D167*
X621830Y191851D03*
D62*
X660946Y191851D03*
D236*
X698889Y191851D03*
D46*
X721380Y191851D03*
D10*
X738591Y191851D03*
D95*
X622808Y192242D03*
D60*
X661728Y192242D03*
D139*
X697715Y192242D03*
D44*
X721380Y192242D03*
D56*
X737418Y192242D03*
D29*
X623786Y192634D03*
D61*
X662511Y192634D03*
D145*
X696151Y192634D03*
D44*
X721380Y192634D03*
D133*
X733897Y192634D03*
D21*
X625546Y193025D03*
D61*
X663293Y193025D03*
D66*
X694781Y193025D03*
D87*
X728812Y193025D03*
D25*
X626328Y193416D03*
D61*
X664075Y193416D03*
D237*
X693608Y193416D03*
D18*
X726661Y193416D03*
D25*
X627111Y193807D03*
D60*
X664858Y193807D03*
D143*
X692630Y193807D03*
D22*
X725292Y193807D03*
D34*
X628089Y194198D03*
D60*
X665640Y194198D03*
D17*
X687545Y194198D03*
D63*
X697715Y194198D03*
D54*
X723923Y194198D03*
D32*
X629849Y194589D03*
D61*
X666814Y194589D03*
D25*
X685785Y194589D03*
D44*
X698302Y194589D03*
D32*
X722945Y194589D03*
D77*
X631218Y194981D03*
D61*
X667596Y194981D03*
D34*
X684025Y194981D03*
D45*
X698497Y194981D03*
D34*
X721576Y194981D03*
D78*
X632000Y195372D03*
D85*
X668378Y195372D03*
D78*
X682069Y195372D03*
D102*
X698497Y195372D03*
D78*
X719229Y195372D03*
D54*
X633174Y195763D03*
D41*
X668965Y195763D03*
D77*
X680113Y195763D03*
D48*
X698302Y195763D03*
D22*
X716295Y195763D03*
D35*
X633956Y196154D03*
D66*
X675615Y196154D03*
D48*
X698302Y196154D03*
D28*
X714731Y196154D03*
D35*
X635130Y196545D03*
D139*
X675419Y196545D03*
D45*
X698497Y196545D03*
D26*
X713166Y196545D03*
D54*
X636303Y196936D03*
D147*
X675028Y196936D03*
D45*
X698497Y196936D03*
D82*
X711992Y196936D03*
D30*
X638063Y197328D03*
X674441Y197328D03*
D48*
X698693Y197328D03*
D18*
X711015Y197328D03*
D40*
X639823Y197719D03*
D34*
X673854Y197719D03*
D193*
X707494Y197719D03*
D24*
X640997Y198110D03*
D21*
X672876Y198110D03*
D153*
X704560Y198110D03*
D137*
X641975Y198501D03*
D108*
X671703Y198501D03*
D57*
X702605Y198501D03*
D134*
X642953Y198892D03*
D68*
X670334Y198892D03*
D21*
X701431Y198892D03*
D28*
X644322Y199283D03*
D94*
X669943Y199283D03*
D65*
X700649Y199283D03*
D100*
X645691Y199674D03*
D48*
X669356Y199674D03*
D31*
X699867Y199674D03*
D26*
X646669Y200066D03*
D48*
X668965Y200066D03*
D71*
X698497Y200066D03*
D26*
X647842Y200457D03*
D48*
X668574Y200457D03*
D71*
X698106Y200457D03*
D153*
X648625Y200848D03*
D48*
X668183Y200848D03*
D41*
X697520Y200848D03*
D139*
X649602Y201239D03*
D50*
X667987Y201239D03*
D38*
X696737Y201239D03*
D238*
X650580Y201630D03*
D101*
X667596Y201630D03*
D36*
X696151Y201630D03*
D133*
X651754Y202021D03*
D50*
X667205Y202021D03*
D33*
X695368Y202021D03*
D28*
X653318Y202413D03*
D48*
X666618Y202413D03*
D29*
X694195Y202413D03*
D134*
X654296Y202804D03*
D71*
X665249Y202804D03*
D21*
X692434Y202804D03*
D105*
X657621Y203195D03*
D25*
X691261Y203195D03*
D146*
X657621Y203586D03*
D182*
X689501Y203586D03*
D104*
X657426Y203977D03*
D23*
X688327Y203977D03*
D239*
X657035Y204368D03*
D25*
X687349Y204368D03*
D68*
X651167Y204760D03*
D34*
X659381Y204760D03*
D114*
X685980Y204760D03*
D150*
X650776Y205151D03*
D83*
X660164Y205151D03*
D167*
X684807Y205151D03*
D99*
X650580Y205542D03*
D38*
X660751Y205542D03*
D96*
X683829Y205542D03*
D50*
X650385Y205933D03*
D71*
X661337Y205933D03*
D29*
X682069Y205933D03*
D50*
X650385Y206324D03*
D44*
X661533Y206324D03*
D98*
X680700Y206324D03*
D52*
X650189Y206715D03*
D45*
X661728Y206715D03*
D98*
X679917Y206715D03*
D52*
X650189Y207107D03*
D48*
X661924Y207107D03*
D98*
X678744Y207107D03*
D52*
X650189Y207498D03*
D50*
X662120Y207498D03*
D31*
X677179Y207498D03*
D52*
X650189Y207889D03*
D50*
X662120Y207889D03*
D33*
X676201Y207889D03*
D93*
X650189Y208280D03*
X662315Y208280D03*
D83*
X674637Y208280D03*
D52*
X650189Y208671D03*
X662315Y208671D03*
D29*
X673463Y208671D03*
D52*
X650189Y209062D03*
X662315Y209062D03*
D31*
X672485Y209062D03*
D52*
X650189Y209453D03*
X662706Y209453D03*
D86*
X671703Y209453D03*
D25*
X653710Y209845D03*
D48*
X663097Y209845D03*
D33*
X670334Y209845D03*
D152*
X654101Y210236D03*
X667009Y210236D03*
X654101Y210627D03*
D23*
X666422Y210627D03*
D34*
X654296Y211018D03*
D27*
X666031Y211018D03*
D116*
X654688Y211409D03*
D144*
X665836Y211409D03*
D65*
X655665Y211800D03*
D41*
X665444Y211800D03*
D52*
X654492Y212192D03*
D50*
X657817Y212192D03*
D71*
X665249Y212192D03*
D52*
X658012Y212583D03*
D71*
X664467Y212583D03*
D52*
X658012Y212974D03*
D68*
X664075Y212974D03*
D52*
X658012Y213365D03*
D68*
X663684Y213365D03*
D52*
X658012Y213756D03*
D68*
X663293Y213756D03*
D58*
X660946Y214147D03*
D27*
X660555Y214539D03*
D144*
X659968Y214930D03*
D38*
X659968Y215321D03*
D61*
X659773Y215712D03*
D44*
X659577Y216103D03*
D48*
X659577Y216494D03*
D53*
X659773Y216886D03*
M02*
