G04 EAGLE Gerber X2 export*
G75*
%MOMM*%
%FSLAX34Y34*%
%LPD*%
%AMOC8*
5,1,8,0,0,1.08239X$1,22.5*%
G01*
%ADD10C,1.879600*%

G36*
X17901Y36081D02*
X17901Y36081D01*
X18028Y36084D01*
X18101Y36101D01*
X18176Y36109D01*
X18297Y36146D01*
X18420Y36174D01*
X18489Y36205D01*
X18561Y36227D01*
X18672Y36287D01*
X18788Y36339D01*
X18849Y36383D01*
X18915Y36419D01*
X19012Y36499D01*
X19115Y36573D01*
X19167Y36628D01*
X19224Y36676D01*
X19304Y36775D01*
X19390Y36867D01*
X19430Y36931D01*
X19477Y36990D01*
X19535Y37102D01*
X19601Y37210D01*
X19628Y37281D01*
X19662Y37347D01*
X19697Y37469D01*
X19741Y37587D01*
X19753Y37662D01*
X19774Y37734D01*
X19784Y37860D01*
X19804Y37985D01*
X19800Y38060D01*
X19807Y38136D01*
X19792Y38261D01*
X19787Y38387D01*
X19768Y38461D01*
X19760Y38535D01*
X19721Y38655D01*
X19690Y38778D01*
X19658Y38847D01*
X19635Y38918D01*
X19573Y39028D01*
X19519Y39143D01*
X19474Y39203D01*
X19437Y39269D01*
X19354Y39365D01*
X19279Y39466D01*
X19223Y39516D01*
X19174Y39574D01*
X19074Y39651D01*
X18980Y39736D01*
X18906Y39782D01*
X18856Y39820D01*
X18790Y39853D01*
X18698Y39910D01*
X17365Y40589D01*
X15844Y41694D01*
X14516Y43022D01*
X13411Y44543D01*
X12558Y46217D01*
X11977Y48004D01*
X11937Y48261D01*
X23114Y48261D01*
X23132Y48262D01*
X23149Y48261D01*
X23332Y48282D01*
X23514Y48301D01*
X23531Y48306D01*
X23549Y48308D01*
X23627Y48333D01*
X23764Y48294D01*
X23782Y48292D01*
X23799Y48288D01*
X24130Y48261D01*
X35307Y48261D01*
X35267Y48004D01*
X34686Y46217D01*
X33833Y44543D01*
X32728Y43022D01*
X31400Y41694D01*
X29879Y40589D01*
X28546Y39910D01*
X28440Y39842D01*
X28329Y39781D01*
X28271Y39733D01*
X28207Y39692D01*
X28116Y39604D01*
X28020Y39524D01*
X27972Y39465D01*
X27918Y39412D01*
X27846Y39308D01*
X27767Y39210D01*
X27733Y39143D01*
X27690Y39081D01*
X27640Y38965D01*
X27582Y38853D01*
X27561Y38780D01*
X27531Y38711D01*
X27505Y38587D01*
X27470Y38466D01*
X27464Y38391D01*
X27449Y38317D01*
X27448Y38190D01*
X27437Y38064D01*
X27446Y37990D01*
X27446Y37914D01*
X27470Y37790D01*
X27484Y37665D01*
X27508Y37593D01*
X27522Y37519D01*
X27570Y37402D01*
X27609Y37282D01*
X27646Y37216D01*
X27675Y37146D01*
X27745Y37041D01*
X27807Y36931D01*
X27856Y36874D01*
X27898Y36811D01*
X27988Y36722D01*
X28070Y36627D01*
X28130Y36580D01*
X28183Y36527D01*
X28289Y36457D01*
X28388Y36380D01*
X28456Y36346D01*
X28519Y36304D01*
X28636Y36257D01*
X28749Y36200D01*
X28822Y36181D01*
X28892Y36152D01*
X29015Y36129D01*
X29138Y36096D01*
X29225Y36089D01*
X29287Y36077D01*
X29360Y36078D01*
X29468Y36069D01*
X49388Y36069D01*
X49393Y36069D01*
X49397Y36069D01*
X49591Y36089D01*
X49789Y36109D01*
X49793Y36110D01*
X49797Y36110D01*
X49983Y36168D01*
X50174Y36227D01*
X50178Y36229D01*
X50182Y36230D01*
X50353Y36324D01*
X50528Y36419D01*
X50531Y36421D01*
X50535Y36424D01*
X50686Y36551D01*
X50837Y36676D01*
X50840Y36680D01*
X50843Y36683D01*
X50966Y36837D01*
X51089Y36990D01*
X51091Y36994D01*
X51094Y36998D01*
X51184Y37172D01*
X51275Y37347D01*
X51276Y37352D01*
X51278Y37356D01*
X51330Y37539D01*
X51386Y37734D01*
X51387Y37739D01*
X51388Y37743D01*
X51403Y37936D01*
X51419Y38136D01*
X51419Y38140D01*
X51419Y38144D01*
X51395Y38338D01*
X51372Y38535D01*
X51371Y38540D01*
X51370Y38544D01*
X51309Y38728D01*
X51247Y38918D01*
X51245Y38922D01*
X51244Y38926D01*
X51147Y39096D01*
X51049Y39269D01*
X51047Y39272D01*
X51044Y39276D01*
X50913Y39427D01*
X50786Y39574D01*
X50783Y39576D01*
X50780Y39580D01*
X50623Y39700D01*
X50468Y39820D01*
X50464Y39822D01*
X50461Y39825D01*
X50165Y39977D01*
X46391Y41540D01*
X43318Y44613D01*
X41655Y48627D01*
X41655Y52973D01*
X43318Y56987D01*
X46391Y60060D01*
X50405Y61723D01*
X54751Y61723D01*
X58765Y60060D01*
X61838Y56987D01*
X63501Y52973D01*
X63501Y48627D01*
X61838Y44613D01*
X59156Y41931D01*
X59124Y41891D01*
X59086Y41857D01*
X58996Y41736D01*
X58901Y41619D01*
X58877Y41574D01*
X58847Y41533D01*
X58783Y41397D01*
X58712Y41264D01*
X58698Y41215D01*
X58676Y41169D01*
X58640Y41022D01*
X58597Y40878D01*
X58593Y40827D01*
X58581Y40777D01*
X58575Y40627D01*
X58561Y40477D01*
X58566Y40426D01*
X58564Y40375D01*
X58588Y40226D01*
X58604Y40076D01*
X58620Y40028D01*
X58628Y39977D01*
X58680Y39836D01*
X58726Y39693D01*
X58751Y39648D01*
X58768Y39600D01*
X58848Y39472D01*
X58921Y39340D01*
X58954Y39301D01*
X58980Y39258D01*
X59084Y39148D01*
X59181Y39033D01*
X59221Y39002D01*
X59256Y38964D01*
X59379Y38877D01*
X59497Y38784D01*
X59543Y38761D01*
X59584Y38731D01*
X59722Y38670D01*
X59856Y38601D01*
X59905Y38588D01*
X59952Y38567D01*
X60098Y38534D01*
X60244Y38493D01*
X60295Y38490D01*
X60344Y38478D01*
X60495Y38475D01*
X60645Y38464D01*
X60696Y38470D01*
X60747Y38469D01*
X60976Y38506D01*
X61045Y38514D01*
X61058Y38519D01*
X61075Y38521D01*
X399262Y121217D01*
X399312Y121234D01*
X399380Y121249D01*
X697068Y213331D01*
X697175Y213376D01*
X697286Y213412D01*
X697361Y213454D01*
X697439Y213487D01*
X697535Y213553D01*
X697637Y213610D01*
X697701Y213666D01*
X697772Y213714D01*
X697854Y213797D01*
X697942Y213873D01*
X697994Y213941D01*
X698054Y214002D01*
X698117Y214100D01*
X698188Y214191D01*
X698226Y214268D01*
X698273Y214339D01*
X698316Y214448D01*
X698368Y214552D01*
X698390Y214634D01*
X698421Y214714D01*
X698442Y214828D01*
X698472Y214941D01*
X698480Y215041D01*
X698493Y215110D01*
X698492Y215177D01*
X698499Y215271D01*
X698499Y218073D01*
X700162Y222087D01*
X703235Y225160D01*
X705721Y226190D01*
X705799Y226232D01*
X705882Y226265D01*
X705976Y226326D01*
X706076Y226380D01*
X706144Y226436D01*
X706218Y226485D01*
X706299Y226564D01*
X706386Y226636D01*
X706442Y226705D01*
X706505Y226767D01*
X706569Y226861D01*
X706640Y226949D01*
X706681Y227027D01*
X706731Y227101D01*
X706774Y227205D01*
X706827Y227305D01*
X706852Y227390D01*
X706886Y227472D01*
X706908Y227583D01*
X706940Y227692D01*
X706948Y227780D01*
X706965Y227867D01*
X706965Y227980D01*
X706975Y228093D01*
X706965Y228181D01*
X706965Y228270D01*
X706942Y228381D01*
X706929Y228493D01*
X706902Y228578D01*
X706885Y228664D01*
X706841Y228769D01*
X706806Y228876D01*
X706763Y228954D01*
X706729Y229036D01*
X706665Y229129D01*
X706610Y229228D01*
X706552Y229295D01*
X706502Y229369D01*
X706422Y229448D01*
X706348Y229534D01*
X706278Y229588D01*
X706215Y229650D01*
X706120Y229712D01*
X706031Y229782D01*
X705952Y229822D01*
X705877Y229870D01*
X705747Y229925D01*
X705671Y229963D01*
X705627Y229975D01*
X705571Y229998D01*
X704839Y230236D01*
X703165Y231089D01*
X701644Y232194D01*
X700316Y233522D01*
X699211Y235043D01*
X698358Y236717D01*
X697777Y238504D01*
X697737Y238761D01*
X708914Y238761D01*
X708932Y238762D01*
X708949Y238761D01*
X709132Y238782D01*
X709314Y238801D01*
X709331Y238806D01*
X709349Y238808D01*
X709427Y238833D01*
X709564Y238794D01*
X709582Y238792D01*
X709599Y238788D01*
X709930Y238761D01*
X721107Y238761D01*
X721067Y238504D01*
X720486Y236717D01*
X719633Y235043D01*
X718528Y233522D01*
X717200Y232194D01*
X715679Y231089D01*
X714346Y230410D01*
X714240Y230342D01*
X714129Y230281D01*
X714071Y230233D01*
X714007Y230192D01*
X713916Y230104D01*
X713820Y230024D01*
X713772Y229965D01*
X713718Y229912D01*
X713646Y229808D01*
X713567Y229710D01*
X713533Y229643D01*
X713490Y229581D01*
X713440Y229465D01*
X713382Y229353D01*
X713361Y229280D01*
X713331Y229211D01*
X713305Y229087D01*
X713270Y228966D01*
X713264Y228891D01*
X713249Y228817D01*
X713248Y228690D01*
X713237Y228564D01*
X713246Y228490D01*
X713246Y228414D01*
X713270Y228290D01*
X713284Y228165D01*
X713308Y228093D01*
X713322Y228019D01*
X713370Y227902D01*
X713409Y227782D01*
X713446Y227716D01*
X713475Y227646D01*
X713545Y227541D01*
X713607Y227431D01*
X713656Y227374D01*
X713698Y227311D01*
X713788Y227222D01*
X713870Y227127D01*
X713930Y227080D01*
X713983Y227027D01*
X714089Y226957D01*
X714188Y226880D01*
X714256Y226846D01*
X714319Y226804D01*
X714436Y226757D01*
X714549Y226700D01*
X714622Y226681D01*
X714692Y226652D01*
X714815Y226629D01*
X714938Y226596D01*
X715025Y226589D01*
X715087Y226577D01*
X715160Y226578D01*
X715268Y226569D01*
X735188Y226569D01*
X735193Y226569D01*
X735197Y226569D01*
X735391Y226589D01*
X735589Y226609D01*
X735593Y226610D01*
X735597Y226610D01*
X735783Y226668D01*
X735974Y226727D01*
X735978Y226729D01*
X735982Y226730D01*
X736153Y226824D01*
X736328Y226919D01*
X736331Y226921D01*
X736335Y226924D01*
X736486Y227051D01*
X736637Y227176D01*
X736640Y227180D01*
X736643Y227183D01*
X736766Y227337D01*
X736889Y227490D01*
X736891Y227494D01*
X736894Y227498D01*
X736984Y227672D01*
X737075Y227847D01*
X737076Y227852D01*
X737078Y227856D01*
X737130Y228039D01*
X737186Y228234D01*
X737187Y228239D01*
X737188Y228243D01*
X737203Y228436D01*
X737219Y228636D01*
X737219Y228640D01*
X737219Y228644D01*
X737195Y228837D01*
X737172Y229035D01*
X737171Y229040D01*
X737170Y229044D01*
X737110Y229227D01*
X737047Y229418D01*
X737045Y229422D01*
X737044Y229426D01*
X736950Y229591D01*
X736849Y229769D01*
X736846Y229772D01*
X736844Y229776D01*
X736714Y229925D01*
X736586Y230074D01*
X736583Y230076D01*
X736580Y230080D01*
X736423Y230200D01*
X736268Y230320D01*
X736264Y230322D01*
X736261Y230325D01*
X735965Y230477D01*
X732191Y232040D01*
X729118Y235113D01*
X727455Y239127D01*
X727455Y243473D01*
X729118Y247487D01*
X732191Y250560D01*
X736205Y252223D01*
X740551Y252223D01*
X744565Y250560D01*
X747638Y247487D01*
X749301Y243473D01*
X749301Y239127D01*
X747638Y235113D01*
X744565Y232040D01*
X740791Y230477D01*
X740787Y230475D01*
X740782Y230473D01*
X740610Y230380D01*
X740436Y230286D01*
X740432Y230284D01*
X740428Y230281D01*
X740277Y230155D01*
X740125Y230030D01*
X740122Y230027D01*
X740119Y230024D01*
X739996Y229871D01*
X739872Y229717D01*
X739870Y229713D01*
X739867Y229710D01*
X739775Y229534D01*
X739685Y229361D01*
X739683Y229357D01*
X739681Y229353D01*
X739627Y229163D01*
X739571Y228974D01*
X739571Y228970D01*
X739570Y228966D01*
X739554Y228768D01*
X739537Y228573D01*
X739537Y228569D01*
X739537Y228564D01*
X739560Y228367D01*
X739582Y228173D01*
X739583Y228169D01*
X739584Y228165D01*
X739645Y227976D01*
X739705Y227790D01*
X739707Y227786D01*
X739709Y227782D01*
X739806Y227609D01*
X739902Y227438D01*
X739904Y227435D01*
X739907Y227431D01*
X740035Y227282D01*
X740163Y227133D01*
X740167Y227130D01*
X740170Y227127D01*
X740325Y227006D01*
X740480Y226884D01*
X740484Y226882D01*
X740488Y226880D01*
X740664Y226792D01*
X740840Y226704D01*
X740844Y226702D01*
X740848Y226700D01*
X741042Y226648D01*
X741228Y226597D01*
X741233Y226597D01*
X741237Y226596D01*
X741568Y226569D01*
X757428Y226569D01*
X757446Y226571D01*
X757464Y226569D01*
X757646Y226590D01*
X757829Y226609D01*
X757846Y226614D01*
X757863Y226616D01*
X758038Y226673D01*
X758214Y226727D01*
X758229Y226735D01*
X758246Y226741D01*
X758406Y226831D01*
X758568Y226919D01*
X758581Y226930D01*
X758597Y226939D01*
X758736Y227059D01*
X758877Y227176D01*
X758888Y227190D01*
X758902Y227202D01*
X759014Y227347D01*
X759129Y227490D01*
X759137Y227506D01*
X759148Y227520D01*
X759230Y227685D01*
X759315Y227847D01*
X759320Y227864D01*
X759328Y227881D01*
X759375Y228059D01*
X759426Y228234D01*
X759428Y228252D01*
X759432Y228269D01*
X759459Y228600D01*
X759459Y242893D01*
X759453Y242958D01*
X759453Y243052D01*
X759216Y246061D01*
X759203Y246133D01*
X759199Y246206D01*
X759160Y246371D01*
X759145Y246457D01*
X759133Y246488D01*
X759123Y246529D01*
X757263Y252253D01*
X757202Y252393D01*
X757147Y252536D01*
X757119Y252583D01*
X757102Y252622D01*
X757052Y252692D01*
X756975Y252819D01*
X753437Y257688D01*
X753336Y257802D01*
X753240Y257921D01*
X753198Y257957D01*
X753170Y257989D01*
X753101Y258040D01*
X752988Y258137D01*
X748119Y261675D01*
X747987Y261752D01*
X747859Y261835D01*
X747808Y261857D01*
X747772Y261878D01*
X747690Y261906D01*
X747553Y261963D01*
X741829Y263823D01*
X741758Y263839D01*
X741689Y263863D01*
X741521Y263890D01*
X741436Y263909D01*
X741403Y263909D01*
X741361Y263916D01*
X738352Y264153D01*
X738286Y264152D01*
X738193Y264159D01*
X707299Y264159D01*
X707233Y264153D01*
X707139Y264153D01*
X704491Y263945D01*
X704419Y263932D01*
X704346Y263928D01*
X704181Y263889D01*
X704095Y263873D01*
X704064Y263861D01*
X704023Y263851D01*
X698986Y262215D01*
X698846Y262154D01*
X698704Y262099D01*
X698657Y262070D01*
X698618Y262053D01*
X698547Y262004D01*
X698420Y261926D01*
X694136Y258814D01*
X694022Y258712D01*
X693903Y258616D01*
X693867Y258574D01*
X693835Y258546D01*
X693784Y258477D01*
X693686Y258364D01*
X690574Y254080D01*
X690496Y253948D01*
X690413Y253820D01*
X690392Y253769D01*
X690370Y253732D01*
X690342Y253651D01*
X690285Y253514D01*
X688649Y248477D01*
X688633Y248405D01*
X688608Y248336D01*
X688581Y248168D01*
X688563Y248083D01*
X688562Y248050D01*
X688555Y248009D01*
X688347Y245361D01*
X688348Y245294D01*
X688341Y245201D01*
X688341Y226218D01*
X685700Y220962D01*
X680980Y217450D01*
X675187Y216431D01*
X673554Y216921D01*
X673389Y216953D01*
X673224Y216991D01*
X673192Y216992D01*
X673159Y216998D01*
X672990Y216997D01*
X672822Y217001D01*
X672786Y216996D01*
X672757Y216995D01*
X672692Y216982D01*
X672279Y217234D01*
X672194Y217275D01*
X672113Y217325D01*
X671991Y217373D01*
X671917Y217409D01*
X671867Y217421D01*
X671804Y217446D01*
X671309Y217595D01*
X671305Y217601D01*
X671271Y217634D01*
X671243Y217672D01*
X671128Y217775D01*
X671018Y217884D01*
X670979Y217909D01*
X670944Y217941D01*
X670733Y218071D01*
X670682Y218104D01*
X670672Y218108D01*
X670661Y218115D01*
X668527Y219199D01*
X668459Y219225D01*
X668395Y219260D01*
X668233Y219313D01*
X668152Y219345D01*
X668120Y219350D01*
X668079Y219364D01*
X661318Y220978D01*
X661166Y220999D01*
X661016Y221026D01*
X660961Y221027D01*
X660919Y221032D01*
X660833Y221027D01*
X660684Y221027D01*
X653755Y220473D01*
X653605Y220446D01*
X653453Y220426D01*
X653400Y220409D01*
X653359Y220401D01*
X653279Y220370D01*
X653137Y220324D01*
X646718Y217656D01*
X646583Y217583D01*
X646445Y217518D01*
X646401Y217485D01*
X646363Y217465D01*
X646297Y217410D01*
X646176Y217323D01*
X640896Y212802D01*
X640845Y212749D01*
X640788Y212703D01*
X640678Y212574D01*
X640618Y212511D01*
X640600Y212483D01*
X640572Y212451D01*
X638592Y209718D01*
X638589Y209713D01*
X638585Y209709D01*
X638415Y209424D01*
X638023Y208630D01*
X637068Y208399D01*
X636998Y208374D01*
X636891Y208348D01*
X575021Y187312D01*
X574948Y187279D01*
X574871Y187254D01*
X574765Y187195D01*
X574654Y187145D01*
X574589Y187098D01*
X574519Y187059D01*
X574426Y186980D01*
X574372Y186941D01*
X573558Y186792D01*
X573487Y186771D01*
X573271Y186717D01*
X572493Y186452D01*
X572472Y186458D01*
X572351Y186468D01*
X572231Y186487D01*
X572150Y186484D01*
X572071Y186491D01*
X571915Y186475D01*
X571828Y186472D01*
X571790Y186463D01*
X571741Y186458D01*
X450432Y164177D01*
X450288Y164135D01*
X450142Y164101D01*
X450095Y164079D01*
X450046Y164065D01*
X449912Y163996D01*
X449879Y163980D01*
X448751Y163862D01*
X448687Y163848D01*
X448597Y163839D01*
X447495Y163637D01*
X447374Y163650D01*
X447226Y163674D01*
X447168Y163673D01*
X447123Y163677D01*
X447038Y163670D01*
X446894Y163666D01*
X280174Y146117D01*
X280115Y146105D01*
X280055Y146101D01*
X279861Y146052D01*
X279780Y146035D01*
X279760Y146027D01*
X279733Y146020D01*
X279181Y145832D01*
X279085Y145868D01*
X279083Y145869D01*
X279081Y145869D01*
X278881Y145901D01*
X278688Y145932D01*
X278686Y145932D01*
X278684Y145933D01*
X278646Y145932D01*
X278248Y146254D01*
X278171Y146304D01*
X278100Y146363D01*
X277981Y146429D01*
X277912Y146475D01*
X277867Y146493D01*
X277811Y146524D01*
X266542Y151646D01*
X266469Y151670D01*
X266365Y151716D01*
X242131Y160101D01*
X242046Y160121D01*
X241887Y160168D01*
X216798Y165475D01*
X216712Y165484D01*
X216548Y165511D01*
X190994Y167657D01*
X190907Y167656D01*
X190741Y167662D01*
X165119Y166614D01*
X165032Y166601D01*
X164867Y166587D01*
X139574Y162361D01*
X139490Y162338D01*
X139328Y162304D01*
X114757Y154965D01*
X114687Y154936D01*
X114578Y154902D01*
X102934Y150201D01*
X102923Y150195D01*
X102912Y150192D01*
X102617Y150040D01*
X55712Y120724D01*
X54672Y120074D01*
X54642Y120051D01*
X54600Y120027D01*
X47026Y114837D01*
X47017Y114828D01*
X47006Y114822D01*
X46940Y114766D01*
X46824Y114678D01*
X33119Y102480D01*
X33116Y102476D01*
X33111Y102473D01*
X32883Y102232D01*
X21421Y87906D01*
X21418Y87901D01*
X21415Y87897D01*
X21231Y87621D01*
X12337Y71574D01*
X12334Y71569D01*
X12331Y71565D01*
X12264Y71414D01*
X12232Y71353D01*
X12224Y71324D01*
X12196Y71262D01*
X6123Y53949D01*
X6122Y53944D01*
X6119Y53939D01*
X6037Y53618D01*
X3452Y38441D01*
X3439Y38253D01*
X3424Y38064D01*
X3425Y38052D01*
X3424Y38039D01*
X3449Y37852D01*
X3471Y37665D01*
X3475Y37653D01*
X3476Y37640D01*
X3537Y37462D01*
X3596Y37282D01*
X3602Y37271D01*
X3606Y37259D01*
X3701Y37096D01*
X3793Y36931D01*
X3802Y36922D01*
X3808Y36911D01*
X3934Y36769D01*
X4057Y36627D01*
X4066Y36619D01*
X4075Y36609D01*
X4227Y36495D01*
X4375Y36380D01*
X4386Y36374D01*
X4396Y36366D01*
X4566Y36284D01*
X4735Y36200D01*
X4747Y36197D01*
X4759Y36192D01*
X4940Y36145D01*
X5124Y36096D01*
X5138Y36095D01*
X5149Y36092D01*
X5212Y36089D01*
X5455Y36069D01*
X17776Y36069D01*
X17901Y36081D01*
G37*
G36*
X132973Y2379D02*
X132973Y2379D01*
X133049Y2377D01*
X169971Y4468D01*
X170042Y4479D01*
X170147Y4486D01*
X206747Y9786D01*
X206817Y9803D01*
X206921Y9819D01*
X242919Y18289D01*
X242987Y18312D01*
X243089Y18337D01*
X278212Y29912D01*
X278278Y29942D01*
X278378Y29975D01*
X312358Y44568D01*
X312407Y44595D01*
X312478Y44624D01*
X327542Y52296D01*
X327667Y52377D01*
X327797Y52451D01*
X327836Y52485D01*
X327881Y52514D01*
X327988Y52617D01*
X328022Y52647D01*
X329016Y53059D01*
X329086Y53097D01*
X329199Y53146D01*
X330095Y53628D01*
X330168Y53628D01*
X330292Y53654D01*
X330418Y53670D01*
X330501Y53697D01*
X330562Y53710D01*
X330630Y53739D01*
X330734Y53772D01*
X342926Y58829D01*
X371210Y67763D01*
X400165Y74197D01*
X429571Y78084D01*
X443476Y78698D01*
X443513Y78703D01*
X443551Y78703D01*
X443712Y78732D01*
X443875Y78756D01*
X443910Y78768D01*
X443947Y78775D01*
X444241Y78886D01*
X444254Y78891D01*
X444255Y78891D01*
X444257Y78892D01*
X452053Y82589D01*
X452127Y82634D01*
X452285Y82719D01*
X467996Y92873D01*
X468005Y92880D01*
X468015Y92886D01*
X468040Y92905D01*
X468063Y92918D01*
X468127Y92974D01*
X468276Y93091D01*
X481986Y105819D01*
X482043Y105884D01*
X482168Y106013D01*
X487850Y112875D01*
X487914Y112970D01*
X487987Y113060D01*
X488035Y113150D01*
X488075Y113209D01*
X488100Y113270D01*
X488145Y113352D01*
X488333Y113780D01*
X488437Y113832D01*
X488443Y113837D01*
X488451Y113841D01*
X488602Y113960D01*
X488755Y114079D01*
X488761Y114086D01*
X488767Y114091D01*
X488799Y114128D01*
X489341Y114203D01*
X489410Y114220D01*
X489481Y114228D01*
X489647Y114277D01*
X489732Y114298D01*
X489761Y114311D01*
X489799Y114322D01*
X671715Y185067D01*
X671763Y185092D01*
X671815Y185110D01*
X672006Y185215D01*
X672074Y185250D01*
X672087Y185260D01*
X672105Y185270D01*
X672603Y185602D01*
X672690Y185594D01*
X672697Y185595D01*
X672705Y185594D01*
X672896Y185615D01*
X673090Y185634D01*
X673098Y185636D01*
X673106Y185637D01*
X673127Y185644D01*
X673667Y185406D01*
X673719Y185389D01*
X673768Y185365D01*
X673978Y185305D01*
X674050Y185281D01*
X674067Y185279D01*
X674087Y185274D01*
X742476Y171596D01*
X742477Y171596D01*
X744333Y171224D01*
X744406Y171217D01*
X744511Y171197D01*
X746374Y170993D01*
X746478Y170992D01*
X746580Y170981D01*
X746699Y170990D01*
X746777Y170989D01*
X746833Y171000D01*
X746911Y171006D01*
X750600Y171587D01*
X750787Y171636D01*
X750973Y171683D01*
X750982Y171687D01*
X750989Y171689D01*
X751036Y171711D01*
X751275Y171820D01*
X754534Y173643D01*
X754693Y173753D01*
X754852Y173862D01*
X754858Y173869D01*
X754865Y173873D01*
X754900Y173910D01*
X755087Y174096D01*
X757513Y176935D01*
X757623Y177093D01*
X757735Y177250D01*
X757739Y177259D01*
X757743Y177265D01*
X757764Y177312D01*
X757875Y177551D01*
X759168Y181054D01*
X759194Y181154D01*
X759230Y181251D01*
X759250Y181368D01*
X759269Y181444D01*
X759273Y181501D01*
X759286Y181578D01*
X759451Y183445D01*
X759451Y183518D01*
X759459Y183625D01*
X759459Y215900D01*
X759457Y215918D01*
X759459Y215936D01*
X759438Y216118D01*
X759419Y216301D01*
X759414Y216318D01*
X759412Y216335D01*
X759355Y216510D01*
X759301Y216686D01*
X759293Y216701D01*
X759287Y216718D01*
X759197Y216878D01*
X759109Y217040D01*
X759098Y217053D01*
X759089Y217069D01*
X758969Y217208D01*
X758852Y217349D01*
X758838Y217360D01*
X758826Y217374D01*
X758681Y217486D01*
X758538Y217601D01*
X758522Y217609D01*
X758508Y217620D01*
X758343Y217702D01*
X758181Y217787D01*
X758164Y217792D01*
X758148Y217800D01*
X757969Y217847D01*
X757794Y217898D01*
X757776Y217900D01*
X757759Y217904D01*
X757428Y217931D01*
X751332Y217931D01*
X751314Y217929D01*
X751296Y217931D01*
X751114Y217910D01*
X750931Y217891D01*
X750914Y217886D01*
X750897Y217884D01*
X750722Y217827D01*
X750546Y217773D01*
X750531Y217765D01*
X750514Y217759D01*
X750354Y217669D01*
X750192Y217581D01*
X750179Y217570D01*
X750163Y217561D01*
X750024Y217441D01*
X749883Y217324D01*
X749872Y217310D01*
X749858Y217298D01*
X749746Y217153D01*
X749631Y217010D01*
X749623Y216994D01*
X749612Y216980D01*
X749530Y216815D01*
X749445Y216653D01*
X749440Y216636D01*
X749432Y216620D01*
X749385Y216441D01*
X749334Y216266D01*
X749332Y216248D01*
X749328Y216231D01*
X749301Y215900D01*
X749301Y213727D01*
X747638Y209713D01*
X744565Y206640D01*
X741429Y205341D01*
X740551Y204977D01*
X736205Y204977D01*
X732191Y206640D01*
X729118Y209713D01*
X727455Y213727D01*
X727455Y215900D01*
X727453Y215918D01*
X727455Y215936D01*
X727434Y216118D01*
X727415Y216301D01*
X727410Y216318D01*
X727408Y216335D01*
X727351Y216510D01*
X727297Y216686D01*
X727289Y216701D01*
X727283Y216718D01*
X727193Y216878D01*
X727105Y217040D01*
X727094Y217053D01*
X727085Y217069D01*
X726965Y217208D01*
X726848Y217349D01*
X726834Y217360D01*
X726822Y217374D01*
X726677Y217486D01*
X726534Y217601D01*
X726518Y217609D01*
X726504Y217620D01*
X726339Y217702D01*
X726177Y217787D01*
X726160Y217792D01*
X726144Y217800D01*
X725965Y217847D01*
X725790Y217898D01*
X725772Y217900D01*
X725755Y217904D01*
X725424Y217931D01*
X711200Y217931D01*
X711173Y217929D01*
X711147Y217931D01*
X710973Y217909D01*
X710799Y217891D01*
X710774Y217884D01*
X710747Y217880D01*
X710582Y217825D01*
X710414Y217773D01*
X710391Y217760D01*
X710366Y217752D01*
X710214Y217665D01*
X710060Y217581D01*
X710040Y217564D01*
X710017Y217551D01*
X709764Y217336D01*
X709256Y216828D01*
X709250Y216821D01*
X709243Y216816D01*
X709123Y216666D01*
X709001Y216517D01*
X708996Y216509D01*
X708991Y216502D01*
X708931Y216387D01*
X708929Y216386D01*
X708761Y216291D01*
X708754Y216286D01*
X708747Y216281D01*
X708494Y216066D01*
X707478Y215050D01*
X707476Y215049D01*
X707475Y215048D01*
X707460Y215029D01*
X707440Y215012D01*
X707333Y214874D01*
X707223Y214739D01*
X707210Y214715D01*
X707194Y214694D01*
X707116Y214537D01*
X707034Y214383D01*
X707026Y214358D01*
X707014Y214333D01*
X706969Y214164D01*
X706919Y213997D01*
X706917Y213971D01*
X706910Y213945D01*
X706883Y213614D01*
X706883Y204215D01*
X706626Y204255D01*
X704839Y204836D01*
X703165Y205689D01*
X701644Y206794D01*
X701593Y206824D01*
X701545Y206861D01*
X701419Y206925D01*
X701297Y206997D01*
X701240Y207016D01*
X701187Y207044D01*
X701050Y207082D01*
X700916Y207128D01*
X700857Y207135D01*
X700799Y207152D01*
X700657Y207162D01*
X700517Y207181D01*
X700457Y207177D01*
X700397Y207181D01*
X700256Y207163D01*
X700115Y207154D01*
X700057Y207138D01*
X699998Y207131D01*
X699863Y207085D01*
X699727Y207048D01*
X699673Y207021D01*
X699616Y207002D01*
X699493Y206932D01*
X699366Y206868D01*
X699319Y206831D01*
X699267Y206801D01*
X699114Y206671D01*
X699049Y206621D01*
X699035Y206604D01*
X699014Y206587D01*
X697423Y204995D01*
X405857Y116258D01*
X64624Y30950D01*
X64466Y30893D01*
X64307Y30842D01*
X64277Y30825D01*
X64245Y30814D01*
X64101Y30727D01*
X63955Y30646D01*
X63929Y30623D01*
X63900Y30606D01*
X63777Y30493D01*
X63649Y30384D01*
X63628Y30357D01*
X63603Y30334D01*
X63505Y30199D01*
X63401Y30067D01*
X63386Y30036D01*
X63366Y30009D01*
X63296Y29857D01*
X63220Y29707D01*
X63211Y29674D01*
X63197Y29643D01*
X63158Y29481D01*
X63114Y29319D01*
X63112Y29285D01*
X63104Y29252D01*
X63098Y29084D01*
X63086Y28917D01*
X63091Y28883D01*
X63090Y28849D01*
X63117Y28684D01*
X63139Y28518D01*
X63150Y28482D01*
X63155Y28452D01*
X63186Y28371D01*
X63240Y28202D01*
X63501Y27573D01*
X63501Y23227D01*
X61838Y19213D01*
X58765Y16140D01*
X54751Y14477D01*
X50405Y14477D01*
X46391Y16140D01*
X43318Y19213D01*
X41655Y23227D01*
X41655Y25400D01*
X41653Y25418D01*
X41655Y25436D01*
X41634Y25618D01*
X41615Y25801D01*
X41610Y25818D01*
X41608Y25835D01*
X41551Y26010D01*
X41497Y26186D01*
X41489Y26201D01*
X41483Y26218D01*
X41393Y26378D01*
X41305Y26540D01*
X41294Y26553D01*
X41285Y26569D01*
X41165Y26708D01*
X41048Y26849D01*
X41034Y26860D01*
X41022Y26874D01*
X40877Y26986D01*
X40734Y27101D01*
X40718Y27109D01*
X40704Y27120D01*
X40539Y27202D01*
X40377Y27287D01*
X40360Y27292D01*
X40344Y27300D01*
X40165Y27347D01*
X39990Y27398D01*
X39972Y27400D01*
X39955Y27404D01*
X39624Y27431D01*
X24130Y27431D01*
X24112Y27429D01*
X24095Y27431D01*
X23912Y27410D01*
X23730Y27391D01*
X23713Y27386D01*
X23695Y27384D01*
X23617Y27359D01*
X23480Y27398D01*
X23462Y27400D01*
X23445Y27404D01*
X23114Y27431D01*
X4620Y27431D01*
X4523Y27422D01*
X4426Y27422D01*
X4324Y27402D01*
X4220Y27391D01*
X4127Y27363D01*
X4031Y27344D01*
X3935Y27304D01*
X3835Y27273D01*
X3749Y27227D01*
X3659Y27189D01*
X3572Y27131D01*
X3481Y27081D01*
X3406Y27019D01*
X3325Y26964D01*
X3252Y26890D01*
X3172Y26824D01*
X3111Y26748D01*
X3042Y26678D01*
X2985Y26591D01*
X2919Y26510D01*
X2874Y26423D01*
X2821Y26342D01*
X2782Y26245D01*
X2734Y26153D01*
X2707Y26059D01*
X2670Y25968D01*
X2651Y25866D01*
X2622Y25766D01*
X2614Y25668D01*
X2597Y25572D01*
X2596Y25445D01*
X2590Y25364D01*
X2596Y25312D01*
X2595Y25241D01*
X2811Y22502D01*
X2824Y22430D01*
X2828Y22357D01*
X2847Y22274D01*
X2850Y22251D01*
X2860Y22221D01*
X2867Y22192D01*
X2882Y22106D01*
X2894Y22075D01*
X2904Y22034D01*
X4977Y15653D01*
X5039Y15513D01*
X5094Y15370D01*
X5122Y15323D01*
X5139Y15284D01*
X5189Y15214D01*
X5266Y15087D01*
X9210Y9659D01*
X9311Y9545D01*
X9407Y9426D01*
X9449Y9390D01*
X9477Y9358D01*
X9546Y9307D01*
X9659Y9210D01*
X15087Y5266D01*
X15219Y5189D01*
X15347Y5105D01*
X15398Y5084D01*
X15434Y5063D01*
X15516Y5035D01*
X15653Y4977D01*
X22034Y2904D01*
X22106Y2889D01*
X22175Y2864D01*
X22342Y2837D01*
X22427Y2818D01*
X22460Y2818D01*
X22502Y2811D01*
X25857Y2547D01*
X25923Y2548D01*
X26016Y2541D01*
X112488Y2541D01*
X112684Y2560D01*
X112880Y2579D01*
X112884Y2580D01*
X112889Y2581D01*
X112902Y2585D01*
X114308Y2542D01*
X114335Y2544D01*
X114370Y2541D01*
X115998Y2541D01*
X116194Y2523D01*
X132916Y2374D01*
X132973Y2379D01*
G37*
%LPC*%
G36*
X711961Y243839D02*
X711961Y243839D01*
X711961Y252985D01*
X712218Y252945D01*
X714005Y252364D01*
X715679Y251511D01*
X717200Y250406D01*
X718528Y249078D01*
X719633Y247557D01*
X720486Y245883D01*
X721067Y244096D01*
X721107Y243839D01*
X711961Y243839D01*
G37*
%LPD*%
%LPC*%
G36*
X26161Y53339D02*
X26161Y53339D01*
X26161Y62485D01*
X26418Y62445D01*
X28205Y61864D01*
X29879Y61011D01*
X31400Y59906D01*
X32728Y58578D01*
X33833Y57057D01*
X34686Y55383D01*
X35267Y53596D01*
X35307Y53339D01*
X26161Y53339D01*
G37*
%LPD*%
%LPC*%
G36*
X697737Y243839D02*
X697737Y243839D01*
X697777Y244096D01*
X698358Y245883D01*
X699211Y247557D01*
X700316Y249078D01*
X701644Y250406D01*
X703165Y251511D01*
X704839Y252364D01*
X706626Y252945D01*
X706883Y252985D01*
X706883Y243839D01*
X697737Y243839D01*
G37*
%LPD*%
%LPC*%
G36*
X711961Y213361D02*
X711961Y213361D01*
X721107Y213361D01*
X721067Y213104D01*
X720486Y211317D01*
X719633Y209643D01*
X718528Y208122D01*
X717200Y206794D01*
X715679Y205689D01*
X714005Y204836D01*
X712218Y204255D01*
X711961Y204215D01*
X711961Y213361D01*
G37*
%LPD*%
%LPC*%
G36*
X11937Y53339D02*
X11937Y53339D01*
X11977Y53596D01*
X12558Y55383D01*
X13411Y57057D01*
X14516Y58578D01*
X15844Y59906D01*
X17365Y61011D01*
X19039Y61864D01*
X20826Y62445D01*
X21083Y62485D01*
X21083Y53339D01*
X11937Y53339D01*
G37*
%LPD*%
%LPC*%
G36*
X26161Y22861D02*
X26161Y22861D01*
X35307Y22861D01*
X35267Y22604D01*
X34686Y20817D01*
X33833Y19143D01*
X32728Y17622D01*
X31400Y16294D01*
X29879Y15189D01*
X28205Y14336D01*
X26418Y13755D01*
X26161Y13715D01*
X26161Y22861D01*
G37*
%LPD*%
%LPC*%
G36*
X20826Y13755D02*
X20826Y13755D01*
X19039Y14336D01*
X17365Y15189D01*
X15844Y16294D01*
X14516Y17622D01*
X13411Y19143D01*
X12558Y20817D01*
X11977Y22604D01*
X11937Y22861D01*
X21083Y22861D01*
X21083Y13715D01*
X20826Y13755D01*
G37*
%LPD*%
D10*
X709422Y241300D03*
X738378Y241300D03*
X709422Y215900D03*
X738378Y215900D03*
X23622Y50800D03*
X52578Y50800D03*
X23622Y25400D03*
X52578Y25400D03*
M02*
