G04 EAGLE Gerber X2 export*
G75*
%MOMM*%
%FSLAX34Y34*%
%LPD*%
%AMOC8*
5,1,8,0,0,1.08239X$1,22.5*%
G01*
%ADD10C,1.879600*%

G36*
X20437Y36069D02*
X20437Y36069D01*
X20441Y36069D01*
X20635Y36089D01*
X20833Y36109D01*
X20837Y36110D01*
X20841Y36110D01*
X21027Y36168D01*
X21218Y36227D01*
X21222Y36229D01*
X21226Y36230D01*
X21397Y36324D01*
X21572Y36419D01*
X21575Y36421D01*
X21579Y36424D01*
X21730Y36551D01*
X21881Y36676D01*
X21884Y36680D01*
X21887Y36683D01*
X22010Y36837D01*
X22133Y36990D01*
X22135Y36994D01*
X22138Y36998D01*
X22228Y37172D01*
X22319Y37347D01*
X22320Y37352D01*
X22322Y37356D01*
X22375Y37543D01*
X22430Y37734D01*
X22431Y37739D01*
X22432Y37743D01*
X22447Y37936D01*
X22463Y38136D01*
X22463Y38140D01*
X22463Y38144D01*
X22439Y38337D01*
X22416Y38535D01*
X22415Y38540D01*
X22414Y38544D01*
X22354Y38727D01*
X22291Y38918D01*
X22289Y38922D01*
X22288Y38926D01*
X22192Y39095D01*
X22093Y39269D01*
X22090Y39272D01*
X22088Y39276D01*
X21958Y39425D01*
X21830Y39574D01*
X21827Y39576D01*
X21824Y39580D01*
X21667Y39700D01*
X21512Y39820D01*
X21508Y39822D01*
X21505Y39825D01*
X21209Y39977D01*
X17435Y41540D01*
X14362Y44613D01*
X12699Y48627D01*
X12699Y52973D01*
X14362Y56987D01*
X17435Y60060D01*
X21449Y61723D01*
X25795Y61723D01*
X29809Y60060D01*
X32882Y56987D01*
X34545Y52973D01*
X34545Y48627D01*
X32882Y44613D01*
X29809Y41540D01*
X26035Y39977D01*
X26031Y39975D01*
X26026Y39973D01*
X25854Y39880D01*
X25680Y39786D01*
X25676Y39784D01*
X25672Y39781D01*
X25524Y39657D01*
X25369Y39530D01*
X25366Y39527D01*
X25363Y39524D01*
X25240Y39371D01*
X25116Y39217D01*
X25114Y39213D01*
X25111Y39210D01*
X25020Y39035D01*
X24929Y38861D01*
X24927Y38857D01*
X24925Y38853D01*
X24869Y38658D01*
X24815Y38474D01*
X24815Y38470D01*
X24814Y38466D01*
X24798Y38268D01*
X24781Y38073D01*
X24781Y38069D01*
X24781Y38064D01*
X24804Y37867D01*
X24826Y37673D01*
X24827Y37669D01*
X24828Y37665D01*
X24889Y37476D01*
X24949Y37290D01*
X24951Y37286D01*
X24953Y37282D01*
X25050Y37109D01*
X25146Y36938D01*
X25148Y36935D01*
X25151Y36931D01*
X25279Y36782D01*
X25407Y36633D01*
X25411Y36630D01*
X25414Y36627D01*
X25568Y36507D01*
X25724Y36384D01*
X25728Y36382D01*
X25732Y36380D01*
X25908Y36292D01*
X26084Y36204D01*
X26088Y36202D01*
X26092Y36200D01*
X26285Y36149D01*
X26472Y36097D01*
X26477Y36097D01*
X26481Y36096D01*
X26812Y36069D01*
X46732Y36069D01*
X46857Y36081D01*
X46984Y36084D01*
X47057Y36101D01*
X47132Y36109D01*
X47253Y36146D01*
X47376Y36174D01*
X47445Y36205D01*
X47517Y36227D01*
X47628Y36287D01*
X47744Y36339D01*
X47805Y36383D01*
X47871Y36419D01*
X47968Y36499D01*
X48071Y36573D01*
X48123Y36628D01*
X48180Y36676D01*
X48260Y36775D01*
X48346Y36867D01*
X48386Y36931D01*
X48433Y36990D01*
X48491Y37102D01*
X48557Y37210D01*
X48584Y37281D01*
X48618Y37347D01*
X48653Y37469D01*
X48697Y37587D01*
X48709Y37662D01*
X48730Y37734D01*
X48740Y37860D01*
X48760Y37985D01*
X48756Y38060D01*
X48763Y38136D01*
X48748Y38261D01*
X48743Y38387D01*
X48724Y38461D01*
X48716Y38535D01*
X48677Y38655D01*
X48646Y38778D01*
X48614Y38847D01*
X48591Y38918D01*
X48529Y39028D01*
X48475Y39143D01*
X48430Y39203D01*
X48393Y39269D01*
X48310Y39365D01*
X48235Y39466D01*
X48179Y39516D01*
X48130Y39574D01*
X48030Y39651D01*
X47936Y39736D01*
X47862Y39782D01*
X47812Y39820D01*
X47746Y39853D01*
X47654Y39910D01*
X46321Y40589D01*
X44800Y41694D01*
X43472Y43022D01*
X42367Y44543D01*
X41514Y46217D01*
X40933Y48004D01*
X40893Y48261D01*
X52070Y48261D01*
X52088Y48262D01*
X52105Y48261D01*
X52288Y48282D01*
X52470Y48301D01*
X52487Y48306D01*
X52505Y48308D01*
X52583Y48333D01*
X52720Y48294D01*
X52738Y48292D01*
X52755Y48288D01*
X53086Y48261D01*
X64263Y48261D01*
X64223Y48004D01*
X63642Y46217D01*
X62789Y44543D01*
X61684Y43022D01*
X61058Y42396D01*
X61025Y42356D01*
X60988Y42322D01*
X60898Y42201D01*
X60803Y42084D01*
X60779Y42039D01*
X60748Y41998D01*
X60685Y41862D01*
X60614Y41729D01*
X60599Y41680D01*
X60578Y41634D01*
X60542Y41487D01*
X60499Y41343D01*
X60495Y41292D01*
X60483Y41242D01*
X60476Y41092D01*
X60463Y40942D01*
X60468Y40891D01*
X60466Y40840D01*
X60490Y40691D01*
X60506Y40541D01*
X60522Y40493D01*
X60530Y40443D01*
X60582Y40301D01*
X60628Y40158D01*
X60652Y40113D01*
X60670Y40065D01*
X60750Y39937D01*
X60823Y39805D01*
X60856Y39766D01*
X60882Y39723D01*
X60986Y39613D01*
X61083Y39498D01*
X61123Y39467D01*
X61158Y39430D01*
X61281Y39342D01*
X61399Y39249D01*
X61444Y39226D01*
X61486Y39196D01*
X61624Y39134D01*
X61758Y39066D01*
X61807Y39053D01*
X61853Y39032D01*
X62001Y38999D01*
X62146Y38958D01*
X62196Y38955D01*
X62246Y38943D01*
X62397Y38940D01*
X62547Y38929D01*
X62598Y38935D01*
X62649Y38934D01*
X62878Y38971D01*
X62947Y38979D01*
X62960Y38984D01*
X62976Y38986D01*
X399262Y121217D01*
X399312Y121234D01*
X399380Y121249D01*
X697068Y213331D01*
X697175Y213376D01*
X697286Y213412D01*
X697361Y213454D01*
X697439Y213487D01*
X697535Y213553D01*
X697637Y213610D01*
X697701Y213666D01*
X697772Y213714D01*
X697854Y213797D01*
X697942Y213873D01*
X697994Y213941D01*
X698054Y214002D01*
X698117Y214100D01*
X698188Y214191D01*
X698226Y214268D01*
X698273Y214339D01*
X698316Y214448D01*
X698368Y214552D01*
X698390Y214634D01*
X698421Y214714D01*
X698442Y214828D01*
X698472Y214941D01*
X698480Y215041D01*
X698493Y215110D01*
X698492Y215177D01*
X698499Y215271D01*
X698499Y218073D01*
X700162Y222087D01*
X703235Y225160D01*
X707009Y226723D01*
X707017Y226728D01*
X707026Y226730D01*
X707195Y226823D01*
X707364Y226914D01*
X707371Y226919D01*
X707379Y226924D01*
X707527Y227048D01*
X707675Y227170D01*
X707680Y227177D01*
X707687Y227183D01*
X707807Y227334D01*
X707928Y227483D01*
X707933Y227490D01*
X707938Y227498D01*
X708025Y227668D01*
X708115Y227839D01*
X708118Y227848D01*
X708122Y227856D01*
X708174Y228038D01*
X708229Y228226D01*
X708229Y228235D01*
X708232Y228243D01*
X708247Y228434D01*
X708263Y228627D01*
X708262Y228636D01*
X708263Y228644D01*
X708240Y228835D01*
X708218Y229027D01*
X708215Y229035D01*
X708214Y229044D01*
X708154Y229225D01*
X708095Y229410D01*
X708090Y229418D01*
X708088Y229426D01*
X707994Y229591D01*
X707898Y229762D01*
X707893Y229768D01*
X707888Y229776D01*
X707761Y229922D01*
X707637Y230067D01*
X707630Y230073D01*
X707624Y230080D01*
X707471Y230197D01*
X707320Y230316D01*
X707312Y230320D01*
X707305Y230325D01*
X707009Y230477D01*
X703235Y232040D01*
X700162Y235113D01*
X698499Y239127D01*
X698499Y243473D01*
X700162Y247487D01*
X703235Y250560D01*
X707249Y252223D01*
X711595Y252223D01*
X715609Y250560D01*
X718682Y247487D01*
X720345Y243473D01*
X720345Y239127D01*
X718682Y235113D01*
X715609Y232040D01*
X711835Y230477D01*
X711831Y230475D01*
X711826Y230473D01*
X711654Y230380D01*
X711480Y230286D01*
X711476Y230284D01*
X711472Y230281D01*
X711324Y230157D01*
X711169Y230030D01*
X711166Y230027D01*
X711163Y230024D01*
X711040Y229871D01*
X710916Y229717D01*
X710914Y229713D01*
X710911Y229710D01*
X710820Y229535D01*
X710729Y229361D01*
X710727Y229357D01*
X710725Y229353D01*
X710671Y229163D01*
X710615Y228974D01*
X710615Y228970D01*
X710614Y228966D01*
X710598Y228768D01*
X710581Y228573D01*
X710581Y228569D01*
X710581Y228564D01*
X710604Y228367D01*
X710626Y228173D01*
X710627Y228169D01*
X710628Y228165D01*
X710689Y227976D01*
X710749Y227790D01*
X710751Y227786D01*
X710753Y227782D01*
X710850Y227609D01*
X710946Y227438D01*
X710948Y227435D01*
X710951Y227431D01*
X711079Y227282D01*
X711207Y227133D01*
X711211Y227130D01*
X711214Y227127D01*
X711369Y227006D01*
X711524Y226884D01*
X711528Y226882D01*
X711532Y226880D01*
X711708Y226792D01*
X711884Y226704D01*
X711888Y226702D01*
X711892Y226700D01*
X712086Y226648D01*
X712272Y226597D01*
X712277Y226597D01*
X712281Y226596D01*
X712612Y226569D01*
X732532Y226569D01*
X732657Y226581D01*
X732784Y226584D01*
X732857Y226601D01*
X732932Y226609D01*
X733053Y226646D01*
X733176Y226674D01*
X733245Y226705D01*
X733317Y226727D01*
X733428Y226787D01*
X733544Y226839D01*
X733605Y226883D01*
X733671Y226919D01*
X733768Y226999D01*
X733871Y227073D01*
X733923Y227128D01*
X733980Y227176D01*
X734060Y227275D01*
X734146Y227367D01*
X734186Y227431D01*
X734233Y227490D01*
X734291Y227602D01*
X734357Y227710D01*
X734384Y227781D01*
X734418Y227847D01*
X734453Y227969D01*
X734497Y228087D01*
X734509Y228162D01*
X734530Y228234D01*
X734540Y228360D01*
X734560Y228485D01*
X734556Y228560D01*
X734563Y228636D01*
X734548Y228761D01*
X734542Y228887D01*
X734524Y228961D01*
X734516Y229035D01*
X734477Y229155D01*
X734446Y229278D01*
X734414Y229347D01*
X734391Y229418D01*
X734329Y229528D01*
X734275Y229643D01*
X734230Y229703D01*
X734193Y229769D01*
X734110Y229864D01*
X734035Y229966D01*
X733979Y230017D01*
X733930Y230074D01*
X733830Y230151D01*
X733736Y230236D01*
X733661Y230282D01*
X733612Y230320D01*
X733546Y230353D01*
X733454Y230410D01*
X732121Y231089D01*
X730600Y232194D01*
X729272Y233522D01*
X728167Y235043D01*
X727314Y236717D01*
X726733Y238504D01*
X726693Y238761D01*
X737870Y238761D01*
X737888Y238762D01*
X737905Y238761D01*
X738088Y238782D01*
X738270Y238801D01*
X738287Y238806D01*
X738305Y238808D01*
X738383Y238833D01*
X738520Y238794D01*
X738538Y238792D01*
X738555Y238788D01*
X738886Y238761D01*
X750063Y238761D01*
X750023Y238504D01*
X749442Y236717D01*
X748589Y235043D01*
X747484Y233522D01*
X746156Y232194D01*
X744635Y231089D01*
X743302Y230410D01*
X743196Y230342D01*
X743085Y230281D01*
X743027Y230233D01*
X742963Y230192D01*
X742872Y230104D01*
X742776Y230024D01*
X742728Y229965D01*
X742674Y229912D01*
X742602Y229808D01*
X742523Y229710D01*
X742489Y229643D01*
X742446Y229581D01*
X742396Y229465D01*
X742338Y229353D01*
X742317Y229280D01*
X742287Y229211D01*
X742261Y229087D01*
X742226Y228966D01*
X742220Y228891D01*
X742205Y228817D01*
X742204Y228690D01*
X742193Y228564D01*
X742202Y228490D01*
X742202Y228414D01*
X742226Y228290D01*
X742240Y228165D01*
X742264Y228093D01*
X742278Y228019D01*
X742326Y227902D01*
X742365Y227782D01*
X742402Y227716D01*
X742431Y227646D01*
X742501Y227541D01*
X742563Y227431D01*
X742612Y227374D01*
X742654Y227311D01*
X742744Y227222D01*
X742826Y227127D01*
X742886Y227080D01*
X742939Y227027D01*
X743045Y226957D01*
X743144Y226880D01*
X743212Y226846D01*
X743275Y226804D01*
X743392Y226757D01*
X743505Y226700D01*
X743578Y226681D01*
X743648Y226652D01*
X743771Y226629D01*
X743894Y226596D01*
X743981Y226589D01*
X744043Y226577D01*
X744116Y226578D01*
X744224Y226569D01*
X757428Y226569D01*
X757446Y226571D01*
X757464Y226569D01*
X757646Y226590D01*
X757829Y226609D01*
X757846Y226614D01*
X757863Y226616D01*
X758038Y226673D01*
X758214Y226727D01*
X758229Y226735D01*
X758246Y226741D01*
X758406Y226831D01*
X758568Y226919D01*
X758581Y226930D01*
X758597Y226939D01*
X758736Y227059D01*
X758877Y227176D01*
X758888Y227190D01*
X758902Y227202D01*
X759014Y227347D01*
X759129Y227490D01*
X759137Y227506D01*
X759148Y227520D01*
X759230Y227685D01*
X759315Y227847D01*
X759320Y227864D01*
X759328Y227881D01*
X759375Y228059D01*
X759426Y228234D01*
X759428Y228252D01*
X759432Y228269D01*
X759459Y228600D01*
X759459Y242893D01*
X759453Y242958D01*
X759453Y243052D01*
X759216Y246061D01*
X759203Y246133D01*
X759199Y246206D01*
X759160Y246371D01*
X759145Y246457D01*
X759133Y246488D01*
X759123Y246529D01*
X757263Y252253D01*
X757202Y252393D01*
X757147Y252536D01*
X757119Y252583D01*
X757102Y252622D01*
X757052Y252692D01*
X756975Y252819D01*
X753437Y257688D01*
X753336Y257802D01*
X753240Y257921D01*
X753198Y257957D01*
X753170Y257989D01*
X753101Y258040D01*
X752988Y258137D01*
X748119Y261675D01*
X747987Y261752D01*
X747859Y261835D01*
X747808Y261857D01*
X747772Y261878D01*
X747690Y261906D01*
X747553Y261963D01*
X741829Y263823D01*
X741758Y263839D01*
X741689Y263863D01*
X741521Y263890D01*
X741436Y263909D01*
X741403Y263909D01*
X741361Y263916D01*
X738352Y264153D01*
X738286Y264152D01*
X738193Y264159D01*
X707299Y264159D01*
X707233Y264153D01*
X707139Y264153D01*
X704491Y263945D01*
X704419Y263932D01*
X704346Y263928D01*
X704181Y263889D01*
X704095Y263873D01*
X704064Y263861D01*
X704023Y263851D01*
X698986Y262215D01*
X698846Y262154D01*
X698704Y262099D01*
X698657Y262070D01*
X698618Y262053D01*
X698547Y262004D01*
X698420Y261926D01*
X694136Y258814D01*
X694022Y258712D01*
X693903Y258616D01*
X693867Y258574D01*
X693835Y258546D01*
X693784Y258477D01*
X693686Y258364D01*
X690574Y254080D01*
X690496Y253948D01*
X690413Y253820D01*
X690392Y253769D01*
X690370Y253732D01*
X690342Y253651D01*
X690285Y253514D01*
X688649Y248477D01*
X688633Y248405D01*
X688608Y248336D01*
X688581Y248168D01*
X688563Y248083D01*
X688562Y248050D01*
X688555Y248009D01*
X688347Y245361D01*
X688348Y245294D01*
X688341Y245201D01*
X688341Y226218D01*
X685700Y220962D01*
X680980Y217450D01*
X675187Y216431D01*
X673554Y216921D01*
X673389Y216953D01*
X673224Y216991D01*
X673192Y216992D01*
X673159Y216998D01*
X672990Y216997D01*
X672822Y217001D01*
X672786Y216996D01*
X672757Y216995D01*
X672692Y216982D01*
X672279Y217234D01*
X672194Y217275D01*
X672113Y217325D01*
X671991Y217373D01*
X671917Y217409D01*
X671867Y217421D01*
X671804Y217446D01*
X671309Y217595D01*
X671305Y217601D01*
X671271Y217634D01*
X671243Y217672D01*
X671128Y217775D01*
X671018Y217884D01*
X670979Y217909D01*
X670944Y217941D01*
X670733Y218071D01*
X670682Y218104D01*
X670672Y218108D01*
X670661Y218115D01*
X668527Y219199D01*
X668459Y219225D01*
X668395Y219260D01*
X668233Y219313D01*
X668152Y219345D01*
X668120Y219350D01*
X668079Y219364D01*
X661318Y220978D01*
X661166Y220999D01*
X661016Y221026D01*
X660961Y221027D01*
X660919Y221032D01*
X660833Y221027D01*
X660684Y221027D01*
X653755Y220473D01*
X653605Y220446D01*
X653453Y220426D01*
X653400Y220409D01*
X653359Y220401D01*
X653279Y220370D01*
X653137Y220324D01*
X646718Y217656D01*
X646583Y217583D01*
X646445Y217518D01*
X646401Y217485D01*
X646363Y217465D01*
X646297Y217410D01*
X646176Y217323D01*
X640896Y212802D01*
X640845Y212749D01*
X640788Y212703D01*
X640678Y212574D01*
X640618Y212511D01*
X640600Y212483D01*
X640572Y212451D01*
X638592Y209718D01*
X638589Y209713D01*
X638585Y209709D01*
X638415Y209424D01*
X638023Y208630D01*
X637068Y208399D01*
X636998Y208374D01*
X636891Y208348D01*
X575021Y187312D01*
X574948Y187279D01*
X574871Y187254D01*
X574765Y187195D01*
X574654Y187145D01*
X574589Y187098D01*
X574519Y187059D01*
X574426Y186980D01*
X574372Y186941D01*
X573558Y186792D01*
X573487Y186771D01*
X573271Y186717D01*
X572493Y186452D01*
X572472Y186458D01*
X572351Y186468D01*
X572231Y186487D01*
X572150Y186484D01*
X572071Y186491D01*
X571915Y186475D01*
X571828Y186472D01*
X571790Y186463D01*
X571741Y186458D01*
X450432Y164177D01*
X450288Y164135D01*
X450142Y164101D01*
X450095Y164079D01*
X450046Y164065D01*
X449912Y163996D01*
X449879Y163980D01*
X448751Y163862D01*
X448687Y163848D01*
X448597Y163839D01*
X447495Y163637D01*
X447374Y163650D01*
X447226Y163674D01*
X447168Y163673D01*
X447123Y163677D01*
X447038Y163670D01*
X446894Y163666D01*
X280174Y146117D01*
X280115Y146105D01*
X280055Y146101D01*
X279861Y146052D01*
X279780Y146035D01*
X279760Y146027D01*
X279733Y146020D01*
X279181Y145832D01*
X279085Y145868D01*
X279083Y145869D01*
X279081Y145869D01*
X278881Y145901D01*
X278688Y145932D01*
X278686Y145932D01*
X278684Y145933D01*
X278646Y145932D01*
X278248Y146254D01*
X278171Y146304D01*
X278100Y146363D01*
X277981Y146429D01*
X277912Y146475D01*
X277867Y146493D01*
X277811Y146524D01*
X266542Y151646D01*
X266469Y151670D01*
X266365Y151716D01*
X242131Y160101D01*
X242046Y160121D01*
X241887Y160168D01*
X216798Y165475D01*
X216712Y165484D01*
X216548Y165511D01*
X190994Y167657D01*
X190907Y167656D01*
X190741Y167662D01*
X165119Y166614D01*
X165032Y166601D01*
X164867Y166587D01*
X139574Y162361D01*
X139490Y162338D01*
X139328Y162304D01*
X114757Y154965D01*
X114687Y154936D01*
X114578Y154902D01*
X102934Y150201D01*
X102923Y150195D01*
X102912Y150192D01*
X102617Y150040D01*
X55712Y120724D01*
X54672Y120074D01*
X54642Y120051D01*
X54600Y120027D01*
X47026Y114837D01*
X47017Y114828D01*
X47006Y114822D01*
X46940Y114766D01*
X46824Y114678D01*
X33119Y102480D01*
X33116Y102476D01*
X33111Y102473D01*
X32883Y102232D01*
X21421Y87906D01*
X21418Y87901D01*
X21415Y87897D01*
X21231Y87621D01*
X12337Y71574D01*
X12334Y71569D01*
X12331Y71565D01*
X12264Y71414D01*
X12232Y71353D01*
X12224Y71324D01*
X12196Y71262D01*
X6123Y53949D01*
X6122Y53944D01*
X6119Y53939D01*
X6037Y53618D01*
X3452Y38441D01*
X3439Y38253D01*
X3424Y38064D01*
X3425Y38052D01*
X3424Y38039D01*
X3449Y37852D01*
X3471Y37665D01*
X3475Y37653D01*
X3476Y37640D01*
X3537Y37462D01*
X3596Y37282D01*
X3602Y37271D01*
X3606Y37259D01*
X3701Y37096D01*
X3793Y36931D01*
X3802Y36922D01*
X3808Y36911D01*
X3934Y36769D01*
X4057Y36627D01*
X4066Y36619D01*
X4075Y36609D01*
X4227Y36495D01*
X4375Y36380D01*
X4386Y36374D01*
X4396Y36366D01*
X4566Y36284D01*
X4735Y36200D01*
X4747Y36197D01*
X4759Y36192D01*
X4940Y36145D01*
X5124Y36096D01*
X5138Y36095D01*
X5149Y36092D01*
X5212Y36089D01*
X5455Y36069D01*
X20432Y36069D01*
X20437Y36069D01*
G37*
G36*
X132973Y2379D02*
X132973Y2379D01*
X133049Y2377D01*
X169971Y4468D01*
X170042Y4479D01*
X170147Y4486D01*
X206747Y9786D01*
X206817Y9803D01*
X206921Y9819D01*
X242919Y18289D01*
X242987Y18312D01*
X243089Y18337D01*
X278212Y29912D01*
X278278Y29942D01*
X278378Y29975D01*
X312358Y44568D01*
X312407Y44595D01*
X312478Y44624D01*
X327542Y52296D01*
X327667Y52377D01*
X327797Y52451D01*
X327836Y52485D01*
X327881Y52514D01*
X327988Y52617D01*
X328022Y52647D01*
X329016Y53059D01*
X329086Y53097D01*
X329199Y53146D01*
X330095Y53628D01*
X330168Y53628D01*
X330292Y53654D01*
X330418Y53670D01*
X330501Y53697D01*
X330562Y53710D01*
X330630Y53739D01*
X330734Y53772D01*
X342926Y58829D01*
X371210Y67763D01*
X400165Y74197D01*
X429571Y78084D01*
X443476Y78698D01*
X443513Y78703D01*
X443551Y78703D01*
X443712Y78732D01*
X443875Y78756D01*
X443910Y78768D01*
X443947Y78775D01*
X444241Y78886D01*
X444254Y78891D01*
X444255Y78891D01*
X444257Y78892D01*
X452053Y82589D01*
X452127Y82634D01*
X452285Y82719D01*
X467996Y92873D01*
X468005Y92880D01*
X468015Y92886D01*
X468040Y92905D01*
X468063Y92918D01*
X468127Y92974D01*
X468276Y93091D01*
X481986Y105819D01*
X482043Y105884D01*
X482168Y106013D01*
X487850Y112875D01*
X487914Y112970D01*
X487987Y113060D01*
X488035Y113150D01*
X488075Y113209D01*
X488100Y113270D01*
X488145Y113352D01*
X488333Y113780D01*
X488437Y113832D01*
X488443Y113837D01*
X488451Y113841D01*
X488602Y113960D01*
X488755Y114079D01*
X488761Y114086D01*
X488767Y114091D01*
X488799Y114128D01*
X489341Y114203D01*
X489410Y114220D01*
X489481Y114228D01*
X489647Y114277D01*
X489732Y114298D01*
X489761Y114311D01*
X489799Y114322D01*
X671715Y185067D01*
X671763Y185092D01*
X671815Y185110D01*
X672006Y185215D01*
X672074Y185250D01*
X672087Y185260D01*
X672105Y185270D01*
X672603Y185602D01*
X672690Y185594D01*
X672697Y185595D01*
X672705Y185594D01*
X672896Y185615D01*
X673090Y185634D01*
X673098Y185636D01*
X673106Y185637D01*
X673127Y185644D01*
X673667Y185406D01*
X673719Y185389D01*
X673768Y185365D01*
X673978Y185305D01*
X674050Y185281D01*
X674067Y185279D01*
X674087Y185274D01*
X742476Y171596D01*
X742477Y171596D01*
X744333Y171224D01*
X744406Y171217D01*
X744511Y171197D01*
X746374Y170993D01*
X746478Y170992D01*
X746580Y170981D01*
X746699Y170990D01*
X746777Y170989D01*
X746833Y171000D01*
X746911Y171006D01*
X750600Y171587D01*
X750787Y171636D01*
X750973Y171683D01*
X750982Y171687D01*
X750989Y171689D01*
X751036Y171711D01*
X751275Y171820D01*
X754534Y173643D01*
X754693Y173753D01*
X754852Y173862D01*
X754858Y173869D01*
X754865Y173873D01*
X754900Y173910D01*
X755087Y174096D01*
X757513Y176935D01*
X757623Y177093D01*
X757735Y177250D01*
X757739Y177259D01*
X757743Y177265D01*
X757764Y177312D01*
X757875Y177551D01*
X759168Y181054D01*
X759194Y181154D01*
X759230Y181251D01*
X759250Y181368D01*
X759269Y181444D01*
X759273Y181501D01*
X759286Y181578D01*
X759451Y183445D01*
X759451Y183518D01*
X759459Y183625D01*
X759459Y215900D01*
X759457Y215918D01*
X759459Y215936D01*
X759438Y216118D01*
X759419Y216301D01*
X759414Y216318D01*
X759412Y216335D01*
X759355Y216510D01*
X759301Y216686D01*
X759293Y216701D01*
X759287Y216718D01*
X759197Y216878D01*
X759109Y217040D01*
X759098Y217053D01*
X759089Y217069D01*
X758969Y217208D01*
X758852Y217349D01*
X758838Y217360D01*
X758826Y217374D01*
X758681Y217486D01*
X758538Y217601D01*
X758522Y217609D01*
X758508Y217620D01*
X758343Y217702D01*
X758181Y217787D01*
X758164Y217792D01*
X758148Y217800D01*
X757969Y217847D01*
X757794Y217898D01*
X757776Y217900D01*
X757759Y217904D01*
X757428Y217931D01*
X738886Y217931D01*
X738868Y217929D01*
X738851Y217931D01*
X738668Y217910D01*
X738486Y217891D01*
X738469Y217886D01*
X738451Y217884D01*
X738373Y217859D01*
X738236Y217898D01*
X738218Y217900D01*
X738201Y217904D01*
X737870Y217931D01*
X722376Y217931D01*
X722358Y217929D01*
X722340Y217931D01*
X722158Y217910D01*
X721975Y217891D01*
X721958Y217886D01*
X721941Y217884D01*
X721766Y217827D01*
X721590Y217773D01*
X721575Y217765D01*
X721558Y217759D01*
X721398Y217669D01*
X721236Y217581D01*
X721223Y217570D01*
X721207Y217561D01*
X721068Y217441D01*
X720927Y217324D01*
X720916Y217310D01*
X720902Y217298D01*
X720790Y217153D01*
X720675Y217010D01*
X720667Y216994D01*
X720656Y216980D01*
X720574Y216815D01*
X720489Y216653D01*
X720484Y216636D01*
X720476Y216620D01*
X720429Y216441D01*
X720378Y216266D01*
X720376Y216248D01*
X720372Y216231D01*
X720345Y215900D01*
X720345Y213727D01*
X718682Y209713D01*
X715609Y206640D01*
X712473Y205341D01*
X711595Y204977D01*
X707249Y204977D01*
X703235Y206640D01*
X702587Y207287D01*
X702574Y207299D01*
X702562Y207312D01*
X702418Y207426D01*
X702276Y207543D01*
X702260Y207551D01*
X702246Y207562D01*
X702082Y207646D01*
X701920Y207731D01*
X701903Y207736D01*
X701887Y207744D01*
X701710Y207794D01*
X701534Y207846D01*
X701517Y207848D01*
X701499Y207852D01*
X701316Y207866D01*
X701133Y207882D01*
X701116Y207880D01*
X701098Y207882D01*
X700916Y207859D01*
X700733Y207839D01*
X700716Y207834D01*
X700698Y207831D01*
X700525Y207773D01*
X700349Y207717D01*
X700334Y207709D01*
X700317Y207703D01*
X700157Y207611D01*
X699997Y207523D01*
X699983Y207511D01*
X699968Y207502D01*
X699715Y207287D01*
X697423Y204995D01*
X405857Y116258D01*
X65537Y31178D01*
X65454Y31148D01*
X65368Y31128D01*
X65265Y31080D01*
X65158Y31042D01*
X65083Y30997D01*
X65002Y30960D01*
X64911Y30893D01*
X64813Y30834D01*
X64748Y30775D01*
X64677Y30723D01*
X64600Y30639D01*
X64516Y30562D01*
X64464Y30491D01*
X64405Y30426D01*
X64346Y30329D01*
X64279Y30237D01*
X64242Y30157D01*
X64196Y30082D01*
X64158Y29975D01*
X64110Y29872D01*
X64090Y29786D01*
X64060Y29703D01*
X64043Y29590D01*
X64017Y29480D01*
X64014Y29392D01*
X64001Y29305D01*
X64007Y29191D01*
X64003Y29078D01*
X64017Y28991D01*
X64022Y28903D01*
X64054Y28764D01*
X64068Y28680D01*
X64084Y28638D01*
X64098Y28580D01*
X64223Y28196D01*
X64263Y27939D01*
X53086Y27939D01*
X53068Y27937D01*
X53051Y27939D01*
X52868Y27918D01*
X52686Y27899D01*
X52669Y27894D01*
X52651Y27892D01*
X52476Y27835D01*
X52301Y27781D01*
X52285Y27773D01*
X52268Y27767D01*
X52214Y27736D01*
X52170Y27737D01*
X52034Y27748D01*
X51970Y27741D01*
X51905Y27742D01*
X51719Y27711D01*
X51634Y27701D01*
X51610Y27693D01*
X51577Y27688D01*
X50550Y27431D01*
X36576Y27431D01*
X36558Y27429D01*
X36540Y27431D01*
X36358Y27410D01*
X36175Y27391D01*
X36158Y27386D01*
X36141Y27384D01*
X35966Y27327D01*
X35790Y27273D01*
X35775Y27265D01*
X35758Y27259D01*
X35598Y27169D01*
X35436Y27081D01*
X35423Y27070D01*
X35407Y27061D01*
X35268Y26941D01*
X35127Y26824D01*
X35116Y26810D01*
X35102Y26798D01*
X34990Y26653D01*
X34875Y26510D01*
X34867Y26494D01*
X34856Y26480D01*
X34774Y26315D01*
X34689Y26153D01*
X34684Y26136D01*
X34676Y26120D01*
X34629Y25941D01*
X34578Y25766D01*
X34576Y25748D01*
X34572Y25731D01*
X34545Y25400D01*
X34545Y23227D01*
X32882Y19213D01*
X29809Y16140D01*
X25795Y14477D01*
X21449Y14477D01*
X17435Y16140D01*
X14362Y19213D01*
X12699Y23227D01*
X12699Y25400D01*
X12697Y25418D01*
X12699Y25436D01*
X12678Y25618D01*
X12659Y25801D01*
X12654Y25818D01*
X12652Y25835D01*
X12595Y26010D01*
X12541Y26186D01*
X12533Y26201D01*
X12527Y26218D01*
X12437Y26378D01*
X12349Y26540D01*
X12338Y26553D01*
X12329Y26569D01*
X12209Y26708D01*
X12092Y26849D01*
X12078Y26860D01*
X12066Y26874D01*
X11921Y26986D01*
X11778Y27101D01*
X11762Y27109D01*
X11748Y27120D01*
X11583Y27202D01*
X11421Y27287D01*
X11404Y27292D01*
X11388Y27300D01*
X11209Y27347D01*
X11034Y27398D01*
X11016Y27400D01*
X10999Y27404D01*
X10668Y27431D01*
X4620Y27431D01*
X4523Y27422D01*
X4426Y27422D01*
X4324Y27402D01*
X4220Y27391D01*
X4127Y27363D01*
X4031Y27344D01*
X3935Y27304D01*
X3835Y27273D01*
X3749Y27227D01*
X3659Y27189D01*
X3572Y27131D01*
X3481Y27081D01*
X3406Y27019D01*
X3325Y26964D01*
X3252Y26890D01*
X3172Y26824D01*
X3111Y26748D01*
X3042Y26678D01*
X2985Y26591D01*
X2919Y26510D01*
X2874Y26423D01*
X2821Y26342D01*
X2782Y26245D01*
X2734Y26153D01*
X2707Y26059D01*
X2670Y25968D01*
X2651Y25866D01*
X2622Y25766D01*
X2614Y25668D01*
X2597Y25572D01*
X2596Y25445D01*
X2590Y25364D01*
X2596Y25312D01*
X2595Y25241D01*
X2811Y22502D01*
X2824Y22430D01*
X2828Y22357D01*
X2847Y22274D01*
X2850Y22251D01*
X2860Y22221D01*
X2867Y22192D01*
X2882Y22106D01*
X2894Y22075D01*
X2904Y22034D01*
X4977Y15653D01*
X5039Y15513D01*
X5094Y15370D01*
X5122Y15323D01*
X5139Y15284D01*
X5189Y15214D01*
X5266Y15087D01*
X9210Y9659D01*
X9311Y9545D01*
X9407Y9426D01*
X9449Y9390D01*
X9477Y9358D01*
X9546Y9307D01*
X9659Y9210D01*
X15087Y5266D01*
X15219Y5189D01*
X15347Y5105D01*
X15398Y5084D01*
X15434Y5063D01*
X15516Y5035D01*
X15653Y4977D01*
X22034Y2904D01*
X22106Y2889D01*
X22175Y2864D01*
X22342Y2837D01*
X22427Y2818D01*
X22460Y2818D01*
X22502Y2811D01*
X25857Y2547D01*
X25923Y2548D01*
X26016Y2541D01*
X112488Y2541D01*
X112684Y2560D01*
X112880Y2579D01*
X112884Y2580D01*
X112889Y2581D01*
X112902Y2585D01*
X114308Y2542D01*
X114335Y2544D01*
X114370Y2541D01*
X115998Y2541D01*
X116194Y2523D01*
X132916Y2374D01*
X132973Y2379D01*
G37*
%LPC*%
G36*
X740917Y243839D02*
X740917Y243839D01*
X740917Y252985D01*
X741174Y252945D01*
X742961Y252364D01*
X744635Y251511D01*
X746156Y250406D01*
X747484Y249078D01*
X748589Y247557D01*
X749442Y245883D01*
X750023Y244096D01*
X750063Y243839D01*
X740917Y243839D01*
G37*
%LPD*%
%LPC*%
G36*
X55117Y53339D02*
X55117Y53339D01*
X55117Y62485D01*
X55374Y62445D01*
X57161Y61864D01*
X58835Y61011D01*
X60356Y59906D01*
X61684Y58578D01*
X62789Y57057D01*
X63642Y55383D01*
X64223Y53596D01*
X64263Y53339D01*
X55117Y53339D01*
G37*
%LPD*%
%LPC*%
G36*
X726693Y243839D02*
X726693Y243839D01*
X726733Y244096D01*
X727314Y245883D01*
X728167Y247557D01*
X729272Y249078D01*
X730600Y250406D01*
X732121Y251511D01*
X733795Y252364D01*
X735582Y252945D01*
X735839Y252985D01*
X735839Y243839D01*
X726693Y243839D01*
G37*
%LPD*%
%LPC*%
G36*
X740917Y213361D02*
X740917Y213361D01*
X750063Y213361D01*
X750023Y213104D01*
X749442Y211317D01*
X748589Y209643D01*
X747484Y208122D01*
X746156Y206794D01*
X744635Y205689D01*
X742961Y204836D01*
X741174Y204255D01*
X740917Y204215D01*
X740917Y213361D01*
G37*
%LPD*%
%LPC*%
G36*
X40893Y53339D02*
X40893Y53339D01*
X40933Y53596D01*
X41514Y55383D01*
X42367Y57057D01*
X43472Y58578D01*
X44800Y59906D01*
X46321Y61011D01*
X47995Y61864D01*
X49782Y62445D01*
X50039Y62485D01*
X50039Y53339D01*
X40893Y53339D01*
G37*
%LPD*%
%LPC*%
G36*
X55117Y22861D02*
X55117Y22861D01*
X64263Y22861D01*
X64223Y22604D01*
X63642Y20817D01*
X62789Y19143D01*
X61684Y17622D01*
X60356Y16294D01*
X58835Y15189D01*
X57161Y14336D01*
X55374Y13755D01*
X55117Y13715D01*
X55117Y22861D01*
G37*
%LPD*%
%LPC*%
G36*
X735582Y204255D02*
X735582Y204255D01*
X733795Y204836D01*
X732121Y205689D01*
X730600Y206794D01*
X729272Y208122D01*
X728167Y209643D01*
X727314Y211317D01*
X726733Y213104D01*
X726693Y213361D01*
X735839Y213361D01*
X735839Y204215D01*
X735582Y204255D01*
G37*
%LPD*%
%LPC*%
G36*
X49782Y13755D02*
X49782Y13755D01*
X47995Y14336D01*
X46321Y15189D01*
X44800Y16294D01*
X43472Y17622D01*
X42367Y19143D01*
X41514Y20817D01*
X40933Y22604D01*
X40893Y22861D01*
X50039Y22861D01*
X50039Y13715D01*
X49782Y13755D01*
G37*
%LPD*%
D10*
X709422Y241300D03*
X738378Y241300D03*
X709422Y215900D03*
X738378Y215900D03*
X23622Y50800D03*
X52578Y50800D03*
X23622Y25400D03*
X52578Y25400D03*
M02*
