G04 EAGLE Gerber X2 export*
G75*
%MOMM*%
%FSLAX34Y34*%
%LPD*%
%AMOC8*
5,1,8,0,0,1.08239X$1,22.5*%
G01*
%ADD10C,0.076200*%
%ADD11C,2.082800*%


D10*
X56397Y104775D02*
X56397Y97409D01*
X58443Y97409D01*
X58512Y97411D01*
X58580Y97417D01*
X58649Y97426D01*
X58716Y97440D01*
X58783Y97457D01*
X58849Y97478D01*
X58913Y97502D01*
X58976Y97531D01*
X59037Y97562D01*
X59096Y97597D01*
X59154Y97635D01*
X59209Y97677D01*
X59261Y97721D01*
X59311Y97769D01*
X59359Y97819D01*
X59403Y97871D01*
X59445Y97926D01*
X59483Y97984D01*
X59518Y98043D01*
X59549Y98104D01*
X59578Y98167D01*
X59602Y98231D01*
X59623Y98297D01*
X59640Y98364D01*
X59654Y98431D01*
X59663Y98500D01*
X59669Y98568D01*
X59671Y98637D01*
X59671Y101092D01*
X59669Y101161D01*
X59663Y101229D01*
X59654Y101298D01*
X59640Y101365D01*
X59623Y101432D01*
X59602Y101498D01*
X59578Y101562D01*
X59549Y101625D01*
X59518Y101686D01*
X59483Y101745D01*
X59445Y101803D01*
X59403Y101858D01*
X59359Y101910D01*
X59311Y101960D01*
X59261Y102008D01*
X59209Y102052D01*
X59154Y102094D01*
X59096Y102132D01*
X59037Y102167D01*
X58976Y102198D01*
X58913Y102227D01*
X58849Y102251D01*
X58783Y102272D01*
X58716Y102289D01*
X58649Y102303D01*
X58580Y102312D01*
X58512Y102318D01*
X58443Y102320D01*
X56397Y102320D01*
X62452Y94954D02*
X63271Y94954D01*
X65726Y102320D01*
X62452Y102320D02*
X64089Y97409D01*
X32384Y91355D02*
X31156Y91355D01*
X31156Y91356D02*
X31087Y91354D01*
X31019Y91348D01*
X30950Y91339D01*
X30883Y91325D01*
X30816Y91308D01*
X30750Y91287D01*
X30686Y91263D01*
X30623Y91234D01*
X30562Y91203D01*
X30503Y91168D01*
X30445Y91130D01*
X30390Y91088D01*
X30338Y91044D01*
X30288Y90996D01*
X30240Y90946D01*
X30196Y90894D01*
X30155Y90839D01*
X30116Y90781D01*
X30081Y90722D01*
X30050Y90661D01*
X30021Y90598D01*
X29997Y90534D01*
X29976Y90468D01*
X29959Y90401D01*
X29945Y90334D01*
X29936Y90266D01*
X29930Y90197D01*
X29928Y90128D01*
X29929Y90128D02*
X29929Y87672D01*
X29928Y87672D02*
X29930Y87603D01*
X29936Y87535D01*
X29945Y87466D01*
X29959Y87399D01*
X29976Y87332D01*
X29997Y87266D01*
X30021Y87202D01*
X30050Y87139D01*
X30081Y87078D01*
X30116Y87019D01*
X30154Y86961D01*
X30196Y86906D01*
X30240Y86854D01*
X30288Y86804D01*
X30338Y86756D01*
X30390Y86712D01*
X30445Y86670D01*
X30503Y86632D01*
X30562Y86597D01*
X30623Y86566D01*
X30686Y86537D01*
X30750Y86513D01*
X30816Y86492D01*
X30883Y86475D01*
X30950Y86461D01*
X31019Y86452D01*
X31087Y86446D01*
X31156Y86444D01*
X31225Y86446D01*
X31293Y86452D01*
X31362Y86461D01*
X31429Y86475D01*
X31496Y86492D01*
X31562Y86513D01*
X31626Y86537D01*
X31689Y86566D01*
X31750Y86597D01*
X31809Y86632D01*
X31867Y86670D01*
X31922Y86712D01*
X31974Y86756D01*
X32024Y86804D01*
X32072Y86854D01*
X32116Y86906D01*
X32158Y86961D01*
X32196Y87019D01*
X32231Y87078D01*
X32262Y87139D01*
X32291Y87202D01*
X32315Y87266D01*
X32336Y87332D01*
X32353Y87399D01*
X32367Y87466D01*
X32376Y87535D01*
X32382Y87603D01*
X32384Y87672D01*
X32384Y87468D02*
X32384Y91355D01*
X32384Y87468D02*
X32386Y87405D01*
X32392Y87342D01*
X32401Y87280D01*
X32415Y87218D01*
X32432Y87158D01*
X32453Y87098D01*
X32478Y87040D01*
X32506Y86984D01*
X32537Y86929D01*
X32572Y86877D01*
X32610Y86827D01*
X32651Y86779D01*
X32695Y86734D01*
X32741Y86691D01*
X32791Y86652D01*
X32842Y86615D01*
X32896Y86582D01*
X32951Y86552D01*
X33008Y86526D01*
X33067Y86503D01*
X33127Y86484D01*
X33188Y86469D01*
X33250Y86457D01*
X33313Y86449D01*
X33375Y86445D01*
X33439Y86445D01*
X33501Y86449D01*
X33564Y86457D01*
X33626Y86469D01*
X33687Y86484D01*
X33747Y86503D01*
X33806Y86526D01*
X33863Y86552D01*
X33918Y86582D01*
X33972Y86615D01*
X34023Y86652D01*
X34073Y86691D01*
X34119Y86734D01*
X34163Y86779D01*
X34204Y86827D01*
X34242Y86877D01*
X34277Y86929D01*
X34308Y86984D01*
X34336Y87040D01*
X34361Y87098D01*
X34382Y87158D01*
X34399Y87218D01*
X34413Y87280D01*
X34422Y87342D01*
X34428Y87405D01*
X34430Y87468D01*
X34430Y90537D01*
X34428Y90650D01*
X34422Y90763D01*
X34412Y90875D01*
X34399Y90988D01*
X34381Y91099D01*
X34360Y91210D01*
X34335Y91321D01*
X34306Y91430D01*
X34273Y91538D01*
X34237Y91645D01*
X34197Y91751D01*
X34153Y91855D01*
X34106Y91958D01*
X34055Y92059D01*
X34001Y92158D01*
X33943Y92255D01*
X33882Y92350D01*
X33818Y92443D01*
X33751Y92534D01*
X33680Y92622D01*
X33607Y92708D01*
X33530Y92791D01*
X33451Y92872D01*
X33369Y92950D01*
X33284Y93025D01*
X33197Y93097D01*
X33108Y93166D01*
X33016Y93231D01*
X32922Y93294D01*
X32826Y93353D01*
X32727Y93409D01*
X32627Y93462D01*
X32525Y93511D01*
X32422Y93556D01*
X32317Y93598D01*
X32211Y93636D01*
X32103Y93671D01*
X31994Y93702D01*
X31885Y93729D01*
X31774Y93752D01*
X31663Y93772D01*
X31551Y93787D01*
X31438Y93799D01*
X31325Y93807D01*
X31213Y93811D01*
X31099Y93811D01*
X30987Y93807D01*
X30874Y93799D01*
X30761Y93787D01*
X30649Y93772D01*
X30538Y93752D01*
X30427Y93729D01*
X30318Y93702D01*
X30209Y93671D01*
X30101Y93636D01*
X29995Y93598D01*
X29890Y93556D01*
X29787Y93511D01*
X29685Y93462D01*
X29585Y93409D01*
X29486Y93353D01*
X29390Y93294D01*
X29296Y93231D01*
X29204Y93166D01*
X29115Y93097D01*
X29028Y93025D01*
X28943Y92950D01*
X28861Y92872D01*
X28782Y92791D01*
X28705Y92708D01*
X28632Y92622D01*
X28561Y92534D01*
X28494Y92443D01*
X28430Y92350D01*
X28369Y92255D01*
X28311Y92158D01*
X28257Y92059D01*
X28206Y91958D01*
X28159Y91855D01*
X28115Y91751D01*
X28075Y91645D01*
X28039Y91538D01*
X28006Y91430D01*
X27977Y91321D01*
X27952Y91210D01*
X27931Y91099D01*
X27913Y90988D01*
X27900Y90875D01*
X27890Y90763D01*
X27884Y90650D01*
X27882Y90537D01*
X27883Y90537D02*
X27883Y87059D01*
X27885Y86949D01*
X27891Y86839D01*
X27901Y86730D01*
X27914Y86621D01*
X27932Y86512D01*
X27954Y86404D01*
X27979Y86297D01*
X28008Y86191D01*
X28041Y86086D01*
X28078Y85982D01*
X28118Y85880D01*
X28162Y85779D01*
X28209Y85680D01*
X28260Y85583D01*
X28315Y85487D01*
X28373Y85394D01*
X28434Y85302D01*
X28498Y85213D01*
X28566Y85126D01*
X28637Y85042D01*
X28710Y84960D01*
X28787Y84881D01*
X28866Y84805D01*
X28948Y84731D01*
X29032Y84661D01*
X29119Y84594D01*
X29209Y84530D01*
X29300Y84469D01*
X29394Y84411D01*
X29490Y84357D01*
X29587Y84306D01*
X29686Y84259D01*
X29787Y84215D01*
X29890Y84175D01*
X29994Y84138D01*
X30099Y84106D01*
X30205Y84077D01*
X30312Y84052D01*
X30420Y84031D01*
X30528Y84013D01*
X30638Y84000D01*
X30747Y83990D01*
X38668Y88082D02*
X40714Y87263D01*
X38668Y88082D02*
X38609Y88107D01*
X38552Y88136D01*
X38497Y88169D01*
X38444Y88205D01*
X38393Y88243D01*
X38345Y88285D01*
X38299Y88330D01*
X38256Y88377D01*
X38216Y88427D01*
X38179Y88479D01*
X38145Y88534D01*
X38114Y88590D01*
X38087Y88648D01*
X38064Y88708D01*
X38044Y88768D01*
X38028Y88830D01*
X38015Y88893D01*
X38007Y88957D01*
X38002Y89020D01*
X38001Y89084D01*
X38004Y89148D01*
X38011Y89212D01*
X38022Y89275D01*
X38036Y89337D01*
X38054Y89399D01*
X38076Y89459D01*
X38101Y89518D01*
X38130Y89575D01*
X38163Y89630D01*
X38198Y89683D01*
X38237Y89734D01*
X38279Y89783D01*
X38323Y89829D01*
X38371Y89872D01*
X38420Y89912D01*
X38473Y89949D01*
X38527Y89983D01*
X38583Y90014D01*
X38641Y90041D01*
X38700Y90065D01*
X38761Y90084D01*
X38823Y90101D01*
X38886Y90113D01*
X38949Y90122D01*
X39013Y90127D01*
X39077Y90128D01*
X39213Y90124D01*
X39348Y90116D01*
X39484Y90104D01*
X39618Y90088D01*
X39753Y90068D01*
X39886Y90045D01*
X40019Y90017D01*
X40151Y89986D01*
X40282Y89951D01*
X40412Y89912D01*
X40541Y89869D01*
X40668Y89822D01*
X40794Y89772D01*
X40919Y89718D01*
X40714Y87263D02*
X40773Y87238D01*
X40830Y87209D01*
X40885Y87176D01*
X40938Y87140D01*
X40989Y87102D01*
X41037Y87060D01*
X41083Y87015D01*
X41126Y86968D01*
X41166Y86918D01*
X41203Y86866D01*
X41237Y86811D01*
X41268Y86755D01*
X41295Y86697D01*
X41318Y86637D01*
X41338Y86577D01*
X41354Y86515D01*
X41367Y86452D01*
X41375Y86388D01*
X41380Y86325D01*
X41381Y86261D01*
X41378Y86197D01*
X41371Y86133D01*
X41360Y86070D01*
X41346Y86008D01*
X41328Y85946D01*
X41306Y85886D01*
X41281Y85827D01*
X41252Y85770D01*
X41219Y85715D01*
X41184Y85662D01*
X41145Y85611D01*
X41103Y85562D01*
X41059Y85516D01*
X41011Y85473D01*
X40962Y85433D01*
X40909Y85396D01*
X40855Y85362D01*
X40799Y85331D01*
X40741Y85304D01*
X40682Y85280D01*
X40621Y85261D01*
X40559Y85244D01*
X40496Y85232D01*
X40433Y85223D01*
X40369Y85218D01*
X40305Y85217D01*
X40141Y85221D01*
X39977Y85229D01*
X39813Y85241D01*
X39650Y85257D01*
X39487Y85277D01*
X39324Y85300D01*
X39163Y85328D01*
X39001Y85359D01*
X38841Y85394D01*
X38682Y85433D01*
X38523Y85476D01*
X38366Y85522D01*
X38209Y85572D01*
X38054Y85626D01*
X45621Y85217D02*
X47667Y85217D01*
X45621Y85217D02*
X45552Y85219D01*
X45484Y85225D01*
X45415Y85234D01*
X45348Y85248D01*
X45281Y85265D01*
X45215Y85286D01*
X45151Y85310D01*
X45088Y85339D01*
X45027Y85370D01*
X44968Y85405D01*
X44910Y85443D01*
X44855Y85485D01*
X44803Y85529D01*
X44753Y85577D01*
X44705Y85627D01*
X44661Y85679D01*
X44619Y85734D01*
X44581Y85792D01*
X44546Y85851D01*
X44515Y85912D01*
X44486Y85975D01*
X44462Y86039D01*
X44441Y86105D01*
X44424Y86172D01*
X44410Y86239D01*
X44401Y86308D01*
X44395Y86376D01*
X44393Y86445D01*
X44394Y86445D02*
X44394Y88491D01*
X44396Y88570D01*
X44402Y88649D01*
X44411Y88728D01*
X44424Y88806D01*
X44442Y88883D01*
X44462Y88959D01*
X44487Y89034D01*
X44515Y89108D01*
X44546Y89181D01*
X44582Y89252D01*
X44620Y89321D01*
X44662Y89388D01*
X44707Y89453D01*
X44755Y89516D01*
X44806Y89577D01*
X44860Y89634D01*
X44916Y89690D01*
X44975Y89742D01*
X45037Y89792D01*
X45101Y89838D01*
X45167Y89882D01*
X45235Y89922D01*
X45305Y89958D01*
X45377Y89992D01*
X45451Y90022D01*
X45525Y90048D01*
X45601Y90071D01*
X45678Y90089D01*
X45755Y90105D01*
X45834Y90116D01*
X45912Y90124D01*
X45991Y90128D01*
X46071Y90128D01*
X46150Y90124D01*
X46228Y90116D01*
X46307Y90105D01*
X46384Y90089D01*
X46461Y90071D01*
X46537Y90048D01*
X46611Y90022D01*
X46685Y89992D01*
X46757Y89958D01*
X46827Y89922D01*
X46895Y89882D01*
X46961Y89838D01*
X47025Y89792D01*
X47087Y89742D01*
X47146Y89690D01*
X47202Y89634D01*
X47256Y89577D01*
X47307Y89516D01*
X47355Y89453D01*
X47400Y89388D01*
X47442Y89321D01*
X47480Y89252D01*
X47516Y89181D01*
X47547Y89108D01*
X47575Y89034D01*
X47600Y88959D01*
X47620Y88883D01*
X47638Y88806D01*
X47651Y88728D01*
X47660Y88649D01*
X47666Y88570D01*
X47668Y88491D01*
X47667Y88491D02*
X47667Y87672D01*
X44394Y87672D01*
X51970Y85217D02*
X53607Y85217D01*
X51970Y85217D02*
X51901Y85219D01*
X51833Y85225D01*
X51764Y85234D01*
X51697Y85248D01*
X51630Y85265D01*
X51564Y85286D01*
X51500Y85310D01*
X51437Y85339D01*
X51376Y85370D01*
X51317Y85405D01*
X51259Y85443D01*
X51204Y85485D01*
X51152Y85529D01*
X51102Y85577D01*
X51054Y85627D01*
X51010Y85679D01*
X50968Y85734D01*
X50930Y85792D01*
X50895Y85851D01*
X50864Y85912D01*
X50835Y85975D01*
X50811Y86039D01*
X50790Y86105D01*
X50773Y86172D01*
X50759Y86239D01*
X50750Y86308D01*
X50744Y86376D01*
X50742Y86445D01*
X50743Y86445D02*
X50743Y88900D01*
X50742Y88900D02*
X50744Y88969D01*
X50750Y89037D01*
X50759Y89106D01*
X50773Y89173D01*
X50790Y89240D01*
X50811Y89306D01*
X50835Y89370D01*
X50864Y89433D01*
X50895Y89494D01*
X50930Y89553D01*
X50968Y89611D01*
X51010Y89666D01*
X51054Y89718D01*
X51102Y89768D01*
X51152Y89816D01*
X51204Y89860D01*
X51259Y89902D01*
X51317Y89940D01*
X51376Y89975D01*
X51437Y90006D01*
X51500Y90035D01*
X51564Y90059D01*
X51630Y90080D01*
X51697Y90097D01*
X51764Y90111D01*
X51833Y90120D01*
X51901Y90126D01*
X51970Y90128D01*
X53607Y90128D01*
X56586Y90128D02*
X56586Y86445D01*
X56585Y86445D02*
X56587Y86376D01*
X56593Y86308D01*
X56602Y86239D01*
X56616Y86172D01*
X56633Y86105D01*
X56654Y86039D01*
X56678Y85975D01*
X56707Y85912D01*
X56738Y85851D01*
X56773Y85792D01*
X56811Y85734D01*
X56853Y85679D01*
X56897Y85627D01*
X56945Y85577D01*
X56995Y85529D01*
X57047Y85485D01*
X57102Y85443D01*
X57160Y85405D01*
X57219Y85370D01*
X57280Y85339D01*
X57343Y85310D01*
X57407Y85286D01*
X57473Y85265D01*
X57540Y85248D01*
X57607Y85234D01*
X57676Y85225D01*
X57744Y85219D01*
X57813Y85217D01*
X59859Y85217D01*
X59859Y90128D01*
X63459Y90128D02*
X63459Y85217D01*
X63459Y90128D02*
X65915Y90128D01*
X65915Y89309D01*
X69518Y85217D02*
X71564Y85217D01*
X69518Y85217D02*
X69449Y85219D01*
X69381Y85225D01*
X69312Y85234D01*
X69245Y85248D01*
X69178Y85265D01*
X69112Y85286D01*
X69048Y85310D01*
X68985Y85339D01*
X68924Y85370D01*
X68865Y85405D01*
X68807Y85443D01*
X68752Y85485D01*
X68700Y85529D01*
X68650Y85577D01*
X68602Y85627D01*
X68558Y85679D01*
X68516Y85734D01*
X68478Y85792D01*
X68443Y85851D01*
X68412Y85912D01*
X68383Y85975D01*
X68359Y86039D01*
X68338Y86105D01*
X68321Y86172D01*
X68307Y86239D01*
X68298Y86308D01*
X68292Y86376D01*
X68290Y86445D01*
X68290Y88491D01*
X68292Y88570D01*
X68298Y88649D01*
X68307Y88728D01*
X68320Y88806D01*
X68338Y88883D01*
X68358Y88959D01*
X68383Y89034D01*
X68411Y89108D01*
X68442Y89181D01*
X68478Y89252D01*
X68516Y89321D01*
X68558Y89388D01*
X68603Y89453D01*
X68651Y89516D01*
X68702Y89577D01*
X68756Y89634D01*
X68812Y89690D01*
X68871Y89742D01*
X68933Y89792D01*
X68997Y89838D01*
X69063Y89882D01*
X69131Y89922D01*
X69201Y89958D01*
X69273Y89992D01*
X69347Y90022D01*
X69421Y90048D01*
X69497Y90071D01*
X69574Y90089D01*
X69651Y90105D01*
X69730Y90116D01*
X69808Y90124D01*
X69887Y90128D01*
X69967Y90128D01*
X70046Y90124D01*
X70124Y90116D01*
X70203Y90105D01*
X70280Y90089D01*
X70357Y90071D01*
X70433Y90048D01*
X70507Y90022D01*
X70581Y89992D01*
X70653Y89958D01*
X70723Y89922D01*
X70791Y89882D01*
X70857Y89838D01*
X70921Y89792D01*
X70983Y89742D01*
X71042Y89690D01*
X71098Y89634D01*
X71152Y89577D01*
X71203Y89516D01*
X71251Y89453D01*
X71296Y89388D01*
X71338Y89321D01*
X71376Y89252D01*
X71412Y89181D01*
X71443Y89108D01*
X71471Y89034D01*
X71496Y88959D01*
X71516Y88883D01*
X71534Y88806D01*
X71547Y88728D01*
X71556Y88649D01*
X71562Y88570D01*
X71564Y88491D01*
X71564Y87672D01*
X68290Y87672D01*
X74713Y86445D02*
X74713Y92583D01*
X74712Y86445D02*
X74714Y86376D01*
X74720Y86308D01*
X74729Y86239D01*
X74743Y86172D01*
X74760Y86105D01*
X74781Y86039D01*
X74805Y85975D01*
X74834Y85912D01*
X74865Y85851D01*
X74900Y85792D01*
X74938Y85734D01*
X74980Y85679D01*
X75024Y85627D01*
X75072Y85577D01*
X75122Y85529D01*
X75174Y85485D01*
X75229Y85443D01*
X75287Y85405D01*
X75346Y85370D01*
X75407Y85339D01*
X75470Y85310D01*
X75534Y85286D01*
X75600Y85265D01*
X75667Y85248D01*
X75734Y85234D01*
X75803Y85225D01*
X75871Y85219D01*
X75940Y85217D01*
X78287Y82762D02*
X79106Y82762D01*
X81561Y90128D01*
X78287Y90128D02*
X79924Y85217D01*
X84777Y85217D02*
X84777Y91355D01*
X84776Y91355D02*
X84778Y91424D01*
X84784Y91492D01*
X84793Y91561D01*
X84807Y91628D01*
X84824Y91695D01*
X84845Y91761D01*
X84869Y91825D01*
X84898Y91888D01*
X84929Y91949D01*
X84964Y92008D01*
X85002Y92066D01*
X85044Y92121D01*
X85088Y92173D01*
X85136Y92223D01*
X85186Y92271D01*
X85238Y92315D01*
X85293Y92356D01*
X85351Y92395D01*
X85410Y92430D01*
X85471Y92461D01*
X85534Y92490D01*
X85598Y92514D01*
X85664Y92535D01*
X85731Y92552D01*
X85798Y92566D01*
X85866Y92575D01*
X85935Y92581D01*
X86004Y92583D01*
X86414Y92583D01*
X86414Y90128D02*
X83958Y90128D01*
X88458Y90128D02*
X88458Y85217D01*
X88254Y92174D02*
X88254Y92583D01*
X88663Y92583D01*
X88663Y92174D01*
X88254Y92174D01*
X90824Y90128D02*
X93279Y90128D01*
X91643Y92583D02*
X91643Y86445D01*
X91642Y86445D02*
X91644Y86376D01*
X91650Y86308D01*
X91659Y86239D01*
X91673Y86172D01*
X91690Y86105D01*
X91711Y86039D01*
X91735Y85975D01*
X91764Y85912D01*
X91795Y85851D01*
X91830Y85792D01*
X91868Y85734D01*
X91910Y85679D01*
X91954Y85627D01*
X92002Y85577D01*
X92052Y85529D01*
X92104Y85485D01*
X92159Y85443D01*
X92217Y85405D01*
X92276Y85370D01*
X92337Y85339D01*
X92400Y85310D01*
X92464Y85286D01*
X92530Y85265D01*
X92597Y85248D01*
X92664Y85234D01*
X92733Y85225D01*
X92801Y85219D01*
X92870Y85217D01*
X93279Y85217D01*
X95844Y90128D02*
X99117Y90128D01*
X95844Y85217D01*
X99117Y85217D01*
X24903Y73025D02*
X22857Y73025D01*
X22788Y73027D01*
X22720Y73033D01*
X22651Y73042D01*
X22584Y73056D01*
X22517Y73073D01*
X22451Y73094D01*
X22387Y73118D01*
X22324Y73147D01*
X22263Y73178D01*
X22204Y73213D01*
X22146Y73251D01*
X22091Y73293D01*
X22039Y73337D01*
X21989Y73385D01*
X21941Y73435D01*
X21897Y73487D01*
X21855Y73542D01*
X21817Y73600D01*
X21782Y73659D01*
X21751Y73720D01*
X21722Y73783D01*
X21698Y73847D01*
X21677Y73913D01*
X21660Y73980D01*
X21646Y74047D01*
X21637Y74116D01*
X21631Y74184D01*
X21629Y74253D01*
X21629Y76708D01*
X21631Y76777D01*
X21637Y76845D01*
X21646Y76914D01*
X21660Y76981D01*
X21677Y77048D01*
X21698Y77114D01*
X21722Y77178D01*
X21751Y77241D01*
X21782Y77302D01*
X21817Y77361D01*
X21855Y77419D01*
X21897Y77474D01*
X21941Y77526D01*
X21989Y77576D01*
X22039Y77624D01*
X22091Y77668D01*
X22146Y77710D01*
X22204Y77748D01*
X22263Y77783D01*
X22324Y77814D01*
X22387Y77843D01*
X22451Y77867D01*
X22517Y77888D01*
X22584Y77905D01*
X22651Y77919D01*
X22720Y77928D01*
X22788Y77934D01*
X22857Y77936D01*
X24903Y77936D01*
X24903Y71797D01*
X24901Y71728D01*
X24895Y71660D01*
X24886Y71591D01*
X24872Y71524D01*
X24855Y71457D01*
X24834Y71391D01*
X24810Y71327D01*
X24781Y71264D01*
X24750Y71203D01*
X24715Y71144D01*
X24677Y71086D01*
X24635Y71031D01*
X24591Y70979D01*
X24543Y70929D01*
X24493Y70881D01*
X24441Y70837D01*
X24386Y70796D01*
X24328Y70757D01*
X24269Y70722D01*
X24208Y70691D01*
X24145Y70662D01*
X24081Y70638D01*
X24015Y70617D01*
X23948Y70600D01*
X23881Y70586D01*
X23813Y70577D01*
X23744Y70571D01*
X23675Y70569D01*
X23675Y70570D02*
X22038Y70570D01*
X28183Y73025D02*
X28183Y77936D01*
X27979Y79982D02*
X27979Y80391D01*
X28388Y80391D01*
X28388Y79982D01*
X27979Y79982D01*
X30549Y77936D02*
X33005Y77936D01*
X31368Y80391D02*
X31368Y74253D01*
X31367Y74253D02*
X31369Y74184D01*
X31375Y74116D01*
X31384Y74047D01*
X31398Y73980D01*
X31415Y73913D01*
X31436Y73847D01*
X31460Y73783D01*
X31489Y73720D01*
X31520Y73659D01*
X31555Y73600D01*
X31593Y73542D01*
X31635Y73487D01*
X31679Y73435D01*
X31727Y73385D01*
X31777Y73337D01*
X31829Y73293D01*
X31884Y73251D01*
X31942Y73213D01*
X32001Y73178D01*
X32062Y73147D01*
X32125Y73118D01*
X32189Y73094D01*
X32255Y73073D01*
X32322Y73056D01*
X32389Y73042D01*
X32458Y73033D01*
X32526Y73027D01*
X32595Y73025D01*
X33005Y73025D01*
X35538Y73025D02*
X35538Y73434D01*
X35947Y73434D01*
X35947Y73025D01*
X35538Y73025D01*
X38668Y73025D02*
X38668Y77936D01*
X38464Y79982D02*
X38464Y80391D01*
X38873Y80391D01*
X38873Y79982D01*
X38464Y79982D01*
X41665Y76299D02*
X41665Y74662D01*
X41664Y76299D02*
X41666Y76378D01*
X41672Y76457D01*
X41681Y76536D01*
X41694Y76614D01*
X41712Y76691D01*
X41732Y76767D01*
X41757Y76842D01*
X41785Y76916D01*
X41816Y76989D01*
X41852Y77060D01*
X41890Y77129D01*
X41932Y77196D01*
X41977Y77261D01*
X42025Y77324D01*
X42076Y77385D01*
X42130Y77442D01*
X42186Y77498D01*
X42245Y77550D01*
X42307Y77600D01*
X42371Y77646D01*
X42437Y77690D01*
X42505Y77730D01*
X42575Y77766D01*
X42647Y77800D01*
X42721Y77830D01*
X42795Y77856D01*
X42871Y77879D01*
X42948Y77897D01*
X43025Y77913D01*
X43104Y77924D01*
X43182Y77932D01*
X43261Y77936D01*
X43341Y77936D01*
X43420Y77932D01*
X43498Y77924D01*
X43577Y77913D01*
X43654Y77897D01*
X43731Y77879D01*
X43807Y77856D01*
X43881Y77830D01*
X43955Y77800D01*
X44027Y77766D01*
X44097Y77730D01*
X44165Y77690D01*
X44231Y77646D01*
X44295Y77600D01*
X44357Y77550D01*
X44416Y77498D01*
X44472Y77442D01*
X44526Y77385D01*
X44577Y77324D01*
X44625Y77261D01*
X44670Y77196D01*
X44712Y77129D01*
X44750Y77060D01*
X44786Y76989D01*
X44817Y76916D01*
X44845Y76842D01*
X44870Y76767D01*
X44890Y76691D01*
X44908Y76614D01*
X44921Y76536D01*
X44930Y76457D01*
X44936Y76378D01*
X44938Y76299D01*
X44938Y74662D01*
X44936Y74583D01*
X44930Y74504D01*
X44921Y74425D01*
X44908Y74347D01*
X44890Y74270D01*
X44870Y74194D01*
X44845Y74119D01*
X44817Y74045D01*
X44786Y73972D01*
X44750Y73901D01*
X44712Y73832D01*
X44670Y73765D01*
X44625Y73700D01*
X44577Y73637D01*
X44526Y73576D01*
X44472Y73519D01*
X44416Y73463D01*
X44357Y73411D01*
X44295Y73361D01*
X44231Y73315D01*
X44165Y73271D01*
X44097Y73231D01*
X44027Y73195D01*
X43955Y73161D01*
X43881Y73131D01*
X43807Y73105D01*
X43731Y73082D01*
X43654Y73064D01*
X43577Y73048D01*
X43498Y73037D01*
X43420Y73029D01*
X43341Y73025D01*
X43261Y73025D01*
X43182Y73029D01*
X43104Y73037D01*
X43025Y73048D01*
X42948Y73064D01*
X42871Y73082D01*
X42795Y73105D01*
X42721Y73131D01*
X42647Y73161D01*
X42575Y73195D01*
X42505Y73231D01*
X42437Y73271D01*
X42371Y73315D01*
X42307Y73361D01*
X42245Y73411D01*
X42186Y73463D01*
X42130Y73519D01*
X42076Y73576D01*
X42025Y73637D01*
X41977Y73700D01*
X41932Y73765D01*
X41890Y73832D01*
X41852Y73901D01*
X41816Y73972D01*
X41785Y74045D01*
X41757Y74119D01*
X41732Y74194D01*
X41712Y74270D01*
X41694Y74347D01*
X41681Y74425D01*
X41672Y74504D01*
X41666Y74583D01*
X41664Y74662D01*
X47760Y72207D02*
X51034Y81209D01*
X54470Y75890D02*
X56516Y75071D01*
X54470Y75890D02*
X54411Y75915D01*
X54354Y75944D01*
X54299Y75977D01*
X54246Y76013D01*
X54195Y76051D01*
X54147Y76093D01*
X54101Y76138D01*
X54058Y76185D01*
X54018Y76235D01*
X53981Y76287D01*
X53947Y76342D01*
X53916Y76398D01*
X53889Y76456D01*
X53866Y76516D01*
X53846Y76576D01*
X53830Y76638D01*
X53817Y76701D01*
X53809Y76765D01*
X53804Y76828D01*
X53803Y76892D01*
X53806Y76956D01*
X53813Y77020D01*
X53824Y77083D01*
X53838Y77145D01*
X53856Y77207D01*
X53878Y77267D01*
X53903Y77326D01*
X53932Y77383D01*
X53965Y77438D01*
X54000Y77491D01*
X54039Y77542D01*
X54081Y77591D01*
X54125Y77637D01*
X54173Y77680D01*
X54222Y77720D01*
X54275Y77757D01*
X54329Y77791D01*
X54385Y77822D01*
X54443Y77849D01*
X54502Y77873D01*
X54563Y77892D01*
X54625Y77909D01*
X54688Y77921D01*
X54751Y77930D01*
X54815Y77935D01*
X54879Y77936D01*
X55015Y77932D01*
X55150Y77924D01*
X55286Y77912D01*
X55420Y77896D01*
X55555Y77876D01*
X55688Y77853D01*
X55821Y77825D01*
X55953Y77794D01*
X56084Y77759D01*
X56214Y77720D01*
X56343Y77677D01*
X56470Y77630D01*
X56596Y77580D01*
X56721Y77526D01*
X56516Y75071D02*
X56575Y75046D01*
X56632Y75017D01*
X56687Y74984D01*
X56740Y74948D01*
X56791Y74910D01*
X56839Y74868D01*
X56885Y74823D01*
X56928Y74776D01*
X56968Y74726D01*
X57005Y74674D01*
X57039Y74619D01*
X57070Y74563D01*
X57097Y74505D01*
X57120Y74445D01*
X57140Y74385D01*
X57156Y74323D01*
X57169Y74260D01*
X57177Y74196D01*
X57182Y74133D01*
X57183Y74069D01*
X57180Y74005D01*
X57173Y73941D01*
X57162Y73878D01*
X57148Y73816D01*
X57130Y73754D01*
X57108Y73694D01*
X57083Y73635D01*
X57054Y73578D01*
X57021Y73523D01*
X56986Y73470D01*
X56947Y73419D01*
X56905Y73370D01*
X56861Y73324D01*
X56813Y73281D01*
X56764Y73241D01*
X56711Y73204D01*
X56657Y73170D01*
X56601Y73139D01*
X56543Y73112D01*
X56484Y73088D01*
X56423Y73069D01*
X56361Y73052D01*
X56298Y73040D01*
X56235Y73031D01*
X56171Y73026D01*
X56107Y73025D01*
X55943Y73029D01*
X55779Y73037D01*
X55615Y73049D01*
X55452Y73065D01*
X55289Y73085D01*
X55126Y73108D01*
X54965Y73136D01*
X54803Y73167D01*
X54643Y73202D01*
X54484Y73241D01*
X54325Y73284D01*
X54168Y73330D01*
X54011Y73380D01*
X53856Y73434D01*
X61588Y75890D02*
X63429Y75890D01*
X61588Y75889D02*
X61513Y75887D01*
X61438Y75881D01*
X61364Y75871D01*
X61290Y75858D01*
X61217Y75840D01*
X61145Y75819D01*
X61075Y75794D01*
X61006Y75765D01*
X60938Y75733D01*
X60872Y75697D01*
X60808Y75658D01*
X60746Y75616D01*
X60687Y75570D01*
X60630Y75521D01*
X60575Y75470D01*
X60524Y75415D01*
X60475Y75358D01*
X60429Y75299D01*
X60387Y75237D01*
X60348Y75173D01*
X60312Y75107D01*
X60280Y75039D01*
X60251Y74970D01*
X60226Y74900D01*
X60205Y74828D01*
X60187Y74755D01*
X60174Y74681D01*
X60164Y74607D01*
X60158Y74532D01*
X60156Y74457D01*
X60158Y74382D01*
X60164Y74307D01*
X60174Y74233D01*
X60187Y74159D01*
X60205Y74086D01*
X60226Y74014D01*
X60251Y73944D01*
X60280Y73875D01*
X60312Y73807D01*
X60348Y73741D01*
X60387Y73677D01*
X60429Y73615D01*
X60475Y73556D01*
X60524Y73499D01*
X60575Y73444D01*
X60630Y73393D01*
X60687Y73344D01*
X60746Y73298D01*
X60808Y73256D01*
X60872Y73217D01*
X60938Y73181D01*
X61006Y73149D01*
X61075Y73120D01*
X61145Y73095D01*
X61217Y73074D01*
X61290Y73056D01*
X61364Y73043D01*
X61438Y73033D01*
X61513Y73027D01*
X61588Y73025D01*
X63429Y73025D01*
X63429Y76708D01*
X63427Y76777D01*
X63421Y76845D01*
X63412Y76914D01*
X63398Y76981D01*
X63381Y77048D01*
X63360Y77114D01*
X63336Y77178D01*
X63307Y77241D01*
X63276Y77302D01*
X63241Y77361D01*
X63203Y77419D01*
X63161Y77474D01*
X63117Y77526D01*
X63069Y77576D01*
X63019Y77624D01*
X62967Y77668D01*
X62912Y77710D01*
X62854Y77748D01*
X62795Y77783D01*
X62734Y77814D01*
X62671Y77843D01*
X62607Y77867D01*
X62541Y77888D01*
X62474Y77905D01*
X62407Y77919D01*
X62338Y77928D01*
X62270Y77934D01*
X62201Y77936D01*
X60565Y77936D01*
X66780Y76299D02*
X66780Y74662D01*
X66780Y76299D02*
X66782Y76378D01*
X66788Y76457D01*
X66797Y76536D01*
X66810Y76614D01*
X66828Y76691D01*
X66848Y76767D01*
X66873Y76842D01*
X66901Y76916D01*
X66932Y76989D01*
X66968Y77060D01*
X67006Y77129D01*
X67048Y77196D01*
X67093Y77261D01*
X67141Y77324D01*
X67192Y77385D01*
X67246Y77442D01*
X67302Y77498D01*
X67361Y77550D01*
X67423Y77600D01*
X67487Y77646D01*
X67553Y77690D01*
X67621Y77730D01*
X67691Y77766D01*
X67763Y77800D01*
X67837Y77830D01*
X67911Y77856D01*
X67987Y77879D01*
X68064Y77897D01*
X68141Y77913D01*
X68220Y77924D01*
X68298Y77932D01*
X68377Y77936D01*
X68457Y77936D01*
X68536Y77932D01*
X68614Y77924D01*
X68693Y77913D01*
X68770Y77897D01*
X68847Y77879D01*
X68923Y77856D01*
X68997Y77830D01*
X69071Y77800D01*
X69143Y77766D01*
X69213Y77730D01*
X69281Y77690D01*
X69347Y77646D01*
X69411Y77600D01*
X69473Y77550D01*
X69532Y77498D01*
X69588Y77442D01*
X69642Y77385D01*
X69693Y77324D01*
X69741Y77261D01*
X69786Y77196D01*
X69828Y77129D01*
X69866Y77060D01*
X69902Y76989D01*
X69933Y76916D01*
X69961Y76842D01*
X69986Y76767D01*
X70006Y76691D01*
X70024Y76614D01*
X70037Y76536D01*
X70046Y76457D01*
X70052Y76378D01*
X70054Y76299D01*
X70054Y74662D01*
X70052Y74583D01*
X70046Y74504D01*
X70037Y74425D01*
X70024Y74347D01*
X70006Y74270D01*
X69986Y74194D01*
X69961Y74119D01*
X69933Y74045D01*
X69902Y73972D01*
X69866Y73901D01*
X69828Y73832D01*
X69786Y73765D01*
X69741Y73700D01*
X69693Y73637D01*
X69642Y73576D01*
X69588Y73519D01*
X69532Y73463D01*
X69473Y73411D01*
X69411Y73361D01*
X69347Y73315D01*
X69281Y73271D01*
X69213Y73231D01*
X69143Y73195D01*
X69071Y73161D01*
X68997Y73131D01*
X68923Y73105D01*
X68847Y73082D01*
X68770Y73064D01*
X68693Y73048D01*
X68614Y73037D01*
X68536Y73029D01*
X68457Y73025D01*
X68377Y73025D01*
X68298Y73029D01*
X68220Y73037D01*
X68141Y73048D01*
X68064Y73064D01*
X67987Y73082D01*
X67911Y73105D01*
X67837Y73131D01*
X67763Y73161D01*
X67691Y73195D01*
X67621Y73231D01*
X67553Y73271D01*
X67487Y73315D01*
X67423Y73361D01*
X67361Y73411D01*
X67302Y73463D01*
X67246Y73519D01*
X67192Y73576D01*
X67141Y73637D01*
X67093Y73700D01*
X67048Y73765D01*
X67006Y73832D01*
X66968Y73901D01*
X66932Y73972D01*
X66901Y74045D01*
X66873Y74119D01*
X66848Y74194D01*
X66828Y74270D01*
X66810Y74347D01*
X66797Y74425D01*
X66788Y74504D01*
X66782Y74583D01*
X66780Y74662D01*
X73277Y75890D02*
X78187Y75890D01*
X82802Y75890D02*
X84643Y75890D01*
X82802Y75889D02*
X82727Y75887D01*
X82652Y75881D01*
X82578Y75871D01*
X82504Y75858D01*
X82431Y75840D01*
X82359Y75819D01*
X82289Y75794D01*
X82220Y75765D01*
X82152Y75733D01*
X82086Y75697D01*
X82022Y75658D01*
X81960Y75616D01*
X81901Y75570D01*
X81844Y75521D01*
X81789Y75470D01*
X81738Y75415D01*
X81689Y75358D01*
X81643Y75299D01*
X81601Y75237D01*
X81562Y75173D01*
X81526Y75107D01*
X81494Y75039D01*
X81465Y74970D01*
X81440Y74900D01*
X81419Y74828D01*
X81401Y74755D01*
X81388Y74681D01*
X81378Y74607D01*
X81372Y74532D01*
X81370Y74457D01*
X81372Y74382D01*
X81378Y74307D01*
X81388Y74233D01*
X81401Y74159D01*
X81419Y74086D01*
X81440Y74014D01*
X81465Y73944D01*
X81494Y73875D01*
X81526Y73807D01*
X81562Y73741D01*
X81601Y73677D01*
X81643Y73615D01*
X81689Y73556D01*
X81738Y73499D01*
X81789Y73444D01*
X81844Y73393D01*
X81901Y73344D01*
X81960Y73298D01*
X82022Y73256D01*
X82086Y73217D01*
X82152Y73181D01*
X82220Y73149D01*
X82289Y73120D01*
X82359Y73095D01*
X82431Y73074D01*
X82504Y73056D01*
X82578Y73043D01*
X82652Y73033D01*
X82727Y73027D01*
X82802Y73025D01*
X84643Y73025D01*
X84643Y76708D01*
X84641Y76777D01*
X84635Y76845D01*
X84626Y76914D01*
X84612Y76981D01*
X84595Y77048D01*
X84574Y77114D01*
X84550Y77178D01*
X84521Y77241D01*
X84490Y77302D01*
X84455Y77361D01*
X84417Y77419D01*
X84375Y77474D01*
X84331Y77526D01*
X84283Y77576D01*
X84233Y77624D01*
X84181Y77668D01*
X84126Y77710D01*
X84068Y77748D01*
X84009Y77783D01*
X83948Y77814D01*
X83885Y77843D01*
X83821Y77867D01*
X83755Y77888D01*
X83688Y77905D01*
X83621Y77919D01*
X83552Y77928D01*
X83484Y77934D01*
X83415Y77936D01*
X81779Y77936D01*
X88284Y77936D02*
X88284Y73025D01*
X88284Y77936D02*
X90739Y77936D01*
X90739Y77117D01*
X93515Y77936D02*
X93515Y73025D01*
X93515Y77936D02*
X97198Y77936D01*
X97267Y77934D01*
X97335Y77928D01*
X97404Y77919D01*
X97471Y77905D01*
X97538Y77888D01*
X97604Y77867D01*
X97668Y77843D01*
X97731Y77814D01*
X97792Y77783D01*
X97851Y77748D01*
X97909Y77710D01*
X97964Y77668D01*
X98016Y77624D01*
X98066Y77576D01*
X98114Y77526D01*
X98158Y77474D01*
X98200Y77419D01*
X98238Y77361D01*
X98273Y77302D01*
X98304Y77241D01*
X98333Y77178D01*
X98357Y77114D01*
X98378Y77048D01*
X98395Y76981D01*
X98409Y76914D01*
X98418Y76845D01*
X98424Y76777D01*
X98426Y76708D01*
X98426Y73025D01*
X95971Y73025D02*
X95971Y77936D01*
X102507Y75890D02*
X104553Y75071D01*
X102507Y75890D02*
X102448Y75915D01*
X102391Y75944D01*
X102336Y75977D01*
X102283Y76013D01*
X102232Y76051D01*
X102184Y76093D01*
X102138Y76138D01*
X102095Y76185D01*
X102055Y76235D01*
X102018Y76287D01*
X101984Y76342D01*
X101953Y76398D01*
X101926Y76456D01*
X101903Y76516D01*
X101883Y76576D01*
X101867Y76638D01*
X101854Y76701D01*
X101846Y76765D01*
X101841Y76828D01*
X101840Y76892D01*
X101843Y76956D01*
X101850Y77020D01*
X101861Y77083D01*
X101875Y77145D01*
X101893Y77207D01*
X101915Y77267D01*
X101940Y77326D01*
X101969Y77383D01*
X102002Y77438D01*
X102037Y77491D01*
X102076Y77542D01*
X102118Y77591D01*
X102162Y77637D01*
X102210Y77680D01*
X102259Y77720D01*
X102312Y77757D01*
X102366Y77791D01*
X102422Y77822D01*
X102480Y77849D01*
X102539Y77873D01*
X102600Y77892D01*
X102662Y77909D01*
X102725Y77921D01*
X102788Y77930D01*
X102852Y77935D01*
X102916Y77936D01*
X102915Y77936D02*
X103051Y77932D01*
X103186Y77924D01*
X103322Y77912D01*
X103456Y77896D01*
X103591Y77876D01*
X103724Y77853D01*
X103857Y77825D01*
X103989Y77794D01*
X104120Y77759D01*
X104250Y77720D01*
X104379Y77677D01*
X104506Y77630D01*
X104632Y77580D01*
X104757Y77526D01*
X104553Y75071D02*
X104612Y75046D01*
X104669Y75017D01*
X104724Y74984D01*
X104777Y74948D01*
X104828Y74910D01*
X104876Y74868D01*
X104922Y74823D01*
X104965Y74776D01*
X105005Y74726D01*
X105042Y74674D01*
X105076Y74619D01*
X105107Y74563D01*
X105134Y74505D01*
X105157Y74445D01*
X105177Y74385D01*
X105193Y74323D01*
X105206Y74260D01*
X105214Y74196D01*
X105219Y74133D01*
X105220Y74069D01*
X105217Y74005D01*
X105210Y73941D01*
X105199Y73878D01*
X105185Y73816D01*
X105167Y73754D01*
X105145Y73694D01*
X105120Y73635D01*
X105091Y73578D01*
X105058Y73523D01*
X105023Y73470D01*
X104984Y73419D01*
X104942Y73370D01*
X104898Y73324D01*
X104850Y73281D01*
X104801Y73241D01*
X104748Y73204D01*
X104694Y73170D01*
X104638Y73139D01*
X104580Y73112D01*
X104521Y73088D01*
X104460Y73069D01*
X104398Y73052D01*
X104335Y73040D01*
X104272Y73031D01*
X104208Y73026D01*
X104144Y73025D01*
X103980Y73029D01*
X103816Y73037D01*
X103652Y73049D01*
X103489Y73065D01*
X103326Y73085D01*
X103163Y73108D01*
X103002Y73136D01*
X102840Y73167D01*
X102680Y73202D01*
X102521Y73241D01*
X102362Y73284D01*
X102205Y73330D01*
X102048Y73380D01*
X101893Y73434D01*
D11*
X709422Y241300D03*
X738378Y241300D03*
X709422Y215900D03*
X738378Y215900D03*
X23622Y50800D03*
X52578Y50800D03*
X23622Y25400D03*
X52578Y25400D03*
M02*
