G04 EAGLE Gerber X2 export*
G75*
%MOMM*%
%FSLAX34Y34*%
%LPD*%
%AMOC8*
5,1,8,0,0,1.08239X$1,22.5*%
G01*
%ADD10C,0.254000*%


D10*
X0Y26016D02*
X99Y23749D01*
X395Y21499D01*
X887Y19283D01*
X1569Y17118D01*
X2438Y15021D01*
X3486Y13008D01*
X4705Y11094D01*
X6087Y9293D01*
X7620Y7620D01*
X9293Y6087D01*
X11094Y4705D01*
X13008Y3486D01*
X15021Y2438D01*
X17118Y1569D01*
X19283Y887D01*
X21499Y395D01*
X23749Y99D01*
X26016Y0D01*
X114300Y0D01*
X151677Y483D01*
X188869Y4222D01*
X225594Y11188D01*
X261572Y21329D01*
X296529Y34566D01*
X330200Y50800D01*
X357833Y60873D01*
X386239Y68500D01*
X415201Y73622D01*
X444500Y76200D01*
X453320Y80383D01*
X461741Y85319D01*
X469701Y90970D01*
X477137Y97294D01*
X483994Y104241D01*
X490220Y111760D01*
X673100Y182880D01*
X743835Y168733D01*
X745144Y168530D01*
X746466Y168442D01*
X747791Y168470D01*
X749108Y168612D01*
X750408Y168870D01*
X751680Y169239D01*
X752915Y169718D01*
X754104Y170303D01*
X755237Y170989D01*
X756307Y171771D01*
X757304Y172643D01*
X758221Y173599D01*
X759051Y174632D01*
X759788Y175733D01*
X760427Y176893D01*
X760962Y178106D01*
X761389Y179360D01*
X761705Y180646D01*
X761908Y181955D01*
X761996Y183277D01*
X762000Y183625D01*
X762000Y242893D01*
X761909Y244968D01*
X761638Y247027D01*
X761189Y249054D01*
X760564Y251035D01*
X759769Y252954D01*
X758810Y254796D01*
X757694Y256548D01*
X756430Y258196D01*
X755027Y259727D01*
X753496Y261130D01*
X751848Y262394D01*
X750096Y263510D01*
X748254Y264469D01*
X746335Y265264D01*
X744354Y265889D01*
X742327Y266338D01*
X740268Y266609D01*
X738193Y266700D01*
X707299Y266700D01*
X705425Y266618D01*
X703566Y266373D01*
X701735Y265967D01*
X699946Y265403D01*
X698213Y264686D01*
X696549Y263820D01*
X694968Y262812D01*
X693480Y261670D01*
X692097Y260403D01*
X690830Y259020D01*
X689688Y257532D01*
X688680Y255951D01*
X687814Y254287D01*
X687097Y252554D01*
X686533Y250766D01*
X686127Y248934D01*
X685882Y247075D01*
X685800Y245201D01*
X685800Y229159D01*
X685762Y228299D01*
X685650Y227446D01*
X685464Y226606D01*
X685205Y225785D01*
X684876Y224990D01*
X684478Y224227D01*
X684016Y223501D01*
X683492Y222818D01*
X682911Y222183D01*
X682276Y221602D01*
X681593Y221078D01*
X680867Y220616D01*
X680104Y220218D01*
X679309Y219889D01*
X678488Y219630D01*
X677648Y219444D01*
X676795Y219331D01*
X675935Y219294D01*
X675075Y219331D01*
X674222Y219444D01*
X673381Y219630D01*
X673100Y219710D01*
X671054Y220841D01*
X668918Y221789D01*
X666707Y222547D01*
X664439Y223109D01*
X662130Y223472D01*
X659798Y223632D01*
X657462Y223589D01*
X655138Y223342D01*
X652844Y222893D01*
X650598Y222246D01*
X648417Y221406D01*
X646318Y220378D01*
X644316Y219172D01*
X642427Y217796D01*
X640665Y216261D01*
X639043Y214577D01*
X637575Y212759D01*
X636270Y210820D01*
X572770Y189230D01*
X448310Y166370D01*
X279400Y148590D01*
X262596Y155976D01*
X245213Y161869D01*
X227382Y166225D01*
X209239Y169010D01*
X190922Y170204D01*
X172572Y169796D01*
X154326Y167791D01*
X136325Y164203D01*
X118705Y159059D01*
X101600Y152400D01*
X53325Y122228D01*
X45169Y116621D01*
X37532Y110325D01*
X30473Y103386D01*
X24045Y95859D01*
X18298Y87801D01*
X13275Y79272D01*
X9015Y70338D01*
X5550Y61067D01*
X2906Y51528D01*
X1103Y41796D01*
X155Y31944D01*
X0Y26016D01*
M02*
