G04 EAGLE Gerber X2 export*
G75*
%MOMM*%
%FSLAX34Y34*%
%LPD*%
%AMOC8*
5,1,8,0,0,1.08239X$1,22.5*%
G01*
%ADD10C,0.076200*%
%ADD11C,2.082800*%


D10*
X625475Y44866D02*
X632841Y44866D01*
X632841Y46912D01*
X632839Y46981D01*
X632833Y47049D01*
X632824Y47118D01*
X632810Y47185D01*
X632793Y47252D01*
X632772Y47318D01*
X632748Y47382D01*
X632719Y47445D01*
X632688Y47506D01*
X632653Y47565D01*
X632615Y47623D01*
X632573Y47678D01*
X632529Y47730D01*
X632481Y47780D01*
X632431Y47828D01*
X632379Y47872D01*
X632324Y47914D01*
X632266Y47952D01*
X632207Y47987D01*
X632146Y48018D01*
X632083Y48047D01*
X632019Y48071D01*
X631953Y48092D01*
X631886Y48109D01*
X631819Y48123D01*
X631750Y48132D01*
X631682Y48138D01*
X631613Y48140D01*
X631613Y48139D02*
X629158Y48139D01*
X629158Y48140D02*
X629089Y48138D01*
X629021Y48132D01*
X628952Y48123D01*
X628885Y48109D01*
X628818Y48092D01*
X628752Y48071D01*
X628688Y48047D01*
X628625Y48018D01*
X628564Y47987D01*
X628505Y47952D01*
X628447Y47914D01*
X628392Y47872D01*
X628340Y47828D01*
X628290Y47780D01*
X628242Y47730D01*
X628198Y47678D01*
X628157Y47623D01*
X628118Y47565D01*
X628083Y47506D01*
X628052Y47445D01*
X628023Y47382D01*
X627999Y47318D01*
X627978Y47252D01*
X627961Y47185D01*
X627947Y47118D01*
X627938Y47050D01*
X627932Y46981D01*
X627930Y46912D01*
X627930Y44866D01*
X635296Y50921D02*
X635296Y51739D01*
X627930Y54194D01*
X627930Y50921D02*
X632841Y52558D01*
X638895Y18414D02*
X638895Y17186D01*
X638894Y17186D02*
X638896Y17117D01*
X638902Y17049D01*
X638911Y16980D01*
X638925Y16913D01*
X638942Y16846D01*
X638963Y16780D01*
X638987Y16716D01*
X639016Y16653D01*
X639047Y16592D01*
X639082Y16533D01*
X639120Y16475D01*
X639162Y16420D01*
X639206Y16368D01*
X639254Y16318D01*
X639304Y16270D01*
X639356Y16226D01*
X639411Y16184D01*
X639469Y16146D01*
X639528Y16111D01*
X639589Y16080D01*
X639652Y16051D01*
X639716Y16027D01*
X639782Y16006D01*
X639849Y15989D01*
X639916Y15975D01*
X639985Y15966D01*
X640053Y15960D01*
X640122Y15958D01*
X640122Y15959D02*
X642578Y15959D01*
X642578Y15958D02*
X642647Y15960D01*
X642715Y15966D01*
X642784Y15975D01*
X642851Y15989D01*
X642918Y16006D01*
X642984Y16027D01*
X643048Y16051D01*
X643111Y16080D01*
X643172Y16111D01*
X643231Y16146D01*
X643289Y16184D01*
X643344Y16226D01*
X643396Y16270D01*
X643446Y16318D01*
X643494Y16368D01*
X643538Y16420D01*
X643580Y16475D01*
X643618Y16533D01*
X643653Y16592D01*
X643684Y16653D01*
X643713Y16716D01*
X643737Y16780D01*
X643758Y16846D01*
X643775Y16913D01*
X643789Y16980D01*
X643798Y17049D01*
X643804Y17117D01*
X643806Y17186D01*
X643804Y17255D01*
X643798Y17323D01*
X643789Y17392D01*
X643775Y17459D01*
X643758Y17526D01*
X643737Y17592D01*
X643713Y17656D01*
X643684Y17719D01*
X643653Y17780D01*
X643618Y17839D01*
X643580Y17897D01*
X643538Y17952D01*
X643494Y18004D01*
X643446Y18054D01*
X643396Y18102D01*
X643344Y18146D01*
X643289Y18188D01*
X643231Y18226D01*
X643172Y18261D01*
X643111Y18292D01*
X643048Y18321D01*
X642984Y18345D01*
X642918Y18366D01*
X642851Y18383D01*
X642784Y18397D01*
X642715Y18406D01*
X642647Y18412D01*
X642578Y18414D01*
X642782Y18414D02*
X638895Y18414D01*
X642782Y18414D02*
X642845Y18416D01*
X642908Y18422D01*
X642970Y18431D01*
X643032Y18445D01*
X643092Y18462D01*
X643152Y18483D01*
X643210Y18508D01*
X643266Y18536D01*
X643321Y18567D01*
X643373Y18602D01*
X643423Y18640D01*
X643471Y18681D01*
X643516Y18725D01*
X643559Y18771D01*
X643598Y18821D01*
X643635Y18872D01*
X643668Y18925D01*
X643698Y18981D01*
X643724Y19038D01*
X643747Y19097D01*
X643766Y19157D01*
X643781Y19218D01*
X643793Y19280D01*
X643801Y19343D01*
X643805Y19405D01*
X643805Y19469D01*
X643801Y19531D01*
X643793Y19594D01*
X643781Y19656D01*
X643766Y19717D01*
X643747Y19777D01*
X643724Y19836D01*
X643698Y19893D01*
X643668Y19948D01*
X643635Y20002D01*
X643598Y20053D01*
X643559Y20103D01*
X643516Y20149D01*
X643471Y20193D01*
X643423Y20234D01*
X643373Y20272D01*
X643321Y20307D01*
X643266Y20338D01*
X643210Y20366D01*
X643152Y20391D01*
X643092Y20412D01*
X643032Y20429D01*
X642970Y20443D01*
X642908Y20452D01*
X642845Y20458D01*
X642782Y20460D01*
X639713Y20460D01*
X639600Y20458D01*
X639487Y20452D01*
X639375Y20442D01*
X639262Y20429D01*
X639151Y20411D01*
X639040Y20390D01*
X638929Y20365D01*
X638820Y20336D01*
X638712Y20303D01*
X638605Y20267D01*
X638499Y20227D01*
X638395Y20183D01*
X638292Y20136D01*
X638191Y20085D01*
X638092Y20031D01*
X637995Y19973D01*
X637900Y19912D01*
X637807Y19848D01*
X637716Y19781D01*
X637628Y19710D01*
X637542Y19637D01*
X637459Y19560D01*
X637378Y19481D01*
X637300Y19399D01*
X637225Y19314D01*
X637153Y19227D01*
X637084Y19138D01*
X637019Y19046D01*
X636956Y18952D01*
X636897Y18856D01*
X636841Y18757D01*
X636788Y18657D01*
X636739Y18555D01*
X636694Y18452D01*
X636652Y18347D01*
X636614Y18241D01*
X636579Y18133D01*
X636548Y18024D01*
X636521Y17915D01*
X636498Y17804D01*
X636478Y17693D01*
X636463Y17581D01*
X636451Y17468D01*
X636443Y17355D01*
X636439Y17243D01*
X636439Y17129D01*
X636443Y17017D01*
X636451Y16904D01*
X636463Y16791D01*
X636478Y16679D01*
X636498Y16568D01*
X636521Y16457D01*
X636548Y16348D01*
X636579Y16239D01*
X636614Y16131D01*
X636652Y16025D01*
X636694Y15920D01*
X636739Y15817D01*
X636788Y15715D01*
X636841Y15615D01*
X636897Y15516D01*
X636956Y15420D01*
X637019Y15326D01*
X637084Y15234D01*
X637153Y15145D01*
X637225Y15058D01*
X637300Y14973D01*
X637378Y14891D01*
X637459Y14812D01*
X637542Y14735D01*
X637628Y14662D01*
X637716Y14591D01*
X637807Y14524D01*
X637900Y14460D01*
X637995Y14399D01*
X638092Y14341D01*
X638191Y14287D01*
X638292Y14236D01*
X638395Y14189D01*
X638499Y14145D01*
X638605Y14105D01*
X638712Y14069D01*
X638820Y14036D01*
X638929Y14007D01*
X639040Y13982D01*
X639151Y13961D01*
X639262Y13943D01*
X639375Y13930D01*
X639487Y13920D01*
X639600Y13914D01*
X639713Y13912D01*
X639713Y13913D02*
X643192Y13913D01*
X643302Y13915D01*
X643412Y13921D01*
X643521Y13931D01*
X643630Y13944D01*
X643739Y13962D01*
X643847Y13984D01*
X643954Y14009D01*
X644060Y14038D01*
X644165Y14071D01*
X644269Y14108D01*
X644371Y14148D01*
X644472Y14192D01*
X644571Y14239D01*
X644668Y14290D01*
X644764Y14345D01*
X644857Y14403D01*
X644949Y14464D01*
X645038Y14528D01*
X645125Y14596D01*
X645209Y14667D01*
X645291Y14740D01*
X645370Y14817D01*
X645446Y14896D01*
X645520Y14978D01*
X645590Y15062D01*
X645657Y15149D01*
X645721Y15239D01*
X645782Y15330D01*
X645840Y15424D01*
X645894Y15520D01*
X645945Y15617D01*
X645992Y15716D01*
X646036Y15817D01*
X646076Y15920D01*
X646113Y16024D01*
X646145Y16129D01*
X646174Y16235D01*
X646199Y16342D01*
X646220Y16450D01*
X646238Y16558D01*
X646251Y16668D01*
X646261Y16777D01*
X642168Y24698D02*
X642987Y26744D01*
X642168Y24698D02*
X642143Y24639D01*
X642114Y24582D01*
X642081Y24527D01*
X642045Y24474D01*
X642007Y24423D01*
X641965Y24375D01*
X641920Y24329D01*
X641873Y24286D01*
X641823Y24246D01*
X641771Y24209D01*
X641716Y24175D01*
X641660Y24144D01*
X641602Y24117D01*
X641542Y24094D01*
X641482Y24074D01*
X641420Y24058D01*
X641357Y24045D01*
X641293Y24037D01*
X641230Y24032D01*
X641166Y24031D01*
X641102Y24034D01*
X641038Y24041D01*
X640975Y24052D01*
X640913Y24066D01*
X640851Y24084D01*
X640791Y24106D01*
X640732Y24131D01*
X640675Y24160D01*
X640620Y24193D01*
X640567Y24228D01*
X640516Y24267D01*
X640467Y24309D01*
X640421Y24353D01*
X640378Y24401D01*
X640338Y24450D01*
X640301Y24503D01*
X640267Y24557D01*
X640236Y24613D01*
X640209Y24671D01*
X640185Y24730D01*
X640166Y24791D01*
X640149Y24853D01*
X640137Y24916D01*
X640128Y24979D01*
X640123Y25043D01*
X640122Y25107D01*
X640126Y25243D01*
X640134Y25378D01*
X640146Y25514D01*
X640162Y25648D01*
X640182Y25783D01*
X640205Y25916D01*
X640233Y26049D01*
X640264Y26181D01*
X640299Y26312D01*
X640338Y26442D01*
X640381Y26571D01*
X640428Y26698D01*
X640478Y26824D01*
X640532Y26949D01*
X642987Y26744D02*
X643012Y26803D01*
X643041Y26860D01*
X643074Y26915D01*
X643110Y26968D01*
X643148Y27019D01*
X643190Y27067D01*
X643235Y27113D01*
X643282Y27156D01*
X643332Y27196D01*
X643384Y27233D01*
X643439Y27267D01*
X643495Y27298D01*
X643553Y27325D01*
X643613Y27348D01*
X643673Y27368D01*
X643735Y27384D01*
X643798Y27397D01*
X643862Y27405D01*
X643925Y27410D01*
X643989Y27411D01*
X644053Y27408D01*
X644117Y27401D01*
X644180Y27390D01*
X644242Y27376D01*
X644304Y27358D01*
X644364Y27336D01*
X644423Y27311D01*
X644480Y27282D01*
X644535Y27249D01*
X644588Y27214D01*
X644639Y27175D01*
X644688Y27133D01*
X644734Y27089D01*
X644777Y27041D01*
X644817Y26992D01*
X644854Y26939D01*
X644888Y26885D01*
X644919Y26829D01*
X644946Y26771D01*
X644970Y26712D01*
X644989Y26651D01*
X645006Y26589D01*
X645018Y26526D01*
X645027Y26463D01*
X645032Y26399D01*
X645033Y26335D01*
X645029Y26171D01*
X645021Y26007D01*
X645009Y25843D01*
X644993Y25680D01*
X644973Y25517D01*
X644950Y25354D01*
X644922Y25193D01*
X644891Y25031D01*
X644856Y24871D01*
X644817Y24712D01*
X644774Y24553D01*
X644728Y24396D01*
X644678Y24239D01*
X644624Y24084D01*
X645033Y31651D02*
X645033Y33697D01*
X645033Y31651D02*
X645031Y31582D01*
X645025Y31514D01*
X645016Y31445D01*
X645002Y31378D01*
X644985Y31311D01*
X644964Y31245D01*
X644940Y31181D01*
X644911Y31118D01*
X644880Y31057D01*
X644845Y30998D01*
X644807Y30940D01*
X644765Y30885D01*
X644721Y30833D01*
X644673Y30783D01*
X644623Y30735D01*
X644571Y30691D01*
X644516Y30650D01*
X644458Y30611D01*
X644399Y30576D01*
X644338Y30545D01*
X644275Y30516D01*
X644211Y30492D01*
X644145Y30471D01*
X644078Y30454D01*
X644011Y30440D01*
X643943Y30431D01*
X643874Y30425D01*
X643805Y30423D01*
X643805Y30424D02*
X641759Y30424D01*
X641680Y30426D01*
X641601Y30432D01*
X641522Y30441D01*
X641444Y30454D01*
X641367Y30472D01*
X641291Y30492D01*
X641216Y30517D01*
X641142Y30545D01*
X641069Y30576D01*
X640998Y30612D01*
X640929Y30650D01*
X640862Y30692D01*
X640797Y30737D01*
X640734Y30785D01*
X640673Y30836D01*
X640616Y30890D01*
X640560Y30946D01*
X640508Y31005D01*
X640458Y31067D01*
X640412Y31131D01*
X640368Y31197D01*
X640328Y31265D01*
X640292Y31335D01*
X640258Y31407D01*
X640228Y31481D01*
X640202Y31555D01*
X640179Y31631D01*
X640161Y31708D01*
X640145Y31785D01*
X640134Y31864D01*
X640126Y31942D01*
X640122Y32021D01*
X640122Y32101D01*
X640126Y32180D01*
X640134Y32258D01*
X640145Y32337D01*
X640161Y32414D01*
X640179Y32491D01*
X640202Y32567D01*
X640228Y32641D01*
X640258Y32715D01*
X640292Y32787D01*
X640328Y32857D01*
X640368Y32925D01*
X640412Y32991D01*
X640458Y33055D01*
X640508Y33117D01*
X640560Y33176D01*
X640616Y33232D01*
X640673Y33286D01*
X640734Y33337D01*
X640797Y33385D01*
X640862Y33430D01*
X640929Y33472D01*
X640998Y33510D01*
X641069Y33546D01*
X641142Y33577D01*
X641216Y33605D01*
X641291Y33630D01*
X641367Y33650D01*
X641444Y33668D01*
X641522Y33681D01*
X641601Y33690D01*
X641680Y33696D01*
X641759Y33698D01*
X641759Y33697D02*
X642578Y33697D01*
X642578Y30424D01*
X645033Y38000D02*
X645033Y39637D01*
X645033Y38000D02*
X645031Y37931D01*
X645025Y37863D01*
X645016Y37794D01*
X645002Y37727D01*
X644985Y37660D01*
X644964Y37594D01*
X644940Y37530D01*
X644911Y37467D01*
X644880Y37406D01*
X644845Y37347D01*
X644807Y37289D01*
X644765Y37234D01*
X644721Y37182D01*
X644673Y37132D01*
X644623Y37084D01*
X644571Y37040D01*
X644516Y36999D01*
X644458Y36960D01*
X644399Y36925D01*
X644338Y36894D01*
X644275Y36865D01*
X644211Y36841D01*
X644145Y36820D01*
X644078Y36803D01*
X644011Y36789D01*
X643943Y36780D01*
X643874Y36774D01*
X643805Y36772D01*
X643805Y36773D02*
X641350Y36773D01*
X641350Y36772D02*
X641281Y36774D01*
X641213Y36780D01*
X641144Y36789D01*
X641077Y36803D01*
X641010Y36820D01*
X640944Y36841D01*
X640880Y36865D01*
X640817Y36894D01*
X640756Y36925D01*
X640697Y36960D01*
X640639Y36998D01*
X640584Y37040D01*
X640532Y37084D01*
X640482Y37132D01*
X640434Y37182D01*
X640390Y37234D01*
X640348Y37289D01*
X640310Y37347D01*
X640275Y37406D01*
X640244Y37467D01*
X640215Y37530D01*
X640191Y37594D01*
X640170Y37660D01*
X640153Y37727D01*
X640139Y37794D01*
X640130Y37863D01*
X640124Y37931D01*
X640122Y38000D01*
X640122Y39637D01*
X640122Y42616D02*
X643805Y42616D01*
X643805Y42615D02*
X643874Y42617D01*
X643942Y42623D01*
X644011Y42632D01*
X644078Y42646D01*
X644145Y42663D01*
X644211Y42684D01*
X644275Y42708D01*
X644338Y42737D01*
X644399Y42768D01*
X644458Y42803D01*
X644516Y42841D01*
X644571Y42883D01*
X644623Y42927D01*
X644673Y42975D01*
X644721Y43025D01*
X644765Y43077D01*
X644807Y43132D01*
X644845Y43190D01*
X644880Y43249D01*
X644911Y43310D01*
X644940Y43373D01*
X644964Y43437D01*
X644985Y43503D01*
X645002Y43570D01*
X645016Y43637D01*
X645025Y43706D01*
X645031Y43774D01*
X645033Y43843D01*
X645033Y45889D01*
X640122Y45889D01*
X640122Y49489D02*
X645033Y49489D01*
X640122Y49489D02*
X640122Y51945D01*
X640941Y51945D01*
X645033Y55548D02*
X645033Y57594D01*
X645033Y55548D02*
X645031Y55479D01*
X645025Y55411D01*
X645016Y55342D01*
X645002Y55275D01*
X644985Y55208D01*
X644964Y55142D01*
X644940Y55078D01*
X644911Y55015D01*
X644880Y54954D01*
X644845Y54895D01*
X644807Y54837D01*
X644765Y54782D01*
X644721Y54730D01*
X644673Y54680D01*
X644623Y54632D01*
X644571Y54588D01*
X644516Y54547D01*
X644458Y54508D01*
X644399Y54473D01*
X644338Y54442D01*
X644275Y54413D01*
X644211Y54389D01*
X644145Y54368D01*
X644078Y54351D01*
X644011Y54337D01*
X643943Y54328D01*
X643874Y54322D01*
X643805Y54320D01*
X641759Y54320D01*
X641680Y54322D01*
X641601Y54328D01*
X641522Y54337D01*
X641444Y54350D01*
X641367Y54368D01*
X641291Y54388D01*
X641216Y54413D01*
X641142Y54441D01*
X641069Y54472D01*
X640998Y54508D01*
X640929Y54546D01*
X640862Y54588D01*
X640797Y54633D01*
X640734Y54681D01*
X640673Y54732D01*
X640616Y54786D01*
X640560Y54842D01*
X640508Y54901D01*
X640458Y54963D01*
X640412Y55027D01*
X640368Y55093D01*
X640328Y55161D01*
X640292Y55231D01*
X640258Y55303D01*
X640228Y55377D01*
X640202Y55451D01*
X640179Y55527D01*
X640161Y55604D01*
X640145Y55681D01*
X640134Y55760D01*
X640126Y55838D01*
X640122Y55917D01*
X640122Y55997D01*
X640126Y56076D01*
X640134Y56154D01*
X640145Y56233D01*
X640161Y56310D01*
X640179Y56387D01*
X640202Y56463D01*
X640228Y56537D01*
X640258Y56611D01*
X640292Y56683D01*
X640328Y56753D01*
X640368Y56821D01*
X640412Y56887D01*
X640458Y56951D01*
X640508Y57013D01*
X640560Y57072D01*
X640616Y57128D01*
X640673Y57182D01*
X640734Y57233D01*
X640797Y57281D01*
X640862Y57326D01*
X640929Y57368D01*
X640998Y57406D01*
X641069Y57442D01*
X641142Y57473D01*
X641216Y57501D01*
X641291Y57526D01*
X641367Y57546D01*
X641444Y57564D01*
X641522Y57577D01*
X641601Y57586D01*
X641680Y57592D01*
X641759Y57594D01*
X642578Y57594D01*
X642578Y54320D01*
X643805Y60743D02*
X637667Y60743D01*
X643805Y60742D02*
X643874Y60744D01*
X643942Y60750D01*
X644011Y60759D01*
X644078Y60773D01*
X644145Y60790D01*
X644211Y60811D01*
X644275Y60835D01*
X644338Y60864D01*
X644399Y60895D01*
X644458Y60930D01*
X644516Y60968D01*
X644571Y61010D01*
X644623Y61054D01*
X644673Y61102D01*
X644721Y61152D01*
X644765Y61204D01*
X644807Y61259D01*
X644845Y61317D01*
X644880Y61376D01*
X644911Y61437D01*
X644940Y61500D01*
X644964Y61564D01*
X644985Y61630D01*
X645002Y61697D01*
X645016Y61764D01*
X645025Y61833D01*
X645031Y61901D01*
X645033Y61970D01*
X647488Y64317D02*
X647488Y65136D01*
X640122Y67591D01*
X640122Y64317D02*
X645033Y65954D01*
X645033Y70807D02*
X638895Y70807D01*
X638895Y70806D02*
X638826Y70808D01*
X638758Y70814D01*
X638689Y70823D01*
X638622Y70837D01*
X638555Y70854D01*
X638489Y70875D01*
X638425Y70899D01*
X638362Y70928D01*
X638301Y70959D01*
X638242Y70994D01*
X638184Y71032D01*
X638129Y71074D01*
X638077Y71118D01*
X638027Y71166D01*
X637979Y71216D01*
X637935Y71268D01*
X637894Y71323D01*
X637855Y71381D01*
X637820Y71440D01*
X637789Y71501D01*
X637760Y71564D01*
X637736Y71628D01*
X637715Y71694D01*
X637698Y71761D01*
X637684Y71828D01*
X637675Y71896D01*
X637669Y71965D01*
X637667Y72034D01*
X637667Y72444D01*
X640122Y72444D02*
X640122Y69988D01*
X640122Y74488D02*
X645033Y74488D01*
X638076Y74284D02*
X637667Y74284D01*
X637667Y74693D01*
X638076Y74693D01*
X638076Y74284D01*
X640122Y76854D02*
X640122Y79309D01*
X637667Y77673D02*
X643805Y77673D01*
X643805Y77672D02*
X643874Y77674D01*
X643942Y77680D01*
X644011Y77689D01*
X644078Y77703D01*
X644145Y77720D01*
X644211Y77741D01*
X644275Y77765D01*
X644338Y77794D01*
X644399Y77825D01*
X644458Y77860D01*
X644516Y77898D01*
X644571Y77940D01*
X644623Y77984D01*
X644673Y78032D01*
X644721Y78082D01*
X644765Y78134D01*
X644807Y78189D01*
X644845Y78247D01*
X644880Y78306D01*
X644911Y78367D01*
X644940Y78430D01*
X644964Y78494D01*
X644985Y78560D01*
X645002Y78627D01*
X645016Y78694D01*
X645025Y78763D01*
X645031Y78831D01*
X645033Y78900D01*
X645033Y79309D01*
X640122Y81874D02*
X640122Y85147D01*
X645033Y81874D01*
X645033Y85147D01*
X657225Y10933D02*
X657225Y8887D01*
X657223Y8818D01*
X657217Y8750D01*
X657208Y8681D01*
X657194Y8614D01*
X657177Y8547D01*
X657156Y8481D01*
X657132Y8417D01*
X657103Y8354D01*
X657072Y8293D01*
X657037Y8234D01*
X656999Y8176D01*
X656957Y8121D01*
X656913Y8069D01*
X656865Y8019D01*
X656815Y7971D01*
X656763Y7927D01*
X656708Y7886D01*
X656650Y7847D01*
X656591Y7812D01*
X656530Y7781D01*
X656467Y7752D01*
X656403Y7728D01*
X656337Y7707D01*
X656270Y7690D01*
X656203Y7676D01*
X656135Y7667D01*
X656066Y7661D01*
X655997Y7659D01*
X653542Y7659D01*
X653473Y7661D01*
X653405Y7667D01*
X653336Y7676D01*
X653269Y7690D01*
X653202Y7707D01*
X653136Y7728D01*
X653072Y7752D01*
X653009Y7781D01*
X652948Y7812D01*
X652889Y7847D01*
X652831Y7885D01*
X652776Y7927D01*
X652724Y7971D01*
X652674Y8019D01*
X652626Y8069D01*
X652582Y8121D01*
X652540Y8176D01*
X652502Y8234D01*
X652467Y8293D01*
X652436Y8354D01*
X652407Y8417D01*
X652383Y8481D01*
X652362Y8547D01*
X652345Y8614D01*
X652331Y8681D01*
X652322Y8750D01*
X652316Y8818D01*
X652314Y8887D01*
X652314Y10933D01*
X658453Y10933D01*
X658522Y10931D01*
X658590Y10925D01*
X658659Y10916D01*
X658726Y10902D01*
X658793Y10885D01*
X658859Y10864D01*
X658923Y10840D01*
X658986Y10811D01*
X659047Y10780D01*
X659106Y10745D01*
X659164Y10707D01*
X659219Y10665D01*
X659271Y10621D01*
X659321Y10573D01*
X659369Y10523D01*
X659413Y10471D01*
X659455Y10416D01*
X659493Y10358D01*
X659528Y10299D01*
X659559Y10238D01*
X659588Y10175D01*
X659612Y10111D01*
X659633Y10045D01*
X659650Y9978D01*
X659664Y9911D01*
X659673Y9842D01*
X659679Y9774D01*
X659681Y9705D01*
X659680Y9705D02*
X659680Y8068D01*
X657225Y14213D02*
X652314Y14213D01*
X650268Y14009D02*
X649859Y14009D01*
X649859Y14418D01*
X650268Y14418D01*
X650268Y14009D01*
X652314Y16579D02*
X652314Y19035D01*
X649859Y17398D02*
X655997Y17398D01*
X655997Y17397D02*
X656066Y17399D01*
X656134Y17405D01*
X656203Y17414D01*
X656270Y17428D01*
X656337Y17445D01*
X656403Y17466D01*
X656467Y17490D01*
X656530Y17519D01*
X656591Y17550D01*
X656650Y17585D01*
X656708Y17623D01*
X656763Y17665D01*
X656815Y17709D01*
X656865Y17757D01*
X656913Y17807D01*
X656957Y17859D01*
X656999Y17914D01*
X657037Y17972D01*
X657072Y18031D01*
X657103Y18092D01*
X657132Y18155D01*
X657156Y18219D01*
X657177Y18285D01*
X657194Y18352D01*
X657208Y18419D01*
X657217Y18488D01*
X657223Y18556D01*
X657225Y18625D01*
X657225Y19035D01*
X657225Y21568D02*
X656816Y21568D01*
X656816Y21977D01*
X657225Y21977D01*
X657225Y21568D01*
X657225Y24698D02*
X652314Y24698D01*
X650268Y24494D02*
X649859Y24494D01*
X649859Y24903D01*
X650268Y24903D01*
X650268Y24494D01*
X653951Y27695D02*
X655588Y27695D01*
X653951Y27694D02*
X653872Y27696D01*
X653793Y27702D01*
X653714Y27711D01*
X653636Y27724D01*
X653559Y27742D01*
X653483Y27762D01*
X653408Y27787D01*
X653334Y27815D01*
X653261Y27846D01*
X653190Y27882D01*
X653121Y27920D01*
X653054Y27962D01*
X652989Y28007D01*
X652926Y28055D01*
X652865Y28106D01*
X652808Y28160D01*
X652752Y28216D01*
X652700Y28275D01*
X652650Y28337D01*
X652604Y28401D01*
X652560Y28467D01*
X652520Y28535D01*
X652484Y28605D01*
X652450Y28677D01*
X652420Y28751D01*
X652394Y28825D01*
X652371Y28901D01*
X652353Y28978D01*
X652337Y29055D01*
X652326Y29134D01*
X652318Y29212D01*
X652314Y29291D01*
X652314Y29371D01*
X652318Y29450D01*
X652326Y29528D01*
X652337Y29607D01*
X652353Y29684D01*
X652371Y29761D01*
X652394Y29837D01*
X652420Y29911D01*
X652450Y29985D01*
X652484Y30057D01*
X652520Y30127D01*
X652560Y30195D01*
X652604Y30261D01*
X652650Y30325D01*
X652700Y30387D01*
X652752Y30446D01*
X652808Y30502D01*
X652865Y30556D01*
X652926Y30607D01*
X652989Y30655D01*
X653054Y30700D01*
X653121Y30742D01*
X653190Y30780D01*
X653261Y30816D01*
X653334Y30847D01*
X653408Y30875D01*
X653483Y30900D01*
X653559Y30920D01*
X653636Y30938D01*
X653714Y30951D01*
X653793Y30960D01*
X653872Y30966D01*
X653951Y30968D01*
X655588Y30968D01*
X655667Y30966D01*
X655746Y30960D01*
X655825Y30951D01*
X655903Y30938D01*
X655980Y30920D01*
X656056Y30900D01*
X656131Y30875D01*
X656205Y30847D01*
X656278Y30816D01*
X656349Y30780D01*
X656418Y30742D01*
X656485Y30700D01*
X656550Y30655D01*
X656613Y30607D01*
X656674Y30556D01*
X656731Y30502D01*
X656787Y30446D01*
X656839Y30387D01*
X656889Y30325D01*
X656935Y30261D01*
X656979Y30195D01*
X657019Y30127D01*
X657055Y30057D01*
X657089Y29985D01*
X657119Y29911D01*
X657145Y29837D01*
X657168Y29761D01*
X657186Y29684D01*
X657202Y29607D01*
X657213Y29528D01*
X657221Y29450D01*
X657225Y29371D01*
X657225Y29291D01*
X657221Y29212D01*
X657213Y29134D01*
X657202Y29055D01*
X657186Y28978D01*
X657168Y28901D01*
X657145Y28825D01*
X657119Y28751D01*
X657089Y28677D01*
X657055Y28605D01*
X657019Y28535D01*
X656979Y28467D01*
X656935Y28401D01*
X656889Y28337D01*
X656839Y28275D01*
X656787Y28216D01*
X656731Y28160D01*
X656674Y28106D01*
X656613Y28055D01*
X656550Y28007D01*
X656485Y27962D01*
X656418Y27920D01*
X656349Y27882D01*
X656278Y27846D01*
X656205Y27815D01*
X656131Y27787D01*
X656056Y27762D01*
X655980Y27742D01*
X655903Y27724D01*
X655825Y27711D01*
X655746Y27702D01*
X655667Y27696D01*
X655588Y27694D01*
X658043Y33790D02*
X649041Y37064D01*
X654360Y40500D02*
X655179Y42546D01*
X654360Y40500D02*
X654335Y40441D01*
X654306Y40384D01*
X654273Y40329D01*
X654237Y40276D01*
X654199Y40225D01*
X654157Y40177D01*
X654112Y40131D01*
X654065Y40088D01*
X654015Y40048D01*
X653963Y40011D01*
X653908Y39977D01*
X653852Y39946D01*
X653794Y39919D01*
X653734Y39896D01*
X653674Y39876D01*
X653612Y39860D01*
X653549Y39847D01*
X653485Y39839D01*
X653422Y39834D01*
X653358Y39833D01*
X653294Y39836D01*
X653230Y39843D01*
X653167Y39854D01*
X653105Y39868D01*
X653043Y39886D01*
X652983Y39908D01*
X652924Y39933D01*
X652867Y39962D01*
X652812Y39995D01*
X652759Y40030D01*
X652708Y40069D01*
X652659Y40111D01*
X652613Y40155D01*
X652570Y40203D01*
X652530Y40252D01*
X652493Y40305D01*
X652459Y40359D01*
X652428Y40415D01*
X652401Y40473D01*
X652377Y40532D01*
X652358Y40593D01*
X652341Y40655D01*
X652329Y40718D01*
X652320Y40781D01*
X652315Y40845D01*
X652314Y40909D01*
X652318Y41045D01*
X652326Y41180D01*
X652338Y41316D01*
X652354Y41450D01*
X652374Y41585D01*
X652397Y41718D01*
X652425Y41851D01*
X652456Y41983D01*
X652491Y42114D01*
X652530Y42244D01*
X652573Y42373D01*
X652620Y42500D01*
X652670Y42626D01*
X652724Y42751D01*
X655179Y42546D02*
X655204Y42605D01*
X655233Y42662D01*
X655266Y42717D01*
X655302Y42770D01*
X655340Y42821D01*
X655382Y42869D01*
X655427Y42915D01*
X655474Y42958D01*
X655524Y42998D01*
X655576Y43035D01*
X655631Y43069D01*
X655687Y43100D01*
X655745Y43127D01*
X655805Y43150D01*
X655865Y43170D01*
X655927Y43186D01*
X655990Y43199D01*
X656054Y43207D01*
X656117Y43212D01*
X656181Y43213D01*
X656245Y43210D01*
X656309Y43203D01*
X656372Y43192D01*
X656434Y43178D01*
X656496Y43160D01*
X656556Y43138D01*
X656615Y43113D01*
X656672Y43084D01*
X656727Y43051D01*
X656780Y43016D01*
X656831Y42977D01*
X656880Y42935D01*
X656926Y42891D01*
X656969Y42843D01*
X657009Y42794D01*
X657046Y42741D01*
X657080Y42687D01*
X657111Y42631D01*
X657138Y42573D01*
X657162Y42514D01*
X657181Y42453D01*
X657198Y42391D01*
X657210Y42328D01*
X657219Y42265D01*
X657224Y42201D01*
X657225Y42137D01*
X657221Y41973D01*
X657213Y41809D01*
X657201Y41645D01*
X657185Y41482D01*
X657165Y41319D01*
X657142Y41156D01*
X657114Y40995D01*
X657083Y40833D01*
X657048Y40673D01*
X657009Y40514D01*
X656966Y40355D01*
X656920Y40198D01*
X656870Y40041D01*
X656816Y39886D01*
X654360Y47618D02*
X654360Y49459D01*
X654361Y47618D02*
X654363Y47543D01*
X654369Y47468D01*
X654379Y47394D01*
X654392Y47320D01*
X654410Y47247D01*
X654431Y47175D01*
X654456Y47105D01*
X654485Y47036D01*
X654517Y46968D01*
X654553Y46902D01*
X654592Y46838D01*
X654634Y46776D01*
X654680Y46717D01*
X654729Y46660D01*
X654780Y46605D01*
X654835Y46554D01*
X654892Y46505D01*
X654951Y46459D01*
X655013Y46417D01*
X655077Y46378D01*
X655143Y46342D01*
X655211Y46310D01*
X655280Y46281D01*
X655350Y46256D01*
X655422Y46235D01*
X655495Y46217D01*
X655569Y46204D01*
X655643Y46194D01*
X655718Y46188D01*
X655793Y46186D01*
X655868Y46188D01*
X655943Y46194D01*
X656017Y46204D01*
X656091Y46217D01*
X656164Y46235D01*
X656236Y46256D01*
X656306Y46281D01*
X656375Y46310D01*
X656443Y46342D01*
X656509Y46378D01*
X656573Y46417D01*
X656635Y46459D01*
X656694Y46505D01*
X656751Y46554D01*
X656806Y46605D01*
X656857Y46660D01*
X656906Y46717D01*
X656952Y46776D01*
X656994Y46838D01*
X657033Y46902D01*
X657069Y46968D01*
X657101Y47036D01*
X657130Y47105D01*
X657155Y47175D01*
X657176Y47247D01*
X657194Y47320D01*
X657207Y47394D01*
X657217Y47468D01*
X657223Y47543D01*
X657225Y47618D01*
X657225Y49459D01*
X653542Y49459D01*
X653473Y49457D01*
X653405Y49451D01*
X653336Y49442D01*
X653269Y49428D01*
X653202Y49411D01*
X653136Y49390D01*
X653072Y49366D01*
X653009Y49337D01*
X652948Y49306D01*
X652889Y49271D01*
X652831Y49233D01*
X652776Y49191D01*
X652724Y49147D01*
X652674Y49099D01*
X652626Y49049D01*
X652582Y48997D01*
X652541Y48942D01*
X652502Y48884D01*
X652467Y48825D01*
X652436Y48764D01*
X652407Y48701D01*
X652383Y48637D01*
X652362Y48571D01*
X652345Y48504D01*
X652331Y48437D01*
X652322Y48369D01*
X652316Y48300D01*
X652314Y48231D01*
X652314Y46595D01*
X653951Y52810D02*
X655588Y52810D01*
X653951Y52810D02*
X653872Y52812D01*
X653793Y52818D01*
X653714Y52827D01*
X653636Y52840D01*
X653559Y52858D01*
X653483Y52878D01*
X653408Y52903D01*
X653334Y52931D01*
X653261Y52962D01*
X653190Y52998D01*
X653121Y53036D01*
X653054Y53078D01*
X652989Y53123D01*
X652926Y53171D01*
X652865Y53222D01*
X652808Y53276D01*
X652752Y53332D01*
X652700Y53391D01*
X652650Y53453D01*
X652604Y53517D01*
X652560Y53583D01*
X652520Y53651D01*
X652484Y53721D01*
X652450Y53793D01*
X652420Y53867D01*
X652394Y53941D01*
X652371Y54017D01*
X652353Y54094D01*
X652337Y54171D01*
X652326Y54250D01*
X652318Y54328D01*
X652314Y54407D01*
X652314Y54487D01*
X652318Y54566D01*
X652326Y54644D01*
X652337Y54723D01*
X652353Y54800D01*
X652371Y54877D01*
X652394Y54953D01*
X652420Y55027D01*
X652450Y55101D01*
X652484Y55173D01*
X652520Y55243D01*
X652560Y55311D01*
X652604Y55377D01*
X652650Y55441D01*
X652700Y55503D01*
X652752Y55562D01*
X652808Y55618D01*
X652865Y55672D01*
X652926Y55723D01*
X652989Y55771D01*
X653054Y55816D01*
X653121Y55858D01*
X653190Y55896D01*
X653261Y55932D01*
X653334Y55963D01*
X653408Y55991D01*
X653483Y56016D01*
X653559Y56036D01*
X653636Y56054D01*
X653714Y56067D01*
X653793Y56076D01*
X653872Y56082D01*
X653951Y56084D01*
X655588Y56084D01*
X655667Y56082D01*
X655746Y56076D01*
X655825Y56067D01*
X655903Y56054D01*
X655980Y56036D01*
X656056Y56016D01*
X656131Y55991D01*
X656205Y55963D01*
X656278Y55932D01*
X656349Y55896D01*
X656418Y55858D01*
X656485Y55816D01*
X656550Y55771D01*
X656613Y55723D01*
X656674Y55672D01*
X656731Y55618D01*
X656787Y55562D01*
X656839Y55503D01*
X656889Y55441D01*
X656935Y55377D01*
X656979Y55311D01*
X657019Y55243D01*
X657055Y55173D01*
X657089Y55101D01*
X657119Y55027D01*
X657145Y54953D01*
X657168Y54877D01*
X657186Y54800D01*
X657202Y54723D01*
X657213Y54644D01*
X657221Y54566D01*
X657225Y54487D01*
X657225Y54407D01*
X657221Y54328D01*
X657213Y54250D01*
X657202Y54171D01*
X657186Y54094D01*
X657168Y54017D01*
X657145Y53941D01*
X657119Y53867D01*
X657089Y53793D01*
X657055Y53721D01*
X657019Y53651D01*
X656979Y53583D01*
X656935Y53517D01*
X656889Y53453D01*
X656839Y53391D01*
X656787Y53332D01*
X656731Y53276D01*
X656674Y53222D01*
X656613Y53171D01*
X656550Y53123D01*
X656485Y53078D01*
X656418Y53036D01*
X656349Y52998D01*
X656278Y52962D01*
X656205Y52931D01*
X656131Y52903D01*
X656056Y52878D01*
X655980Y52858D01*
X655903Y52840D01*
X655825Y52827D01*
X655746Y52818D01*
X655667Y52812D01*
X655588Y52810D01*
X654360Y59307D02*
X654360Y64217D01*
X654360Y68832D02*
X654360Y70673D01*
X654361Y68832D02*
X654363Y68757D01*
X654369Y68682D01*
X654379Y68608D01*
X654392Y68534D01*
X654410Y68461D01*
X654431Y68389D01*
X654456Y68319D01*
X654485Y68250D01*
X654517Y68182D01*
X654553Y68116D01*
X654592Y68052D01*
X654634Y67990D01*
X654680Y67931D01*
X654729Y67874D01*
X654780Y67819D01*
X654835Y67768D01*
X654892Y67719D01*
X654951Y67673D01*
X655013Y67631D01*
X655077Y67592D01*
X655143Y67556D01*
X655211Y67524D01*
X655280Y67495D01*
X655350Y67470D01*
X655422Y67449D01*
X655495Y67431D01*
X655569Y67418D01*
X655643Y67408D01*
X655718Y67402D01*
X655793Y67400D01*
X655868Y67402D01*
X655943Y67408D01*
X656017Y67418D01*
X656091Y67431D01*
X656164Y67449D01*
X656236Y67470D01*
X656306Y67495D01*
X656375Y67524D01*
X656443Y67556D01*
X656509Y67592D01*
X656573Y67631D01*
X656635Y67673D01*
X656694Y67719D01*
X656751Y67768D01*
X656806Y67819D01*
X656857Y67874D01*
X656906Y67931D01*
X656952Y67990D01*
X656994Y68052D01*
X657033Y68116D01*
X657069Y68182D01*
X657101Y68250D01*
X657130Y68319D01*
X657155Y68389D01*
X657176Y68461D01*
X657194Y68534D01*
X657207Y68608D01*
X657217Y68682D01*
X657223Y68757D01*
X657225Y68832D01*
X657225Y70673D01*
X653542Y70673D01*
X653473Y70671D01*
X653405Y70665D01*
X653336Y70656D01*
X653269Y70642D01*
X653202Y70625D01*
X653136Y70604D01*
X653072Y70580D01*
X653009Y70551D01*
X652948Y70520D01*
X652889Y70485D01*
X652831Y70447D01*
X652776Y70405D01*
X652724Y70361D01*
X652674Y70313D01*
X652626Y70263D01*
X652582Y70211D01*
X652541Y70156D01*
X652502Y70098D01*
X652467Y70039D01*
X652436Y69978D01*
X652407Y69915D01*
X652383Y69851D01*
X652362Y69785D01*
X652345Y69718D01*
X652331Y69651D01*
X652322Y69583D01*
X652316Y69514D01*
X652314Y69445D01*
X652314Y67809D01*
X652314Y74314D02*
X657225Y74314D01*
X652314Y74314D02*
X652314Y76769D01*
X653133Y76769D01*
X652314Y79545D02*
X657225Y79545D01*
X652314Y79545D02*
X652314Y83228D01*
X652316Y83297D01*
X652322Y83365D01*
X652331Y83434D01*
X652345Y83501D01*
X652362Y83568D01*
X652383Y83634D01*
X652407Y83698D01*
X652436Y83761D01*
X652467Y83822D01*
X652502Y83881D01*
X652540Y83939D01*
X652582Y83994D01*
X652626Y84046D01*
X652674Y84096D01*
X652724Y84144D01*
X652776Y84188D01*
X652831Y84230D01*
X652889Y84268D01*
X652948Y84303D01*
X653009Y84334D01*
X653072Y84363D01*
X653136Y84387D01*
X653202Y84408D01*
X653269Y84425D01*
X653336Y84439D01*
X653405Y84448D01*
X653473Y84454D01*
X653542Y84456D01*
X657225Y84456D01*
X657225Y82001D02*
X652314Y82001D01*
X654360Y88537D02*
X655179Y90583D01*
X654360Y88537D02*
X654335Y88478D01*
X654306Y88421D01*
X654273Y88366D01*
X654237Y88313D01*
X654199Y88262D01*
X654157Y88214D01*
X654112Y88168D01*
X654065Y88125D01*
X654015Y88085D01*
X653963Y88048D01*
X653908Y88014D01*
X653852Y87983D01*
X653794Y87956D01*
X653734Y87933D01*
X653674Y87913D01*
X653612Y87897D01*
X653549Y87884D01*
X653485Y87876D01*
X653422Y87871D01*
X653358Y87870D01*
X653294Y87873D01*
X653230Y87880D01*
X653167Y87891D01*
X653105Y87905D01*
X653043Y87923D01*
X652983Y87945D01*
X652924Y87970D01*
X652867Y87999D01*
X652812Y88032D01*
X652759Y88067D01*
X652708Y88106D01*
X652659Y88148D01*
X652613Y88192D01*
X652570Y88240D01*
X652530Y88289D01*
X652493Y88342D01*
X652459Y88396D01*
X652428Y88452D01*
X652401Y88510D01*
X652377Y88569D01*
X652358Y88630D01*
X652341Y88692D01*
X652329Y88755D01*
X652320Y88818D01*
X652315Y88882D01*
X652314Y88946D01*
X652314Y88945D02*
X652318Y89081D01*
X652326Y89216D01*
X652338Y89352D01*
X652354Y89486D01*
X652374Y89621D01*
X652397Y89754D01*
X652425Y89887D01*
X652456Y90019D01*
X652491Y90150D01*
X652530Y90280D01*
X652573Y90409D01*
X652620Y90536D01*
X652670Y90662D01*
X652724Y90787D01*
X655179Y90583D02*
X655204Y90642D01*
X655233Y90699D01*
X655266Y90754D01*
X655302Y90807D01*
X655340Y90858D01*
X655382Y90906D01*
X655427Y90952D01*
X655474Y90995D01*
X655524Y91035D01*
X655576Y91072D01*
X655631Y91106D01*
X655687Y91137D01*
X655745Y91164D01*
X655805Y91187D01*
X655865Y91207D01*
X655927Y91223D01*
X655990Y91236D01*
X656054Y91244D01*
X656117Y91249D01*
X656181Y91250D01*
X656245Y91247D01*
X656309Y91240D01*
X656372Y91229D01*
X656434Y91215D01*
X656496Y91197D01*
X656556Y91175D01*
X656615Y91150D01*
X656672Y91121D01*
X656727Y91088D01*
X656780Y91053D01*
X656831Y91014D01*
X656880Y90972D01*
X656926Y90928D01*
X656969Y90880D01*
X657009Y90831D01*
X657046Y90778D01*
X657080Y90724D01*
X657111Y90668D01*
X657138Y90610D01*
X657162Y90551D01*
X657181Y90490D01*
X657198Y90428D01*
X657210Y90365D01*
X657219Y90302D01*
X657224Y90238D01*
X657225Y90174D01*
X657221Y90010D01*
X657213Y89846D01*
X657201Y89682D01*
X657185Y89519D01*
X657165Y89356D01*
X657142Y89193D01*
X657114Y89032D01*
X657083Y88870D01*
X657048Y88710D01*
X657009Y88551D01*
X656966Y88392D01*
X656920Y88235D01*
X656870Y88078D01*
X656816Y87923D01*
D11*
X684022Y50800D03*
X712978Y50800D03*
X684022Y25400D03*
X712978Y25400D03*
X99822Y419100D03*
X128778Y419100D03*
X99822Y393700D03*
X128778Y393700D03*
M02*
