G04 EAGLE Gerber X2 export*
G75*
%MOMM*%
%FSLAX34Y34*%
%LPD*%
%AMOC8*
5,1,8,0,0,1.08239X$1,22.5*%
G01*
%ADD10R,0.082803X0.041403*%
%ADD11R,0.248413X0.041400*%
%ADD12R,0.414019X0.041403*%
%ADD13R,0.538225X0.041400*%
%ADD14R,0.041400X0.041403*%
%ADD15R,0.745237X0.041403*%
%ADD16R,0.910844X0.041403*%
%ADD17R,0.910844X0.041400*%
%ADD18R,0.828041X0.041403*%
%ADD19R,0.621028X0.041403*%
%ADD20R,0.331216X0.041403*%
%ADD21R,0.207009X0.041400*%
%ADD22R,0.579628X0.041403*%
%ADD23R,0.621031X0.041400*%
%ADD24R,0.662434X0.041403*%
%ADD25R,0.786637X0.041403*%
%ADD26R,0.786637X0.041400*%
%ADD27R,0.828038X0.041403*%
%ADD28R,0.869444X0.041400*%
%ADD29R,0.869444X0.041403*%
%ADD30R,0.869441X0.041400*%
%ADD31R,0.869441X0.041403*%
%ADD32R,0.828041X0.041400*%
%ADD33R,0.703834X0.041403*%
%ADD34R,0.621031X0.041403*%
%ADD35R,0.662431X0.041400*%
%ADD36R,0.621028X0.041400*%
%ADD37R,0.579628X0.041400*%
%ADD38R,0.538228X0.041403*%
%ADD39R,0.538225X0.041403*%
%ADD40R,0.538228X0.041400*%
%ADD41R,0.496825X0.041403*%
%ADD42R,0.496825X0.041400*%
%ADD43R,0.455422X0.041403*%
%ADD44R,0.372616X0.041403*%
%ADD45R,0.331216X0.041400*%
%ADD46R,0.248413X0.041403*%
%ADD47R,0.165606X0.041400*%
%ADD48R,0.041403X0.041403*%
%ADD49R,0.041403X0.041400*%
%ADD50R,0.124206X0.041400*%
%ADD51R,0.165606X0.041403*%
%ADD52R,0.207009X0.041403*%
%ADD53R,0.289813X0.041403*%
%ADD54R,0.496822X0.041403*%
%ADD55R,0.455422X0.041400*%
%ADD56R,0.703831X0.041403*%
%ADD57R,0.703834X0.041400*%
%ADD58R,0.496822X0.041400*%
%ADD59R,0.372616X0.041400*%
%ADD60R,0.372619X0.041403*%
%ADD61R,0.289816X0.041400*%
%ADD62R,0.289816X0.041403*%
%ADD63R,0.414022X0.041403*%
%ADD64R,0.786641X0.041403*%
%ADD65R,0.786641X0.041400*%
%ADD66R,0.455425X0.041403*%
%ADD67R,0.331219X0.041400*%
%ADD68R,0.207013X0.041403*%
%ADD69R,0.165609X0.041400*%
%ADD70R,0.041400X0.041400*%
%ADD71R,0.248409X0.041403*%
%ADD72R,0.372619X0.041400*%
%ADD73R,0.414019X0.041400*%
%ADD74R,0.414022X0.041400*%
%ADD75R,1.117853X0.041400*%
%ADD76R,1.366266X0.041403*%
%ADD77R,1.573275X0.041400*%
%ADD78R,1.821691X0.041403*%
%ADD79R,1.904494X0.041403*%
%ADD80R,1.945894X0.041400*%
%ADD81R,1.945894X0.041403*%
%ADD82R,1.656078X0.041403*%
%ADD83R,1.531872X0.041400*%
%ADD84R,1.407669X0.041403*%
%ADD85R,1.324863X0.041403*%
%ADD86R,1.242059X0.041400*%
%ADD87R,1.159256X0.041403*%
%ADD88R,1.200656X0.041400*%
%ADD89R,0.993650X0.041403*%
%ADD90R,0.993647X0.041403*%
%ADD91R,0.993647X0.041400*%
%ADD92R,0.952247X0.041403*%
%ADD93R,0.662431X0.041403*%
%ADD94R,0.662434X0.041400*%
%ADD95R,0.745234X0.041400*%
%ADD96R,0.745234X0.041403*%
%ADD97R,0.703831X0.041400*%
%ADD98R,0.745237X0.041400*%
%ADD99R,0.952247X0.041400*%
%ADD100R,0.952244X0.041400*%
%ADD101R,0.910847X0.041403*%
%ADD102R,1.035050X0.041403*%
%ADD103R,1.076450X0.041400*%
%ADD104R,1.076450X0.041403*%
%ADD105R,1.035050X0.041400*%
%ADD106R,1.117856X0.041403*%
%ADD107R,0.331219X0.041403*%
%ADD108R,0.952244X0.041403*%
%ADD109R,1.076453X0.041403*%
%ADD110R,1.117853X0.041403*%
%ADD111R,0.993650X0.041400*%
%ADD112R,0.579625X0.041400*%
%ADD113R,0.124206X0.041403*%
%ADD114R,0.579625X0.041403*%
%ADD115R,0.289813X0.041400*%
%ADD116R,0.248409X0.041400*%
%ADD117R,0.207013X0.041400*%
%ADD118R,0.082803X0.041400*%
%ADD119R,0.165609X0.041403*%
%ADD120R,1.987297X0.041403*%
%ADD121R,2.277109X0.041400*%
%ADD122R,2.484119X0.041403*%
%ADD123R,2.649728X0.041403*%
%ADD124R,2.856741X0.041400*%
%ADD125R,1.200659X0.041403*%
%ADD126R,1.449069X0.041403*%
%ADD127R,1.738884X0.041400*%
%ADD128R,2.152906X0.041403*%
%ADD129R,0.082806X0.041403*%
%ADD130R,0.082806X0.041400*%
%ADD131R,2.566925X0.041403*%
%ADD132R,0.455425X0.041400*%
%ADD133R,2.525525X0.041400*%
%ADD134R,2.401319X0.041403*%
%ADD135R,2.277109X0.041403*%
%ADD136R,2.152903X0.041400*%
%ADD137R,2.028700X0.041403*%
%ADD138R,1.821688X0.041403*%
%ADD139R,1.200656X0.041403*%
%ADD140R,1.283462X0.041400*%
%ADD141R,1.366269X0.041403*%
%ADD142R,1.490472X0.041403*%
%ADD143R,1.531875X0.041400*%
%ADD144R,1.242063X0.041400*%
%ADD145R,1.738881X0.041403*%
%ADD146R,2.484119X0.041400*%
%ADD147R,5.216653X0.041403*%
%ADD148R,4.885438X0.041403*%
%ADD149R,4.471416X0.041400*%
%ADD150R,3.891788X0.041403*%
%ADD151R,3.270759X0.041403*%
%ADD152R,1.324866X0.041403*%


D10*
X431481Y14770D03*
D11*
X431067Y15184D03*
D12*
X430653Y15598D03*
D13*
X430032Y16012D03*
D14*
X424236Y16426D03*
D15*
X429411Y16426D03*
D16*
X428583Y16840D03*
D17*
X428583Y17254D03*
D18*
X428169Y17668D03*
D19*
X427134Y18082D03*
D13*
X426720Y18496D03*
D20*
X425685Y18910D03*
D10*
X380971Y30503D03*
D21*
X380350Y30917D03*
D12*
X379315Y31331D03*
D22*
X378901Y31745D03*
D23*
X378694Y32159D03*
D24*
X378487Y32573D03*
D25*
X377452Y32987D03*
D26*
X376210Y33401D03*
D25*
X375382Y33815D03*
D27*
X374346Y34229D03*
D28*
X372897Y34643D03*
D18*
X372276Y35057D03*
D25*
X371241Y35471D03*
D26*
X369999Y35885D03*
D29*
X369171Y36299D03*
D30*
X368343Y36713D03*
D31*
X367515Y37127D03*
D18*
X366480Y37541D03*
D32*
X365652Y37955D03*
D18*
X364410Y38369D03*
D25*
X363375Y38783D03*
D26*
X362133Y39197D03*
D33*
X360891Y39611D03*
D34*
X360063Y40025D03*
D35*
X359028Y40439D03*
D34*
X357579Y40853D03*
D36*
X357165Y41267D03*
D33*
X356337Y41681D03*
D34*
X355509Y42095D03*
D37*
X354474Y42509D03*
D22*
X354059Y42923D03*
D38*
X352610Y43337D03*
D13*
X351782Y43752D03*
D22*
X351161Y44166D03*
X350333Y44580D03*
D13*
X349712Y44994D03*
D39*
X348884Y45408D03*
D22*
X347849Y45822D03*
D35*
X346607Y46236D03*
D39*
X345986Y46650D03*
D40*
X345572Y47064D03*
D22*
X344537Y47478D03*
X343709Y47892D03*
D37*
X342881Y48306D03*
D22*
X342053Y48720D03*
D41*
X341225Y49134D03*
D42*
X340811Y49548D03*
D43*
X340190Y49962D03*
D44*
X339776Y50376D03*
D45*
X339569Y50790D03*
D46*
X339155Y51204D03*
D47*
X338741Y51618D03*
D10*
X338327Y52032D03*
D14*
X338120Y52446D03*
D48*
X310794Y64038D03*
D49*
X310794Y64453D03*
D48*
X310794Y64867D03*
D10*
X310587Y65281D03*
D50*
X310380Y65695D03*
D51*
X310173Y66109D03*
D52*
X309966Y66523D03*
D11*
X309759Y66937D03*
D53*
X309552Y67351D03*
D45*
X309345Y67765D03*
D43*
X308724Y68179D03*
X308724Y68593D03*
D42*
X308517Y69007D03*
D39*
X308310Y69421D03*
D41*
X306861Y69835D03*
D42*
X306447Y70249D03*
D41*
X305619Y70663D03*
D54*
X304791Y71077D03*
D55*
X304170Y71491D03*
D54*
X303549Y71905D03*
D40*
X302928Y72319D03*
D22*
X302307Y72733D03*
D56*
X302514Y73147D03*
D57*
X302100Y73561D03*
D33*
X301272Y73975D03*
D25*
X300444Y74389D03*
D28*
X299202Y74803D03*
D31*
X298788Y75217D03*
X297546Y75631D03*
D32*
X296511Y76045D03*
D18*
X295683Y76459D03*
D29*
X294648Y76873D03*
D30*
X293820Y77287D03*
D16*
X293199Y77701D03*
D17*
X292371Y78115D03*
D25*
X291335Y78529D03*
D15*
X290300Y78943D03*
D35*
X289472Y79357D03*
D34*
X288851Y79771D03*
D38*
X288023Y80185D03*
D58*
X287402Y80599D03*
D43*
X286781Y81013D03*
D41*
X286160Y81427D03*
D55*
X285539Y81841D03*
D12*
X284918Y82255D03*
D59*
X284711Y82669D03*
D60*
X284297Y83083D03*
D20*
X284090Y83497D03*
D45*
X283676Y83911D03*
D20*
X283262Y84325D03*
X282848Y84739D03*
D61*
X282641Y85154D03*
D62*
X282227Y85568D03*
D53*
X281813Y85982D03*
D45*
X281606Y86396D03*
D63*
X280778Y86810D03*
D12*
X280364Y87224D03*
D59*
X280157Y87638D03*
D63*
X279536Y88052D03*
D42*
X279122Y88466D03*
D41*
X278708Y88880D03*
D22*
X277880Y89294D03*
D35*
X277466Y89708D03*
D20*
X275396Y90122D03*
D63*
X274982Y90536D03*
D42*
X274568Y90950D03*
D34*
X273947Y91364D03*
D64*
X273119Y91778D03*
D65*
X273119Y92192D03*
D24*
X272498Y92606D03*
D40*
X271877Y93020D03*
D66*
X271463Y93434D03*
D63*
X271255Y93848D03*
D67*
X270841Y94262D03*
D62*
X270634Y94676D03*
D68*
X270220Y95090D03*
D69*
X270013Y95504D03*
D10*
X270013Y95918D03*
D48*
X269806Y96332D03*
D10*
X237306Y115791D03*
D50*
X237099Y116205D03*
D52*
X237099Y116619D03*
D20*
X237306Y117033D03*
D37*
X238134Y117447D03*
D19*
X237513Y117861D03*
D22*
X236892Y118275D03*
D36*
X236271Y118689D03*
D34*
X235857Y119103D03*
D37*
X234822Y119517D03*
D22*
X234408Y119931D03*
D34*
X233373Y120345D03*
D37*
X232752Y120759D03*
D39*
X232545Y121173D03*
X232131Y121587D03*
D37*
X231924Y122001D03*
D60*
X230475Y122415D03*
D70*
X203563Y143944D03*
D10*
X203356Y144358D03*
D47*
X202942Y144772D03*
D52*
X202735Y145186D03*
D48*
X200665Y145600D03*
D71*
X202528Y145600D03*
D45*
X202114Y146014D03*
D20*
X202114Y146428D03*
D44*
X201907Y146842D03*
D55*
X201493Y147257D03*
D43*
X201079Y147671D03*
D44*
X200665Y148085D03*
D55*
X199837Y148499D03*
D43*
X199423Y148913D03*
D63*
X198802Y149327D03*
D72*
X198181Y149741D03*
D60*
X197767Y150155D03*
D59*
X197353Y150569D03*
D60*
X196939Y150983D03*
X196525Y151397D03*
D59*
X196111Y151811D03*
D20*
X195490Y152225D03*
X195076Y152639D03*
D45*
X194662Y153053D03*
D20*
X194248Y153467D03*
X193420Y153881D03*
D45*
X193006Y154295D03*
D20*
X192592Y154709D03*
D45*
X192178Y155123D03*
D44*
X191557Y155537D03*
D60*
X191143Y155951D03*
D72*
X190729Y156365D03*
D44*
X190315Y156779D03*
D20*
X189694Y157193D03*
D67*
X189280Y157607D03*
D20*
X188866Y158021D03*
D60*
X188244Y158435D03*
D72*
X187416Y158849D03*
D44*
X187002Y159263D03*
D63*
X186381Y159677D03*
D73*
X185967Y160091D03*
D12*
X185553Y160505D03*
D42*
X184311Y160919D03*
D39*
X183690Y161333D03*
D43*
X183276Y161747D03*
D74*
X183069Y162161D03*
D20*
X182655Y162575D03*
D60*
X182034Y162989D03*
D72*
X182034Y163403D03*
D12*
X181413Y163817D03*
D43*
X180792Y164231D03*
D73*
X180171Y164645D03*
D44*
X179964Y165059D03*
D72*
X179550Y165473D03*
D60*
X179136Y165887D03*
X178722Y166301D03*
D72*
X178308Y166715D03*
D60*
X177894Y167129D03*
D63*
X177273Y167543D03*
D73*
X176859Y167958D03*
D12*
X176445Y168372D03*
D63*
X176031Y168786D03*
D55*
X175824Y169200D03*
D69*
X149534Y191971D03*
D52*
X149327Y192385D03*
D62*
X148913Y192799D03*
D61*
X148913Y193213D03*
D62*
X148913Y193627D03*
D60*
X148499Y194041D03*
D74*
X148292Y194455D03*
D63*
X148292Y194869D03*
D43*
X148085Y195283D03*
D40*
X147671Y195697D03*
D41*
X147050Y196111D03*
D42*
X146635Y196525D03*
D54*
X146221Y196939D03*
D41*
X145807Y197353D03*
D42*
X145393Y197767D03*
D54*
X144979Y198181D03*
D41*
X144565Y198595D03*
D42*
X144151Y199009D03*
D54*
X143737Y199423D03*
D41*
X143323Y199837D03*
D13*
X142702Y200251D03*
D69*
X415334Y200251D03*
D39*
X142288Y200665D03*
D34*
X413885Y200665D03*
D22*
X141667Y201079D03*
D16*
X413264Y201079D03*
D37*
X141253Y201493D03*
D75*
X412229Y201493D03*
D38*
X141046Y201907D03*
D76*
X411401Y201907D03*
D42*
X140839Y202321D03*
D77*
X410366Y202321D03*
D43*
X140632Y202735D03*
D78*
X409538Y202735D03*
D38*
X139804Y203149D03*
D79*
X408710Y203149D03*
D42*
X139597Y203563D03*
D80*
X408089Y203563D03*
D43*
X139390Y203977D03*
D81*
X406433Y203977D03*
D41*
X138769Y204391D03*
D82*
X403742Y204391D03*
D55*
X138562Y204805D03*
D83*
X401879Y204805D03*
D12*
X138355Y205219D03*
D84*
X400016Y205219D03*
D60*
X138148Y205633D03*
D85*
X398360Y205633D03*
D13*
X136906Y206047D03*
D86*
X396704Y206047D03*
D38*
X136492Y206461D03*
D87*
X395047Y206461D03*
D13*
X136078Y206875D03*
D88*
X393598Y206875D03*
D39*
X135664Y207289D03*
D87*
X392149Y207289D03*
D38*
X135250Y207703D03*
D87*
X390907Y207703D03*
D58*
X134629Y208117D03*
D75*
X389458Y208117D03*
D39*
X134422Y208531D03*
D89*
X388009Y208531D03*
D22*
X133801Y208945D03*
D90*
X386767Y208945D03*
D23*
X133594Y209360D03*
D91*
X385525Y209360D03*
D92*
X384490Y209774D03*
D16*
X383869Y210188D03*
D28*
X382834Y210602D03*
D16*
X381799Y211016D03*
D18*
X380557Y211430D03*
D57*
X379108Y211844D03*
D93*
X377659Y212258D03*
D23*
X376210Y212672D03*
D56*
X374968Y213086D03*
D34*
X373725Y213500D03*
D57*
X372069Y213914D03*
D24*
X371448Y214328D03*
D93*
X370620Y214742D03*
D36*
X369585Y215156D03*
D22*
X368964Y215570D03*
D34*
X367929Y215984D03*
D94*
X366894Y216398D03*
D93*
X366066Y216812D03*
D57*
X365031Y217226D03*
D93*
X363996Y217640D03*
X363168Y218054D03*
D23*
X362133Y218468D03*
D15*
X360684Y218882D03*
X359442Y219296D03*
D95*
X358614Y219710D03*
D33*
X357579Y220124D03*
D24*
X356544Y220538D03*
D95*
X355302Y220952D03*
D56*
X354267Y221366D03*
D96*
X353231Y221780D03*
D95*
X351989Y222194D03*
D33*
X350954Y222608D03*
D97*
X349712Y223022D03*
D56*
X348470Y223436D03*
D64*
X346814Y223850D03*
D32*
X345365Y224264D03*
D25*
X344330Y224678D03*
D33*
X343502Y225092D03*
D98*
X342467Y225506D03*
D15*
X341225Y225920D03*
D96*
X339569Y226334D03*
D26*
X338120Y226748D03*
D31*
X336464Y227162D03*
D99*
X335222Y227576D03*
D92*
X333980Y227990D03*
D31*
X332737Y228404D03*
D32*
X331288Y228818D03*
D29*
X329011Y229232D03*
D16*
X327562Y229646D03*
D100*
X326527Y230061D03*
D101*
X325492Y230475D03*
D16*
X323836Y230889D03*
D28*
X321973Y231303D03*
D16*
X320110Y231717D03*
D102*
X318247Y232131D03*
D103*
X316798Y232545D03*
D104*
X315556Y232959D03*
D70*
X110409Y233373D03*
D105*
X314107Y233373D03*
D14*
X110409Y233787D03*
D102*
X312450Y233787D03*
D10*
X110202Y234201D03*
D90*
X310587Y234201D03*
D50*
X109995Y234615D03*
D105*
X308724Y234615D03*
D51*
X109788Y235029D03*
D106*
X307068Y235029D03*
D52*
X109581Y235443D03*
D87*
X305619Y235443D03*
D21*
X109581Y235857D03*
D75*
X304170Y235857D03*
D71*
X109374Y236271D03*
D106*
X302514Y236271D03*
D53*
X109167Y236685D03*
D90*
X301065Y236685D03*
D45*
X108960Y237099D03*
D30*
X299616Y237099D03*
D20*
X108960Y237513D03*
D31*
X297546Y237513D03*
D59*
X108753Y237927D03*
D17*
X296097Y237927D03*
D60*
X108339Y238341D03*
D18*
X294441Y238341D03*
D60*
X107925Y238755D03*
D27*
X292785Y238755D03*
D59*
X107511Y239169D03*
D32*
X291128Y239169D03*
D20*
X107304Y239583D03*
D25*
X289679Y239583D03*
D20*
X106890Y239997D03*
D25*
X288437Y239997D03*
D72*
X106683Y240411D03*
D26*
X287195Y240411D03*
D107*
X106476Y240825D03*
D27*
X285746Y240825D03*
D20*
X106062Y241239D03*
D29*
X283883Y241239D03*
D45*
X106062Y241653D03*
D17*
X282434Y241653D03*
D12*
X105233Y242067D03*
D90*
X280778Y242067D03*
D60*
X105026Y242481D03*
D92*
X279743Y242481D03*
D72*
X105026Y242895D03*
D99*
X278915Y242895D03*
D43*
X104198Y243309D03*
D89*
X277880Y243309D03*
D72*
X103784Y243723D03*
D32*
X276224Y243723D03*
D20*
X103577Y244137D03*
D108*
X274775Y244137D03*
D20*
X103163Y244551D03*
D92*
X273533Y244551D03*
D59*
X102956Y244965D03*
D91*
X272498Y244965D03*
D20*
X102749Y245379D03*
D109*
X271670Y245379D03*
D60*
X102542Y245793D03*
D110*
X270634Y245793D03*
D72*
X102128Y246207D03*
D103*
X269599Y246207D03*
D44*
X101714Y246621D03*
D102*
X268564Y246621D03*
D44*
X101714Y247035D03*
D102*
X267322Y247035D03*
D72*
X101300Y247449D03*
D111*
X266287Y247449D03*
D20*
X101093Y247863D03*
D102*
X265252Y247863D03*
D67*
X100679Y248277D03*
D91*
X264217Y248277D03*
D60*
X100472Y248691D03*
D89*
X262975Y248691D03*
D60*
X100058Y249105D03*
D102*
X261940Y249105D03*
D59*
X99644Y249519D03*
D91*
X260905Y249519D03*
D60*
X99230Y249933D03*
D90*
X260077Y249933D03*
D60*
X99230Y250347D03*
D89*
X259249Y250347D03*
D72*
X98816Y250762D03*
D105*
X258214Y250762D03*
D44*
X98402Y251176D03*
D89*
X257179Y251176D03*
D12*
X98195Y251590D03*
D16*
X255937Y251590D03*
D74*
X97781Y252004D03*
D30*
X254902Y252004D03*
D12*
X97367Y252418D03*
D18*
X253867Y252418D03*
D12*
X97367Y252832D03*
D25*
X253246Y252832D03*
D73*
X96953Y253246D03*
D65*
X252418Y253246D03*
D60*
X96746Y253660D03*
D18*
X250969Y253660D03*
D72*
X96332Y254074D03*
D98*
X250140Y254074D03*
D60*
X95918Y254488D03*
D15*
X249312Y254488D03*
D63*
X95297Y254902D03*
D25*
X248277Y254902D03*
D74*
X95297Y255316D03*
D95*
X247242Y255316D03*
D12*
X94883Y255730D03*
D33*
X246621Y255730D03*
D12*
X94883Y256144D03*
D93*
X245586Y256144D03*
D72*
X94676Y256558D03*
D35*
X244344Y256558D03*
D20*
X94469Y256972D03*
D93*
X243516Y256972D03*
D44*
X93848Y257386D03*
D22*
X242688Y257386D03*
D45*
X93641Y257800D03*
D37*
X241860Y257800D03*
D20*
X93641Y258214D03*
D19*
X240825Y258214D03*
D45*
X93227Y258628D03*
D37*
X239790Y258628D03*
D12*
X92813Y259042D03*
D22*
X238962Y259042D03*
D44*
X92606Y259456D03*
D22*
X238134Y259456D03*
D59*
X92606Y259870D03*
D37*
X237306Y259870D03*
D63*
X91985Y260284D03*
D34*
X236685Y260284D03*
D54*
X91985Y260698D03*
D22*
X236064Y260698D03*
D13*
X235029Y261112D03*
D38*
X234201Y261526D03*
D22*
X233580Y261940D03*
D37*
X233166Y262354D03*
D39*
X232545Y262768D03*
D38*
X231717Y263182D03*
D13*
X230889Y263596D03*
D41*
X229854Y264010D03*
D58*
X229025Y264424D03*
D38*
X228404Y264838D03*
D39*
X227576Y265252D03*
D40*
X227162Y265666D03*
D39*
X226334Y266080D03*
X225506Y266494D03*
D112*
X224885Y266908D03*
D34*
X224264Y267322D03*
D93*
X223643Y267736D03*
D57*
X223022Y268150D03*
D33*
X222194Y268564D03*
D98*
X221159Y268978D03*
D25*
X220538Y269392D03*
D96*
X219917Y269806D03*
D95*
X219503Y270220D03*
D15*
X219089Y270634D03*
D33*
X218054Y271048D03*
D95*
X217433Y271463D03*
D33*
X216812Y271877D03*
D96*
X216191Y272291D03*
D98*
X215777Y272705D03*
D96*
X215363Y273119D03*
D15*
X214535Y273533D03*
D97*
X213914Y273947D03*
D33*
X213500Y274361D03*
D95*
X212879Y274775D03*
D33*
X212258Y275189D03*
D24*
X211637Y275603D03*
D35*
X210809Y276017D03*
D34*
X210188Y276431D03*
D22*
X209567Y276845D03*
D37*
X209152Y277259D03*
D39*
X208531Y277673D03*
D22*
X207910Y278087D03*
D37*
X207082Y278501D03*
D39*
X206047Y278915D03*
D13*
X205633Y279329D03*
D41*
X205012Y279743D03*
D39*
X204391Y280157D03*
D13*
X203977Y280571D03*
D41*
X203356Y280985D03*
D43*
X202735Y281399D03*
D55*
X202321Y281813D03*
D41*
X201700Y282227D03*
D54*
X201286Y282641D03*
D40*
X200665Y283055D03*
D22*
X200044Y283469D03*
D38*
X199423Y283883D03*
D13*
X199009Y284297D03*
D22*
X198388Y284711D03*
D49*
X78529Y285125D03*
D37*
X197974Y285125D03*
D10*
X78322Y285539D03*
D19*
X197353Y285539D03*
D113*
X78115Y285953D03*
D22*
X196732Y285953D03*
D47*
X77908Y286367D03*
D37*
X196318Y286367D03*
D52*
X78115Y286781D03*
D34*
X195697Y286781D03*
D46*
X77908Y287195D03*
D34*
X195283Y287195D03*
D11*
X77908Y287609D03*
D36*
X194869Y287609D03*
D46*
X77908Y288023D03*
D34*
X194455Y288023D03*
D20*
X77908Y288437D03*
D114*
X193834Y288437D03*
D45*
X77908Y288851D03*
D23*
X193213Y288851D03*
D20*
X77908Y289265D03*
D22*
X192592Y289265D03*
D45*
X77494Y289679D03*
D37*
X192178Y289679D03*
D53*
X77287Y290093D03*
D22*
X191764Y290093D03*
D20*
X77080Y290507D03*
D34*
X191143Y290507D03*
D45*
X76666Y290921D03*
D23*
X190729Y290921D03*
D20*
X76666Y291335D03*
D19*
X190315Y291335D03*
D44*
X76459Y291749D03*
D34*
X189901Y291749D03*
D72*
X76045Y292164D03*
D23*
X189487Y292164D03*
D60*
X76045Y292578D03*
D22*
X188866Y292578D03*
D20*
X75838Y292992D03*
D22*
X188451Y292992D03*
D73*
X75424Y293406D03*
D37*
X188037Y293406D03*
D63*
X75010Y293820D03*
D34*
X187416Y293820D03*
D63*
X75010Y294234D03*
D22*
X186795Y294234D03*
D74*
X75010Y294648D03*
D37*
X186381Y294648D03*
D60*
X74803Y295062D03*
D38*
X185760Y295062D03*
D72*
X74803Y295476D03*
D13*
X185346Y295476D03*
D60*
X74803Y295890D03*
D39*
X184932Y295890D03*
D20*
X74596Y296304D03*
D41*
X184311Y296304D03*
D45*
X74596Y296718D03*
D58*
X183897Y296718D03*
D20*
X74596Y297132D03*
D41*
X183483Y297132D03*
D62*
X74389Y297546D03*
D54*
X183069Y297546D03*
D67*
X74182Y297960D03*
D42*
X182655Y297960D03*
D62*
X73975Y298374D03*
D43*
X182034Y298374D03*
D62*
X73975Y298788D03*
D43*
X181620Y298788D03*
D11*
X73768Y299202D03*
D55*
X181206Y299202D03*
D46*
X73768Y299616D03*
D43*
X180792Y299616D03*
D115*
X73561Y300030D03*
D55*
X180378Y300030D03*
D46*
X73354Y300444D03*
D12*
X179757Y300444D03*
D46*
X73354Y300858D03*
D63*
X179343Y300858D03*
D11*
X72940Y301272D03*
D73*
X178929Y301272D03*
D46*
X72940Y301686D03*
D43*
X178722Y301686D03*
D46*
X72940Y302100D03*
D66*
X178308Y302100D03*
D116*
X72526Y302514D03*
D55*
X177894Y302514D03*
D71*
X72526Y302928D03*
D43*
X177480Y302928D03*
D53*
X72319Y303342D03*
D12*
X176859Y303342D03*
D11*
X72112Y303756D03*
D55*
X176652Y303756D03*
D46*
X72112Y304170D03*
D43*
X176238Y304170D03*
D62*
X71905Y304584D03*
D43*
X175824Y304584D03*
D11*
X71698Y304998D03*
D73*
X175203Y304998D03*
D53*
X71491Y305412D03*
D63*
X174789Y305412D03*
D115*
X71491Y305826D03*
D73*
X174375Y305826D03*
D53*
X71077Y306240D03*
D44*
X174168Y306240D03*
D53*
X71077Y306654D03*
D60*
X173754Y306654D03*
D115*
X71077Y307068D03*
D72*
X173340Y307068D03*
D53*
X71077Y307482D03*
D60*
X172926Y307482D03*
D20*
X70870Y307896D03*
D60*
X172512Y307896D03*
D72*
X70249Y308310D03*
D59*
X172098Y308310D03*
D60*
X70249Y308724D03*
D12*
X171891Y308724D03*
D60*
X70249Y309138D03*
X171684Y309138D03*
D72*
X70249Y309552D03*
X171270Y309552D03*
D20*
X70042Y309966D03*
D44*
X170856Y309966D03*
D45*
X70042Y310380D03*
D72*
X170442Y310380D03*
D20*
X70042Y310794D03*
X170235Y310794D03*
D107*
X69628Y311208D03*
D20*
X169821Y311208D03*
D67*
X69628Y311622D03*
D45*
X169407Y311622D03*
D60*
X69421Y312036D03*
D20*
X168993Y312036D03*
X69214Y312450D03*
X168993Y312450D03*
D45*
X69214Y312865D03*
D67*
X168579Y312865D03*
D20*
X69214Y313279D03*
X168165Y313279D03*
D53*
X69007Y313693D03*
D20*
X167750Y313693D03*
D59*
X68593Y314107D03*
D67*
X167336Y314107D03*
D20*
X68386Y314521D03*
D62*
X167129Y314521D03*
D20*
X68386Y314935D03*
D53*
X166715Y314935D03*
D45*
X68386Y315349D03*
X166508Y315349D03*
D20*
X68386Y315763D03*
X166094Y315763D03*
D45*
X68386Y316177D03*
D115*
X165887Y316177D03*
D20*
X68386Y316591D03*
D53*
X165473Y316591D03*
X68179Y317005D03*
D20*
X165266Y317005D03*
D116*
X67972Y317419D03*
D45*
X164852Y317419D03*
D51*
X67558Y317833D03*
D53*
X164645Y317833D03*
D14*
X66937Y318247D03*
D20*
X164438Y318247D03*
D115*
X164231Y318661D03*
D62*
X163817Y319075D03*
X163817Y319489D03*
D115*
X163403Y319903D03*
D20*
X163196Y320317D03*
D61*
X162989Y320731D03*
D62*
X162575Y321145D03*
D53*
X162161Y321559D03*
D61*
X161747Y321973D03*
D46*
X161540Y322387D03*
D71*
X161126Y322801D03*
D115*
X160919Y323215D03*
D46*
X160712Y323629D03*
D62*
X160505Y324043D03*
D115*
X160091Y324457D03*
D71*
X159884Y324871D03*
D53*
X159677Y325285D03*
D11*
X159470Y325699D03*
D62*
X159263Y326113D03*
D11*
X159056Y326527D03*
D53*
X158849Y326941D03*
D46*
X158642Y327355D03*
D11*
X158228Y327769D03*
D46*
X157814Y328183D03*
D68*
X157607Y328597D03*
D11*
X157400Y329011D03*
D52*
X157193Y329425D03*
D46*
X156986Y329839D03*
D11*
X156572Y330253D03*
D46*
X156572Y330667D03*
D11*
X156158Y331081D03*
D52*
X155951Y331495D03*
D46*
X155744Y331909D03*
D21*
X155537Y332323D03*
D71*
X155330Y332737D03*
D46*
X154916Y333151D03*
D11*
X154916Y333566D03*
D46*
X154502Y333980D03*
X154502Y334394D03*
D116*
X154088Y334808D03*
D71*
X154088Y335222D03*
D46*
X153674Y335636D03*
D11*
X153674Y336050D03*
D46*
X153260Y336464D03*
D117*
X153053Y336878D03*
D46*
X152846Y337292D03*
X152432Y337706D03*
D61*
X152225Y338120D03*
D46*
X152018Y338534D03*
D53*
X151811Y338948D03*
D61*
X151397Y339362D03*
D62*
X151397Y339776D03*
D53*
X150983Y340190D03*
D115*
X150983Y340604D03*
D53*
X150569Y341018D03*
D45*
X150362Y341432D03*
D20*
X150362Y341846D03*
X149948Y342260D03*
D45*
X149948Y342674D03*
D20*
X149534Y343088D03*
X149534Y343502D03*
D45*
X149120Y343916D03*
D20*
X149120Y344330D03*
D44*
X148913Y344744D03*
D73*
X148706Y345158D03*
D60*
X148499Y345572D03*
X148499Y345986D03*
D72*
X148085Y346400D03*
D107*
X147878Y346814D03*
D61*
X147671Y347228D03*
D20*
X147464Y347642D03*
D53*
X147257Y348056D03*
D45*
X147049Y348470D03*
D20*
X147049Y348884D03*
D60*
X146842Y349298D03*
D67*
X146635Y349712D03*
D20*
X146221Y350126D03*
D14*
X59898Y350540D03*
D53*
X146014Y350540D03*
D70*
X59898Y350954D03*
D115*
X146014Y350954D03*
D10*
X60105Y351368D03*
D20*
X145807Y351368D03*
D118*
X60105Y351782D03*
D45*
X145807Y351782D03*
D10*
X60105Y352196D03*
D20*
X145393Y352196D03*
D113*
X60312Y352610D03*
D20*
X145393Y352610D03*
D11*
X60519Y353024D03*
D115*
X145186Y353024D03*
D46*
X60519Y353438D03*
D53*
X145186Y353438D03*
D46*
X60519Y353852D03*
D53*
X144772Y353852D03*
D11*
X60519Y354267D03*
D115*
X144772Y354267D03*
D46*
X60519Y354681D03*
D62*
X144358Y354681D03*
D46*
X60105Y355095D03*
D62*
X144358Y355095D03*
D11*
X60105Y355509D03*
D115*
X143944Y355509D03*
D46*
X60105Y355923D03*
D53*
X143944Y355923D03*
D46*
X60105Y356337D03*
D71*
X143737Y356337D03*
D11*
X60105Y356751D03*
D115*
X143530Y356751D03*
D68*
X59898Y357165D03*
D46*
X143323Y357165D03*
D11*
X59691Y357579D03*
X143323Y357579D03*
D46*
X59691Y357993D03*
D62*
X143116Y357993D03*
D46*
X59691Y358407D03*
D62*
X143116Y358407D03*
D11*
X59691Y358821D03*
X142909Y358821D03*
D46*
X59691Y359235D03*
D53*
X142702Y359235D03*
D46*
X59691Y359649D03*
D53*
X142702Y359649D03*
D21*
X59484Y360063D03*
D11*
X142495Y360063D03*
D52*
X59484Y360477D03*
D46*
X142495Y360477D03*
X59277Y360891D03*
X142081Y360891D03*
D11*
X59277Y361305D03*
X142081Y361305D03*
D46*
X59277Y361719D03*
X141667Y361719D03*
D11*
X59277Y362133D03*
X141667Y362133D03*
D46*
X59277Y362547D03*
D68*
X141460Y362547D03*
D46*
X59277Y362961D03*
X141253Y362961D03*
D11*
X59277Y363375D03*
D21*
X141046Y363375D03*
D46*
X59277Y363789D03*
X140839Y363789D03*
X59277Y364203D03*
X140839Y364203D03*
D11*
X59277Y364617D03*
D21*
X140632Y364617D03*
D52*
X59070Y365031D03*
D71*
X140425Y365031D03*
D46*
X58863Y365445D03*
D71*
X140425Y365445D03*
D11*
X58863Y365859D03*
D115*
X140218Y365859D03*
D46*
X58863Y366273D03*
X140011Y366273D03*
X58863Y366687D03*
X140011Y366687D03*
D11*
X58863Y367101D03*
X139597Y367101D03*
D46*
X58863Y367515D03*
X139597Y367515D03*
D11*
X58863Y367929D03*
D115*
X139390Y367929D03*
D46*
X58863Y368343D03*
D71*
X139183Y368343D03*
D53*
X58656Y368757D03*
D71*
X139183Y368757D03*
D115*
X58656Y369171D03*
D11*
X138769Y369171D03*
D46*
X58449Y369585D03*
X138769Y369585D03*
X58449Y369999D03*
X138769Y369999D03*
D11*
X58449Y370413D03*
X138355Y370413D03*
D46*
X58449Y370827D03*
X138355Y370827D03*
X58449Y371241D03*
X138355Y371241D03*
D61*
X58242Y371655D03*
D115*
X138148Y371655D03*
D62*
X58242Y372069D03*
D46*
X137941Y372069D03*
D61*
X58242Y372483D03*
D11*
X137941Y372483D03*
D46*
X58035Y372897D03*
X137527Y372897D03*
X58035Y373311D03*
X137527Y373311D03*
D11*
X58035Y373725D03*
X137113Y373725D03*
D46*
X58035Y374139D03*
X137113Y374139D03*
X58035Y374553D03*
D68*
X136906Y374553D03*
D11*
X58035Y374968D03*
X136699Y374968D03*
D46*
X58035Y375382D03*
X136699Y375382D03*
X58035Y375796D03*
X136285Y375796D03*
D11*
X58035Y376210D03*
X136285Y376210D03*
D71*
X57621Y376624D03*
D62*
X136078Y376624D03*
D71*
X57621Y377038D03*
D62*
X136078Y377038D03*
D116*
X57621Y377452D03*
D11*
X135871Y377452D03*
D71*
X57621Y377866D03*
D53*
X135664Y377866D03*
D116*
X57621Y378280D03*
D115*
X135664Y378280D03*
D71*
X57621Y378694D03*
D53*
X135664Y378694D03*
D71*
X57621Y379108D03*
D46*
X135457Y379108D03*
D116*
X57621Y379522D03*
D61*
X135250Y379522D03*
D71*
X57621Y379936D03*
D62*
X135250Y379936D03*
D71*
X57621Y380350D03*
D46*
X135043Y380350D03*
D116*
X57621Y380764D03*
D115*
X134836Y380764D03*
D52*
X57414Y381178D03*
D53*
X134836Y381178D03*
D52*
X57414Y381592D03*
D71*
X134629Y381592D03*
D21*
X57414Y382006D03*
D115*
X134422Y382006D03*
D52*
X57414Y382420D03*
D53*
X134422Y382420D03*
D21*
X57414Y382834D03*
D115*
X134422Y382834D03*
D52*
X57414Y383248D03*
D46*
X134215Y383248D03*
D52*
X57414Y383662D03*
D62*
X134008Y383662D03*
D21*
X57414Y384076D03*
D61*
X134008Y384076D03*
D52*
X57414Y384490D03*
D62*
X134008Y384490D03*
D52*
X57414Y384904D03*
D62*
X134008Y384904D03*
D21*
X57414Y385318D03*
D11*
X133801Y385318D03*
D52*
X57414Y385732D03*
D46*
X133801Y385732D03*
D52*
X57414Y386146D03*
D53*
X133594Y386146D03*
D21*
X57414Y386560D03*
D115*
X133594Y386560D03*
D52*
X57414Y386974D03*
D53*
X133594Y386974D03*
D52*
X57414Y387388D03*
D71*
X133387Y387388D03*
D21*
X57414Y387802D03*
D116*
X133387Y387802D03*
D52*
X57414Y388216D03*
D71*
X133387Y388216D03*
D116*
X133387Y388630D03*
D53*
X133180Y389044D03*
D46*
X132973Y389458D03*
D11*
X132973Y389872D03*
D46*
X132973Y390286D03*
X132973Y390700D03*
D11*
X132973Y391114D03*
D46*
X132973Y391528D03*
X132559Y391942D03*
D11*
X132559Y392356D03*
D46*
X132559Y392770D03*
D11*
X132559Y393184D03*
D46*
X132559Y393598D03*
X132559Y394012D03*
D117*
X132352Y394426D03*
D68*
X132352Y394840D03*
D46*
X132145Y395254D03*
D11*
X132145Y395669D03*
D46*
X132145Y396083D03*
X132145Y396497D03*
D11*
X132145Y396911D03*
D46*
X132145Y397325D03*
D52*
X131938Y397739D03*
D11*
X131731Y398153D03*
D46*
X131731Y398567D03*
D11*
X131731Y398981D03*
D46*
X131731Y399395D03*
X131731Y399809D03*
D11*
X131731Y400223D03*
D52*
X131524Y400637D03*
X131524Y401051D03*
D21*
X131524Y401465D03*
D46*
X131317Y401879D03*
X131317Y402293D03*
D11*
X131317Y402707D03*
D46*
X131317Y403121D03*
D11*
X131317Y403535D03*
D68*
X131110Y403949D03*
X131110Y404363D03*
D117*
X131110Y404777D03*
D68*
X131110Y405191D03*
X131110Y405605D03*
D117*
X131110Y406019D03*
D68*
X131110Y406433D03*
X131110Y406847D03*
D69*
X130903Y407261D03*
D119*
X130903Y407675D03*
X130903Y408089D03*
D21*
X130696Y408503D03*
D52*
X130696Y408917D03*
D21*
X130696Y409331D03*
D52*
X130696Y409745D03*
X130696Y410159D03*
D21*
X130696Y410573D03*
D52*
X130696Y410987D03*
X130696Y411401D03*
D21*
X130696Y411815D03*
D52*
X130696Y412229D03*
X130696Y412643D03*
D21*
X130696Y413057D03*
D52*
X130696Y413471D03*
D21*
X130696Y413885D03*
D51*
X130489Y414299D03*
D52*
X130282Y414713D03*
D21*
X130282Y415127D03*
D52*
X130282Y415541D03*
X130282Y415955D03*
D21*
X130282Y416370D03*
D52*
X130282Y416784D03*
X130282Y417198D03*
D21*
X130282Y417612D03*
D52*
X130282Y418026D03*
X130282Y418440D03*
D21*
X130282Y418854D03*
D52*
X130282Y419268D03*
D21*
X130282Y419682D03*
D52*
X130282Y420096D03*
X130282Y420510D03*
D115*
X61968Y420924D03*
D21*
X130282Y420924D03*
D53*
X62382Y421338D03*
D52*
X130282Y421338D03*
D53*
X62382Y421752D03*
D52*
X130282Y421752D03*
D115*
X62382Y422166D03*
D21*
X130282Y422166D03*
D53*
X62382Y422580D03*
D52*
X130282Y422580D03*
D46*
X62589Y422994D03*
D52*
X130282Y422994D03*
D11*
X62589Y423408D03*
D21*
X130282Y423408D03*
D46*
X62589Y423822D03*
D52*
X130282Y423822D03*
D11*
X62589Y424236D03*
D21*
X130282Y424236D03*
D46*
X63003Y424650D03*
D52*
X130282Y424650D03*
D46*
X63003Y425064D03*
D52*
X130282Y425064D03*
D11*
X63003Y425478D03*
D21*
X130282Y425478D03*
D46*
X63003Y425892D03*
D52*
X130282Y425892D03*
D46*
X63003Y426306D03*
D52*
X130282Y426306D03*
D11*
X63417Y426720D03*
D21*
X130282Y426720D03*
D46*
X63417Y427134D03*
D52*
X130282Y427134D03*
D46*
X63417Y427548D03*
D52*
X130282Y427548D03*
D11*
X63417Y427962D03*
D21*
X130282Y427962D03*
D46*
X63831Y428376D03*
D52*
X130282Y428376D03*
D46*
X63831Y428790D03*
X130489Y428790D03*
D11*
X63831Y429204D03*
X130489Y429204D03*
D62*
X64038Y429618D03*
D46*
X130489Y429618D03*
D61*
X64038Y430032D03*
D11*
X130489Y430032D03*
D46*
X64246Y430446D03*
X130489Y430446D03*
X64246Y430860D03*
X130489Y430860D03*
D115*
X64453Y431274D03*
D11*
X130489Y431274D03*
D53*
X64453Y431688D03*
D46*
X130489Y431688D03*
X64660Y432102D03*
X130489Y432102D03*
D11*
X64660Y432516D03*
X130489Y432516D03*
D46*
X64660Y432930D03*
X130489Y432930D03*
D62*
X64867Y433344D03*
D46*
X130489Y433344D03*
D67*
X65074Y433758D03*
D11*
X130489Y433758D03*
D107*
X65074Y434172D03*
D46*
X130489Y434172D03*
D11*
X65074Y434586D03*
X130489Y434586D03*
D46*
X65074Y435000D03*
X130489Y435000D03*
X65074Y435414D03*
X130489Y435414D03*
D11*
X65074Y435828D03*
D21*
X130696Y435828D03*
D52*
X65281Y436242D03*
X130696Y436242D03*
D51*
X65074Y436656D03*
D46*
X130903Y436656D03*
D50*
X65281Y437071D03*
D11*
X130903Y437071D03*
D113*
X65281Y437485D03*
D46*
X130903Y437485D03*
D48*
X64867Y437899D03*
D46*
X130903Y437899D03*
D11*
X130903Y438313D03*
D46*
X130903Y438727D03*
X130903Y439141D03*
D117*
X131110Y439555D03*
D68*
X131110Y439969D03*
D117*
X131110Y440383D03*
D68*
X131110Y440797D03*
X131110Y441211D03*
D11*
X131317Y441625D03*
D46*
X131317Y442039D03*
X131317Y442453D03*
D11*
X131317Y442867D03*
D46*
X131317Y443281D03*
X131317Y443695D03*
D11*
X131317Y444109D03*
D46*
X131317Y444523D03*
D11*
X131317Y444937D03*
D46*
X131317Y445351D03*
X131317Y445765D03*
D11*
X131317Y446179D03*
D62*
X131524Y446593D03*
X131524Y447007D03*
D11*
X131731Y447421D03*
D46*
X131731Y447835D03*
X131731Y448249D03*
D11*
X131731Y448663D03*
D46*
X131731Y449077D03*
X131731Y449491D03*
D11*
X131731Y449905D03*
D46*
X131731Y450319D03*
D61*
X131938Y450733D03*
D62*
X131938Y451147D03*
X131938Y451561D03*
D61*
X131938Y451975D03*
D46*
X132145Y452389D03*
X132145Y452803D03*
D11*
X132145Y453217D03*
D46*
X132145Y453631D03*
X132145Y454045D03*
D115*
X132352Y454459D03*
D53*
X132352Y454873D03*
D11*
X132559Y455287D03*
D46*
X132559Y455701D03*
X132559Y456115D03*
D11*
X132559Y456529D03*
D46*
X132559Y456943D03*
X132559Y457357D03*
D11*
X73768Y457772D03*
X132973Y457772D03*
D46*
X73768Y458186D03*
X132973Y458186D03*
D20*
X74596Y458600D03*
D46*
X132973Y458600D03*
D45*
X74596Y459014D03*
D11*
X132973Y459014D03*
D60*
X75217Y459428D03*
D46*
X132973Y459428D03*
D60*
X75217Y459842D03*
D52*
X133180Y459842D03*
D67*
X75424Y460256D03*
D116*
X133387Y460256D03*
D107*
X75424Y460670D03*
D71*
X133387Y460670D03*
D61*
X75631Y461084D03*
D116*
X133387Y461084D03*
D62*
X75631Y461498D03*
D71*
X133387Y461498D03*
D62*
X75631Y461912D03*
D52*
X133594Y461912D03*
D45*
X75838Y462326D03*
D11*
X133801Y462326D03*
D53*
X76045Y462740D03*
D46*
X133801Y462740D03*
D53*
X76045Y463154D03*
D46*
X133801Y463154D03*
D11*
X76252Y463568D03*
D61*
X134008Y463568D03*
D62*
X76459Y463982D03*
D46*
X134215Y463982D03*
D62*
X76459Y464396D03*
D46*
X134215Y464396D03*
D115*
X76873Y464810D03*
D11*
X134215Y464810D03*
D53*
X76873Y465224D03*
D46*
X134215Y465224D03*
D116*
X77080Y465638D03*
X134629Y465638D03*
D53*
X77287Y466052D03*
D71*
X134629Y466052D03*
D46*
X77494Y466466D03*
D71*
X134629Y466466D03*
D11*
X77494Y466880D03*
D116*
X134629Y466880D03*
D62*
X77701Y467294D03*
D71*
X134629Y467294D03*
D46*
X77908Y467708D03*
X135043Y467708D03*
D11*
X77908Y468122D03*
X135043Y468122D03*
D71*
X78322Y468536D03*
D46*
X135043Y468536D03*
D71*
X78322Y468950D03*
D46*
X135043Y468950D03*
D21*
X78529Y469364D03*
D11*
X135043Y469364D03*
D46*
X78736Y469778D03*
X135457Y469778D03*
X78736Y470192D03*
X135457Y470192D03*
D11*
X79150Y470606D03*
X135457Y470606D03*
D46*
X79564Y471020D03*
X135457Y471020D03*
D11*
X79564Y471434D03*
X135457Y471434D03*
D52*
X79771Y471848D03*
D46*
X135457Y471848D03*
X79978Y472262D03*
X135871Y472262D03*
D11*
X79978Y472676D03*
X135871Y472676D03*
D53*
X80599Y473090D03*
D46*
X135871Y473090D03*
D53*
X80599Y473504D03*
D46*
X135871Y473504D03*
D11*
X80392Y473918D03*
X135871Y473918D03*
D68*
X80599Y474332D03*
D62*
X136078Y474332D03*
D68*
X80599Y474746D03*
D62*
X136078Y474746D03*
D69*
X80806Y475160D03*
D61*
X136078Y475160D03*
D119*
X80806Y475574D03*
D62*
X136078Y475574D03*
D69*
X80806Y475988D03*
D61*
X136492Y475988D03*
D62*
X136492Y476402D03*
X136492Y476816D03*
D61*
X136492Y477230D03*
D20*
X136699Y477644D03*
X136699Y478058D03*
D45*
X136699Y478473D03*
D20*
X136699Y478887D03*
D53*
X136906Y479301D03*
D115*
X136906Y479715D03*
D20*
X137113Y480129D03*
X137113Y480543D03*
D61*
X137320Y480957D03*
D62*
X137320Y481371D03*
D61*
X137320Y481785D03*
D62*
X137320Y482199D03*
X137734Y482613D03*
D61*
X137734Y483027D03*
D62*
X137734Y483441D03*
X137734Y483855D03*
D61*
X137734Y484269D03*
D53*
X138148Y484683D03*
X138148Y485097D03*
D115*
X138148Y485511D03*
D53*
X138148Y485925D03*
D45*
X138355Y486339D03*
D62*
X138562Y486753D03*
X138562Y487167D03*
D61*
X138562Y487581D03*
D20*
X138769Y487995D03*
X138769Y488409D03*
D115*
X138976Y488823D03*
D53*
X138976Y489237D03*
D20*
X139183Y489651D03*
D45*
X139183Y490065D03*
D53*
X139390Y490479D03*
D20*
X139597Y490893D03*
D45*
X139597Y491307D03*
D62*
X139804Y491721D03*
D61*
X139804Y492135D03*
D62*
X139804Y492549D03*
D20*
X140011Y492963D03*
D45*
X140011Y493377D03*
D53*
X140218Y493791D03*
X140218Y494205D03*
D115*
X140218Y494619D03*
D53*
X140218Y495033D03*
D20*
X140425Y495447D03*
D45*
X140425Y495861D03*
D20*
X140425Y496275D03*
D115*
X140632Y496689D03*
D53*
X140632Y497103D03*
X140632Y497517D03*
D45*
X140839Y497931D03*
D20*
X140839Y498345D03*
D62*
X141046Y498759D03*
D61*
X141046Y499174D03*
D46*
X141253Y499588D03*
D43*
X94676Y500002D03*
D53*
X141460Y500002D03*
D73*
X94883Y500416D03*
D115*
X141460Y500416D03*
D60*
X95090Y500830D03*
D46*
X141667Y500830D03*
D63*
X95297Y501244D03*
D46*
X141667Y501244D03*
D72*
X95504Y501658D03*
D61*
X141874Y501658D03*
D60*
X95918Y502072D03*
D62*
X141874Y502072D03*
D72*
X95918Y502486D03*
D61*
X142288Y502486D03*
D60*
X96332Y502900D03*
D62*
X142288Y502900D03*
D20*
X96539Y503314D03*
D62*
X142288Y503314D03*
D72*
X96746Y503728D03*
D61*
X142288Y503728D03*
D20*
X96953Y504142D03*
D62*
X142288Y504142D03*
D20*
X96953Y504556D03*
D46*
X142495Y504556D03*
D45*
X97367Y504970D03*
D115*
X142702Y504970D03*
D20*
X97367Y505384D03*
D53*
X142702Y505384D03*
D20*
X97781Y505798D03*
D53*
X142702Y505798D03*
D45*
X97781Y506212D03*
D115*
X142702Y506212D03*
D20*
X98195Y506626D03*
D46*
X142909Y506626D03*
D45*
X98195Y507040D03*
D11*
X142909Y507040D03*
D20*
X98609Y507454D03*
D62*
X143116Y507454D03*
D20*
X98609Y507868D03*
D62*
X143116Y507868D03*
D45*
X99023Y508282D03*
D11*
X143323Y508282D03*
D20*
X99023Y508696D03*
D46*
X143323Y508696D03*
D53*
X99230Y509110D03*
D46*
X143323Y509110D03*
D45*
X99437Y509524D03*
D115*
X143530Y509524D03*
D20*
X99437Y509938D03*
D71*
X143737Y509938D03*
D20*
X99851Y510352D03*
D53*
X143944Y510352D03*
D45*
X99851Y510766D03*
D11*
X144151Y510766D03*
D20*
X100265Y511180D03*
D46*
X144151Y511180D03*
D20*
X100265Y511594D03*
D46*
X144151Y511594D03*
D67*
X100679Y512008D03*
D11*
X144565Y512008D03*
D60*
X100886Y512422D03*
D46*
X144565Y512422D03*
D45*
X101093Y512836D03*
D11*
X144565Y512836D03*
D60*
X101300Y513250D03*
D46*
X144565Y513250D03*
D12*
X101507Y513664D03*
D71*
X144979Y513664D03*
D73*
X101921Y514078D03*
D116*
X144979Y514078D03*
D43*
X102128Y514492D03*
D71*
X144979Y514492D03*
D43*
X102542Y514906D03*
D71*
X144979Y514906D03*
D55*
X102542Y515320D03*
D116*
X144979Y515320D03*
D12*
X102749Y515734D03*
D71*
X144979Y515734D03*
D12*
X103163Y516148D03*
D46*
X145393Y516148D03*
D73*
X103163Y516562D03*
D11*
X145393Y516562D03*
D43*
X103370Y516976D03*
D46*
X145393Y516976D03*
D118*
X101507Y517390D03*
D11*
X145393Y517390D03*
D46*
X145393Y517804D03*
D52*
X145600Y518218D03*
D21*
X145600Y518632D03*
D46*
X145807Y519046D03*
X145807Y519460D03*
D11*
X145807Y519875D03*
D46*
X145807Y520289D03*
D68*
X146014Y520703D03*
D117*
X146014Y521117D03*
D68*
X146014Y521531D03*
X146014Y521945D03*
D11*
X146221Y522359D03*
D52*
X146428Y522773D03*
D21*
X146428Y523187D03*
D52*
X146428Y523601D03*
X146428Y524015D03*
D47*
X146635Y524429D03*
D52*
X146842Y524843D03*
X146842Y525257D03*
D21*
X146842Y525671D03*
D46*
X147050Y526085D03*
D68*
X147257Y526499D03*
D117*
X147257Y526913D03*
D46*
X147464Y527327D03*
D11*
X147464Y527741D03*
D46*
X147464Y528155D03*
X147464Y528569D03*
D11*
X147464Y528983D03*
D46*
X147878Y529397D03*
X147878Y529811D03*
D11*
X147878Y530225D03*
D46*
X147878Y530639D03*
X147878Y531053D03*
D11*
X147878Y531467D03*
D53*
X56586Y531881D03*
D46*
X148292Y531881D03*
D106*
X57414Y532295D03*
D46*
X148292Y532295D03*
D83*
X57000Y532709D03*
D11*
X148292Y532709D03*
D120*
X57207Y533123D03*
D46*
X148292Y533123D03*
D121*
X57000Y533537D03*
D11*
X148292Y533537D03*
D122*
X57207Y533951D03*
D68*
X148499Y533951D03*
D123*
X57207Y534365D03*
D46*
X148706Y534365D03*
D124*
X57000Y534779D03*
D11*
X148706Y534779D03*
D16*
X46443Y535193D03*
D89*
X67144Y535193D03*
D46*
X148706Y535193D03*
D25*
X44994Y535607D03*
D31*
X68593Y535607D03*
D46*
X148706Y535607D03*
D97*
X43752Y536021D03*
D17*
X70042Y536021D03*
D21*
X148913Y536021D03*
D34*
X42923Y536435D03*
D27*
X70870Y536435D03*
D52*
X148913Y536435D03*
D22*
X41888Y536849D03*
D64*
X71905Y536849D03*
D46*
X149120Y536849D03*
D37*
X41060Y537263D03*
D36*
X73147Y537263D03*
D11*
X149120Y537263D03*
D39*
X40439Y537677D03*
D34*
X73975Y537677D03*
D46*
X149120Y537677D03*
D42*
X39404Y538091D03*
D37*
X75010Y538091D03*
D11*
X149120Y538091D03*
D43*
X38783Y538505D03*
D54*
X75838Y538505D03*
D52*
X149327Y538505D03*
D63*
X38162Y538919D03*
D38*
X76459Y538919D03*
D71*
X149534Y538919D03*
D73*
X37748Y539333D03*
D58*
X77080Y539333D03*
D116*
X149534Y539333D03*
D60*
X37127Y539747D03*
D43*
X77701Y539747D03*
D71*
X149534Y539747D03*
D60*
X36713Y540161D03*
D54*
X78322Y540161D03*
D10*
X108960Y540161D03*
D48*
X112479Y540161D03*
D71*
X149534Y540161D03*
D59*
X36299Y540576D03*
D55*
X78943Y540576D03*
D72*
X110823Y540576D03*
D115*
X149741Y540576D03*
D63*
X35678Y540990D03*
D43*
X79357Y540990D03*
D107*
X111030Y540990D03*
D46*
X149948Y540990D03*
D12*
X35264Y541404D03*
D43*
X79771Y541404D03*
D107*
X111030Y541404D03*
D46*
X149948Y541404D03*
D73*
X34850Y541818D03*
D74*
X80392Y541818D03*
D61*
X111237Y541818D03*
D11*
X149948Y541818D03*
D63*
X34436Y542232D03*
D12*
X80806Y542232D03*
D62*
X111237Y542232D03*
D46*
X149948Y542232D03*
D12*
X34022Y542646D03*
X81220Y542646D03*
D62*
X111237Y542646D03*
X150155Y542646D03*
D74*
X33608Y543060D03*
D72*
X81841Y543060D03*
D11*
X111444Y543060D03*
D61*
X150155Y543060D03*
D60*
X32987Y543474D03*
D44*
X82255Y543474D03*
D53*
X111651Y543474D03*
D46*
X150362Y543474D03*
D72*
X32573Y543888D03*
D95*
X62175Y543888D03*
D72*
X82669Y543888D03*
D115*
X111651Y543888D03*
D11*
X150362Y543888D03*
D60*
X32159Y544302D03*
D125*
X61554Y544302D03*
D60*
X83083Y544302D03*
D53*
X111651Y544302D03*
X150569Y544302D03*
D44*
X31745Y544716D03*
D126*
X61140Y544716D03*
D44*
X83497Y544716D03*
D46*
X111858Y544716D03*
D53*
X150569Y544716D03*
D45*
X31124Y545130D03*
D127*
X60933Y545130D03*
D72*
X83911Y545130D03*
D11*
X111858Y545130D03*
D115*
X150569Y545130D03*
D20*
X30710Y545544D03*
D81*
X60726Y545544D03*
D60*
X84325Y545544D03*
D46*
X111858Y545544D03*
D53*
X150569Y545544D03*
D20*
X30296Y545958D03*
D128*
X60519Y545958D03*
D60*
X84739Y545958D03*
D62*
X112065Y545958D03*
D20*
X150776Y545958D03*
D45*
X29882Y546372D03*
D99*
X53688Y546372D03*
D57*
X68593Y546372D03*
D72*
X85154Y546372D03*
D61*
X112065Y546372D03*
D45*
X150776Y546372D03*
D20*
X29468Y546786D03*
D16*
X52653Y546786D03*
D22*
X70042Y546786D03*
D20*
X85361Y546786D03*
D46*
X112272Y546786D03*
D20*
X150776Y546786D03*
X29054Y547200D03*
D31*
X51204Y547200D03*
D41*
X70870Y547200D03*
D62*
X85982Y547200D03*
D46*
X112272Y547200D03*
D53*
X150983Y547200D03*
D45*
X28640Y547614D03*
D95*
X49755Y547614D03*
D73*
X72112Y547614D03*
D115*
X86396Y547614D03*
D11*
X112272Y547614D03*
D115*
X150983Y547614D03*
D107*
X28226Y548028D03*
D93*
X48513Y548028D03*
D44*
X73147Y548028D03*
D62*
X86810Y548028D03*
D46*
X112272Y548028D03*
D20*
X151190Y548028D03*
D45*
X27812Y548442D03*
D35*
X47685Y548442D03*
D72*
X73561Y548442D03*
D115*
X87224Y548442D03*
D11*
X112272Y548442D03*
D45*
X151190Y548442D03*
D53*
X27605Y548856D03*
D34*
X47064Y548856D03*
D107*
X74182Y548856D03*
D20*
X87431Y548856D03*
D53*
X112479Y548856D03*
D20*
X151190Y548856D03*
X27398Y549270D03*
D22*
X46443Y549270D03*
D60*
X74803Y549270D03*
D53*
X87638Y549270D03*
D71*
X112686Y549270D03*
D20*
X151190Y549270D03*
D45*
X26984Y549684D03*
D37*
X46029Y549684D03*
D72*
X75217Y549684D03*
D61*
X88052Y549684D03*
D116*
X112686Y549684D03*
D45*
X151190Y549684D03*
D20*
X26570Y550098D03*
D38*
X45408Y550098D03*
D20*
X75838Y550098D03*
D53*
X88466Y550098D03*
D71*
X112686Y550098D03*
D20*
X151190Y550098D03*
X26570Y550512D03*
D54*
X44787Y550512D03*
D62*
X76459Y550512D03*
D53*
X88466Y550512D03*
D71*
X112686Y550512D03*
D20*
X151190Y550512D03*
D45*
X26156Y550926D03*
D42*
X44373Y550926D03*
D115*
X76873Y550926D03*
X88880Y550926D03*
X112893Y550926D03*
D45*
X151604Y550926D03*
D20*
X26156Y551340D03*
D66*
X43752Y551340D03*
D53*
X77287Y551340D03*
D46*
X89087Y551340D03*
X113100Y551340D03*
D20*
X151604Y551340D03*
X25742Y551754D03*
D12*
X43130Y551754D03*
D62*
X77701Y551754D03*
X89294Y551754D03*
D46*
X113100Y551754D03*
D20*
X151604Y551754D03*
D45*
X25328Y552168D03*
D74*
X42716Y552168D03*
D115*
X78115Y552168D03*
D11*
X89501Y552168D03*
X113100Y552168D03*
D45*
X151604Y552168D03*
D20*
X24914Y552582D03*
D12*
X42302Y552582D03*
D20*
X78322Y552582D03*
D53*
X89708Y552582D03*
D62*
X113307Y552582D03*
D20*
X151604Y552582D03*
X24914Y552996D03*
D60*
X41681Y552996D03*
D20*
X78736Y552996D03*
D46*
X89915Y552996D03*
D62*
X113307Y552996D03*
D20*
X151604Y552996D03*
D45*
X24500Y553410D03*
D72*
X41267Y553410D03*
D61*
X78943Y553410D03*
X90122Y553410D03*
D115*
X113721Y553410D03*
D45*
X151604Y553410D03*
D20*
X24086Y553824D03*
X41060Y553824D03*
X79150Y553824D03*
D62*
X90122Y553824D03*
D20*
X113514Y553824D03*
X151604Y553824D03*
D45*
X24086Y554238D03*
X40646Y554238D03*
D115*
X79357Y554238D03*
D11*
X90329Y554238D03*
D72*
X113721Y554238D03*
D45*
X151604Y554238D03*
D107*
X23672Y554652D03*
D20*
X40232Y554652D03*
D62*
X79771Y554652D03*
D46*
X90329Y554652D03*
D20*
X113514Y554652D03*
X151604Y554652D03*
D60*
X23465Y555066D03*
D20*
X39818Y555066D03*
D107*
X79978Y555066D03*
D62*
X90536Y555066D03*
D129*
X112272Y555066D03*
D20*
X151604Y555066D03*
D45*
X23258Y555480D03*
D61*
X39611Y555480D03*
X80185Y555480D03*
X90536Y555480D03*
D45*
X151604Y555480D03*
D60*
X23051Y555894D03*
D20*
X39404Y555894D03*
D53*
X80599Y555894D03*
X90950Y555894D03*
D20*
X151604Y555894D03*
X22843Y556308D03*
D53*
X39197Y556308D03*
D46*
X80806Y556308D03*
D53*
X90950Y556308D03*
D20*
X151604Y556308D03*
D67*
X22429Y556722D03*
D45*
X38990Y556722D03*
D11*
X80806Y556722D03*
D45*
X91157Y556722D03*
X151604Y556722D03*
D107*
X22429Y557136D03*
D62*
X38783Y557136D03*
D46*
X81220Y557136D03*
D20*
X91157Y557136D03*
X151604Y557136D03*
X22015Y557550D03*
D107*
X38576Y557550D03*
D52*
X81427Y557550D03*
D62*
X91364Y557550D03*
D53*
X151811Y557550D03*
D45*
X22015Y557964D03*
D61*
X38369Y557964D03*
D21*
X81841Y557964D03*
D45*
X91571Y557964D03*
D115*
X151811Y557964D03*
D20*
X21601Y558378D03*
D53*
X37955Y558378D03*
D51*
X82048Y558378D03*
D20*
X91571Y558378D03*
D53*
X151811Y558378D03*
D45*
X21601Y558792D03*
D115*
X37955Y558792D03*
D21*
X82255Y558792D03*
D45*
X91571Y558792D03*
D115*
X151811Y558792D03*
D20*
X21187Y559206D03*
D62*
X37541Y559206D03*
D52*
X82255Y559206D03*
D20*
X91985Y559206D03*
D53*
X151811Y559206D03*
X20980Y559620D03*
D62*
X37541Y559620D03*
D46*
X82462Y559620D03*
D20*
X91985Y559620D03*
D53*
X151811Y559620D03*
D45*
X20773Y560034D03*
D115*
X37127Y560034D03*
D21*
X82669Y560034D03*
D45*
X91985Y560034D03*
D115*
X151811Y560034D03*
D20*
X20773Y560448D03*
D53*
X37127Y560448D03*
D52*
X82669Y560448D03*
D20*
X91985Y560448D03*
D53*
X151811Y560448D03*
D20*
X20359Y560862D03*
D53*
X37127Y560862D03*
D71*
X82876Y560862D03*
D20*
X91985Y560862D03*
D53*
X151811Y560862D03*
D45*
X20359Y561277D03*
D115*
X36713Y561277D03*
D116*
X82876Y561277D03*
D45*
X92399Y561277D03*
D115*
X151811Y561277D03*
D20*
X19945Y561691D03*
D53*
X36713Y561691D03*
D71*
X82876Y561691D03*
D20*
X92399Y561691D03*
D53*
X151811Y561691D03*
D20*
X19945Y562105D03*
D46*
X36506Y562105D03*
D52*
X83083Y562105D03*
D20*
X92399Y562105D03*
D53*
X151811Y562105D03*
D45*
X19531Y562519D03*
D61*
X36299Y562519D03*
D21*
X83083Y562519D03*
D45*
X92399Y562519D03*
D115*
X151811Y562519D03*
D20*
X19531Y562933D03*
D62*
X36299Y562933D03*
D46*
X83290Y562933D03*
D20*
X92399Y562933D03*
D53*
X151811Y562933D03*
D60*
X19324Y563347D03*
D46*
X36092Y563347D03*
X83290Y563347D03*
D20*
X92399Y563347D03*
D53*
X151811Y563347D03*
D45*
X19117Y563761D03*
D115*
X35885Y563761D03*
D11*
X83290Y563761D03*
D45*
X92399Y563761D03*
D115*
X151811Y563761D03*
D44*
X18910Y564175D03*
D53*
X35885Y564175D03*
D46*
X83290Y564175D03*
D62*
X92606Y564175D03*
D53*
X151811Y564175D03*
D45*
X18703Y564589D03*
D116*
X35678Y564589D03*
D21*
X83497Y564589D03*
D45*
X92813Y564589D03*
D115*
X151811Y564589D03*
D20*
X18703Y565003D03*
D53*
X35471Y565003D03*
D52*
X83497Y565003D03*
D20*
X92813Y565003D03*
D53*
X151811Y565003D03*
D60*
X18496Y565417D03*
D53*
X35471Y565417D03*
D52*
X83497Y565417D03*
D20*
X92813Y565417D03*
D53*
X151811Y565417D03*
D45*
X18289Y565831D03*
D11*
X35264Y565831D03*
D21*
X83497Y565831D03*
D45*
X92813Y565831D03*
D115*
X151811Y565831D03*
D20*
X18289Y566245D03*
D62*
X35057Y566245D03*
D52*
X83497Y566245D03*
D20*
X92813Y566245D03*
D53*
X151811Y566245D03*
D62*
X18082Y566659D03*
X35057Y566659D03*
D52*
X83497Y566659D03*
D20*
X92813Y566659D03*
D53*
X151811Y566659D03*
D67*
X17875Y567073D03*
D11*
X34850Y567073D03*
D21*
X83497Y567073D03*
D45*
X92813Y567073D03*
D115*
X151811Y567073D03*
D107*
X17875Y567487D03*
D53*
X34643Y567487D03*
D46*
X83290Y567487D03*
D20*
X92813Y567487D03*
D53*
X151811Y567487D03*
D62*
X17668Y567901D03*
D53*
X34643Y567901D03*
D46*
X83290Y567901D03*
D20*
X92813Y567901D03*
D53*
X151811Y567901D03*
D45*
X17461Y568315D03*
D11*
X34436Y568315D03*
X83290Y568315D03*
D45*
X92813Y568315D03*
D115*
X151811Y568315D03*
D20*
X17047Y568729D03*
D62*
X34229Y568729D03*
D46*
X83290Y568729D03*
D53*
X93020Y568729D03*
X151811Y568729D03*
D45*
X17047Y569143D03*
D61*
X34229Y569143D03*
D21*
X83083Y569143D03*
D115*
X93020Y569143D03*
X151811Y569143D03*
D20*
X17047Y569557D03*
D46*
X34022Y569557D03*
D52*
X83083Y569557D03*
D53*
X93020Y569557D03*
X151811Y569557D03*
D62*
X16840Y569971D03*
D46*
X34022Y569971D03*
D52*
X83083Y569971D03*
D53*
X93020Y569971D03*
X151811Y569971D03*
D45*
X16633Y570385D03*
D61*
X33815Y570385D03*
D116*
X82876Y570385D03*
D115*
X93020Y570385D03*
X151811Y570385D03*
D20*
X16633Y570799D03*
D46*
X33608Y570799D03*
D71*
X82876Y570799D03*
D53*
X93020Y570799D03*
X151811Y570799D03*
X16426Y571213D03*
D46*
X33608Y571213D03*
D71*
X82876Y571213D03*
D53*
X93020Y571213D03*
X151811Y571213D03*
D115*
X16426Y571627D03*
D11*
X33608Y571627D03*
D116*
X82876Y571627D03*
D115*
X93020Y571627D03*
D11*
X151604Y571627D03*
D53*
X16426Y572041D03*
X33401Y572041D03*
D46*
X82462Y572041D03*
D20*
X92813Y572041D03*
D46*
X151604Y572041D03*
D20*
X16219Y572455D03*
D46*
X33194Y572455D03*
X82462Y572455D03*
D62*
X92606Y572455D03*
D46*
X151604Y572455D03*
D115*
X16012Y572869D03*
D11*
X33194Y572869D03*
X82462Y572869D03*
D61*
X92606Y572869D03*
D11*
X151604Y572869D03*
D53*
X16012Y573283D03*
D46*
X33194Y573283D03*
X82048Y573283D03*
D62*
X92606Y573283D03*
X151397Y573283D03*
D53*
X16012Y573697D03*
D46*
X33194Y573697D03*
X82048Y573697D03*
D62*
X92606Y573697D03*
X151397Y573697D03*
D45*
X15805Y574111D03*
D61*
X32987Y574111D03*
D11*
X82048Y574111D03*
D45*
X92399Y574111D03*
D61*
X151397Y574111D03*
D62*
X15598Y574525D03*
X32987Y574525D03*
D71*
X81634Y574525D03*
D53*
X92192Y574525D03*
D62*
X151397Y574525D03*
D61*
X15598Y574939D03*
D11*
X32780Y574939D03*
D116*
X81634Y574939D03*
D115*
X92192Y574939D03*
D45*
X113928Y574939D03*
D61*
X151397Y574939D03*
D62*
X15598Y575353D03*
D46*
X32780Y575353D03*
D71*
X81634Y575353D03*
D53*
X92192Y575353D03*
X114135Y575353D03*
D62*
X151397Y575353D03*
X15598Y575767D03*
D46*
X32780Y575767D03*
X81220Y575767D03*
D71*
X91985Y575767D03*
D53*
X114135Y575767D03*
D62*
X151397Y575767D03*
D11*
X15391Y576181D03*
X32780Y576181D03*
X81220Y576181D03*
D115*
X91778Y576181D03*
X114135Y576181D03*
D61*
X151397Y576181D03*
D46*
X15391Y576595D03*
X32780Y576595D03*
X80806Y576595D03*
D53*
X91778Y576595D03*
X114135Y576595D03*
X150983Y576595D03*
X15184Y577009D03*
D62*
X32573Y577009D03*
D46*
X80806Y577009D03*
X91571Y577009D03*
D71*
X113928Y577009D03*
D53*
X150983Y577009D03*
D115*
X15184Y577423D03*
D61*
X32573Y577423D03*
D11*
X80806Y577423D03*
X91571Y577423D03*
D116*
X113928Y577423D03*
D115*
X150983Y577423D03*
D53*
X15184Y577837D03*
D62*
X32573Y577837D03*
D46*
X80392Y577837D03*
D62*
X91364Y577837D03*
D71*
X113928Y577837D03*
D53*
X150983Y577837D03*
D71*
X14977Y578251D03*
D62*
X32573Y578251D03*
D46*
X80392Y578251D03*
X91157Y578251D03*
D71*
X113928Y578251D03*
D53*
X150983Y578251D03*
D116*
X14977Y578665D03*
D61*
X32573Y578665D03*
D11*
X79978Y578665D03*
X91157Y578665D03*
D115*
X113721Y578665D03*
X150983Y578665D03*
D71*
X14977Y579079D03*
D62*
X32573Y579079D03*
D46*
X79978Y579079D03*
D53*
X90950Y579079D03*
X113721Y579079D03*
X150983Y579079D03*
D116*
X14977Y579493D03*
D61*
X32573Y579493D03*
D11*
X79978Y579493D03*
D115*
X90950Y579493D03*
X113721Y579493D03*
X150983Y579493D03*
D71*
X14977Y579907D03*
D62*
X32573Y579907D03*
X79771Y579907D03*
D46*
X90743Y579907D03*
D53*
X113721Y579907D03*
D71*
X150776Y579907D03*
X14977Y580321D03*
D62*
X32573Y580321D03*
D46*
X79564Y580321D03*
D62*
X90536Y580321D03*
D53*
X113721Y580321D03*
X150569Y580321D03*
D21*
X14770Y580735D03*
D61*
X32573Y580735D03*
D115*
X79357Y580735D03*
D61*
X90536Y580735D03*
D45*
X113514Y580735D03*
D115*
X150569Y580735D03*
D52*
X14770Y581149D03*
D62*
X32573Y581149D03*
D46*
X79150Y581149D03*
D62*
X90122Y581149D03*
D20*
X113514Y581149D03*
D53*
X150569Y581149D03*
D46*
X14563Y581563D03*
D62*
X32573Y581563D03*
X78943Y581563D03*
X90122Y581563D03*
X113307Y581563D03*
D53*
X150569Y581563D03*
D11*
X14563Y581978D03*
D61*
X32573Y581978D03*
X78943Y581978D03*
D115*
X89708Y581978D03*
D45*
X113100Y581978D03*
D115*
X150569Y581978D03*
D46*
X14563Y582392D03*
D62*
X32573Y582392D03*
X78943Y582392D03*
D53*
X89708Y582392D03*
D20*
X113100Y582392D03*
D53*
X150569Y582392D03*
D46*
X14563Y582806D03*
D62*
X32573Y582806D03*
X78943Y582806D03*
X89294Y582806D03*
D60*
X112893Y582806D03*
D46*
X150362Y582806D03*
D11*
X14563Y583220D03*
D61*
X32573Y583220D03*
X78943Y583220D03*
X89294Y583220D03*
D11*
X150362Y583220D03*
D46*
X14563Y583634D03*
D62*
X32573Y583634D03*
X78943Y583634D03*
D20*
X89087Y583634D03*
D62*
X150155Y583634D03*
D46*
X14563Y584048D03*
D62*
X32573Y584048D03*
X78943Y584048D03*
D53*
X88880Y584048D03*
D62*
X150155Y584048D03*
D11*
X14563Y584462D03*
D61*
X32573Y584462D03*
D45*
X79150Y584462D03*
X88673Y584462D03*
D61*
X150155Y584462D03*
D46*
X14563Y584876D03*
D62*
X32573Y584876D03*
D20*
X79150Y584876D03*
X88259Y584876D03*
D62*
X150155Y584876D03*
D11*
X14563Y585290D03*
X32780Y585290D03*
D45*
X79564Y585290D03*
D59*
X88052Y585290D03*
D11*
X149948Y585290D03*
D62*
X14356Y585704D03*
D46*
X32780Y585704D03*
D107*
X79978Y585704D03*
D60*
X87638Y585704D03*
D46*
X149948Y585704D03*
D62*
X14356Y586118D03*
D46*
X32780Y586118D03*
D60*
X80185Y586118D03*
X87224Y586118D03*
D46*
X149948Y586118D03*
D61*
X14356Y586532D03*
D11*
X32780Y586532D03*
D55*
X80599Y586532D03*
D73*
X86603Y586532D03*
D115*
X149741Y586532D03*
D62*
X14356Y586946D03*
D46*
X32780Y586946D03*
D89*
X83290Y586946D03*
D53*
X149741Y586946D03*
D62*
X14356Y587360D03*
D46*
X32780Y587360D03*
D16*
X83290Y587360D03*
D71*
X149534Y587360D03*
D61*
X14356Y587774D03*
D11*
X32780Y587774D03*
D30*
X83497Y587774D03*
D116*
X149534Y587774D03*
D62*
X14356Y588188D03*
X32987Y588188D03*
D18*
X83290Y588188D03*
D71*
X149534Y588188D03*
D62*
X14356Y588602D03*
D46*
X33194Y588602D03*
D15*
X83290Y588602D03*
D53*
X149327Y588602D03*
D61*
X14356Y589016D03*
D11*
X33194Y589016D03*
D23*
X83083Y589016D03*
D115*
X149327Y589016D03*
D20*
X14149Y589430D03*
D46*
X33194Y589430D03*
D41*
X82462Y589430D03*
D53*
X149327Y589430D03*
D45*
X14149Y589844D03*
D11*
X33194Y589844D03*
D45*
X149120Y589844D03*
D20*
X14149Y590258D03*
D46*
X33194Y590258D03*
D20*
X149120Y590258D03*
X14149Y590672D03*
D46*
X33608Y590672D03*
D20*
X149120Y590672D03*
D45*
X14149Y591086D03*
D11*
X33608Y591086D03*
D61*
X148913Y591086D03*
D20*
X14149Y591500D03*
D46*
X33608Y591500D03*
D62*
X148913Y591500D03*
D20*
X14149Y591914D03*
D46*
X33608Y591914D03*
D62*
X148913Y591914D03*
D45*
X14149Y592328D03*
D11*
X33608Y592328D03*
D61*
X148913Y592328D03*
D20*
X14149Y592742D03*
D46*
X34022Y592742D03*
D20*
X148706Y592742D03*
X14149Y593156D03*
D46*
X34022Y593156D03*
D20*
X148706Y593156D03*
D45*
X14149Y593570D03*
D11*
X34022Y593570D03*
D115*
X148499Y593570D03*
D20*
X14149Y593984D03*
D52*
X34229Y593984D03*
D53*
X148499Y593984D03*
D20*
X14149Y594398D03*
D46*
X34436Y594398D03*
D53*
X148499Y594398D03*
D45*
X14149Y594812D03*
D11*
X34436Y594812D03*
D45*
X148292Y594812D03*
D20*
X14149Y595226D03*
D46*
X34436Y595226D03*
D20*
X148292Y595226D03*
D45*
X14149Y595640D03*
D11*
X34850Y595640D03*
D45*
X148292Y595640D03*
D20*
X14149Y596054D03*
D46*
X34850Y596054D03*
D20*
X148292Y596054D03*
X14149Y596468D03*
D46*
X34850Y596468D03*
D60*
X148085Y596468D03*
D61*
X14356Y596882D03*
X35057Y596882D03*
D72*
X148085Y596882D03*
D62*
X14356Y597296D03*
D46*
X35264Y597296D03*
D60*
X148085Y597296D03*
D62*
X14356Y597710D03*
D46*
X35264Y597710D03*
D12*
X108960Y597710D03*
D107*
X147878Y597710D03*
D61*
X14356Y598124D03*
D115*
X35471Y598124D03*
D59*
X108753Y598124D03*
D72*
X147671Y598124D03*
D62*
X14356Y598538D03*
D71*
X35678Y598538D03*
D44*
X108753Y598538D03*
D20*
X147464Y598538D03*
D46*
X14563Y598952D03*
D53*
X35885Y598952D03*
D20*
X108546Y598952D03*
X147464Y598952D03*
D11*
X14563Y599366D03*
D115*
X35885Y599366D03*
D45*
X108132Y599366D03*
D72*
X147257Y599366D03*
D46*
X14563Y599780D03*
X36092Y599780D03*
D53*
X107925Y599780D03*
D20*
X147049Y599780D03*
D115*
X14770Y600194D03*
D61*
X36299Y600194D03*
D45*
X107718Y600194D03*
X147049Y600194D03*
D53*
X14770Y600608D03*
D46*
X36506Y600608D03*
D62*
X107511Y600608D03*
D20*
X147049Y600608D03*
D71*
X14977Y601022D03*
D53*
X36713Y601022D03*
D60*
X107097Y601022D03*
X146842Y601022D03*
D116*
X14977Y601436D03*
D115*
X36713Y601436D03*
D72*
X107097Y601436D03*
D67*
X146635Y601436D03*
D53*
X15184Y601850D03*
X37127Y601850D03*
D113*
X107925Y601850D03*
D107*
X146635Y601850D03*
D53*
X15184Y602264D03*
X37127Y602264D03*
D113*
X107925Y602264D03*
D60*
X146428Y602264D03*
D115*
X15184Y602679D03*
D61*
X37541Y602679D03*
D45*
X146221Y602679D03*
D62*
X15598Y603093D03*
X37541Y603093D03*
D20*
X146221Y603093D03*
D62*
X15598Y603507D03*
D53*
X37955Y603507D03*
D60*
X146014Y603507D03*
D61*
X15598Y603921D03*
D11*
X38162Y603921D03*
D45*
X145807Y603921D03*
D20*
X15805Y604335D03*
D62*
X38369Y604335D03*
D20*
X145807Y604335D03*
X15805Y604749D03*
D46*
X38576Y604749D03*
D44*
X145600Y604749D03*
D115*
X16012Y605163D03*
D61*
X38783Y605163D03*
D45*
X145393Y605163D03*
D20*
X16219Y605577D03*
D53*
X39197Y605577D03*
D20*
X145393Y605577D03*
D45*
X16219Y605991D03*
D61*
X39611Y605991D03*
D72*
X145186Y605991D03*
D20*
X16633Y606405D03*
X39818Y606405D03*
X144979Y606405D03*
X16633Y606819D03*
D53*
X40025Y606819D03*
D20*
X144979Y606819D03*
D59*
X16840Y607233D03*
D115*
X40439Y607233D03*
D45*
X144565Y607233D03*
D20*
X17047Y607647D03*
X40646Y607647D03*
X144565Y607647D03*
D60*
X17254Y608061D03*
D20*
X41060Y608061D03*
X144151Y608061D03*
D45*
X17461Y608475D03*
X41474Y608475D03*
D72*
X143944Y608475D03*
D60*
X17668Y608889D03*
D20*
X41888Y608889D03*
D60*
X143944Y608889D03*
D107*
X17875Y609303D03*
D20*
X42302Y609303D03*
X143737Y609303D03*
D72*
X18082Y609717D03*
D45*
X42716Y609717D03*
D72*
X143530Y609717D03*
D20*
X18289Y610131D03*
D107*
X43130Y610131D03*
D20*
X143323Y610131D03*
D72*
X18496Y610545D03*
D74*
X43959Y610545D03*
D59*
X143116Y610545D03*
D44*
X18910Y610959D03*
D60*
X44166Y610959D03*
X142702Y610959D03*
D44*
X18910Y611373D03*
D60*
X44580Y611373D03*
D48*
X94676Y611373D03*
D20*
X142495Y611373D03*
D72*
X19324Y611787D03*
X44994Y611787D03*
D130*
X94883Y611787D03*
D72*
X142288Y611787D03*
D63*
X19531Y612201D03*
D20*
X45615Y612201D03*
D51*
X94883Y612201D03*
D12*
X142081Y612201D03*
D60*
X19738Y612615D03*
D41*
X46857Y612615D03*
D52*
X94676Y612615D03*
D60*
X141874Y612615D03*
D59*
X20152Y613029D03*
D55*
X47064Y613029D03*
D115*
X94262Y613029D03*
D74*
X141667Y613029D03*
D60*
X20566Y613443D03*
D43*
X47478Y613443D03*
X93434Y613443D03*
D60*
X141460Y613443D03*
X20566Y613857D03*
D43*
X48306Y613857D03*
D41*
X93641Y613857D03*
D44*
X141046Y613857D03*
D72*
X20980Y614271D03*
D42*
X48927Y614271D03*
D37*
X94055Y614271D03*
D45*
X140839Y614271D03*
D12*
X21187Y614685D03*
D41*
X49755Y614685D03*
D43*
X93434Y614685D03*
D60*
X140632Y614685D03*
D44*
X21394Y615099D03*
D39*
X50376Y615099D03*
D20*
X92813Y615099D03*
D60*
X140218Y615099D03*
D72*
X21808Y615513D03*
D40*
X51204Y615513D03*
D21*
X92192Y615513D03*
D72*
X140218Y615513D03*
D63*
X22015Y615927D03*
D39*
X52032Y615927D03*
D113*
X91778Y615927D03*
D44*
X139804Y615927D03*
D73*
X22429Y616341D03*
D55*
X52446Y616341D03*
D50*
X60312Y616341D03*
D118*
X76252Y616341D03*
D72*
X139390Y616341D03*
D12*
X22429Y616755D03*
D85*
X57207Y616755D03*
D62*
X75217Y616755D03*
D63*
X139183Y616755D03*
X22843Y617169D03*
D131*
X64246Y617169D03*
D12*
X138769Y617169D03*
D132*
X23051Y617583D03*
D133*
X64453Y617583D03*
D59*
X138562Y617583D03*
D43*
X23465Y617997D03*
D134*
X65074Y617997D03*
D60*
X138148Y617997D03*
X23879Y618411D03*
D135*
X66109Y618411D03*
D63*
X137941Y618411D03*
D74*
X24086Y618825D03*
D136*
X67144Y618825D03*
D73*
X137527Y618825D03*
D12*
X24500Y619239D03*
D137*
X67765Y619239D03*
D63*
X137113Y619239D03*
D43*
X24707Y619653D03*
D138*
X68800Y619653D03*
D63*
X136699Y619653D03*
D55*
X25121Y620067D03*
D32*
X67972Y620067D03*
D73*
X136285Y620067D03*
D43*
X25535Y620481D03*
D63*
X135871Y620481D03*
D55*
X25949Y620895D03*
X135664Y620895D03*
D41*
X26156Y621309D03*
D43*
X135250Y621309D03*
D54*
X26570Y621723D03*
D12*
X135043Y621723D03*
D42*
X26984Y622137D03*
D74*
X134629Y622137D03*
D41*
X27398Y622551D03*
D12*
X134215Y622551D03*
D54*
X27812Y622965D03*
D12*
X133801Y622965D03*
D42*
X28226Y623380D03*
D72*
X133594Y623380D03*
D54*
X28640Y623794D03*
D60*
X133180Y623794D03*
D41*
X29054Y624208D03*
D44*
X132766Y624208D03*
D42*
X29468Y624622D03*
D72*
X132352Y624622D03*
D41*
X29468Y625036D03*
D60*
X131938Y625036D03*
D54*
X29882Y625450D03*
D60*
X131524Y625450D03*
D42*
X30296Y625864D03*
D73*
X130903Y625864D03*
D41*
X30710Y626278D03*
D12*
X130489Y626278D03*
D58*
X31124Y626692D03*
D55*
X129868Y626692D03*
D43*
X31745Y627106D03*
X129454Y627106D03*
X32159Y627520D03*
X128626Y627520D03*
D55*
X32573Y627934D03*
D42*
X128005Y627934D03*
D43*
X32987Y628348D03*
D54*
X127591Y628348D03*
D41*
X33608Y628762D03*
X126763Y628762D03*
D42*
X34022Y629176D03*
D55*
X125727Y629176D03*
D54*
X34436Y629590D03*
D41*
X125106Y629590D03*
X34850Y630004D03*
X124692Y630004D03*
D55*
X35471Y630418D03*
D13*
X124071Y630418D03*
D41*
X36092Y630832D03*
X123450Y630832D03*
D42*
X36506Y631246D03*
D55*
X122829Y631246D03*
D39*
X37127Y631660D03*
D43*
X122001Y631660D03*
D39*
X37955Y632074D03*
D41*
X121380Y632074D03*
D13*
X38369Y632488D03*
D55*
X120345Y632488D03*
D22*
X38990Y632902D03*
D43*
X119517Y632902D03*
D34*
X40025Y633316D03*
D43*
X118689Y633316D03*
D35*
X40646Y633730D03*
D73*
X117654Y633730D03*
D34*
X41267Y634144D03*
D63*
X117240Y634144D03*
D93*
X41888Y634558D03*
D43*
X116619Y634558D03*
D57*
X42923Y634972D03*
D55*
X115791Y634972D03*
D25*
X43752Y635386D03*
D54*
X115170Y635386D03*
D18*
X44787Y635800D03*
D41*
X114342Y635800D03*
D17*
X45615Y636214D03*
D13*
X113721Y636214D03*
D16*
X46443Y636628D03*
D39*
X112893Y636628D03*
D17*
X46857Y637042D03*
D23*
X111651Y637042D03*
D16*
X47685Y637456D03*
D25*
X110409Y637456D03*
D90*
X48513Y637870D03*
D25*
X109581Y637870D03*
D105*
X49548Y638284D03*
D65*
X108753Y638284D03*
D109*
X50583Y638698D03*
D25*
X107925Y638698D03*
D139*
X51618Y639112D03*
D25*
X106683Y639112D03*
D140*
X52860Y639526D03*
D17*
X105233Y639526D03*
D141*
X54102Y639940D03*
D102*
X104198Y639940D03*
D142*
X55965Y640354D03*
D87*
X103163Y640354D03*
D143*
X57414Y640768D03*
D144*
X101921Y640768D03*
D145*
X59277Y641182D03*
D76*
X100472Y641182D03*
D146*
X63831Y641596D03*
D77*
X98195Y641596D03*
D147*
X78322Y642010D03*
D148*
X77908Y642424D03*
D149*
X78736Y642838D03*
D150*
X79564Y643252D03*
D151*
X80185Y643666D03*
D146*
X82048Y644081D03*
D152*
X86189Y644495D03*
M02*
