G04 EAGLE Gerber X2 export*
G75*
%MOMM*%
%FSLAX34Y34*%
%LPD*%
%AMOC8*
5,1,8,0,0,1.08239X$1,22.5*%
G01*
%ADD10C,0.076200*%
%ADD11C,2.082800*%
%ADD12R,1.159256X0.041400*%
%ADD13R,1.614678X0.041403*%
%ADD14R,1.821688X0.041403*%
%ADD15R,2.070100X0.041400*%
%ADD16R,2.318513X0.041403*%
%ADD17R,1.283459X0.041403*%
%ADD18R,0.993647X0.041403*%
%ADD19R,0.952244X0.041400*%
%ADD20R,0.703834X0.041400*%
%ADD21R,0.786637X0.041403*%
%ADD22R,0.538225X0.041403*%
%ADD23R,0.745237X0.041400*%
%ADD24R,0.455422X0.041400*%
%ADD25R,0.703834X0.041403*%
%ADD26R,0.414022X0.041403*%
%ADD27R,0.579628X0.041403*%
%ADD28R,0.331216X0.041403*%
%ADD29R,0.496825X0.041400*%
%ADD30R,0.331216X0.041400*%
%ADD31R,0.538228X0.041403*%
%ADD32R,0.538225X0.041400*%
%ADD33R,0.372619X0.041400*%
%ADD34R,0.414019X0.041403*%
%ADD35R,0.496825X0.041403*%
%ADD36R,0.372616X0.041403*%
%ADD37R,0.455422X0.041403*%
%ADD38R,0.372619X0.041403*%
%ADD39R,0.414019X0.041400*%
%ADD40R,0.331219X0.041403*%
%ADD41R,0.496822X0.041400*%
%ADD42R,0.289813X0.041403*%
%ADD43R,0.289813X0.041400*%
%ADD44R,0.579628X0.041400*%
%ADD45R,0.289816X0.041403*%
%ADD46R,0.662434X0.041403*%
%ADD47R,0.289816X0.041400*%
%ADD48R,0.703831X0.041400*%
%ADD49R,0.248413X0.041403*%
%ADD50R,0.745237X0.041403*%
%ADD51R,0.786641X0.041400*%
%ADD52R,0.828041X0.041403*%
%ADD53R,0.869441X0.041403*%
%ADD54R,0.910844X0.041400*%
%ADD55R,1.035050X0.041403*%
%ADD56R,1.117853X0.041403*%
%ADD57R,1.283462X0.041400*%
%ADD58R,2.484119X0.041403*%
%ADD59R,2.318513X0.041400*%
%ADD60R,2.152903X0.041403*%
%ADD61R,1.904491X0.041403*%
%ADD62R,1.614678X0.041400*%
%ADD63R,0.952244X0.041403*%
%ADD64R,0.786637X0.041400*%
%ADD65R,1.490472X0.041403*%
%ADD66R,1.863091X0.041400*%
%ADD67R,2.028697X0.041403*%
%ADD68R,1.656078X0.041400*%
%ADD69R,0.372616X0.041400*%
%ADD70R,2.359913X0.041403*%
%ADD71R,2.566925X0.041403*%
%ADD72R,1.035050X0.041400*%
%ADD73R,0.621028X0.041400*%
%ADD74R,0.662431X0.041400*%
%ADD75R,0.579625X0.041403*%
%ADD76R,0.538228X0.041400*%
%ADD77R,0.414022X0.041400*%
%ADD78R,0.496822X0.041403*%
%ADD79R,0.662431X0.041403*%
%ADD80R,0.869444X0.041403*%
%ADD81R,0.993647X0.041400*%
%ADD82R,1.159253X0.041403*%
%ADD83R,0.041403X0.041403*%
%ADD84R,1.324866X0.041403*%
%ADD85R,1.407669X0.041400*%
%ADD86R,0.621028X0.041403*%
%ADD87R,0.331219X0.041400*%
%ADD88R,0.952247X0.041400*%
%ADD89R,1.200659X0.041403*%
%ADD90R,1.407669X0.041403*%
%ADD91R,0.248413X0.041400*%
%ADD92R,1.573278X0.041400*%
%ADD93R,1.780288X0.041403*%
%ADD94R,2.028697X0.041400*%
%ADD95R,0.952247X0.041403*%
%ADD96R,0.745234X0.041403*%
%ADD97R,0.745234X0.041400*%
%ADD98R,0.662434X0.041400*%
%ADD99R,0.621031X0.041400*%
%ADD100R,0.621031X0.041403*%
%ADD101R,0.207009X0.041403*%
%ADD102R,0.207009X0.041400*%
%ADD103R,0.786641X0.041403*%
%ADD104R,1.117853X0.041400*%
%ADD105R,1.076453X0.041403*%
%ADD106R,2.277109X0.041403*%
%ADD107R,2.152906X0.041403*%
%ADD108R,0.869444X0.041400*%
%ADD109R,1.987297X0.041400*%
%ADD110R,1.697481X0.041403*%
%ADD111R,1.490472X0.041400*%
%ADD112R,1.242059X0.041403*%
%ADD113R,0.828041X0.041400*%
%ADD114R,1.200656X0.041403*%
%ADD115R,1.324863X0.041400*%
%ADD116R,1.449069X0.041403*%
%ADD117R,1.780288X0.041400*%
%ADD118R,0.165609X0.041400*%
%ADD119R,0.041400X0.041403*%
%ADD120R,0.248409X0.041403*%
%ADD121R,1.283462X0.041403*%
%ADD122R,1.242059X0.041400*%
%ADD123R,0.248409X0.041400*%
%ADD124R,1.449069X0.041400*%
%ADD125R,1.324863X0.041403*%
%ADD126R,1.573275X0.041403*%
%ADD127R,1.242063X0.041403*%
%ADD128R,1.407666X0.041400*%
%ADD129R,1.697481X0.041400*%
%ADD130R,1.821691X0.041403*%
%ADD131R,0.910847X0.041403*%
%ADD132R,0.579625X0.041400*%
%ADD133R,0.455425X0.041403*%
%ADD134R,1.531872X0.041400*%
%ADD135R,1.076453X0.041400*%
%ADD136R,1.738881X0.041403*%
%ADD137R,1.076450X0.041403*%
%ADD138R,0.869441X0.041400*%
%ADD139R,0.082803X0.041400*%
%ADD140R,1.366266X0.041400*%
%ADD141R,1.945894X0.041403*%
%ADD142R,1.945894X0.041400*%
%ADD143R,0.703831X0.041403*%
%ADD144R,2.028700X0.041403*%
%ADD145R,2.111500X0.041403*%
%ADD146R,0.910844X0.041403*%
%ADD147R,0.993650X0.041403*%
%ADD148R,0.124206X0.041403*%
%ADD149R,1.531875X0.041400*%
%ADD150R,0.165609X0.041403*%
%ADD151R,0.082806X0.041403*%
%ADD152R,1.656081X0.041403*%
%ADD153R,2.111503X0.041403*%
%ADD154R,2.194306X0.041400*%
%ADD155R,1.531875X0.041403*%
%ADD156R,1.656081X0.041400*%
%ADD157R,1.780284X0.041403*%
%ADD158R,1.987294X0.041403*%
%ADD159R,1.159256X0.041403*%
%ADD160R,0.041400X0.041400*%
%ADD161R,0.455425X0.041400*%
%ADD162R,1.200659X0.041400*%
%ADD163R,1.076450X0.041400*%
%ADD164R,1.366266X0.041403*%
%ADD165R,1.449072X0.041403*%
%ADD166R,1.324866X0.041400*%
%ADD167R,1.573278X0.041403*%
%ADD168R,1.697484X0.041403*%
%ADD169R,1.738884X0.041403*%
%ADD170R,1.987297X0.041403*%
%ADD171R,2.028700X0.041400*%
%ADD172R,0.828038X0.041400*%
%ADD173R,0.124206X0.041400*%
%ADD174R,0.828038X0.041403*%
%ADD175R,0.993650X0.041400*%
%ADD176R,0.207013X0.041403*%
%ADD177R,0.207013X0.041400*%
%ADD178R,0.082806X0.041400*%
%ADD179R,1.117856X0.041403*%
%ADD180R,1.200656X0.041400*%
%ADD181R,0.082803X0.041403*%
%ADD182R,0.124203X0.041403*%
%ADD183R,0.165606X0.041400*%
%ADD184R,0.165606X0.041403*%
%ADD185R,0.910847X0.041400*%
%ADD186R,0.041403X0.041400*%


D10*
X454025Y46136D02*
X461391Y46136D01*
X461391Y48182D01*
X461389Y48251D01*
X461383Y48319D01*
X461374Y48388D01*
X461360Y48455D01*
X461343Y48522D01*
X461322Y48588D01*
X461298Y48652D01*
X461269Y48715D01*
X461238Y48776D01*
X461203Y48835D01*
X461165Y48893D01*
X461123Y48948D01*
X461079Y49000D01*
X461031Y49050D01*
X460981Y49098D01*
X460929Y49142D01*
X460874Y49184D01*
X460816Y49222D01*
X460757Y49257D01*
X460696Y49288D01*
X460633Y49317D01*
X460569Y49341D01*
X460503Y49362D01*
X460436Y49379D01*
X460369Y49393D01*
X460300Y49402D01*
X460232Y49408D01*
X460163Y49410D01*
X460163Y49409D02*
X457708Y49409D01*
X457708Y49410D02*
X457639Y49408D01*
X457571Y49402D01*
X457502Y49393D01*
X457435Y49379D01*
X457368Y49362D01*
X457302Y49341D01*
X457238Y49317D01*
X457175Y49288D01*
X457114Y49257D01*
X457055Y49222D01*
X456997Y49184D01*
X456942Y49142D01*
X456890Y49098D01*
X456840Y49050D01*
X456792Y49000D01*
X456748Y48948D01*
X456707Y48893D01*
X456668Y48835D01*
X456633Y48776D01*
X456602Y48715D01*
X456573Y48652D01*
X456549Y48588D01*
X456528Y48522D01*
X456511Y48455D01*
X456497Y48388D01*
X456488Y48320D01*
X456482Y48251D01*
X456480Y48182D01*
X456480Y46136D01*
X463846Y52191D02*
X463846Y53009D01*
X456480Y55464D01*
X456480Y52191D02*
X461391Y53828D01*
X467445Y19684D02*
X467445Y18456D01*
X467444Y18456D02*
X467446Y18387D01*
X467452Y18319D01*
X467461Y18250D01*
X467475Y18183D01*
X467492Y18116D01*
X467513Y18050D01*
X467537Y17986D01*
X467566Y17923D01*
X467597Y17862D01*
X467632Y17803D01*
X467670Y17745D01*
X467712Y17690D01*
X467756Y17638D01*
X467804Y17588D01*
X467854Y17540D01*
X467906Y17496D01*
X467961Y17454D01*
X468019Y17416D01*
X468078Y17381D01*
X468139Y17350D01*
X468202Y17321D01*
X468266Y17297D01*
X468332Y17276D01*
X468399Y17259D01*
X468466Y17245D01*
X468535Y17236D01*
X468603Y17230D01*
X468672Y17228D01*
X468672Y17229D02*
X471128Y17229D01*
X471128Y17228D02*
X471197Y17230D01*
X471265Y17236D01*
X471334Y17245D01*
X471401Y17259D01*
X471468Y17276D01*
X471534Y17297D01*
X471598Y17321D01*
X471661Y17350D01*
X471722Y17381D01*
X471781Y17416D01*
X471839Y17454D01*
X471894Y17496D01*
X471946Y17540D01*
X471996Y17588D01*
X472044Y17638D01*
X472088Y17690D01*
X472130Y17745D01*
X472168Y17803D01*
X472203Y17862D01*
X472234Y17923D01*
X472263Y17986D01*
X472287Y18050D01*
X472308Y18116D01*
X472325Y18183D01*
X472339Y18250D01*
X472348Y18319D01*
X472354Y18387D01*
X472356Y18456D01*
X472354Y18525D01*
X472348Y18593D01*
X472339Y18662D01*
X472325Y18729D01*
X472308Y18796D01*
X472287Y18862D01*
X472263Y18926D01*
X472234Y18989D01*
X472203Y19050D01*
X472168Y19109D01*
X472130Y19167D01*
X472088Y19222D01*
X472044Y19274D01*
X471996Y19324D01*
X471946Y19372D01*
X471894Y19416D01*
X471839Y19458D01*
X471781Y19496D01*
X471722Y19531D01*
X471661Y19562D01*
X471598Y19591D01*
X471534Y19615D01*
X471468Y19636D01*
X471401Y19653D01*
X471334Y19667D01*
X471265Y19676D01*
X471197Y19682D01*
X471128Y19684D01*
X471332Y19684D02*
X467445Y19684D01*
X471332Y19684D02*
X471395Y19686D01*
X471458Y19692D01*
X471520Y19701D01*
X471582Y19715D01*
X471642Y19732D01*
X471702Y19753D01*
X471760Y19778D01*
X471816Y19806D01*
X471871Y19837D01*
X471923Y19872D01*
X471973Y19910D01*
X472021Y19951D01*
X472066Y19995D01*
X472109Y20041D01*
X472148Y20091D01*
X472185Y20142D01*
X472218Y20195D01*
X472248Y20251D01*
X472274Y20308D01*
X472297Y20367D01*
X472316Y20427D01*
X472331Y20488D01*
X472343Y20550D01*
X472351Y20613D01*
X472355Y20675D01*
X472355Y20739D01*
X472351Y20801D01*
X472343Y20864D01*
X472331Y20926D01*
X472316Y20987D01*
X472297Y21047D01*
X472274Y21106D01*
X472248Y21163D01*
X472218Y21218D01*
X472185Y21272D01*
X472148Y21323D01*
X472109Y21373D01*
X472066Y21419D01*
X472021Y21463D01*
X471973Y21504D01*
X471923Y21542D01*
X471871Y21577D01*
X471816Y21608D01*
X471760Y21636D01*
X471702Y21661D01*
X471642Y21682D01*
X471582Y21699D01*
X471520Y21713D01*
X471458Y21722D01*
X471395Y21728D01*
X471332Y21730D01*
X468263Y21730D01*
X468150Y21728D01*
X468037Y21722D01*
X467925Y21712D01*
X467812Y21699D01*
X467701Y21681D01*
X467590Y21660D01*
X467479Y21635D01*
X467370Y21606D01*
X467262Y21573D01*
X467155Y21537D01*
X467049Y21497D01*
X466945Y21453D01*
X466842Y21406D01*
X466741Y21355D01*
X466642Y21301D01*
X466545Y21243D01*
X466450Y21182D01*
X466357Y21118D01*
X466266Y21051D01*
X466178Y20980D01*
X466092Y20907D01*
X466009Y20830D01*
X465928Y20751D01*
X465850Y20669D01*
X465775Y20584D01*
X465703Y20497D01*
X465634Y20408D01*
X465569Y20316D01*
X465506Y20222D01*
X465447Y20126D01*
X465391Y20027D01*
X465338Y19927D01*
X465289Y19825D01*
X465244Y19722D01*
X465202Y19617D01*
X465164Y19511D01*
X465129Y19403D01*
X465098Y19294D01*
X465071Y19185D01*
X465048Y19074D01*
X465028Y18963D01*
X465013Y18851D01*
X465001Y18738D01*
X464993Y18625D01*
X464989Y18513D01*
X464989Y18399D01*
X464993Y18287D01*
X465001Y18174D01*
X465013Y18061D01*
X465028Y17949D01*
X465048Y17838D01*
X465071Y17727D01*
X465098Y17618D01*
X465129Y17509D01*
X465164Y17401D01*
X465202Y17295D01*
X465244Y17190D01*
X465289Y17087D01*
X465338Y16985D01*
X465391Y16885D01*
X465447Y16786D01*
X465506Y16690D01*
X465569Y16596D01*
X465634Y16504D01*
X465703Y16415D01*
X465775Y16328D01*
X465850Y16243D01*
X465928Y16161D01*
X466009Y16082D01*
X466092Y16005D01*
X466178Y15932D01*
X466266Y15861D01*
X466357Y15794D01*
X466450Y15730D01*
X466545Y15669D01*
X466642Y15611D01*
X466741Y15557D01*
X466842Y15506D01*
X466945Y15459D01*
X467049Y15415D01*
X467155Y15375D01*
X467262Y15339D01*
X467370Y15306D01*
X467479Y15277D01*
X467590Y15252D01*
X467701Y15231D01*
X467812Y15213D01*
X467925Y15200D01*
X468037Y15190D01*
X468150Y15184D01*
X468263Y15182D01*
X468263Y15183D02*
X471742Y15183D01*
X471852Y15185D01*
X471962Y15191D01*
X472071Y15201D01*
X472180Y15214D01*
X472289Y15232D01*
X472397Y15254D01*
X472504Y15279D01*
X472610Y15308D01*
X472715Y15341D01*
X472819Y15378D01*
X472921Y15418D01*
X473022Y15462D01*
X473121Y15509D01*
X473218Y15560D01*
X473314Y15615D01*
X473407Y15673D01*
X473499Y15734D01*
X473588Y15798D01*
X473675Y15866D01*
X473759Y15937D01*
X473841Y16010D01*
X473920Y16087D01*
X473996Y16166D01*
X474070Y16248D01*
X474140Y16332D01*
X474207Y16419D01*
X474271Y16509D01*
X474332Y16600D01*
X474390Y16694D01*
X474444Y16790D01*
X474495Y16887D01*
X474542Y16986D01*
X474586Y17087D01*
X474626Y17190D01*
X474663Y17294D01*
X474695Y17399D01*
X474724Y17505D01*
X474749Y17612D01*
X474770Y17720D01*
X474788Y17828D01*
X474801Y17938D01*
X474811Y18047D01*
X470718Y25968D02*
X471537Y28014D01*
X470718Y25968D02*
X470693Y25909D01*
X470664Y25852D01*
X470631Y25797D01*
X470595Y25744D01*
X470557Y25693D01*
X470515Y25645D01*
X470470Y25599D01*
X470423Y25556D01*
X470373Y25516D01*
X470321Y25479D01*
X470266Y25445D01*
X470210Y25414D01*
X470152Y25387D01*
X470092Y25364D01*
X470032Y25344D01*
X469970Y25328D01*
X469907Y25315D01*
X469843Y25307D01*
X469780Y25302D01*
X469716Y25301D01*
X469652Y25304D01*
X469588Y25311D01*
X469525Y25322D01*
X469463Y25336D01*
X469401Y25354D01*
X469341Y25376D01*
X469282Y25401D01*
X469225Y25430D01*
X469170Y25463D01*
X469117Y25498D01*
X469066Y25537D01*
X469017Y25579D01*
X468971Y25623D01*
X468928Y25671D01*
X468888Y25720D01*
X468851Y25773D01*
X468817Y25827D01*
X468786Y25883D01*
X468759Y25941D01*
X468735Y26000D01*
X468716Y26061D01*
X468699Y26123D01*
X468687Y26186D01*
X468678Y26249D01*
X468673Y26313D01*
X468672Y26377D01*
X468676Y26513D01*
X468684Y26648D01*
X468696Y26784D01*
X468712Y26918D01*
X468732Y27053D01*
X468755Y27186D01*
X468783Y27319D01*
X468814Y27451D01*
X468849Y27582D01*
X468888Y27712D01*
X468931Y27841D01*
X468978Y27968D01*
X469028Y28094D01*
X469082Y28219D01*
X471537Y28014D02*
X471562Y28073D01*
X471591Y28130D01*
X471624Y28185D01*
X471660Y28238D01*
X471698Y28289D01*
X471740Y28337D01*
X471785Y28383D01*
X471832Y28426D01*
X471882Y28466D01*
X471934Y28503D01*
X471989Y28537D01*
X472045Y28568D01*
X472103Y28595D01*
X472163Y28618D01*
X472223Y28638D01*
X472285Y28654D01*
X472348Y28667D01*
X472412Y28675D01*
X472475Y28680D01*
X472539Y28681D01*
X472603Y28678D01*
X472667Y28671D01*
X472730Y28660D01*
X472792Y28646D01*
X472854Y28628D01*
X472914Y28606D01*
X472973Y28581D01*
X473030Y28552D01*
X473085Y28519D01*
X473138Y28484D01*
X473189Y28445D01*
X473238Y28403D01*
X473284Y28359D01*
X473327Y28311D01*
X473367Y28262D01*
X473404Y28209D01*
X473438Y28155D01*
X473469Y28099D01*
X473496Y28041D01*
X473520Y27982D01*
X473539Y27921D01*
X473556Y27859D01*
X473568Y27796D01*
X473577Y27733D01*
X473582Y27669D01*
X473583Y27605D01*
X473579Y27441D01*
X473571Y27277D01*
X473559Y27113D01*
X473543Y26950D01*
X473523Y26787D01*
X473500Y26624D01*
X473472Y26463D01*
X473441Y26301D01*
X473406Y26141D01*
X473367Y25982D01*
X473324Y25823D01*
X473278Y25666D01*
X473228Y25509D01*
X473174Y25354D01*
X473583Y32921D02*
X473583Y34967D01*
X473583Y32921D02*
X473581Y32852D01*
X473575Y32784D01*
X473566Y32715D01*
X473552Y32648D01*
X473535Y32581D01*
X473514Y32515D01*
X473490Y32451D01*
X473461Y32388D01*
X473430Y32327D01*
X473395Y32268D01*
X473357Y32210D01*
X473315Y32155D01*
X473271Y32103D01*
X473223Y32053D01*
X473173Y32005D01*
X473121Y31961D01*
X473066Y31920D01*
X473008Y31881D01*
X472949Y31846D01*
X472888Y31815D01*
X472825Y31786D01*
X472761Y31762D01*
X472695Y31741D01*
X472628Y31724D01*
X472561Y31710D01*
X472493Y31701D01*
X472424Y31695D01*
X472355Y31693D01*
X472355Y31694D02*
X470309Y31694D01*
X470230Y31696D01*
X470151Y31702D01*
X470072Y31711D01*
X469994Y31724D01*
X469917Y31742D01*
X469841Y31762D01*
X469766Y31787D01*
X469692Y31815D01*
X469619Y31846D01*
X469548Y31882D01*
X469479Y31920D01*
X469412Y31962D01*
X469347Y32007D01*
X469284Y32055D01*
X469223Y32106D01*
X469166Y32160D01*
X469110Y32216D01*
X469058Y32275D01*
X469008Y32337D01*
X468962Y32401D01*
X468918Y32467D01*
X468878Y32535D01*
X468842Y32605D01*
X468808Y32677D01*
X468778Y32751D01*
X468752Y32825D01*
X468729Y32901D01*
X468711Y32978D01*
X468695Y33055D01*
X468684Y33134D01*
X468676Y33212D01*
X468672Y33291D01*
X468672Y33371D01*
X468676Y33450D01*
X468684Y33528D01*
X468695Y33607D01*
X468711Y33684D01*
X468729Y33761D01*
X468752Y33837D01*
X468778Y33911D01*
X468808Y33985D01*
X468842Y34057D01*
X468878Y34127D01*
X468918Y34195D01*
X468962Y34261D01*
X469008Y34325D01*
X469058Y34387D01*
X469110Y34446D01*
X469166Y34502D01*
X469223Y34556D01*
X469284Y34607D01*
X469347Y34655D01*
X469412Y34700D01*
X469479Y34742D01*
X469548Y34780D01*
X469619Y34816D01*
X469692Y34847D01*
X469766Y34875D01*
X469841Y34900D01*
X469917Y34920D01*
X469994Y34938D01*
X470072Y34951D01*
X470151Y34960D01*
X470230Y34966D01*
X470309Y34968D01*
X470309Y34967D02*
X471128Y34967D01*
X471128Y31694D01*
X473583Y39270D02*
X473583Y40907D01*
X473583Y39270D02*
X473581Y39201D01*
X473575Y39133D01*
X473566Y39064D01*
X473552Y38997D01*
X473535Y38930D01*
X473514Y38864D01*
X473490Y38800D01*
X473461Y38737D01*
X473430Y38676D01*
X473395Y38617D01*
X473357Y38559D01*
X473315Y38504D01*
X473271Y38452D01*
X473223Y38402D01*
X473173Y38354D01*
X473121Y38310D01*
X473066Y38269D01*
X473008Y38230D01*
X472949Y38195D01*
X472888Y38164D01*
X472825Y38135D01*
X472761Y38111D01*
X472695Y38090D01*
X472628Y38073D01*
X472561Y38059D01*
X472493Y38050D01*
X472424Y38044D01*
X472355Y38042D01*
X472355Y38043D02*
X469900Y38043D01*
X469900Y38042D02*
X469831Y38044D01*
X469763Y38050D01*
X469694Y38059D01*
X469627Y38073D01*
X469560Y38090D01*
X469494Y38111D01*
X469430Y38135D01*
X469367Y38164D01*
X469306Y38195D01*
X469247Y38230D01*
X469189Y38268D01*
X469134Y38310D01*
X469082Y38354D01*
X469032Y38402D01*
X468984Y38452D01*
X468940Y38504D01*
X468898Y38559D01*
X468860Y38617D01*
X468825Y38676D01*
X468794Y38737D01*
X468765Y38800D01*
X468741Y38864D01*
X468720Y38930D01*
X468703Y38997D01*
X468689Y39064D01*
X468680Y39133D01*
X468674Y39201D01*
X468672Y39270D01*
X468672Y40907D01*
X468672Y43886D02*
X472355Y43886D01*
X472355Y43885D02*
X472424Y43887D01*
X472492Y43893D01*
X472561Y43902D01*
X472628Y43916D01*
X472695Y43933D01*
X472761Y43954D01*
X472825Y43978D01*
X472888Y44007D01*
X472949Y44038D01*
X473008Y44073D01*
X473066Y44111D01*
X473121Y44153D01*
X473173Y44197D01*
X473223Y44245D01*
X473271Y44295D01*
X473315Y44347D01*
X473357Y44402D01*
X473395Y44460D01*
X473430Y44519D01*
X473461Y44580D01*
X473490Y44643D01*
X473514Y44707D01*
X473535Y44773D01*
X473552Y44840D01*
X473566Y44907D01*
X473575Y44976D01*
X473581Y45044D01*
X473583Y45113D01*
X473583Y47159D01*
X468672Y47159D01*
X468672Y50759D02*
X473583Y50759D01*
X468672Y50759D02*
X468672Y53215D01*
X469491Y53215D01*
X473583Y56818D02*
X473583Y58864D01*
X473583Y56818D02*
X473581Y56749D01*
X473575Y56681D01*
X473566Y56612D01*
X473552Y56545D01*
X473535Y56478D01*
X473514Y56412D01*
X473490Y56348D01*
X473461Y56285D01*
X473430Y56224D01*
X473395Y56165D01*
X473357Y56107D01*
X473315Y56052D01*
X473271Y56000D01*
X473223Y55950D01*
X473173Y55902D01*
X473121Y55858D01*
X473066Y55817D01*
X473008Y55778D01*
X472949Y55743D01*
X472888Y55712D01*
X472825Y55683D01*
X472761Y55659D01*
X472695Y55638D01*
X472628Y55621D01*
X472561Y55607D01*
X472493Y55598D01*
X472424Y55592D01*
X472355Y55590D01*
X470309Y55590D01*
X470230Y55592D01*
X470151Y55598D01*
X470072Y55607D01*
X469994Y55620D01*
X469917Y55638D01*
X469841Y55658D01*
X469766Y55683D01*
X469692Y55711D01*
X469619Y55742D01*
X469548Y55778D01*
X469479Y55816D01*
X469412Y55858D01*
X469347Y55903D01*
X469284Y55951D01*
X469223Y56002D01*
X469166Y56056D01*
X469110Y56112D01*
X469058Y56171D01*
X469008Y56233D01*
X468962Y56297D01*
X468918Y56363D01*
X468878Y56431D01*
X468842Y56501D01*
X468808Y56573D01*
X468778Y56647D01*
X468752Y56721D01*
X468729Y56797D01*
X468711Y56874D01*
X468695Y56951D01*
X468684Y57030D01*
X468676Y57108D01*
X468672Y57187D01*
X468672Y57267D01*
X468676Y57346D01*
X468684Y57424D01*
X468695Y57503D01*
X468711Y57580D01*
X468729Y57657D01*
X468752Y57733D01*
X468778Y57807D01*
X468808Y57881D01*
X468842Y57953D01*
X468878Y58023D01*
X468918Y58091D01*
X468962Y58157D01*
X469008Y58221D01*
X469058Y58283D01*
X469110Y58342D01*
X469166Y58398D01*
X469223Y58452D01*
X469284Y58503D01*
X469347Y58551D01*
X469412Y58596D01*
X469479Y58638D01*
X469548Y58676D01*
X469619Y58712D01*
X469692Y58743D01*
X469766Y58771D01*
X469841Y58796D01*
X469917Y58816D01*
X469994Y58834D01*
X470072Y58847D01*
X470151Y58856D01*
X470230Y58862D01*
X470309Y58864D01*
X471128Y58864D01*
X471128Y55590D01*
X472355Y62013D02*
X466217Y62013D01*
X472355Y62012D02*
X472424Y62014D01*
X472492Y62020D01*
X472561Y62029D01*
X472628Y62043D01*
X472695Y62060D01*
X472761Y62081D01*
X472825Y62105D01*
X472888Y62134D01*
X472949Y62165D01*
X473008Y62200D01*
X473066Y62238D01*
X473121Y62280D01*
X473173Y62324D01*
X473223Y62372D01*
X473271Y62422D01*
X473315Y62474D01*
X473357Y62529D01*
X473395Y62587D01*
X473430Y62646D01*
X473461Y62707D01*
X473490Y62770D01*
X473514Y62834D01*
X473535Y62900D01*
X473552Y62967D01*
X473566Y63034D01*
X473575Y63103D01*
X473581Y63171D01*
X473583Y63240D01*
X476038Y65587D02*
X476038Y66406D01*
X468672Y68861D01*
X468672Y65587D02*
X473583Y67224D01*
X473583Y72077D02*
X467445Y72077D01*
X467445Y72076D02*
X467376Y72078D01*
X467308Y72084D01*
X467239Y72093D01*
X467172Y72107D01*
X467105Y72124D01*
X467039Y72145D01*
X466975Y72169D01*
X466912Y72198D01*
X466851Y72229D01*
X466792Y72264D01*
X466734Y72302D01*
X466679Y72344D01*
X466627Y72388D01*
X466577Y72436D01*
X466529Y72486D01*
X466485Y72538D01*
X466444Y72593D01*
X466405Y72651D01*
X466370Y72710D01*
X466339Y72771D01*
X466310Y72834D01*
X466286Y72898D01*
X466265Y72964D01*
X466248Y73031D01*
X466234Y73098D01*
X466225Y73166D01*
X466219Y73235D01*
X466217Y73304D01*
X466217Y73714D01*
X468672Y73714D02*
X468672Y71258D01*
X468672Y75758D02*
X473583Y75758D01*
X466626Y75554D02*
X466217Y75554D01*
X466217Y75963D01*
X466626Y75963D01*
X466626Y75554D01*
X468672Y78124D02*
X468672Y80579D01*
X466217Y78943D02*
X472355Y78943D01*
X472355Y78942D02*
X472424Y78944D01*
X472492Y78950D01*
X472561Y78959D01*
X472628Y78973D01*
X472695Y78990D01*
X472761Y79011D01*
X472825Y79035D01*
X472888Y79064D01*
X472949Y79095D01*
X473008Y79130D01*
X473066Y79168D01*
X473121Y79210D01*
X473173Y79254D01*
X473223Y79302D01*
X473271Y79352D01*
X473315Y79404D01*
X473357Y79459D01*
X473395Y79517D01*
X473430Y79576D01*
X473461Y79637D01*
X473490Y79700D01*
X473514Y79764D01*
X473535Y79830D01*
X473552Y79897D01*
X473566Y79964D01*
X473575Y80033D01*
X473581Y80101D01*
X473583Y80170D01*
X473583Y80579D01*
X468672Y83144D02*
X468672Y86417D01*
X473583Y83144D01*
X473583Y86417D01*
X485775Y12203D02*
X485775Y10157D01*
X485773Y10088D01*
X485767Y10020D01*
X485758Y9951D01*
X485744Y9884D01*
X485727Y9817D01*
X485706Y9751D01*
X485682Y9687D01*
X485653Y9624D01*
X485622Y9563D01*
X485587Y9504D01*
X485549Y9446D01*
X485507Y9391D01*
X485463Y9339D01*
X485415Y9289D01*
X485365Y9241D01*
X485313Y9197D01*
X485258Y9156D01*
X485200Y9117D01*
X485141Y9082D01*
X485080Y9051D01*
X485017Y9022D01*
X484953Y8998D01*
X484887Y8977D01*
X484820Y8960D01*
X484753Y8946D01*
X484685Y8937D01*
X484616Y8931D01*
X484547Y8929D01*
X482092Y8929D01*
X482023Y8931D01*
X481955Y8937D01*
X481886Y8946D01*
X481819Y8960D01*
X481752Y8977D01*
X481686Y8998D01*
X481622Y9022D01*
X481559Y9051D01*
X481498Y9082D01*
X481439Y9117D01*
X481381Y9155D01*
X481326Y9197D01*
X481274Y9241D01*
X481224Y9289D01*
X481176Y9339D01*
X481132Y9391D01*
X481090Y9446D01*
X481052Y9504D01*
X481017Y9563D01*
X480986Y9624D01*
X480957Y9687D01*
X480933Y9751D01*
X480912Y9817D01*
X480895Y9884D01*
X480881Y9951D01*
X480872Y10020D01*
X480866Y10088D01*
X480864Y10157D01*
X480864Y12203D01*
X487003Y12203D01*
X487072Y12201D01*
X487140Y12195D01*
X487209Y12186D01*
X487276Y12172D01*
X487343Y12155D01*
X487409Y12134D01*
X487473Y12110D01*
X487536Y12081D01*
X487597Y12050D01*
X487656Y12015D01*
X487714Y11977D01*
X487769Y11935D01*
X487821Y11891D01*
X487871Y11843D01*
X487919Y11793D01*
X487963Y11741D01*
X488005Y11686D01*
X488043Y11628D01*
X488078Y11569D01*
X488109Y11508D01*
X488138Y11445D01*
X488162Y11381D01*
X488183Y11315D01*
X488200Y11248D01*
X488214Y11181D01*
X488223Y11112D01*
X488229Y11044D01*
X488231Y10975D01*
X488230Y10975D02*
X488230Y9338D01*
X485775Y15483D02*
X480864Y15483D01*
X478818Y15279D02*
X478409Y15279D01*
X478409Y15688D01*
X478818Y15688D01*
X478818Y15279D01*
X480864Y17849D02*
X480864Y20305D01*
X478409Y18668D02*
X484547Y18668D01*
X484547Y18667D02*
X484616Y18669D01*
X484684Y18675D01*
X484753Y18684D01*
X484820Y18698D01*
X484887Y18715D01*
X484953Y18736D01*
X485017Y18760D01*
X485080Y18789D01*
X485141Y18820D01*
X485200Y18855D01*
X485258Y18893D01*
X485313Y18935D01*
X485365Y18979D01*
X485415Y19027D01*
X485463Y19077D01*
X485507Y19129D01*
X485549Y19184D01*
X485587Y19242D01*
X485622Y19301D01*
X485653Y19362D01*
X485682Y19425D01*
X485706Y19489D01*
X485727Y19555D01*
X485744Y19622D01*
X485758Y19689D01*
X485767Y19758D01*
X485773Y19826D01*
X485775Y19895D01*
X485775Y20305D01*
X485775Y22838D02*
X485366Y22838D01*
X485366Y23247D01*
X485775Y23247D01*
X485775Y22838D01*
X485775Y25968D02*
X480864Y25968D01*
X478818Y25764D02*
X478409Y25764D01*
X478409Y26173D01*
X478818Y26173D01*
X478818Y25764D01*
X482501Y28965D02*
X484138Y28965D01*
X482501Y28964D02*
X482422Y28966D01*
X482343Y28972D01*
X482264Y28981D01*
X482186Y28994D01*
X482109Y29012D01*
X482033Y29032D01*
X481958Y29057D01*
X481884Y29085D01*
X481811Y29116D01*
X481740Y29152D01*
X481671Y29190D01*
X481604Y29232D01*
X481539Y29277D01*
X481476Y29325D01*
X481415Y29376D01*
X481358Y29430D01*
X481302Y29486D01*
X481250Y29545D01*
X481200Y29607D01*
X481154Y29671D01*
X481110Y29737D01*
X481070Y29805D01*
X481034Y29875D01*
X481000Y29947D01*
X480970Y30021D01*
X480944Y30095D01*
X480921Y30171D01*
X480903Y30248D01*
X480887Y30325D01*
X480876Y30404D01*
X480868Y30482D01*
X480864Y30561D01*
X480864Y30641D01*
X480868Y30720D01*
X480876Y30798D01*
X480887Y30877D01*
X480903Y30954D01*
X480921Y31031D01*
X480944Y31107D01*
X480970Y31181D01*
X481000Y31255D01*
X481034Y31327D01*
X481070Y31397D01*
X481110Y31465D01*
X481154Y31531D01*
X481200Y31595D01*
X481250Y31657D01*
X481302Y31716D01*
X481358Y31772D01*
X481415Y31826D01*
X481476Y31877D01*
X481539Y31925D01*
X481604Y31970D01*
X481671Y32012D01*
X481740Y32050D01*
X481811Y32086D01*
X481884Y32117D01*
X481958Y32145D01*
X482033Y32170D01*
X482109Y32190D01*
X482186Y32208D01*
X482264Y32221D01*
X482343Y32230D01*
X482422Y32236D01*
X482501Y32238D01*
X484138Y32238D01*
X484217Y32236D01*
X484296Y32230D01*
X484375Y32221D01*
X484453Y32208D01*
X484530Y32190D01*
X484606Y32170D01*
X484681Y32145D01*
X484755Y32117D01*
X484828Y32086D01*
X484899Y32050D01*
X484968Y32012D01*
X485035Y31970D01*
X485100Y31925D01*
X485163Y31877D01*
X485224Y31826D01*
X485281Y31772D01*
X485337Y31716D01*
X485389Y31657D01*
X485439Y31595D01*
X485485Y31531D01*
X485529Y31465D01*
X485569Y31397D01*
X485605Y31327D01*
X485639Y31255D01*
X485669Y31181D01*
X485695Y31107D01*
X485718Y31031D01*
X485736Y30954D01*
X485752Y30877D01*
X485763Y30798D01*
X485771Y30720D01*
X485775Y30641D01*
X485775Y30561D01*
X485771Y30482D01*
X485763Y30404D01*
X485752Y30325D01*
X485736Y30248D01*
X485718Y30171D01*
X485695Y30095D01*
X485669Y30021D01*
X485639Y29947D01*
X485605Y29875D01*
X485569Y29805D01*
X485529Y29737D01*
X485485Y29671D01*
X485439Y29607D01*
X485389Y29545D01*
X485337Y29486D01*
X485281Y29430D01*
X485224Y29376D01*
X485163Y29325D01*
X485100Y29277D01*
X485035Y29232D01*
X484968Y29190D01*
X484899Y29152D01*
X484828Y29116D01*
X484755Y29085D01*
X484681Y29057D01*
X484606Y29032D01*
X484530Y29012D01*
X484453Y28994D01*
X484375Y28981D01*
X484296Y28972D01*
X484217Y28966D01*
X484138Y28964D01*
X486593Y35060D02*
X477591Y38334D01*
X482910Y41770D02*
X483729Y43816D01*
X482910Y41770D02*
X482885Y41711D01*
X482856Y41654D01*
X482823Y41599D01*
X482787Y41546D01*
X482749Y41495D01*
X482707Y41447D01*
X482662Y41401D01*
X482615Y41358D01*
X482565Y41318D01*
X482513Y41281D01*
X482458Y41247D01*
X482402Y41216D01*
X482344Y41189D01*
X482284Y41166D01*
X482224Y41146D01*
X482162Y41130D01*
X482099Y41117D01*
X482035Y41109D01*
X481972Y41104D01*
X481908Y41103D01*
X481844Y41106D01*
X481780Y41113D01*
X481717Y41124D01*
X481655Y41138D01*
X481593Y41156D01*
X481533Y41178D01*
X481474Y41203D01*
X481417Y41232D01*
X481362Y41265D01*
X481309Y41300D01*
X481258Y41339D01*
X481209Y41381D01*
X481163Y41425D01*
X481120Y41473D01*
X481080Y41522D01*
X481043Y41575D01*
X481009Y41629D01*
X480978Y41685D01*
X480951Y41743D01*
X480927Y41802D01*
X480908Y41863D01*
X480891Y41925D01*
X480879Y41988D01*
X480870Y42051D01*
X480865Y42115D01*
X480864Y42179D01*
X480868Y42315D01*
X480876Y42450D01*
X480888Y42586D01*
X480904Y42720D01*
X480924Y42855D01*
X480947Y42988D01*
X480975Y43121D01*
X481006Y43253D01*
X481041Y43384D01*
X481080Y43514D01*
X481123Y43643D01*
X481170Y43770D01*
X481220Y43896D01*
X481274Y44021D01*
X483729Y43816D02*
X483754Y43875D01*
X483783Y43932D01*
X483816Y43987D01*
X483852Y44040D01*
X483890Y44091D01*
X483932Y44139D01*
X483977Y44185D01*
X484024Y44228D01*
X484074Y44268D01*
X484126Y44305D01*
X484181Y44339D01*
X484237Y44370D01*
X484295Y44397D01*
X484355Y44420D01*
X484415Y44440D01*
X484477Y44456D01*
X484540Y44469D01*
X484604Y44477D01*
X484667Y44482D01*
X484731Y44483D01*
X484795Y44480D01*
X484859Y44473D01*
X484922Y44462D01*
X484984Y44448D01*
X485046Y44430D01*
X485106Y44408D01*
X485165Y44383D01*
X485222Y44354D01*
X485277Y44321D01*
X485330Y44286D01*
X485381Y44247D01*
X485430Y44205D01*
X485476Y44161D01*
X485519Y44113D01*
X485559Y44064D01*
X485596Y44011D01*
X485630Y43957D01*
X485661Y43901D01*
X485688Y43843D01*
X485712Y43784D01*
X485731Y43723D01*
X485748Y43661D01*
X485760Y43598D01*
X485769Y43535D01*
X485774Y43471D01*
X485775Y43407D01*
X485771Y43243D01*
X485763Y43079D01*
X485751Y42915D01*
X485735Y42752D01*
X485715Y42589D01*
X485692Y42426D01*
X485664Y42265D01*
X485633Y42103D01*
X485598Y41943D01*
X485559Y41784D01*
X485516Y41625D01*
X485470Y41468D01*
X485420Y41311D01*
X485366Y41156D01*
X482910Y48888D02*
X482910Y50729D01*
X482911Y48888D02*
X482913Y48813D01*
X482919Y48738D01*
X482929Y48664D01*
X482942Y48590D01*
X482960Y48517D01*
X482981Y48445D01*
X483006Y48375D01*
X483035Y48306D01*
X483067Y48238D01*
X483103Y48172D01*
X483142Y48108D01*
X483184Y48046D01*
X483230Y47987D01*
X483279Y47930D01*
X483330Y47875D01*
X483385Y47824D01*
X483442Y47775D01*
X483501Y47729D01*
X483563Y47687D01*
X483627Y47648D01*
X483693Y47612D01*
X483761Y47580D01*
X483830Y47551D01*
X483900Y47526D01*
X483972Y47505D01*
X484045Y47487D01*
X484119Y47474D01*
X484193Y47464D01*
X484268Y47458D01*
X484343Y47456D01*
X484418Y47458D01*
X484493Y47464D01*
X484567Y47474D01*
X484641Y47487D01*
X484714Y47505D01*
X484786Y47526D01*
X484856Y47551D01*
X484925Y47580D01*
X484993Y47612D01*
X485059Y47648D01*
X485123Y47687D01*
X485185Y47729D01*
X485244Y47775D01*
X485301Y47824D01*
X485356Y47875D01*
X485407Y47930D01*
X485456Y47987D01*
X485502Y48046D01*
X485544Y48108D01*
X485583Y48172D01*
X485619Y48238D01*
X485651Y48306D01*
X485680Y48375D01*
X485705Y48445D01*
X485726Y48517D01*
X485744Y48590D01*
X485757Y48664D01*
X485767Y48738D01*
X485773Y48813D01*
X485775Y48888D01*
X485775Y50729D01*
X482092Y50729D01*
X482023Y50727D01*
X481955Y50721D01*
X481886Y50712D01*
X481819Y50698D01*
X481752Y50681D01*
X481686Y50660D01*
X481622Y50636D01*
X481559Y50607D01*
X481498Y50576D01*
X481439Y50541D01*
X481381Y50503D01*
X481326Y50461D01*
X481274Y50417D01*
X481224Y50369D01*
X481176Y50319D01*
X481132Y50267D01*
X481091Y50212D01*
X481052Y50154D01*
X481017Y50095D01*
X480986Y50034D01*
X480957Y49971D01*
X480933Y49907D01*
X480912Y49841D01*
X480895Y49774D01*
X480881Y49707D01*
X480872Y49639D01*
X480866Y49570D01*
X480864Y49501D01*
X480864Y47865D01*
X482501Y54080D02*
X484138Y54080D01*
X482501Y54080D02*
X482422Y54082D01*
X482343Y54088D01*
X482264Y54097D01*
X482186Y54110D01*
X482109Y54128D01*
X482033Y54148D01*
X481958Y54173D01*
X481884Y54201D01*
X481811Y54232D01*
X481740Y54268D01*
X481671Y54306D01*
X481604Y54348D01*
X481539Y54393D01*
X481476Y54441D01*
X481415Y54492D01*
X481358Y54546D01*
X481302Y54602D01*
X481250Y54661D01*
X481200Y54723D01*
X481154Y54787D01*
X481110Y54853D01*
X481070Y54921D01*
X481034Y54991D01*
X481000Y55063D01*
X480970Y55137D01*
X480944Y55211D01*
X480921Y55287D01*
X480903Y55364D01*
X480887Y55441D01*
X480876Y55520D01*
X480868Y55598D01*
X480864Y55677D01*
X480864Y55757D01*
X480868Y55836D01*
X480876Y55914D01*
X480887Y55993D01*
X480903Y56070D01*
X480921Y56147D01*
X480944Y56223D01*
X480970Y56297D01*
X481000Y56371D01*
X481034Y56443D01*
X481070Y56513D01*
X481110Y56581D01*
X481154Y56647D01*
X481200Y56711D01*
X481250Y56773D01*
X481302Y56832D01*
X481358Y56888D01*
X481415Y56942D01*
X481476Y56993D01*
X481539Y57041D01*
X481604Y57086D01*
X481671Y57128D01*
X481740Y57166D01*
X481811Y57202D01*
X481884Y57233D01*
X481958Y57261D01*
X482033Y57286D01*
X482109Y57306D01*
X482186Y57324D01*
X482264Y57337D01*
X482343Y57346D01*
X482422Y57352D01*
X482501Y57354D01*
X484138Y57354D01*
X484217Y57352D01*
X484296Y57346D01*
X484375Y57337D01*
X484453Y57324D01*
X484530Y57306D01*
X484606Y57286D01*
X484681Y57261D01*
X484755Y57233D01*
X484828Y57202D01*
X484899Y57166D01*
X484968Y57128D01*
X485035Y57086D01*
X485100Y57041D01*
X485163Y56993D01*
X485224Y56942D01*
X485281Y56888D01*
X485337Y56832D01*
X485389Y56773D01*
X485439Y56711D01*
X485485Y56647D01*
X485529Y56581D01*
X485569Y56513D01*
X485605Y56443D01*
X485639Y56371D01*
X485669Y56297D01*
X485695Y56223D01*
X485718Y56147D01*
X485736Y56070D01*
X485752Y55993D01*
X485763Y55914D01*
X485771Y55836D01*
X485775Y55757D01*
X485775Y55677D01*
X485771Y55598D01*
X485763Y55520D01*
X485752Y55441D01*
X485736Y55364D01*
X485718Y55287D01*
X485695Y55211D01*
X485669Y55137D01*
X485639Y55063D01*
X485605Y54991D01*
X485569Y54921D01*
X485529Y54853D01*
X485485Y54787D01*
X485439Y54723D01*
X485389Y54661D01*
X485337Y54602D01*
X485281Y54546D01*
X485224Y54492D01*
X485163Y54441D01*
X485100Y54393D01*
X485035Y54348D01*
X484968Y54306D01*
X484899Y54268D01*
X484828Y54232D01*
X484755Y54201D01*
X484681Y54173D01*
X484606Y54148D01*
X484530Y54128D01*
X484453Y54110D01*
X484375Y54097D01*
X484296Y54088D01*
X484217Y54082D01*
X484138Y54080D01*
X482910Y60577D02*
X482910Y65487D01*
X482910Y70102D02*
X482910Y71943D01*
X482911Y70102D02*
X482913Y70027D01*
X482919Y69952D01*
X482929Y69878D01*
X482942Y69804D01*
X482960Y69731D01*
X482981Y69659D01*
X483006Y69589D01*
X483035Y69520D01*
X483067Y69452D01*
X483103Y69386D01*
X483142Y69322D01*
X483184Y69260D01*
X483230Y69201D01*
X483279Y69144D01*
X483330Y69089D01*
X483385Y69038D01*
X483442Y68989D01*
X483501Y68943D01*
X483563Y68901D01*
X483627Y68862D01*
X483693Y68826D01*
X483761Y68794D01*
X483830Y68765D01*
X483900Y68740D01*
X483972Y68719D01*
X484045Y68701D01*
X484119Y68688D01*
X484193Y68678D01*
X484268Y68672D01*
X484343Y68670D01*
X484418Y68672D01*
X484493Y68678D01*
X484567Y68688D01*
X484641Y68701D01*
X484714Y68719D01*
X484786Y68740D01*
X484856Y68765D01*
X484925Y68794D01*
X484993Y68826D01*
X485059Y68862D01*
X485123Y68901D01*
X485185Y68943D01*
X485244Y68989D01*
X485301Y69038D01*
X485356Y69089D01*
X485407Y69144D01*
X485456Y69201D01*
X485502Y69260D01*
X485544Y69322D01*
X485583Y69386D01*
X485619Y69452D01*
X485651Y69520D01*
X485680Y69589D01*
X485705Y69659D01*
X485726Y69731D01*
X485744Y69804D01*
X485757Y69878D01*
X485767Y69952D01*
X485773Y70027D01*
X485775Y70102D01*
X485775Y71943D01*
X482092Y71943D01*
X482023Y71941D01*
X481955Y71935D01*
X481886Y71926D01*
X481819Y71912D01*
X481752Y71895D01*
X481686Y71874D01*
X481622Y71850D01*
X481559Y71821D01*
X481498Y71790D01*
X481439Y71755D01*
X481381Y71717D01*
X481326Y71675D01*
X481274Y71631D01*
X481224Y71583D01*
X481176Y71533D01*
X481132Y71481D01*
X481091Y71426D01*
X481052Y71368D01*
X481017Y71309D01*
X480986Y71248D01*
X480957Y71185D01*
X480933Y71121D01*
X480912Y71055D01*
X480895Y70988D01*
X480881Y70921D01*
X480872Y70853D01*
X480866Y70784D01*
X480864Y70715D01*
X480864Y69079D01*
X480864Y75584D02*
X485775Y75584D01*
X480864Y75584D02*
X480864Y78039D01*
X481683Y78039D01*
X480864Y80815D02*
X485775Y80815D01*
X480864Y80815D02*
X480864Y84498D01*
X480866Y84567D01*
X480872Y84635D01*
X480881Y84704D01*
X480895Y84771D01*
X480912Y84838D01*
X480933Y84904D01*
X480957Y84968D01*
X480986Y85031D01*
X481017Y85092D01*
X481052Y85151D01*
X481090Y85209D01*
X481132Y85264D01*
X481176Y85316D01*
X481224Y85366D01*
X481274Y85414D01*
X481326Y85458D01*
X481381Y85500D01*
X481439Y85538D01*
X481498Y85573D01*
X481559Y85604D01*
X481622Y85633D01*
X481686Y85657D01*
X481752Y85678D01*
X481819Y85695D01*
X481886Y85709D01*
X481955Y85718D01*
X482023Y85724D01*
X482092Y85726D01*
X485775Y85726D01*
X485775Y83271D02*
X480864Y83271D01*
X482910Y89807D02*
X483729Y91853D01*
X482910Y89807D02*
X482885Y89748D01*
X482856Y89691D01*
X482823Y89636D01*
X482787Y89583D01*
X482749Y89532D01*
X482707Y89484D01*
X482662Y89438D01*
X482615Y89395D01*
X482565Y89355D01*
X482513Y89318D01*
X482458Y89284D01*
X482402Y89253D01*
X482344Y89226D01*
X482284Y89203D01*
X482224Y89183D01*
X482162Y89167D01*
X482099Y89154D01*
X482035Y89146D01*
X481972Y89141D01*
X481908Y89140D01*
X481844Y89143D01*
X481780Y89150D01*
X481717Y89161D01*
X481655Y89175D01*
X481593Y89193D01*
X481533Y89215D01*
X481474Y89240D01*
X481417Y89269D01*
X481362Y89302D01*
X481309Y89337D01*
X481258Y89376D01*
X481209Y89418D01*
X481163Y89462D01*
X481120Y89510D01*
X481080Y89559D01*
X481043Y89612D01*
X481009Y89666D01*
X480978Y89722D01*
X480951Y89780D01*
X480927Y89839D01*
X480908Y89900D01*
X480891Y89962D01*
X480879Y90025D01*
X480870Y90088D01*
X480865Y90152D01*
X480864Y90216D01*
X480864Y90215D02*
X480868Y90351D01*
X480876Y90486D01*
X480888Y90622D01*
X480904Y90756D01*
X480924Y90891D01*
X480947Y91024D01*
X480975Y91157D01*
X481006Y91289D01*
X481041Y91420D01*
X481080Y91550D01*
X481123Y91679D01*
X481170Y91806D01*
X481220Y91932D01*
X481274Y92057D01*
X483729Y91853D02*
X483754Y91912D01*
X483783Y91969D01*
X483816Y92024D01*
X483852Y92077D01*
X483890Y92128D01*
X483932Y92176D01*
X483977Y92222D01*
X484024Y92265D01*
X484074Y92305D01*
X484126Y92342D01*
X484181Y92376D01*
X484237Y92407D01*
X484295Y92434D01*
X484355Y92457D01*
X484415Y92477D01*
X484477Y92493D01*
X484540Y92506D01*
X484604Y92514D01*
X484667Y92519D01*
X484731Y92520D01*
X484795Y92517D01*
X484859Y92510D01*
X484922Y92499D01*
X484984Y92485D01*
X485046Y92467D01*
X485106Y92445D01*
X485165Y92420D01*
X485222Y92391D01*
X485277Y92358D01*
X485330Y92323D01*
X485381Y92284D01*
X485430Y92242D01*
X485476Y92198D01*
X485519Y92150D01*
X485559Y92101D01*
X485596Y92048D01*
X485630Y91994D01*
X485661Y91938D01*
X485688Y91880D01*
X485712Y91821D01*
X485731Y91760D01*
X485748Y91698D01*
X485760Y91635D01*
X485769Y91572D01*
X485774Y91508D01*
X485775Y91444D01*
X485771Y91280D01*
X485763Y91116D01*
X485751Y90952D01*
X485735Y90789D01*
X485715Y90626D01*
X485692Y90463D01*
X485664Y90302D01*
X485633Y90140D01*
X485598Y89980D01*
X485559Y89821D01*
X485516Y89662D01*
X485470Y89505D01*
X485420Y89348D01*
X485366Y89193D01*
D11*
X49022Y596900D03*
X77978Y596900D03*
X49022Y571500D03*
X77978Y571500D03*
X506222Y50800D03*
X535178Y50800D03*
X506222Y25400D03*
X535178Y25400D03*
D12*
X412850Y12700D03*
D13*
X412229Y13114D03*
D14*
X412436Y13528D03*
D15*
X412022Y13942D03*
D16*
X411194Y14356D03*
D17*
X404363Y14770D03*
D18*
X418647Y14770D03*
D19*
X401465Y15184D03*
D20*
X420510Y15184D03*
D21*
X399809Y15598D03*
D22*
X421338Y15598D03*
D23*
X398774Y16012D03*
D24*
X421752Y16012D03*
D25*
X397739Y16426D03*
D26*
X421959Y16426D03*
D27*
X396290Y16840D03*
D28*
X422373Y16840D03*
D29*
X395047Y17254D03*
D30*
X422373Y17254D03*
D31*
X394012Y17668D03*
D28*
X422373Y17668D03*
D22*
X393184Y18082D03*
D28*
X422373Y18082D03*
D32*
X392356Y18496D03*
D33*
X422166Y18496D03*
D31*
X391528Y18910D03*
D26*
X421959Y18910D03*
D22*
X390700Y19324D03*
D34*
X421545Y19324D03*
D32*
X389872Y19738D03*
D33*
X420924Y19738D03*
D35*
X389251Y20152D03*
D36*
X420510Y20152D03*
D29*
X388423Y20566D03*
D33*
X420096Y20566D03*
D37*
X387802Y20980D03*
D38*
X419682Y20980D03*
D34*
X387181Y21394D03*
X419475Y21394D03*
D33*
X386560Y21808D03*
D39*
X419061Y21808D03*
D40*
X385939Y22222D03*
D26*
X418647Y22222D03*
D28*
X385525Y22636D03*
D37*
X418026Y22636D03*
D30*
X385111Y23051D03*
D41*
X417405Y23051D03*
D40*
X384697Y23465D03*
D37*
X417198Y23465D03*
D28*
X384283Y23879D03*
D22*
X416370Y23879D03*
D30*
X383869Y24293D03*
D29*
X415748Y24293D03*
D28*
X383455Y24707D03*
D22*
X415127Y24707D03*
D42*
X383248Y25121D03*
D27*
X414506Y25121D03*
D43*
X382834Y25535D03*
D44*
X413678Y25535D03*
D45*
X382420Y25949D03*
D46*
X412850Y25949D03*
D47*
X382420Y26363D03*
D48*
X411815Y26363D03*
D49*
X382213Y26777D03*
D25*
X410987Y26777D03*
D42*
X382006Y27191D03*
D50*
X409952Y27191D03*
D43*
X382006Y27605D03*
D51*
X408917Y27605D03*
D28*
X381799Y28019D03*
D52*
X407882Y28019D03*
D28*
X381799Y28433D03*
D53*
X406847Y28433D03*
D30*
X382213Y28847D03*
D54*
X405398Y28847D03*
D36*
X382420Y29261D03*
D55*
X403535Y29261D03*
D37*
X383248Y29675D03*
D56*
X402293Y29675D03*
D20*
X384076Y30089D03*
D57*
X400637Y30089D03*
D58*
X393805Y30503D03*
D59*
X392977Y30917D03*
D60*
X392149Y31331D03*
D61*
X391321Y31745D03*
D62*
X389872Y32159D03*
D63*
X386560Y32573D03*
D64*
X375382Y39197D03*
D55*
X375796Y39611D03*
D65*
X375175Y40025D03*
D66*
X374139Y40439D03*
D67*
X374139Y40853D03*
D68*
X370206Y41267D03*
D69*
X382420Y41267D03*
D70*
X372897Y41681D03*
D71*
X372276Y42095D03*
D72*
X364617Y42509D03*
D19*
X380764Y42509D03*
D52*
X362754Y42923D03*
D21*
X381592Y42923D03*
D25*
X361719Y43337D03*
D50*
X382213Y43337D03*
D73*
X360477Y43752D03*
D74*
X382627Y43752D03*
D75*
X359442Y44166D03*
D27*
X383041Y44166D03*
X358614Y44580D03*
X383455Y44580D03*
D44*
X357786Y44994D03*
D76*
X383662Y44994D03*
D31*
X357165Y45408D03*
D35*
X383869Y45408D03*
D37*
X355923Y45822D03*
D22*
X384076Y45822D03*
D77*
X355302Y46236D03*
D41*
X384283Y46236D03*
D37*
X354681Y46650D03*
D78*
X384283Y46650D03*
D77*
X354059Y47064D03*
D24*
X384490Y47064D03*
D38*
X353438Y47478D03*
D35*
X384697Y47478D03*
D36*
X352610Y47892D03*
D35*
X384697Y47892D03*
D69*
X331909Y48306D03*
D33*
X352196Y48306D03*
D29*
X384697Y48306D03*
D79*
X331702Y48720D03*
D28*
X351575Y48720D03*
D34*
X384697Y48720D03*
D80*
X331495Y49134D03*
D28*
X351161Y49134D03*
D34*
X384697Y49134D03*
D81*
X331288Y49548D03*
D30*
X350747Y49548D03*
D33*
X384490Y49548D03*
D82*
X331288Y49962D03*
D83*
X337706Y49962D03*
D38*
X350540Y49962D03*
X384490Y49962D03*
D84*
X331288Y50376D03*
D36*
X350126Y50376D03*
D38*
X384490Y50376D03*
D85*
X330874Y50790D03*
D33*
X349712Y50790D03*
D30*
X384283Y50790D03*
D53*
X327355Y51204D03*
D26*
X335843Y51204D03*
D38*
X349298Y51204D03*
X384076Y51204D03*
D23*
X326320Y51618D03*
D30*
X336257Y51618D03*
D39*
X349091Y51618D03*
D30*
X383869Y51618D03*
D25*
X325285Y52032D03*
D45*
X336464Y52032D03*
D26*
X348677Y52032D03*
D28*
X383869Y52032D03*
D25*
X324457Y52446D03*
D49*
X336671Y52446D03*
D38*
X348470Y52446D03*
D28*
X383455Y52446D03*
D73*
X323629Y52860D03*
D47*
X336464Y52860D03*
D69*
X348056Y52860D03*
D30*
X383455Y52860D03*
D86*
X322801Y53274D03*
D42*
X336050Y53274D03*
D38*
X347642Y53274D03*
D28*
X383041Y53274D03*
D22*
X321973Y53688D03*
D28*
X335843Y53688D03*
D38*
X347228Y53688D03*
D42*
X382834Y53688D03*
D44*
X321352Y54102D03*
D30*
X335843Y54102D03*
X346607Y54102D03*
X382627Y54102D03*
D27*
X320938Y54516D03*
D42*
X335636Y54516D03*
D28*
X346607Y54516D03*
X382213Y54516D03*
D35*
X320524Y54930D03*
D42*
X335636Y54930D03*
D28*
X346193Y54930D03*
X381799Y54930D03*
D29*
X320110Y55344D03*
D47*
X335222Y55344D03*
D30*
X345779Y55344D03*
X381799Y55344D03*
D37*
X319489Y55758D03*
D45*
X335222Y55758D03*
D28*
X345365Y55758D03*
X381385Y55758D03*
D37*
X318661Y56172D03*
D42*
X334808Y56172D03*
D28*
X344951Y56172D03*
X380971Y56172D03*
D39*
X318040Y56586D03*
D87*
X334187Y56586D03*
D47*
X344744Y56586D03*
D30*
X380557Y56586D03*
D29*
X416991Y56586D03*
D26*
X317626Y57000D03*
D38*
X333980Y57000D03*
D45*
X344330Y57000D03*
D38*
X380350Y57000D03*
D21*
X415955Y57000D03*
D39*
X317212Y57414D03*
D33*
X333566Y57414D03*
D47*
X344330Y57414D03*
D33*
X379936Y57414D03*
D88*
X415541Y57414D03*
D38*
X316591Y57828D03*
X333151Y57828D03*
D42*
X343916Y57828D03*
D38*
X379522Y57828D03*
D89*
X415955Y57828D03*
D38*
X316177Y58242D03*
X332737Y58242D03*
D45*
X343502Y58242D03*
D36*
X379108Y58242D03*
D90*
X415748Y58242D03*
D69*
X315763Y58656D03*
D77*
X332530Y58656D03*
D91*
X343295Y58656D03*
D33*
X378694Y58656D03*
D92*
X415334Y58656D03*
D38*
X315349Y59070D03*
D37*
X331909Y59070D03*
D45*
X343088Y59070D03*
D38*
X378280Y59070D03*
D93*
X415127Y59070D03*
D28*
X315142Y59484D03*
D37*
X331495Y59484D03*
D49*
X342881Y59484D03*
D34*
X377659Y59484D03*
D61*
X414920Y59484D03*
D30*
X314728Y59898D03*
D24*
X331081Y59898D03*
D91*
X342881Y59898D03*
D77*
X377245Y59898D03*
D94*
X414713Y59898D03*
D28*
X314314Y60312D03*
D78*
X330046Y60312D03*
D42*
X342674Y60312D03*
D37*
X377038Y60312D03*
D95*
X408503Y60312D03*
D96*
X421959Y60312D03*
D28*
X313900Y60726D03*
D35*
X329632Y60726D03*
D42*
X342674Y60726D03*
D35*
X376417Y60726D03*
D21*
X406847Y60726D03*
D96*
X422373Y60726D03*
D47*
X313693Y61140D03*
D29*
X329218Y61140D03*
D43*
X342674Y61140D03*
D24*
X375796Y61140D03*
D97*
X405812Y61140D03*
D23*
X422787Y61140D03*
D45*
X313279Y61554D03*
D78*
X328804Y61554D03*
D49*
X342467Y61554D03*
D35*
X375175Y61554D03*
D46*
X404984Y61554D03*
D86*
X423822Y61554D03*
D91*
X313072Y61968D03*
D41*
X327976Y61968D03*
D91*
X342467Y61968D03*
D29*
X374346Y61968D03*
D98*
X403742Y61968D03*
D99*
X424236Y61968D03*
D42*
X312865Y62382D03*
D35*
X327562Y62382D03*
D49*
X342467Y62382D03*
D37*
X373725Y62382D03*
D86*
X403121Y62382D03*
X425064Y62382D03*
D45*
X312450Y62796D03*
D27*
X326734Y62796D03*
D49*
X342467Y62796D03*
D37*
X372897Y62796D03*
D22*
X402293Y62796D03*
D27*
X425271Y62796D03*
D47*
X312450Y63210D03*
D44*
X325906Y63210D03*
D91*
X342467Y63210D03*
D24*
X372069Y63210D03*
D32*
X401465Y63210D03*
X425478Y63210D03*
D45*
X312450Y63624D03*
D27*
X325492Y63624D03*
D49*
X342467Y63624D03*
D37*
X371241Y63624D03*
D22*
X400637Y63624D03*
D78*
X425685Y63624D03*
D49*
X312243Y64038D03*
D31*
X324871Y64038D03*
D49*
X342467Y64038D03*
D37*
X370413Y64038D03*
D31*
X399809Y64038D03*
D37*
X425892Y64038D03*
D91*
X312243Y64453D03*
D44*
X324250Y64453D03*
D91*
X342467Y64453D03*
D29*
X369792Y64453D03*
D44*
X399188Y64453D03*
D39*
X426099Y64453D03*
D49*
X312243Y64867D03*
D100*
X323215Y64867D03*
D42*
X342674Y64867D03*
D35*
X368964Y64867D03*
D27*
X398774Y64867D03*
D37*
X426306Y64867D03*
D101*
X312036Y65281D03*
D79*
X322594Y65281D03*
D28*
X342881Y65281D03*
D22*
X368343Y65281D03*
X398153Y65281D03*
D26*
X426513Y65281D03*
D102*
X312036Y65695D03*
D74*
X321766Y65695D03*
D33*
X343088Y65695D03*
D29*
X367722Y65695D03*
D44*
X397532Y65695D03*
D77*
X426513Y65695D03*
D101*
X312036Y66109D03*
D79*
X321352Y66109D03*
D34*
X343295Y66109D03*
D78*
X366894Y66109D03*
D22*
X396911Y66109D03*
D26*
X426513Y66109D03*
D101*
X312036Y66523D03*
D25*
X320731Y66523D03*
D37*
X343502Y66523D03*
X366273Y66523D03*
D35*
X396290Y66523D03*
D38*
X426720Y66523D03*
D102*
X312036Y66937D03*
D97*
X319696Y66937D03*
D29*
X344123Y66937D03*
D74*
X364410Y66937D03*
D32*
X395669Y66937D03*
D33*
X426720Y66937D03*
D101*
X312036Y67351D03*
D52*
X318868Y67351D03*
D27*
X344537Y67351D03*
D103*
X362961Y67351D03*
D35*
X395462Y67351D03*
D38*
X426720Y67351D03*
D104*
X316591Y67765D03*
D74*
X345365Y67765D03*
D54*
X361512Y67765D03*
D24*
X394840Y67765D03*
D30*
X426513Y67765D03*
D105*
X316384Y68179D03*
D106*
X353852Y68179D03*
D37*
X394426Y68179D03*
D28*
X426513Y68179D03*
D95*
X315763Y68593D03*
D107*
X353645Y68593D03*
D37*
X393598Y68593D03*
D28*
X426513Y68593D03*
D108*
X315349Y69007D03*
D109*
X353231Y69007D03*
D24*
X393184Y69007D03*
D33*
X426306Y69007D03*
D50*
X314728Y69421D03*
D14*
X353231Y69421D03*
D37*
X392770Y69421D03*
D38*
X426306Y69421D03*
D79*
X314314Y69835D03*
D110*
X353024Y69835D03*
D34*
X392563Y69835D03*
D38*
X426306Y69835D03*
D29*
X314314Y70249D03*
D111*
X352817Y70249D03*
D77*
X392149Y70249D03*
D33*
X426306Y70249D03*
D112*
X351989Y70663D03*
D34*
X391735Y70663D03*
D40*
X426099Y70663D03*
D56*
X351782Y71077D03*
D37*
X391114Y71077D03*
D40*
X426099Y71077D03*
D113*
X351575Y71491D03*
D24*
X390700Y71491D03*
D33*
X425892Y71491D03*
D34*
X390493Y71905D03*
D28*
X425685Y71905D03*
D33*
X390286Y72319D03*
X425478Y72319D03*
D26*
X390079Y72733D03*
D28*
X425271Y72733D03*
D40*
X307689Y73147D03*
D38*
X389872Y73147D03*
D28*
X425271Y73147D03*
D97*
X309345Y73561D03*
D69*
X389458Y73561D03*
X425064Y73561D03*
D55*
X309966Y73975D03*
D38*
X389044Y73975D03*
D28*
X424857Y73975D03*
D114*
X310380Y74389D03*
D28*
X388837Y74389D03*
D38*
X424650Y74389D03*
D115*
X310173Y74803D03*
D33*
X388630Y74803D03*
D30*
X424443Y74803D03*
D116*
X310380Y75217D03*
D28*
X388423Y75217D03*
D38*
X424236Y75217D03*
D13*
X309966Y75631D03*
D28*
X388009Y75631D03*
X424029Y75631D03*
D117*
X309552Y76045D03*
D30*
X388009Y76045D03*
X423615Y76045D03*
D34*
X301893Y76459D03*
D46*
X315142Y76459D03*
D28*
X387595Y76459D03*
D42*
X423408Y76459D03*
X300444Y76873D03*
D22*
X316177Y76873D03*
D28*
X387595Y76873D03*
X423201Y76873D03*
D118*
X298995Y77287D03*
D39*
X316798Y77287D03*
D43*
X387388Y77287D03*
D30*
X422787Y77287D03*
D119*
X297960Y77701D03*
D38*
X317419Y77701D03*
D45*
X386974Y77701D03*
X422580Y77701D03*
D33*
X317833Y78115D03*
D47*
X386974Y78115D03*
D30*
X421959Y78115D03*
D40*
X318040Y78529D03*
D45*
X386974Y78529D03*
D40*
X421545Y78529D03*
D38*
X318247Y78943D03*
D49*
X386767Y78943D03*
D28*
X421131Y78943D03*
D30*
X318454Y79357D03*
D91*
X386767Y79357D03*
D30*
X420717Y79357D03*
D28*
X318454Y79771D03*
D49*
X386767Y79771D03*
D36*
X420510Y79771D03*
D28*
X318454Y80185D03*
D49*
X386353Y80185D03*
D38*
X420096Y80185D03*
D30*
X318454Y80599D03*
D91*
X386353Y80599D03*
D33*
X419682Y80599D03*
D28*
X318454Y81013D03*
D49*
X386353Y81013D03*
D34*
X419061Y81013D03*
D38*
X318247Y81427D03*
D49*
X386353Y81427D03*
D38*
X418440Y81427D03*
D33*
X318247Y81841D03*
D91*
X386353Y81841D03*
D30*
X417819Y81841D03*
D38*
X318247Y82255D03*
D49*
X386353Y82255D03*
D38*
X417198Y82255D03*
D33*
X318247Y82669D03*
D91*
X386353Y82669D03*
D33*
X416784Y82669D03*
D38*
X318247Y83083D03*
D49*
X386353Y83083D03*
D26*
X416162Y83083D03*
D34*
X318040Y83497D03*
D49*
X386353Y83497D03*
D26*
X415334Y83497D03*
D39*
X318040Y83911D03*
D91*
X386353Y83911D03*
D39*
X414920Y83911D03*
D34*
X318040Y84325D03*
D49*
X386353Y84325D03*
D34*
X414506Y84325D03*
D38*
X317833Y84739D03*
D42*
X386560Y84739D03*
D38*
X413885Y84739D03*
D77*
X317626Y85154D03*
D43*
X386560Y85154D03*
D39*
X413264Y85154D03*
D26*
X317626Y85568D03*
D42*
X386560Y85568D03*
D38*
X412643Y85568D03*
D34*
X317212Y85982D03*
D42*
X386560Y85982D03*
D34*
X412022Y85982D03*
D39*
X317212Y86396D03*
D30*
X386767Y86396D03*
D39*
X411194Y86396D03*
D34*
X316798Y86810D03*
D28*
X386767Y86810D03*
D37*
X410573Y86810D03*
D34*
X316798Y87224D03*
D45*
X386974Y87224D03*
D34*
X409952Y87224D03*
D77*
X316384Y87638D03*
D43*
X387388Y87638D03*
D24*
X409331Y87638D03*
D26*
X316384Y88052D03*
D120*
X387595Y88052D03*
D37*
X408503Y88052D03*
D39*
X315970Y88466D03*
D91*
X388009Y88466D03*
D24*
X407675Y88466D03*
D34*
X315970Y88880D03*
D49*
X388009Y88880D03*
D37*
X406847Y88880D03*
D34*
X315556Y89294D03*
D45*
X388216Y89294D03*
D35*
X406226Y89294D03*
D39*
X315556Y89708D03*
D43*
X388630Y89708D03*
D29*
X405398Y89708D03*
D28*
X278708Y90122D03*
D26*
X315142Y90122D03*
D42*
X389044Y90122D03*
D35*
X404570Y90122D03*
D26*
X265873Y90536D03*
D28*
X278708Y90536D03*
D34*
X314728Y90536D03*
D27*
X353231Y90536D03*
D28*
X389251Y90536D03*
D35*
X404156Y90536D03*
D20*
X264838Y90950D03*
D43*
X278501Y90950D03*
D39*
X314314Y90950D03*
D54*
X352817Y90950D03*
D30*
X389665Y90950D03*
D29*
X403328Y90950D03*
D18*
X264217Y91364D03*
D42*
X278501Y91364D03*
D26*
X313900Y91364D03*
D56*
X352196Y91364D03*
D28*
X390079Y91364D03*
D37*
X402707Y91364D03*
D82*
X263389Y91778D03*
D120*
X278294Y91778D03*
D26*
X313900Y91778D03*
D121*
X351782Y91778D03*
D38*
X390700Y91778D03*
D31*
X401879Y91778D03*
D122*
X262975Y92192D03*
D123*
X278294Y92192D03*
D77*
X313900Y92192D03*
D85*
X351575Y92192D03*
D124*
X396497Y92192D03*
D125*
X262561Y92606D03*
D28*
X277466Y92606D03*
D34*
X313486Y92606D03*
D126*
X351161Y92606D03*
D127*
X396290Y92606D03*
D128*
X262147Y93020D03*
D43*
X277259Y93020D03*
D33*
X313279Y93020D03*
D129*
X350954Y93020D03*
D104*
X396083Y93020D03*
D52*
X258421Y93434D03*
D36*
X267322Y93434D03*
D42*
X277259Y93434D03*
D38*
X312865Y93434D03*
D130*
X350747Y93434D03*
D53*
X395254Y93434D03*
D96*
X256765Y93848D03*
D120*
X267943Y93848D03*
D42*
X277259Y93848D03*
D38*
X312450Y93848D03*
D61*
X350747Y93848D03*
D50*
X395047Y93848D03*
D97*
X255523Y94262D03*
D123*
X267943Y94262D03*
D91*
X277052Y94262D03*
D33*
X312036Y94262D03*
D73*
X343502Y94262D03*
D54*
X356130Y94262D03*
D44*
X395047Y94262D03*
D25*
X254488Y94676D03*
D120*
X267943Y94676D03*
D45*
X276845Y94676D03*
D26*
X311829Y94676D03*
D27*
X342467Y94676D03*
D131*
X356544Y94676D03*
D79*
X253867Y95090D03*
D120*
X267943Y95090D03*
D49*
X276638Y95090D03*
D38*
X311622Y95090D03*
D22*
X341846Y95090D03*
D52*
X356958Y95090D03*
D44*
X253453Y95504D03*
D123*
X267943Y95504D03*
D47*
X276431Y95504D03*
D69*
X311208Y95504D03*
D29*
X340811Y95504D03*
D64*
X357579Y95504D03*
D22*
X252832Y95918D03*
D42*
X268150Y95918D03*
D45*
X276431Y95918D03*
D38*
X310794Y95918D03*
D37*
X339776Y95918D03*
D96*
X357786Y95918D03*
D31*
X252418Y96332D03*
D42*
X268150Y96332D03*
D49*
X276224Y96332D03*
D38*
X310380Y96332D03*
D26*
X339155Y96332D03*
D50*
X358200Y96332D03*
D32*
X252004Y96746D03*
D43*
X268150Y96746D03*
X276017Y96746D03*
D69*
X309966Y96746D03*
D24*
X338534Y96746D03*
D23*
X358200Y96746D03*
D35*
X250969Y97160D03*
D42*
X268150Y97160D03*
X276017Y97160D03*
D38*
X309552Y97160D03*
D34*
X337913Y97160D03*
D25*
X358407Y97160D03*
D37*
X250347Y97574D03*
D42*
X267736Y97574D03*
D49*
X275810Y97574D03*
D38*
X309138Y97574D03*
D28*
X337085Y97574D03*
D79*
X358614Y97574D03*
D24*
X249519Y97988D03*
D43*
X267736Y97988D03*
D91*
X275810Y97988D03*
D69*
X308724Y97988D03*
D39*
X336257Y97988D03*
D99*
X358821Y97988D03*
D37*
X249105Y98402D03*
D45*
X267322Y98402D03*
D49*
X275810Y98402D03*
D38*
X308310Y98402D03*
D26*
X335843Y98402D03*
D79*
X359028Y98402D03*
D24*
X248691Y98816D03*
D30*
X267115Y98816D03*
D91*
X275810Y98816D03*
D33*
X307896Y98816D03*
D39*
X335429Y98816D03*
D73*
X359235Y98816D03*
D34*
X248070Y99230D03*
D42*
X266908Y99230D03*
D49*
X275810Y99230D03*
D38*
X307482Y99230D03*
X334808Y99230D03*
D75*
X359442Y99230D03*
D34*
X247656Y99644D03*
D28*
X266701Y99644D03*
X275810Y99644D03*
D38*
X307068Y99644D03*
X334394Y99644D03*
D75*
X359442Y99644D03*
D77*
X247242Y100058D03*
D47*
X266494Y100058D03*
D30*
X275810Y100058D03*
D69*
X306654Y100058D03*
D33*
X333980Y100058D03*
D132*
X359442Y100058D03*
D34*
X246828Y100472D03*
D40*
X266287Y100472D03*
D28*
X275810Y100472D03*
D38*
X306240Y100472D03*
X333151Y100472D03*
D75*
X359442Y100472D03*
D38*
X246207Y100886D03*
D45*
X266080Y100886D03*
D28*
X275810Y100886D03*
D38*
X305826Y100886D03*
D26*
X332530Y100886D03*
D75*
X359442Y100886D03*
D33*
X245793Y101300D03*
D30*
X265873Y101300D03*
D33*
X276017Y101300D03*
D30*
X305205Y101300D03*
D39*
X332116Y101300D03*
D132*
X359442Y101300D03*
D28*
X245172Y101714D03*
D42*
X265666Y101714D03*
D38*
X276017Y101714D03*
X304584Y101714D03*
D34*
X331702Y101714D03*
D75*
X359442Y101714D03*
D28*
X244758Y102128D03*
D45*
X265252Y102128D03*
D38*
X276017Y102128D03*
D36*
X304170Y102128D03*
D37*
X331081Y102128D03*
D75*
X359442Y102128D03*
D30*
X244344Y102542D03*
X265045Y102542D03*
D77*
X276224Y102542D03*
D33*
X303756Y102542D03*
D39*
X330460Y102542D03*
D132*
X359442Y102542D03*
D28*
X243930Y102956D03*
X264631Y102956D03*
D26*
X276224Y102956D03*
D38*
X302928Y102956D03*
D26*
X330046Y102956D03*
D75*
X359442Y102956D03*
D30*
X243516Y103370D03*
D33*
X264424Y103370D03*
X276431Y103370D03*
X302514Y103370D03*
D39*
X329632Y103370D03*
D32*
X359235Y103370D03*
D36*
X243309Y103784D03*
X264010Y103784D03*
D34*
X276638Y103784D03*
D38*
X302100Y103784D03*
D34*
X329218Y103784D03*
D78*
X359028Y103784D03*
D38*
X242895Y104198D03*
D37*
X263596Y104198D03*
D34*
X276638Y104198D03*
D38*
X301686Y104198D03*
D26*
X328804Y104198D03*
D78*
X359028Y104198D03*
D30*
X242688Y104612D03*
D24*
X263182Y104612D03*
X276845Y104612D03*
D33*
X301272Y104612D03*
D39*
X328390Y104612D03*
D24*
X358821Y104612D03*
D28*
X242274Y105026D03*
D37*
X262768Y105026D03*
X276845Y105026D03*
D34*
X300651Y105026D03*
D26*
X327976Y105026D03*
D37*
X358821Y105026D03*
D28*
X241860Y105440D03*
D35*
X262561Y105440D03*
D37*
X277259Y105440D03*
D38*
X300030Y105440D03*
D34*
X327562Y105440D03*
D37*
X358407Y105440D03*
D30*
X241446Y105855D03*
D41*
X262147Y105855D03*
D29*
X277466Y105855D03*
D39*
X299409Y105855D03*
D69*
X327355Y105855D03*
D39*
X358200Y105855D03*
D45*
X241239Y106269D03*
D35*
X261733Y106269D03*
D37*
X277673Y106269D03*
X298788Y106269D03*
D38*
X326941Y106269D03*
D26*
X357786Y106269D03*
D45*
X240825Y106683D03*
D35*
X261319Y106683D03*
X277880Y106683D03*
D34*
X298167Y106683D03*
D38*
X326527Y106683D03*
D34*
X357372Y106683D03*
D43*
X240411Y107097D03*
D29*
X260905Y107097D03*
D41*
X278294Y107097D03*
D33*
X297546Y107097D03*
D69*
X326113Y107097D03*
D24*
X356751Y107097D03*
D49*
X240204Y107511D03*
D35*
X260491Y107511D03*
D78*
X278294Y107511D03*
D26*
X296925Y107511D03*
D38*
X325699Y107511D03*
D37*
X356751Y107511D03*
D45*
X239997Y107925D03*
D22*
X259870Y107925D03*
D35*
X278708Y107925D03*
D37*
X295890Y107925D03*
D28*
X325492Y107925D03*
D37*
X356337Y107925D03*
D47*
X239583Y108339D03*
D76*
X259456Y108339D03*
X278915Y108339D03*
D29*
X295269Y108339D03*
D30*
X325078Y108339D03*
D24*
X355923Y108339D03*
D45*
X239583Y108753D03*
D22*
X259042Y108753D03*
X279329Y108753D03*
D78*
X294441Y108753D03*
D28*
X324664Y108753D03*
D34*
X355716Y108753D03*
D30*
X239376Y109167D03*
D32*
X258628Y109167D03*
D99*
X279743Y109167D03*
D32*
X293406Y109167D03*
D30*
X324250Y109167D03*
D24*
X355095Y109167D03*
D28*
X238962Y109581D03*
D27*
X258007Y109581D03*
D86*
X280157Y109581D03*
D27*
X292371Y109581D03*
D28*
X324250Y109581D03*
D35*
X354474Y109581D03*
D28*
X238962Y109995D03*
D27*
X257593Y109995D03*
D50*
X281192Y109995D03*
D25*
X290921Y109995D03*
D40*
X323836Y109995D03*
D133*
X354267Y109995D03*
D30*
X238962Y110409D03*
D44*
X257179Y110409D03*
D134*
X285953Y110409D03*
D47*
X323629Y110409D03*
D24*
X353852Y110409D03*
D36*
X238755Y110823D03*
D27*
X256351Y110823D03*
D90*
X285746Y110823D03*
D45*
X323629Y110823D03*
D78*
X353231Y110823D03*
D36*
X238755Y111237D03*
D75*
X255937Y111237D03*
D121*
X285539Y111237D03*
D42*
X323215Y111237D03*
D35*
X352817Y111237D03*
D69*
X238755Y111651D03*
D44*
X255109Y111651D03*
D135*
X285332Y111651D03*
D43*
X323215Y111651D03*
D29*
X352403Y111651D03*
D36*
X238755Y112065D03*
D100*
X254488Y112065D03*
D21*
X285539Y112065D03*
D28*
X323008Y112065D03*
D78*
X351989Y112065D03*
D36*
X238755Y112479D03*
D79*
X253867Y112479D03*
D38*
X285539Y112479D03*
D45*
X322801Y112479D03*
D35*
X351575Y112479D03*
D69*
X238755Y112893D03*
D20*
X252832Y112893D03*
D87*
X322594Y112893D03*
D32*
X350954Y112893D03*
D36*
X238755Y113307D03*
D21*
X251590Y113307D03*
D40*
X322594Y113307D03*
D22*
X350540Y113307D03*
D24*
X239169Y113721D03*
D88*
X250347Y113721D03*
D87*
X322594Y113721D03*
D76*
X350126Y113721D03*
D136*
X245586Y114135D03*
D45*
X322387Y114135D03*
D22*
X349298Y114135D03*
D13*
X244965Y114549D03*
D83*
X253660Y114549D03*
D28*
X322180Y114549D03*
D22*
X348884Y114549D03*
D124*
X244137Y114963D03*
D30*
X322180Y114963D03*
D76*
X348056Y114963D03*
D125*
X243516Y115377D03*
D28*
X322180Y115377D03*
D22*
X347642Y115377D03*
D137*
X243102Y115791D03*
D28*
X322180Y115791D03*
D27*
X347435Y115791D03*
D138*
X242067Y116205D03*
D30*
X322180Y116205D03*
D73*
X346814Y116205D03*
D31*
X240825Y116619D03*
D38*
X321973Y116619D03*
D27*
X346193Y116619D03*
D38*
X240825Y117033D03*
X321973Y117033D03*
D27*
X345779Y117033D03*
D139*
X241446Y117447D03*
D33*
X321973Y117447D03*
D44*
X344951Y117447D03*
D28*
X322180Y117861D03*
D27*
X344123Y117861D03*
D28*
X322180Y118275D03*
D100*
X343916Y118275D03*
D33*
X322387Y118689D03*
D74*
X343295Y118689D03*
D34*
X322594Y119103D03*
D79*
X342467Y119103D03*
D33*
X322801Y119517D03*
D98*
X341639Y119517D03*
D28*
X323008Y119931D03*
D79*
X340811Y119931D03*
D28*
X323422Y120345D03*
D25*
X340190Y120345D03*
D87*
X323836Y120759D03*
D48*
X339362Y120759D03*
D38*
X324043Y121173D03*
D25*
X338534Y121173D03*
D38*
X324457Y121587D03*
D21*
X337706Y121587D03*
D69*
X324871Y122001D03*
D64*
X336878Y122001D03*
D42*
X233787Y122415D03*
D26*
X325492Y122415D03*
D131*
X335843Y122415D03*
D21*
X232131Y122829D03*
D126*
X331702Y122829D03*
D135*
X233166Y123243D03*
D140*
X331081Y123243D03*
D114*
X233373Y123657D03*
D89*
X330667Y123657D03*
D115*
X233166Y124071D03*
D72*
X330253Y124071D03*
D65*
X232752Y124485D03*
D53*
X329839Y124485D03*
D13*
X232545Y124899D03*
D25*
X329425Y124899D03*
D117*
X232131Y125313D03*
D77*
X284090Y125313D03*
D141*
X231717Y125727D03*
D50*
X283676Y125727D03*
X224885Y126141D03*
D80*
X237099Y126141D03*
D55*
X283055Y126141D03*
D97*
X224057Y126556D03*
D20*
X238341Y126556D03*
D57*
X282641Y126556D03*
D25*
X222608Y126970D03*
D86*
X238755Y126970D03*
D126*
X282020Y126970D03*
D25*
X221780Y127384D03*
D22*
X239583Y127384D03*
D14*
X281606Y127384D03*
D74*
X221159Y127798D03*
D29*
X240204Y127798D03*
D142*
X280985Y127798D03*
D143*
X219710Y128212D03*
D35*
X240618Y128212D03*
D144*
X280571Y128212D03*
D79*
X219089Y128626D03*
D37*
X240825Y128626D03*
D145*
X280571Y128626D03*
D44*
X218261Y129040D03*
D39*
X241032Y129040D03*
D23*
X273326Y129040D03*
D97*
X287402Y129040D03*
D22*
X217640Y129454D03*
D26*
X241446Y129454D03*
D86*
X271877Y129454D03*
X288023Y129454D03*
D32*
X217226Y129868D03*
D33*
X241653Y129868D03*
D74*
X270841Y129868D03*
D24*
X288851Y129868D03*
D35*
X216605Y130282D03*
D38*
X241653Y130282D03*
D79*
X270013Y130282D03*
D34*
X289058Y130282D03*
X215777Y130696D03*
D38*
X241653Y130696D03*
D100*
X269392Y130696D03*
D36*
X289265Y130696D03*
D77*
X214949Y131110D03*
D30*
X241446Y131110D03*
D73*
X268564Y131110D03*
D30*
X289472Y131110D03*
D34*
X214535Y131524D03*
D28*
X241446Y131524D03*
D100*
X268150Y131524D03*
D28*
X289472Y131524D03*
D26*
X214121Y131938D03*
D28*
X241446Y131938D03*
D86*
X267322Y131938D03*
D28*
X289472Y131938D03*
D39*
X213707Y132352D03*
D30*
X241446Y132352D03*
D44*
X266701Y132352D03*
D30*
X289472Y132352D03*
D38*
X213086Y132766D03*
D28*
X241446Y132766D03*
D86*
X266080Y132766D03*
D28*
X289472Y132766D03*
D38*
X212672Y133180D03*
D28*
X241446Y133180D03*
D100*
X265666Y133180D03*
D28*
X289472Y133180D03*
D69*
X212258Y133594D03*
D47*
X241239Y133594D03*
D73*
X265252Y133594D03*
D30*
X289472Y133594D03*
D28*
X211637Y134008D03*
D40*
X241032Y134008D03*
D22*
X264838Y134008D03*
D28*
X289472Y134008D03*
D30*
X211223Y134422D03*
D47*
X240825Y134422D03*
D32*
X264424Y134422D03*
D30*
X289472Y134422D03*
D28*
X210809Y134836D03*
D45*
X240825Y134836D03*
D35*
X263803Y134836D03*
D28*
X289472Y134836D03*
D38*
X210602Y135250D03*
D42*
X240411Y135250D03*
D78*
X263389Y135250D03*
D36*
X289265Y135250D03*
D30*
X210395Y135664D03*
X240204Y135664D03*
D24*
X263182Y135664D03*
D69*
X289265Y135664D03*
D40*
X209981Y136078D03*
D28*
X240204Y136078D03*
D37*
X262768Y136078D03*
D28*
X289058Y136078D03*
D38*
X209774Y136492D03*
D40*
X239790Y136492D03*
D26*
X262147Y136492D03*
D38*
X288851Y136492D03*
D33*
X209360Y136906D03*
D30*
X239376Y136906D03*
D33*
X261526Y136906D03*
X288851Y136906D03*
D28*
X209152Y137320D03*
D38*
X239169Y137320D03*
X261112Y137320D03*
X288851Y137320D03*
D40*
X208738Y137734D03*
D36*
X238755Y137734D03*
D38*
X260698Y137734D03*
X288851Y137734D03*
D47*
X208531Y138148D03*
D33*
X238341Y138148D03*
X260284Y138148D03*
D30*
X288644Y138148D03*
D45*
X208531Y138562D03*
D26*
X238134Y138562D03*
D38*
X259870Y138562D03*
X288437Y138562D03*
D28*
X208324Y138976D03*
D34*
X237720Y138976D03*
D28*
X259663Y138976D03*
D38*
X288437Y138976D03*
D43*
X208117Y139390D03*
D69*
X237513Y139390D03*
D30*
X259249Y139390D03*
X288230Y139390D03*
D28*
X207910Y139804D03*
D26*
X236892Y139804D03*
D38*
X259042Y139804D03*
D36*
X288023Y139804D03*
D47*
X207703Y140218D03*
D39*
X236478Y140218D03*
D33*
X258628Y140218D03*
D30*
X287816Y140218D03*
D28*
X207496Y140632D03*
D38*
X235857Y140632D03*
D28*
X258421Y140632D03*
D38*
X287609Y140632D03*
X207289Y141046D03*
X235443Y141046D03*
D28*
X258007Y141046D03*
X287402Y141046D03*
D30*
X207082Y141460D03*
D33*
X235029Y141460D03*
D30*
X257593Y141460D03*
D33*
X287195Y141460D03*
D38*
X206875Y141874D03*
X234615Y141874D03*
D42*
X257386Y141874D03*
D38*
X287195Y141874D03*
D34*
X206668Y142288D03*
D36*
X234201Y142288D03*
D45*
X256972Y142288D03*
D38*
X286781Y142288D03*
D39*
X206668Y142702D03*
D77*
X233580Y142702D03*
D30*
X256765Y142702D03*
D33*
X286781Y142702D03*
D34*
X206254Y143116D03*
D37*
X232959Y143116D03*
D42*
X256558Y143116D03*
D26*
X286574Y143116D03*
D37*
X206047Y143530D03*
X232545Y143530D03*
D45*
X256144Y143530D03*
D38*
X286367Y143530D03*
D24*
X206047Y143944D03*
X232131Y143944D03*
D47*
X256144Y143944D03*
D30*
X286160Y143944D03*
D101*
X197353Y144358D03*
D37*
X206047Y144358D03*
D22*
X231303Y144358D03*
D45*
X255730Y144358D03*
D28*
X285746Y144358D03*
D29*
X197146Y144772D03*
D24*
X206047Y144772D03*
D32*
X230889Y144772D03*
D47*
X255730Y144772D03*
D30*
X285746Y144772D03*
D100*
X196939Y145186D03*
D37*
X206047Y145186D03*
D31*
X230475Y145186D03*
D42*
X255316Y145186D03*
D38*
X285539Y145186D03*
D96*
X196732Y145600D03*
D37*
X206047Y145600D03*
D27*
X229853Y145600D03*
D42*
X255316Y145600D03*
D38*
X285125Y145600D03*
D113*
X196318Y146014D03*
D24*
X206047Y146014D03*
D99*
X229232Y146014D03*
D91*
X255109Y146014D03*
D30*
X284918Y146014D03*
D146*
X195904Y146428D03*
D37*
X206047Y146428D03*
D86*
X228404Y146428D03*
D45*
X254902Y146428D03*
D28*
X284504Y146428D03*
D95*
X195283Y146842D03*
D37*
X206047Y146842D03*
D46*
X227783Y146842D03*
D49*
X254695Y146842D03*
D28*
X284090Y146842D03*
D19*
X194455Y147257D03*
D24*
X206047Y147257D03*
D20*
X227162Y147257D03*
D91*
X254695Y147257D03*
D43*
X283883Y147257D03*
D147*
X193834Y147671D03*
D34*
X206254Y147671D03*
D96*
X226541Y147671D03*
D49*
X254695Y147671D03*
D45*
X283469Y147671D03*
D79*
X191764Y148085D03*
D148*
X198181Y148085D03*
D36*
X206461Y148085D03*
D21*
X225920Y148085D03*
D42*
X254488Y148085D03*
X283055Y148085D03*
D99*
X191143Y148499D03*
D69*
X206461Y148499D03*
D138*
X225092Y148499D03*
D123*
X254281Y148499D03*
D33*
X282641Y148499D03*
D22*
X190729Y148913D03*
D36*
X206461Y148913D03*
D146*
X224057Y148913D03*
D120*
X254281Y148913D03*
D38*
X282227Y148913D03*
D35*
X190108Y149327D03*
D36*
X206461Y149327D03*
D63*
X223022Y149327D03*
D120*
X254281Y149327D03*
D38*
X281813Y149327D03*
D29*
X189280Y149741D03*
D69*
X206461Y149741D03*
D54*
X222401Y149741D03*
D123*
X254281Y149741D03*
D30*
X281606Y149741D03*
D133*
X188659Y150155D03*
D34*
X206668Y150155D03*
D95*
X221780Y150155D03*
D120*
X254281Y150155D03*
D38*
X281399Y150155D03*
D24*
X188244Y150569D03*
D33*
X206875Y150569D03*
D81*
X221159Y150569D03*
D123*
X254281Y150569D03*
D33*
X280985Y150569D03*
D37*
X187830Y150983D03*
D38*
X206875Y150983D03*
D55*
X220124Y150983D03*
D120*
X254281Y150983D03*
D34*
X280364Y150983D03*
D37*
X187416Y151397D03*
D38*
X207289Y151397D03*
D137*
X219089Y151397D03*
D120*
X254281Y151397D03*
D34*
X279950Y151397D03*
D39*
X186795Y151811D03*
X207496Y151811D03*
D12*
X218261Y151811D03*
D123*
X254281Y151811D03*
D77*
X279536Y151811D03*
D26*
X186381Y152225D03*
D136*
X214535Y152225D03*
D120*
X254281Y152225D03*
D34*
X279122Y152225D03*
X185967Y152639D03*
D13*
X214328Y152639D03*
D42*
X254488Y152639D03*
D26*
X278294Y152639D03*
D39*
X185553Y153053D03*
D149*
X213914Y153053D03*
D43*
X254488Y153053D03*
D39*
X277880Y153053D03*
D26*
X185139Y153467D03*
D90*
X213707Y153467D03*
D42*
X254488Y153467D03*
D26*
X277052Y153467D03*
D36*
X184518Y153881D03*
D127*
X213293Y153881D03*
D42*
X254488Y153881D03*
D34*
X276638Y153881D03*
D33*
X184104Y154295D03*
D135*
X212879Y154295D03*
D43*
X254488Y154295D03*
D39*
X275810Y154295D03*
D38*
X183690Y154709D03*
D18*
X212465Y154709D03*
D28*
X254695Y154709D03*
D37*
X275189Y154709D03*
D33*
X183276Y155123D03*
D138*
X212258Y155123D03*
D47*
X254902Y155123D03*
D39*
X274568Y155123D03*
D26*
X183069Y155537D03*
D50*
X212051Y155537D03*
D45*
X254902Y155537D03*
D37*
X273947Y155537D03*
D34*
X182655Y155951D03*
D27*
X212051Y155951D03*
D28*
X255109Y155951D03*
D35*
X272912Y155951D03*
D69*
X182448Y156365D03*
D30*
X255109Y156365D03*
D76*
X271877Y156365D03*
D38*
X182034Y156779D03*
D28*
X255523Y156779D03*
D35*
X271256Y156779D03*
D28*
X181827Y157193D03*
X255523Y157193D03*
D78*
X270427Y157193D03*
D33*
X181620Y157607D03*
D87*
X255937Y157607D03*
D29*
X269599Y157607D03*
D28*
X181413Y158021D03*
D26*
X256351Y158021D03*
D31*
X268564Y158021D03*
D36*
X181206Y158435D03*
D34*
X256765Y158435D03*
D27*
X267529Y158435D03*
D30*
X180999Y158849D03*
D24*
X256972Y158849D03*
D97*
X265873Y158849D03*
D28*
X180999Y159263D03*
D125*
X261733Y159263D03*
D38*
X180792Y159677D03*
D127*
X261733Y159677D03*
D33*
X180792Y160091D03*
D104*
X261526Y160091D03*
D34*
X180999Y160505D03*
D55*
X261526Y160505D03*
D43*
X180378Y160919D03*
D113*
X261319Y160919D03*
D101*
X179964Y161333D03*
D35*
X260905Y161333D03*
D101*
X179964Y161747D03*
D91*
X179757Y162161D03*
D49*
X179757Y162575D03*
D150*
X179343Y162989D03*
D118*
X179343Y163403D03*
D151*
X178929Y163817D03*
D143*
X219710Y165887D03*
D137*
X219089Y166301D03*
D115*
X219089Y166715D03*
D65*
X218675Y167129D03*
D152*
X218261Y167543D03*
D66*
X218054Y167958D03*
D67*
X218054Y168372D03*
D153*
X218054Y168786D03*
D154*
X217640Y169200D03*
D103*
X175410Y169614D03*
D89*
X212258Y169614D03*
D55*
X223850Y169614D03*
D56*
X175824Y170028D03*
X211430Y170028D03*
D86*
X225920Y170028D03*
D115*
X176445Y170442D03*
D138*
X209774Y170442D03*
D24*
X227162Y170442D03*
D155*
X176238Y170856D03*
D21*
X208531Y170856D03*
D38*
X227576Y170856D03*
D156*
X175617Y171270D03*
D23*
X207910Y171270D03*
D33*
X227576Y171270D03*
D157*
X175410Y171684D03*
D96*
X207082Y171684D03*
D26*
X227783Y171684D03*
D14*
X175203Y172098D03*
D50*
X206668Y172098D03*
D38*
X227990Y172098D03*
D142*
X174582Y172512D03*
D98*
X205840Y172512D03*
D33*
X227990Y172512D03*
D158*
X174375Y172926D03*
D79*
X205012Y172926D03*
D28*
X227783Y172926D03*
D67*
X174168Y173340D03*
D79*
X204184Y173340D03*
D28*
X227783Y173340D03*
D88*
X168372Y173754D03*
D97*
X180585Y173754D03*
D74*
X203770Y173754D03*
D30*
X227783Y173754D03*
D25*
X166715Y174168D03*
D34*
X182241Y174168D03*
D86*
X203149Y174168D03*
D28*
X227783Y174168D03*
D25*
X165887Y174582D03*
D28*
X182655Y174582D03*
D27*
X202942Y174582D03*
D28*
X227783Y174582D03*
D74*
X165266Y174996D03*
D43*
X182862Y174996D03*
D32*
X202321Y174996D03*
D30*
X227783Y174996D03*
D79*
X164852Y175410D03*
D42*
X182862Y175410D03*
D31*
X201907Y175410D03*
D28*
X227783Y175410D03*
D76*
X163817Y175824D03*
D43*
X182862Y175824D03*
D32*
X201493Y175824D03*
D30*
X227783Y175824D03*
D78*
X163196Y176238D03*
D42*
X182862Y176238D03*
D22*
X201079Y176238D03*
D42*
X227576Y176238D03*
D37*
X162575Y176652D03*
D28*
X182655Y176652D03*
D31*
X200665Y176652D03*
D42*
X227576Y176652D03*
D24*
X162161Y177066D03*
D30*
X182655Y177066D03*
D29*
X200458Y177066D03*
D30*
X227369Y177066D03*
D34*
X161540Y177480D03*
D28*
X182655Y177480D03*
D78*
X200044Y177480D03*
D28*
X227369Y177480D03*
D26*
X161126Y177894D03*
D45*
X182448Y177894D03*
D37*
X199837Y177894D03*
D45*
X227162Y177894D03*
D39*
X160712Y178308D03*
D30*
X182241Y178308D03*
D24*
X199423Y178308D03*
D30*
X226955Y178308D03*
D38*
X160091Y178722D03*
D28*
X182241Y178722D03*
D35*
X199216Y178722D03*
D28*
X226955Y178722D03*
D38*
X159677Y179136D03*
D28*
X182241Y179136D03*
D133*
X199009Y179136D03*
D28*
X226955Y179136D03*
D30*
X159470Y179550D03*
X181827Y179550D03*
D24*
X198595Y179550D03*
D30*
X226541Y179550D03*
D28*
X159056Y179964D03*
X181827Y179964D03*
D34*
X198388Y179964D03*
D42*
X226334Y179964D03*
D28*
X158642Y180378D03*
X181413Y180378D03*
D37*
X198181Y180378D03*
D28*
X226127Y180378D03*
D87*
X158228Y180792D03*
D30*
X180999Y180792D03*
D24*
X197767Y180792D03*
D47*
X225920Y180792D03*
D28*
X157814Y181206D03*
X180999Y181206D03*
D37*
X197767Y181206D03*
D28*
X225713Y181206D03*
D30*
X157400Y181620D03*
D43*
X180792Y181620D03*
D29*
X197560Y181620D03*
D43*
X225506Y181620D03*
D38*
X157193Y182034D03*
D42*
X180378Y182034D03*
D37*
X197353Y182034D03*
D28*
X225299Y182034D03*
D40*
X156986Y182448D03*
D28*
X180171Y182448D03*
D35*
X197146Y182448D03*
D40*
X224885Y182448D03*
D30*
X156572Y182862D03*
D47*
X179964Y182862D03*
D24*
X196939Y182862D03*
D47*
X224678Y182862D03*
D28*
X156158Y183276D03*
D42*
X179550Y183276D03*
D26*
X196732Y183276D03*
D28*
X224471Y183276D03*
D45*
X155951Y183690D03*
D28*
X179343Y183690D03*
D37*
X196525Y183690D03*
D28*
X224057Y183690D03*
D43*
X155537Y184104D03*
D87*
X178929Y184104D03*
D39*
X196318Y184104D03*
D47*
X223850Y184104D03*
D42*
X155537Y184518D03*
D45*
X178722Y184518D03*
D37*
X196111Y184518D03*
D42*
X223436Y184518D03*
X155123Y184932D03*
D28*
X178515Y184932D03*
D34*
X195904Y184932D03*
D28*
X223229Y184932D03*
D47*
X154709Y185346D03*
D30*
X178101Y185346D03*
D39*
X195904Y185346D03*
D30*
X222815Y185346D03*
D45*
X154709Y185760D03*
D40*
X177687Y185760D03*
D34*
X195904Y185760D03*
D36*
X222608Y185760D03*
D43*
X154295Y186174D03*
D47*
X177480Y186174D03*
D39*
X195904Y186174D03*
D30*
X222401Y186174D03*
D42*
X154295Y186588D03*
X177066Y186588D03*
D38*
X195697Y186588D03*
X222194Y186588D03*
D120*
X154088Y187002D03*
D45*
X176652Y187002D03*
D38*
X195697Y187002D03*
D28*
X221573Y187002D03*
D43*
X153881Y187416D03*
D30*
X176445Y187416D03*
D33*
X195283Y187416D03*
D30*
X221159Y187416D03*
D28*
X153674Y187830D03*
X176031Y187830D03*
D38*
X195283Y187830D03*
D28*
X220745Y187830D03*
D45*
X153467Y188244D03*
D28*
X175617Y188244D03*
D38*
X195283Y188244D03*
D45*
X220538Y188244D03*
D30*
X153260Y188659D03*
D69*
X175410Y188659D03*
D30*
X195076Y188659D03*
D87*
X220331Y188659D03*
D38*
X153053Y189073D03*
X174996Y189073D03*
D28*
X195076Y189073D03*
X219917Y189073D03*
X152846Y189487D03*
X174789Y189487D03*
X195076Y189487D03*
X219503Y189487D03*
D24*
X152225Y189901D03*
D30*
X174375Y189901D03*
X195076Y189901D03*
D87*
X219089Y189901D03*
D86*
X151397Y190315D03*
D28*
X173961Y190315D03*
X195076Y190315D03*
X218675Y190315D03*
D52*
X149948Y190729D03*
D28*
X173547Y190729D03*
D45*
X194869Y190729D03*
D28*
X218261Y190729D03*
D72*
X148913Y191143D03*
D87*
X173133Y191143D03*
D47*
X194869Y191143D03*
D30*
X217847Y191143D03*
D159*
X148292Y191557D03*
D38*
X172512Y191557D03*
D45*
X194869Y191557D03*
D28*
X217433Y191557D03*
D74*
X145393Y191971D03*
D33*
X152225Y191971D03*
D69*
X172098Y191971D03*
D47*
X194869Y191971D03*
D30*
X217019Y191971D03*
D46*
X144979Y192385D03*
D38*
X152225Y192385D03*
X171684Y192385D03*
D49*
X195076Y192385D03*
D28*
X216605Y192385D03*
D79*
X144151Y192799D03*
D28*
X152018Y192799D03*
D34*
X171063Y192799D03*
D49*
X195076Y192799D03*
D28*
X216191Y192799D03*
D97*
X143737Y193213D03*
D30*
X152018Y193213D03*
D39*
X170649Y193213D03*
D43*
X195283Y193213D03*
D30*
X215777Y193213D03*
D21*
X143530Y193627D03*
D28*
X152018Y193627D03*
D26*
X170235Y193627D03*
D42*
X195283Y193627D03*
D34*
X215363Y193627D03*
D96*
X142909Y194041D03*
D28*
X152018Y194041D03*
D38*
X170028Y194041D03*
D42*
X195283Y194041D03*
D26*
X214949Y194041D03*
D32*
X141874Y194455D03*
D160*
X146014Y194455D03*
D30*
X152018Y194455D03*
D69*
X169614Y194455D03*
D43*
X195283Y194455D03*
D33*
X214328Y194455D03*
D37*
X141046Y194869D03*
D119*
X146014Y194869D03*
D28*
X152018Y194869D03*
D26*
X168993Y194869D03*
D42*
X195283Y194869D03*
D36*
X213500Y194869D03*
D26*
X140425Y195283D03*
D28*
X152018Y195283D03*
D37*
X168372Y195283D03*
D42*
X195283Y195283D03*
D26*
X212879Y195283D03*
D69*
X139804Y195697D03*
D30*
X152018Y195697D03*
D161*
X167958Y195697D03*
D30*
X195490Y195697D03*
D24*
X212258Y195697D03*
D28*
X139183Y196111D03*
X152018Y196111D03*
D37*
X167543Y196111D03*
D42*
X195697Y196111D03*
D34*
X212051Y196111D03*
D30*
X138769Y196525D03*
D47*
X152225Y196525D03*
D24*
X167129Y196525D03*
D43*
X195697Y196525D03*
D24*
X211430Y196525D03*
D28*
X138769Y196939D03*
D45*
X152225Y196939D03*
D37*
X166715Y196939D03*
D28*
X195904Y196939D03*
D37*
X210602Y196939D03*
D28*
X138355Y197353D03*
D40*
X152432Y197353D03*
D35*
X166094Y197353D03*
D45*
X196111Y197353D03*
D31*
X209774Y197353D03*
D43*
X138148Y197767D03*
D87*
X152432Y197767D03*
D24*
X165473Y197767D03*
D30*
X196318Y197767D03*
D29*
X208738Y197767D03*
D49*
X137941Y198181D03*
D40*
X152432Y198181D03*
D22*
X164645Y198181D03*
D42*
X196525Y198181D03*
D37*
X208117Y198181D03*
D45*
X137734Y198595D03*
D28*
X152846Y198595D03*
D27*
X164024Y198595D03*
D28*
X196732Y198595D03*
D37*
X207703Y198595D03*
D91*
X137527Y199009D03*
D33*
X153053Y199009D03*
D32*
X163403Y199009D03*
D43*
X196939Y199009D03*
D44*
X206668Y199009D03*
D49*
X137527Y199423D03*
D36*
X153467Y199423D03*
D22*
X162575Y199423D03*
D125*
X202114Y199423D03*
D45*
X137320Y199837D03*
D34*
X153674Y199837D03*
D86*
X161747Y199837D03*
D89*
X201907Y199837D03*
D91*
X137113Y200251D03*
D162*
X158021Y200251D03*
D163*
X201700Y200251D03*
D42*
X136906Y200665D03*
D105*
X157814Y200665D03*
D131*
X201286Y200665D03*
D28*
X137113Y201079D03*
D18*
X157814Y201079D03*
D80*
X201079Y201079D03*
D43*
X136906Y201493D03*
D113*
X157400Y201493D03*
D23*
X200872Y201493D03*
D28*
X136699Y201907D03*
D96*
X157400Y201907D03*
D34*
X199630Y201907D03*
D30*
X136699Y202321D03*
D44*
X156986Y202321D03*
D28*
X136699Y202735D03*
D49*
X155744Y202735D03*
D101*
X136078Y203149D03*
D102*
X136078Y203563D03*
D49*
X135871Y203977D03*
D150*
X135457Y204391D03*
D118*
X135457Y204805D03*
D150*
X135457Y205219D03*
X135457Y205633D03*
D46*
X171477Y207289D03*
D146*
X171063Y207703D03*
D72*
X170856Y208117D03*
D56*
X170856Y208531D03*
D159*
X171063Y208945D03*
D122*
X171063Y209360D03*
D21*
X133180Y209774D03*
D164*
X170856Y209774D03*
D56*
X133180Y210188D03*
D165*
X170856Y210188D03*
D166*
X133387Y210602D03*
D134*
X170856Y210602D03*
D116*
X133594Y211016D03*
D13*
X170856Y211016D03*
D167*
X133387Y211430D03*
D168*
X170856Y211430D03*
D68*
X133387Y211844D03*
D73*
X165059Y211844D03*
D51*
X175410Y211844D03*
D169*
X133387Y212258D03*
D31*
X163817Y212258D03*
D86*
X176652Y212258D03*
D66*
X132766Y212672D03*
D41*
X163196Y212672D03*
D32*
X177066Y212672D03*
D141*
X132766Y213086D03*
D35*
X162782Y213086D03*
D78*
X177273Y213086D03*
D170*
X132559Y213500D03*
D37*
X162575Y213500D03*
D78*
X177273Y213500D03*
D171*
X132352Y213914D03*
D24*
X162161Y213914D03*
D29*
X177687Y213914D03*
D52*
X125520Y214328D03*
D21*
X138976Y214328D03*
D37*
X161747Y214328D03*
X177894Y214328D03*
D27*
X123864Y214742D03*
D22*
X140218Y214742D03*
D34*
X161540Y214742D03*
D26*
X178101Y214742D03*
D41*
X123036Y215156D03*
D39*
X140839Y215156D03*
D77*
X161126Y215156D03*
X178101Y215156D03*
D37*
X122415Y215570D03*
D36*
X141046Y215570D03*
D34*
X160712Y215570D03*
D38*
X178308Y215570D03*
D26*
X121794Y215984D03*
D28*
X141253Y215984D03*
D36*
X160505Y215984D03*
D38*
X178308Y215984D03*
D33*
X121173Y216398D03*
D43*
X141460Y216398D03*
D33*
X160091Y216398D03*
D30*
X178515Y216398D03*
D28*
X120552Y216812D03*
D49*
X141253Y216812D03*
D38*
X159677Y216812D03*
D28*
X178515Y216812D03*
D36*
X284711Y216812D03*
D30*
X120138Y217226D03*
D91*
X141253Y217226D03*
D69*
X159263Y217226D03*
D30*
X178515Y217226D03*
D32*
X284297Y217226D03*
D28*
X119724Y217640D03*
D49*
X141253Y217640D03*
D28*
X159056Y217640D03*
D45*
X178722Y217640D03*
D50*
X283676Y217640D03*
D28*
X119310Y218054D03*
D49*
X141253Y218054D03*
D28*
X158642Y218054D03*
D45*
X178722Y218054D03*
D146*
X282020Y218054D03*
D30*
X118896Y218468D03*
D47*
X141046Y218468D03*
D87*
X158228Y218468D03*
D47*
X178722Y218468D03*
D88*
X280985Y218468D03*
D28*
X118482Y218882D03*
D45*
X141046Y218882D03*
D38*
X158021Y218882D03*
D45*
X178722Y218882D03*
D95*
X279743Y218882D03*
D42*
X118275Y219296D03*
D45*
X141046Y219296D03*
D38*
X157607Y219296D03*
D45*
X178722Y219296D03*
D63*
X278501Y219296D03*
D47*
X117861Y219710D03*
D43*
X140632Y219710D03*
D30*
X157400Y219710D03*
D47*
X178722Y219710D03*
D54*
X277052Y219710D03*
D28*
X117654Y220124D03*
D42*
X140632Y220124D03*
D45*
X157193Y220124D03*
X178722Y220124D03*
D18*
X274982Y220124D03*
D28*
X117240Y220538D03*
D42*
X140632Y220538D03*
D40*
X156986Y220538D03*
D45*
X178722Y220538D03*
D146*
X274154Y220538D03*
D87*
X116826Y220952D03*
D43*
X140218Y220952D03*
D87*
X156986Y220952D03*
D43*
X178308Y220952D03*
D108*
X273533Y220952D03*
D45*
X116619Y221366D03*
D42*
X140218Y221366D03*
D45*
X156779Y221366D03*
D42*
X178308Y221366D03*
D52*
X272498Y221366D03*
D28*
X116412Y221780D03*
D45*
X139804Y221780D03*
D42*
X156365Y221780D03*
D49*
X178101Y221780D03*
D52*
X271670Y221780D03*
D30*
X115998Y222194D03*
D91*
X139597Y222194D03*
D43*
X156365Y222194D03*
D47*
X177894Y222194D03*
D172*
X270841Y222194D03*
D45*
X115791Y222608D03*
D42*
X139390Y222608D03*
D45*
X155951Y222608D03*
X177894Y222608D03*
D52*
X270013Y222608D03*
D87*
X115584Y223022D03*
D123*
X139183Y223022D03*
D91*
X155744Y223022D03*
D47*
X177894Y223022D03*
D64*
X269392Y223022D03*
D45*
X115377Y223436D03*
D42*
X138976Y223436D03*
D120*
X155330Y223436D03*
D45*
X177480Y223436D03*
D50*
X268357Y223436D03*
D45*
X115377Y223850D03*
X138562Y223850D03*
D120*
X155330Y223850D03*
D45*
X177480Y223850D03*
D50*
X267529Y223850D03*
D43*
X114963Y224264D03*
D91*
X138355Y224264D03*
X154916Y224264D03*
X177273Y224264D03*
D97*
X266701Y224264D03*
D42*
X114963Y224678D03*
X138148Y224678D03*
D49*
X154916Y224678D03*
X176859Y224678D03*
D96*
X265873Y224678D03*
D45*
X114549Y225092D03*
X137734Y225092D03*
D49*
X154502Y225092D03*
X176859Y225092D03*
D50*
X265045Y225092D03*
D47*
X114549Y225506D03*
X137734Y225506D03*
D91*
X154502Y225506D03*
X176859Y225506D03*
D20*
X264424Y225506D03*
D42*
X114135Y225920D03*
D45*
X137320Y225920D03*
D42*
X154295Y225920D03*
D49*
X176445Y225920D03*
D50*
X263803Y225920D03*
D42*
X114135Y226334D03*
X136906Y226334D03*
D120*
X154088Y226334D03*
D49*
X176445Y226334D03*
D25*
X263182Y226334D03*
D30*
X113928Y226748D03*
D91*
X136699Y226748D03*
D123*
X154088Y226748D03*
D43*
X176238Y226748D03*
D73*
X262768Y226748D03*
D42*
X113721Y227162D03*
D45*
X136492Y227162D03*
D42*
X153881Y227162D03*
X175824Y227162D03*
D100*
X262354Y227162D03*
D30*
X113514Y227576D03*
D87*
X136285Y227576D03*
D91*
X153674Y227576D03*
D43*
X175824Y227576D03*
D24*
X261526Y227576D03*
D45*
X113307Y227990D03*
D28*
X135871Y227990D03*
D49*
X153674Y227990D03*
D28*
X175617Y227990D03*
D26*
X260905Y227990D03*
D45*
X113307Y228404D03*
D28*
X135871Y228404D03*
D45*
X153467Y228404D03*
X175410Y228404D03*
D40*
X260491Y228404D03*
D43*
X112893Y228818D03*
D30*
X135457Y228818D03*
D47*
X153467Y228818D03*
D123*
X174789Y228818D03*
D118*
X260077Y228818D03*
D42*
X112893Y229232D03*
D28*
X135043Y229232D03*
D45*
X153467Y229232D03*
D42*
X174582Y229232D03*
X112893Y229646D03*
D28*
X134629Y229646D03*
D45*
X153467Y229646D03*
X174168Y229646D03*
D123*
X112686Y230061D03*
D33*
X134422Y230061D03*
D30*
X153260Y230061D03*
D47*
X174168Y230061D03*
D42*
X112479Y230475D03*
D36*
X134008Y230475D03*
D28*
X153260Y230475D03*
D42*
X173754Y230475D03*
X112479Y230889D03*
D28*
X133801Y230889D03*
X153260Y230889D03*
D45*
X173340Y230889D03*
D43*
X112479Y231303D03*
D30*
X133387Y231303D03*
X153260Y231303D03*
D87*
X173133Y231303D03*
D42*
X112479Y231717D03*
D28*
X132973Y231717D03*
D42*
X153053Y231717D03*
D28*
X172719Y231717D03*
D42*
X112479Y232131D03*
D28*
X132559Y232131D03*
D42*
X153053Y232131D03*
D28*
X172305Y232131D03*
D30*
X112272Y232545D03*
D43*
X132352Y232545D03*
X153053Y232545D03*
D30*
X171891Y232545D03*
D28*
X112272Y232959D03*
X132145Y232959D03*
D42*
X153053Y232959D03*
D28*
X171477Y232959D03*
D30*
X112272Y233373D03*
D87*
X131731Y233373D03*
D43*
X153053Y233373D03*
D30*
X171063Y233373D03*
D28*
X112272Y233787D03*
D45*
X131524Y233787D03*
D28*
X153260Y233787D03*
X170649Y233787D03*
X112272Y234201D03*
D36*
X130696Y234201D03*
D28*
X153260Y234201D03*
X170235Y234201D03*
D30*
X112272Y234615D03*
D33*
X130282Y234615D03*
D30*
X153260Y234615D03*
X169821Y234615D03*
D28*
X112272Y235029D03*
X130075Y235029D03*
X153260Y235029D03*
X169407Y235029D03*
X112272Y235443D03*
D38*
X129868Y235443D03*
D45*
X153467Y235443D03*
D28*
X168993Y235443D03*
D30*
X112272Y235857D03*
D69*
X129454Y235857D03*
D47*
X153467Y235857D03*
D87*
X168579Y235857D03*
D28*
X112272Y236271D03*
D38*
X129040Y236271D03*
D45*
X153467Y236271D03*
D38*
X167958Y236271D03*
D28*
X112272Y236685D03*
D38*
X128626Y236685D03*
D28*
X153674Y236685D03*
D38*
X167543Y236685D03*
D33*
X112479Y237099D03*
D69*
X128212Y237099D03*
D43*
X153881Y237099D03*
D33*
X167129Y237099D03*
D26*
X112686Y237513D03*
D38*
X127798Y237513D03*
D28*
X154088Y237513D03*
D38*
X166715Y237513D03*
D77*
X112686Y237927D03*
D33*
X127384Y237927D03*
D30*
X154502Y237927D03*
D39*
X166094Y237927D03*
D34*
X113100Y238341D03*
D26*
X126763Y238341D03*
D36*
X154709Y238341D03*
D31*
X165059Y238341D03*
D34*
X113514Y238755D03*
D38*
X126141Y238755D03*
X155123Y238755D03*
D27*
X164438Y238755D03*
D173*
X105026Y239169D03*
D39*
X113514Y239169D03*
D77*
X125520Y239169D03*
D76*
X155951Y239169D03*
D44*
X164024Y239169D03*
D49*
X104405Y239583D03*
D26*
X113928Y239583D03*
D34*
X125106Y239583D03*
D121*
X160091Y239583D03*
D28*
X103577Y239997D03*
D37*
X114135Y239997D03*
D34*
X124692Y239997D03*
D114*
X160091Y239997D03*
D69*
X102956Y240411D03*
D24*
X114549Y240411D03*
D77*
X124278Y240411D03*
D135*
X159884Y240411D03*
D37*
X102542Y240825D03*
D78*
X115170Y240825D03*
D34*
X123864Y240825D03*
D95*
X159677Y240825D03*
D31*
X101714Y241239D03*
D27*
X115998Y241239D03*
D37*
X123243Y241239D03*
D52*
X159470Y241239D03*
D74*
X101093Y241653D03*
D12*
X118896Y241653D03*
D74*
X159056Y241653D03*
D79*
X99851Y242067D03*
D137*
X118896Y242067D03*
D26*
X158642Y242067D03*
D50*
X99437Y242481D03*
D95*
X119103Y242481D03*
D64*
X99230Y242895D03*
D113*
X119310Y242895D03*
D27*
X97781Y243309D03*
D50*
X119310Y243309D03*
D44*
X97367Y243723D03*
X119310Y243723D03*
D37*
X95918Y244137D03*
D49*
X119310Y244137D03*
D26*
X95297Y244551D03*
D24*
X95090Y244965D03*
D38*
X94676Y245379D03*
D42*
X94262Y245793D03*
D30*
X94055Y246207D03*
D28*
X93641Y246621D03*
D38*
X93434Y247035D03*
D30*
X93227Y247449D03*
D28*
X92813Y247863D03*
D30*
X92399Y248277D03*
D28*
X92399Y248691D03*
D42*
X92192Y249105D03*
D30*
X91985Y249519D03*
D91*
X130489Y249519D03*
D42*
X91778Y249933D03*
D86*
X130696Y249933D03*
D42*
X91778Y250347D03*
D174*
X130489Y250347D03*
D91*
X91571Y250762D03*
D175*
X130489Y250762D03*
D45*
X91364Y251176D03*
D159*
X130489Y251176D03*
D45*
X91364Y251590D03*
D127*
X130489Y251590D03*
D47*
X91364Y252004D03*
D140*
X130282Y252004D03*
D45*
X91364Y252418D03*
D116*
X130282Y252418D03*
D45*
X91364Y252832D03*
D27*
X125520Y252832D03*
D100*
X134422Y252832D03*
D47*
X91364Y253246D03*
D29*
X124692Y253246D03*
D24*
X135250Y253246D03*
D45*
X91364Y253660D03*
D34*
X123864Y253660D03*
D28*
X135871Y253660D03*
D30*
X91157Y254074D03*
D33*
X123243Y254074D03*
D47*
X136078Y254074D03*
D28*
X91157Y254488D03*
D38*
X122829Y254488D03*
D45*
X136078Y254488D03*
D28*
X91571Y254902D03*
D36*
X122415Y254902D03*
D45*
X136078Y254902D03*
D30*
X91571Y255316D03*
D33*
X121587Y255316D03*
D47*
X136078Y255316D03*
D45*
X91364Y255730D03*
D40*
X121380Y255730D03*
D45*
X136078Y255730D03*
X91364Y256144D03*
D28*
X120966Y256144D03*
D45*
X136078Y256144D03*
D47*
X91364Y256558D03*
D30*
X120552Y256558D03*
D47*
X136078Y256558D03*
D45*
X91364Y256972D03*
X120345Y256972D03*
D42*
X135664Y256972D03*
D176*
X90950Y257386D03*
D28*
X120138Y257386D03*
D42*
X135664Y257386D03*
D177*
X90950Y257800D03*
D43*
X119931Y257800D03*
X135664Y257800D03*
D176*
X90950Y258214D03*
D28*
X119724Y258214D03*
X135457Y258214D03*
D118*
X90743Y258628D03*
D30*
X119310Y258628D03*
D47*
X135250Y258628D03*
D151*
X90329Y259042D03*
D28*
X118896Y259042D03*
D45*
X135250Y259042D03*
D151*
X90329Y259456D03*
D38*
X118689Y259456D03*
D42*
X134836Y259456D03*
D178*
X90329Y259870D03*
D30*
X118482Y259870D03*
D43*
X134836Y259870D03*
D42*
X118275Y260284D03*
D28*
X134629Y260284D03*
X118068Y260698D03*
D42*
X134422Y260698D03*
D97*
X93227Y261112D03*
D47*
X117861Y261112D03*
D30*
X134215Y261112D03*
D18*
X94055Y261526D03*
D42*
X117447Y261526D03*
D45*
X134008Y261526D03*
D179*
X94262Y261940D03*
D42*
X117447Y261940D03*
D45*
X134008Y261940D03*
D180*
X94262Y262354D03*
D43*
X117447Y262354D03*
D30*
X133801Y262354D03*
D121*
X94262Y262768D03*
D28*
X117240Y262768D03*
X133801Y262768D03*
D164*
X94262Y263182D03*
D45*
X117033Y263182D03*
D28*
X133387Y263182D03*
D111*
X94469Y263596D03*
D47*
X116619Y263596D03*
D30*
X133387Y263596D03*
D65*
X94469Y264010D03*
D45*
X116619Y264010D03*
D28*
X132973Y264010D03*
D88*
X91364Y264424D03*
D24*
X99644Y264424D03*
D47*
X116619Y264424D03*
D30*
X132559Y264424D03*
D174*
X90329Y264838D03*
D38*
X100058Y264838D03*
D42*
X116205Y264838D03*
D28*
X132559Y264838D03*
D25*
X89294Y265252D03*
D28*
X100265Y265252D03*
D42*
X116205Y265252D03*
D28*
X132145Y265252D03*
D32*
X88466Y265666D03*
D87*
X100679Y265666D03*
D43*
X116205Y265666D03*
D47*
X131938Y265666D03*
D37*
X87638Y266080D03*
D45*
X100886Y266080D03*
D42*
X116205Y266080D03*
D40*
X131731Y266080D03*
D34*
X87017Y266494D03*
D49*
X100679Y266494D03*
X115998Y266494D03*
D28*
X131317Y266494D03*
D39*
X86603Y266908D03*
D91*
X100679Y266908D03*
D47*
X115791Y266908D03*
D30*
X131317Y266908D03*
D38*
X86396Y267322D03*
D45*
X100472Y267322D03*
X115791Y267322D03*
D28*
X130903Y267322D03*
D26*
X86189Y267736D03*
D45*
X100472Y267736D03*
X115791Y267736D03*
D36*
X130696Y267736D03*
D39*
X85775Y268150D03*
D47*
X100472Y268150D03*
X115791Y268150D03*
D33*
X130282Y268150D03*
D28*
X85361Y268564D03*
D45*
X100472Y268564D03*
X115791Y268564D03*
D28*
X130075Y268564D03*
D43*
X85154Y268978D03*
D30*
X100265Y268978D03*
D91*
X115584Y268978D03*
D33*
X129868Y268978D03*
D28*
X84946Y269392D03*
X100265Y269392D03*
D49*
X115584Y269392D03*
D36*
X129454Y269392D03*
D40*
X84532Y269806D03*
D28*
X100265Y269806D03*
D49*
X115584Y269806D03*
D38*
X129040Y269806D03*
D30*
X84118Y270220D03*
D43*
X100058Y270220D03*
D91*
X115584Y270220D03*
D77*
X128833Y270220D03*
D38*
X83911Y270634D03*
D28*
X99851Y270634D03*
D45*
X115791Y270634D03*
D38*
X128626Y270634D03*
D36*
X83497Y271048D03*
D28*
X99851Y271048D03*
D45*
X115791Y271048D03*
D36*
X128212Y271048D03*
D69*
X83497Y271463D03*
D30*
X99851Y271463D03*
D91*
X115998Y271463D03*
D33*
X127798Y271463D03*
D38*
X83083Y271877D03*
D45*
X99644Y271877D03*
D49*
X115998Y271877D03*
D26*
X127591Y271877D03*
D38*
X83083Y272291D03*
D28*
X99437Y272291D03*
D42*
X116205Y272291D03*
D34*
X127177Y272291D03*
D30*
X82876Y272705D03*
D43*
X99230Y272705D03*
X116205Y272705D03*
D77*
X126763Y272705D03*
D28*
X82876Y273119D03*
D42*
X99230Y273119D03*
X116205Y273119D03*
D26*
X126348Y273119D03*
D28*
X82462Y273533D03*
D42*
X99230Y273533D03*
D45*
X116619Y273533D03*
D34*
X125934Y273533D03*
D30*
X82462Y273947D03*
X99023Y273947D03*
D47*
X116619Y273947D03*
D77*
X125520Y273947D03*
D28*
X82462Y274361D03*
D42*
X98816Y274361D03*
D40*
X116826Y274361D03*
D38*
X125313Y274361D03*
D30*
X82048Y274775D03*
X98609Y274775D03*
X117240Y274775D03*
D39*
X124692Y274775D03*
D28*
X82048Y275189D03*
X98609Y275189D03*
D38*
X117447Y275189D03*
D34*
X123864Y275189D03*
D42*
X81841Y275603D03*
D28*
X98195Y275603D03*
D63*
X120759Y275603D03*
D30*
X81634Y276017D03*
X98195Y276017D03*
D54*
X120552Y276017D03*
D28*
X81634Y276431D03*
X97781Y276431D03*
D52*
X120552Y276431D03*
D42*
X81427Y276845D03*
D38*
X97574Y276845D03*
D50*
X120138Y276845D03*
D30*
X81220Y277259D03*
X97367Y277259D03*
D99*
X119931Y277259D03*
D28*
X81220Y277673D03*
X96953Y277673D03*
D78*
X119724Y277673D03*
D45*
X81013Y278087D03*
D42*
X96746Y278087D03*
X119517Y278087D03*
D47*
X81013Y278501D03*
D30*
X96539Y278501D03*
D160*
X119517Y278501D03*
D28*
X80806Y278915D03*
X96539Y278915D03*
D43*
X80599Y279329D03*
D87*
X96125Y279329D03*
D42*
X80599Y279743D03*
D40*
X96125Y279743D03*
D42*
X80599Y280157D03*
D38*
X95918Y280157D03*
D43*
X80599Y280571D03*
D33*
X95504Y280571D03*
D49*
X80392Y280985D03*
D28*
X95297Y280985D03*
D49*
X80392Y281399D03*
D38*
X95090Y281399D03*
D91*
X80392Y281813D03*
D87*
X94883Y281813D03*
D49*
X80392Y282227D03*
D40*
X94883Y282227D03*
D45*
X80185Y282641D03*
D28*
X94469Y282641D03*
D47*
X80185Y283055D03*
D43*
X94262Y283055D03*
D45*
X80185Y283469D03*
X93848Y283469D03*
X80185Y283883D03*
D28*
X93641Y283883D03*
D33*
X80185Y284297D03*
D30*
X93227Y284297D03*
D38*
X80185Y284711D03*
D28*
X93227Y284711D03*
D30*
X80392Y285125D03*
X92813Y285125D03*
D38*
X80599Y285539D03*
D28*
X92399Y285539D03*
D38*
X80599Y285953D03*
D28*
X92399Y285953D03*
D33*
X80599Y286367D03*
D30*
X91985Y286367D03*
D36*
X81013Y286781D03*
D28*
X91571Y286781D03*
D36*
X81013Y287195D03*
D45*
X91364Y287195D03*
D39*
X81220Y287609D03*
D30*
X91157Y287609D03*
D34*
X81220Y288023D03*
D28*
X90743Y288023D03*
D26*
X81634Y288437D03*
D40*
X90329Y288437D03*
D24*
X81841Y288851D03*
D33*
X90122Y288851D03*
D34*
X82462Y289265D03*
X89501Y289265D03*
D77*
X82876Y289679D03*
D24*
X88880Y289679D03*
D95*
X85982Y290093D03*
D53*
X85982Y290507D03*
D64*
X85982Y290921D03*
D25*
X85982Y291335D03*
D27*
X85775Y291749D03*
D39*
X85775Y292164D03*
D83*
X73975Y292578D03*
D101*
X85568Y292578D03*
D181*
X73768Y292992D03*
D178*
X72940Y293406D03*
D181*
X72526Y293820D03*
X72526Y294234D03*
D173*
X72319Y294648D03*
D101*
X71905Y295062D03*
D91*
X71698Y295476D03*
D28*
X71284Y295890D03*
X71284Y296304D03*
D148*
X103370Y296304D03*
D33*
X71077Y296718D03*
D39*
X103163Y296718D03*
D38*
X71077Y297132D03*
D86*
X102956Y297132D03*
D34*
X70870Y297546D03*
D103*
X102956Y297546D03*
D47*
X69835Y297960D03*
D138*
X102956Y297960D03*
D45*
X69421Y298374D03*
D63*
X102542Y298374D03*
D42*
X69007Y298788D03*
D55*
X102542Y298788D03*
D91*
X68800Y299202D03*
D44*
X99851Y299202D03*
D77*
X105647Y299202D03*
D49*
X68800Y299616D03*
D22*
X99230Y299616D03*
D38*
X105855Y299616D03*
D102*
X68593Y300030D03*
D76*
X98402Y300030D03*
D33*
X106269Y300030D03*
D49*
X68386Y300444D03*
D26*
X97781Y300444D03*
D40*
X106476Y300444D03*
D49*
X68386Y300858D03*
D36*
X97160Y300858D03*
D45*
X106683Y300858D03*
D123*
X67972Y301272D03*
D30*
X96953Y301272D03*
X106890Y301272D03*
D120*
X67972Y301686D03*
D28*
X96539Y301686D03*
D42*
X107097Y301686D03*
D120*
X67972Y302100D03*
D40*
X96125Y302100D03*
D42*
X107097Y302100D03*
D91*
X67558Y302514D03*
D30*
X95711Y302514D03*
D43*
X107097Y302514D03*
D49*
X67558Y302928D03*
D28*
X95297Y302928D03*
D42*
X107097Y302928D03*
D49*
X67558Y303342D03*
D45*
X95090Y303342D03*
D49*
X107304Y303342D03*
D91*
X67558Y303756D03*
X94883Y303756D03*
X107304Y303756D03*
D45*
X67351Y304170D03*
D49*
X94883Y304170D03*
D42*
X107097Y304170D03*
D45*
X67351Y304584D03*
D49*
X94469Y304584D03*
D42*
X107097Y304584D03*
D47*
X67351Y304998D03*
D43*
X94262Y304998D03*
X107097Y304998D03*
D45*
X67351Y305412D03*
D49*
X94055Y305412D03*
D42*
X107097Y305412D03*
D47*
X67351Y305826D03*
X93848Y305826D03*
D43*
X107097Y305826D03*
D45*
X67351Y306240D03*
D28*
X93641Y306240D03*
D42*
X107097Y306240D03*
D45*
X67351Y306654D03*
D42*
X93434Y306654D03*
D49*
X106890Y306654D03*
D47*
X67351Y307068D03*
D30*
X93227Y307068D03*
D91*
X106890Y307068D03*
D45*
X67351Y307482D03*
D42*
X93020Y307482D03*
D49*
X106890Y307482D03*
D45*
X67351Y307896D03*
D42*
X93020Y307896D03*
D49*
X106890Y307896D03*
D91*
X67144Y308310D03*
D47*
X92606Y308310D03*
D91*
X106890Y308310D03*
D49*
X67144Y308724D03*
D45*
X92606Y308724D03*
D49*
X106890Y308724D03*
X67144Y309138D03*
D45*
X92606Y309138D03*
D49*
X106476Y309138D03*
D91*
X67144Y309552D03*
X92399Y309552D03*
X106476Y309552D03*
D49*
X67144Y309966D03*
X92399Y309966D03*
X106476Y309966D03*
D91*
X67144Y310380D03*
X92399Y310380D03*
X106476Y310380D03*
D49*
X67144Y310794D03*
X92399Y310794D03*
D101*
X106269Y310794D03*
X66937Y311208D03*
D42*
X92192Y311208D03*
D49*
X106062Y311208D03*
D102*
X66937Y311622D03*
D123*
X91985Y311622D03*
D91*
X106062Y311622D03*
D148*
X66937Y312036D03*
D120*
X91985Y312036D03*
D49*
X106062Y312036D03*
D148*
X66937Y312450D03*
D120*
X91985Y312450D03*
D49*
X106062Y312450D03*
D173*
X66937Y312865D03*
D123*
X91985Y312865D03*
D91*
X105648Y312865D03*
D148*
X66937Y313279D03*
D120*
X91985Y313279D03*
D49*
X105648Y313279D03*
D148*
X66937Y313693D03*
D120*
X91985Y313693D03*
D49*
X105648Y313693D03*
D123*
X91985Y314107D03*
D91*
X105233Y314107D03*
D120*
X91985Y314521D03*
D49*
X105233Y314521D03*
D120*
X91985Y314935D03*
D45*
X105026Y314935D03*
D123*
X91985Y315349D03*
D91*
X104819Y315349D03*
D120*
X91985Y315763D03*
D42*
X104612Y315763D03*
D123*
X91985Y316177D03*
D30*
X104405Y316177D03*
D42*
X71491Y316591D03*
D101*
X91778Y316591D03*
D45*
X104198Y316591D03*
D35*
X72112Y317005D03*
D101*
X91778Y317005D03*
D28*
X103991Y317005D03*
D98*
X72526Y317419D03*
D102*
X91778Y317419D03*
D43*
X103784Y317419D03*
D83*
X66523Y317833D03*
D52*
X72526Y317833D03*
D120*
X91985Y317833D03*
D28*
X103577Y317833D03*
D83*
X66523Y318247D03*
D147*
X72112Y318247D03*
D120*
X91985Y318247D03*
D42*
X103370Y318247D03*
D104*
X71905Y318661D03*
D123*
X91985Y318661D03*
D30*
X103163Y318661D03*
D100*
X69007Y319075D03*
D37*
X75631Y319075D03*
D42*
X92192Y319075D03*
D45*
X102956Y319075D03*
D31*
X68593Y319489D03*
D35*
X76252Y319489D03*
D42*
X92192Y319489D03*
X102542Y319489D03*
D41*
X67972Y319903D03*
D24*
X76459Y319903D03*
D43*
X92192Y319903D03*
D30*
X102335Y319903D03*
D34*
X67558Y320317D03*
X76666Y320317D03*
D28*
X92399Y320317D03*
X101921Y320317D03*
D39*
X67144Y320731D03*
X76666Y320731D03*
D30*
X92813Y320731D03*
X101921Y320731D03*
D26*
X66730Y321145D03*
D38*
X76873Y321145D03*
X93020Y321145D03*
D28*
X101507Y321145D03*
D38*
X66523Y321559D03*
D28*
X76666Y321559D03*
D26*
X93227Y321559D03*
D28*
X101093Y321559D03*
D30*
X65902Y321973D03*
D43*
X76873Y321973D03*
D24*
X93848Y321973D03*
D87*
X100679Y321973D03*
D28*
X65902Y322387D03*
D42*
X76873Y322387D03*
D105*
X96953Y322387D03*
D28*
X65488Y322801D03*
D42*
X76873Y322801D03*
D18*
X96953Y322801D03*
D87*
X65074Y323215D03*
D43*
X76873Y323215D03*
D54*
X96539Y323215D03*
D45*
X64867Y323629D03*
D42*
X76873Y323629D03*
D52*
X96539Y323629D03*
D42*
X64453Y324043D03*
D120*
X77080Y324043D03*
D25*
X96332Y324043D03*
D30*
X64245Y324457D03*
D123*
X77080Y324457D03*
D32*
X96332Y324457D03*
D45*
X64038Y324871D03*
D120*
X77080Y324871D03*
D150*
X96539Y324871D03*
D45*
X63624Y325285D03*
D120*
X77080Y325285D03*
D47*
X63624Y325699D03*
D123*
X77080Y325699D03*
D42*
X63210Y326113D03*
D120*
X77080Y326113D03*
D43*
X63210Y326527D03*
D102*
X76873Y326527D03*
D45*
X62796Y326941D03*
D49*
X76666Y326941D03*
X62589Y327355D03*
X76666Y327355D03*
D182*
X144358Y327355D03*
D43*
X62382Y327769D03*
D91*
X76666Y327769D03*
D102*
X144358Y327769D03*
D120*
X62175Y328183D03*
D49*
X76666Y328183D03*
X144151Y328183D03*
D42*
X61968Y328597D03*
D45*
X76459Y328597D03*
D101*
X143944Y328597D03*
D91*
X61761Y329011D03*
X76252Y329011D03*
D123*
X143737Y329011D03*
D45*
X61554Y329425D03*
D49*
X76252Y329425D03*
D101*
X143530Y329425D03*
D45*
X61554Y329839D03*
D42*
X76045Y329839D03*
D49*
X143323Y329839D03*
D91*
X61347Y330253D03*
X75838Y330253D03*
X143323Y330253D03*
D49*
X61347Y330667D03*
X75838Y330667D03*
X142909Y330667D03*
D123*
X60933Y331081D03*
D91*
X75838Y331081D03*
X142909Y331081D03*
D120*
X60933Y331495D03*
D45*
X75631Y331495D03*
D42*
X142702Y331495D03*
D120*
X60933Y331909D03*
D49*
X75424Y331909D03*
X142495Y331909D03*
D102*
X60726Y332323D03*
D91*
X75424Y332323D03*
D47*
X142288Y332323D03*
D101*
X60726Y332737D03*
D49*
X75424Y332737D03*
D45*
X142288Y332737D03*
D49*
X60519Y333151D03*
D45*
X75217Y333151D03*
X141874Y333151D03*
D91*
X60519Y333566D03*
D47*
X75217Y333566D03*
D30*
X141667Y333566D03*
D101*
X60312Y333980D03*
D49*
X75010Y333980D03*
D42*
X141460Y333980D03*
D101*
X60312Y334394D03*
D42*
X74803Y334394D03*
D28*
X141253Y334394D03*
D102*
X60312Y334808D03*
D43*
X74803Y334808D03*
D47*
X141046Y334808D03*
D101*
X60312Y335222D03*
D42*
X74803Y335222D03*
D28*
X140839Y335222D03*
D150*
X60105Y335636D03*
D45*
X74389Y335636D03*
D42*
X140632Y335636D03*
D177*
X59898Y336050D03*
D47*
X74389Y336050D03*
D43*
X140632Y336050D03*
D176*
X59898Y336464D03*
D40*
X74182Y336464D03*
D42*
X140218Y336464D03*
D177*
X59898Y336878D03*
D47*
X73975Y336878D03*
D43*
X140218Y336878D03*
D176*
X59898Y337292D03*
D45*
X73975Y337292D03*
X139804Y337292D03*
D176*
X59898Y337706D03*
D42*
X73561Y337706D03*
D45*
X139804Y337706D03*
D177*
X59898Y338120D03*
D43*
X73561Y338120D03*
D30*
X139597Y338120D03*
D176*
X59898Y338534D03*
D42*
X73561Y338534D03*
D28*
X139597Y338534D03*
D150*
X59691Y338948D03*
D45*
X73147Y338948D03*
D28*
X139183Y338948D03*
D118*
X59691Y339362D03*
D47*
X73147Y339362D03*
D30*
X139183Y339362D03*
D150*
X59691Y339776D03*
D45*
X73147Y339776D03*
D28*
X138769Y339776D03*
D150*
X59691Y340190D03*
D49*
X72940Y340190D03*
D28*
X138769Y340190D03*
D118*
X59691Y340604D03*
D43*
X72733Y340604D03*
D30*
X138355Y340604D03*
D150*
X59691Y341018D03*
D42*
X72733Y341018D03*
D28*
X138355Y341018D03*
D118*
X59691Y341432D03*
D33*
X72319Y341432D03*
D30*
X138355Y341432D03*
D150*
X59691Y341846D03*
D28*
X72112Y341846D03*
X137941Y341846D03*
D176*
X59898Y342260D03*
D28*
X72112Y342260D03*
X137941Y342260D03*
D177*
X59898Y342674D03*
D69*
X71905Y342674D03*
D30*
X137941Y342674D03*
D176*
X59898Y343088D03*
D36*
X71905Y343088D03*
D38*
X137734Y343088D03*
D176*
X59898Y343502D03*
D28*
X71698Y343502D03*
D40*
X137527Y343502D03*
D177*
X59898Y343916D03*
D33*
X71491Y343916D03*
D87*
X137527Y343916D03*
D176*
X59898Y344330D03*
D28*
X71284Y344330D03*
D40*
X137527Y344330D03*
D176*
X59898Y344744D03*
D28*
X71284Y344744D03*
D38*
X137320Y344744D03*
D91*
X60105Y345158D03*
D30*
X70870Y345158D03*
D33*
X137320Y345158D03*
D49*
X60105Y345572D03*
D28*
X70870Y345572D03*
X137113Y345572D03*
D49*
X60105Y345986D03*
D28*
X70456Y345986D03*
X137113Y345986D03*
D102*
X60312Y346400D03*
D30*
X70456Y346400D03*
X137113Y346400D03*
D101*
X60312Y346814D03*
D42*
X70249Y346814D03*
X136906Y346814D03*
D91*
X60519Y347228D03*
D30*
X70042Y347228D03*
D91*
X137113Y347228D03*
D49*
X60519Y347642D03*
D45*
X69835Y347642D03*
D176*
X136906Y347642D03*
D49*
X60519Y348056D03*
D40*
X69628Y348056D03*
D148*
X136906Y348056D03*
D123*
X60933Y348470D03*
D47*
X69421Y348470D03*
D30*
X86189Y348470D03*
D173*
X136906Y348470D03*
D120*
X60933Y348884D03*
D28*
X69214Y348884D03*
D22*
X85982Y348884D03*
D120*
X60933Y349298D03*
D42*
X69007Y349298D03*
D100*
X85982Y349298D03*
D43*
X61140Y349712D03*
D30*
X68800Y349712D03*
D74*
X85775Y349712D03*
D42*
X61140Y350126D03*
D28*
X68386Y350126D03*
D50*
X85775Y350126D03*
D45*
X61554Y350540D03*
D28*
X67972Y350540D03*
D50*
X85775Y350540D03*
D30*
X61761Y350954D03*
D33*
X67765Y350954D03*
D172*
X85775Y350954D03*
D53*
X64867Y351368D03*
D146*
X85775Y351368D03*
D64*
X64453Y351782D03*
D39*
X83290Y351782D03*
D33*
X88880Y351782D03*
D96*
X64245Y352196D03*
D26*
X82876Y352196D03*
D28*
X89087Y352196D03*
D86*
X64038Y352610D03*
D38*
X82669Y352610D03*
D45*
X89294Y352610D03*
D24*
X64038Y353024D03*
D69*
X82255Y353024D03*
D43*
X89708Y353024D03*
D45*
X64038Y353438D03*
D28*
X82048Y353438D03*
D42*
X89708Y353438D03*
D28*
X82048Y353852D03*
D49*
X89915Y353852D03*
D30*
X81634Y354267D03*
D91*
X89915Y354267D03*
D28*
X81634Y354681D03*
D45*
X90122Y354681D03*
D28*
X81220Y355095D03*
D45*
X90122Y355095D03*
D30*
X81220Y355509D03*
D91*
X90329Y355509D03*
D28*
X81220Y355923D03*
D49*
X90329Y355923D03*
D28*
X80806Y356337D03*
D45*
X90536Y356337D03*
D30*
X80806Y356751D03*
D47*
X90536Y356751D03*
D28*
X80806Y357165D03*
D49*
X90743Y357165D03*
D33*
X80599Y357579D03*
D91*
X90743Y357579D03*
D28*
X80392Y357993D03*
D49*
X90743Y357993D03*
D28*
X80392Y358407D03*
D42*
X90950Y358407D03*
D30*
X80392Y358821D03*
D43*
X90950Y358821D03*
D38*
X80185Y359235D03*
D42*
X90950Y359235D03*
D38*
X80185Y359649D03*
D49*
X91157Y359649D03*
D33*
X80185Y360063D03*
D91*
X91157Y360063D03*
D38*
X80185Y360477D03*
D45*
X91364Y360477D03*
D34*
X79978Y360891D03*
D45*
X91364Y360891D03*
D39*
X79978Y361305D03*
D47*
X91364Y361305D03*
D34*
X79978Y361719D03*
D45*
X91364Y361719D03*
D39*
X79978Y362133D03*
D47*
X91364Y362133D03*
D34*
X79978Y362547D03*
D45*
X91364Y362547D03*
D181*
X128833Y362547D03*
D34*
X79978Y362961D03*
D45*
X91364Y362961D03*
D150*
X128833Y362961D03*
D39*
X79978Y363375D03*
D47*
X91364Y363375D03*
D118*
X128833Y363375D03*
D38*
X79771Y363789D03*
D45*
X91364Y363789D03*
D101*
X128626Y363789D03*
D38*
X79771Y364203D03*
D45*
X91364Y364203D03*
D101*
X128626Y364203D03*
D33*
X79771Y364617D03*
D91*
X91571Y364617D03*
D102*
X128626Y364617D03*
D38*
X79771Y365031D03*
D49*
X91571Y365031D03*
D101*
X128626Y365031D03*
D38*
X79771Y365445D03*
D49*
X91571Y365445D03*
X128419Y365445D03*
D33*
X79771Y365859D03*
D91*
X91571Y365859D03*
X128419Y365859D03*
D38*
X79771Y366273D03*
D49*
X91571Y366273D03*
X128419Y366273D03*
D40*
X79978Y366687D03*
D49*
X91571Y366687D03*
D101*
X128212Y366687D03*
D87*
X79978Y367101D03*
D91*
X91571Y367101D03*
X128005Y367101D03*
D40*
X79978Y367515D03*
D49*
X91571Y367515D03*
X128005Y367515D03*
D47*
X79771Y367929D03*
D91*
X91571Y367929D03*
X128005Y367929D03*
D45*
X79771Y368343D03*
D101*
X91364Y368343D03*
D42*
X127798Y368343D03*
D45*
X79771Y368757D03*
D101*
X91364Y368757D03*
D42*
X127798Y368757D03*
D91*
X79978Y369171D03*
D102*
X91364Y369171D03*
D43*
X127798Y369171D03*
D49*
X79978Y369585D03*
D101*
X91364Y369585D03*
D45*
X127384Y369585D03*
D49*
X79978Y369999D03*
X91157Y369999D03*
D45*
X127384Y369999D03*
D47*
X80185Y370413D03*
D91*
X91157Y370413D03*
X127177Y370413D03*
D45*
X80185Y370827D03*
D49*
X91157Y370827D03*
X127177Y370827D03*
D45*
X80185Y371241D03*
D49*
X91157Y371241D03*
D45*
X126970Y371241D03*
D47*
X80185Y371655D03*
D91*
X90743Y371655D03*
X126763Y371655D03*
D45*
X80185Y372069D03*
D49*
X90743Y372069D03*
X126763Y372069D03*
D43*
X80599Y372483D03*
D91*
X90743Y372483D03*
X126763Y372483D03*
D42*
X80599Y372897D03*
D49*
X90743Y372897D03*
X126763Y372897D03*
D42*
X80599Y373311D03*
D101*
X90536Y373311D03*
D49*
X126763Y373311D03*
D30*
X80806Y373725D03*
D91*
X90329Y373725D03*
D177*
X126556Y373725D03*
D45*
X81013Y374139D03*
D49*
X90329Y374139D03*
X126349Y374139D03*
D28*
X81220Y374553D03*
D45*
X90122Y374553D03*
D49*
X126349Y374553D03*
D43*
X81427Y374968D03*
D47*
X90122Y374968D03*
D91*
X126349Y374968D03*
D28*
X81634Y375382D03*
D42*
X89708Y375382D03*
D49*
X126349Y375382D03*
D28*
X82048Y375796D03*
D42*
X89708Y375796D03*
D49*
X126349Y375796D03*
D47*
X82255Y376210D03*
X89294Y376210D03*
D91*
X126349Y376210D03*
D42*
X82669Y376624D03*
X88880Y376624D03*
D49*
X126349Y376624D03*
D38*
X83083Y377038D03*
D28*
X88673Y377038D03*
D49*
X126349Y377038D03*
D39*
X83704Y377452D03*
D30*
X88259Y377452D03*
D102*
X126141Y377452D03*
D50*
X85775Y377866D03*
D101*
X126141Y377866D03*
D20*
X85568Y378280D03*
D102*
X126141Y378280D03*
D27*
X85775Y378694D03*
D101*
X126141Y378694D03*
D35*
X85775Y379108D03*
D101*
X126141Y379108D03*
D33*
X85982Y379522D03*
D102*
X126141Y379522D03*
D101*
X85982Y379936D03*
X126141Y379936D03*
X126141Y380350D03*
D183*
X125934Y380764D03*
D184*
X125934Y381178D03*
D148*
X125727Y381592D03*
D119*
X58656Y387388D03*
D102*
X59484Y387802D03*
D36*
X60312Y388216D03*
D74*
X59691Y388630D03*
D25*
X59484Y389044D03*
D96*
X59691Y389458D03*
D64*
X59484Y389872D03*
D53*
X59484Y390286D03*
D95*
X59484Y390700D03*
D72*
X59484Y391114D03*
D27*
X56793Y391528D03*
D38*
X63210Y391528D03*
D78*
X56379Y391942D03*
D38*
X63624Y391942D03*
D24*
X56172Y392356D03*
D87*
X63831Y392356D03*
D34*
X55965Y392770D03*
D28*
X64245Y392770D03*
D39*
X55551Y393184D03*
D30*
X64245Y393184D03*
D38*
X55344Y393598D03*
D42*
X64453Y393598D03*
D38*
X55344Y394012D03*
D28*
X64660Y394012D03*
D30*
X55137Y394426D03*
D47*
X64867Y394426D03*
D45*
X54930Y394840D03*
D40*
X65074Y394840D03*
D45*
X54930Y395254D03*
X65281Y395254D03*
D87*
X54723Y395669D03*
D30*
X65488Y395669D03*
D45*
X54516Y396083D03*
D42*
X65695Y396083D03*
D45*
X54516Y396497D03*
D42*
X65695Y396497D03*
D91*
X54309Y396911D03*
X65902Y396911D03*
D49*
X54309Y397325D03*
D45*
X66109Y397325D03*
D49*
X54309Y397739D03*
D45*
X66109Y397739D03*
D91*
X54309Y398153D03*
D47*
X66109Y398153D03*
D49*
X54309Y398567D03*
X66316Y398567D03*
D43*
X54102Y398981D03*
X66523Y398981D03*
D49*
X53895Y399395D03*
D42*
X66523Y399395D03*
D49*
X53895Y399809D03*
D42*
X66523Y399809D03*
D91*
X53895Y400223D03*
D30*
X66730Y400223D03*
D39*
X83290Y400223D03*
D49*
X53895Y400637D03*
D28*
X66730Y400637D03*
D35*
X83290Y400637D03*
D49*
X53895Y401051D03*
D42*
X66937Y401051D03*
D22*
X83083Y401051D03*
D91*
X53895Y401465D03*
D43*
X66937Y401465D03*
D99*
X83083Y401465D03*
D49*
X53895Y401879D03*
D42*
X66937Y401879D03*
D46*
X82876Y401879D03*
D42*
X54102Y402293D03*
X66937Y402293D03*
D25*
X83083Y402293D03*
D43*
X54102Y402707D03*
X66937Y402707D03*
D64*
X83083Y402707D03*
D42*
X54102Y403121D03*
X66937Y403121D03*
D28*
X80806Y403121D03*
D40*
X85775Y403121D03*
D43*
X54102Y403535D03*
X66937Y403535D03*
D30*
X80392Y403535D03*
D87*
X85775Y403535D03*
D42*
X54102Y403949D03*
X66937Y403949D03*
D45*
X80185Y403949D03*
D28*
X86189Y403949D03*
D42*
X54102Y404363D03*
X66937Y404363D03*
D45*
X79771Y404363D03*
D42*
X86396Y404363D03*
D30*
X54309Y404777D03*
D43*
X66937Y404777D03*
D91*
X79564Y404777D03*
D30*
X86603Y404777D03*
D45*
X54516Y405191D03*
D49*
X67144Y405191D03*
D42*
X79357Y405191D03*
D28*
X87017Y405191D03*
D45*
X54516Y405605D03*
D49*
X67144Y405605D03*
X79150Y405605D03*
D28*
X87017Y405605D03*
D87*
X54723Y406019D03*
D91*
X67144Y406019D03*
X79150Y406019D03*
D30*
X87431Y406019D03*
D45*
X54930Y406433D03*
D49*
X67144Y406433D03*
D45*
X78943Y406433D03*
D28*
X87431Y406433D03*
D45*
X54930Y406847D03*
D49*
X67144Y406847D03*
D45*
X78943Y406847D03*
D28*
X87845Y406847D03*
D47*
X54930Y407261D03*
D91*
X67144Y407261D03*
D47*
X78943Y407261D03*
D30*
X87845Y407261D03*
D45*
X54930Y407675D03*
D49*
X67144Y407675D03*
D45*
X78943Y407675D03*
D28*
X88259Y407675D03*
D49*
X55137Y408089D03*
X67144Y408089D03*
D45*
X78943Y408089D03*
D28*
X88259Y408089D03*
D91*
X55137Y408503D03*
X67144Y408503D03*
D47*
X78943Y408503D03*
D43*
X88466Y408503D03*
D42*
X55344Y408917D03*
D49*
X67144Y408917D03*
D45*
X78943Y408917D03*
D28*
X88673Y408917D03*
D91*
X55551Y409331D03*
X67144Y409331D03*
D47*
X78943Y409331D03*
D30*
X88673Y409331D03*
D49*
X55551Y409745D03*
X67144Y409745D03*
D45*
X78943Y409745D03*
D42*
X88880Y409745D03*
D49*
X55551Y410159D03*
X67144Y410159D03*
D45*
X78943Y410159D03*
D42*
X88880Y410159D03*
D47*
X55758Y410573D03*
D91*
X67144Y410573D03*
D47*
X78943Y410573D03*
X89294Y410573D03*
D49*
X55965Y410987D03*
X67144Y410987D03*
D45*
X78943Y410987D03*
X89294Y410987D03*
D42*
X56172Y411401D03*
D49*
X67144Y411401D03*
D45*
X78943Y411401D03*
X89294Y411401D03*
D123*
X56379Y411815D03*
D91*
X67144Y411815D03*
D47*
X78943Y411815D03*
D91*
X89501Y411815D03*
D42*
X56586Y412229D03*
D49*
X67144Y412229D03*
D45*
X78943Y412229D03*
D42*
X89708Y412229D03*
X56586Y412643D03*
X66937Y412643D03*
D45*
X78943Y412643D03*
D42*
X89708Y412643D03*
D47*
X57000Y413057D03*
D43*
X66937Y413057D03*
D47*
X78943Y413057D03*
D43*
X89708Y413057D03*
D45*
X57000Y413471D03*
D42*
X66937Y413471D03*
D45*
X78943Y413471D03*
D49*
X89915Y413471D03*
D43*
X57414Y413885D03*
X66937Y413885D03*
D47*
X78943Y413885D03*
X90122Y413885D03*
D42*
X57414Y414299D03*
X66937Y414299D03*
D45*
X78943Y414299D03*
X90122Y414299D03*
D28*
X57621Y414713D03*
D42*
X66937Y414713D03*
D49*
X79150Y414713D03*
D45*
X90122Y414713D03*
D30*
X58035Y415127D03*
D43*
X66937Y415127D03*
D91*
X79150Y415127D03*
D47*
X90536Y415127D03*
D36*
X58242Y415541D03*
D42*
X66937Y415541D03*
D49*
X79150Y415541D03*
D45*
X90536Y415541D03*
D38*
X58656Y415955D03*
D42*
X66937Y415955D03*
D49*
X79150Y415955D03*
D45*
X90536Y415955D03*
D33*
X59070Y416370D03*
D30*
X66730Y416370D03*
D91*
X79150Y416370D03*
D47*
X90536Y416370D03*
D34*
X59277Y416784D03*
D28*
X66730Y416784D03*
D49*
X79150Y416784D03*
D45*
X90536Y416784D03*
D26*
X59691Y417198D03*
D38*
X66523Y417198D03*
D42*
X79357Y417198D03*
D49*
X90743Y417198D03*
D24*
X60312Y417612D03*
D39*
X66316Y417612D03*
D91*
X79564Y417612D03*
X90743Y417612D03*
D18*
X63003Y418026D03*
D49*
X79564Y418026D03*
X90743Y418026D03*
D63*
X63210Y418440D03*
D49*
X79564Y418440D03*
X90743Y418440D03*
D54*
X63417Y418854D03*
D91*
X79564Y418854D03*
X90743Y418854D03*
D52*
X63417Y419268D03*
D101*
X79771Y419268D03*
D49*
X90743Y419268D03*
D20*
X63210Y419682D03*
D91*
X79978Y419682D03*
X90743Y419682D03*
D27*
X63003Y420096D03*
D49*
X79978Y420096D03*
D45*
X90536Y420096D03*
D35*
X63003Y420510D03*
D49*
X79978Y420510D03*
D45*
X90536Y420510D03*
D173*
X64038Y420924D03*
D102*
X80185Y420924D03*
D91*
X90329Y420924D03*
D49*
X80392Y421338D03*
X90329Y421338D03*
X80392Y421752D03*
X90329Y421752D03*
D91*
X80806Y422166D03*
X90329Y422166D03*
D49*
X80806Y422580D03*
X90329Y422580D03*
D45*
X81013Y422994D03*
D49*
X90329Y422994D03*
D91*
X81220Y423408D03*
X90329Y423408D03*
D42*
X81427Y423822D03*
D49*
X90329Y423822D03*
D30*
X81634Y424236D03*
D91*
X89915Y424236D03*
D42*
X81841Y424650D03*
D49*
X89915Y424650D03*
D28*
X82048Y425064D03*
D49*
X89915Y425064D03*
D30*
X82462Y425478D03*
D91*
X89501Y425478D03*
D28*
X82876Y425892D03*
D49*
X89501Y425892D03*
D38*
X83083Y426306D03*
D45*
X89294Y426306D03*
D69*
X83497Y426720D03*
D30*
X89087Y426720D03*
D52*
X86189Y427134D03*
X86189Y427548D03*
D64*
X86396Y427962D03*
D25*
X86396Y428376D03*
D100*
X86396Y428790D03*
D39*
X86603Y429204D03*
D181*
X86603Y429618D03*
D45*
X71905Y432102D03*
D24*
X71491Y432516D03*
D22*
X71077Y432930D03*
D79*
X70870Y433344D03*
D64*
X70663Y433758D03*
D174*
X70870Y434172D03*
D30*
X67972Y434586D03*
D69*
X73147Y434586D03*
D42*
X67765Y435000D03*
D38*
X73561Y435000D03*
D42*
X67765Y435414D03*
D38*
X73975Y435414D03*
D91*
X67558Y435828D03*
D87*
X74182Y435828D03*
D49*
X67558Y436242D03*
D28*
X74596Y436242D03*
D49*
X67144Y436656D03*
D38*
X74803Y436656D03*
D91*
X67144Y437071D03*
D30*
X75010Y437071D03*
D49*
X67144Y437485D03*
D40*
X75424Y437485D03*
D42*
X66523Y437899D03*
D40*
X75424Y437899D03*
D43*
X66523Y438313D03*
D30*
X75838Y438313D03*
D42*
X66523Y438727D03*
X76045Y438727D03*
X66523Y439141D03*
D28*
X76252Y439141D03*
D43*
X66523Y439555D03*
D47*
X76459Y439555D03*
D42*
X66523Y439969D03*
D28*
X76666Y439969D03*
D43*
X66523Y440383D03*
X76873Y440383D03*
D42*
X66523Y440797D03*
D28*
X77080Y440797D03*
D42*
X66523Y441211D03*
X77287Y441211D03*
D123*
X66730Y441625D03*
D30*
X77494Y441625D03*
D120*
X66730Y442039D03*
D45*
X77701Y442039D03*
D120*
X66730Y442453D03*
D45*
X77701Y442453D03*
D123*
X66730Y442867D03*
D43*
X78115Y442867D03*
D120*
X66730Y443281D03*
D42*
X78115Y443281D03*
D120*
X66730Y443695D03*
D42*
X78115Y443695D03*
D43*
X66937Y444109D03*
X78529Y444109D03*
D42*
X66937Y444523D03*
X78529Y444523D03*
D43*
X66937Y444937D03*
D91*
X78736Y444937D03*
D49*
X67144Y445351D03*
D45*
X78943Y445351D03*
D49*
X67144Y445765D03*
D45*
X78943Y445765D03*
D91*
X67558Y446179D03*
X79150Y446179D03*
D49*
X67558Y446593D03*
D42*
X79357Y446593D03*
D49*
X67558Y447007D03*
D42*
X79357Y447007D03*
D43*
X67765Y447421D03*
D91*
X79564Y447421D03*
D42*
X67765Y447835D03*
D49*
X79564Y447835D03*
D120*
X67972Y448249D03*
D45*
X79771Y448249D03*
D43*
X68179Y448663D03*
D47*
X79771Y448663D03*
D42*
X68179Y449077D03*
D45*
X79771Y449077D03*
D42*
X68179Y449491D03*
D49*
X79978Y449491D03*
D47*
X68593Y449905D03*
X80185Y449905D03*
D45*
X68593Y450319D03*
X80185Y450319D03*
D43*
X69007Y450733D03*
D47*
X80185Y450733D03*
D91*
X93641Y450733D03*
D42*
X69007Y451147D03*
D49*
X80392Y451147D03*
D37*
X93434Y451147D03*
D45*
X69421Y451561D03*
D49*
X80392Y451561D03*
D22*
X93434Y451561D03*
D47*
X69421Y451975D03*
D91*
X80392Y451975D03*
D99*
X93434Y451975D03*
D45*
X69835Y452389D03*
D49*
X80392Y452389D03*
D79*
X93641Y452389D03*
D28*
X70042Y452803D03*
D42*
X80599Y452803D03*
D50*
X93641Y452803D03*
D43*
X70249Y453217D03*
X80599Y453217D03*
D51*
X93848Y453217D03*
D28*
X70456Y453631D03*
D42*
X80599Y453631D03*
D34*
X91571Y453631D03*
X96125Y453631D03*
D28*
X70870Y454045D03*
D42*
X80599Y454045D03*
D36*
X91364Y454045D03*
D38*
X96332Y454045D03*
D33*
X71491Y454459D03*
D30*
X80392Y454459D03*
X91157Y454459D03*
D33*
X96746Y454459D03*
D36*
X71905Y454873D03*
D45*
X80185Y454873D03*
D28*
X91157Y454873D03*
D36*
X97160Y454873D03*
D77*
X72526Y455287D03*
D87*
X79978Y455287D03*
D43*
X90950Y455287D03*
D30*
X97367Y455287D03*
D35*
X73354Y455701D03*
D38*
X79771Y455701D03*
D42*
X90950Y455701D03*
D28*
X97781Y455701D03*
D55*
X76459Y456115D03*
D42*
X90950Y456115D03*
X97988Y456115D03*
D88*
X76459Y456529D03*
D91*
X90743Y456529D03*
D30*
X98195Y456529D03*
D95*
X76459Y456943D03*
D49*
X90743Y456943D03*
D45*
X98402Y456943D03*
D53*
X76459Y457357D03*
D42*
X90950Y457357D03*
D28*
X98609Y457357D03*
D76*
X77701Y457772D03*
D43*
X90950Y457772D03*
X98816Y457772D03*
D35*
X77494Y458186D03*
D49*
X91157Y458186D03*
D28*
X99023Y458186D03*
X77908Y458600D03*
D49*
X91157Y458600D03*
D42*
X99230Y458600D03*
D178*
X76666Y459014D03*
D91*
X91157Y459014D03*
X99437Y459014D03*
D49*
X91157Y459428D03*
D45*
X99644Y459428D03*
X91364Y459842D03*
D49*
X99851Y459842D03*
D91*
X91571Y460256D03*
X100265Y460256D03*
D49*
X91571Y460670D03*
X100265Y460670D03*
D91*
X91571Y461084D03*
D47*
X100472Y461084D03*
D42*
X91778Y461498D03*
D49*
X100679Y461498D03*
D120*
X91985Y461912D03*
D49*
X100679Y461912D03*
D123*
X91985Y462326D03*
D47*
X100886Y462326D03*
D42*
X92192Y462740D03*
D45*
X100886Y462740D03*
D49*
X92399Y463154D03*
D42*
X101300Y463154D03*
D91*
X92399Y463568D03*
D43*
X101300Y463568D03*
D49*
X92813Y463982D03*
D42*
X101300Y463982D03*
D49*
X92813Y464396D03*
D45*
X101714Y464396D03*
D43*
X93020Y464810D03*
D47*
X101714Y464810D03*
D120*
X93227Y465224D03*
D49*
X101921Y465224D03*
D43*
X93434Y465638D03*
X102128Y465638D03*
D49*
X93641Y466052D03*
D120*
X102335Y466052D03*
D49*
X93641Y466466D03*
D120*
X102335Y466466D03*
D47*
X93848Y466880D03*
D43*
X102542Y466880D03*
D49*
X94055Y467294D03*
X102749Y467294D03*
D42*
X94262Y467708D03*
D49*
X102749Y467708D03*
D91*
X94469Y468122D03*
X102749Y468122D03*
D45*
X94676Y468536D03*
D49*
X102749Y468536D03*
D45*
X94676Y468950D03*
X102956Y468950D03*
D47*
X95090Y469364D03*
D91*
X103163Y469364D03*
D45*
X95090Y469778D03*
D49*
X103163Y469778D03*
D42*
X95504Y470192D03*
D49*
X103163Y470192D03*
D47*
X95918Y470606D03*
D91*
X103163Y470606D03*
D45*
X96332Y471020D03*
D49*
X103163Y471020D03*
D47*
X96332Y471434D03*
D91*
X103163Y471434D03*
D28*
X96539Y471848D03*
D49*
X103163Y471848D03*
D42*
X96746Y472262D03*
D49*
X103163Y472262D03*
D47*
X97160Y472676D03*
D91*
X102749Y472676D03*
D21*
X100058Y473090D03*
D38*
X83911Y473504D03*
D96*
X100265Y473504D03*
D41*
X84118Y473918D03*
D20*
X100472Y473918D03*
D27*
X84532Y474332D03*
D86*
X100472Y474332D03*
X84739Y474746D03*
D75*
X100679Y474746D03*
D74*
X84947Y475160D03*
D29*
X100679Y475160D03*
D143*
X85154Y475574D03*
D40*
X100679Y475574D03*
D123*
X82876Y475988D03*
D24*
X86810Y475988D03*
D28*
X82048Y476402D03*
D26*
X87431Y476402D03*
D42*
X81841Y476816D03*
D34*
X87845Y476816D03*
D43*
X81841Y477230D03*
D69*
X88052Y477230D03*
D42*
X81841Y477644D03*
D38*
X88466Y477644D03*
D120*
X81634Y478058D03*
D38*
X88880Y478058D03*
D123*
X81634Y478473D03*
D69*
X89294Y478473D03*
D42*
X81427Y478887D03*
D38*
X89708Y478887D03*
D42*
X81427Y479301D03*
D28*
X89915Y479301D03*
D43*
X81427Y479715D03*
D87*
X90329Y479715D03*
D42*
X81427Y480129D03*
D45*
X90536Y480129D03*
D42*
X81427Y480543D03*
X90950Y480543D03*
D43*
X81427Y480957D03*
X90950Y480957D03*
D42*
X81427Y481371D03*
D45*
X91364Y481371D03*
D43*
X81427Y481785D03*
X91778Y481785D03*
D42*
X81427Y482199D03*
X91778Y482199D03*
D120*
X81634Y482613D03*
D42*
X91778Y482613D03*
D43*
X81841Y483027D03*
X92192Y483027D03*
D42*
X81841Y483441D03*
X92192Y483441D03*
X81841Y483855D03*
D28*
X92399Y483855D03*
D47*
X82255Y484269D03*
X92606Y484269D03*
D45*
X82255Y484683D03*
D28*
X92813Y484683D03*
D45*
X82255Y485097D03*
D42*
X93020Y485097D03*
D43*
X82669Y485511D03*
D123*
X93227Y485511D03*
D42*
X82669Y485925D03*
X93434Y485925D03*
D43*
X82669Y486339D03*
D91*
X93641Y486339D03*
D42*
X83083Y486753D03*
D45*
X93848Y486753D03*
D42*
X83083Y487167D03*
D45*
X93848Y487167D03*
D47*
X83497Y487581D03*
D91*
X94055Y487581D03*
D45*
X83497Y487995D03*
D42*
X94262Y487995D03*
X83911Y488409D03*
X94262Y488409D03*
D43*
X83911Y488823D03*
D91*
X94469Y488823D03*
D45*
X84325Y489237D03*
X94676Y489237D03*
D40*
X84532Y489651D03*
D45*
X94676Y489651D03*
D47*
X84739Y490065D03*
D91*
X94883Y490065D03*
D28*
X84946Y490479D03*
D45*
X95090Y490479D03*
D42*
X85154Y490893D03*
D45*
X95090Y490893D03*
D30*
X85361Y491307D03*
D91*
X95297Y491307D03*
D38*
X85568Y491721D03*
D42*
X95504Y491721D03*
D87*
X85775Y492135D03*
D91*
X95711Y492135D03*
D28*
X86189Y492549D03*
D49*
X95711Y492549D03*
D38*
X86396Y492963D03*
D45*
X95918Y492963D03*
D184*
X108546Y492963D03*
D69*
X86810Y493377D03*
D91*
X96125Y493377D03*
D30*
X108546Y493377D03*
D38*
X87224Y493791D03*
D49*
X96125Y493791D03*
D35*
X108546Y493791D03*
D38*
X87638Y494205D03*
D49*
X96125Y494205D03*
D27*
X108546Y494205D03*
D39*
X87845Y494619D03*
D91*
X96125Y494619D03*
D74*
X108546Y494619D03*
D34*
X88259Y495033D03*
D45*
X96332Y495033D03*
D25*
X108753Y495033D03*
D26*
X88673Y495447D03*
D45*
X96332Y495447D03*
D103*
X108753Y495447D03*
D39*
X89087Y495861D03*
D47*
X96332Y495861D03*
D33*
X106683Y495861D03*
X110823Y495861D03*
D37*
X89708Y496275D03*
D45*
X96332Y496275D03*
X106269Y496275D03*
D38*
X111237Y496275D03*
D29*
X90329Y496689D03*
D87*
X96125Y496689D03*
D43*
X105855Y496689D03*
D33*
X111651Y496689D03*
D95*
X93020Y497103D03*
D42*
X105855Y497103D03*
D28*
X111858Y497103D03*
D95*
X93020Y497517D03*
D42*
X105855Y497517D03*
D28*
X112272Y497517D03*
D185*
X93227Y497931D03*
D43*
X105855Y497931D03*
D30*
X112272Y497931D03*
D50*
X93641Y498345D03*
D42*
X105855Y498345D03*
D28*
X112686Y498345D03*
D79*
X94055Y498759D03*
D42*
X105855Y498759D03*
X112893Y498759D03*
D32*
X94262Y499174D03*
D43*
X105855Y499174D03*
D30*
X113100Y499174D03*
D78*
X94469Y499588D03*
D42*
X105855Y499588D03*
D45*
X113307Y499588D03*
D28*
X106062Y500002D03*
X113514Y500002D03*
D30*
X106062Y500416D03*
D43*
X113721Y500416D03*
D28*
X106062Y500830D03*
D42*
X113721Y500830D03*
D28*
X106062Y501244D03*
D42*
X114135Y501244D03*
D87*
X106476Y501658D03*
D43*
X114135Y501658D03*
D40*
X106476Y502072D03*
D45*
X114549Y502072D03*
D87*
X106476Y502486D03*
D47*
X114549Y502486D03*
D40*
X106476Y502900D03*
D49*
X114756Y502900D03*
D40*
X106476Y503314D03*
D42*
X114963Y503314D03*
D30*
X106890Y503728D03*
D43*
X114963Y503728D03*
D28*
X106890Y504142D03*
D49*
X115170Y504142D03*
D28*
X107304Y504556D03*
D45*
X115377Y504556D03*
D30*
X107304Y504970D03*
D91*
X115584Y504970D03*
D28*
X107304Y505384D03*
D45*
X115791Y505384D03*
X107511Y505798D03*
X115791Y505798D03*
D43*
X107925Y506212D03*
D91*
X115998Y506212D03*
D42*
X107925Y506626D03*
D49*
X115998Y506626D03*
D43*
X107925Y507040D03*
X116205Y507040D03*
D42*
X108339Y507454D03*
D49*
X116412Y507454D03*
D42*
X108339Y507868D03*
D49*
X116412Y507868D03*
D30*
X108546Y508282D03*
D91*
X116412Y508282D03*
D28*
X108960Y508696D03*
D49*
X116826Y508696D03*
D28*
X109374Y509110D03*
D49*
X116826Y509110D03*
D30*
X109374Y509524D03*
D91*
X116826Y509524D03*
D28*
X109788Y509938D03*
D49*
X116826Y509938D03*
D28*
X110202Y510352D03*
D49*
X116826Y510352D03*
D30*
X110616Y510766D03*
D91*
X116826Y510766D03*
D40*
X111030Y511180D03*
D49*
X116826Y511180D03*
D28*
X111444Y511594D03*
D49*
X116826Y511594D03*
D69*
X112065Y512008D03*
D33*
X116205Y512008D03*
D25*
X114135Y512422D03*
D74*
X114342Y512836D03*
D27*
X114342Y513250D03*
D35*
X114342Y513664D03*
D39*
X114342Y514078D03*
D45*
X114549Y514492D03*
D39*
X103991Y517390D03*
D35*
X103991Y517804D03*
X103991Y518218D03*
D44*
X103991Y518632D03*
D86*
X104198Y519046D03*
D79*
X104405Y519460D03*
D102*
X102128Y519875D03*
D47*
X106269Y519875D03*
D49*
X101921Y520289D03*
D45*
X106683Y520289D03*
D101*
X101714Y520703D03*
D28*
X106890Y520703D03*
D102*
X101714Y521117D03*
D43*
X107097Y521117D03*
D49*
X101507Y521531D03*
X107304Y521531D03*
X101507Y521945D03*
D45*
X107511Y521945D03*
D91*
X101507Y522359D03*
X107718Y522359D03*
D49*
X101507Y522773D03*
X107718Y522773D03*
D91*
X101507Y523187D03*
D123*
X108132Y523187D03*
D49*
X101507Y523601D03*
D120*
X108132Y523601D03*
D49*
X101921Y524015D03*
D42*
X108339Y524015D03*
D91*
X101921Y524429D03*
D43*
X108339Y524429D03*
D49*
X101921Y524843D03*
X108546Y524843D03*
X101921Y525257D03*
D45*
X108753Y525257D03*
D91*
X101921Y525671D03*
D47*
X108753Y525671D03*
D120*
X102335Y526085D03*
D42*
X109167Y526085D03*
D120*
X102335Y526499D03*
D42*
X109167Y526499D03*
D123*
X102335Y526913D03*
X109374Y526913D03*
D120*
X102335Y527327D03*
X109374Y527327D03*
D43*
X102542Y527741D03*
D91*
X109788Y527741D03*
D49*
X102749Y528155D03*
X109788Y528155D03*
X102749Y528569D03*
X109788Y528569D03*
D47*
X102956Y528983D03*
X109995Y528983D03*
D49*
X103163Y529397D03*
X110202Y529397D03*
D42*
X103370Y529811D03*
D49*
X110202Y529811D03*
D43*
X103370Y530225D03*
D91*
X110202Y530225D03*
D42*
X103784Y530639D03*
D49*
X110616Y530639D03*
D42*
X103784Y531053D03*
D49*
X110616Y531053D03*
D43*
X103784Y531467D03*
D91*
X110616Y531467D03*
D45*
X104198Y531881D03*
D49*
X110616Y531881D03*
D150*
X120552Y531881D03*
D49*
X104405Y532295D03*
D45*
X110823Y532295D03*
D28*
X120552Y532295D03*
D43*
X104612Y532709D03*
D91*
X111030Y532709D03*
D33*
X120759Y532709D03*
D49*
X104819Y533123D03*
X111030Y533123D03*
D37*
X120759Y533123D03*
D87*
X105233Y533537D03*
D91*
X111030Y533537D03*
D24*
X120759Y533537D03*
D28*
X105647Y533951D03*
D49*
X111030Y533951D03*
D22*
X120759Y533951D03*
D38*
X105855Y534365D03*
D49*
X111030Y534365D03*
D27*
X120966Y534365D03*
D39*
X106476Y534779D03*
D91*
X111030Y534779D03*
D44*
X120966Y534779D03*
D50*
X108546Y535193D03*
D79*
X120966Y535193D03*
D50*
X108546Y535607D03*
D25*
X121173Y535607D03*
D20*
X108753Y536021D03*
D30*
X118896Y536021D03*
D33*
X122829Y536021D03*
D79*
X108960Y536435D03*
D42*
X118689Y536435D03*
D38*
X123243Y536435D03*
D79*
X108960Y536849D03*
D120*
X118482Y536849D03*
D28*
X123450Y536849D03*
D99*
X109167Y537263D03*
D102*
X118275Y537263D03*
D47*
X123657Y537263D03*
D27*
X109374Y537677D03*
D101*
X118275Y537677D03*
D28*
X123864Y537677D03*
D32*
X109581Y538091D03*
D102*
X118275Y538091D03*
D43*
X124071Y538091D03*
D35*
X109788Y538505D03*
D101*
X118275Y538505D03*
D28*
X124278Y538505D03*
D37*
X109995Y538919D03*
D101*
X118275Y538919D03*
D42*
X124485Y538919D03*
D39*
X110202Y539333D03*
D102*
X118275Y539333D03*
D43*
X124485Y539333D03*
D38*
X110409Y539747D03*
D101*
X118275Y539747D03*
D45*
X124899Y539747D03*
X110823Y540161D03*
D101*
X118275Y540161D03*
D45*
X124899Y540161D03*
D123*
X118482Y540576D03*
D91*
X125106Y540576D03*
D120*
X118482Y540990D03*
D42*
X125313Y540990D03*
D120*
X118482Y541404D03*
D49*
X125520Y541404D03*
D123*
X118482Y541818D03*
D91*
X125520Y541818D03*
D120*
X118482Y542232D03*
D45*
X125727Y542232D03*
D120*
X118482Y542646D03*
D49*
X125934Y542646D03*
D43*
X118689Y543060D03*
D91*
X125934Y543060D03*
D42*
X118689Y543474D03*
D45*
X126141Y543474D03*
D43*
X118689Y543888D03*
D91*
X126349Y543888D03*
D49*
X118896Y544302D03*
X126349Y544302D03*
D45*
X119103Y544716D03*
D49*
X126349Y544716D03*
D47*
X119103Y545130D03*
D43*
X126556Y545130D03*
D42*
X119517Y545544D03*
X126556Y545544D03*
X119517Y545958D03*
D49*
X126763Y545958D03*
D123*
X119724Y546372D03*
D91*
X126763Y546372D03*
D42*
X119931Y546786D03*
D49*
X126763Y546786D03*
X120138Y547200D03*
D45*
X126970Y547200D03*
D47*
X120345Y547614D03*
X126970Y547614D03*
D42*
X120759Y548028D03*
D45*
X126970Y548028D03*
D43*
X120759Y548442D03*
D91*
X127177Y548442D03*
D45*
X121173Y548856D03*
D49*
X127177Y548856D03*
X121380Y549270D03*
X127177Y549270D03*
D47*
X121587Y549684D03*
D91*
X127177Y549684D03*
D42*
X122001Y550098D03*
D45*
X127384Y550098D03*
X122415Y550512D03*
X127384Y550512D03*
D30*
X122622Y550926D03*
D87*
X127177Y550926D03*
D50*
X125106Y551340D03*
D79*
X125106Y551754D03*
D99*
X125313Y552168D03*
D22*
X125313Y552582D03*
X125313Y552996D03*
D77*
X125520Y553410D03*
D28*
X125520Y553824D03*
D91*
X125520Y554238D03*
D119*
X111651Y554652D03*
D83*
X115377Y554652D03*
D181*
X111444Y555066D03*
D28*
X114342Y555066D03*
D32*
X113721Y555480D03*
D22*
X113721Y555894D03*
D27*
X113514Y556308D03*
D99*
X113721Y556722D03*
D25*
X113721Y557136D03*
D42*
X111651Y557550D03*
D28*
X115998Y557550D03*
D91*
X111444Y557964D03*
D43*
X116205Y557964D03*
D49*
X111030Y558378D03*
D45*
X116619Y558378D03*
D91*
X111030Y558792D03*
D47*
X116619Y558792D03*
D49*
X110616Y559206D03*
D45*
X116619Y559206D03*
D49*
X110616Y559620D03*
X116826Y559620D03*
D91*
X110616Y560034D03*
X116826Y560034D03*
D176*
X110409Y560448D03*
D49*
X116826Y560448D03*
X110202Y560862D03*
D101*
X117033Y560862D03*
D91*
X110202Y561277D03*
D102*
X117033Y561277D03*
D49*
X110202Y561691D03*
X117240Y561691D03*
X110202Y562105D03*
X117240Y562105D03*
D102*
X109995Y562519D03*
D91*
X117240Y562519D03*
D101*
X109995Y562933D03*
D49*
X117240Y562933D03*
D101*
X109995Y563347D03*
D49*
X117240Y563347D03*
D102*
X109995Y563761D03*
D91*
X117240Y563761D03*
D101*
X109995Y564175D03*
D49*
X117240Y564175D03*
D102*
X109995Y564589D03*
D91*
X117240Y564589D03*
D101*
X109995Y565003D03*
D49*
X117240Y565003D03*
D101*
X109995Y565417D03*
D49*
X117240Y565417D03*
D102*
X109995Y565831D03*
D91*
X117240Y565831D03*
D49*
X110202Y566245D03*
X117240Y566245D03*
X110202Y566659D03*
D45*
X117033Y566659D03*
D91*
X110202Y567073D03*
D47*
X117033Y567073D03*
D49*
X110202Y567487D03*
D45*
X117033Y567487D03*
D49*
X110202Y567901D03*
D45*
X117033Y567901D03*
D91*
X110202Y568315D03*
D47*
X117033Y568315D03*
D49*
X110202Y568729D03*
D45*
X117033Y568729D03*
D43*
X110409Y569143D03*
D47*
X117033Y569143D03*
D42*
X110409Y569557D03*
D45*
X117033Y569557D03*
D184*
X127177Y569557D03*
D49*
X110616Y569971D03*
D40*
X116826Y569971D03*
D45*
X126970Y569971D03*
D47*
X110823Y570385D03*
X116619Y570385D03*
D33*
X126970Y570385D03*
D45*
X111237Y570799D03*
D28*
X116412Y570799D03*
D38*
X126970Y570799D03*
D28*
X111444Y571213D03*
D38*
X116205Y571213D03*
D26*
X126763Y571213D03*
D97*
X113928Y571627D03*
D29*
X126763Y571627D03*
D25*
X113721Y572041D03*
D22*
X126556Y572041D03*
D46*
X113928Y572455D03*
D22*
X126556Y572455D03*
D44*
X113928Y572869D03*
D99*
X126556Y572869D03*
D27*
X113928Y573283D03*
D45*
X124899Y573283D03*
X128212Y573283D03*
D78*
X113928Y573697D03*
D42*
X124485Y573697D03*
D49*
X128419Y573697D03*
D77*
X113928Y574111D03*
D123*
X124278Y574111D03*
X128833Y574111D03*
D38*
X114135Y574525D03*
D49*
X123864Y574525D03*
D120*
X128833Y574525D03*
D91*
X123864Y574939D03*
D123*
X128833Y574939D03*
D49*
X123450Y575353D03*
D42*
X129040Y575353D03*
D49*
X123450Y575767D03*
D42*
X129040Y575767D03*
D43*
X123243Y576181D03*
D91*
X129247Y576181D03*
D120*
X123036Y576595D03*
D49*
X129247Y576595D03*
D120*
X123036Y577009D03*
D49*
X129247Y577009D03*
D43*
X122829Y577423D03*
D47*
X129454Y577423D03*
D42*
X122829Y577837D03*
D45*
X129454Y577837D03*
D49*
X122622Y578251D03*
D45*
X129454Y578251D03*
D91*
X122622Y578665D03*
D47*
X129454Y578665D03*
D49*
X122622Y579079D03*
D45*
X129454Y579079D03*
D91*
X122622Y579493D03*
D47*
X129454Y579493D03*
D49*
X122622Y579907D03*
D45*
X129454Y579907D03*
D49*
X122622Y580321D03*
D45*
X129454Y580321D03*
D91*
X122622Y580735D03*
D47*
X129454Y580735D03*
D49*
X122622Y581149D03*
D45*
X129454Y581149D03*
D49*
X122622Y581563D03*
D45*
X129454Y581563D03*
D91*
X122622Y581978D03*
D47*
X129454Y581978D03*
D49*
X122622Y582392D03*
D45*
X129454Y582392D03*
D49*
X122622Y582806D03*
D45*
X129454Y582806D03*
D33*
X112893Y583220D03*
D91*
X122622Y583220D03*
D30*
X129247Y583220D03*
D26*
X112686Y583634D03*
D49*
X122622Y583634D03*
D28*
X129247Y583634D03*
D37*
X112479Y584048D03*
D49*
X122622Y584048D03*
D28*
X129247Y584048D03*
D29*
X112272Y584462D03*
D91*
X122622Y584462D03*
D30*
X128833Y584462D03*
D31*
X112065Y584876D03*
D42*
X122829Y584876D03*
D28*
X128833Y584876D03*
D74*
X111858Y585290D03*
D123*
X123036Y585290D03*
D33*
X128626Y585290D03*
D79*
X111858Y585704D03*
D120*
X123036Y585704D03*
D28*
X128419Y585704D03*
D143*
X111651Y586118D03*
D120*
X123036Y586118D03*
D36*
X128212Y586118D03*
D43*
X109167Y586532D03*
D30*
X113514Y586532D03*
D43*
X123243Y586532D03*
D33*
X127798Y586532D03*
D45*
X108753Y586946D03*
D120*
X113928Y586946D03*
D45*
X123657Y586946D03*
D26*
X127591Y586946D03*
D42*
X108339Y587360D03*
D120*
X113928Y587360D03*
D50*
X125934Y587360D03*
D30*
X108132Y587774D03*
D123*
X113928Y587774D03*
D20*
X126141Y587774D03*
D42*
X107925Y588188D03*
D120*
X113928Y588188D03*
D79*
X125934Y588188D03*
D28*
X107718Y588602D03*
D120*
X113928Y588602D03*
D27*
X125934Y588602D03*
D30*
X107718Y589016D03*
D123*
X113928Y589016D03*
D32*
X125727Y589016D03*
D36*
X107511Y589430D03*
D120*
X113928Y589430D03*
D37*
X125727Y589430D03*
D30*
X107304Y589844D03*
D123*
X113928Y589844D03*
D33*
X125727Y589844D03*
D28*
X107304Y590258D03*
D101*
X113721Y590258D03*
D45*
X125727Y590258D03*
D38*
X107097Y590672D03*
D49*
X113514Y590672D03*
D150*
X125520Y590672D03*
D33*
X107097Y591086D03*
D91*
X113514Y591086D03*
D38*
X107097Y591500D03*
D49*
X113514Y591500D03*
D38*
X107097Y591914D03*
D101*
X113307Y591914D03*
D33*
X107097Y592328D03*
D102*
X113307Y592328D03*
D28*
X106890Y592742D03*
D101*
X112893Y592742D03*
D42*
X107097Y593156D03*
D120*
X112686Y593156D03*
D43*
X107097Y593570D03*
X112479Y593570D03*
D42*
X107097Y593984D03*
D49*
X112272Y593984D03*
D42*
X107097Y594398D03*
D49*
X111858Y594398D03*
D47*
X107511Y594812D03*
D43*
X111651Y594812D03*
D28*
X107718Y595226D03*
D45*
X111237Y595226D03*
D99*
X109581Y595640D03*
D27*
X109374Y596054D03*
D22*
X109167Y596468D03*
D24*
X109167Y596882D03*
D37*
X109167Y597296D03*
D148*
X117861Y598952D03*
D47*
X117861Y599366D03*
D34*
X117654Y599780D03*
D24*
X117447Y600194D03*
D78*
X117240Y600608D03*
D22*
X117033Y601022D03*
D186*
X105026Y601436D03*
D99*
X117033Y601436D03*
D78*
X104819Y601850D03*
D28*
X115170Y601850D03*
D42*
X118689Y601850D03*
D86*
X104198Y602264D03*
D45*
X114549Y602264D03*
D42*
X118689Y602264D03*
D51*
X104198Y602679D03*
D43*
X114135Y602679D03*
D123*
X118482Y602679D03*
D80*
X103784Y603093D03*
D42*
X113721Y603093D03*
D120*
X118482Y603093D03*
D131*
X103577Y603507D03*
D45*
X113307Y603507D03*
D120*
X118482Y603507D03*
D54*
X103163Y603921D03*
D43*
X112893Y603921D03*
D123*
X118482Y603921D03*
D95*
X102956Y604335D03*
D120*
X112686Y604335D03*
X118482Y604335D03*
D34*
X99851Y604749D03*
D26*
X105647Y604749D03*
D49*
X112272Y604749D03*
D120*
X118482Y604749D03*
D30*
X99023Y605163D03*
X106062Y605163D03*
D91*
X112272Y605163D03*
D43*
X118275Y605163D03*
D28*
X98609Y605577D03*
D42*
X105855Y605577D03*
D101*
X112065Y605577D03*
D49*
X118068Y605577D03*
D43*
X97988Y605991D03*
X105855Y605991D03*
D91*
X111858Y605991D03*
X118068Y605991D03*
D120*
X97781Y606405D03*
D49*
X105648Y606405D03*
X111858Y606405D03*
D45*
X117861Y606405D03*
D42*
X97574Y606819D03*
D45*
X105440Y606819D03*
D176*
X111651Y606819D03*
D45*
X117861Y606819D03*
D47*
X97160Y607233D03*
D91*
X105233Y607233D03*
X111444Y607233D03*
D43*
X117447Y607233D03*
D49*
X96953Y607647D03*
D45*
X105026Y607647D03*
D49*
X111444Y607647D03*
D42*
X117447Y607647D03*
X96746Y608061D03*
X104612Y608061D03*
D49*
X111444Y608061D03*
D28*
X117240Y608061D03*
D91*
X96539Y608475D03*
D47*
X104198Y608475D03*
D91*
X111444Y608475D03*
D47*
X117033Y608475D03*
D49*
X96539Y608889D03*
D42*
X103784Y608889D03*
D49*
X111444Y608889D03*
D45*
X117033Y608889D03*
X96332Y609303D03*
D28*
X103577Y609303D03*
D101*
X111237Y609303D03*
D40*
X116826Y609303D03*
D47*
X96332Y609717D03*
D30*
X103163Y609717D03*
D102*
X111237Y609717D03*
D47*
X116619Y609717D03*
D45*
X96332Y610131D03*
D38*
X102542Y610131D03*
D101*
X111237Y610131D03*
D49*
X116412Y610131D03*
D97*
X49755Y610545D03*
D47*
X84739Y610545D03*
D30*
X96539Y610545D03*
D39*
X101921Y610545D03*
D102*
X111237Y610545D03*
D43*
X116205Y610545D03*
D53*
X50376Y610959D03*
D35*
X84532Y610959D03*
D53*
X99230Y610959D03*
D101*
X111237Y610959D03*
D28*
X115998Y610959D03*
D80*
X50790Y611373D03*
D100*
X84325Y611373D03*
D21*
X98816Y611373D03*
D49*
X111444Y611373D03*
D40*
X115584Y611373D03*
D138*
X51204Y611787D03*
D64*
X84325Y611787D03*
D20*
X98816Y611787D03*
D91*
X111444Y611787D03*
D30*
X115170Y611787D03*
D80*
X51618Y612201D03*
D95*
X84739Y612201D03*
D27*
X98609Y612201D03*
D86*
X113307Y612201D03*
D148*
X49962Y612615D03*
D35*
X53895Y612615D03*
D137*
X84532Y612615D03*
D35*
X98195Y612615D03*
D27*
X113100Y612615D03*
D33*
X54930Y613029D03*
X80599Y613029D03*
D44*
X87431Y613029D03*
D77*
X97781Y613029D03*
D76*
X113307Y613029D03*
D28*
X55551Y613443D03*
D38*
X80185Y613443D03*
D22*
X88466Y613443D03*
D38*
X97574Y613443D03*
D35*
X113100Y613443D03*
D28*
X55965Y613857D03*
X79564Y613857D03*
D37*
X88880Y613857D03*
D49*
X97367Y613857D03*
D34*
X113100Y613857D03*
D30*
X56379Y614271D03*
D43*
X79357Y614271D03*
D39*
X89087Y614271D03*
D102*
X112893Y614271D03*
D28*
X56793Y614685D03*
D45*
X78943Y614685D03*
D28*
X89501Y614685D03*
D36*
X57000Y615099D03*
D28*
X78736Y615099D03*
X89501Y615099D03*
D39*
X57207Y615513D03*
D30*
X78736Y615513D03*
D43*
X89708Y615513D03*
D35*
X57207Y615927D03*
D38*
X78529Y615927D03*
D42*
X89708Y615927D03*
D29*
X57207Y616341D03*
D33*
X78529Y616341D03*
D43*
X89708Y616341D03*
D37*
X78943Y616755D03*
D28*
X89501Y616755D03*
D86*
X80185Y617169D03*
D28*
X89087Y617169D03*
D22*
X98816Y617169D03*
D138*
X81427Y617583D03*
D30*
X88673Y617583D03*
D98*
X99023Y617583D03*
D125*
X83704Y617997D03*
D96*
X99023Y617997D03*
D112*
X83704Y618411D03*
D21*
X98816Y618411D03*
D12*
X83704Y618825D03*
D108*
X98816Y618825D03*
D56*
X83497Y619239D03*
D63*
X98816Y619239D03*
D21*
X84739Y619653D03*
D55*
X98402Y619653D03*
D24*
X74389Y620067D03*
D29*
X84532Y620067D03*
D74*
X96125Y620067D03*
D43*
X102128Y620067D03*
D112*
X70456Y620481D03*
D79*
X95711Y620481D03*
D120*
X102335Y620481D03*
D122*
X70456Y620895D03*
D44*
X94883Y620895D03*
D102*
X102542Y620895D03*
D84*
X70456Y621309D03*
D78*
X94469Y621309D03*
D120*
X102335Y621309D03*
D90*
X70456Y621723D03*
D28*
X93227Y621723D03*
D120*
X102335Y621723D03*
D124*
X70249Y622137D03*
D91*
X92813Y622137D03*
D30*
X101921Y622137D03*
D78*
X65488Y622551D03*
D38*
X76045Y622551D03*
D49*
X92813Y622551D03*
D36*
X101714Y622551D03*
D28*
X64245Y622965D03*
D45*
X76459Y622965D03*
X92606Y622965D03*
D34*
X101507Y622965D03*
D47*
X63624Y623380D03*
D91*
X76666Y623380D03*
D47*
X92606Y623380D03*
D41*
X101093Y623380D03*
D45*
X63624Y623794D03*
D49*
X76666Y623794D03*
D45*
X92606Y623794D03*
D35*
X100679Y623794D03*
D45*
X64038Y624208D03*
D49*
X76666Y624208D03*
D28*
X92813Y624208D03*
D22*
X100058Y624208D03*
D30*
X64245Y624622D03*
D47*
X76459Y624622D03*
D81*
X96539Y624622D03*
D78*
X65488Y625036D03*
D86*
X74389Y625036D03*
D146*
X96125Y625036D03*
D90*
X70456Y625450D03*
D21*
X95918Y625450D03*
D166*
X70456Y625864D03*
D74*
X95711Y625864D03*
D121*
X70663Y626278D03*
D100*
X95504Y626278D03*
D162*
X70663Y626692D03*
D29*
X95297Y626692D03*
D105*
X70456Y627106D03*
D40*
X94883Y627106D03*
D52*
X70042Y627520D03*
D173*
X69835Y627934D03*
M02*
