G04 EAGLE Gerber X2 export*
G75*
%MOMM*%
%FSLAX34Y34*%
%LPD*%
%AMOC8*
5,1,8,0,0,1.08239X$1,22.5*%
G01*
%ADD10C,1.879600*%

G36*
X508020Y2544D02*
X508020Y2544D01*
X508039Y2542D01*
X508141Y2564D01*
X508243Y2580D01*
X508260Y2590D01*
X508280Y2594D01*
X508369Y2647D01*
X508460Y2696D01*
X508474Y2710D01*
X508491Y2720D01*
X508558Y2799D01*
X508630Y2874D01*
X508638Y2892D01*
X508651Y2907D01*
X508690Y3003D01*
X508733Y3097D01*
X508735Y3117D01*
X508743Y3135D01*
X508761Y3302D01*
X508761Y13716D01*
X508758Y13736D01*
X508760Y13755D01*
X508738Y13857D01*
X508722Y13959D01*
X508712Y13976D01*
X508708Y13996D01*
X508655Y14085D01*
X508606Y14176D01*
X508592Y14190D01*
X508582Y14207D01*
X508503Y14274D01*
X508428Y14346D01*
X508410Y14354D01*
X508395Y14367D01*
X508299Y14406D01*
X508205Y14449D01*
X508185Y14451D01*
X508167Y14459D01*
X508000Y14477D01*
X504049Y14477D01*
X500035Y16140D01*
X496962Y19213D01*
X495299Y23227D01*
X495299Y27573D01*
X496962Y31587D01*
X500035Y34660D01*
X504049Y36323D01*
X508000Y36323D01*
X508020Y36326D01*
X508039Y36324D01*
X508141Y36346D01*
X508243Y36362D01*
X508260Y36372D01*
X508280Y36376D01*
X508369Y36429D01*
X508460Y36478D01*
X508474Y36492D01*
X508491Y36502D01*
X508558Y36581D01*
X508630Y36656D01*
X508638Y36674D01*
X508651Y36689D01*
X508690Y36785D01*
X508733Y36879D01*
X508735Y36899D01*
X508743Y36917D01*
X508761Y37084D01*
X508761Y38223D01*
X508748Y38302D01*
X508745Y38381D01*
X508729Y38422D01*
X508722Y38466D01*
X508684Y38536D01*
X508655Y38610D01*
X508627Y38644D01*
X508606Y38683D01*
X508549Y38738D01*
X508498Y38799D01*
X508460Y38822D01*
X508428Y38853D01*
X508356Y38886D01*
X508288Y38928D01*
X508245Y38938D01*
X508205Y38956D01*
X508126Y38965D01*
X508048Y38983D01*
X507990Y38980D01*
X507961Y38984D01*
X507933Y38978D01*
X507881Y38975D01*
X507745Y38954D01*
X507745Y50038D01*
X507742Y50058D01*
X507744Y50077D01*
X507722Y50179D01*
X507705Y50281D01*
X507696Y50298D01*
X507692Y50318D01*
X507639Y50407D01*
X507590Y50498D01*
X507576Y50512D01*
X507566Y50529D01*
X507487Y50596D01*
X507412Y50667D01*
X507394Y50676D01*
X507379Y50689D01*
X507283Y50727D01*
X507189Y50771D01*
X507169Y50773D01*
X507151Y50781D01*
X506984Y50799D01*
X506221Y50799D01*
X506221Y50801D01*
X506984Y50801D01*
X507004Y50804D01*
X507023Y50802D01*
X507125Y50824D01*
X507227Y50841D01*
X507244Y50850D01*
X507264Y50854D01*
X507353Y50907D01*
X507444Y50956D01*
X507458Y50970D01*
X507475Y50980D01*
X507542Y51059D01*
X507613Y51134D01*
X507622Y51152D01*
X507635Y51167D01*
X507674Y51263D01*
X507717Y51357D01*
X507719Y51377D01*
X507727Y51395D01*
X507745Y51562D01*
X507745Y61596D01*
X507741Y61624D01*
X507732Y61735D01*
X506799Y66749D01*
X506789Y66778D01*
X506776Y66840D01*
X504367Y74448D01*
X504353Y74475D01*
X504334Y74535D01*
X501011Y81790D01*
X500994Y81816D01*
X500967Y81872D01*
X496782Y88667D01*
X496762Y88690D01*
X496729Y88743D01*
X491744Y94975D01*
X491721Y94995D01*
X491681Y95044D01*
X485971Y100618D01*
X485946Y100636D01*
X485900Y100679D01*
X479551Y105513D01*
X479524Y105527D01*
X479473Y105565D01*
X472580Y109585D01*
X472552Y109596D01*
X472497Y109627D01*
X465163Y112774D01*
X465134Y112781D01*
X465076Y112805D01*
X457412Y115031D01*
X457402Y115032D01*
X457386Y115038D01*
X418395Y124846D01*
X379964Y136593D01*
X342172Y150254D01*
X305116Y165793D01*
X278734Y178822D01*
X253377Y193739D01*
X229176Y210468D01*
X206261Y228918D01*
X184754Y248991D01*
X164769Y270581D01*
X146413Y293572D01*
X129785Y317841D01*
X114974Y343255D01*
X111838Y349883D01*
X109371Y356782D01*
X107594Y363891D01*
X106524Y371140D01*
X106172Y378471D01*
X107441Y447026D01*
X107440Y447036D01*
X107441Y447051D01*
X107263Y458881D01*
X107258Y458908D01*
X107258Y458959D01*
X105879Y470709D01*
X105871Y470735D01*
X105866Y470785D01*
X103299Y482335D01*
X103289Y482360D01*
X103279Y482409D01*
X99552Y493638D01*
X99539Y493662D01*
X99523Y493710D01*
X94674Y504502D01*
X94661Y504522D01*
X94644Y504562D01*
X86292Y519494D01*
X86279Y519510D01*
X86263Y519542D01*
X76835Y533819D01*
X76834Y533820D01*
X76833Y533822D01*
X57332Y563075D01*
X57267Y563144D01*
X57208Y563218D01*
X57184Y563234D01*
X57164Y563255D01*
X57081Y563300D01*
X57001Y563351D01*
X56973Y563358D01*
X56948Y563372D01*
X56854Y563388D01*
X56762Y563411D01*
X56734Y563409D01*
X56705Y563414D01*
X56612Y563399D01*
X56517Y563392D01*
X56491Y563381D01*
X56462Y563376D01*
X56378Y563333D01*
X56291Y563296D01*
X56263Y563273D01*
X56244Y563263D01*
X56221Y563240D01*
X56160Y563191D01*
X55209Y562240D01*
X51195Y560577D01*
X46849Y560577D01*
X42835Y562240D01*
X39762Y565313D01*
X38099Y569327D01*
X38099Y573673D01*
X39762Y577687D01*
X42835Y580760D01*
X46849Y582423D01*
X47249Y582423D01*
X47295Y582430D01*
X47341Y582428D01*
X47415Y582450D01*
X47492Y582462D01*
X47532Y582484D01*
X47577Y582497D01*
X47641Y582541D01*
X47709Y582578D01*
X47741Y582611D01*
X47779Y582638D01*
X47825Y582700D01*
X47878Y582756D01*
X47898Y582798D01*
X47925Y582835D01*
X47949Y582909D01*
X47982Y582979D01*
X47987Y583025D01*
X48001Y583069D01*
X48007Y583204D01*
X48009Y583223D01*
X48008Y583229D01*
X48008Y583237D01*
X47941Y584200D01*
X47947Y584280D01*
X47937Y584389D01*
X47930Y584498D01*
X47925Y584511D01*
X47924Y584525D01*
X47879Y584625D01*
X47839Y584726D01*
X47830Y584737D01*
X47824Y584749D01*
X47750Y584830D01*
X47679Y584913D01*
X47667Y584921D01*
X47658Y584931D01*
X47562Y584983D01*
X47468Y585040D01*
X47452Y585044D01*
X47443Y585049D01*
X47414Y585055D01*
X47306Y585084D01*
X46226Y585255D01*
X44439Y585836D01*
X42765Y586689D01*
X41244Y587794D01*
X39916Y589122D01*
X38811Y590643D01*
X37958Y592317D01*
X37377Y594104D01*
X37176Y595377D01*
X48260Y595377D01*
X48280Y595380D01*
X48299Y595378D01*
X48401Y595400D01*
X48503Y595417D01*
X48520Y595426D01*
X48540Y595430D01*
X48629Y595483D01*
X48720Y595532D01*
X48734Y595546D01*
X48751Y595556D01*
X48818Y595635D01*
X48889Y595710D01*
X48898Y595728D01*
X48911Y595743D01*
X48949Y595839D01*
X48993Y595933D01*
X48995Y595953D01*
X49003Y595971D01*
X49021Y596138D01*
X49021Y596901D01*
X49784Y596901D01*
X49804Y596904D01*
X49823Y596902D01*
X49925Y596924D01*
X50027Y596941D01*
X50044Y596950D01*
X50064Y596954D01*
X50153Y597007D01*
X50244Y597056D01*
X50258Y597070D01*
X50275Y597080D01*
X50342Y597159D01*
X50413Y597234D01*
X50422Y597252D01*
X50435Y597267D01*
X50474Y597363D01*
X50517Y597457D01*
X50519Y597477D01*
X50527Y597495D01*
X50545Y597662D01*
X50545Y608746D01*
X50748Y608714D01*
X50756Y608714D01*
X50765Y608712D01*
X50880Y608715D01*
X50994Y608715D01*
X51002Y608718D01*
X51011Y608719D01*
X51118Y608758D01*
X51226Y608795D01*
X51233Y608800D01*
X51242Y608803D01*
X51331Y608875D01*
X51422Y608945D01*
X51426Y608952D01*
X51433Y608958D01*
X51495Y609054D01*
X51559Y609149D01*
X51561Y609157D01*
X51566Y609165D01*
X51594Y609275D01*
X51624Y609386D01*
X51623Y609395D01*
X51626Y609403D01*
X51616Y609517D01*
X51610Y609632D01*
X51607Y609640D01*
X51606Y609649D01*
X51548Y609806D01*
X51481Y609940D01*
X51463Y609965D01*
X51433Y610022D01*
X30276Y641758D01*
X30231Y641806D01*
X30195Y641860D01*
X30148Y641895D01*
X30108Y641938D01*
X30051Y641969D01*
X29999Y642009D01*
X29943Y642027D01*
X29892Y642055D01*
X29828Y642066D01*
X29765Y642087D01*
X29707Y642087D01*
X29650Y642097D01*
X29585Y642087D01*
X29519Y642087D01*
X29464Y642069D01*
X29407Y642060D01*
X29348Y642030D01*
X29286Y642009D01*
X29218Y641962D01*
X29188Y641947D01*
X29175Y641933D01*
X29148Y641914D01*
X20845Y634806D01*
X20837Y634797D01*
X20734Y634689D01*
X12020Y623253D01*
X12015Y623242D01*
X12009Y623233D01*
X11996Y623220D01*
X11983Y623189D01*
X11937Y623115D01*
X5821Y610103D01*
X5818Y610092D01*
X5768Y609951D01*
X2523Y595944D01*
X2522Y595932D01*
X2503Y595785D01*
X2273Y581409D01*
X2275Y581396D01*
X2288Y581248D01*
X5084Y567145D01*
X5088Y567134D01*
X5131Y566991D01*
X10829Y553790D01*
X10846Y553763D01*
X10885Y553683D01*
X14179Y548500D01*
X14222Y548453D01*
X14256Y548399D01*
X14303Y548362D01*
X14343Y548317D01*
X14398Y548285D01*
X14421Y548267D01*
X14840Y547485D01*
X14859Y547461D01*
X14891Y547403D01*
X15408Y546678D01*
X15408Y546645D01*
X15428Y546583D01*
X15439Y546518D01*
X15475Y546443D01*
X15485Y546411D01*
X15497Y546396D01*
X15511Y546366D01*
X17996Y542316D01*
X18016Y542293D01*
X18075Y542210D01*
X25756Y533537D01*
X25760Y533534D01*
X25762Y533530D01*
X25888Y533419D01*
X35363Y526752D01*
X35367Y526750D01*
X35370Y526747D01*
X35518Y526668D01*
X46275Y522365D01*
X46279Y522364D01*
X46283Y522362D01*
X46445Y522319D01*
X57905Y520613D01*
X57909Y520613D01*
X57914Y520611D01*
X58081Y520607D01*
X69625Y521590D01*
X69655Y521597D01*
X69756Y521612D01*
X75364Y523101D01*
X75380Y523108D01*
X75409Y523115D01*
X76401Y523445D01*
X77343Y522969D01*
X77344Y522969D01*
X77345Y522968D01*
X78283Y522499D01*
X78612Y521497D01*
X78613Y521496D01*
X78613Y521494D01*
X78945Y520499D01*
X78473Y519565D01*
X78471Y519557D01*
X78463Y519545D01*
X70763Y503103D01*
X70758Y503082D01*
X70741Y503049D01*
X57920Y469085D01*
X57915Y469058D01*
X57897Y469010D01*
X48626Y433911D01*
X48624Y433884D01*
X48610Y433835D01*
X42988Y397970D01*
X42988Y397942D01*
X42980Y397892D01*
X41065Y361640D01*
X41068Y361613D01*
X41065Y361561D01*
X42877Y325304D01*
X42881Y325283D01*
X42881Y325276D01*
X42881Y325271D01*
X42881Y325268D01*
X42882Y325245D01*
X45181Y307234D01*
X45186Y307218D01*
X45188Y307190D01*
X47050Y297295D01*
X47059Y297270D01*
X47068Y297221D01*
X52747Y277914D01*
X52761Y277885D01*
X52774Y277844D01*
X52777Y277833D01*
X52779Y277829D01*
X52782Y277819D01*
X60980Y259439D01*
X60998Y259412D01*
X61028Y259349D01*
X71598Y242223D01*
X71619Y242199D01*
X71657Y242140D01*
X84412Y226573D01*
X84432Y226555D01*
X84463Y226517D01*
X91590Y219406D01*
X91598Y219400D01*
X91608Y219388D01*
X202147Y116218D01*
X202148Y116218D01*
X203125Y115305D01*
X203147Y115285D01*
X203153Y115281D01*
X203161Y115272D01*
X216536Y103375D01*
X216554Y103364D01*
X216579Y103340D01*
X244960Y81531D01*
X244983Y81519D01*
X245020Y81490D01*
X275357Y62495D01*
X275376Y62487D01*
X275405Y62468D01*
X291220Y54081D01*
X291227Y54079D01*
X291236Y54073D01*
X292459Y53461D01*
X292460Y53461D01*
X350913Y24234D01*
X352136Y23622D01*
X352145Y23620D01*
X352156Y23613D01*
X362612Y18759D01*
X362635Y18752D01*
X362673Y18733D01*
X384339Y10880D01*
X384368Y10875D01*
X384423Y10855D01*
X406852Y5560D01*
X406881Y5558D01*
X406939Y5545D01*
X429829Y2880D01*
X429853Y2881D01*
X429895Y2875D01*
X441418Y2541D01*
X441426Y2542D01*
X441440Y2541D01*
X508000Y2541D01*
X508020Y2544D01*
G37*
G36*
X535014Y2544D02*
X535014Y2544D01*
X535052Y2543D01*
X538260Y2796D01*
X538266Y2797D01*
X538271Y2797D01*
X538436Y2830D01*
X544537Y4813D01*
X544569Y4829D01*
X544604Y4838D01*
X544749Y4921D01*
X549940Y8692D01*
X549965Y8718D01*
X549995Y8736D01*
X550108Y8860D01*
X553879Y14051D01*
X553895Y14083D01*
X553918Y14110D01*
X553987Y14263D01*
X555970Y20364D01*
X555970Y20370D01*
X555973Y20375D01*
X556004Y20540D01*
X556257Y23748D01*
X556255Y23770D01*
X556259Y23807D01*
X556259Y76200D01*
X556257Y76212D01*
X556259Y76230D01*
X555838Y86932D01*
X555832Y86961D01*
X555829Y87021D01*
X552481Y108161D01*
X552471Y108192D01*
X552453Y108277D01*
X545839Y128633D01*
X545824Y128662D01*
X545794Y128743D01*
X536077Y147813D01*
X536057Y147840D01*
X536014Y147915D01*
X523434Y165231D01*
X523410Y165254D01*
X523356Y165322D01*
X508222Y180456D01*
X508195Y180475D01*
X508131Y180534D01*
X490815Y193114D01*
X490786Y193129D01*
X490713Y193177D01*
X471643Y202894D01*
X471612Y202904D01*
X471533Y202939D01*
X451177Y209553D01*
X451144Y209558D01*
X451061Y209581D01*
X429921Y212929D01*
X429891Y212929D01*
X429832Y212938D01*
X419853Y213330D01*
X419746Y213317D01*
X419640Y213309D01*
X419621Y213302D01*
X419608Y213300D01*
X419581Y213287D01*
X419482Y213251D01*
X419295Y213157D01*
X418805Y213320D01*
X418767Y213326D01*
X418731Y213341D01*
X418564Y213359D01*
X418048Y213359D01*
X417855Y213552D01*
X417780Y213606D01*
X417709Y213666D01*
X417673Y213683D01*
X417655Y213696D01*
X417624Y213705D01*
X417557Y213736D01*
X267077Y263896D01*
X267011Y263907D01*
X266947Y263927D01*
X266890Y263926D01*
X266834Y263935D01*
X266776Y263926D01*
X265841Y264306D01*
X265823Y264311D01*
X265795Y264324D01*
X264848Y264639D01*
X264840Y264651D01*
X264785Y264689D01*
X264737Y264736D01*
X264666Y264774D01*
X264640Y264794D01*
X264620Y264799D01*
X264590Y264816D01*
X253934Y269154D01*
X231775Y281770D01*
X211453Y297169D01*
X193314Y315090D01*
X177670Y335224D01*
X164788Y357228D01*
X154888Y380726D01*
X148139Y405315D01*
X144658Y430575D01*
X144504Y456072D01*
X147679Y481371D01*
X154129Y506040D01*
X158434Y516614D01*
X158453Y516696D01*
X158480Y516776D01*
X158480Y516784D01*
X158943Y517863D01*
X158944Y517868D01*
X158948Y517876D01*
X158969Y517926D01*
X158970Y517933D01*
X158975Y517942D01*
X162127Y526205D01*
X162133Y526235D01*
X162154Y526293D01*
X166417Y543494D01*
X166420Y543527D01*
X166437Y543615D01*
X167870Y561278D01*
X167868Y561311D01*
X167870Y561402D01*
X166437Y579065D01*
X166429Y579096D01*
X166417Y579186D01*
X162154Y596387D01*
X162142Y596415D01*
X162127Y596475D01*
X159389Y603651D01*
X159348Y603722D01*
X159315Y603796D01*
X159288Y603826D01*
X158930Y604843D01*
X158921Y604859D01*
X158912Y604890D01*
X158481Y605894D01*
X158481Y605909D01*
X158467Y605958D01*
X158465Y605985D01*
X158452Y606012D01*
X158435Y606070D01*
X155819Y612477D01*
X155801Y612505D01*
X155769Y612577D01*
X147520Y626491D01*
X147505Y626509D01*
X147432Y626612D01*
X136626Y638648D01*
X136608Y638663D01*
X136516Y638748D01*
X123569Y648444D01*
X123548Y648455D01*
X123441Y648521D01*
X108850Y655503D01*
X108819Y655512D01*
X108746Y655543D01*
X101340Y657826D01*
X101309Y657830D01*
X101280Y657841D01*
X101113Y657860D01*
X90721Y657832D01*
X90696Y657828D01*
X90651Y657829D01*
X69187Y655797D01*
X69158Y655789D01*
X69095Y655782D01*
X48040Y651145D01*
X48017Y651136D01*
X47973Y651127D01*
X43038Y649554D01*
X42982Y649525D01*
X42922Y649506D01*
X42873Y649470D01*
X42819Y649442D01*
X42775Y649397D01*
X42724Y649360D01*
X42689Y649310D01*
X42647Y649267D01*
X42619Y649210D01*
X42583Y649158D01*
X42566Y649100D01*
X42540Y649045D01*
X42532Y648983D01*
X42514Y648922D01*
X42513Y648834D01*
X42509Y648801D01*
X42512Y648784D01*
X42512Y648754D01*
X42719Y646636D01*
X42728Y646604D01*
X42738Y646526D01*
X43881Y641954D01*
X43894Y641924D01*
X43916Y641848D01*
X45718Y637493D01*
X45735Y637465D01*
X45768Y637393D01*
X48190Y633351D01*
X48211Y633326D01*
X48254Y633259D01*
X51243Y629616D01*
X51267Y629594D01*
X51320Y629535D01*
X54811Y626369D01*
X54839Y626351D01*
X54899Y626300D01*
X58817Y623682D01*
X58847Y623668D01*
X58915Y623627D01*
X63175Y621612D01*
X63176Y621612D01*
X63177Y621611D01*
X65919Y620328D01*
X68411Y618706D01*
X70655Y616755D01*
X72606Y614511D01*
X74228Y612019D01*
X75487Y609327D01*
X75507Y609261D01*
X75547Y609180D01*
X75580Y609095D01*
X75601Y609070D01*
X75616Y609041D01*
X75680Y608976D01*
X75738Y608906D01*
X75766Y608889D01*
X75789Y608866D01*
X75870Y608825D01*
X75948Y608778D01*
X75979Y608770D01*
X76009Y608756D01*
X76099Y608743D01*
X76187Y608723D01*
X76229Y608725D01*
X76252Y608721D01*
X76284Y608727D01*
X76355Y608730D01*
X76455Y608746D01*
X76455Y605346D01*
X76460Y605314D01*
X76463Y605235D01*
X76573Y604492D01*
X76573Y602008D01*
X76463Y601265D01*
X76464Y601233D01*
X76455Y601154D01*
X76455Y597662D01*
X76458Y597642D01*
X76456Y597623D01*
X76478Y597521D01*
X76495Y597419D01*
X76504Y597402D01*
X76508Y597382D01*
X76561Y597293D01*
X76610Y597202D01*
X76624Y597188D01*
X76634Y597171D01*
X76713Y597104D01*
X76788Y597033D01*
X76806Y597024D01*
X76821Y597011D01*
X76917Y596973D01*
X77011Y596929D01*
X77031Y596927D01*
X77049Y596919D01*
X77216Y596901D01*
X77979Y596901D01*
X77979Y596899D01*
X77216Y596899D01*
X77196Y596896D01*
X77177Y596898D01*
X77075Y596876D01*
X76973Y596859D01*
X76956Y596850D01*
X76936Y596846D01*
X76847Y596793D01*
X76756Y596744D01*
X76742Y596730D01*
X76725Y596720D01*
X76658Y596641D01*
X76587Y596566D01*
X76578Y596548D01*
X76565Y596533D01*
X76526Y596437D01*
X76483Y596343D01*
X76481Y596323D01*
X76473Y596305D01*
X76455Y596138D01*
X76455Y585054D01*
X75182Y585255D01*
X74112Y585603D01*
X73998Y585620D01*
X73884Y585640D01*
X73877Y585639D01*
X73869Y585640D01*
X73755Y585620D01*
X73641Y585603D01*
X73635Y585599D01*
X73627Y585598D01*
X73525Y585543D01*
X73423Y585490D01*
X73418Y585484D01*
X73411Y585481D01*
X73332Y585395D01*
X73252Y585313D01*
X73249Y585306D01*
X73243Y585300D01*
X73196Y585195D01*
X73146Y585091D01*
X73144Y585082D01*
X73142Y585076D01*
X73140Y585055D01*
X73117Y584926D01*
X73076Y584247D01*
X73079Y584216D01*
X73076Y584153D01*
X73182Y582428D01*
X73187Y582406D01*
X73186Y582384D01*
X73214Y582287D01*
X73236Y582188D01*
X73248Y582169D01*
X73254Y582147D01*
X73312Y582064D01*
X73364Y581978D01*
X73382Y581964D01*
X73394Y581945D01*
X73476Y581885D01*
X73553Y581820D01*
X73574Y581812D01*
X73592Y581798D01*
X73688Y581767D01*
X73782Y581730D01*
X73804Y581729D01*
X73826Y581722D01*
X73927Y581723D01*
X74027Y581718D01*
X74049Y581724D01*
X74072Y581725D01*
X74233Y581771D01*
X75805Y582423D01*
X80151Y582423D01*
X84165Y580760D01*
X87238Y577687D01*
X88901Y573673D01*
X88901Y569327D01*
X87238Y565313D01*
X84165Y562240D01*
X80501Y560722D01*
X80488Y560714D01*
X80473Y560710D01*
X80384Y560650D01*
X80292Y560593D01*
X80282Y560581D01*
X80270Y560573D01*
X80204Y560487D01*
X80135Y560403D01*
X80130Y560389D01*
X80120Y560377D01*
X80086Y560274D01*
X80047Y560174D01*
X80046Y560159D01*
X80041Y560144D01*
X80041Y560036D01*
X80037Y559928D01*
X80041Y559913D01*
X80041Y559898D01*
X80086Y559736D01*
X100888Y507730D01*
X106364Y492446D01*
X110316Y476723D01*
X112715Y460690D01*
X113539Y444480D01*
X113539Y393700D01*
X113541Y393687D01*
X113540Y393666D01*
X114057Y382005D01*
X114062Y381980D01*
X114063Y381934D01*
X115655Y370370D01*
X115662Y370346D01*
X115668Y370301D01*
X118321Y358933D01*
X118330Y358910D01*
X118340Y358866D01*
X122031Y347791D01*
X122043Y347769D01*
X122056Y347726D01*
X126755Y337040D01*
X126768Y337019D01*
X126786Y336977D01*
X132451Y326770D01*
X132467Y326750D01*
X132488Y326710D01*
X139071Y317071D01*
X139087Y317054D01*
X139110Y317019D01*
X161218Y289863D01*
X161234Y289849D01*
X161256Y289819D01*
X185356Y264413D01*
X185373Y264400D01*
X185397Y264373D01*
X211349Y240862D01*
X211367Y240850D01*
X211393Y240825D01*
X239049Y219345D01*
X239068Y219334D01*
X239096Y219311D01*
X268298Y199984D01*
X268317Y199976D01*
X268347Y199954D01*
X298927Y182892D01*
X298947Y182885D01*
X298979Y182866D01*
X330762Y168165D01*
X330783Y168160D01*
X330815Y168143D01*
X363619Y155889D01*
X363640Y155885D01*
X363674Y155871D01*
X397311Y146134D01*
X397332Y146131D01*
X397367Y146120D01*
X431638Y138956D01*
X443583Y136257D01*
X455133Y132296D01*
X466188Y127113D01*
X470564Y124451D01*
X471816Y123690D01*
X476620Y120767D01*
X486307Y113333D01*
X495135Y104898D01*
X503002Y95559D01*
X509815Y85426D01*
X515495Y74617D01*
X519984Y63240D01*
X522637Y55282D01*
X522639Y55278D01*
X522640Y55273D01*
X522697Y55168D01*
X522751Y55064D01*
X522755Y55061D01*
X522757Y55056D01*
X522845Y54975D01*
X522929Y54895D01*
X522934Y54893D01*
X522938Y54889D01*
X523046Y54840D01*
X523152Y54790D01*
X523157Y54790D01*
X523162Y54788D01*
X523278Y54776D01*
X523396Y54763D01*
X523401Y54764D01*
X523406Y54763D01*
X523521Y54789D01*
X523637Y54814D01*
X523641Y54817D01*
X523646Y54818D01*
X523746Y54879D01*
X523848Y54940D01*
X523852Y54944D01*
X523856Y54946D01*
X523931Y55036D01*
X524009Y55126D01*
X524011Y55131D01*
X524014Y55135D01*
X524083Y55288D01*
X524114Y55383D01*
X524967Y57057D01*
X526072Y58578D01*
X527400Y59906D01*
X528921Y61011D01*
X530595Y61864D01*
X532382Y62445D01*
X533655Y62646D01*
X533655Y51562D01*
X533658Y51542D01*
X533656Y51523D01*
X533678Y51421D01*
X533695Y51319D01*
X533704Y51302D01*
X533708Y51282D01*
X533761Y51193D01*
X533810Y51102D01*
X533824Y51088D01*
X533834Y51071D01*
X533913Y51004D01*
X533988Y50933D01*
X534006Y50924D01*
X534021Y50911D01*
X534117Y50873D01*
X534211Y50829D01*
X534231Y50827D01*
X534249Y50819D01*
X534416Y50801D01*
X535179Y50801D01*
X535179Y50799D01*
X534416Y50799D01*
X534396Y50796D01*
X534377Y50798D01*
X534275Y50776D01*
X534173Y50759D01*
X534156Y50750D01*
X534136Y50746D01*
X534047Y50693D01*
X533956Y50644D01*
X533942Y50630D01*
X533925Y50620D01*
X533858Y50541D01*
X533787Y50466D01*
X533778Y50448D01*
X533765Y50433D01*
X533726Y50337D01*
X533683Y50243D01*
X533681Y50223D01*
X533673Y50205D01*
X533655Y50038D01*
X533655Y38954D01*
X532382Y39155D01*
X530595Y39736D01*
X528906Y40596D01*
X528835Y40619D01*
X528768Y40651D01*
X528719Y40656D01*
X528672Y40671D01*
X528597Y40670D01*
X528523Y40679D01*
X528475Y40668D01*
X528426Y40667D01*
X528356Y40643D01*
X528283Y40627D01*
X528240Y40602D01*
X528194Y40585D01*
X528136Y40540D01*
X528071Y40501D01*
X528039Y40464D01*
X528000Y40434D01*
X527959Y40371D01*
X527911Y40315D01*
X527892Y40269D01*
X527865Y40228D01*
X527846Y40156D01*
X527818Y40087D01*
X527815Y40038D01*
X527803Y39990D01*
X527808Y39916D01*
X527803Y39841D01*
X527817Y39776D01*
X527819Y39745D01*
X527829Y39722D01*
X527838Y39677D01*
X529189Y35625D01*
X529211Y35583D01*
X529224Y35538D01*
X529268Y35475D01*
X529304Y35407D01*
X529338Y35374D01*
X529365Y35336D01*
X529426Y35290D01*
X529482Y35237D01*
X529524Y35217D01*
X529562Y35189D01*
X529635Y35165D01*
X529705Y35133D01*
X529751Y35127D01*
X529796Y35113D01*
X529873Y35114D01*
X529949Y35105D01*
X529995Y35115D01*
X530042Y35115D01*
X530169Y35152D01*
X530189Y35156D01*
X530194Y35159D01*
X530203Y35162D01*
X533005Y36323D01*
X537351Y36323D01*
X541365Y34660D01*
X544438Y31587D01*
X546101Y27573D01*
X546101Y23227D01*
X544438Y19213D01*
X541365Y16140D01*
X537351Y14477D01*
X533400Y14477D01*
X533380Y14474D01*
X533361Y14476D01*
X533259Y14454D01*
X533157Y14438D01*
X533140Y14428D01*
X533120Y14424D01*
X533031Y14371D01*
X532940Y14322D01*
X532926Y14308D01*
X532909Y14298D01*
X532842Y14219D01*
X532771Y14144D01*
X532762Y14126D01*
X532749Y14111D01*
X532710Y14015D01*
X532667Y13921D01*
X532665Y13901D01*
X532657Y13883D01*
X532639Y13716D01*
X532639Y3302D01*
X532642Y3282D01*
X532640Y3263D01*
X532662Y3161D01*
X532679Y3059D01*
X532688Y3042D01*
X532692Y3022D01*
X532745Y2933D01*
X532794Y2842D01*
X532808Y2828D01*
X532818Y2811D01*
X532897Y2744D01*
X532972Y2672D01*
X532990Y2664D01*
X533005Y2651D01*
X533101Y2612D01*
X533195Y2569D01*
X533215Y2567D01*
X533233Y2559D01*
X533400Y2541D01*
X534993Y2541D01*
X535014Y2544D01*
G37*
%LPC*%
G36*
X79501Y598423D02*
X79501Y598423D01*
X79501Y608746D01*
X80774Y608545D01*
X82561Y607964D01*
X84235Y607111D01*
X85756Y606006D01*
X87084Y604678D01*
X88189Y603157D01*
X89042Y601483D01*
X89623Y599696D01*
X89824Y598423D01*
X79501Y598423D01*
G37*
%LPD*%
%LPC*%
G36*
X536701Y52323D02*
X536701Y52323D01*
X536701Y62646D01*
X537974Y62445D01*
X539761Y61864D01*
X541435Y61011D01*
X542956Y59906D01*
X544284Y58578D01*
X545389Y57057D01*
X546242Y55383D01*
X546823Y53596D01*
X547024Y52323D01*
X536701Y52323D01*
G37*
%LPD*%
%LPC*%
G36*
X37176Y598423D02*
X37176Y598423D01*
X37377Y599696D01*
X37958Y601483D01*
X38811Y603157D01*
X39916Y604678D01*
X41244Y606006D01*
X42765Y607111D01*
X44439Y607964D01*
X46226Y608545D01*
X47499Y608746D01*
X47499Y598423D01*
X37176Y598423D01*
G37*
%LPD*%
%LPC*%
G36*
X79501Y595377D02*
X79501Y595377D01*
X89824Y595377D01*
X89623Y594104D01*
X89042Y592317D01*
X88189Y590643D01*
X87084Y589122D01*
X85756Y587794D01*
X84235Y586689D01*
X82561Y585836D01*
X80774Y585255D01*
X79501Y585054D01*
X79501Y595377D01*
G37*
%LPD*%
%LPC*%
G36*
X494376Y52323D02*
X494376Y52323D01*
X494577Y53596D01*
X495158Y55383D01*
X496011Y57057D01*
X497116Y58578D01*
X498444Y59906D01*
X499965Y61011D01*
X501639Y61864D01*
X503426Y62445D01*
X504699Y62646D01*
X504699Y52323D01*
X494376Y52323D01*
G37*
%LPD*%
%LPC*%
G36*
X536701Y49277D02*
X536701Y49277D01*
X547024Y49277D01*
X546823Y48004D01*
X546242Y46217D01*
X545389Y44543D01*
X544284Y43022D01*
X542956Y41694D01*
X541435Y40589D01*
X539761Y39736D01*
X537974Y39155D01*
X536701Y38954D01*
X536701Y49277D01*
G37*
%LPD*%
%LPC*%
G36*
X503426Y39155D02*
X503426Y39155D01*
X501639Y39736D01*
X499965Y40589D01*
X498444Y41694D01*
X497116Y43022D01*
X496011Y44543D01*
X495158Y46217D01*
X494577Y48004D01*
X494376Y49277D01*
X504699Y49277D01*
X504699Y38954D01*
X503426Y39155D01*
G37*
%LPD*%
D10*
X49022Y596900D03*
X77978Y596900D03*
X49022Y571500D03*
X77978Y571500D03*
X506222Y50800D03*
X535178Y50800D03*
X506222Y25400D03*
X535178Y25400D03*
M02*
