G04 EAGLE Gerber X2 export*
G75*
%MOMM*%
%FSLAX34Y34*%
%LPD*%
%AMOC8*
5,1,8,0,0,1.08239X$1,22.5*%
G01*
%ADD10C,1.879600*%

G36*
X508020Y2544D02*
X508020Y2544D01*
X508039Y2542D01*
X508141Y2564D01*
X508243Y2580D01*
X508260Y2590D01*
X508280Y2594D01*
X508369Y2647D01*
X508460Y2696D01*
X508474Y2710D01*
X508491Y2720D01*
X508558Y2799D01*
X508630Y2874D01*
X508638Y2892D01*
X508651Y2907D01*
X508690Y3003D01*
X508733Y3097D01*
X508735Y3117D01*
X508743Y3135D01*
X508761Y3302D01*
X508761Y12823D01*
X508748Y12902D01*
X508745Y12981D01*
X508729Y13022D01*
X508722Y13066D01*
X508684Y13136D01*
X508655Y13210D01*
X508627Y13244D01*
X508606Y13283D01*
X508549Y13338D01*
X508498Y13399D01*
X508460Y13422D01*
X508428Y13453D01*
X508356Y13486D01*
X508288Y13528D01*
X508245Y13538D01*
X508205Y13556D01*
X508126Y13565D01*
X508048Y13583D01*
X507990Y13580D01*
X507961Y13584D01*
X507933Y13578D01*
X507881Y13575D01*
X507745Y13554D01*
X507745Y24638D01*
X507743Y24649D01*
X507744Y24656D01*
X507743Y24664D01*
X507744Y24677D01*
X507722Y24779D01*
X507705Y24881D01*
X507696Y24898D01*
X507692Y24918D01*
X507639Y25007D01*
X507590Y25098D01*
X507576Y25112D01*
X507566Y25129D01*
X507487Y25196D01*
X507412Y25267D01*
X507394Y25276D01*
X507379Y25289D01*
X507283Y25327D01*
X507189Y25371D01*
X507169Y25373D01*
X507151Y25381D01*
X506984Y25399D01*
X506221Y25399D01*
X506221Y25401D01*
X506984Y25401D01*
X507004Y25404D01*
X507023Y25402D01*
X507125Y25424D01*
X507227Y25441D01*
X507244Y25450D01*
X507264Y25454D01*
X507353Y25507D01*
X507444Y25556D01*
X507458Y25570D01*
X507475Y25580D01*
X507542Y25659D01*
X507613Y25734D01*
X507622Y25752D01*
X507635Y25767D01*
X507674Y25863D01*
X507717Y25957D01*
X507719Y25977D01*
X507727Y25995D01*
X507745Y26162D01*
X507745Y37246D01*
X507881Y37225D01*
X507960Y37225D01*
X508039Y37216D01*
X508083Y37226D01*
X508127Y37226D01*
X508202Y37252D01*
X508280Y37269D01*
X508318Y37291D01*
X508360Y37306D01*
X508423Y37354D01*
X508491Y37395D01*
X508520Y37428D01*
X508555Y37455D01*
X508599Y37521D01*
X508651Y37582D01*
X508667Y37623D01*
X508692Y37659D01*
X508713Y37736D01*
X508743Y37810D01*
X508749Y37868D01*
X508757Y37897D01*
X508755Y37924D01*
X508761Y37977D01*
X508761Y39116D01*
X508758Y39136D01*
X508760Y39155D01*
X508738Y39257D01*
X508722Y39359D01*
X508712Y39376D01*
X508708Y39396D01*
X508655Y39485D01*
X508606Y39576D01*
X508592Y39590D01*
X508582Y39607D01*
X508503Y39674D01*
X508428Y39746D01*
X508410Y39754D01*
X508395Y39767D01*
X508299Y39806D01*
X508205Y39849D01*
X508185Y39851D01*
X508167Y39859D01*
X508000Y39877D01*
X504049Y39877D01*
X500035Y41540D01*
X496962Y44613D01*
X495299Y48627D01*
X495299Y52973D01*
X496962Y56987D01*
X500035Y60060D01*
X504049Y61723D01*
X506819Y61723D01*
X506907Y61737D01*
X506997Y61744D01*
X507028Y61757D01*
X507061Y61762D01*
X507141Y61804D01*
X507223Y61839D01*
X507249Y61862D01*
X507279Y61878D01*
X507340Y61942D01*
X507408Y62002D01*
X507425Y62031D01*
X507448Y62056D01*
X507486Y62137D01*
X507531Y62215D01*
X507537Y62248D01*
X507552Y62279D01*
X507562Y62368D01*
X507579Y62456D01*
X507576Y62499D01*
X507579Y62523D01*
X507572Y62554D01*
X507567Y62623D01*
X506799Y66749D01*
X506789Y66778D01*
X506776Y66840D01*
X504367Y74448D01*
X504353Y74475D01*
X504334Y74535D01*
X501011Y81790D01*
X500994Y81816D01*
X500967Y81872D01*
X496782Y88667D01*
X496762Y88690D01*
X496729Y88743D01*
X491744Y94975D01*
X491721Y94995D01*
X491681Y95044D01*
X485971Y100618D01*
X485946Y100636D01*
X485900Y100679D01*
X479551Y105513D01*
X479524Y105527D01*
X479473Y105565D01*
X472580Y109585D01*
X472552Y109596D01*
X472497Y109627D01*
X465163Y112774D01*
X465134Y112781D01*
X465076Y112805D01*
X457412Y115031D01*
X457402Y115032D01*
X457386Y115038D01*
X418395Y124846D01*
X379964Y136593D01*
X342172Y150254D01*
X305116Y165793D01*
X278734Y178822D01*
X253377Y193739D01*
X229176Y210468D01*
X206261Y228918D01*
X184754Y248991D01*
X164769Y270581D01*
X146413Y293572D01*
X129785Y317841D01*
X114974Y343255D01*
X111838Y349883D01*
X109371Y356782D01*
X107594Y363891D01*
X106524Y371140D01*
X106172Y378471D01*
X107441Y447026D01*
X107440Y447036D01*
X107441Y447051D01*
X107263Y458881D01*
X107258Y458908D01*
X107258Y458959D01*
X105879Y470709D01*
X105871Y470735D01*
X105866Y470785D01*
X103299Y482335D01*
X103289Y482360D01*
X103279Y482409D01*
X99552Y493638D01*
X99539Y493662D01*
X99523Y493710D01*
X94674Y504502D01*
X94661Y504522D01*
X94644Y504562D01*
X86292Y519494D01*
X86279Y519510D01*
X86263Y519542D01*
X76835Y533819D01*
X76834Y533820D01*
X76833Y533822D01*
X57904Y562217D01*
X57880Y562243D01*
X57862Y562273D01*
X57796Y562332D01*
X57736Y562397D01*
X57705Y562414D01*
X57678Y562437D01*
X57597Y562472D01*
X57520Y562514D01*
X57485Y562520D01*
X57452Y562534D01*
X57364Y562541D01*
X57277Y562556D01*
X57242Y562551D01*
X57207Y562553D01*
X57121Y562532D01*
X57034Y562518D01*
X57003Y562502D01*
X56969Y562494D01*
X56823Y562411D01*
X55279Y561289D01*
X53605Y560436D01*
X51818Y559855D01*
X50545Y559654D01*
X50545Y570738D01*
X50542Y570758D01*
X50544Y570777D01*
X50522Y570879D01*
X50505Y570981D01*
X50496Y570998D01*
X50492Y571018D01*
X50439Y571107D01*
X50390Y571198D01*
X50376Y571212D01*
X50366Y571229D01*
X50287Y571296D01*
X50212Y571367D01*
X50194Y571376D01*
X50179Y571389D01*
X50083Y571427D01*
X49989Y571471D01*
X49969Y571473D01*
X49951Y571481D01*
X49784Y571499D01*
X49021Y571499D01*
X49021Y572262D01*
X49018Y572282D01*
X49020Y572301D01*
X48998Y572403D01*
X48981Y572505D01*
X48972Y572522D01*
X48968Y572542D01*
X48915Y572631D01*
X48866Y572722D01*
X48852Y572736D01*
X48842Y572753D01*
X48763Y572820D01*
X48688Y572891D01*
X48670Y572900D01*
X48655Y572913D01*
X48559Y572952D01*
X48465Y572995D01*
X48445Y572997D01*
X48427Y573005D01*
X48260Y573023D01*
X37176Y573023D01*
X37377Y574296D01*
X37958Y576083D01*
X38811Y577757D01*
X39916Y579278D01*
X41244Y580606D01*
X42765Y581711D01*
X44439Y582564D01*
X46226Y583145D01*
X47306Y583316D01*
X47410Y583350D01*
X47515Y583381D01*
X47527Y583389D01*
X47540Y583393D01*
X47627Y583459D01*
X47717Y583521D01*
X47726Y583532D01*
X47737Y583541D01*
X47799Y583631D01*
X47864Y583719D01*
X47868Y583732D01*
X47876Y583743D01*
X47906Y583848D01*
X47940Y583953D01*
X47941Y583970D01*
X47943Y583980D01*
X47942Y584008D01*
X47947Y584120D01*
X47941Y584200D01*
X48008Y585163D01*
X48004Y585209D01*
X48009Y585255D01*
X47993Y585331D01*
X47985Y585408D01*
X47967Y585451D01*
X47957Y585496D01*
X47917Y585562D01*
X47886Y585633D01*
X47854Y585667D01*
X47831Y585707D01*
X47772Y585757D01*
X47719Y585814D01*
X47679Y585837D01*
X47644Y585867D01*
X47572Y585896D01*
X47504Y585933D01*
X47459Y585941D01*
X47415Y585959D01*
X47281Y585974D01*
X47262Y585977D01*
X47257Y585976D01*
X47249Y585977D01*
X46849Y585977D01*
X42835Y587640D01*
X39762Y590713D01*
X38099Y594727D01*
X38099Y599073D01*
X39762Y603087D01*
X42835Y606160D01*
X46849Y607823D01*
X51307Y607823D01*
X51379Y607834D01*
X51451Y607836D01*
X51499Y607854D01*
X51550Y607862D01*
X51614Y607896D01*
X51682Y607921D01*
X51722Y607954D01*
X51767Y607978D01*
X51817Y608030D01*
X51874Y608076D01*
X51901Y608119D01*
X51937Y608156D01*
X51967Y608222D01*
X52006Y608283D01*
X52019Y608333D01*
X52040Y608379D01*
X52048Y608451D01*
X52066Y608521D01*
X52062Y608573D01*
X52067Y608623D01*
X52052Y608694D01*
X52046Y608767D01*
X52022Y608832D01*
X52015Y608864D01*
X52003Y608884D01*
X51988Y608924D01*
X51481Y609940D01*
X51463Y609965D01*
X51433Y610022D01*
X30276Y641758D01*
X30231Y641806D01*
X30195Y641860D01*
X30148Y641895D01*
X30108Y641938D01*
X30051Y641969D01*
X29999Y642009D01*
X29943Y642027D01*
X29892Y642055D01*
X29828Y642066D01*
X29765Y642087D01*
X29707Y642087D01*
X29650Y642097D01*
X29585Y642087D01*
X29519Y642087D01*
X29464Y642069D01*
X29407Y642060D01*
X29348Y642030D01*
X29286Y642009D01*
X29218Y641962D01*
X29188Y641947D01*
X29175Y641933D01*
X29148Y641914D01*
X20845Y634806D01*
X20837Y634797D01*
X20734Y634689D01*
X12020Y623253D01*
X12015Y623242D01*
X12009Y623233D01*
X11996Y623220D01*
X11983Y623189D01*
X11937Y623115D01*
X5821Y610103D01*
X5818Y610092D01*
X5768Y609951D01*
X2523Y595944D01*
X2522Y595932D01*
X2503Y595785D01*
X2273Y581409D01*
X2275Y581396D01*
X2288Y581248D01*
X5084Y567145D01*
X5088Y567134D01*
X5131Y566991D01*
X10829Y553790D01*
X10846Y553763D01*
X10885Y553683D01*
X14179Y548500D01*
X14222Y548453D01*
X14256Y548399D01*
X14303Y548362D01*
X14343Y548317D01*
X14398Y548285D01*
X14421Y548267D01*
X14840Y547485D01*
X14859Y547461D01*
X14891Y547403D01*
X15408Y546678D01*
X15408Y546645D01*
X15428Y546583D01*
X15439Y546518D01*
X15475Y546443D01*
X15485Y546411D01*
X15497Y546396D01*
X15511Y546366D01*
X17996Y542316D01*
X18016Y542293D01*
X18075Y542210D01*
X25756Y533537D01*
X25760Y533534D01*
X25762Y533530D01*
X25888Y533419D01*
X35363Y526752D01*
X35367Y526750D01*
X35370Y526747D01*
X35518Y526668D01*
X46275Y522365D01*
X46279Y522364D01*
X46283Y522362D01*
X46445Y522319D01*
X57905Y520613D01*
X57909Y520613D01*
X57914Y520611D01*
X58081Y520607D01*
X69625Y521590D01*
X69655Y521597D01*
X69756Y521612D01*
X75364Y523101D01*
X75380Y523108D01*
X75409Y523115D01*
X76401Y523445D01*
X77343Y522969D01*
X77344Y522969D01*
X77345Y522968D01*
X78283Y522499D01*
X78612Y521497D01*
X78613Y521496D01*
X78613Y521494D01*
X78945Y520499D01*
X78473Y519565D01*
X78471Y519557D01*
X78463Y519545D01*
X70763Y503103D01*
X70758Y503082D01*
X70741Y503049D01*
X57920Y469085D01*
X57915Y469058D01*
X57897Y469010D01*
X48626Y433911D01*
X48624Y433884D01*
X48610Y433835D01*
X42988Y397970D01*
X42988Y397942D01*
X42980Y397892D01*
X41065Y361640D01*
X41068Y361613D01*
X41065Y361561D01*
X42877Y325304D01*
X42881Y325283D01*
X42881Y325276D01*
X42881Y325271D01*
X42881Y325268D01*
X42882Y325245D01*
X45181Y307234D01*
X45186Y307218D01*
X45188Y307190D01*
X47050Y297295D01*
X47059Y297270D01*
X47068Y297221D01*
X52747Y277914D01*
X52761Y277885D01*
X52774Y277844D01*
X52777Y277833D01*
X52779Y277829D01*
X52782Y277819D01*
X60980Y259439D01*
X60998Y259412D01*
X61028Y259349D01*
X71598Y242223D01*
X71619Y242199D01*
X71657Y242140D01*
X84412Y226573D01*
X84432Y226555D01*
X84463Y226517D01*
X91590Y219406D01*
X91598Y219400D01*
X91608Y219388D01*
X202147Y116218D01*
X202148Y116218D01*
X203125Y115305D01*
X203147Y115285D01*
X203153Y115281D01*
X203161Y115272D01*
X216536Y103375D01*
X216554Y103364D01*
X216579Y103340D01*
X244960Y81531D01*
X244983Y81519D01*
X245020Y81490D01*
X275357Y62495D01*
X275376Y62487D01*
X275405Y62468D01*
X291220Y54081D01*
X291227Y54079D01*
X291236Y54073D01*
X292459Y53461D01*
X292460Y53461D01*
X350913Y24234D01*
X352136Y23622D01*
X352145Y23620D01*
X352156Y23613D01*
X362612Y18759D01*
X362635Y18752D01*
X362673Y18733D01*
X384339Y10880D01*
X384368Y10875D01*
X384423Y10855D01*
X406852Y5560D01*
X406881Y5558D01*
X406939Y5545D01*
X429829Y2880D01*
X429853Y2881D01*
X429895Y2875D01*
X441418Y2541D01*
X441426Y2542D01*
X441440Y2541D01*
X508000Y2541D01*
X508020Y2544D01*
G37*
G36*
X535014Y2544D02*
X535014Y2544D01*
X535052Y2543D01*
X538260Y2796D01*
X538266Y2797D01*
X538271Y2797D01*
X538436Y2830D01*
X544537Y4813D01*
X544569Y4829D01*
X544604Y4838D01*
X544749Y4921D01*
X549940Y8692D01*
X549965Y8718D01*
X549995Y8736D01*
X550108Y8860D01*
X553879Y14051D01*
X553895Y14083D01*
X553918Y14110D01*
X553987Y14263D01*
X555970Y20364D01*
X555970Y20370D01*
X555973Y20375D01*
X556004Y20540D01*
X556257Y23748D01*
X556255Y23770D01*
X556259Y23807D01*
X556259Y76200D01*
X556257Y76212D01*
X556259Y76230D01*
X555838Y86932D01*
X555832Y86961D01*
X555829Y87021D01*
X552481Y108161D01*
X552471Y108192D01*
X552453Y108277D01*
X545839Y128633D01*
X545824Y128662D01*
X545794Y128743D01*
X536077Y147813D01*
X536057Y147840D01*
X536014Y147915D01*
X523434Y165231D01*
X523410Y165254D01*
X523356Y165322D01*
X508222Y180456D01*
X508195Y180475D01*
X508131Y180534D01*
X490815Y193114D01*
X490786Y193129D01*
X490713Y193177D01*
X471643Y202894D01*
X471612Y202904D01*
X471533Y202939D01*
X451177Y209553D01*
X451144Y209558D01*
X451061Y209581D01*
X429921Y212929D01*
X429891Y212929D01*
X429832Y212938D01*
X419853Y213330D01*
X419746Y213317D01*
X419640Y213309D01*
X419621Y213302D01*
X419608Y213300D01*
X419581Y213287D01*
X419482Y213251D01*
X419295Y213157D01*
X418805Y213320D01*
X418767Y213326D01*
X418731Y213341D01*
X418564Y213359D01*
X418048Y213359D01*
X417855Y213552D01*
X417780Y213606D01*
X417709Y213666D01*
X417673Y213683D01*
X417655Y213696D01*
X417624Y213705D01*
X417557Y213736D01*
X267077Y263896D01*
X267011Y263907D01*
X266947Y263927D01*
X266890Y263926D01*
X266834Y263935D01*
X266776Y263926D01*
X265841Y264306D01*
X265823Y264311D01*
X265795Y264324D01*
X264848Y264639D01*
X264840Y264651D01*
X264785Y264689D01*
X264737Y264736D01*
X264666Y264774D01*
X264640Y264794D01*
X264620Y264799D01*
X264590Y264816D01*
X253934Y269154D01*
X231775Y281770D01*
X211453Y297169D01*
X193314Y315090D01*
X177670Y335224D01*
X164788Y357228D01*
X154888Y380726D01*
X148139Y405315D01*
X144658Y430575D01*
X144504Y456072D01*
X147679Y481371D01*
X154129Y506040D01*
X158434Y516614D01*
X158453Y516696D01*
X158480Y516776D01*
X158480Y516784D01*
X158943Y517863D01*
X158944Y517868D01*
X158948Y517876D01*
X158969Y517926D01*
X158970Y517933D01*
X158975Y517942D01*
X162127Y526205D01*
X162133Y526235D01*
X162154Y526293D01*
X166417Y543494D01*
X166420Y543527D01*
X166437Y543615D01*
X167870Y561278D01*
X167868Y561311D01*
X167870Y561402D01*
X166437Y579065D01*
X166429Y579096D01*
X166417Y579186D01*
X162154Y596387D01*
X162142Y596415D01*
X162127Y596475D01*
X159389Y603651D01*
X159348Y603722D01*
X159315Y603796D01*
X159288Y603826D01*
X158930Y604843D01*
X158921Y604859D01*
X158912Y604890D01*
X158481Y605894D01*
X158481Y605909D01*
X158467Y605958D01*
X158465Y605985D01*
X158452Y606012D01*
X158435Y606070D01*
X155819Y612477D01*
X155801Y612505D01*
X155769Y612577D01*
X147520Y626491D01*
X147505Y626509D01*
X147432Y626612D01*
X136626Y638648D01*
X136608Y638663D01*
X136516Y638748D01*
X123569Y648444D01*
X123548Y648455D01*
X123441Y648521D01*
X108850Y655503D01*
X108819Y655512D01*
X108746Y655543D01*
X101340Y657826D01*
X101309Y657830D01*
X101280Y657841D01*
X101113Y657860D01*
X90721Y657832D01*
X90696Y657828D01*
X90651Y657829D01*
X69187Y655797D01*
X69158Y655789D01*
X69095Y655782D01*
X48040Y651145D01*
X48017Y651136D01*
X47973Y651127D01*
X43038Y649554D01*
X42982Y649525D01*
X42922Y649506D01*
X42873Y649470D01*
X42819Y649442D01*
X42775Y649397D01*
X42724Y649360D01*
X42689Y649310D01*
X42647Y649267D01*
X42619Y649210D01*
X42583Y649158D01*
X42566Y649100D01*
X42540Y649045D01*
X42532Y648983D01*
X42514Y648922D01*
X42513Y648834D01*
X42509Y648801D01*
X42512Y648784D01*
X42512Y648754D01*
X42719Y646636D01*
X42728Y646604D01*
X42738Y646526D01*
X43881Y641954D01*
X43894Y641924D01*
X43916Y641848D01*
X45718Y637493D01*
X45735Y637465D01*
X45768Y637393D01*
X48190Y633351D01*
X48211Y633326D01*
X48254Y633259D01*
X51243Y629616D01*
X51267Y629594D01*
X51320Y629535D01*
X54811Y626369D01*
X54839Y626351D01*
X54899Y626300D01*
X58817Y623682D01*
X58847Y623668D01*
X58915Y623627D01*
X63175Y621612D01*
X63176Y621612D01*
X63177Y621611D01*
X65919Y620328D01*
X68411Y618706D01*
X70655Y616755D01*
X72606Y614511D01*
X74228Y612019D01*
X75487Y609327D01*
X75780Y608363D01*
X75794Y608335D01*
X75800Y608304D01*
X75848Y608225D01*
X75888Y608142D01*
X75910Y608120D01*
X75926Y608093D01*
X75996Y608033D01*
X76061Y607968D01*
X76089Y607954D01*
X76113Y607933D01*
X76199Y607899D01*
X76281Y607857D01*
X76312Y607853D01*
X76341Y607841D01*
X76508Y607823D01*
X80151Y607823D01*
X84165Y606160D01*
X87238Y603087D01*
X88901Y599073D01*
X88901Y594727D01*
X87238Y590713D01*
X84165Y587640D01*
X80151Y585977D01*
X75805Y585977D01*
X74233Y586629D01*
X74211Y586634D01*
X74191Y586645D01*
X74091Y586662D01*
X73993Y586685D01*
X73971Y586683D01*
X73949Y586687D01*
X73849Y586671D01*
X73748Y586662D01*
X73728Y586653D01*
X73706Y586649D01*
X73616Y586603D01*
X73524Y586562D01*
X73507Y586546D01*
X73487Y586536D01*
X73417Y586464D01*
X73343Y586395D01*
X73332Y586376D01*
X73316Y586359D01*
X73273Y586268D01*
X73224Y586180D01*
X73220Y586158D01*
X73210Y586137D01*
X73182Y585972D01*
X73076Y584247D01*
X73079Y584216D01*
X73076Y584153D01*
X73117Y583474D01*
X73143Y583362D01*
X73166Y583249D01*
X73170Y583242D01*
X73172Y583235D01*
X73232Y583136D01*
X73290Y583036D01*
X73296Y583031D01*
X73300Y583025D01*
X73388Y582951D01*
X73476Y582874D01*
X73483Y582871D01*
X73489Y582867D01*
X73596Y582825D01*
X73703Y582780D01*
X73710Y582780D01*
X73718Y582777D01*
X73833Y582771D01*
X73948Y582763D01*
X73957Y582765D01*
X73963Y582765D01*
X73983Y582770D01*
X74112Y582797D01*
X75182Y583145D01*
X76455Y583346D01*
X76455Y572262D01*
X76458Y572242D01*
X76456Y572223D01*
X76478Y572121D01*
X76495Y572019D01*
X76504Y572002D01*
X76508Y571982D01*
X76561Y571893D01*
X76610Y571802D01*
X76624Y571788D01*
X76634Y571771D01*
X76713Y571704D01*
X76788Y571633D01*
X76806Y571624D01*
X76821Y571611D01*
X76917Y571573D01*
X77011Y571529D01*
X77031Y571527D01*
X77049Y571519D01*
X77216Y571501D01*
X77979Y571501D01*
X77979Y570738D01*
X77982Y570718D01*
X77980Y570699D01*
X78002Y570597D01*
X78019Y570495D01*
X78028Y570478D01*
X78032Y570458D01*
X78085Y570369D01*
X78134Y570278D01*
X78148Y570264D01*
X78158Y570247D01*
X78237Y570180D01*
X78312Y570109D01*
X78330Y570100D01*
X78345Y570087D01*
X78441Y570048D01*
X78535Y570005D01*
X78555Y570003D01*
X78573Y569995D01*
X78740Y569977D01*
X89824Y569977D01*
X89623Y568704D01*
X89042Y566917D01*
X88189Y565243D01*
X87084Y563722D01*
X85756Y562394D01*
X84235Y561289D01*
X82561Y560436D01*
X80896Y559895D01*
X80856Y559874D01*
X80813Y559862D01*
X80748Y559818D01*
X80678Y559782D01*
X80646Y559750D01*
X80609Y559725D01*
X80561Y559662D01*
X80507Y559606D01*
X80487Y559565D01*
X80460Y559529D01*
X80434Y559455D01*
X80401Y559384D01*
X80395Y559339D01*
X80381Y559296D01*
X80380Y559217D01*
X80371Y559140D01*
X80380Y559095D01*
X80380Y559050D01*
X80417Y558915D01*
X80421Y558899D01*
X80423Y558895D01*
X80425Y558888D01*
X100888Y507730D01*
X106364Y492446D01*
X110316Y476723D01*
X112715Y460690D01*
X113539Y444480D01*
X113539Y393700D01*
X113541Y393687D01*
X113540Y393666D01*
X114057Y382005D01*
X114062Y381980D01*
X114063Y381934D01*
X115655Y370370D01*
X115662Y370346D01*
X115668Y370301D01*
X118321Y358933D01*
X118330Y358910D01*
X118340Y358866D01*
X122031Y347791D01*
X122043Y347769D01*
X122056Y347726D01*
X126755Y337040D01*
X126768Y337019D01*
X126786Y336977D01*
X132451Y326770D01*
X132467Y326750D01*
X132488Y326710D01*
X139071Y317071D01*
X139087Y317054D01*
X139110Y317019D01*
X161218Y289863D01*
X161234Y289849D01*
X161256Y289819D01*
X185356Y264413D01*
X185373Y264400D01*
X185397Y264373D01*
X211349Y240862D01*
X211367Y240850D01*
X211393Y240825D01*
X239049Y219345D01*
X239068Y219334D01*
X239096Y219311D01*
X268298Y199984D01*
X268317Y199976D01*
X268347Y199954D01*
X298927Y182892D01*
X298947Y182885D01*
X298979Y182866D01*
X330762Y168165D01*
X330783Y168160D01*
X330815Y168143D01*
X363619Y155889D01*
X363640Y155885D01*
X363674Y155871D01*
X397311Y146134D01*
X397332Y146131D01*
X397367Y146120D01*
X431638Y138956D01*
X443583Y136257D01*
X455133Y132296D01*
X466188Y127113D01*
X470564Y124451D01*
X471816Y123690D01*
X476620Y120767D01*
X486307Y113333D01*
X495135Y104898D01*
X503002Y95559D01*
X509815Y85426D01*
X515495Y74617D01*
X519984Y63240D01*
X523140Y53772D01*
X523186Y53685D01*
X523226Y53595D01*
X523243Y53577D01*
X523255Y53555D01*
X523326Y53487D01*
X523392Y53414D01*
X523414Y53402D01*
X523432Y53385D01*
X523521Y53343D01*
X523608Y53296D01*
X523633Y53291D01*
X523655Y53281D01*
X523753Y53269D01*
X523850Y53252D01*
X523875Y53256D01*
X523900Y53253D01*
X523996Y53273D01*
X524093Y53288D01*
X524116Y53299D01*
X524140Y53304D01*
X524225Y53355D01*
X524312Y53399D01*
X524330Y53417D01*
X524352Y53430D01*
X524416Y53505D01*
X524485Y53575D01*
X524500Y53602D01*
X524512Y53616D01*
X524524Y53647D01*
X524566Y53722D01*
X525918Y56987D01*
X528991Y60060D01*
X533005Y61723D01*
X537351Y61723D01*
X541365Y60060D01*
X544438Y56987D01*
X546101Y52973D01*
X546101Y48627D01*
X544438Y44613D01*
X541365Y41540D01*
X537351Y39877D01*
X533005Y39877D01*
X528991Y41540D01*
X528611Y41920D01*
X528554Y41961D01*
X528503Y42010D01*
X528455Y42032D01*
X528411Y42063D01*
X528344Y42084D01*
X528280Y42114D01*
X528227Y42120D01*
X528176Y42136D01*
X528106Y42134D01*
X528035Y42142D01*
X527984Y42131D01*
X527930Y42129D01*
X527864Y42105D01*
X527795Y42090D01*
X527749Y42063D01*
X527699Y42045D01*
X527644Y42001D01*
X527583Y41965D01*
X527549Y41924D01*
X527507Y41891D01*
X527469Y41832D01*
X527423Y41778D01*
X527403Y41729D01*
X527374Y41684D01*
X527357Y41616D01*
X527331Y41550D01*
X527327Y41497D01*
X527314Y41446D01*
X527320Y41375D01*
X527315Y41305D01*
X527331Y41233D01*
X527333Y41201D01*
X527342Y41180D01*
X527351Y41141D01*
X528875Y36569D01*
X528910Y36501D01*
X528937Y36429D01*
X528967Y36393D01*
X528989Y36351D01*
X529044Y36298D01*
X529093Y36239D01*
X529133Y36214D01*
X529167Y36181D01*
X529236Y36149D01*
X529301Y36108D01*
X529347Y36097D01*
X529390Y36077D01*
X529466Y36069D01*
X529540Y36051D01*
X529587Y36055D01*
X529634Y36049D01*
X529709Y36065D01*
X529785Y36072D01*
X529845Y36095D01*
X529875Y36101D01*
X529897Y36114D01*
X529942Y36131D01*
X530595Y36464D01*
X532382Y37045D01*
X533655Y37246D01*
X533655Y26162D01*
X533658Y26142D01*
X533656Y26123D01*
X533678Y26021D01*
X533695Y25919D01*
X533704Y25902D01*
X533708Y25882D01*
X533761Y25793D01*
X533810Y25702D01*
X533824Y25688D01*
X533834Y25671D01*
X533913Y25604D01*
X533988Y25533D01*
X534006Y25524D01*
X534021Y25511D01*
X534117Y25473D01*
X534211Y25429D01*
X534231Y25427D01*
X534249Y25419D01*
X534416Y25401D01*
X535179Y25401D01*
X535179Y25399D01*
X534416Y25399D01*
X534396Y25396D01*
X534377Y25398D01*
X534275Y25376D01*
X534173Y25359D01*
X534156Y25350D01*
X534136Y25346D01*
X534047Y25293D01*
X533956Y25244D01*
X533942Y25230D01*
X533925Y25220D01*
X533858Y25141D01*
X533787Y25066D01*
X533778Y25048D01*
X533765Y25033D01*
X533726Y24937D01*
X533683Y24843D01*
X533681Y24823D01*
X533673Y24805D01*
X533655Y24638D01*
X533655Y13554D01*
X533519Y13575D01*
X533440Y13575D01*
X533361Y13584D01*
X533317Y13574D01*
X533273Y13574D01*
X533198Y13548D01*
X533120Y13531D01*
X533082Y13509D01*
X533040Y13494D01*
X532977Y13446D01*
X532909Y13405D01*
X532880Y13371D01*
X532845Y13345D01*
X532801Y13279D01*
X532749Y13218D01*
X532733Y13177D01*
X532708Y13141D01*
X532687Y13064D01*
X532657Y12990D01*
X532651Y12932D01*
X532643Y12903D01*
X532645Y12876D01*
X532639Y12823D01*
X532639Y3302D01*
X532642Y3282D01*
X532640Y3263D01*
X532662Y3161D01*
X532679Y3059D01*
X532688Y3042D01*
X532692Y3022D01*
X532745Y2933D01*
X532794Y2842D01*
X532808Y2828D01*
X532818Y2811D01*
X532897Y2744D01*
X532972Y2672D01*
X532990Y2664D01*
X533005Y2651D01*
X533101Y2612D01*
X533195Y2569D01*
X533215Y2567D01*
X533233Y2559D01*
X533400Y2541D01*
X534993Y2541D01*
X535014Y2544D01*
G37*
%LPC*%
G36*
X79501Y573023D02*
X79501Y573023D01*
X79501Y583346D01*
X80774Y583145D01*
X82561Y582564D01*
X84235Y581711D01*
X85756Y580606D01*
X87084Y579278D01*
X88189Y577757D01*
X89042Y576083D01*
X89623Y574296D01*
X89824Y573023D01*
X79501Y573023D01*
G37*
%LPD*%
%LPC*%
G36*
X536701Y26923D02*
X536701Y26923D01*
X536701Y37246D01*
X537974Y37045D01*
X539761Y36464D01*
X541435Y35611D01*
X542956Y34506D01*
X544284Y33178D01*
X545389Y31657D01*
X546242Y29983D01*
X546823Y28196D01*
X547024Y26923D01*
X536701Y26923D01*
G37*
%LPD*%
%LPC*%
G36*
X494376Y26923D02*
X494376Y26923D01*
X494577Y28196D01*
X495158Y29983D01*
X496011Y31657D01*
X497116Y33178D01*
X498444Y34506D01*
X499965Y35611D01*
X501639Y36464D01*
X503426Y37045D01*
X504699Y37246D01*
X504699Y26923D01*
X494376Y26923D01*
G37*
%LPD*%
%LPC*%
G36*
X536701Y23877D02*
X536701Y23877D01*
X547024Y23877D01*
X546823Y22604D01*
X546242Y20817D01*
X545389Y19143D01*
X544284Y17622D01*
X542956Y16294D01*
X541435Y15189D01*
X539761Y14336D01*
X537974Y13755D01*
X536701Y13554D01*
X536701Y23877D01*
G37*
%LPD*%
%LPC*%
G36*
X46226Y559855D02*
X46226Y559855D01*
X44439Y560436D01*
X42765Y561289D01*
X41244Y562394D01*
X39916Y563722D01*
X38811Y565243D01*
X37958Y566917D01*
X37377Y568704D01*
X37176Y569977D01*
X47499Y569977D01*
X47499Y559654D01*
X46226Y559855D01*
G37*
%LPD*%
%LPC*%
G36*
X503426Y13755D02*
X503426Y13755D01*
X501639Y14336D01*
X499965Y15189D01*
X498444Y16294D01*
X497116Y17622D01*
X496011Y19143D01*
X495158Y20817D01*
X494577Y22604D01*
X494376Y23877D01*
X504699Y23877D01*
X504699Y13554D01*
X503426Y13755D01*
G37*
%LPD*%
D10*
X49022Y596900D03*
X77978Y596900D03*
X49022Y571500D03*
X77978Y571500D03*
X506222Y50800D03*
X535178Y50800D03*
X506222Y25400D03*
X535178Y25400D03*
M02*
