G04 EAGLE Gerber X2 export*
G75*
%MOMM*%
%FSLAX34Y34*%
%LPD*%
%AMOC8*
5,1,8,0,0,1.08239X$1,22.5*%
G01*
%ADD10C,2.082800*%
%ADD11R,1.159256X0.041400*%
%ADD12R,1.614678X0.041403*%
%ADD13R,1.821688X0.041403*%
%ADD14R,2.070100X0.041400*%
%ADD15R,2.318513X0.041403*%
%ADD16R,1.283459X0.041403*%
%ADD17R,0.993647X0.041403*%
%ADD18R,0.952244X0.041400*%
%ADD19R,0.703834X0.041400*%
%ADD20R,0.786637X0.041403*%
%ADD21R,0.538225X0.041403*%
%ADD22R,0.745237X0.041400*%
%ADD23R,0.455422X0.041400*%
%ADD24R,0.703834X0.041403*%
%ADD25R,0.414022X0.041403*%
%ADD26R,0.579628X0.041403*%
%ADD27R,0.331216X0.041403*%
%ADD28R,0.496825X0.041400*%
%ADD29R,0.331216X0.041400*%
%ADD30R,0.538228X0.041403*%
%ADD31R,0.538225X0.041400*%
%ADD32R,0.372619X0.041400*%
%ADD33R,0.414019X0.041403*%
%ADD34R,0.496825X0.041403*%
%ADD35R,0.372616X0.041403*%
%ADD36R,0.455422X0.041403*%
%ADD37R,0.372619X0.041403*%
%ADD38R,0.414019X0.041400*%
%ADD39R,0.331219X0.041403*%
%ADD40R,0.496822X0.041400*%
%ADD41R,0.289813X0.041403*%
%ADD42R,0.289813X0.041400*%
%ADD43R,0.579628X0.041400*%
%ADD44R,0.289816X0.041403*%
%ADD45R,0.662434X0.041403*%
%ADD46R,0.289816X0.041400*%
%ADD47R,0.703831X0.041400*%
%ADD48R,0.248413X0.041403*%
%ADD49R,0.745237X0.041403*%
%ADD50R,0.786641X0.041400*%
%ADD51R,0.828041X0.041403*%
%ADD52R,0.869441X0.041403*%
%ADD53R,0.910844X0.041400*%
%ADD54R,1.035050X0.041403*%
%ADD55R,1.117853X0.041403*%
%ADD56R,1.283462X0.041400*%
%ADD57R,2.484119X0.041403*%
%ADD58R,2.318513X0.041400*%
%ADD59R,2.152903X0.041403*%
%ADD60R,1.904491X0.041403*%
%ADD61R,1.614678X0.041400*%
%ADD62R,0.952244X0.041403*%
%ADD63R,0.786637X0.041400*%
%ADD64R,1.490472X0.041403*%
%ADD65R,1.863091X0.041400*%
%ADD66R,2.028697X0.041403*%
%ADD67R,1.656078X0.041400*%
%ADD68R,0.372616X0.041400*%
%ADD69R,2.359913X0.041403*%
%ADD70R,2.566925X0.041403*%
%ADD71R,1.035050X0.041400*%
%ADD72R,0.621028X0.041400*%
%ADD73R,0.662431X0.041400*%
%ADD74R,0.579625X0.041403*%
%ADD75R,0.538228X0.041400*%
%ADD76R,0.414022X0.041400*%
%ADD77R,0.496822X0.041403*%
%ADD78R,0.662431X0.041403*%
%ADD79R,0.869444X0.041403*%
%ADD80R,0.993647X0.041400*%
%ADD81R,1.159253X0.041403*%
%ADD82R,0.041403X0.041403*%
%ADD83R,1.324866X0.041403*%
%ADD84R,1.407669X0.041400*%
%ADD85R,0.621028X0.041403*%
%ADD86R,0.331219X0.041400*%
%ADD87R,0.952247X0.041400*%
%ADD88R,1.200659X0.041403*%
%ADD89R,1.407669X0.041403*%
%ADD90R,0.248413X0.041400*%
%ADD91R,1.573278X0.041400*%
%ADD92R,1.780288X0.041403*%
%ADD93R,2.028697X0.041400*%
%ADD94R,0.952247X0.041403*%
%ADD95R,0.745234X0.041403*%
%ADD96R,0.745234X0.041400*%
%ADD97R,0.662434X0.041400*%
%ADD98R,0.621031X0.041400*%
%ADD99R,0.621031X0.041403*%
%ADD100R,0.207009X0.041403*%
%ADD101R,0.207009X0.041400*%
%ADD102R,0.786641X0.041403*%
%ADD103R,1.117853X0.041400*%
%ADD104R,1.076453X0.041403*%
%ADD105R,2.277109X0.041403*%
%ADD106R,2.152906X0.041403*%
%ADD107R,0.869444X0.041400*%
%ADD108R,1.987297X0.041400*%
%ADD109R,1.697481X0.041403*%
%ADD110R,1.490472X0.041400*%
%ADD111R,1.242059X0.041403*%
%ADD112R,0.828041X0.041400*%
%ADD113R,1.200656X0.041403*%
%ADD114R,1.324863X0.041400*%
%ADD115R,1.449069X0.041403*%
%ADD116R,1.780288X0.041400*%
%ADD117R,0.165609X0.041400*%
%ADD118R,0.041400X0.041403*%
%ADD119R,0.248409X0.041403*%
%ADD120R,1.283462X0.041403*%
%ADD121R,1.242059X0.041400*%
%ADD122R,0.248409X0.041400*%
%ADD123R,1.449069X0.041400*%
%ADD124R,1.324863X0.041403*%
%ADD125R,1.573275X0.041403*%
%ADD126R,1.242063X0.041403*%
%ADD127R,1.407666X0.041400*%
%ADD128R,1.697481X0.041400*%
%ADD129R,1.821691X0.041403*%
%ADD130R,0.910847X0.041403*%
%ADD131R,0.579625X0.041400*%
%ADD132R,0.455425X0.041403*%
%ADD133R,1.531872X0.041400*%
%ADD134R,1.076453X0.041400*%
%ADD135R,1.738881X0.041403*%
%ADD136R,1.076450X0.041403*%
%ADD137R,0.869441X0.041400*%
%ADD138R,0.082803X0.041400*%
%ADD139R,1.366266X0.041400*%
%ADD140R,1.945894X0.041403*%
%ADD141R,1.945894X0.041400*%
%ADD142R,0.703831X0.041403*%
%ADD143R,2.028700X0.041403*%
%ADD144R,2.111500X0.041403*%
%ADD145R,0.910844X0.041403*%
%ADD146R,0.993650X0.041403*%
%ADD147R,0.124206X0.041403*%
%ADD148R,1.531875X0.041400*%
%ADD149R,0.165609X0.041403*%
%ADD150R,0.082806X0.041403*%
%ADD151R,1.656081X0.041403*%
%ADD152R,2.111503X0.041403*%
%ADD153R,2.194306X0.041400*%
%ADD154R,1.531875X0.041403*%
%ADD155R,1.656081X0.041400*%
%ADD156R,1.780284X0.041403*%
%ADD157R,1.987294X0.041403*%
%ADD158R,1.159256X0.041403*%
%ADD159R,0.041400X0.041400*%
%ADD160R,0.455425X0.041400*%
%ADD161R,1.200659X0.041400*%
%ADD162R,1.076450X0.041400*%
%ADD163R,1.366266X0.041403*%
%ADD164R,1.449072X0.041403*%
%ADD165R,1.324866X0.041400*%
%ADD166R,1.573278X0.041403*%
%ADD167R,1.697484X0.041403*%
%ADD168R,1.738884X0.041403*%
%ADD169R,1.987297X0.041403*%
%ADD170R,2.028700X0.041400*%
%ADD171R,0.828038X0.041400*%
%ADD172R,0.124206X0.041400*%
%ADD173R,0.828038X0.041403*%
%ADD174R,0.993650X0.041400*%
%ADD175R,0.207013X0.041403*%
%ADD176R,0.207013X0.041400*%
%ADD177R,0.082806X0.041400*%
%ADD178R,1.117856X0.041403*%
%ADD179R,1.200656X0.041400*%
%ADD180R,0.082803X0.041403*%
%ADD181R,0.124203X0.041403*%
%ADD182R,0.165606X0.041400*%
%ADD183R,0.165606X0.041403*%
%ADD184R,0.910847X0.041400*%
%ADD185R,0.041403X0.041400*%


D10*
X49022Y596900D03*
X77978Y596900D03*
X49022Y571500D03*
X77978Y571500D03*
X506222Y50800D03*
X535178Y50800D03*
X506222Y25400D03*
X535178Y25400D03*
D11*
X412850Y12700D03*
D12*
X412229Y13114D03*
D13*
X412436Y13528D03*
D14*
X412022Y13942D03*
D15*
X411194Y14356D03*
D16*
X404363Y14770D03*
D17*
X418647Y14770D03*
D18*
X401465Y15184D03*
D19*
X420510Y15184D03*
D20*
X399809Y15598D03*
D21*
X421338Y15598D03*
D22*
X398774Y16012D03*
D23*
X421752Y16012D03*
D24*
X397739Y16426D03*
D25*
X421959Y16426D03*
D26*
X396290Y16840D03*
D27*
X422373Y16840D03*
D28*
X395047Y17254D03*
D29*
X422373Y17254D03*
D30*
X394012Y17668D03*
D27*
X422373Y17668D03*
D21*
X393184Y18082D03*
D27*
X422373Y18082D03*
D31*
X392356Y18496D03*
D32*
X422166Y18496D03*
D30*
X391528Y18910D03*
D25*
X421959Y18910D03*
D21*
X390700Y19324D03*
D33*
X421545Y19324D03*
D31*
X389872Y19738D03*
D32*
X420924Y19738D03*
D34*
X389251Y20152D03*
D35*
X420510Y20152D03*
D28*
X388423Y20566D03*
D32*
X420096Y20566D03*
D36*
X387802Y20980D03*
D37*
X419682Y20980D03*
D33*
X387181Y21394D03*
X419475Y21394D03*
D32*
X386560Y21808D03*
D38*
X419061Y21808D03*
D39*
X385939Y22222D03*
D25*
X418647Y22222D03*
D27*
X385525Y22636D03*
D36*
X418026Y22636D03*
D29*
X385111Y23051D03*
D40*
X417405Y23051D03*
D39*
X384697Y23465D03*
D36*
X417198Y23465D03*
D27*
X384283Y23879D03*
D21*
X416370Y23879D03*
D29*
X383869Y24293D03*
D28*
X415748Y24293D03*
D27*
X383455Y24707D03*
D21*
X415127Y24707D03*
D41*
X383248Y25121D03*
D26*
X414506Y25121D03*
D42*
X382834Y25535D03*
D43*
X413678Y25535D03*
D44*
X382420Y25949D03*
D45*
X412850Y25949D03*
D46*
X382420Y26363D03*
D47*
X411815Y26363D03*
D48*
X382213Y26777D03*
D24*
X410987Y26777D03*
D41*
X382006Y27191D03*
D49*
X409952Y27191D03*
D42*
X382006Y27605D03*
D50*
X408917Y27605D03*
D27*
X381799Y28019D03*
D51*
X407882Y28019D03*
D27*
X381799Y28433D03*
D52*
X406847Y28433D03*
D29*
X382213Y28847D03*
D53*
X405398Y28847D03*
D35*
X382420Y29261D03*
D54*
X403535Y29261D03*
D36*
X383248Y29675D03*
D55*
X402293Y29675D03*
D19*
X384076Y30089D03*
D56*
X400637Y30089D03*
D57*
X393805Y30503D03*
D58*
X392977Y30917D03*
D59*
X392149Y31331D03*
D60*
X391321Y31745D03*
D61*
X389872Y32159D03*
D62*
X386560Y32573D03*
D63*
X375382Y39197D03*
D54*
X375796Y39611D03*
D64*
X375175Y40025D03*
D65*
X374139Y40439D03*
D66*
X374139Y40853D03*
D67*
X370206Y41267D03*
D68*
X382420Y41267D03*
D69*
X372897Y41681D03*
D70*
X372276Y42095D03*
D71*
X364617Y42509D03*
D18*
X380764Y42509D03*
D51*
X362754Y42923D03*
D20*
X381592Y42923D03*
D24*
X361719Y43337D03*
D49*
X382213Y43337D03*
D72*
X360477Y43752D03*
D73*
X382627Y43752D03*
D74*
X359442Y44166D03*
D26*
X383041Y44166D03*
X358614Y44580D03*
X383455Y44580D03*
D43*
X357786Y44994D03*
D75*
X383662Y44994D03*
D30*
X357165Y45408D03*
D34*
X383869Y45408D03*
D36*
X355923Y45822D03*
D21*
X384076Y45822D03*
D76*
X355302Y46236D03*
D40*
X384283Y46236D03*
D36*
X354681Y46650D03*
D77*
X384283Y46650D03*
D76*
X354059Y47064D03*
D23*
X384490Y47064D03*
D37*
X353438Y47478D03*
D34*
X384697Y47478D03*
D35*
X352610Y47892D03*
D34*
X384697Y47892D03*
D68*
X331909Y48306D03*
D32*
X352196Y48306D03*
D28*
X384697Y48306D03*
D78*
X331702Y48720D03*
D27*
X351575Y48720D03*
D33*
X384697Y48720D03*
D79*
X331495Y49134D03*
D27*
X351161Y49134D03*
D33*
X384697Y49134D03*
D80*
X331288Y49548D03*
D29*
X350747Y49548D03*
D32*
X384490Y49548D03*
D81*
X331288Y49962D03*
D82*
X337706Y49962D03*
D37*
X350540Y49962D03*
X384490Y49962D03*
D83*
X331288Y50376D03*
D35*
X350126Y50376D03*
D37*
X384490Y50376D03*
D84*
X330874Y50790D03*
D32*
X349712Y50790D03*
D29*
X384283Y50790D03*
D52*
X327355Y51204D03*
D25*
X335843Y51204D03*
D37*
X349298Y51204D03*
X384076Y51204D03*
D22*
X326320Y51618D03*
D29*
X336257Y51618D03*
D38*
X349091Y51618D03*
D29*
X383869Y51618D03*
D24*
X325285Y52032D03*
D44*
X336464Y52032D03*
D25*
X348677Y52032D03*
D27*
X383869Y52032D03*
D24*
X324457Y52446D03*
D48*
X336671Y52446D03*
D37*
X348470Y52446D03*
D27*
X383455Y52446D03*
D72*
X323629Y52860D03*
D46*
X336464Y52860D03*
D68*
X348056Y52860D03*
D29*
X383455Y52860D03*
D85*
X322801Y53274D03*
D41*
X336050Y53274D03*
D37*
X347642Y53274D03*
D27*
X383041Y53274D03*
D21*
X321973Y53688D03*
D27*
X335843Y53688D03*
D37*
X347228Y53688D03*
D41*
X382834Y53688D03*
D43*
X321352Y54102D03*
D29*
X335843Y54102D03*
X346607Y54102D03*
X382627Y54102D03*
D26*
X320938Y54516D03*
D41*
X335636Y54516D03*
D27*
X346607Y54516D03*
X382213Y54516D03*
D34*
X320524Y54930D03*
D41*
X335636Y54930D03*
D27*
X346193Y54930D03*
X381799Y54930D03*
D28*
X320110Y55344D03*
D46*
X335222Y55344D03*
D29*
X345779Y55344D03*
X381799Y55344D03*
D36*
X319489Y55758D03*
D44*
X335222Y55758D03*
D27*
X345365Y55758D03*
X381385Y55758D03*
D36*
X318661Y56172D03*
D41*
X334808Y56172D03*
D27*
X344951Y56172D03*
X380971Y56172D03*
D38*
X318040Y56586D03*
D86*
X334187Y56586D03*
D46*
X344744Y56586D03*
D29*
X380557Y56586D03*
D28*
X416991Y56586D03*
D25*
X317626Y57000D03*
D37*
X333980Y57000D03*
D44*
X344330Y57000D03*
D37*
X380350Y57000D03*
D20*
X415955Y57000D03*
D38*
X317212Y57414D03*
D32*
X333566Y57414D03*
D46*
X344330Y57414D03*
D32*
X379936Y57414D03*
D87*
X415541Y57414D03*
D37*
X316591Y57828D03*
X333151Y57828D03*
D41*
X343916Y57828D03*
D37*
X379522Y57828D03*
D88*
X415955Y57828D03*
D37*
X316177Y58242D03*
X332737Y58242D03*
D44*
X343502Y58242D03*
D35*
X379108Y58242D03*
D89*
X415748Y58242D03*
D68*
X315763Y58656D03*
D76*
X332530Y58656D03*
D90*
X343295Y58656D03*
D32*
X378694Y58656D03*
D91*
X415334Y58656D03*
D37*
X315349Y59070D03*
D36*
X331909Y59070D03*
D44*
X343088Y59070D03*
D37*
X378280Y59070D03*
D92*
X415127Y59070D03*
D27*
X315142Y59484D03*
D36*
X331495Y59484D03*
D48*
X342881Y59484D03*
D33*
X377659Y59484D03*
D60*
X414920Y59484D03*
D29*
X314728Y59898D03*
D23*
X331081Y59898D03*
D90*
X342881Y59898D03*
D76*
X377245Y59898D03*
D93*
X414713Y59898D03*
D27*
X314314Y60312D03*
D77*
X330046Y60312D03*
D41*
X342674Y60312D03*
D36*
X377038Y60312D03*
D94*
X408503Y60312D03*
D95*
X421959Y60312D03*
D27*
X313900Y60726D03*
D34*
X329632Y60726D03*
D41*
X342674Y60726D03*
D34*
X376417Y60726D03*
D20*
X406847Y60726D03*
D95*
X422373Y60726D03*
D46*
X313693Y61140D03*
D28*
X329218Y61140D03*
D42*
X342674Y61140D03*
D23*
X375796Y61140D03*
D96*
X405812Y61140D03*
D22*
X422787Y61140D03*
D44*
X313279Y61554D03*
D77*
X328804Y61554D03*
D48*
X342467Y61554D03*
D34*
X375175Y61554D03*
D45*
X404984Y61554D03*
D85*
X423822Y61554D03*
D90*
X313072Y61968D03*
D40*
X327976Y61968D03*
D90*
X342467Y61968D03*
D28*
X374346Y61968D03*
D97*
X403742Y61968D03*
D98*
X424236Y61968D03*
D41*
X312865Y62382D03*
D34*
X327562Y62382D03*
D48*
X342467Y62382D03*
D36*
X373725Y62382D03*
D85*
X403121Y62382D03*
X425064Y62382D03*
D44*
X312450Y62796D03*
D26*
X326734Y62796D03*
D48*
X342467Y62796D03*
D36*
X372897Y62796D03*
D21*
X402293Y62796D03*
D26*
X425271Y62796D03*
D46*
X312450Y63210D03*
D43*
X325906Y63210D03*
D90*
X342467Y63210D03*
D23*
X372069Y63210D03*
D31*
X401465Y63210D03*
X425478Y63210D03*
D44*
X312450Y63624D03*
D26*
X325492Y63624D03*
D48*
X342467Y63624D03*
D36*
X371241Y63624D03*
D21*
X400637Y63624D03*
D77*
X425685Y63624D03*
D48*
X312243Y64038D03*
D30*
X324871Y64038D03*
D48*
X342467Y64038D03*
D36*
X370413Y64038D03*
D30*
X399809Y64038D03*
D36*
X425892Y64038D03*
D90*
X312243Y64453D03*
D43*
X324250Y64453D03*
D90*
X342467Y64453D03*
D28*
X369792Y64453D03*
D43*
X399188Y64453D03*
D38*
X426099Y64453D03*
D48*
X312243Y64867D03*
D99*
X323215Y64867D03*
D41*
X342674Y64867D03*
D34*
X368964Y64867D03*
D26*
X398774Y64867D03*
D36*
X426306Y64867D03*
D100*
X312036Y65281D03*
D78*
X322594Y65281D03*
D27*
X342881Y65281D03*
D21*
X368343Y65281D03*
X398153Y65281D03*
D25*
X426513Y65281D03*
D101*
X312036Y65695D03*
D73*
X321766Y65695D03*
D32*
X343088Y65695D03*
D28*
X367722Y65695D03*
D43*
X397532Y65695D03*
D76*
X426513Y65695D03*
D100*
X312036Y66109D03*
D78*
X321352Y66109D03*
D33*
X343295Y66109D03*
D77*
X366894Y66109D03*
D21*
X396911Y66109D03*
D25*
X426513Y66109D03*
D100*
X312036Y66523D03*
D24*
X320731Y66523D03*
D36*
X343502Y66523D03*
X366273Y66523D03*
D34*
X396290Y66523D03*
D37*
X426720Y66523D03*
D101*
X312036Y66937D03*
D96*
X319696Y66937D03*
D28*
X344123Y66937D03*
D73*
X364410Y66937D03*
D31*
X395669Y66937D03*
D32*
X426720Y66937D03*
D100*
X312036Y67351D03*
D51*
X318868Y67351D03*
D26*
X344537Y67351D03*
D102*
X362961Y67351D03*
D34*
X395462Y67351D03*
D37*
X426720Y67351D03*
D103*
X316591Y67765D03*
D73*
X345365Y67765D03*
D53*
X361512Y67765D03*
D23*
X394840Y67765D03*
D29*
X426513Y67765D03*
D104*
X316384Y68179D03*
D105*
X353852Y68179D03*
D36*
X394426Y68179D03*
D27*
X426513Y68179D03*
D94*
X315763Y68593D03*
D106*
X353645Y68593D03*
D36*
X393598Y68593D03*
D27*
X426513Y68593D03*
D107*
X315349Y69007D03*
D108*
X353231Y69007D03*
D23*
X393184Y69007D03*
D32*
X426306Y69007D03*
D49*
X314728Y69421D03*
D13*
X353231Y69421D03*
D36*
X392770Y69421D03*
D37*
X426306Y69421D03*
D78*
X314314Y69835D03*
D109*
X353024Y69835D03*
D33*
X392563Y69835D03*
D37*
X426306Y69835D03*
D28*
X314314Y70249D03*
D110*
X352817Y70249D03*
D76*
X392149Y70249D03*
D32*
X426306Y70249D03*
D111*
X351989Y70663D03*
D33*
X391735Y70663D03*
D39*
X426099Y70663D03*
D55*
X351782Y71077D03*
D36*
X391114Y71077D03*
D39*
X426099Y71077D03*
D112*
X351575Y71491D03*
D23*
X390700Y71491D03*
D32*
X425892Y71491D03*
D33*
X390493Y71905D03*
D27*
X425685Y71905D03*
D32*
X390286Y72319D03*
X425478Y72319D03*
D25*
X390079Y72733D03*
D27*
X425271Y72733D03*
D39*
X307689Y73147D03*
D37*
X389872Y73147D03*
D27*
X425271Y73147D03*
D96*
X309345Y73561D03*
D68*
X389458Y73561D03*
X425064Y73561D03*
D54*
X309966Y73975D03*
D37*
X389044Y73975D03*
D27*
X424857Y73975D03*
D113*
X310380Y74389D03*
D27*
X388837Y74389D03*
D37*
X424650Y74389D03*
D114*
X310173Y74803D03*
D32*
X388630Y74803D03*
D29*
X424443Y74803D03*
D115*
X310380Y75217D03*
D27*
X388423Y75217D03*
D37*
X424236Y75217D03*
D12*
X309966Y75631D03*
D27*
X388009Y75631D03*
X424029Y75631D03*
D116*
X309552Y76045D03*
D29*
X388009Y76045D03*
X423615Y76045D03*
D33*
X301893Y76459D03*
D45*
X315142Y76459D03*
D27*
X387595Y76459D03*
D41*
X423408Y76459D03*
X300444Y76873D03*
D21*
X316177Y76873D03*
D27*
X387595Y76873D03*
X423201Y76873D03*
D117*
X298995Y77287D03*
D38*
X316798Y77287D03*
D42*
X387388Y77287D03*
D29*
X422787Y77287D03*
D118*
X297960Y77701D03*
D37*
X317419Y77701D03*
D44*
X386974Y77701D03*
X422580Y77701D03*
D32*
X317833Y78115D03*
D46*
X386974Y78115D03*
D29*
X421959Y78115D03*
D39*
X318040Y78529D03*
D44*
X386974Y78529D03*
D39*
X421545Y78529D03*
D37*
X318247Y78943D03*
D48*
X386767Y78943D03*
D27*
X421131Y78943D03*
D29*
X318454Y79357D03*
D90*
X386767Y79357D03*
D29*
X420717Y79357D03*
D27*
X318454Y79771D03*
D48*
X386767Y79771D03*
D35*
X420510Y79771D03*
D27*
X318454Y80185D03*
D48*
X386353Y80185D03*
D37*
X420096Y80185D03*
D29*
X318454Y80599D03*
D90*
X386353Y80599D03*
D32*
X419682Y80599D03*
D27*
X318454Y81013D03*
D48*
X386353Y81013D03*
D33*
X419061Y81013D03*
D37*
X318247Y81427D03*
D48*
X386353Y81427D03*
D37*
X418440Y81427D03*
D32*
X318247Y81841D03*
D90*
X386353Y81841D03*
D29*
X417819Y81841D03*
D37*
X318247Y82255D03*
D48*
X386353Y82255D03*
D37*
X417198Y82255D03*
D32*
X318247Y82669D03*
D90*
X386353Y82669D03*
D32*
X416784Y82669D03*
D37*
X318247Y83083D03*
D48*
X386353Y83083D03*
D25*
X416162Y83083D03*
D33*
X318040Y83497D03*
D48*
X386353Y83497D03*
D25*
X415334Y83497D03*
D38*
X318040Y83911D03*
D90*
X386353Y83911D03*
D38*
X414920Y83911D03*
D33*
X318040Y84325D03*
D48*
X386353Y84325D03*
D33*
X414506Y84325D03*
D37*
X317833Y84739D03*
D41*
X386560Y84739D03*
D37*
X413885Y84739D03*
D76*
X317626Y85154D03*
D42*
X386560Y85154D03*
D38*
X413264Y85154D03*
D25*
X317626Y85568D03*
D41*
X386560Y85568D03*
D37*
X412643Y85568D03*
D33*
X317212Y85982D03*
D41*
X386560Y85982D03*
D33*
X412022Y85982D03*
D38*
X317212Y86396D03*
D29*
X386767Y86396D03*
D38*
X411194Y86396D03*
D33*
X316798Y86810D03*
D27*
X386767Y86810D03*
D36*
X410573Y86810D03*
D33*
X316798Y87224D03*
D44*
X386974Y87224D03*
D33*
X409952Y87224D03*
D76*
X316384Y87638D03*
D42*
X387388Y87638D03*
D23*
X409331Y87638D03*
D25*
X316384Y88052D03*
D119*
X387595Y88052D03*
D36*
X408503Y88052D03*
D38*
X315970Y88466D03*
D90*
X388009Y88466D03*
D23*
X407675Y88466D03*
D33*
X315970Y88880D03*
D48*
X388009Y88880D03*
D36*
X406847Y88880D03*
D33*
X315556Y89294D03*
D44*
X388216Y89294D03*
D34*
X406226Y89294D03*
D38*
X315556Y89708D03*
D42*
X388630Y89708D03*
D28*
X405398Y89708D03*
D27*
X278708Y90122D03*
D25*
X315142Y90122D03*
D41*
X389044Y90122D03*
D34*
X404570Y90122D03*
D25*
X265873Y90536D03*
D27*
X278708Y90536D03*
D33*
X314728Y90536D03*
D26*
X353231Y90536D03*
D27*
X389251Y90536D03*
D34*
X404156Y90536D03*
D19*
X264838Y90950D03*
D42*
X278501Y90950D03*
D38*
X314314Y90950D03*
D53*
X352817Y90950D03*
D29*
X389665Y90950D03*
D28*
X403328Y90950D03*
D17*
X264217Y91364D03*
D41*
X278501Y91364D03*
D25*
X313900Y91364D03*
D55*
X352196Y91364D03*
D27*
X390079Y91364D03*
D36*
X402707Y91364D03*
D81*
X263389Y91778D03*
D119*
X278294Y91778D03*
D25*
X313900Y91778D03*
D120*
X351782Y91778D03*
D37*
X390700Y91778D03*
D30*
X401879Y91778D03*
D121*
X262975Y92192D03*
D122*
X278294Y92192D03*
D76*
X313900Y92192D03*
D84*
X351575Y92192D03*
D123*
X396497Y92192D03*
D124*
X262561Y92606D03*
D27*
X277466Y92606D03*
D33*
X313486Y92606D03*
D125*
X351161Y92606D03*
D126*
X396290Y92606D03*
D127*
X262147Y93020D03*
D42*
X277259Y93020D03*
D32*
X313279Y93020D03*
D128*
X350954Y93020D03*
D103*
X396083Y93020D03*
D51*
X258421Y93434D03*
D35*
X267322Y93434D03*
D41*
X277259Y93434D03*
D37*
X312865Y93434D03*
D129*
X350747Y93434D03*
D52*
X395254Y93434D03*
D95*
X256765Y93848D03*
D119*
X267943Y93848D03*
D41*
X277259Y93848D03*
D37*
X312450Y93848D03*
D60*
X350747Y93848D03*
D49*
X395047Y93848D03*
D96*
X255523Y94262D03*
D122*
X267943Y94262D03*
D90*
X277052Y94262D03*
D32*
X312036Y94262D03*
D72*
X343502Y94262D03*
D53*
X356130Y94262D03*
D43*
X395047Y94262D03*
D24*
X254488Y94676D03*
D119*
X267943Y94676D03*
D44*
X276845Y94676D03*
D25*
X311829Y94676D03*
D26*
X342467Y94676D03*
D130*
X356544Y94676D03*
D78*
X253867Y95090D03*
D119*
X267943Y95090D03*
D48*
X276638Y95090D03*
D37*
X311622Y95090D03*
D21*
X341846Y95090D03*
D51*
X356958Y95090D03*
D43*
X253453Y95504D03*
D122*
X267943Y95504D03*
D46*
X276431Y95504D03*
D68*
X311208Y95504D03*
D28*
X340811Y95504D03*
D63*
X357579Y95504D03*
D21*
X252832Y95918D03*
D41*
X268150Y95918D03*
D44*
X276431Y95918D03*
D37*
X310794Y95918D03*
D36*
X339776Y95918D03*
D95*
X357786Y95918D03*
D30*
X252418Y96332D03*
D41*
X268150Y96332D03*
D48*
X276224Y96332D03*
D37*
X310380Y96332D03*
D25*
X339155Y96332D03*
D49*
X358200Y96332D03*
D31*
X252004Y96746D03*
D42*
X268150Y96746D03*
X276017Y96746D03*
D68*
X309966Y96746D03*
D23*
X338534Y96746D03*
D22*
X358200Y96746D03*
D34*
X250969Y97160D03*
D41*
X268150Y97160D03*
X276017Y97160D03*
D37*
X309552Y97160D03*
D33*
X337913Y97160D03*
D24*
X358407Y97160D03*
D36*
X250347Y97574D03*
D41*
X267736Y97574D03*
D48*
X275810Y97574D03*
D37*
X309138Y97574D03*
D27*
X337085Y97574D03*
D78*
X358614Y97574D03*
D23*
X249519Y97988D03*
D42*
X267736Y97988D03*
D90*
X275810Y97988D03*
D68*
X308724Y97988D03*
D38*
X336257Y97988D03*
D98*
X358821Y97988D03*
D36*
X249105Y98402D03*
D44*
X267322Y98402D03*
D48*
X275810Y98402D03*
D37*
X308310Y98402D03*
D25*
X335843Y98402D03*
D78*
X359028Y98402D03*
D23*
X248691Y98816D03*
D29*
X267115Y98816D03*
D90*
X275810Y98816D03*
D32*
X307896Y98816D03*
D38*
X335429Y98816D03*
D72*
X359235Y98816D03*
D33*
X248070Y99230D03*
D41*
X266908Y99230D03*
D48*
X275810Y99230D03*
D37*
X307482Y99230D03*
X334808Y99230D03*
D74*
X359442Y99230D03*
D33*
X247656Y99644D03*
D27*
X266701Y99644D03*
X275810Y99644D03*
D37*
X307068Y99644D03*
X334394Y99644D03*
D74*
X359442Y99644D03*
D76*
X247242Y100058D03*
D46*
X266494Y100058D03*
D29*
X275810Y100058D03*
D68*
X306654Y100058D03*
D32*
X333980Y100058D03*
D131*
X359442Y100058D03*
D33*
X246828Y100472D03*
D39*
X266287Y100472D03*
D27*
X275810Y100472D03*
D37*
X306240Y100472D03*
X333151Y100472D03*
D74*
X359442Y100472D03*
D37*
X246207Y100886D03*
D44*
X266080Y100886D03*
D27*
X275810Y100886D03*
D37*
X305826Y100886D03*
D25*
X332530Y100886D03*
D74*
X359442Y100886D03*
D32*
X245793Y101300D03*
D29*
X265873Y101300D03*
D32*
X276017Y101300D03*
D29*
X305205Y101300D03*
D38*
X332116Y101300D03*
D131*
X359442Y101300D03*
D27*
X245172Y101714D03*
D41*
X265666Y101714D03*
D37*
X276017Y101714D03*
X304584Y101714D03*
D33*
X331702Y101714D03*
D74*
X359442Y101714D03*
D27*
X244758Y102128D03*
D44*
X265252Y102128D03*
D37*
X276017Y102128D03*
D35*
X304170Y102128D03*
D36*
X331081Y102128D03*
D74*
X359442Y102128D03*
D29*
X244344Y102542D03*
X265045Y102542D03*
D76*
X276224Y102542D03*
D32*
X303756Y102542D03*
D38*
X330460Y102542D03*
D131*
X359442Y102542D03*
D27*
X243930Y102956D03*
X264631Y102956D03*
D25*
X276224Y102956D03*
D37*
X302928Y102956D03*
D25*
X330046Y102956D03*
D74*
X359442Y102956D03*
D29*
X243516Y103370D03*
D32*
X264424Y103370D03*
X276431Y103370D03*
X302514Y103370D03*
D38*
X329632Y103370D03*
D31*
X359235Y103370D03*
D35*
X243309Y103784D03*
X264010Y103784D03*
D33*
X276638Y103784D03*
D37*
X302100Y103784D03*
D33*
X329218Y103784D03*
D77*
X359028Y103784D03*
D37*
X242895Y104198D03*
D36*
X263596Y104198D03*
D33*
X276638Y104198D03*
D37*
X301686Y104198D03*
D25*
X328804Y104198D03*
D77*
X359028Y104198D03*
D29*
X242688Y104612D03*
D23*
X263182Y104612D03*
X276845Y104612D03*
D32*
X301272Y104612D03*
D38*
X328390Y104612D03*
D23*
X358821Y104612D03*
D27*
X242274Y105026D03*
D36*
X262768Y105026D03*
X276845Y105026D03*
D33*
X300651Y105026D03*
D25*
X327976Y105026D03*
D36*
X358821Y105026D03*
D27*
X241860Y105440D03*
D34*
X262561Y105440D03*
D36*
X277259Y105440D03*
D37*
X300030Y105440D03*
D33*
X327562Y105440D03*
D36*
X358407Y105440D03*
D29*
X241446Y105855D03*
D40*
X262147Y105855D03*
D28*
X277466Y105855D03*
D38*
X299409Y105855D03*
D68*
X327355Y105855D03*
D38*
X358200Y105855D03*
D44*
X241239Y106269D03*
D34*
X261733Y106269D03*
D36*
X277673Y106269D03*
X298788Y106269D03*
D37*
X326941Y106269D03*
D25*
X357786Y106269D03*
D44*
X240825Y106683D03*
D34*
X261319Y106683D03*
X277880Y106683D03*
D33*
X298167Y106683D03*
D37*
X326527Y106683D03*
D33*
X357372Y106683D03*
D42*
X240411Y107097D03*
D28*
X260905Y107097D03*
D40*
X278294Y107097D03*
D32*
X297546Y107097D03*
D68*
X326113Y107097D03*
D23*
X356751Y107097D03*
D48*
X240204Y107511D03*
D34*
X260491Y107511D03*
D77*
X278294Y107511D03*
D25*
X296925Y107511D03*
D37*
X325699Y107511D03*
D36*
X356751Y107511D03*
D44*
X239997Y107925D03*
D21*
X259870Y107925D03*
D34*
X278708Y107925D03*
D36*
X295890Y107925D03*
D27*
X325492Y107925D03*
D36*
X356337Y107925D03*
D46*
X239583Y108339D03*
D75*
X259456Y108339D03*
X278915Y108339D03*
D28*
X295269Y108339D03*
D29*
X325078Y108339D03*
D23*
X355923Y108339D03*
D44*
X239583Y108753D03*
D21*
X259042Y108753D03*
X279329Y108753D03*
D77*
X294441Y108753D03*
D27*
X324664Y108753D03*
D33*
X355716Y108753D03*
D29*
X239376Y109167D03*
D31*
X258628Y109167D03*
D98*
X279743Y109167D03*
D31*
X293406Y109167D03*
D29*
X324250Y109167D03*
D23*
X355095Y109167D03*
D27*
X238962Y109581D03*
D26*
X258007Y109581D03*
D85*
X280157Y109581D03*
D26*
X292371Y109581D03*
D27*
X324250Y109581D03*
D34*
X354474Y109581D03*
D27*
X238962Y109995D03*
D26*
X257593Y109995D03*
D49*
X281192Y109995D03*
D24*
X290921Y109995D03*
D39*
X323836Y109995D03*
D132*
X354267Y109995D03*
D29*
X238962Y110409D03*
D43*
X257179Y110409D03*
D133*
X285953Y110409D03*
D46*
X323629Y110409D03*
D23*
X353852Y110409D03*
D35*
X238755Y110823D03*
D26*
X256351Y110823D03*
D89*
X285746Y110823D03*
D44*
X323629Y110823D03*
D77*
X353231Y110823D03*
D35*
X238755Y111237D03*
D74*
X255937Y111237D03*
D120*
X285539Y111237D03*
D41*
X323215Y111237D03*
D34*
X352817Y111237D03*
D68*
X238755Y111651D03*
D43*
X255109Y111651D03*
D134*
X285332Y111651D03*
D42*
X323215Y111651D03*
D28*
X352403Y111651D03*
D35*
X238755Y112065D03*
D99*
X254488Y112065D03*
D20*
X285539Y112065D03*
D27*
X323008Y112065D03*
D77*
X351989Y112065D03*
D35*
X238755Y112479D03*
D78*
X253867Y112479D03*
D37*
X285539Y112479D03*
D44*
X322801Y112479D03*
D34*
X351575Y112479D03*
D68*
X238755Y112893D03*
D19*
X252832Y112893D03*
D86*
X322594Y112893D03*
D31*
X350954Y112893D03*
D35*
X238755Y113307D03*
D20*
X251590Y113307D03*
D39*
X322594Y113307D03*
D21*
X350540Y113307D03*
D23*
X239169Y113721D03*
D87*
X250347Y113721D03*
D86*
X322594Y113721D03*
D75*
X350126Y113721D03*
D135*
X245586Y114135D03*
D44*
X322387Y114135D03*
D21*
X349298Y114135D03*
D12*
X244965Y114549D03*
D82*
X253660Y114549D03*
D27*
X322180Y114549D03*
D21*
X348884Y114549D03*
D123*
X244137Y114963D03*
D29*
X322180Y114963D03*
D75*
X348056Y114963D03*
D124*
X243516Y115377D03*
D27*
X322180Y115377D03*
D21*
X347642Y115377D03*
D136*
X243102Y115791D03*
D27*
X322180Y115791D03*
D26*
X347435Y115791D03*
D137*
X242067Y116205D03*
D29*
X322180Y116205D03*
D72*
X346814Y116205D03*
D30*
X240825Y116619D03*
D37*
X321973Y116619D03*
D26*
X346193Y116619D03*
D37*
X240825Y117033D03*
X321973Y117033D03*
D26*
X345779Y117033D03*
D138*
X241446Y117447D03*
D32*
X321973Y117447D03*
D43*
X344951Y117447D03*
D27*
X322180Y117861D03*
D26*
X344123Y117861D03*
D27*
X322180Y118275D03*
D99*
X343916Y118275D03*
D32*
X322387Y118689D03*
D73*
X343295Y118689D03*
D33*
X322594Y119103D03*
D78*
X342467Y119103D03*
D32*
X322801Y119517D03*
D97*
X341639Y119517D03*
D27*
X323008Y119931D03*
D78*
X340811Y119931D03*
D27*
X323422Y120345D03*
D24*
X340190Y120345D03*
D86*
X323836Y120759D03*
D47*
X339362Y120759D03*
D37*
X324043Y121173D03*
D24*
X338534Y121173D03*
D37*
X324457Y121587D03*
D20*
X337706Y121587D03*
D68*
X324871Y122001D03*
D63*
X336878Y122001D03*
D41*
X233787Y122415D03*
D25*
X325492Y122415D03*
D130*
X335843Y122415D03*
D20*
X232131Y122829D03*
D125*
X331702Y122829D03*
D134*
X233166Y123243D03*
D139*
X331081Y123243D03*
D113*
X233373Y123657D03*
D88*
X330667Y123657D03*
D114*
X233166Y124071D03*
D71*
X330253Y124071D03*
D64*
X232752Y124485D03*
D52*
X329839Y124485D03*
D12*
X232545Y124899D03*
D24*
X329425Y124899D03*
D116*
X232131Y125313D03*
D76*
X284090Y125313D03*
D140*
X231717Y125727D03*
D49*
X283676Y125727D03*
X224885Y126141D03*
D79*
X237099Y126141D03*
D54*
X283055Y126141D03*
D96*
X224057Y126556D03*
D19*
X238341Y126556D03*
D56*
X282641Y126556D03*
D24*
X222608Y126970D03*
D85*
X238755Y126970D03*
D125*
X282020Y126970D03*
D24*
X221780Y127384D03*
D21*
X239583Y127384D03*
D13*
X281606Y127384D03*
D73*
X221159Y127798D03*
D28*
X240204Y127798D03*
D141*
X280985Y127798D03*
D142*
X219710Y128212D03*
D34*
X240618Y128212D03*
D143*
X280571Y128212D03*
D78*
X219089Y128626D03*
D36*
X240825Y128626D03*
D144*
X280571Y128626D03*
D43*
X218261Y129040D03*
D38*
X241032Y129040D03*
D22*
X273326Y129040D03*
D96*
X287402Y129040D03*
D21*
X217640Y129454D03*
D25*
X241446Y129454D03*
D85*
X271877Y129454D03*
X288023Y129454D03*
D31*
X217226Y129868D03*
D32*
X241653Y129868D03*
D73*
X270841Y129868D03*
D23*
X288851Y129868D03*
D34*
X216605Y130282D03*
D37*
X241653Y130282D03*
D78*
X270013Y130282D03*
D33*
X289058Y130282D03*
X215777Y130696D03*
D37*
X241653Y130696D03*
D99*
X269392Y130696D03*
D35*
X289265Y130696D03*
D76*
X214949Y131110D03*
D29*
X241446Y131110D03*
D72*
X268564Y131110D03*
D29*
X289472Y131110D03*
D33*
X214535Y131524D03*
D27*
X241446Y131524D03*
D99*
X268150Y131524D03*
D27*
X289472Y131524D03*
D25*
X214121Y131938D03*
D27*
X241446Y131938D03*
D85*
X267322Y131938D03*
D27*
X289472Y131938D03*
D38*
X213707Y132352D03*
D29*
X241446Y132352D03*
D43*
X266701Y132352D03*
D29*
X289472Y132352D03*
D37*
X213086Y132766D03*
D27*
X241446Y132766D03*
D85*
X266080Y132766D03*
D27*
X289472Y132766D03*
D37*
X212672Y133180D03*
D27*
X241446Y133180D03*
D99*
X265666Y133180D03*
D27*
X289472Y133180D03*
D68*
X212258Y133594D03*
D46*
X241239Y133594D03*
D72*
X265252Y133594D03*
D29*
X289472Y133594D03*
D27*
X211637Y134008D03*
D39*
X241032Y134008D03*
D21*
X264838Y134008D03*
D27*
X289472Y134008D03*
D29*
X211223Y134422D03*
D46*
X240825Y134422D03*
D31*
X264424Y134422D03*
D29*
X289472Y134422D03*
D27*
X210809Y134836D03*
D44*
X240825Y134836D03*
D34*
X263803Y134836D03*
D27*
X289472Y134836D03*
D37*
X210602Y135250D03*
D41*
X240411Y135250D03*
D77*
X263389Y135250D03*
D35*
X289265Y135250D03*
D29*
X210395Y135664D03*
X240204Y135664D03*
D23*
X263182Y135664D03*
D68*
X289265Y135664D03*
D39*
X209981Y136078D03*
D27*
X240204Y136078D03*
D36*
X262768Y136078D03*
D27*
X289058Y136078D03*
D37*
X209774Y136492D03*
D39*
X239790Y136492D03*
D25*
X262147Y136492D03*
D37*
X288851Y136492D03*
D32*
X209360Y136906D03*
D29*
X239376Y136906D03*
D32*
X261526Y136906D03*
X288851Y136906D03*
D27*
X209152Y137320D03*
D37*
X239169Y137320D03*
X261112Y137320D03*
X288851Y137320D03*
D39*
X208738Y137734D03*
D35*
X238755Y137734D03*
D37*
X260698Y137734D03*
X288851Y137734D03*
D46*
X208531Y138148D03*
D32*
X238341Y138148D03*
X260284Y138148D03*
D29*
X288644Y138148D03*
D44*
X208531Y138562D03*
D25*
X238134Y138562D03*
D37*
X259870Y138562D03*
X288437Y138562D03*
D27*
X208324Y138976D03*
D33*
X237720Y138976D03*
D27*
X259663Y138976D03*
D37*
X288437Y138976D03*
D42*
X208117Y139390D03*
D68*
X237513Y139390D03*
D29*
X259249Y139390D03*
X288230Y139390D03*
D27*
X207910Y139804D03*
D25*
X236892Y139804D03*
D37*
X259042Y139804D03*
D35*
X288023Y139804D03*
D46*
X207703Y140218D03*
D38*
X236478Y140218D03*
D32*
X258628Y140218D03*
D29*
X287816Y140218D03*
D27*
X207496Y140632D03*
D37*
X235857Y140632D03*
D27*
X258421Y140632D03*
D37*
X287609Y140632D03*
X207289Y141046D03*
X235443Y141046D03*
D27*
X258007Y141046D03*
X287402Y141046D03*
D29*
X207082Y141460D03*
D32*
X235029Y141460D03*
D29*
X257593Y141460D03*
D32*
X287195Y141460D03*
D37*
X206875Y141874D03*
X234615Y141874D03*
D41*
X257386Y141874D03*
D37*
X287195Y141874D03*
D33*
X206668Y142288D03*
D35*
X234201Y142288D03*
D44*
X256972Y142288D03*
D37*
X286781Y142288D03*
D38*
X206668Y142702D03*
D76*
X233580Y142702D03*
D29*
X256765Y142702D03*
D32*
X286781Y142702D03*
D33*
X206254Y143116D03*
D36*
X232959Y143116D03*
D41*
X256558Y143116D03*
D25*
X286574Y143116D03*
D36*
X206047Y143530D03*
X232545Y143530D03*
D44*
X256144Y143530D03*
D37*
X286367Y143530D03*
D23*
X206047Y143944D03*
X232131Y143944D03*
D46*
X256144Y143944D03*
D29*
X286160Y143944D03*
D100*
X197353Y144358D03*
D36*
X206047Y144358D03*
D21*
X231303Y144358D03*
D44*
X255730Y144358D03*
D27*
X285746Y144358D03*
D28*
X197146Y144772D03*
D23*
X206047Y144772D03*
D31*
X230889Y144772D03*
D46*
X255730Y144772D03*
D29*
X285746Y144772D03*
D99*
X196939Y145186D03*
D36*
X206047Y145186D03*
D30*
X230475Y145186D03*
D41*
X255316Y145186D03*
D37*
X285539Y145186D03*
D95*
X196732Y145600D03*
D36*
X206047Y145600D03*
D26*
X229853Y145600D03*
D41*
X255316Y145600D03*
D37*
X285125Y145600D03*
D112*
X196318Y146014D03*
D23*
X206047Y146014D03*
D98*
X229232Y146014D03*
D90*
X255109Y146014D03*
D29*
X284918Y146014D03*
D145*
X195904Y146428D03*
D36*
X206047Y146428D03*
D85*
X228404Y146428D03*
D44*
X254902Y146428D03*
D27*
X284504Y146428D03*
D94*
X195283Y146842D03*
D36*
X206047Y146842D03*
D45*
X227783Y146842D03*
D48*
X254695Y146842D03*
D27*
X284090Y146842D03*
D18*
X194455Y147257D03*
D23*
X206047Y147257D03*
D19*
X227162Y147257D03*
D90*
X254695Y147257D03*
D42*
X283883Y147257D03*
D146*
X193834Y147671D03*
D33*
X206254Y147671D03*
D95*
X226541Y147671D03*
D48*
X254695Y147671D03*
D44*
X283469Y147671D03*
D78*
X191764Y148085D03*
D147*
X198181Y148085D03*
D35*
X206461Y148085D03*
D20*
X225920Y148085D03*
D41*
X254488Y148085D03*
X283055Y148085D03*
D98*
X191143Y148499D03*
D68*
X206461Y148499D03*
D137*
X225092Y148499D03*
D122*
X254281Y148499D03*
D32*
X282641Y148499D03*
D21*
X190729Y148913D03*
D35*
X206461Y148913D03*
D145*
X224057Y148913D03*
D119*
X254281Y148913D03*
D37*
X282227Y148913D03*
D34*
X190108Y149327D03*
D35*
X206461Y149327D03*
D62*
X223022Y149327D03*
D119*
X254281Y149327D03*
D37*
X281813Y149327D03*
D28*
X189280Y149741D03*
D68*
X206461Y149741D03*
D53*
X222401Y149741D03*
D122*
X254281Y149741D03*
D29*
X281606Y149741D03*
D132*
X188659Y150155D03*
D33*
X206668Y150155D03*
D94*
X221780Y150155D03*
D119*
X254281Y150155D03*
D37*
X281399Y150155D03*
D23*
X188244Y150569D03*
D32*
X206875Y150569D03*
D80*
X221159Y150569D03*
D122*
X254281Y150569D03*
D32*
X280985Y150569D03*
D36*
X187830Y150983D03*
D37*
X206875Y150983D03*
D54*
X220124Y150983D03*
D119*
X254281Y150983D03*
D33*
X280364Y150983D03*
D36*
X187416Y151397D03*
D37*
X207289Y151397D03*
D136*
X219089Y151397D03*
D119*
X254281Y151397D03*
D33*
X279950Y151397D03*
D38*
X186795Y151811D03*
X207496Y151811D03*
D11*
X218261Y151811D03*
D122*
X254281Y151811D03*
D76*
X279536Y151811D03*
D25*
X186381Y152225D03*
D135*
X214535Y152225D03*
D119*
X254281Y152225D03*
D33*
X279122Y152225D03*
X185967Y152639D03*
D12*
X214328Y152639D03*
D41*
X254488Y152639D03*
D25*
X278294Y152639D03*
D38*
X185553Y153053D03*
D148*
X213914Y153053D03*
D42*
X254488Y153053D03*
D38*
X277880Y153053D03*
D25*
X185139Y153467D03*
D89*
X213707Y153467D03*
D41*
X254488Y153467D03*
D25*
X277052Y153467D03*
D35*
X184518Y153881D03*
D126*
X213293Y153881D03*
D41*
X254488Y153881D03*
D33*
X276638Y153881D03*
D32*
X184104Y154295D03*
D134*
X212879Y154295D03*
D42*
X254488Y154295D03*
D38*
X275810Y154295D03*
D37*
X183690Y154709D03*
D17*
X212465Y154709D03*
D27*
X254695Y154709D03*
D36*
X275189Y154709D03*
D32*
X183276Y155123D03*
D137*
X212258Y155123D03*
D46*
X254902Y155123D03*
D38*
X274568Y155123D03*
D25*
X183069Y155537D03*
D49*
X212051Y155537D03*
D44*
X254902Y155537D03*
D36*
X273947Y155537D03*
D33*
X182655Y155951D03*
D26*
X212051Y155951D03*
D27*
X255109Y155951D03*
D34*
X272912Y155951D03*
D68*
X182448Y156365D03*
D29*
X255109Y156365D03*
D75*
X271877Y156365D03*
D37*
X182034Y156779D03*
D27*
X255523Y156779D03*
D34*
X271256Y156779D03*
D27*
X181827Y157193D03*
X255523Y157193D03*
D77*
X270427Y157193D03*
D32*
X181620Y157607D03*
D86*
X255937Y157607D03*
D28*
X269599Y157607D03*
D27*
X181413Y158021D03*
D25*
X256351Y158021D03*
D30*
X268564Y158021D03*
D35*
X181206Y158435D03*
D33*
X256765Y158435D03*
D26*
X267529Y158435D03*
D29*
X180999Y158849D03*
D23*
X256972Y158849D03*
D96*
X265873Y158849D03*
D27*
X180999Y159263D03*
D124*
X261733Y159263D03*
D37*
X180792Y159677D03*
D126*
X261733Y159677D03*
D32*
X180792Y160091D03*
D103*
X261526Y160091D03*
D33*
X180999Y160505D03*
D54*
X261526Y160505D03*
D42*
X180378Y160919D03*
D112*
X261319Y160919D03*
D100*
X179964Y161333D03*
D34*
X260905Y161333D03*
D100*
X179964Y161747D03*
D90*
X179757Y162161D03*
D48*
X179757Y162575D03*
D149*
X179343Y162989D03*
D117*
X179343Y163403D03*
D150*
X178929Y163817D03*
D142*
X219710Y165887D03*
D136*
X219089Y166301D03*
D114*
X219089Y166715D03*
D64*
X218675Y167129D03*
D151*
X218261Y167543D03*
D65*
X218054Y167958D03*
D66*
X218054Y168372D03*
D152*
X218054Y168786D03*
D153*
X217640Y169200D03*
D102*
X175410Y169614D03*
D88*
X212258Y169614D03*
D54*
X223850Y169614D03*
D55*
X175824Y170028D03*
X211430Y170028D03*
D85*
X225920Y170028D03*
D114*
X176445Y170442D03*
D137*
X209774Y170442D03*
D23*
X227162Y170442D03*
D154*
X176238Y170856D03*
D20*
X208531Y170856D03*
D37*
X227576Y170856D03*
D155*
X175617Y171270D03*
D22*
X207910Y171270D03*
D32*
X227576Y171270D03*
D156*
X175410Y171684D03*
D95*
X207082Y171684D03*
D25*
X227783Y171684D03*
D13*
X175203Y172098D03*
D49*
X206668Y172098D03*
D37*
X227990Y172098D03*
D141*
X174582Y172512D03*
D97*
X205840Y172512D03*
D32*
X227990Y172512D03*
D157*
X174375Y172926D03*
D78*
X205012Y172926D03*
D27*
X227783Y172926D03*
D66*
X174168Y173340D03*
D78*
X204184Y173340D03*
D27*
X227783Y173340D03*
D87*
X168372Y173754D03*
D96*
X180585Y173754D03*
D73*
X203770Y173754D03*
D29*
X227783Y173754D03*
D24*
X166715Y174168D03*
D33*
X182241Y174168D03*
D85*
X203149Y174168D03*
D27*
X227783Y174168D03*
D24*
X165887Y174582D03*
D27*
X182655Y174582D03*
D26*
X202942Y174582D03*
D27*
X227783Y174582D03*
D73*
X165266Y174996D03*
D42*
X182862Y174996D03*
D31*
X202321Y174996D03*
D29*
X227783Y174996D03*
D78*
X164852Y175410D03*
D41*
X182862Y175410D03*
D30*
X201907Y175410D03*
D27*
X227783Y175410D03*
D75*
X163817Y175824D03*
D42*
X182862Y175824D03*
D31*
X201493Y175824D03*
D29*
X227783Y175824D03*
D77*
X163196Y176238D03*
D41*
X182862Y176238D03*
D21*
X201079Y176238D03*
D41*
X227576Y176238D03*
D36*
X162575Y176652D03*
D27*
X182655Y176652D03*
D30*
X200665Y176652D03*
D41*
X227576Y176652D03*
D23*
X162161Y177066D03*
D29*
X182655Y177066D03*
D28*
X200458Y177066D03*
D29*
X227369Y177066D03*
D33*
X161540Y177480D03*
D27*
X182655Y177480D03*
D77*
X200044Y177480D03*
D27*
X227369Y177480D03*
D25*
X161126Y177894D03*
D44*
X182448Y177894D03*
D36*
X199837Y177894D03*
D44*
X227162Y177894D03*
D38*
X160712Y178308D03*
D29*
X182241Y178308D03*
D23*
X199423Y178308D03*
D29*
X226955Y178308D03*
D37*
X160091Y178722D03*
D27*
X182241Y178722D03*
D34*
X199216Y178722D03*
D27*
X226955Y178722D03*
D37*
X159677Y179136D03*
D27*
X182241Y179136D03*
D132*
X199009Y179136D03*
D27*
X226955Y179136D03*
D29*
X159470Y179550D03*
X181827Y179550D03*
D23*
X198595Y179550D03*
D29*
X226541Y179550D03*
D27*
X159056Y179964D03*
X181827Y179964D03*
D33*
X198388Y179964D03*
D41*
X226334Y179964D03*
D27*
X158642Y180378D03*
X181413Y180378D03*
D36*
X198181Y180378D03*
D27*
X226127Y180378D03*
D86*
X158228Y180792D03*
D29*
X180999Y180792D03*
D23*
X197767Y180792D03*
D46*
X225920Y180792D03*
D27*
X157814Y181206D03*
X180999Y181206D03*
D36*
X197767Y181206D03*
D27*
X225713Y181206D03*
D29*
X157400Y181620D03*
D42*
X180792Y181620D03*
D28*
X197560Y181620D03*
D42*
X225506Y181620D03*
D37*
X157193Y182034D03*
D41*
X180378Y182034D03*
D36*
X197353Y182034D03*
D27*
X225299Y182034D03*
D39*
X156986Y182448D03*
D27*
X180171Y182448D03*
D34*
X197146Y182448D03*
D39*
X224885Y182448D03*
D29*
X156572Y182862D03*
D46*
X179964Y182862D03*
D23*
X196939Y182862D03*
D46*
X224678Y182862D03*
D27*
X156158Y183276D03*
D41*
X179550Y183276D03*
D25*
X196732Y183276D03*
D27*
X224471Y183276D03*
D44*
X155951Y183690D03*
D27*
X179343Y183690D03*
D36*
X196525Y183690D03*
D27*
X224057Y183690D03*
D42*
X155537Y184104D03*
D86*
X178929Y184104D03*
D38*
X196318Y184104D03*
D46*
X223850Y184104D03*
D41*
X155537Y184518D03*
D44*
X178722Y184518D03*
D36*
X196111Y184518D03*
D41*
X223436Y184518D03*
X155123Y184932D03*
D27*
X178515Y184932D03*
D33*
X195904Y184932D03*
D27*
X223229Y184932D03*
D46*
X154709Y185346D03*
D29*
X178101Y185346D03*
D38*
X195904Y185346D03*
D29*
X222815Y185346D03*
D44*
X154709Y185760D03*
D39*
X177687Y185760D03*
D33*
X195904Y185760D03*
D35*
X222608Y185760D03*
D42*
X154295Y186174D03*
D46*
X177480Y186174D03*
D38*
X195904Y186174D03*
D29*
X222401Y186174D03*
D41*
X154295Y186588D03*
X177066Y186588D03*
D37*
X195697Y186588D03*
X222194Y186588D03*
D119*
X154088Y187002D03*
D44*
X176652Y187002D03*
D37*
X195697Y187002D03*
D27*
X221573Y187002D03*
D42*
X153881Y187416D03*
D29*
X176445Y187416D03*
D32*
X195283Y187416D03*
D29*
X221159Y187416D03*
D27*
X153674Y187830D03*
X176031Y187830D03*
D37*
X195283Y187830D03*
D27*
X220745Y187830D03*
D44*
X153467Y188244D03*
D27*
X175617Y188244D03*
D37*
X195283Y188244D03*
D44*
X220538Y188244D03*
D29*
X153260Y188659D03*
D68*
X175410Y188659D03*
D29*
X195076Y188659D03*
D86*
X220331Y188659D03*
D37*
X153053Y189073D03*
X174996Y189073D03*
D27*
X195076Y189073D03*
X219917Y189073D03*
X152846Y189487D03*
X174789Y189487D03*
X195076Y189487D03*
X219503Y189487D03*
D23*
X152225Y189901D03*
D29*
X174375Y189901D03*
X195076Y189901D03*
D86*
X219089Y189901D03*
D85*
X151397Y190315D03*
D27*
X173961Y190315D03*
X195076Y190315D03*
X218675Y190315D03*
D51*
X149948Y190729D03*
D27*
X173547Y190729D03*
D44*
X194869Y190729D03*
D27*
X218261Y190729D03*
D71*
X148913Y191143D03*
D86*
X173133Y191143D03*
D46*
X194869Y191143D03*
D29*
X217847Y191143D03*
D158*
X148292Y191557D03*
D37*
X172512Y191557D03*
D44*
X194869Y191557D03*
D27*
X217433Y191557D03*
D73*
X145393Y191971D03*
D32*
X152225Y191971D03*
D68*
X172098Y191971D03*
D46*
X194869Y191971D03*
D29*
X217019Y191971D03*
D45*
X144979Y192385D03*
D37*
X152225Y192385D03*
X171684Y192385D03*
D48*
X195076Y192385D03*
D27*
X216605Y192385D03*
D78*
X144151Y192799D03*
D27*
X152018Y192799D03*
D33*
X171063Y192799D03*
D48*
X195076Y192799D03*
D27*
X216191Y192799D03*
D96*
X143737Y193213D03*
D29*
X152018Y193213D03*
D38*
X170649Y193213D03*
D42*
X195283Y193213D03*
D29*
X215777Y193213D03*
D20*
X143530Y193627D03*
D27*
X152018Y193627D03*
D25*
X170235Y193627D03*
D41*
X195283Y193627D03*
D33*
X215363Y193627D03*
D95*
X142909Y194041D03*
D27*
X152018Y194041D03*
D37*
X170028Y194041D03*
D41*
X195283Y194041D03*
D25*
X214949Y194041D03*
D31*
X141874Y194455D03*
D159*
X146014Y194455D03*
D29*
X152018Y194455D03*
D68*
X169614Y194455D03*
D42*
X195283Y194455D03*
D32*
X214328Y194455D03*
D36*
X141046Y194869D03*
D118*
X146014Y194869D03*
D27*
X152018Y194869D03*
D25*
X168993Y194869D03*
D41*
X195283Y194869D03*
D35*
X213500Y194869D03*
D25*
X140425Y195283D03*
D27*
X152018Y195283D03*
D36*
X168372Y195283D03*
D41*
X195283Y195283D03*
D25*
X212879Y195283D03*
D68*
X139804Y195697D03*
D29*
X152018Y195697D03*
D160*
X167958Y195697D03*
D29*
X195490Y195697D03*
D23*
X212258Y195697D03*
D27*
X139183Y196111D03*
X152018Y196111D03*
D36*
X167543Y196111D03*
D41*
X195697Y196111D03*
D33*
X212051Y196111D03*
D29*
X138769Y196525D03*
D46*
X152225Y196525D03*
D23*
X167129Y196525D03*
D42*
X195697Y196525D03*
D23*
X211430Y196525D03*
D27*
X138769Y196939D03*
D44*
X152225Y196939D03*
D36*
X166715Y196939D03*
D27*
X195904Y196939D03*
D36*
X210602Y196939D03*
D27*
X138355Y197353D03*
D39*
X152432Y197353D03*
D34*
X166094Y197353D03*
D44*
X196111Y197353D03*
D30*
X209774Y197353D03*
D42*
X138148Y197767D03*
D86*
X152432Y197767D03*
D23*
X165473Y197767D03*
D29*
X196318Y197767D03*
D28*
X208738Y197767D03*
D48*
X137941Y198181D03*
D39*
X152432Y198181D03*
D21*
X164645Y198181D03*
D41*
X196525Y198181D03*
D36*
X208117Y198181D03*
D44*
X137734Y198595D03*
D27*
X152846Y198595D03*
D26*
X164024Y198595D03*
D27*
X196732Y198595D03*
D36*
X207703Y198595D03*
D90*
X137527Y199009D03*
D32*
X153053Y199009D03*
D31*
X163403Y199009D03*
D42*
X196939Y199009D03*
D43*
X206668Y199009D03*
D48*
X137527Y199423D03*
D35*
X153467Y199423D03*
D21*
X162575Y199423D03*
D124*
X202114Y199423D03*
D44*
X137320Y199837D03*
D33*
X153674Y199837D03*
D85*
X161747Y199837D03*
D88*
X201907Y199837D03*
D90*
X137113Y200251D03*
D161*
X158021Y200251D03*
D162*
X201700Y200251D03*
D41*
X136906Y200665D03*
D104*
X157814Y200665D03*
D130*
X201286Y200665D03*
D27*
X137113Y201079D03*
D17*
X157814Y201079D03*
D79*
X201079Y201079D03*
D42*
X136906Y201493D03*
D112*
X157400Y201493D03*
D22*
X200872Y201493D03*
D27*
X136699Y201907D03*
D95*
X157400Y201907D03*
D33*
X199630Y201907D03*
D29*
X136699Y202321D03*
D43*
X156986Y202321D03*
D27*
X136699Y202735D03*
D48*
X155744Y202735D03*
D100*
X136078Y203149D03*
D101*
X136078Y203563D03*
D48*
X135871Y203977D03*
D149*
X135457Y204391D03*
D117*
X135457Y204805D03*
D149*
X135457Y205219D03*
X135457Y205633D03*
D45*
X171477Y207289D03*
D145*
X171063Y207703D03*
D71*
X170856Y208117D03*
D55*
X170856Y208531D03*
D158*
X171063Y208945D03*
D121*
X171063Y209360D03*
D20*
X133180Y209774D03*
D163*
X170856Y209774D03*
D55*
X133180Y210188D03*
D164*
X170856Y210188D03*
D165*
X133387Y210602D03*
D133*
X170856Y210602D03*
D115*
X133594Y211016D03*
D12*
X170856Y211016D03*
D166*
X133387Y211430D03*
D167*
X170856Y211430D03*
D67*
X133387Y211844D03*
D72*
X165059Y211844D03*
D50*
X175410Y211844D03*
D168*
X133387Y212258D03*
D30*
X163817Y212258D03*
D85*
X176652Y212258D03*
D65*
X132766Y212672D03*
D40*
X163196Y212672D03*
D31*
X177066Y212672D03*
D140*
X132766Y213086D03*
D34*
X162782Y213086D03*
D77*
X177273Y213086D03*
D169*
X132559Y213500D03*
D36*
X162575Y213500D03*
D77*
X177273Y213500D03*
D170*
X132352Y213914D03*
D23*
X162161Y213914D03*
D28*
X177687Y213914D03*
D51*
X125520Y214328D03*
D20*
X138976Y214328D03*
D36*
X161747Y214328D03*
X177894Y214328D03*
D26*
X123864Y214742D03*
D21*
X140218Y214742D03*
D33*
X161540Y214742D03*
D25*
X178101Y214742D03*
D40*
X123036Y215156D03*
D38*
X140839Y215156D03*
D76*
X161126Y215156D03*
X178101Y215156D03*
D36*
X122415Y215570D03*
D35*
X141046Y215570D03*
D33*
X160712Y215570D03*
D37*
X178308Y215570D03*
D25*
X121794Y215984D03*
D27*
X141253Y215984D03*
D35*
X160505Y215984D03*
D37*
X178308Y215984D03*
D32*
X121173Y216398D03*
D42*
X141460Y216398D03*
D32*
X160091Y216398D03*
D29*
X178515Y216398D03*
D27*
X120552Y216812D03*
D48*
X141253Y216812D03*
D37*
X159677Y216812D03*
D27*
X178515Y216812D03*
D35*
X284711Y216812D03*
D29*
X120138Y217226D03*
D90*
X141253Y217226D03*
D68*
X159263Y217226D03*
D29*
X178515Y217226D03*
D31*
X284297Y217226D03*
D27*
X119724Y217640D03*
D48*
X141253Y217640D03*
D27*
X159056Y217640D03*
D44*
X178722Y217640D03*
D49*
X283676Y217640D03*
D27*
X119310Y218054D03*
D48*
X141253Y218054D03*
D27*
X158642Y218054D03*
D44*
X178722Y218054D03*
D145*
X282020Y218054D03*
D29*
X118896Y218468D03*
D46*
X141046Y218468D03*
D86*
X158228Y218468D03*
D46*
X178722Y218468D03*
D87*
X280985Y218468D03*
D27*
X118482Y218882D03*
D44*
X141046Y218882D03*
D37*
X158021Y218882D03*
D44*
X178722Y218882D03*
D94*
X279743Y218882D03*
D41*
X118275Y219296D03*
D44*
X141046Y219296D03*
D37*
X157607Y219296D03*
D44*
X178722Y219296D03*
D62*
X278501Y219296D03*
D46*
X117861Y219710D03*
D42*
X140632Y219710D03*
D29*
X157400Y219710D03*
D46*
X178722Y219710D03*
D53*
X277052Y219710D03*
D27*
X117654Y220124D03*
D41*
X140632Y220124D03*
D44*
X157193Y220124D03*
X178722Y220124D03*
D17*
X274982Y220124D03*
D27*
X117240Y220538D03*
D41*
X140632Y220538D03*
D39*
X156986Y220538D03*
D44*
X178722Y220538D03*
D145*
X274154Y220538D03*
D86*
X116826Y220952D03*
D42*
X140218Y220952D03*
D86*
X156986Y220952D03*
D42*
X178308Y220952D03*
D107*
X273533Y220952D03*
D44*
X116619Y221366D03*
D41*
X140218Y221366D03*
D44*
X156779Y221366D03*
D41*
X178308Y221366D03*
D51*
X272498Y221366D03*
D27*
X116412Y221780D03*
D44*
X139804Y221780D03*
D41*
X156365Y221780D03*
D48*
X178101Y221780D03*
D51*
X271670Y221780D03*
D29*
X115998Y222194D03*
D90*
X139597Y222194D03*
D42*
X156365Y222194D03*
D46*
X177894Y222194D03*
D171*
X270841Y222194D03*
D44*
X115791Y222608D03*
D41*
X139390Y222608D03*
D44*
X155951Y222608D03*
X177894Y222608D03*
D51*
X270013Y222608D03*
D86*
X115584Y223022D03*
D122*
X139183Y223022D03*
D90*
X155744Y223022D03*
D46*
X177894Y223022D03*
D63*
X269392Y223022D03*
D44*
X115377Y223436D03*
D41*
X138976Y223436D03*
D119*
X155330Y223436D03*
D44*
X177480Y223436D03*
D49*
X268357Y223436D03*
D44*
X115377Y223850D03*
X138562Y223850D03*
D119*
X155330Y223850D03*
D44*
X177480Y223850D03*
D49*
X267529Y223850D03*
D42*
X114963Y224264D03*
D90*
X138355Y224264D03*
X154916Y224264D03*
X177273Y224264D03*
D96*
X266701Y224264D03*
D41*
X114963Y224678D03*
X138148Y224678D03*
D48*
X154916Y224678D03*
X176859Y224678D03*
D95*
X265873Y224678D03*
D44*
X114549Y225092D03*
X137734Y225092D03*
D48*
X154502Y225092D03*
X176859Y225092D03*
D49*
X265045Y225092D03*
D46*
X114549Y225506D03*
X137734Y225506D03*
D90*
X154502Y225506D03*
X176859Y225506D03*
D19*
X264424Y225506D03*
D41*
X114135Y225920D03*
D44*
X137320Y225920D03*
D41*
X154295Y225920D03*
D48*
X176445Y225920D03*
D49*
X263803Y225920D03*
D41*
X114135Y226334D03*
X136906Y226334D03*
D119*
X154088Y226334D03*
D48*
X176445Y226334D03*
D24*
X263182Y226334D03*
D29*
X113928Y226748D03*
D90*
X136699Y226748D03*
D122*
X154088Y226748D03*
D42*
X176238Y226748D03*
D72*
X262768Y226748D03*
D41*
X113721Y227162D03*
D44*
X136492Y227162D03*
D41*
X153881Y227162D03*
X175824Y227162D03*
D99*
X262354Y227162D03*
D29*
X113514Y227576D03*
D86*
X136285Y227576D03*
D90*
X153674Y227576D03*
D42*
X175824Y227576D03*
D23*
X261526Y227576D03*
D44*
X113307Y227990D03*
D27*
X135871Y227990D03*
D48*
X153674Y227990D03*
D27*
X175617Y227990D03*
D25*
X260905Y227990D03*
D44*
X113307Y228404D03*
D27*
X135871Y228404D03*
D44*
X153467Y228404D03*
X175410Y228404D03*
D39*
X260491Y228404D03*
D42*
X112893Y228818D03*
D29*
X135457Y228818D03*
D46*
X153467Y228818D03*
D122*
X174789Y228818D03*
D117*
X260077Y228818D03*
D41*
X112893Y229232D03*
D27*
X135043Y229232D03*
D44*
X153467Y229232D03*
D41*
X174582Y229232D03*
X112893Y229646D03*
D27*
X134629Y229646D03*
D44*
X153467Y229646D03*
X174168Y229646D03*
D122*
X112686Y230061D03*
D32*
X134422Y230061D03*
D29*
X153260Y230061D03*
D46*
X174168Y230061D03*
D41*
X112479Y230475D03*
D35*
X134008Y230475D03*
D27*
X153260Y230475D03*
D41*
X173754Y230475D03*
X112479Y230889D03*
D27*
X133801Y230889D03*
X153260Y230889D03*
D44*
X173340Y230889D03*
D42*
X112479Y231303D03*
D29*
X133387Y231303D03*
X153260Y231303D03*
D86*
X173133Y231303D03*
D41*
X112479Y231717D03*
D27*
X132973Y231717D03*
D41*
X153053Y231717D03*
D27*
X172719Y231717D03*
D41*
X112479Y232131D03*
D27*
X132559Y232131D03*
D41*
X153053Y232131D03*
D27*
X172305Y232131D03*
D29*
X112272Y232545D03*
D42*
X132352Y232545D03*
X153053Y232545D03*
D29*
X171891Y232545D03*
D27*
X112272Y232959D03*
X132145Y232959D03*
D41*
X153053Y232959D03*
D27*
X171477Y232959D03*
D29*
X112272Y233373D03*
D86*
X131731Y233373D03*
D42*
X153053Y233373D03*
D29*
X171063Y233373D03*
D27*
X112272Y233787D03*
D44*
X131524Y233787D03*
D27*
X153260Y233787D03*
X170649Y233787D03*
X112272Y234201D03*
D35*
X130696Y234201D03*
D27*
X153260Y234201D03*
X170235Y234201D03*
D29*
X112272Y234615D03*
D32*
X130282Y234615D03*
D29*
X153260Y234615D03*
X169821Y234615D03*
D27*
X112272Y235029D03*
X130075Y235029D03*
X153260Y235029D03*
X169407Y235029D03*
X112272Y235443D03*
D37*
X129868Y235443D03*
D44*
X153467Y235443D03*
D27*
X168993Y235443D03*
D29*
X112272Y235857D03*
D68*
X129454Y235857D03*
D46*
X153467Y235857D03*
D86*
X168579Y235857D03*
D27*
X112272Y236271D03*
D37*
X129040Y236271D03*
D44*
X153467Y236271D03*
D37*
X167958Y236271D03*
D27*
X112272Y236685D03*
D37*
X128626Y236685D03*
D27*
X153674Y236685D03*
D37*
X167543Y236685D03*
D32*
X112479Y237099D03*
D68*
X128212Y237099D03*
D42*
X153881Y237099D03*
D32*
X167129Y237099D03*
D25*
X112686Y237513D03*
D37*
X127798Y237513D03*
D27*
X154088Y237513D03*
D37*
X166715Y237513D03*
D76*
X112686Y237927D03*
D32*
X127384Y237927D03*
D29*
X154502Y237927D03*
D38*
X166094Y237927D03*
D33*
X113100Y238341D03*
D25*
X126763Y238341D03*
D35*
X154709Y238341D03*
D30*
X165059Y238341D03*
D33*
X113514Y238755D03*
D37*
X126141Y238755D03*
X155123Y238755D03*
D26*
X164438Y238755D03*
D172*
X105026Y239169D03*
D38*
X113514Y239169D03*
D76*
X125520Y239169D03*
D75*
X155951Y239169D03*
D43*
X164024Y239169D03*
D48*
X104405Y239583D03*
D25*
X113928Y239583D03*
D33*
X125106Y239583D03*
D120*
X160091Y239583D03*
D27*
X103577Y239997D03*
D36*
X114135Y239997D03*
D33*
X124692Y239997D03*
D113*
X160091Y239997D03*
D68*
X102956Y240411D03*
D23*
X114549Y240411D03*
D76*
X124278Y240411D03*
D134*
X159884Y240411D03*
D36*
X102542Y240825D03*
D77*
X115170Y240825D03*
D33*
X123864Y240825D03*
D94*
X159677Y240825D03*
D30*
X101714Y241239D03*
D26*
X115998Y241239D03*
D36*
X123243Y241239D03*
D51*
X159470Y241239D03*
D73*
X101093Y241653D03*
D11*
X118896Y241653D03*
D73*
X159056Y241653D03*
D78*
X99851Y242067D03*
D136*
X118896Y242067D03*
D25*
X158642Y242067D03*
D49*
X99437Y242481D03*
D94*
X119103Y242481D03*
D63*
X99230Y242895D03*
D112*
X119310Y242895D03*
D26*
X97781Y243309D03*
D49*
X119310Y243309D03*
D43*
X97367Y243723D03*
X119310Y243723D03*
D36*
X95918Y244137D03*
D48*
X119310Y244137D03*
D25*
X95297Y244551D03*
D23*
X95090Y244965D03*
D37*
X94676Y245379D03*
D41*
X94262Y245793D03*
D29*
X94055Y246207D03*
D27*
X93641Y246621D03*
D37*
X93434Y247035D03*
D29*
X93227Y247449D03*
D27*
X92813Y247863D03*
D29*
X92399Y248277D03*
D27*
X92399Y248691D03*
D41*
X92192Y249105D03*
D29*
X91985Y249519D03*
D90*
X130489Y249519D03*
D41*
X91778Y249933D03*
D85*
X130696Y249933D03*
D41*
X91778Y250347D03*
D173*
X130489Y250347D03*
D90*
X91571Y250762D03*
D174*
X130489Y250762D03*
D44*
X91364Y251176D03*
D158*
X130489Y251176D03*
D44*
X91364Y251590D03*
D126*
X130489Y251590D03*
D46*
X91364Y252004D03*
D139*
X130282Y252004D03*
D44*
X91364Y252418D03*
D115*
X130282Y252418D03*
D44*
X91364Y252832D03*
D26*
X125520Y252832D03*
D99*
X134422Y252832D03*
D46*
X91364Y253246D03*
D28*
X124692Y253246D03*
D23*
X135250Y253246D03*
D44*
X91364Y253660D03*
D33*
X123864Y253660D03*
D27*
X135871Y253660D03*
D29*
X91157Y254074D03*
D32*
X123243Y254074D03*
D46*
X136078Y254074D03*
D27*
X91157Y254488D03*
D37*
X122829Y254488D03*
D44*
X136078Y254488D03*
D27*
X91571Y254902D03*
D35*
X122415Y254902D03*
D44*
X136078Y254902D03*
D29*
X91571Y255316D03*
D32*
X121587Y255316D03*
D46*
X136078Y255316D03*
D44*
X91364Y255730D03*
D39*
X121380Y255730D03*
D44*
X136078Y255730D03*
X91364Y256144D03*
D27*
X120966Y256144D03*
D44*
X136078Y256144D03*
D46*
X91364Y256558D03*
D29*
X120552Y256558D03*
D46*
X136078Y256558D03*
D44*
X91364Y256972D03*
X120345Y256972D03*
D41*
X135664Y256972D03*
D175*
X90950Y257386D03*
D27*
X120138Y257386D03*
D41*
X135664Y257386D03*
D176*
X90950Y257800D03*
D42*
X119931Y257800D03*
X135664Y257800D03*
D175*
X90950Y258214D03*
D27*
X119724Y258214D03*
X135457Y258214D03*
D117*
X90743Y258628D03*
D29*
X119310Y258628D03*
D46*
X135250Y258628D03*
D150*
X90329Y259042D03*
D27*
X118896Y259042D03*
D44*
X135250Y259042D03*
D150*
X90329Y259456D03*
D37*
X118689Y259456D03*
D41*
X134836Y259456D03*
D177*
X90329Y259870D03*
D29*
X118482Y259870D03*
D42*
X134836Y259870D03*
D41*
X118275Y260284D03*
D27*
X134629Y260284D03*
X118068Y260698D03*
D41*
X134422Y260698D03*
D96*
X93227Y261112D03*
D46*
X117861Y261112D03*
D29*
X134215Y261112D03*
D17*
X94055Y261526D03*
D41*
X117447Y261526D03*
D44*
X134008Y261526D03*
D178*
X94262Y261940D03*
D41*
X117447Y261940D03*
D44*
X134008Y261940D03*
D179*
X94262Y262354D03*
D42*
X117447Y262354D03*
D29*
X133801Y262354D03*
D120*
X94262Y262768D03*
D27*
X117240Y262768D03*
X133801Y262768D03*
D163*
X94262Y263182D03*
D44*
X117033Y263182D03*
D27*
X133387Y263182D03*
D110*
X94469Y263596D03*
D46*
X116619Y263596D03*
D29*
X133387Y263596D03*
D64*
X94469Y264010D03*
D44*
X116619Y264010D03*
D27*
X132973Y264010D03*
D87*
X91364Y264424D03*
D23*
X99644Y264424D03*
D46*
X116619Y264424D03*
D29*
X132559Y264424D03*
D173*
X90329Y264838D03*
D37*
X100058Y264838D03*
D41*
X116205Y264838D03*
D27*
X132559Y264838D03*
D24*
X89294Y265252D03*
D27*
X100265Y265252D03*
D41*
X116205Y265252D03*
D27*
X132145Y265252D03*
D31*
X88466Y265666D03*
D86*
X100679Y265666D03*
D42*
X116205Y265666D03*
D46*
X131938Y265666D03*
D36*
X87638Y266080D03*
D44*
X100886Y266080D03*
D41*
X116205Y266080D03*
D39*
X131731Y266080D03*
D33*
X87017Y266494D03*
D48*
X100679Y266494D03*
X115998Y266494D03*
D27*
X131317Y266494D03*
D38*
X86603Y266908D03*
D90*
X100679Y266908D03*
D46*
X115791Y266908D03*
D29*
X131317Y266908D03*
D37*
X86396Y267322D03*
D44*
X100472Y267322D03*
X115791Y267322D03*
D27*
X130903Y267322D03*
D25*
X86189Y267736D03*
D44*
X100472Y267736D03*
X115791Y267736D03*
D35*
X130696Y267736D03*
D38*
X85775Y268150D03*
D46*
X100472Y268150D03*
X115791Y268150D03*
D32*
X130282Y268150D03*
D27*
X85361Y268564D03*
D44*
X100472Y268564D03*
X115791Y268564D03*
D27*
X130075Y268564D03*
D42*
X85154Y268978D03*
D29*
X100265Y268978D03*
D90*
X115584Y268978D03*
D32*
X129868Y268978D03*
D27*
X84946Y269392D03*
X100265Y269392D03*
D48*
X115584Y269392D03*
D35*
X129454Y269392D03*
D39*
X84532Y269806D03*
D27*
X100265Y269806D03*
D48*
X115584Y269806D03*
D37*
X129040Y269806D03*
D29*
X84118Y270220D03*
D42*
X100058Y270220D03*
D90*
X115584Y270220D03*
D76*
X128833Y270220D03*
D37*
X83911Y270634D03*
D27*
X99851Y270634D03*
D44*
X115791Y270634D03*
D37*
X128626Y270634D03*
D35*
X83497Y271048D03*
D27*
X99851Y271048D03*
D44*
X115791Y271048D03*
D35*
X128212Y271048D03*
D68*
X83497Y271463D03*
D29*
X99851Y271463D03*
D90*
X115998Y271463D03*
D32*
X127798Y271463D03*
D37*
X83083Y271877D03*
D44*
X99644Y271877D03*
D48*
X115998Y271877D03*
D25*
X127591Y271877D03*
D37*
X83083Y272291D03*
D27*
X99437Y272291D03*
D41*
X116205Y272291D03*
D33*
X127177Y272291D03*
D29*
X82876Y272705D03*
D42*
X99230Y272705D03*
X116205Y272705D03*
D76*
X126763Y272705D03*
D27*
X82876Y273119D03*
D41*
X99230Y273119D03*
X116205Y273119D03*
D25*
X126348Y273119D03*
D27*
X82462Y273533D03*
D41*
X99230Y273533D03*
D44*
X116619Y273533D03*
D33*
X125934Y273533D03*
D29*
X82462Y273947D03*
X99023Y273947D03*
D46*
X116619Y273947D03*
D76*
X125520Y273947D03*
D27*
X82462Y274361D03*
D41*
X98816Y274361D03*
D39*
X116826Y274361D03*
D37*
X125313Y274361D03*
D29*
X82048Y274775D03*
X98609Y274775D03*
X117240Y274775D03*
D38*
X124692Y274775D03*
D27*
X82048Y275189D03*
X98609Y275189D03*
D37*
X117447Y275189D03*
D33*
X123864Y275189D03*
D41*
X81841Y275603D03*
D27*
X98195Y275603D03*
D62*
X120759Y275603D03*
D29*
X81634Y276017D03*
X98195Y276017D03*
D53*
X120552Y276017D03*
D27*
X81634Y276431D03*
X97781Y276431D03*
D51*
X120552Y276431D03*
D41*
X81427Y276845D03*
D37*
X97574Y276845D03*
D49*
X120138Y276845D03*
D29*
X81220Y277259D03*
X97367Y277259D03*
D98*
X119931Y277259D03*
D27*
X81220Y277673D03*
X96953Y277673D03*
D77*
X119724Y277673D03*
D44*
X81013Y278087D03*
D41*
X96746Y278087D03*
X119517Y278087D03*
D46*
X81013Y278501D03*
D29*
X96539Y278501D03*
D159*
X119517Y278501D03*
D27*
X80806Y278915D03*
X96539Y278915D03*
D42*
X80599Y279329D03*
D86*
X96125Y279329D03*
D41*
X80599Y279743D03*
D39*
X96125Y279743D03*
D41*
X80599Y280157D03*
D37*
X95918Y280157D03*
D42*
X80599Y280571D03*
D32*
X95504Y280571D03*
D48*
X80392Y280985D03*
D27*
X95297Y280985D03*
D48*
X80392Y281399D03*
D37*
X95090Y281399D03*
D90*
X80392Y281813D03*
D86*
X94883Y281813D03*
D48*
X80392Y282227D03*
D39*
X94883Y282227D03*
D44*
X80185Y282641D03*
D27*
X94469Y282641D03*
D46*
X80185Y283055D03*
D42*
X94262Y283055D03*
D44*
X80185Y283469D03*
X93848Y283469D03*
X80185Y283883D03*
D27*
X93641Y283883D03*
D32*
X80185Y284297D03*
D29*
X93227Y284297D03*
D37*
X80185Y284711D03*
D27*
X93227Y284711D03*
D29*
X80392Y285125D03*
X92813Y285125D03*
D37*
X80599Y285539D03*
D27*
X92399Y285539D03*
D37*
X80599Y285953D03*
D27*
X92399Y285953D03*
D32*
X80599Y286367D03*
D29*
X91985Y286367D03*
D35*
X81013Y286781D03*
D27*
X91571Y286781D03*
D35*
X81013Y287195D03*
D44*
X91364Y287195D03*
D38*
X81220Y287609D03*
D29*
X91157Y287609D03*
D33*
X81220Y288023D03*
D27*
X90743Y288023D03*
D25*
X81634Y288437D03*
D39*
X90329Y288437D03*
D23*
X81841Y288851D03*
D32*
X90122Y288851D03*
D33*
X82462Y289265D03*
X89501Y289265D03*
D76*
X82876Y289679D03*
D23*
X88880Y289679D03*
D94*
X85982Y290093D03*
D52*
X85982Y290507D03*
D63*
X85982Y290921D03*
D24*
X85982Y291335D03*
D26*
X85775Y291749D03*
D38*
X85775Y292164D03*
D82*
X73975Y292578D03*
D100*
X85568Y292578D03*
D180*
X73768Y292992D03*
D177*
X72940Y293406D03*
D180*
X72526Y293820D03*
X72526Y294234D03*
D172*
X72319Y294648D03*
D100*
X71905Y295062D03*
D90*
X71698Y295476D03*
D27*
X71284Y295890D03*
X71284Y296304D03*
D147*
X103370Y296304D03*
D32*
X71077Y296718D03*
D38*
X103163Y296718D03*
D37*
X71077Y297132D03*
D85*
X102956Y297132D03*
D33*
X70870Y297546D03*
D102*
X102956Y297546D03*
D46*
X69835Y297960D03*
D137*
X102956Y297960D03*
D44*
X69421Y298374D03*
D62*
X102542Y298374D03*
D41*
X69007Y298788D03*
D54*
X102542Y298788D03*
D90*
X68800Y299202D03*
D43*
X99851Y299202D03*
D76*
X105647Y299202D03*
D48*
X68800Y299616D03*
D21*
X99230Y299616D03*
D37*
X105855Y299616D03*
D101*
X68593Y300030D03*
D75*
X98402Y300030D03*
D32*
X106269Y300030D03*
D48*
X68386Y300444D03*
D25*
X97781Y300444D03*
D39*
X106476Y300444D03*
D48*
X68386Y300858D03*
D35*
X97160Y300858D03*
D44*
X106683Y300858D03*
D122*
X67972Y301272D03*
D29*
X96953Y301272D03*
X106890Y301272D03*
D119*
X67972Y301686D03*
D27*
X96539Y301686D03*
D41*
X107097Y301686D03*
D119*
X67972Y302100D03*
D39*
X96125Y302100D03*
D41*
X107097Y302100D03*
D90*
X67558Y302514D03*
D29*
X95711Y302514D03*
D42*
X107097Y302514D03*
D48*
X67558Y302928D03*
D27*
X95297Y302928D03*
D41*
X107097Y302928D03*
D48*
X67558Y303342D03*
D44*
X95090Y303342D03*
D48*
X107304Y303342D03*
D90*
X67558Y303756D03*
X94883Y303756D03*
X107304Y303756D03*
D44*
X67351Y304170D03*
D48*
X94883Y304170D03*
D41*
X107097Y304170D03*
D44*
X67351Y304584D03*
D48*
X94469Y304584D03*
D41*
X107097Y304584D03*
D46*
X67351Y304998D03*
D42*
X94262Y304998D03*
X107097Y304998D03*
D44*
X67351Y305412D03*
D48*
X94055Y305412D03*
D41*
X107097Y305412D03*
D46*
X67351Y305826D03*
X93848Y305826D03*
D42*
X107097Y305826D03*
D44*
X67351Y306240D03*
D27*
X93641Y306240D03*
D41*
X107097Y306240D03*
D44*
X67351Y306654D03*
D41*
X93434Y306654D03*
D48*
X106890Y306654D03*
D46*
X67351Y307068D03*
D29*
X93227Y307068D03*
D90*
X106890Y307068D03*
D44*
X67351Y307482D03*
D41*
X93020Y307482D03*
D48*
X106890Y307482D03*
D44*
X67351Y307896D03*
D41*
X93020Y307896D03*
D48*
X106890Y307896D03*
D90*
X67144Y308310D03*
D46*
X92606Y308310D03*
D90*
X106890Y308310D03*
D48*
X67144Y308724D03*
D44*
X92606Y308724D03*
D48*
X106890Y308724D03*
X67144Y309138D03*
D44*
X92606Y309138D03*
D48*
X106476Y309138D03*
D90*
X67144Y309552D03*
X92399Y309552D03*
X106476Y309552D03*
D48*
X67144Y309966D03*
X92399Y309966D03*
X106476Y309966D03*
D90*
X67144Y310380D03*
X92399Y310380D03*
X106476Y310380D03*
D48*
X67144Y310794D03*
X92399Y310794D03*
D100*
X106269Y310794D03*
X66937Y311208D03*
D41*
X92192Y311208D03*
D48*
X106062Y311208D03*
D101*
X66937Y311622D03*
D122*
X91985Y311622D03*
D90*
X106062Y311622D03*
D147*
X66937Y312036D03*
D119*
X91985Y312036D03*
D48*
X106062Y312036D03*
D147*
X66937Y312450D03*
D119*
X91985Y312450D03*
D48*
X106062Y312450D03*
D172*
X66937Y312865D03*
D122*
X91985Y312865D03*
D90*
X105648Y312865D03*
D147*
X66937Y313279D03*
D119*
X91985Y313279D03*
D48*
X105648Y313279D03*
D147*
X66937Y313693D03*
D119*
X91985Y313693D03*
D48*
X105648Y313693D03*
D122*
X91985Y314107D03*
D90*
X105233Y314107D03*
D119*
X91985Y314521D03*
D48*
X105233Y314521D03*
D119*
X91985Y314935D03*
D44*
X105026Y314935D03*
D122*
X91985Y315349D03*
D90*
X104819Y315349D03*
D119*
X91985Y315763D03*
D41*
X104612Y315763D03*
D122*
X91985Y316177D03*
D29*
X104405Y316177D03*
D41*
X71491Y316591D03*
D100*
X91778Y316591D03*
D44*
X104198Y316591D03*
D34*
X72112Y317005D03*
D100*
X91778Y317005D03*
D27*
X103991Y317005D03*
D97*
X72526Y317419D03*
D101*
X91778Y317419D03*
D42*
X103784Y317419D03*
D82*
X66523Y317833D03*
D51*
X72526Y317833D03*
D119*
X91985Y317833D03*
D27*
X103577Y317833D03*
D82*
X66523Y318247D03*
D146*
X72112Y318247D03*
D119*
X91985Y318247D03*
D41*
X103370Y318247D03*
D103*
X71905Y318661D03*
D122*
X91985Y318661D03*
D29*
X103163Y318661D03*
D99*
X69007Y319075D03*
D36*
X75631Y319075D03*
D41*
X92192Y319075D03*
D44*
X102956Y319075D03*
D30*
X68593Y319489D03*
D34*
X76252Y319489D03*
D41*
X92192Y319489D03*
X102542Y319489D03*
D40*
X67972Y319903D03*
D23*
X76459Y319903D03*
D42*
X92192Y319903D03*
D29*
X102335Y319903D03*
D33*
X67558Y320317D03*
X76666Y320317D03*
D27*
X92399Y320317D03*
X101921Y320317D03*
D38*
X67144Y320731D03*
X76666Y320731D03*
D29*
X92813Y320731D03*
X101921Y320731D03*
D25*
X66730Y321145D03*
D37*
X76873Y321145D03*
X93020Y321145D03*
D27*
X101507Y321145D03*
D37*
X66523Y321559D03*
D27*
X76666Y321559D03*
D25*
X93227Y321559D03*
D27*
X101093Y321559D03*
D29*
X65902Y321973D03*
D42*
X76873Y321973D03*
D23*
X93848Y321973D03*
D86*
X100679Y321973D03*
D27*
X65902Y322387D03*
D41*
X76873Y322387D03*
D104*
X96953Y322387D03*
D27*
X65488Y322801D03*
D41*
X76873Y322801D03*
D17*
X96953Y322801D03*
D86*
X65074Y323215D03*
D42*
X76873Y323215D03*
D53*
X96539Y323215D03*
D44*
X64867Y323629D03*
D41*
X76873Y323629D03*
D51*
X96539Y323629D03*
D41*
X64453Y324043D03*
D119*
X77080Y324043D03*
D24*
X96332Y324043D03*
D29*
X64245Y324457D03*
D122*
X77080Y324457D03*
D31*
X96332Y324457D03*
D44*
X64038Y324871D03*
D119*
X77080Y324871D03*
D149*
X96539Y324871D03*
D44*
X63624Y325285D03*
D119*
X77080Y325285D03*
D46*
X63624Y325699D03*
D122*
X77080Y325699D03*
D41*
X63210Y326113D03*
D119*
X77080Y326113D03*
D42*
X63210Y326527D03*
D101*
X76873Y326527D03*
D44*
X62796Y326941D03*
D48*
X76666Y326941D03*
X62589Y327355D03*
X76666Y327355D03*
D181*
X144358Y327355D03*
D42*
X62382Y327769D03*
D90*
X76666Y327769D03*
D101*
X144358Y327769D03*
D119*
X62175Y328183D03*
D48*
X76666Y328183D03*
X144151Y328183D03*
D41*
X61968Y328597D03*
D44*
X76459Y328597D03*
D100*
X143944Y328597D03*
D90*
X61761Y329011D03*
X76252Y329011D03*
D122*
X143737Y329011D03*
D44*
X61554Y329425D03*
D48*
X76252Y329425D03*
D100*
X143530Y329425D03*
D44*
X61554Y329839D03*
D41*
X76045Y329839D03*
D48*
X143323Y329839D03*
D90*
X61347Y330253D03*
X75838Y330253D03*
X143323Y330253D03*
D48*
X61347Y330667D03*
X75838Y330667D03*
X142909Y330667D03*
D122*
X60933Y331081D03*
D90*
X75838Y331081D03*
X142909Y331081D03*
D119*
X60933Y331495D03*
D44*
X75631Y331495D03*
D41*
X142702Y331495D03*
D119*
X60933Y331909D03*
D48*
X75424Y331909D03*
X142495Y331909D03*
D101*
X60726Y332323D03*
D90*
X75424Y332323D03*
D46*
X142288Y332323D03*
D100*
X60726Y332737D03*
D48*
X75424Y332737D03*
D44*
X142288Y332737D03*
D48*
X60519Y333151D03*
D44*
X75217Y333151D03*
X141874Y333151D03*
D90*
X60519Y333566D03*
D46*
X75217Y333566D03*
D29*
X141667Y333566D03*
D100*
X60312Y333980D03*
D48*
X75010Y333980D03*
D41*
X141460Y333980D03*
D100*
X60312Y334394D03*
D41*
X74803Y334394D03*
D27*
X141253Y334394D03*
D101*
X60312Y334808D03*
D42*
X74803Y334808D03*
D46*
X141046Y334808D03*
D100*
X60312Y335222D03*
D41*
X74803Y335222D03*
D27*
X140839Y335222D03*
D149*
X60105Y335636D03*
D44*
X74389Y335636D03*
D41*
X140632Y335636D03*
D176*
X59898Y336050D03*
D46*
X74389Y336050D03*
D42*
X140632Y336050D03*
D175*
X59898Y336464D03*
D39*
X74182Y336464D03*
D41*
X140218Y336464D03*
D176*
X59898Y336878D03*
D46*
X73975Y336878D03*
D42*
X140218Y336878D03*
D175*
X59898Y337292D03*
D44*
X73975Y337292D03*
X139804Y337292D03*
D175*
X59898Y337706D03*
D41*
X73561Y337706D03*
D44*
X139804Y337706D03*
D176*
X59898Y338120D03*
D42*
X73561Y338120D03*
D29*
X139597Y338120D03*
D175*
X59898Y338534D03*
D41*
X73561Y338534D03*
D27*
X139597Y338534D03*
D149*
X59691Y338948D03*
D44*
X73147Y338948D03*
D27*
X139183Y338948D03*
D117*
X59691Y339362D03*
D46*
X73147Y339362D03*
D29*
X139183Y339362D03*
D149*
X59691Y339776D03*
D44*
X73147Y339776D03*
D27*
X138769Y339776D03*
D149*
X59691Y340190D03*
D48*
X72940Y340190D03*
D27*
X138769Y340190D03*
D117*
X59691Y340604D03*
D42*
X72733Y340604D03*
D29*
X138355Y340604D03*
D149*
X59691Y341018D03*
D41*
X72733Y341018D03*
D27*
X138355Y341018D03*
D117*
X59691Y341432D03*
D32*
X72319Y341432D03*
D29*
X138355Y341432D03*
D149*
X59691Y341846D03*
D27*
X72112Y341846D03*
X137941Y341846D03*
D175*
X59898Y342260D03*
D27*
X72112Y342260D03*
X137941Y342260D03*
D176*
X59898Y342674D03*
D68*
X71905Y342674D03*
D29*
X137941Y342674D03*
D175*
X59898Y343088D03*
D35*
X71905Y343088D03*
D37*
X137734Y343088D03*
D175*
X59898Y343502D03*
D27*
X71698Y343502D03*
D39*
X137527Y343502D03*
D176*
X59898Y343916D03*
D32*
X71491Y343916D03*
D86*
X137527Y343916D03*
D175*
X59898Y344330D03*
D27*
X71284Y344330D03*
D39*
X137527Y344330D03*
D175*
X59898Y344744D03*
D27*
X71284Y344744D03*
D37*
X137320Y344744D03*
D90*
X60105Y345158D03*
D29*
X70870Y345158D03*
D32*
X137320Y345158D03*
D48*
X60105Y345572D03*
D27*
X70870Y345572D03*
X137113Y345572D03*
D48*
X60105Y345986D03*
D27*
X70456Y345986D03*
X137113Y345986D03*
D101*
X60312Y346400D03*
D29*
X70456Y346400D03*
X137113Y346400D03*
D100*
X60312Y346814D03*
D41*
X70249Y346814D03*
X136906Y346814D03*
D90*
X60519Y347228D03*
D29*
X70042Y347228D03*
D90*
X137113Y347228D03*
D48*
X60519Y347642D03*
D44*
X69835Y347642D03*
D175*
X136906Y347642D03*
D48*
X60519Y348056D03*
D39*
X69628Y348056D03*
D147*
X136906Y348056D03*
D122*
X60933Y348470D03*
D46*
X69421Y348470D03*
D29*
X86189Y348470D03*
D172*
X136906Y348470D03*
D119*
X60933Y348884D03*
D27*
X69214Y348884D03*
D21*
X85982Y348884D03*
D119*
X60933Y349298D03*
D41*
X69007Y349298D03*
D99*
X85982Y349298D03*
D42*
X61140Y349712D03*
D29*
X68800Y349712D03*
D73*
X85775Y349712D03*
D41*
X61140Y350126D03*
D27*
X68386Y350126D03*
D49*
X85775Y350126D03*
D44*
X61554Y350540D03*
D27*
X67972Y350540D03*
D49*
X85775Y350540D03*
D29*
X61761Y350954D03*
D32*
X67765Y350954D03*
D171*
X85775Y350954D03*
D52*
X64867Y351368D03*
D145*
X85775Y351368D03*
D63*
X64453Y351782D03*
D38*
X83290Y351782D03*
D32*
X88880Y351782D03*
D95*
X64245Y352196D03*
D25*
X82876Y352196D03*
D27*
X89087Y352196D03*
D85*
X64038Y352610D03*
D37*
X82669Y352610D03*
D44*
X89294Y352610D03*
D23*
X64038Y353024D03*
D68*
X82255Y353024D03*
D42*
X89708Y353024D03*
D44*
X64038Y353438D03*
D27*
X82048Y353438D03*
D41*
X89708Y353438D03*
D27*
X82048Y353852D03*
D48*
X89915Y353852D03*
D29*
X81634Y354267D03*
D90*
X89915Y354267D03*
D27*
X81634Y354681D03*
D44*
X90122Y354681D03*
D27*
X81220Y355095D03*
D44*
X90122Y355095D03*
D29*
X81220Y355509D03*
D90*
X90329Y355509D03*
D27*
X81220Y355923D03*
D48*
X90329Y355923D03*
D27*
X80806Y356337D03*
D44*
X90536Y356337D03*
D29*
X80806Y356751D03*
D46*
X90536Y356751D03*
D27*
X80806Y357165D03*
D48*
X90743Y357165D03*
D32*
X80599Y357579D03*
D90*
X90743Y357579D03*
D27*
X80392Y357993D03*
D48*
X90743Y357993D03*
D27*
X80392Y358407D03*
D41*
X90950Y358407D03*
D29*
X80392Y358821D03*
D42*
X90950Y358821D03*
D37*
X80185Y359235D03*
D41*
X90950Y359235D03*
D37*
X80185Y359649D03*
D48*
X91157Y359649D03*
D32*
X80185Y360063D03*
D90*
X91157Y360063D03*
D37*
X80185Y360477D03*
D44*
X91364Y360477D03*
D33*
X79978Y360891D03*
D44*
X91364Y360891D03*
D38*
X79978Y361305D03*
D46*
X91364Y361305D03*
D33*
X79978Y361719D03*
D44*
X91364Y361719D03*
D38*
X79978Y362133D03*
D46*
X91364Y362133D03*
D33*
X79978Y362547D03*
D44*
X91364Y362547D03*
D180*
X128833Y362547D03*
D33*
X79978Y362961D03*
D44*
X91364Y362961D03*
D149*
X128833Y362961D03*
D38*
X79978Y363375D03*
D46*
X91364Y363375D03*
D117*
X128833Y363375D03*
D37*
X79771Y363789D03*
D44*
X91364Y363789D03*
D100*
X128626Y363789D03*
D37*
X79771Y364203D03*
D44*
X91364Y364203D03*
D100*
X128626Y364203D03*
D32*
X79771Y364617D03*
D90*
X91571Y364617D03*
D101*
X128626Y364617D03*
D37*
X79771Y365031D03*
D48*
X91571Y365031D03*
D100*
X128626Y365031D03*
D37*
X79771Y365445D03*
D48*
X91571Y365445D03*
X128419Y365445D03*
D32*
X79771Y365859D03*
D90*
X91571Y365859D03*
X128419Y365859D03*
D37*
X79771Y366273D03*
D48*
X91571Y366273D03*
X128419Y366273D03*
D39*
X79978Y366687D03*
D48*
X91571Y366687D03*
D100*
X128212Y366687D03*
D86*
X79978Y367101D03*
D90*
X91571Y367101D03*
X128005Y367101D03*
D39*
X79978Y367515D03*
D48*
X91571Y367515D03*
X128005Y367515D03*
D46*
X79771Y367929D03*
D90*
X91571Y367929D03*
X128005Y367929D03*
D44*
X79771Y368343D03*
D100*
X91364Y368343D03*
D41*
X127798Y368343D03*
D44*
X79771Y368757D03*
D100*
X91364Y368757D03*
D41*
X127798Y368757D03*
D90*
X79978Y369171D03*
D101*
X91364Y369171D03*
D42*
X127798Y369171D03*
D48*
X79978Y369585D03*
D100*
X91364Y369585D03*
D44*
X127384Y369585D03*
D48*
X79978Y369999D03*
X91157Y369999D03*
D44*
X127384Y369999D03*
D46*
X80185Y370413D03*
D90*
X91157Y370413D03*
X127177Y370413D03*
D44*
X80185Y370827D03*
D48*
X91157Y370827D03*
X127177Y370827D03*
D44*
X80185Y371241D03*
D48*
X91157Y371241D03*
D44*
X126970Y371241D03*
D46*
X80185Y371655D03*
D90*
X90743Y371655D03*
X126763Y371655D03*
D44*
X80185Y372069D03*
D48*
X90743Y372069D03*
X126763Y372069D03*
D42*
X80599Y372483D03*
D90*
X90743Y372483D03*
X126763Y372483D03*
D41*
X80599Y372897D03*
D48*
X90743Y372897D03*
X126763Y372897D03*
D41*
X80599Y373311D03*
D100*
X90536Y373311D03*
D48*
X126763Y373311D03*
D29*
X80806Y373725D03*
D90*
X90329Y373725D03*
D176*
X126556Y373725D03*
D44*
X81013Y374139D03*
D48*
X90329Y374139D03*
X126349Y374139D03*
D27*
X81220Y374553D03*
D44*
X90122Y374553D03*
D48*
X126349Y374553D03*
D42*
X81427Y374968D03*
D46*
X90122Y374968D03*
D90*
X126349Y374968D03*
D27*
X81634Y375382D03*
D41*
X89708Y375382D03*
D48*
X126349Y375382D03*
D27*
X82048Y375796D03*
D41*
X89708Y375796D03*
D48*
X126349Y375796D03*
D46*
X82255Y376210D03*
X89294Y376210D03*
D90*
X126349Y376210D03*
D41*
X82669Y376624D03*
X88880Y376624D03*
D48*
X126349Y376624D03*
D37*
X83083Y377038D03*
D27*
X88673Y377038D03*
D48*
X126349Y377038D03*
D38*
X83704Y377452D03*
D29*
X88259Y377452D03*
D101*
X126141Y377452D03*
D49*
X85775Y377866D03*
D100*
X126141Y377866D03*
D19*
X85568Y378280D03*
D101*
X126141Y378280D03*
D26*
X85775Y378694D03*
D100*
X126141Y378694D03*
D34*
X85775Y379108D03*
D100*
X126141Y379108D03*
D32*
X85982Y379522D03*
D101*
X126141Y379522D03*
D100*
X85982Y379936D03*
X126141Y379936D03*
X126141Y380350D03*
D182*
X125934Y380764D03*
D183*
X125934Y381178D03*
D147*
X125727Y381592D03*
D118*
X58656Y387388D03*
D101*
X59484Y387802D03*
D35*
X60312Y388216D03*
D73*
X59691Y388630D03*
D24*
X59484Y389044D03*
D95*
X59691Y389458D03*
D63*
X59484Y389872D03*
D52*
X59484Y390286D03*
D94*
X59484Y390700D03*
D71*
X59484Y391114D03*
D26*
X56793Y391528D03*
D37*
X63210Y391528D03*
D77*
X56379Y391942D03*
D37*
X63624Y391942D03*
D23*
X56172Y392356D03*
D86*
X63831Y392356D03*
D33*
X55965Y392770D03*
D27*
X64245Y392770D03*
D38*
X55551Y393184D03*
D29*
X64245Y393184D03*
D37*
X55344Y393598D03*
D41*
X64453Y393598D03*
D37*
X55344Y394012D03*
D27*
X64660Y394012D03*
D29*
X55137Y394426D03*
D46*
X64867Y394426D03*
D44*
X54930Y394840D03*
D39*
X65074Y394840D03*
D44*
X54930Y395254D03*
X65281Y395254D03*
D86*
X54723Y395669D03*
D29*
X65488Y395669D03*
D44*
X54516Y396083D03*
D41*
X65695Y396083D03*
D44*
X54516Y396497D03*
D41*
X65695Y396497D03*
D90*
X54309Y396911D03*
X65902Y396911D03*
D48*
X54309Y397325D03*
D44*
X66109Y397325D03*
D48*
X54309Y397739D03*
D44*
X66109Y397739D03*
D90*
X54309Y398153D03*
D46*
X66109Y398153D03*
D48*
X54309Y398567D03*
X66316Y398567D03*
D42*
X54102Y398981D03*
X66523Y398981D03*
D48*
X53895Y399395D03*
D41*
X66523Y399395D03*
D48*
X53895Y399809D03*
D41*
X66523Y399809D03*
D90*
X53895Y400223D03*
D29*
X66730Y400223D03*
D38*
X83290Y400223D03*
D48*
X53895Y400637D03*
D27*
X66730Y400637D03*
D34*
X83290Y400637D03*
D48*
X53895Y401051D03*
D41*
X66937Y401051D03*
D21*
X83083Y401051D03*
D90*
X53895Y401465D03*
D42*
X66937Y401465D03*
D98*
X83083Y401465D03*
D48*
X53895Y401879D03*
D41*
X66937Y401879D03*
D45*
X82876Y401879D03*
D41*
X54102Y402293D03*
X66937Y402293D03*
D24*
X83083Y402293D03*
D42*
X54102Y402707D03*
X66937Y402707D03*
D63*
X83083Y402707D03*
D41*
X54102Y403121D03*
X66937Y403121D03*
D27*
X80806Y403121D03*
D39*
X85775Y403121D03*
D42*
X54102Y403535D03*
X66937Y403535D03*
D29*
X80392Y403535D03*
D86*
X85775Y403535D03*
D41*
X54102Y403949D03*
X66937Y403949D03*
D44*
X80185Y403949D03*
D27*
X86189Y403949D03*
D41*
X54102Y404363D03*
X66937Y404363D03*
D44*
X79771Y404363D03*
D41*
X86396Y404363D03*
D29*
X54309Y404777D03*
D42*
X66937Y404777D03*
D90*
X79564Y404777D03*
D29*
X86603Y404777D03*
D44*
X54516Y405191D03*
D48*
X67144Y405191D03*
D41*
X79357Y405191D03*
D27*
X87017Y405191D03*
D44*
X54516Y405605D03*
D48*
X67144Y405605D03*
X79150Y405605D03*
D27*
X87017Y405605D03*
D86*
X54723Y406019D03*
D90*
X67144Y406019D03*
X79150Y406019D03*
D29*
X87431Y406019D03*
D44*
X54930Y406433D03*
D48*
X67144Y406433D03*
D44*
X78943Y406433D03*
D27*
X87431Y406433D03*
D44*
X54930Y406847D03*
D48*
X67144Y406847D03*
D44*
X78943Y406847D03*
D27*
X87845Y406847D03*
D46*
X54930Y407261D03*
D90*
X67144Y407261D03*
D46*
X78943Y407261D03*
D29*
X87845Y407261D03*
D44*
X54930Y407675D03*
D48*
X67144Y407675D03*
D44*
X78943Y407675D03*
D27*
X88259Y407675D03*
D48*
X55137Y408089D03*
X67144Y408089D03*
D44*
X78943Y408089D03*
D27*
X88259Y408089D03*
D90*
X55137Y408503D03*
X67144Y408503D03*
D46*
X78943Y408503D03*
D42*
X88466Y408503D03*
D41*
X55344Y408917D03*
D48*
X67144Y408917D03*
D44*
X78943Y408917D03*
D27*
X88673Y408917D03*
D90*
X55551Y409331D03*
X67144Y409331D03*
D46*
X78943Y409331D03*
D29*
X88673Y409331D03*
D48*
X55551Y409745D03*
X67144Y409745D03*
D44*
X78943Y409745D03*
D41*
X88880Y409745D03*
D48*
X55551Y410159D03*
X67144Y410159D03*
D44*
X78943Y410159D03*
D41*
X88880Y410159D03*
D46*
X55758Y410573D03*
D90*
X67144Y410573D03*
D46*
X78943Y410573D03*
X89294Y410573D03*
D48*
X55965Y410987D03*
X67144Y410987D03*
D44*
X78943Y410987D03*
X89294Y410987D03*
D41*
X56172Y411401D03*
D48*
X67144Y411401D03*
D44*
X78943Y411401D03*
X89294Y411401D03*
D122*
X56379Y411815D03*
D90*
X67144Y411815D03*
D46*
X78943Y411815D03*
D90*
X89501Y411815D03*
D41*
X56586Y412229D03*
D48*
X67144Y412229D03*
D44*
X78943Y412229D03*
D41*
X89708Y412229D03*
X56586Y412643D03*
X66937Y412643D03*
D44*
X78943Y412643D03*
D41*
X89708Y412643D03*
D46*
X57000Y413057D03*
D42*
X66937Y413057D03*
D46*
X78943Y413057D03*
D42*
X89708Y413057D03*
D44*
X57000Y413471D03*
D41*
X66937Y413471D03*
D44*
X78943Y413471D03*
D48*
X89915Y413471D03*
D42*
X57414Y413885D03*
X66937Y413885D03*
D46*
X78943Y413885D03*
X90122Y413885D03*
D41*
X57414Y414299D03*
X66937Y414299D03*
D44*
X78943Y414299D03*
X90122Y414299D03*
D27*
X57621Y414713D03*
D41*
X66937Y414713D03*
D48*
X79150Y414713D03*
D44*
X90122Y414713D03*
D29*
X58035Y415127D03*
D42*
X66937Y415127D03*
D90*
X79150Y415127D03*
D46*
X90536Y415127D03*
D35*
X58242Y415541D03*
D41*
X66937Y415541D03*
D48*
X79150Y415541D03*
D44*
X90536Y415541D03*
D37*
X58656Y415955D03*
D41*
X66937Y415955D03*
D48*
X79150Y415955D03*
D44*
X90536Y415955D03*
D32*
X59070Y416370D03*
D29*
X66730Y416370D03*
D90*
X79150Y416370D03*
D46*
X90536Y416370D03*
D33*
X59277Y416784D03*
D27*
X66730Y416784D03*
D48*
X79150Y416784D03*
D44*
X90536Y416784D03*
D25*
X59691Y417198D03*
D37*
X66523Y417198D03*
D41*
X79357Y417198D03*
D48*
X90743Y417198D03*
D23*
X60312Y417612D03*
D38*
X66316Y417612D03*
D90*
X79564Y417612D03*
X90743Y417612D03*
D17*
X63003Y418026D03*
D48*
X79564Y418026D03*
X90743Y418026D03*
D62*
X63210Y418440D03*
D48*
X79564Y418440D03*
X90743Y418440D03*
D53*
X63417Y418854D03*
D90*
X79564Y418854D03*
X90743Y418854D03*
D51*
X63417Y419268D03*
D100*
X79771Y419268D03*
D48*
X90743Y419268D03*
D19*
X63210Y419682D03*
D90*
X79978Y419682D03*
X90743Y419682D03*
D26*
X63003Y420096D03*
D48*
X79978Y420096D03*
D44*
X90536Y420096D03*
D34*
X63003Y420510D03*
D48*
X79978Y420510D03*
D44*
X90536Y420510D03*
D172*
X64038Y420924D03*
D101*
X80185Y420924D03*
D90*
X90329Y420924D03*
D48*
X80392Y421338D03*
X90329Y421338D03*
X80392Y421752D03*
X90329Y421752D03*
D90*
X80806Y422166D03*
X90329Y422166D03*
D48*
X80806Y422580D03*
X90329Y422580D03*
D44*
X81013Y422994D03*
D48*
X90329Y422994D03*
D90*
X81220Y423408D03*
X90329Y423408D03*
D41*
X81427Y423822D03*
D48*
X90329Y423822D03*
D29*
X81634Y424236D03*
D90*
X89915Y424236D03*
D41*
X81841Y424650D03*
D48*
X89915Y424650D03*
D27*
X82048Y425064D03*
D48*
X89915Y425064D03*
D29*
X82462Y425478D03*
D90*
X89501Y425478D03*
D27*
X82876Y425892D03*
D48*
X89501Y425892D03*
D37*
X83083Y426306D03*
D44*
X89294Y426306D03*
D68*
X83497Y426720D03*
D29*
X89087Y426720D03*
D51*
X86189Y427134D03*
X86189Y427548D03*
D63*
X86396Y427962D03*
D24*
X86396Y428376D03*
D99*
X86396Y428790D03*
D38*
X86603Y429204D03*
D180*
X86603Y429618D03*
D44*
X71905Y432102D03*
D23*
X71491Y432516D03*
D21*
X71077Y432930D03*
D78*
X70870Y433344D03*
D63*
X70663Y433758D03*
D173*
X70870Y434172D03*
D29*
X67972Y434586D03*
D68*
X73147Y434586D03*
D41*
X67765Y435000D03*
D37*
X73561Y435000D03*
D41*
X67765Y435414D03*
D37*
X73975Y435414D03*
D90*
X67558Y435828D03*
D86*
X74182Y435828D03*
D48*
X67558Y436242D03*
D27*
X74596Y436242D03*
D48*
X67144Y436656D03*
D37*
X74803Y436656D03*
D90*
X67144Y437071D03*
D29*
X75010Y437071D03*
D48*
X67144Y437485D03*
D39*
X75424Y437485D03*
D41*
X66523Y437899D03*
D39*
X75424Y437899D03*
D42*
X66523Y438313D03*
D29*
X75838Y438313D03*
D41*
X66523Y438727D03*
X76045Y438727D03*
X66523Y439141D03*
D27*
X76252Y439141D03*
D42*
X66523Y439555D03*
D46*
X76459Y439555D03*
D41*
X66523Y439969D03*
D27*
X76666Y439969D03*
D42*
X66523Y440383D03*
X76873Y440383D03*
D41*
X66523Y440797D03*
D27*
X77080Y440797D03*
D41*
X66523Y441211D03*
X77287Y441211D03*
D122*
X66730Y441625D03*
D29*
X77494Y441625D03*
D119*
X66730Y442039D03*
D44*
X77701Y442039D03*
D119*
X66730Y442453D03*
D44*
X77701Y442453D03*
D122*
X66730Y442867D03*
D42*
X78115Y442867D03*
D119*
X66730Y443281D03*
D41*
X78115Y443281D03*
D119*
X66730Y443695D03*
D41*
X78115Y443695D03*
D42*
X66937Y444109D03*
X78529Y444109D03*
D41*
X66937Y444523D03*
X78529Y444523D03*
D42*
X66937Y444937D03*
D90*
X78736Y444937D03*
D48*
X67144Y445351D03*
D44*
X78943Y445351D03*
D48*
X67144Y445765D03*
D44*
X78943Y445765D03*
D90*
X67558Y446179D03*
X79150Y446179D03*
D48*
X67558Y446593D03*
D41*
X79357Y446593D03*
D48*
X67558Y447007D03*
D41*
X79357Y447007D03*
D42*
X67765Y447421D03*
D90*
X79564Y447421D03*
D41*
X67765Y447835D03*
D48*
X79564Y447835D03*
D119*
X67972Y448249D03*
D44*
X79771Y448249D03*
D42*
X68179Y448663D03*
D46*
X79771Y448663D03*
D41*
X68179Y449077D03*
D44*
X79771Y449077D03*
D41*
X68179Y449491D03*
D48*
X79978Y449491D03*
D46*
X68593Y449905D03*
X80185Y449905D03*
D44*
X68593Y450319D03*
X80185Y450319D03*
D42*
X69007Y450733D03*
D46*
X80185Y450733D03*
D90*
X93641Y450733D03*
D41*
X69007Y451147D03*
D48*
X80392Y451147D03*
D36*
X93434Y451147D03*
D44*
X69421Y451561D03*
D48*
X80392Y451561D03*
D21*
X93434Y451561D03*
D46*
X69421Y451975D03*
D90*
X80392Y451975D03*
D98*
X93434Y451975D03*
D44*
X69835Y452389D03*
D48*
X80392Y452389D03*
D78*
X93641Y452389D03*
D27*
X70042Y452803D03*
D41*
X80599Y452803D03*
D49*
X93641Y452803D03*
D42*
X70249Y453217D03*
X80599Y453217D03*
D50*
X93848Y453217D03*
D27*
X70456Y453631D03*
D41*
X80599Y453631D03*
D33*
X91571Y453631D03*
X96125Y453631D03*
D27*
X70870Y454045D03*
D41*
X80599Y454045D03*
D35*
X91364Y454045D03*
D37*
X96332Y454045D03*
D32*
X71491Y454459D03*
D29*
X80392Y454459D03*
X91157Y454459D03*
D32*
X96746Y454459D03*
D35*
X71905Y454873D03*
D44*
X80185Y454873D03*
D27*
X91157Y454873D03*
D35*
X97160Y454873D03*
D76*
X72526Y455287D03*
D86*
X79978Y455287D03*
D42*
X90950Y455287D03*
D29*
X97367Y455287D03*
D34*
X73354Y455701D03*
D37*
X79771Y455701D03*
D41*
X90950Y455701D03*
D27*
X97781Y455701D03*
D54*
X76459Y456115D03*
D41*
X90950Y456115D03*
X97988Y456115D03*
D87*
X76459Y456529D03*
D90*
X90743Y456529D03*
D29*
X98195Y456529D03*
D94*
X76459Y456943D03*
D48*
X90743Y456943D03*
D44*
X98402Y456943D03*
D52*
X76459Y457357D03*
D41*
X90950Y457357D03*
D27*
X98609Y457357D03*
D75*
X77701Y457772D03*
D42*
X90950Y457772D03*
X98816Y457772D03*
D34*
X77494Y458186D03*
D48*
X91157Y458186D03*
D27*
X99023Y458186D03*
X77908Y458600D03*
D48*
X91157Y458600D03*
D41*
X99230Y458600D03*
D177*
X76666Y459014D03*
D90*
X91157Y459014D03*
X99437Y459014D03*
D48*
X91157Y459428D03*
D44*
X99644Y459428D03*
X91364Y459842D03*
D48*
X99851Y459842D03*
D90*
X91571Y460256D03*
X100265Y460256D03*
D48*
X91571Y460670D03*
X100265Y460670D03*
D90*
X91571Y461084D03*
D46*
X100472Y461084D03*
D41*
X91778Y461498D03*
D48*
X100679Y461498D03*
D119*
X91985Y461912D03*
D48*
X100679Y461912D03*
D122*
X91985Y462326D03*
D46*
X100886Y462326D03*
D41*
X92192Y462740D03*
D44*
X100886Y462740D03*
D48*
X92399Y463154D03*
D41*
X101300Y463154D03*
D90*
X92399Y463568D03*
D42*
X101300Y463568D03*
D48*
X92813Y463982D03*
D41*
X101300Y463982D03*
D48*
X92813Y464396D03*
D44*
X101714Y464396D03*
D42*
X93020Y464810D03*
D46*
X101714Y464810D03*
D119*
X93227Y465224D03*
D48*
X101921Y465224D03*
D42*
X93434Y465638D03*
X102128Y465638D03*
D48*
X93641Y466052D03*
D119*
X102335Y466052D03*
D48*
X93641Y466466D03*
D119*
X102335Y466466D03*
D46*
X93848Y466880D03*
D42*
X102542Y466880D03*
D48*
X94055Y467294D03*
X102749Y467294D03*
D41*
X94262Y467708D03*
D48*
X102749Y467708D03*
D90*
X94469Y468122D03*
X102749Y468122D03*
D44*
X94676Y468536D03*
D48*
X102749Y468536D03*
D44*
X94676Y468950D03*
X102956Y468950D03*
D46*
X95090Y469364D03*
D90*
X103163Y469364D03*
D44*
X95090Y469778D03*
D48*
X103163Y469778D03*
D41*
X95504Y470192D03*
D48*
X103163Y470192D03*
D46*
X95918Y470606D03*
D90*
X103163Y470606D03*
D44*
X96332Y471020D03*
D48*
X103163Y471020D03*
D46*
X96332Y471434D03*
D90*
X103163Y471434D03*
D27*
X96539Y471848D03*
D48*
X103163Y471848D03*
D41*
X96746Y472262D03*
D48*
X103163Y472262D03*
D46*
X97160Y472676D03*
D90*
X102749Y472676D03*
D20*
X100058Y473090D03*
D37*
X83911Y473504D03*
D95*
X100265Y473504D03*
D40*
X84118Y473918D03*
D19*
X100472Y473918D03*
D26*
X84532Y474332D03*
D85*
X100472Y474332D03*
X84739Y474746D03*
D74*
X100679Y474746D03*
D73*
X84947Y475160D03*
D28*
X100679Y475160D03*
D142*
X85154Y475574D03*
D39*
X100679Y475574D03*
D122*
X82876Y475988D03*
D23*
X86810Y475988D03*
D27*
X82048Y476402D03*
D25*
X87431Y476402D03*
D41*
X81841Y476816D03*
D33*
X87845Y476816D03*
D42*
X81841Y477230D03*
D68*
X88052Y477230D03*
D41*
X81841Y477644D03*
D37*
X88466Y477644D03*
D119*
X81634Y478058D03*
D37*
X88880Y478058D03*
D122*
X81634Y478473D03*
D68*
X89294Y478473D03*
D41*
X81427Y478887D03*
D37*
X89708Y478887D03*
D41*
X81427Y479301D03*
D27*
X89915Y479301D03*
D42*
X81427Y479715D03*
D86*
X90329Y479715D03*
D41*
X81427Y480129D03*
D44*
X90536Y480129D03*
D41*
X81427Y480543D03*
X90950Y480543D03*
D42*
X81427Y480957D03*
X90950Y480957D03*
D41*
X81427Y481371D03*
D44*
X91364Y481371D03*
D42*
X81427Y481785D03*
X91778Y481785D03*
D41*
X81427Y482199D03*
X91778Y482199D03*
D119*
X81634Y482613D03*
D41*
X91778Y482613D03*
D42*
X81841Y483027D03*
X92192Y483027D03*
D41*
X81841Y483441D03*
X92192Y483441D03*
X81841Y483855D03*
D27*
X92399Y483855D03*
D46*
X82255Y484269D03*
X92606Y484269D03*
D44*
X82255Y484683D03*
D27*
X92813Y484683D03*
D44*
X82255Y485097D03*
D41*
X93020Y485097D03*
D42*
X82669Y485511D03*
D122*
X93227Y485511D03*
D41*
X82669Y485925D03*
X93434Y485925D03*
D42*
X82669Y486339D03*
D90*
X93641Y486339D03*
D41*
X83083Y486753D03*
D44*
X93848Y486753D03*
D41*
X83083Y487167D03*
D44*
X93848Y487167D03*
D46*
X83497Y487581D03*
D90*
X94055Y487581D03*
D44*
X83497Y487995D03*
D41*
X94262Y487995D03*
X83911Y488409D03*
X94262Y488409D03*
D42*
X83911Y488823D03*
D90*
X94469Y488823D03*
D44*
X84325Y489237D03*
X94676Y489237D03*
D39*
X84532Y489651D03*
D44*
X94676Y489651D03*
D46*
X84739Y490065D03*
D90*
X94883Y490065D03*
D27*
X84946Y490479D03*
D44*
X95090Y490479D03*
D41*
X85154Y490893D03*
D44*
X95090Y490893D03*
D29*
X85361Y491307D03*
D90*
X95297Y491307D03*
D37*
X85568Y491721D03*
D41*
X95504Y491721D03*
D86*
X85775Y492135D03*
D90*
X95711Y492135D03*
D27*
X86189Y492549D03*
D48*
X95711Y492549D03*
D37*
X86396Y492963D03*
D44*
X95918Y492963D03*
D183*
X108546Y492963D03*
D68*
X86810Y493377D03*
D90*
X96125Y493377D03*
D29*
X108546Y493377D03*
D37*
X87224Y493791D03*
D48*
X96125Y493791D03*
D34*
X108546Y493791D03*
D37*
X87638Y494205D03*
D48*
X96125Y494205D03*
D26*
X108546Y494205D03*
D38*
X87845Y494619D03*
D90*
X96125Y494619D03*
D73*
X108546Y494619D03*
D33*
X88259Y495033D03*
D44*
X96332Y495033D03*
D24*
X108753Y495033D03*
D25*
X88673Y495447D03*
D44*
X96332Y495447D03*
D102*
X108753Y495447D03*
D38*
X89087Y495861D03*
D46*
X96332Y495861D03*
D32*
X106683Y495861D03*
X110823Y495861D03*
D36*
X89708Y496275D03*
D44*
X96332Y496275D03*
X106269Y496275D03*
D37*
X111237Y496275D03*
D28*
X90329Y496689D03*
D86*
X96125Y496689D03*
D42*
X105855Y496689D03*
D32*
X111651Y496689D03*
D94*
X93020Y497103D03*
D41*
X105855Y497103D03*
D27*
X111858Y497103D03*
D94*
X93020Y497517D03*
D41*
X105855Y497517D03*
D27*
X112272Y497517D03*
D184*
X93227Y497931D03*
D42*
X105855Y497931D03*
D29*
X112272Y497931D03*
D49*
X93641Y498345D03*
D41*
X105855Y498345D03*
D27*
X112686Y498345D03*
D78*
X94055Y498759D03*
D41*
X105855Y498759D03*
X112893Y498759D03*
D31*
X94262Y499174D03*
D42*
X105855Y499174D03*
D29*
X113100Y499174D03*
D77*
X94469Y499588D03*
D41*
X105855Y499588D03*
D44*
X113307Y499588D03*
D27*
X106062Y500002D03*
X113514Y500002D03*
D29*
X106062Y500416D03*
D42*
X113721Y500416D03*
D27*
X106062Y500830D03*
D41*
X113721Y500830D03*
D27*
X106062Y501244D03*
D41*
X114135Y501244D03*
D86*
X106476Y501658D03*
D42*
X114135Y501658D03*
D39*
X106476Y502072D03*
D44*
X114549Y502072D03*
D86*
X106476Y502486D03*
D46*
X114549Y502486D03*
D39*
X106476Y502900D03*
D48*
X114756Y502900D03*
D39*
X106476Y503314D03*
D41*
X114963Y503314D03*
D29*
X106890Y503728D03*
D42*
X114963Y503728D03*
D27*
X106890Y504142D03*
D48*
X115170Y504142D03*
D27*
X107304Y504556D03*
D44*
X115377Y504556D03*
D29*
X107304Y504970D03*
D90*
X115584Y504970D03*
D27*
X107304Y505384D03*
D44*
X115791Y505384D03*
X107511Y505798D03*
X115791Y505798D03*
D42*
X107925Y506212D03*
D90*
X115998Y506212D03*
D41*
X107925Y506626D03*
D48*
X115998Y506626D03*
D42*
X107925Y507040D03*
X116205Y507040D03*
D41*
X108339Y507454D03*
D48*
X116412Y507454D03*
D41*
X108339Y507868D03*
D48*
X116412Y507868D03*
D29*
X108546Y508282D03*
D90*
X116412Y508282D03*
D27*
X108960Y508696D03*
D48*
X116826Y508696D03*
D27*
X109374Y509110D03*
D48*
X116826Y509110D03*
D29*
X109374Y509524D03*
D90*
X116826Y509524D03*
D27*
X109788Y509938D03*
D48*
X116826Y509938D03*
D27*
X110202Y510352D03*
D48*
X116826Y510352D03*
D29*
X110616Y510766D03*
D90*
X116826Y510766D03*
D39*
X111030Y511180D03*
D48*
X116826Y511180D03*
D27*
X111444Y511594D03*
D48*
X116826Y511594D03*
D68*
X112065Y512008D03*
D32*
X116205Y512008D03*
D24*
X114135Y512422D03*
D73*
X114342Y512836D03*
D26*
X114342Y513250D03*
D34*
X114342Y513664D03*
D38*
X114342Y514078D03*
D44*
X114549Y514492D03*
D38*
X103991Y517390D03*
D34*
X103991Y517804D03*
X103991Y518218D03*
D43*
X103991Y518632D03*
D85*
X104198Y519046D03*
D78*
X104405Y519460D03*
D101*
X102128Y519875D03*
D46*
X106269Y519875D03*
D48*
X101921Y520289D03*
D44*
X106683Y520289D03*
D100*
X101714Y520703D03*
D27*
X106890Y520703D03*
D101*
X101714Y521117D03*
D42*
X107097Y521117D03*
D48*
X101507Y521531D03*
X107304Y521531D03*
X101507Y521945D03*
D44*
X107511Y521945D03*
D90*
X101507Y522359D03*
X107718Y522359D03*
D48*
X101507Y522773D03*
X107718Y522773D03*
D90*
X101507Y523187D03*
D122*
X108132Y523187D03*
D48*
X101507Y523601D03*
D119*
X108132Y523601D03*
D48*
X101921Y524015D03*
D41*
X108339Y524015D03*
D90*
X101921Y524429D03*
D42*
X108339Y524429D03*
D48*
X101921Y524843D03*
X108546Y524843D03*
X101921Y525257D03*
D44*
X108753Y525257D03*
D90*
X101921Y525671D03*
D46*
X108753Y525671D03*
D119*
X102335Y526085D03*
D41*
X109167Y526085D03*
D119*
X102335Y526499D03*
D41*
X109167Y526499D03*
D122*
X102335Y526913D03*
X109374Y526913D03*
D119*
X102335Y527327D03*
X109374Y527327D03*
D42*
X102542Y527741D03*
D90*
X109788Y527741D03*
D48*
X102749Y528155D03*
X109788Y528155D03*
X102749Y528569D03*
X109788Y528569D03*
D46*
X102956Y528983D03*
X109995Y528983D03*
D48*
X103163Y529397D03*
X110202Y529397D03*
D41*
X103370Y529811D03*
D48*
X110202Y529811D03*
D42*
X103370Y530225D03*
D90*
X110202Y530225D03*
D41*
X103784Y530639D03*
D48*
X110616Y530639D03*
D41*
X103784Y531053D03*
D48*
X110616Y531053D03*
D42*
X103784Y531467D03*
D90*
X110616Y531467D03*
D44*
X104198Y531881D03*
D48*
X110616Y531881D03*
D149*
X120552Y531881D03*
D48*
X104405Y532295D03*
D44*
X110823Y532295D03*
D27*
X120552Y532295D03*
D42*
X104612Y532709D03*
D90*
X111030Y532709D03*
D32*
X120759Y532709D03*
D48*
X104819Y533123D03*
X111030Y533123D03*
D36*
X120759Y533123D03*
D86*
X105233Y533537D03*
D90*
X111030Y533537D03*
D23*
X120759Y533537D03*
D27*
X105647Y533951D03*
D48*
X111030Y533951D03*
D21*
X120759Y533951D03*
D37*
X105855Y534365D03*
D48*
X111030Y534365D03*
D26*
X120966Y534365D03*
D38*
X106476Y534779D03*
D90*
X111030Y534779D03*
D43*
X120966Y534779D03*
D49*
X108546Y535193D03*
D78*
X120966Y535193D03*
D49*
X108546Y535607D03*
D24*
X121173Y535607D03*
D19*
X108753Y536021D03*
D29*
X118896Y536021D03*
D32*
X122829Y536021D03*
D78*
X108960Y536435D03*
D41*
X118689Y536435D03*
D37*
X123243Y536435D03*
D78*
X108960Y536849D03*
D119*
X118482Y536849D03*
D27*
X123450Y536849D03*
D98*
X109167Y537263D03*
D101*
X118275Y537263D03*
D46*
X123657Y537263D03*
D26*
X109374Y537677D03*
D100*
X118275Y537677D03*
D27*
X123864Y537677D03*
D31*
X109581Y538091D03*
D101*
X118275Y538091D03*
D42*
X124071Y538091D03*
D34*
X109788Y538505D03*
D100*
X118275Y538505D03*
D27*
X124278Y538505D03*
D36*
X109995Y538919D03*
D100*
X118275Y538919D03*
D41*
X124485Y538919D03*
D38*
X110202Y539333D03*
D101*
X118275Y539333D03*
D42*
X124485Y539333D03*
D37*
X110409Y539747D03*
D100*
X118275Y539747D03*
D44*
X124899Y539747D03*
X110823Y540161D03*
D100*
X118275Y540161D03*
D44*
X124899Y540161D03*
D122*
X118482Y540576D03*
D90*
X125106Y540576D03*
D119*
X118482Y540990D03*
D41*
X125313Y540990D03*
D119*
X118482Y541404D03*
D48*
X125520Y541404D03*
D122*
X118482Y541818D03*
D90*
X125520Y541818D03*
D119*
X118482Y542232D03*
D44*
X125727Y542232D03*
D119*
X118482Y542646D03*
D48*
X125934Y542646D03*
D42*
X118689Y543060D03*
D90*
X125934Y543060D03*
D41*
X118689Y543474D03*
D44*
X126141Y543474D03*
D42*
X118689Y543888D03*
D90*
X126349Y543888D03*
D48*
X118896Y544302D03*
X126349Y544302D03*
D44*
X119103Y544716D03*
D48*
X126349Y544716D03*
D46*
X119103Y545130D03*
D42*
X126556Y545130D03*
D41*
X119517Y545544D03*
X126556Y545544D03*
X119517Y545958D03*
D48*
X126763Y545958D03*
D122*
X119724Y546372D03*
D90*
X126763Y546372D03*
D41*
X119931Y546786D03*
D48*
X126763Y546786D03*
X120138Y547200D03*
D44*
X126970Y547200D03*
D46*
X120345Y547614D03*
X126970Y547614D03*
D41*
X120759Y548028D03*
D44*
X126970Y548028D03*
D42*
X120759Y548442D03*
D90*
X127177Y548442D03*
D44*
X121173Y548856D03*
D48*
X127177Y548856D03*
X121380Y549270D03*
X127177Y549270D03*
D46*
X121587Y549684D03*
D90*
X127177Y549684D03*
D41*
X122001Y550098D03*
D44*
X127384Y550098D03*
X122415Y550512D03*
X127384Y550512D03*
D29*
X122622Y550926D03*
D86*
X127177Y550926D03*
D49*
X125106Y551340D03*
D78*
X125106Y551754D03*
D98*
X125313Y552168D03*
D21*
X125313Y552582D03*
X125313Y552996D03*
D76*
X125520Y553410D03*
D27*
X125520Y553824D03*
D90*
X125520Y554238D03*
D118*
X111651Y554652D03*
D82*
X115377Y554652D03*
D180*
X111444Y555066D03*
D27*
X114342Y555066D03*
D31*
X113721Y555480D03*
D21*
X113721Y555894D03*
D26*
X113514Y556308D03*
D98*
X113721Y556722D03*
D24*
X113721Y557136D03*
D41*
X111651Y557550D03*
D27*
X115998Y557550D03*
D90*
X111444Y557964D03*
D42*
X116205Y557964D03*
D48*
X111030Y558378D03*
D44*
X116619Y558378D03*
D90*
X111030Y558792D03*
D46*
X116619Y558792D03*
D48*
X110616Y559206D03*
D44*
X116619Y559206D03*
D48*
X110616Y559620D03*
X116826Y559620D03*
D90*
X110616Y560034D03*
X116826Y560034D03*
D175*
X110409Y560448D03*
D48*
X116826Y560448D03*
X110202Y560862D03*
D100*
X117033Y560862D03*
D90*
X110202Y561277D03*
D101*
X117033Y561277D03*
D48*
X110202Y561691D03*
X117240Y561691D03*
X110202Y562105D03*
X117240Y562105D03*
D101*
X109995Y562519D03*
D90*
X117240Y562519D03*
D100*
X109995Y562933D03*
D48*
X117240Y562933D03*
D100*
X109995Y563347D03*
D48*
X117240Y563347D03*
D101*
X109995Y563761D03*
D90*
X117240Y563761D03*
D100*
X109995Y564175D03*
D48*
X117240Y564175D03*
D101*
X109995Y564589D03*
D90*
X117240Y564589D03*
D100*
X109995Y565003D03*
D48*
X117240Y565003D03*
D100*
X109995Y565417D03*
D48*
X117240Y565417D03*
D101*
X109995Y565831D03*
D90*
X117240Y565831D03*
D48*
X110202Y566245D03*
X117240Y566245D03*
X110202Y566659D03*
D44*
X117033Y566659D03*
D90*
X110202Y567073D03*
D46*
X117033Y567073D03*
D48*
X110202Y567487D03*
D44*
X117033Y567487D03*
D48*
X110202Y567901D03*
D44*
X117033Y567901D03*
D90*
X110202Y568315D03*
D46*
X117033Y568315D03*
D48*
X110202Y568729D03*
D44*
X117033Y568729D03*
D42*
X110409Y569143D03*
D46*
X117033Y569143D03*
D41*
X110409Y569557D03*
D44*
X117033Y569557D03*
D183*
X127177Y569557D03*
D48*
X110616Y569971D03*
D39*
X116826Y569971D03*
D44*
X126970Y569971D03*
D46*
X110823Y570385D03*
X116619Y570385D03*
D32*
X126970Y570385D03*
D44*
X111237Y570799D03*
D27*
X116412Y570799D03*
D37*
X126970Y570799D03*
D27*
X111444Y571213D03*
D37*
X116205Y571213D03*
D25*
X126763Y571213D03*
D96*
X113928Y571627D03*
D28*
X126763Y571627D03*
D24*
X113721Y572041D03*
D21*
X126556Y572041D03*
D45*
X113928Y572455D03*
D21*
X126556Y572455D03*
D43*
X113928Y572869D03*
D98*
X126556Y572869D03*
D26*
X113928Y573283D03*
D44*
X124899Y573283D03*
X128212Y573283D03*
D77*
X113928Y573697D03*
D41*
X124485Y573697D03*
D48*
X128419Y573697D03*
D76*
X113928Y574111D03*
D122*
X124278Y574111D03*
X128833Y574111D03*
D37*
X114135Y574525D03*
D48*
X123864Y574525D03*
D119*
X128833Y574525D03*
D90*
X123864Y574939D03*
D122*
X128833Y574939D03*
D48*
X123450Y575353D03*
D41*
X129040Y575353D03*
D48*
X123450Y575767D03*
D41*
X129040Y575767D03*
D42*
X123243Y576181D03*
D90*
X129247Y576181D03*
D119*
X123036Y576595D03*
D48*
X129247Y576595D03*
D119*
X123036Y577009D03*
D48*
X129247Y577009D03*
D42*
X122829Y577423D03*
D46*
X129454Y577423D03*
D41*
X122829Y577837D03*
D44*
X129454Y577837D03*
D48*
X122622Y578251D03*
D44*
X129454Y578251D03*
D90*
X122622Y578665D03*
D46*
X129454Y578665D03*
D48*
X122622Y579079D03*
D44*
X129454Y579079D03*
D90*
X122622Y579493D03*
D46*
X129454Y579493D03*
D48*
X122622Y579907D03*
D44*
X129454Y579907D03*
D48*
X122622Y580321D03*
D44*
X129454Y580321D03*
D90*
X122622Y580735D03*
D46*
X129454Y580735D03*
D48*
X122622Y581149D03*
D44*
X129454Y581149D03*
D48*
X122622Y581563D03*
D44*
X129454Y581563D03*
D90*
X122622Y581978D03*
D46*
X129454Y581978D03*
D48*
X122622Y582392D03*
D44*
X129454Y582392D03*
D48*
X122622Y582806D03*
D44*
X129454Y582806D03*
D32*
X112893Y583220D03*
D90*
X122622Y583220D03*
D29*
X129247Y583220D03*
D25*
X112686Y583634D03*
D48*
X122622Y583634D03*
D27*
X129247Y583634D03*
D36*
X112479Y584048D03*
D48*
X122622Y584048D03*
D27*
X129247Y584048D03*
D28*
X112272Y584462D03*
D90*
X122622Y584462D03*
D29*
X128833Y584462D03*
D30*
X112065Y584876D03*
D41*
X122829Y584876D03*
D27*
X128833Y584876D03*
D73*
X111858Y585290D03*
D122*
X123036Y585290D03*
D32*
X128626Y585290D03*
D78*
X111858Y585704D03*
D119*
X123036Y585704D03*
D27*
X128419Y585704D03*
D142*
X111651Y586118D03*
D119*
X123036Y586118D03*
D35*
X128212Y586118D03*
D42*
X109167Y586532D03*
D29*
X113514Y586532D03*
D42*
X123243Y586532D03*
D32*
X127798Y586532D03*
D44*
X108753Y586946D03*
D119*
X113928Y586946D03*
D44*
X123657Y586946D03*
D25*
X127591Y586946D03*
D41*
X108339Y587360D03*
D119*
X113928Y587360D03*
D49*
X125934Y587360D03*
D29*
X108132Y587774D03*
D122*
X113928Y587774D03*
D19*
X126141Y587774D03*
D41*
X107925Y588188D03*
D119*
X113928Y588188D03*
D78*
X125934Y588188D03*
D27*
X107718Y588602D03*
D119*
X113928Y588602D03*
D26*
X125934Y588602D03*
D29*
X107718Y589016D03*
D122*
X113928Y589016D03*
D31*
X125727Y589016D03*
D35*
X107511Y589430D03*
D119*
X113928Y589430D03*
D36*
X125727Y589430D03*
D29*
X107304Y589844D03*
D122*
X113928Y589844D03*
D32*
X125727Y589844D03*
D27*
X107304Y590258D03*
D100*
X113721Y590258D03*
D44*
X125727Y590258D03*
D37*
X107097Y590672D03*
D48*
X113514Y590672D03*
D149*
X125520Y590672D03*
D32*
X107097Y591086D03*
D90*
X113514Y591086D03*
D37*
X107097Y591500D03*
D48*
X113514Y591500D03*
D37*
X107097Y591914D03*
D100*
X113307Y591914D03*
D32*
X107097Y592328D03*
D101*
X113307Y592328D03*
D27*
X106890Y592742D03*
D100*
X112893Y592742D03*
D41*
X107097Y593156D03*
D119*
X112686Y593156D03*
D42*
X107097Y593570D03*
X112479Y593570D03*
D41*
X107097Y593984D03*
D48*
X112272Y593984D03*
D41*
X107097Y594398D03*
D48*
X111858Y594398D03*
D46*
X107511Y594812D03*
D42*
X111651Y594812D03*
D27*
X107718Y595226D03*
D44*
X111237Y595226D03*
D98*
X109581Y595640D03*
D26*
X109374Y596054D03*
D21*
X109167Y596468D03*
D23*
X109167Y596882D03*
D36*
X109167Y597296D03*
D147*
X117861Y598952D03*
D46*
X117861Y599366D03*
D33*
X117654Y599780D03*
D23*
X117447Y600194D03*
D77*
X117240Y600608D03*
D21*
X117033Y601022D03*
D185*
X105026Y601436D03*
D98*
X117033Y601436D03*
D77*
X104819Y601850D03*
D27*
X115170Y601850D03*
D41*
X118689Y601850D03*
D85*
X104198Y602264D03*
D44*
X114549Y602264D03*
D41*
X118689Y602264D03*
D50*
X104198Y602679D03*
D42*
X114135Y602679D03*
D122*
X118482Y602679D03*
D79*
X103784Y603093D03*
D41*
X113721Y603093D03*
D119*
X118482Y603093D03*
D130*
X103577Y603507D03*
D44*
X113307Y603507D03*
D119*
X118482Y603507D03*
D53*
X103163Y603921D03*
D42*
X112893Y603921D03*
D122*
X118482Y603921D03*
D94*
X102956Y604335D03*
D119*
X112686Y604335D03*
X118482Y604335D03*
D33*
X99851Y604749D03*
D25*
X105647Y604749D03*
D48*
X112272Y604749D03*
D119*
X118482Y604749D03*
D29*
X99023Y605163D03*
X106062Y605163D03*
D90*
X112272Y605163D03*
D42*
X118275Y605163D03*
D27*
X98609Y605577D03*
D41*
X105855Y605577D03*
D100*
X112065Y605577D03*
D48*
X118068Y605577D03*
D42*
X97988Y605991D03*
X105855Y605991D03*
D90*
X111858Y605991D03*
X118068Y605991D03*
D119*
X97781Y606405D03*
D48*
X105648Y606405D03*
X111858Y606405D03*
D44*
X117861Y606405D03*
D41*
X97574Y606819D03*
D44*
X105440Y606819D03*
D175*
X111651Y606819D03*
D44*
X117861Y606819D03*
D46*
X97160Y607233D03*
D90*
X105233Y607233D03*
X111444Y607233D03*
D42*
X117447Y607233D03*
D48*
X96953Y607647D03*
D44*
X105026Y607647D03*
D48*
X111444Y607647D03*
D41*
X117447Y607647D03*
X96746Y608061D03*
X104612Y608061D03*
D48*
X111444Y608061D03*
D27*
X117240Y608061D03*
D90*
X96539Y608475D03*
D46*
X104198Y608475D03*
D90*
X111444Y608475D03*
D46*
X117033Y608475D03*
D48*
X96539Y608889D03*
D41*
X103784Y608889D03*
D48*
X111444Y608889D03*
D44*
X117033Y608889D03*
X96332Y609303D03*
D27*
X103577Y609303D03*
D100*
X111237Y609303D03*
D39*
X116826Y609303D03*
D46*
X96332Y609717D03*
D29*
X103163Y609717D03*
D101*
X111237Y609717D03*
D46*
X116619Y609717D03*
D44*
X96332Y610131D03*
D37*
X102542Y610131D03*
D100*
X111237Y610131D03*
D48*
X116412Y610131D03*
D96*
X49755Y610545D03*
D46*
X84739Y610545D03*
D29*
X96539Y610545D03*
D38*
X101921Y610545D03*
D101*
X111237Y610545D03*
D42*
X116205Y610545D03*
D52*
X50376Y610959D03*
D34*
X84532Y610959D03*
D52*
X99230Y610959D03*
D100*
X111237Y610959D03*
D27*
X115998Y610959D03*
D79*
X50790Y611373D03*
D99*
X84325Y611373D03*
D20*
X98816Y611373D03*
D48*
X111444Y611373D03*
D39*
X115584Y611373D03*
D137*
X51204Y611787D03*
D63*
X84325Y611787D03*
D19*
X98816Y611787D03*
D90*
X111444Y611787D03*
D29*
X115170Y611787D03*
D79*
X51618Y612201D03*
D94*
X84739Y612201D03*
D26*
X98609Y612201D03*
D85*
X113307Y612201D03*
D147*
X49962Y612615D03*
D34*
X53895Y612615D03*
D136*
X84532Y612615D03*
D34*
X98195Y612615D03*
D26*
X113100Y612615D03*
D32*
X54930Y613029D03*
X80599Y613029D03*
D43*
X87431Y613029D03*
D76*
X97781Y613029D03*
D75*
X113307Y613029D03*
D27*
X55551Y613443D03*
D37*
X80185Y613443D03*
D21*
X88466Y613443D03*
D37*
X97574Y613443D03*
D34*
X113100Y613443D03*
D27*
X55965Y613857D03*
X79564Y613857D03*
D36*
X88880Y613857D03*
D48*
X97367Y613857D03*
D33*
X113100Y613857D03*
D29*
X56379Y614271D03*
D42*
X79357Y614271D03*
D38*
X89087Y614271D03*
D101*
X112893Y614271D03*
D27*
X56793Y614685D03*
D44*
X78943Y614685D03*
D27*
X89501Y614685D03*
D35*
X57000Y615099D03*
D27*
X78736Y615099D03*
X89501Y615099D03*
D38*
X57207Y615513D03*
D29*
X78736Y615513D03*
D42*
X89708Y615513D03*
D34*
X57207Y615927D03*
D37*
X78529Y615927D03*
D41*
X89708Y615927D03*
D28*
X57207Y616341D03*
D32*
X78529Y616341D03*
D42*
X89708Y616341D03*
D36*
X78943Y616755D03*
D27*
X89501Y616755D03*
D85*
X80185Y617169D03*
D27*
X89087Y617169D03*
D21*
X98816Y617169D03*
D137*
X81427Y617583D03*
D29*
X88673Y617583D03*
D97*
X99023Y617583D03*
D124*
X83704Y617997D03*
D95*
X99023Y617997D03*
D111*
X83704Y618411D03*
D20*
X98816Y618411D03*
D11*
X83704Y618825D03*
D107*
X98816Y618825D03*
D55*
X83497Y619239D03*
D62*
X98816Y619239D03*
D20*
X84739Y619653D03*
D54*
X98402Y619653D03*
D23*
X74389Y620067D03*
D28*
X84532Y620067D03*
D73*
X96125Y620067D03*
D42*
X102128Y620067D03*
D111*
X70456Y620481D03*
D78*
X95711Y620481D03*
D119*
X102335Y620481D03*
D121*
X70456Y620895D03*
D43*
X94883Y620895D03*
D101*
X102542Y620895D03*
D83*
X70456Y621309D03*
D77*
X94469Y621309D03*
D119*
X102335Y621309D03*
D89*
X70456Y621723D03*
D27*
X93227Y621723D03*
D119*
X102335Y621723D03*
D123*
X70249Y622137D03*
D90*
X92813Y622137D03*
D29*
X101921Y622137D03*
D77*
X65488Y622551D03*
D37*
X76045Y622551D03*
D48*
X92813Y622551D03*
D35*
X101714Y622551D03*
D27*
X64245Y622965D03*
D44*
X76459Y622965D03*
X92606Y622965D03*
D33*
X101507Y622965D03*
D46*
X63624Y623380D03*
D90*
X76666Y623380D03*
D46*
X92606Y623380D03*
D40*
X101093Y623380D03*
D44*
X63624Y623794D03*
D48*
X76666Y623794D03*
D44*
X92606Y623794D03*
D34*
X100679Y623794D03*
D44*
X64038Y624208D03*
D48*
X76666Y624208D03*
D27*
X92813Y624208D03*
D21*
X100058Y624208D03*
D29*
X64245Y624622D03*
D46*
X76459Y624622D03*
D80*
X96539Y624622D03*
D77*
X65488Y625036D03*
D85*
X74389Y625036D03*
D145*
X96125Y625036D03*
D89*
X70456Y625450D03*
D20*
X95918Y625450D03*
D165*
X70456Y625864D03*
D73*
X95711Y625864D03*
D120*
X70663Y626278D03*
D99*
X95504Y626278D03*
D161*
X70663Y626692D03*
D28*
X95297Y626692D03*
D104*
X70456Y627106D03*
D39*
X94883Y627106D03*
D51*
X70042Y627520D03*
D172*
X69835Y627934D03*
M02*
