G04 EAGLE Gerber X2 export*
G75*
%MOMM*%
%FSLAX34Y34*%
%LPD*%
%AMOC8*
5,1,8,0,0,1.08239X$1,22.5*%
G01*
%ADD10C,0.254000*%


D10*
X0Y32248D02*
X123Y29438D01*
X490Y26649D01*
X1099Y23902D01*
X1945Y21219D01*
X3021Y18620D01*
X4320Y16124D01*
X5832Y13752D01*
X7545Y11520D01*
X9445Y9445D01*
X11520Y7545D01*
X13752Y5832D01*
X16124Y4320D01*
X18620Y3021D01*
X21219Y1945D01*
X23902Y1099D01*
X26649Y490D01*
X29438Y123D01*
X32248Y0D01*
X43174Y0D01*
X54465Y493D01*
X65670Y1968D01*
X76704Y4414D01*
X87483Y7813D01*
X97925Y12138D01*
X107950Y17357D01*
X117482Y23429D01*
X126449Y30310D01*
X134781Y37945D01*
X142417Y46278D01*
X149297Y55244D01*
X155370Y64776D01*
X160588Y74801D01*
X164913Y85243D01*
X168312Y96022D01*
X170758Y107056D01*
X172233Y118261D01*
X172720Y128270D01*
X196850Y198120D01*
X220203Y228408D01*
X246107Y256546D01*
X274365Y282319D01*
X304762Y305531D01*
X337066Y326005D01*
X371031Y343586D01*
X406400Y358140D01*
X408940Y345440D01*
X439420Y350520D01*
X502920Y331470D01*
X570740Y430530D01*
X554230Y507900D01*
X459740Y563780D01*
X408940Y525780D01*
X374650Y520700D01*
X375920Y504190D01*
X331637Y490145D01*
X288746Y472295D01*
X247574Y450774D01*
X208434Y425746D01*
X171625Y397403D01*
X137426Y365959D01*
X106098Y331654D01*
X77879Y294749D01*
X52983Y255526D01*
X31601Y214281D01*
X13895Y171331D01*
X0Y127000D01*
X0Y32248D01*
M02*
