G04 EAGLE Gerber X2 export*
G75*
%MOMM*%
%FSLAX34Y34*%
%LPD*%
%AMOC8*
5,1,8,0,0,1.08239X$1,22.5*%
G01*
%ADD10C,1.879600*%

G36*
X43185Y2543D02*
X43185Y2543D01*
X43203Y2541D01*
X50830Y2839D01*
X50835Y2840D01*
X50839Y2840D01*
X50955Y2865D01*
X51071Y2888D01*
X51075Y2891D01*
X51080Y2892D01*
X51182Y2953D01*
X51283Y3012D01*
X51287Y3015D01*
X51291Y3018D01*
X51368Y3108D01*
X51446Y3197D01*
X51448Y3201D01*
X51451Y3205D01*
X51495Y3315D01*
X51541Y3423D01*
X51541Y3428D01*
X51543Y3433D01*
X51561Y3600D01*
X51561Y75885D01*
X102138Y126462D01*
X102179Y126518D01*
X102227Y126568D01*
X102263Y126635D01*
X102282Y126661D01*
X102288Y126682D01*
X102306Y126716D01*
X114364Y156701D01*
X128616Y185675D01*
X144994Y213503D01*
X163405Y240030D01*
X183748Y265106D01*
X205907Y288592D01*
X229760Y310357D01*
X255172Y330278D01*
X282002Y348244D01*
X310099Y364156D01*
X339307Y377922D01*
X369463Y389468D01*
X400396Y398728D01*
X431963Y405656D01*
X431989Y405667D01*
X432041Y405678D01*
X508241Y431078D01*
X508259Y431088D01*
X508280Y431092D01*
X508368Y431145D01*
X508458Y431192D01*
X508473Y431207D01*
X508491Y431218D01*
X508558Y431296D01*
X508628Y431370D01*
X508637Y431389D01*
X508651Y431405D01*
X508689Y431500D01*
X508733Y431593D01*
X508735Y431614D01*
X508743Y431633D01*
X508761Y431800D01*
X508761Y481839D01*
X556252Y481839D01*
X556351Y481855D01*
X556450Y481865D01*
X556472Y481875D01*
X556495Y481879D01*
X556583Y481925D01*
X556674Y481966D01*
X556691Y481982D01*
X556713Y481994D01*
X556781Y482066D01*
X556854Y482134D01*
X556865Y482155D01*
X556882Y482172D01*
X556924Y482262D01*
X556971Y482350D01*
X556975Y482373D01*
X556986Y482395D01*
X556997Y482494D01*
X557014Y482592D01*
X557011Y482622D01*
X557013Y482639D01*
X557006Y482672D01*
X556997Y482759D01*
X552047Y505954D01*
X552009Y506053D01*
X551974Y506154D01*
X551964Y506167D01*
X551958Y506183D01*
X551890Y506265D01*
X551825Y506349D01*
X551808Y506362D01*
X551800Y506371D01*
X551774Y506387D01*
X551690Y506450D01*
X460342Y560472D01*
X460234Y560514D01*
X460126Y560559D01*
X460119Y560559D01*
X460113Y560562D01*
X459998Y560567D01*
X459881Y560575D01*
X459874Y560573D01*
X459867Y560573D01*
X459756Y560541D01*
X459643Y560512D01*
X459636Y560507D01*
X459631Y560506D01*
X459614Y560494D01*
X459499Y560427D01*
X410848Y524035D01*
X410830Y524015D01*
X410807Y524001D01*
X410693Y523879D01*
X410353Y523421D01*
X410138Y523389D01*
X410039Y523357D01*
X409938Y523331D01*
X409918Y523319D01*
X409904Y523314D01*
X409878Y523295D01*
X409793Y523246D01*
X409619Y523115D01*
X409055Y523196D01*
X409029Y523196D01*
X409003Y523202D01*
X408835Y523196D01*
X378067Y518638D01*
X377956Y518602D01*
X377845Y518569D01*
X377839Y518565D01*
X377832Y518563D01*
X377739Y518494D01*
X377644Y518427D01*
X377640Y518421D01*
X377634Y518417D01*
X377567Y518322D01*
X377499Y518228D01*
X377497Y518222D01*
X377493Y518216D01*
X377460Y518104D01*
X377425Y517994D01*
X377425Y517985D01*
X377423Y517980D01*
X377424Y517960D01*
X377419Y517826D01*
X378430Y504693D01*
X378436Y504666D01*
X378454Y504553D01*
X378647Y503836D01*
X378631Y503807D01*
X378623Y503788D01*
X378611Y503771D01*
X378585Y503688D01*
X378566Y503648D01*
X378565Y503632D01*
X378544Y503577D01*
X378543Y503556D01*
X378537Y503536D01*
X378531Y503369D01*
X378534Y503336D01*
X378050Y502771D01*
X378036Y502747D01*
X377968Y502655D01*
X377598Y502011D01*
X377566Y502002D01*
X377547Y501994D01*
X377527Y501991D01*
X377435Y501943D01*
X377342Y501901D01*
X377327Y501887D01*
X377308Y501877D01*
X377186Y501763D01*
X377164Y501737D01*
X376453Y501683D01*
X376437Y501679D01*
X376299Y501655D01*
X356104Y495768D01*
X356089Y495761D01*
X356061Y495754D01*
X315938Y481379D01*
X315919Y481368D01*
X315882Y481356D01*
X277046Y463799D01*
X277028Y463786D01*
X276991Y463771D01*
X239695Y443146D01*
X239677Y443132D01*
X239642Y443114D01*
X204126Y419555D01*
X204110Y419539D01*
X204077Y419519D01*
X170571Y393178D01*
X170556Y393161D01*
X170525Y393138D01*
X139248Y364186D01*
X139234Y364169D01*
X139205Y364143D01*
X110359Y332769D01*
X110346Y332750D01*
X110319Y332722D01*
X84091Y299128D01*
X84081Y299109D01*
X84067Y299095D01*
X84065Y299090D01*
X84055Y299078D01*
X60616Y263483D01*
X60607Y263462D01*
X60584Y263430D01*
X40085Y226064D01*
X40078Y226043D01*
X40058Y226009D01*
X22632Y187115D01*
X22626Y187093D01*
X22609Y187058D01*
X8369Y146888D01*
X8366Y146871D01*
X8355Y146844D01*
X2570Y126747D01*
X2568Y126725D01*
X2559Y126703D01*
X2541Y126537D01*
X2541Y32248D01*
X2544Y32227D01*
X2543Y32189D01*
X2899Y27661D01*
X2901Y27655D01*
X2900Y27649D01*
X2934Y27485D01*
X5733Y18872D01*
X5749Y18840D01*
X5758Y18805D01*
X5841Y18660D01*
X11164Y11333D01*
X11190Y11308D01*
X11209Y11277D01*
X11333Y11164D01*
X18660Y5841D01*
X18691Y5825D01*
X18719Y5802D01*
X18872Y5733D01*
X27485Y2934D01*
X27491Y2933D01*
X27496Y2931D01*
X27660Y2899D01*
X32189Y2543D01*
X32211Y2545D01*
X32248Y2541D01*
X43174Y2541D01*
X43185Y2543D01*
G37*
G36*
X57216Y3582D02*
X57216Y3582D01*
X57268Y3585D01*
X72582Y5995D01*
X72614Y6005D01*
X72698Y6022D01*
X91433Y12069D01*
X91462Y12084D01*
X91542Y12114D01*
X109110Y20999D01*
X109136Y21019D01*
X109211Y21061D01*
X125183Y32569D01*
X125207Y32592D01*
X125274Y32646D01*
X139263Y46497D01*
X139283Y46524D01*
X139341Y46587D01*
X151007Y62444D01*
X151022Y62474D01*
X151069Y62545D01*
X160128Y80024D01*
X160138Y80055D01*
X160174Y80133D01*
X166406Y98807D01*
X166411Y98840D01*
X166434Y98922D01*
X169687Y118338D01*
X169687Y118368D01*
X169697Y118427D01*
X170143Y127544D01*
X170131Y127651D01*
X170124Y127757D01*
X170117Y127776D01*
X170115Y127789D01*
X170102Y127817D01*
X170067Y127915D01*
X169975Y128105D01*
X170143Y128592D01*
X170150Y128630D01*
X170165Y128666D01*
X170185Y128833D01*
X170190Y129348D01*
X170386Y129540D01*
X170440Y129614D01*
X170501Y129683D01*
X170518Y129720D01*
X170531Y129738D01*
X170541Y129769D01*
X170573Y129835D01*
X194170Y198145D01*
X194189Y198250D01*
X194211Y198356D01*
X194210Y198375D01*
X194212Y198387D01*
X194208Y198417D01*
X194201Y198524D01*
X194167Y198721D01*
X194504Y199201D01*
X194514Y199222D01*
X194529Y199239D01*
X194601Y199390D01*
X194792Y199944D01*
X194973Y200032D01*
X195061Y200094D01*
X195151Y200153D01*
X195164Y200167D01*
X195174Y200174D01*
X195191Y200198D01*
X195262Y200279D01*
X205852Y215327D01*
X230670Y244765D01*
X257960Y271928D01*
X287513Y296609D01*
X319105Y318621D01*
X352496Y337796D01*
X387430Y353987D01*
X404514Y360160D01*
X404545Y360177D01*
X404578Y360187D01*
X404651Y360237D01*
X404729Y360280D01*
X404752Y360306D01*
X404781Y360325D01*
X404864Y360424D01*
X405660Y360583D01*
X405690Y360595D01*
X405769Y360613D01*
X406533Y360890D01*
X406559Y360875D01*
X406646Y360859D01*
X406732Y360835D01*
X406766Y360836D01*
X406801Y360830D01*
X406929Y360841D01*
X407604Y360391D01*
X407634Y360377D01*
X407703Y360335D01*
X408439Y359990D01*
X408446Y359962D01*
X408497Y359889D01*
X408540Y359811D01*
X408566Y359788D01*
X408585Y359759D01*
X408684Y359676D01*
X408843Y358880D01*
X408855Y358849D01*
X408874Y358771D01*
X409150Y358007D01*
X409135Y357981D01*
X409119Y357894D01*
X409095Y357808D01*
X409096Y357774D01*
X409090Y357739D01*
X409105Y357572D01*
X410804Y349073D01*
X410807Y349066D01*
X410807Y349059D01*
X410850Y348952D01*
X410891Y348843D01*
X410896Y348837D01*
X410899Y348830D01*
X410973Y348742D01*
X411046Y348653D01*
X411053Y348649D01*
X411058Y348643D01*
X411157Y348583D01*
X411255Y348521D01*
X411262Y348520D01*
X411268Y348516D01*
X411381Y348491D01*
X411494Y348464D01*
X411501Y348464D01*
X411509Y348463D01*
X411676Y348472D01*
X438462Y352936D01*
X438501Y352949D01*
X438542Y352954D01*
X438689Y353013D01*
X438695Y353015D01*
X438696Y353016D01*
X438698Y353017D01*
X439142Y353256D01*
X439415Y353174D01*
X439504Y353162D01*
X439592Y353143D01*
X439635Y353146D01*
X439659Y353142D01*
X439690Y353149D01*
X439759Y353152D01*
X440040Y353199D01*
X440451Y352906D01*
X440488Y352888D01*
X440520Y352862D01*
X440666Y352800D01*
X440672Y352797D01*
X440673Y352797D01*
X440675Y352796D01*
X501339Y334597D01*
X501365Y334593D01*
X501389Y334584D01*
X501487Y334578D01*
X501583Y334565D01*
X501609Y334570D01*
X501635Y334568D01*
X501729Y334594D01*
X501825Y334613D01*
X501847Y334626D01*
X501872Y334632D01*
X501954Y334687D01*
X502038Y334735D01*
X502055Y334754D01*
X502077Y334769D01*
X502186Y334896D01*
X567843Y430796D01*
X567886Y430888D01*
X567934Y430976D01*
X567938Y430998D01*
X567948Y431019D01*
X567959Y431119D01*
X567976Y431218D01*
X567973Y431246D01*
X567975Y431263D01*
X567969Y431295D01*
X567960Y431385D01*
X559436Y471329D01*
X559413Y471388D01*
X559399Y471450D01*
X559368Y471502D01*
X559346Y471558D01*
X559306Y471607D01*
X559273Y471661D01*
X559227Y471700D01*
X559189Y471747D01*
X559135Y471780D01*
X559086Y471821D01*
X559030Y471843D01*
X558979Y471875D01*
X558917Y471889D01*
X558858Y471913D01*
X558771Y471922D01*
X558739Y471930D01*
X558721Y471928D01*
X558692Y471931D01*
X535135Y471931D01*
X535057Y471918D01*
X534977Y471915D01*
X534936Y471899D01*
X534892Y471892D01*
X534822Y471854D01*
X534748Y471825D01*
X534714Y471797D01*
X534675Y471776D01*
X534620Y471719D01*
X534559Y471668D01*
X534536Y471630D01*
X534506Y471598D01*
X534472Y471526D01*
X534431Y471458D01*
X534422Y471423D01*
X523240Y471423D01*
X523220Y471420D01*
X523201Y471422D01*
X523099Y471400D01*
X522997Y471383D01*
X522980Y471374D01*
X522960Y471370D01*
X522871Y471317D01*
X522780Y471268D01*
X522766Y471254D01*
X522749Y471244D01*
X522682Y471165D01*
X522611Y471090D01*
X522602Y471072D01*
X522589Y471057D01*
X522551Y470961D01*
X522507Y470867D01*
X522505Y470847D01*
X522497Y470829D01*
X522479Y470662D01*
X522479Y469899D01*
X521716Y469899D01*
X521696Y469896D01*
X521677Y469898D01*
X521575Y469876D01*
X521473Y469859D01*
X521456Y469850D01*
X521436Y469846D01*
X521347Y469793D01*
X521256Y469744D01*
X521242Y469730D01*
X521225Y469720D01*
X521158Y469641D01*
X521087Y469566D01*
X521078Y469548D01*
X521065Y469533D01*
X521026Y469437D01*
X520983Y469343D01*
X520981Y469323D01*
X520973Y469305D01*
X520955Y469138D01*
X520955Y458054D01*
X519682Y458255D01*
X517895Y458836D01*
X516221Y459689D01*
X514797Y460723D01*
X514787Y460729D01*
X514778Y460737D01*
X514677Y460784D01*
X514578Y460834D01*
X514566Y460835D01*
X514555Y460840D01*
X514444Y460853D01*
X514334Y460868D01*
X514322Y460866D01*
X514311Y460868D01*
X514202Y460844D01*
X514092Y460824D01*
X514082Y460818D01*
X514070Y460815D01*
X513974Y460758D01*
X513877Y460704D01*
X513869Y460695D01*
X513859Y460689D01*
X513787Y460604D01*
X513712Y460522D01*
X513707Y460511D01*
X513699Y460502D01*
X513657Y460399D01*
X513613Y460297D01*
X513612Y460285D01*
X513607Y460274D01*
X513589Y460107D01*
X513589Y452896D01*
X513600Y452825D01*
X513602Y452753D01*
X513620Y452704D01*
X513629Y452653D01*
X513662Y452590D01*
X513687Y452522D01*
X513719Y452482D01*
X513744Y452436D01*
X513796Y452386D01*
X513840Y452330D01*
X513884Y452302D01*
X513922Y452266D01*
X513987Y452236D01*
X514047Y452197D01*
X514098Y452184D01*
X514145Y452163D01*
X514216Y452155D01*
X514286Y452137D01*
X514338Y452141D01*
X514389Y452135D01*
X514460Y452151D01*
X514531Y452156D01*
X514579Y452177D01*
X514630Y452188D01*
X514691Y452224D01*
X514757Y452253D01*
X514813Y452297D01*
X514841Y452314D01*
X514856Y452332D01*
X514888Y452357D01*
X516291Y453760D01*
X520305Y455423D01*
X524651Y455423D01*
X528665Y453760D01*
X531738Y450687D01*
X533401Y446673D01*
X533401Y442327D01*
X531738Y438313D01*
X528665Y435240D01*
X524651Y433577D01*
X520305Y433577D01*
X516291Y435240D01*
X514888Y436643D01*
X514830Y436684D01*
X514778Y436734D01*
X514731Y436756D01*
X514689Y436786D01*
X514620Y436807D01*
X514555Y436837D01*
X514503Y436843D01*
X514453Y436859D01*
X514382Y436857D01*
X514311Y436865D01*
X514260Y436854D01*
X514208Y436852D01*
X514140Y436828D01*
X514070Y436812D01*
X514026Y436786D01*
X513977Y436768D01*
X513921Y436723D01*
X513859Y436686D01*
X513825Y436647D01*
X513785Y436614D01*
X513746Y436554D01*
X513699Y436499D01*
X513680Y436451D01*
X513652Y436407D01*
X513634Y436338D01*
X513607Y436271D01*
X513599Y436200D01*
X513591Y436169D01*
X513593Y436145D01*
X513589Y436104D01*
X513589Y428512D01*
X441746Y400783D01*
X410185Y394415D01*
X410165Y394407D01*
X410129Y394401D01*
X379070Y385674D01*
X379051Y385665D01*
X379016Y385657D01*
X348695Y374633D01*
X348677Y374623D01*
X348642Y374612D01*
X319231Y361353D01*
X319213Y361341D01*
X319180Y361328D01*
X290841Y345908D01*
X290824Y345895D01*
X290792Y345879D01*
X263685Y328385D01*
X263669Y328370D01*
X263638Y328352D01*
X243685Y313249D01*
X237914Y308881D01*
X237899Y308866D01*
X237870Y308845D01*
X213673Y287506D01*
X213659Y287490D01*
X213631Y287467D01*
X191097Y264379D01*
X191084Y264362D01*
X191058Y264337D01*
X170312Y239630D01*
X170301Y239612D01*
X170277Y239585D01*
X151435Y213396D01*
X151426Y213377D01*
X151403Y213349D01*
X134571Y185826D01*
X134563Y185806D01*
X134543Y185776D01*
X119815Y157072D01*
X119808Y157052D01*
X119791Y157020D01*
X107306Y127433D01*
X56612Y76738D01*
X56559Y76664D01*
X56499Y76595D01*
X56487Y76565D01*
X56468Y76539D01*
X56441Y76452D01*
X56407Y76367D01*
X56403Y76326D01*
X56396Y76303D01*
X56397Y76271D01*
X56389Y76200D01*
X56389Y60593D01*
X56391Y60581D01*
X56389Y60569D01*
X56411Y60460D01*
X56429Y60350D01*
X56434Y60339D01*
X56436Y60328D01*
X56492Y60231D01*
X56544Y60133D01*
X56552Y60124D01*
X56558Y60114D01*
X56641Y60040D01*
X56722Y59963D01*
X56733Y59958D01*
X56742Y59950D01*
X56844Y59906D01*
X56945Y59860D01*
X56957Y59858D01*
X56968Y59854D01*
X57079Y59845D01*
X57189Y59832D01*
X57201Y59835D01*
X57213Y59834D01*
X57321Y59861D01*
X57430Y59885D01*
X57440Y59891D01*
X57452Y59894D01*
X57597Y59977D01*
X59021Y61011D01*
X60695Y61864D01*
X62482Y62445D01*
X63755Y62646D01*
X63755Y51562D01*
X63758Y51542D01*
X63756Y51523D01*
X63778Y51421D01*
X63795Y51319D01*
X63804Y51302D01*
X63808Y51282D01*
X63861Y51193D01*
X63910Y51102D01*
X63924Y51088D01*
X63934Y51071D01*
X64013Y51004D01*
X64088Y50933D01*
X64106Y50924D01*
X64121Y50911D01*
X64217Y50873D01*
X64311Y50829D01*
X64331Y50827D01*
X64349Y50819D01*
X64516Y50801D01*
X65279Y50801D01*
X65279Y50799D01*
X64516Y50799D01*
X64496Y50796D01*
X64477Y50798D01*
X64375Y50776D01*
X64273Y50759D01*
X64256Y50750D01*
X64236Y50746D01*
X64147Y50693D01*
X64056Y50644D01*
X64042Y50630D01*
X64025Y50620D01*
X63958Y50541D01*
X63887Y50466D01*
X63878Y50448D01*
X63865Y50433D01*
X63826Y50337D01*
X63783Y50243D01*
X63781Y50223D01*
X63773Y50205D01*
X63755Y50038D01*
X63755Y38954D01*
X62482Y39155D01*
X60695Y39736D01*
X59021Y40589D01*
X57597Y41623D01*
X57587Y41629D01*
X57578Y41637D01*
X57477Y41684D01*
X57378Y41734D01*
X57366Y41735D01*
X57355Y41740D01*
X57244Y41753D01*
X57134Y41768D01*
X57122Y41766D01*
X57111Y41768D01*
X57002Y41744D01*
X56892Y41724D01*
X56882Y41718D01*
X56870Y41715D01*
X56774Y41658D01*
X56677Y41604D01*
X56669Y41595D01*
X56659Y41589D01*
X56587Y41504D01*
X56512Y41422D01*
X56507Y41411D01*
X56499Y41402D01*
X56457Y41299D01*
X56413Y41197D01*
X56412Y41185D01*
X56407Y41174D01*
X56389Y41007D01*
X56389Y33796D01*
X56400Y33725D01*
X56402Y33653D01*
X56420Y33604D01*
X56429Y33553D01*
X56462Y33490D01*
X56487Y33422D01*
X56519Y33382D01*
X56544Y33336D01*
X56596Y33286D01*
X56640Y33230D01*
X56684Y33202D01*
X56722Y33166D01*
X56787Y33136D01*
X56847Y33097D01*
X56898Y33084D01*
X56945Y33063D01*
X57016Y33055D01*
X57086Y33037D01*
X57138Y33041D01*
X57189Y33035D01*
X57260Y33051D01*
X57331Y33056D01*
X57379Y33077D01*
X57430Y33088D01*
X57491Y33124D01*
X57557Y33153D01*
X57613Y33197D01*
X57641Y33214D01*
X57656Y33232D01*
X57688Y33257D01*
X59091Y34660D01*
X63105Y36323D01*
X67451Y36323D01*
X71465Y34660D01*
X74538Y31587D01*
X76201Y27573D01*
X76201Y23227D01*
X74538Y19213D01*
X71465Y16140D01*
X67451Y14477D01*
X63105Y14477D01*
X59091Y16140D01*
X57688Y17543D01*
X57630Y17584D01*
X57578Y17634D01*
X57531Y17656D01*
X57489Y17686D01*
X57420Y17707D01*
X57355Y17737D01*
X57303Y17743D01*
X57253Y17759D01*
X57182Y17757D01*
X57111Y17765D01*
X57060Y17754D01*
X57008Y17752D01*
X56940Y17728D01*
X56870Y17712D01*
X56826Y17686D01*
X56777Y17668D01*
X56721Y17623D01*
X56659Y17586D01*
X56625Y17547D01*
X56585Y17514D01*
X56546Y17454D01*
X56499Y17399D01*
X56480Y17351D01*
X56452Y17307D01*
X56434Y17238D01*
X56407Y17171D01*
X56399Y17100D01*
X56391Y17069D01*
X56393Y17045D01*
X56389Y17004D01*
X56389Y4337D01*
X56402Y4259D01*
X56405Y4180D01*
X56421Y4138D01*
X56429Y4094D01*
X56466Y4024D01*
X56494Y3950D01*
X56523Y3916D01*
X56544Y3877D01*
X56601Y3822D01*
X56652Y3761D01*
X56690Y3738D01*
X56722Y3707D01*
X56794Y3674D01*
X56861Y3632D01*
X56905Y3622D01*
X56945Y3604D01*
X57024Y3595D01*
X57101Y3577D01*
X57160Y3580D01*
X57189Y3576D01*
X57216Y3582D01*
G37*
%LPC*%
G36*
X491349Y433577D02*
X491349Y433577D01*
X487335Y435240D01*
X484262Y438313D01*
X482599Y442327D01*
X482599Y446673D01*
X484262Y450687D01*
X487335Y453760D01*
X491349Y455423D01*
X495695Y455423D01*
X499709Y453760D01*
X502782Y450687D01*
X504445Y446673D01*
X504445Y442327D01*
X502782Y438313D01*
X499709Y435240D01*
X495695Y433577D01*
X491349Y433577D01*
G37*
%LPD*%
%LPC*%
G36*
X34149Y14477D02*
X34149Y14477D01*
X30135Y16140D01*
X27062Y19213D01*
X25399Y23227D01*
X25399Y27573D01*
X27062Y31587D01*
X30135Y34660D01*
X34149Y36323D01*
X38495Y36323D01*
X42509Y34660D01*
X45582Y31587D01*
X47245Y27573D01*
X47245Y23227D01*
X45582Y19213D01*
X42509Y16140D01*
X38495Y14477D01*
X34149Y14477D01*
G37*
%LPD*%
%LPC*%
G36*
X66801Y52323D02*
X66801Y52323D01*
X66801Y62646D01*
X68074Y62445D01*
X69861Y61864D01*
X71535Y61011D01*
X73056Y59906D01*
X74384Y58578D01*
X75489Y57057D01*
X76342Y55383D01*
X76923Y53596D01*
X77124Y52323D01*
X66801Y52323D01*
G37*
%LPD*%
%LPC*%
G36*
X37845Y52323D02*
X37845Y52323D01*
X37845Y62646D01*
X39118Y62445D01*
X40905Y61864D01*
X42579Y61011D01*
X44100Y59906D01*
X45428Y58578D01*
X46533Y57057D01*
X47386Y55383D01*
X47967Y53596D01*
X48168Y52323D01*
X37845Y52323D01*
G37*
%LPD*%
%LPC*%
G36*
X495045Y471423D02*
X495045Y471423D01*
X495045Y481746D01*
X496318Y481545D01*
X498105Y480964D01*
X499779Y480111D01*
X501300Y479006D01*
X502628Y477678D01*
X503733Y476157D01*
X504586Y474483D01*
X505167Y472696D01*
X505368Y471423D01*
X495045Y471423D01*
G37*
%LPD*%
%LPC*%
G36*
X495045Y468377D02*
X495045Y468377D01*
X505368Y468377D01*
X505167Y467104D01*
X504586Y465317D01*
X503733Y463643D01*
X502628Y462122D01*
X501300Y460794D01*
X499779Y459689D01*
X498105Y458836D01*
X496318Y458255D01*
X495045Y458054D01*
X495045Y468377D01*
G37*
%LPD*%
%LPC*%
G36*
X524001Y468377D02*
X524001Y468377D01*
X534324Y468377D01*
X534123Y467104D01*
X533542Y465317D01*
X532689Y463643D01*
X531584Y462122D01*
X530256Y460794D01*
X528735Y459689D01*
X527061Y458836D01*
X525274Y458255D01*
X524001Y458054D01*
X524001Y468377D01*
G37*
%LPD*%
%LPC*%
G36*
X481676Y471423D02*
X481676Y471423D01*
X481877Y472696D01*
X482458Y474483D01*
X483311Y476157D01*
X484416Y477678D01*
X485744Y479006D01*
X487265Y480111D01*
X488939Y480964D01*
X490726Y481545D01*
X491999Y481746D01*
X491999Y471423D01*
X481676Y471423D01*
G37*
%LPD*%
%LPC*%
G36*
X24476Y52323D02*
X24476Y52323D01*
X24677Y53596D01*
X25258Y55383D01*
X26111Y57057D01*
X27216Y58578D01*
X28544Y59906D01*
X30065Y61011D01*
X31739Y61864D01*
X33526Y62445D01*
X34799Y62646D01*
X34799Y52323D01*
X24476Y52323D01*
G37*
%LPD*%
%LPC*%
G36*
X66801Y49277D02*
X66801Y49277D01*
X77124Y49277D01*
X76923Y48004D01*
X76342Y46217D01*
X75489Y44543D01*
X74384Y43022D01*
X73056Y41694D01*
X71535Y40589D01*
X69861Y39736D01*
X68074Y39155D01*
X66801Y38954D01*
X66801Y49277D01*
G37*
%LPD*%
%LPC*%
G36*
X37845Y49277D02*
X37845Y49277D01*
X48168Y49277D01*
X47967Y48004D01*
X47386Y46217D01*
X46533Y44543D01*
X45428Y43022D01*
X44100Y41694D01*
X42579Y40589D01*
X40905Y39736D01*
X39118Y39155D01*
X37845Y38954D01*
X37845Y49277D01*
G37*
%LPD*%
%LPC*%
G36*
X490726Y458255D02*
X490726Y458255D01*
X488939Y458836D01*
X487265Y459689D01*
X485744Y460794D01*
X484416Y462122D01*
X483311Y463643D01*
X482458Y465317D01*
X481877Y467104D01*
X481676Y468377D01*
X491999Y468377D01*
X491999Y458054D01*
X490726Y458255D01*
G37*
%LPD*%
%LPC*%
G36*
X33526Y39155D02*
X33526Y39155D01*
X31739Y39736D01*
X30065Y40589D01*
X28544Y41694D01*
X27216Y43022D01*
X26111Y44543D01*
X25258Y46217D01*
X24677Y48004D01*
X24476Y49277D01*
X34799Y49277D01*
X34799Y38954D01*
X33526Y39155D01*
G37*
%LPD*%
%LPC*%
G36*
X493521Y469899D02*
X493521Y469899D01*
X493521Y469901D01*
X493523Y469901D01*
X493523Y469899D01*
X493521Y469899D01*
G37*
%LPD*%
%LPC*%
G36*
X36321Y50799D02*
X36321Y50799D01*
X36321Y50801D01*
X36323Y50801D01*
X36323Y50799D01*
X36321Y50799D01*
G37*
%LPD*%
D10*
X493522Y444500D03*
X522478Y444500D03*
X493522Y469900D03*
X522478Y469900D03*
X36322Y25400D03*
X65278Y25400D03*
X36322Y50800D03*
X65278Y50800D03*
M02*
