G04 EAGLE Gerber X2 export*
G75*
%MOMM*%
%FSLAX34Y34*%
%LPD*%
%AMOC8*
5,1,8,0,0,1.08239X$1,22.5*%
G01*
%ADD10C,2.082800*%
%ADD11R,0.155734X0.038931*%
%ADD12R,0.272531X0.038934*%
%ADD13R,0.467197X0.038931*%
%ADD14R,0.934394X0.038934*%
%ADD15R,0.194666X0.038934*%
%ADD16R,1.051194X0.038934*%
%ADD17R,0.350397X0.038931*%
%ADD18R,1.206925X0.038931*%
%ADD19R,0.116800X0.038934*%
%ADD20R,0.506131X0.038934*%
%ADD21R,0.778663X0.038934*%
%ADD22R,0.311466X0.038934*%
%ADD23R,0.622931X0.038934*%
%ADD24R,0.233597X0.038931*%
%ADD25R,0.778663X0.038931*%
%ADD26R,0.272531X0.038931*%
%ADD27R,0.233597X0.038934*%
%ADD28R,0.934397X0.038934*%
%ADD29R,0.739731X0.038934*%
%ADD30R,0.973328X0.038931*%
%ADD31R,0.778666X0.038931*%
%ADD32R,1.090131X0.038934*%
%ADD33R,0.778666X0.038934*%
%ADD34R,1.245863X0.038934*%
%ADD35R,1.090131X0.038931*%
%ADD36R,0.700800X0.038931*%
%ADD37R,0.311466X0.038931*%
%ADD38R,1.167997X0.038934*%
%ADD39R,1.012266X0.038934*%
%ADD40R,0.661863X0.038931*%
%ADD41R,0.661863X0.038934*%
%ADD42R,0.233600X0.038934*%
%ADD43R,0.817597X0.038931*%
%ADD44R,0.233600X0.038931*%
%ADD45R,0.700797X0.038934*%
%ADD46R,0.895463X0.038934*%
%ADD47R,0.895463X0.038931*%
%ADD48R,0.700797X0.038931*%
%ADD49R,1.557328X0.038934*%
%ADD50R,0.739728X0.038934*%
%ADD51R,1.284797X0.038931*%
%ADD52R,0.739728X0.038931*%
%ADD53R,1.129063X0.038934*%
%ADD54R,0.856528X0.038934*%
%ADD55R,1.051197X0.038934*%
%ADD56R,0.817600X0.038934*%
%ADD57R,0.817600X0.038931*%
%ADD58R,0.817594X0.038934*%
%ADD59R,0.194666X0.038931*%
%ADD60R,0.428266X0.038934*%
%ADD61R,0.856531X0.038934*%
%ADD62R,0.311463X0.038934*%
%ADD63R,0.856531X0.038931*%
%ADD64R,0.272534X0.038934*%
%ADD65R,0.116800X0.038931*%
%ADD66R,0.895459X0.038931*%
%ADD67R,1.090128X0.038934*%
%ADD68R,1.012263X0.038934*%
%ADD69R,1.012266X0.038931*%
%ADD70R,0.973331X0.038934*%
%ADD71R,0.934397X0.038931*%
%ADD72R,0.350397X0.038934*%
%ADD73R,0.389331X0.038934*%
%ADD74R,0.311469X0.038931*%
%ADD75R,0.389334X0.038931*%
%ADD76R,0.428269X0.038934*%
%ADD77R,0.467200X0.038931*%
%ADD78R,0.311469X0.038934*%
%ADD79R,0.467200X0.038934*%
%ADD80R,0.350403X0.038931*%
%ADD81R,0.856528X0.038931*%
%ADD82R,0.350400X0.038934*%
%ADD83R,0.817597X0.038934*%
%ADD84R,0.506134X0.038934*%
%ADD85R,0.506134X0.038931*%
%ADD86R,0.545066X0.038934*%
%ADD87R,0.350400X0.038931*%
%ADD88R,0.545066X0.038931*%
%ADD89R,0.895466X0.038934*%
%ADD90R,0.584000X0.038934*%
%ADD91R,0.545069X0.038934*%
%ADD92R,0.545069X0.038931*%
%ADD93R,0.973331X0.038931*%
%ADD94R,0.467197X0.038934*%
%ADD95R,0.583997X0.038934*%
%ADD96R,0.583994X0.038931*%
%ADD97R,1.245863X0.038931*%
%ADD98R,0.545063X0.038931*%
%ADD99R,0.389334X0.038934*%
%ADD100R,0.661866X0.038934*%
%ADD101R,0.661866X0.038931*%
%ADD102R,0.272534X0.038931*%
%ADD103R,0.700794X0.038931*%
%ADD104R,0.700800X0.038934*%
%ADD105R,0.622928X0.038931*%
%ADD106R,0.583997X0.038931*%
%ADD107R,0.739731X0.038931*%
%ADD108R,0.622928X0.038934*%
%ADD109R,0.584000X0.038931*%
%ADD110R,0.506128X0.038934*%
%ADD111R,0.506128X0.038931*%
%ADD112R,0.428263X0.038931*%
%ADD113R,0.389331X0.038931*%
%ADD114R,0.428266X0.038931*%
%ADD115R,0.545063X0.038934*%
%ADD116R,0.817594X0.038931*%
%ADD117R,1.051197X0.038931*%
%ADD118R,0.739734X0.038931*%
%ADD119R,0.700794X0.038934*%
%ADD120R,0.311463X0.038931*%
%ADD121R,0.622934X0.038934*%
%ADD122R,0.622931X0.038931*%
%ADD123R,0.428263X0.038934*%
%ADD124R,0.506131X0.038931*%
%ADD125R,1.479459X0.038934*%
%ADD126R,1.362663X0.038931*%
%ADD127R,1.284794X0.038934*%
%ADD128R,1.167997X0.038931*%
%ADD129R,0.622934X0.038931*%
%ADD130R,0.350403X0.038934*%
%ADD131R,0.389328X0.038931*%
%ADD132R,0.895459X0.038934*%
%ADD133R,0.934394X0.038931*%
%ADD134R,0.973328X0.038934*%
%ADD135R,0.973325X0.038934*%
%ADD136R,1.012263X0.038931*%
%ADD137R,1.401597X0.038934*%
%ADD138R,1.323728X0.038931*%
%ADD139R,1.206931X0.038934*%
%ADD140R,0.583994X0.038934*%
%ADD141R,0.428269X0.038931*%
%ADD142R,1.051194X0.038931*%
%ADD143R,0.389328X0.038934*%
%ADD144R,0.233603X0.038931*%
%ADD145R,1.129063X0.038931*%
%ADD146R,0.895466X0.038931*%
%ADD147R,1.206928X0.038934*%
%ADD148R,1.362663X0.038934*%
%ADD149R,1.323728X0.038934*%
%ADD150R,1.557325X0.038934*%
%ADD151R,1.518394X0.038931*%
%ADD152R,1.440528X0.038931*%
%ADD153R,1.518394X0.038934*%
%ADD154R,1.674128X0.038934*%
%ADD155R,0.038934X0.038934*%
%ADD156R,1.401594X0.038931*%
%ADD157R,1.868794X0.038931*%
%ADD158R,0.155731X0.038931*%
%ADD159R,2.024522X0.038934*%
%ADD160R,2.102391X0.038934*%
%ADD161R,1.596263X0.038931*%
%ADD162R,0.194663X0.038934*%
%ADD163R,0.233603X0.038934*%
%ADD164R,1.012259X0.038934*%
%ADD165R,0.934400X0.038934*%
%ADD166R,0.194669X0.038934*%
%ADD167R,1.907728X0.038931*%
%ADD168R,1.907725X0.038934*%
%ADD169R,1.868791X0.038934*%
%ADD170R,1.829859X0.038931*%
%ADD171R,1.751991X0.038934*%
%ADD172R,1.635191X0.038931*%
%ADD173R,1.674125X0.038931*%
%ADD174R,1.635194X0.038934*%
%ADD175R,0.739734X0.038934*%
%ADD176R,0.778659X0.038934*%
%ADD177R,0.077866X0.038934*%
%ADD178R,0.155731X0.038934*%
%ADD179R,1.245859X0.038934*%
%ADD180R,1.674125X0.038934*%
%ADD181R,1.829859X0.038934*%
%ADD182R,2.024525X0.038931*%
%ADD183R,0.194669X0.038931*%
%ADD184R,1.284797X0.038934*%
%ADD185R,1.129059X0.038931*%
%ADD186R,1.440528X0.038934*%
%ADD187R,1.479463X0.038934*%
%ADD188R,1.401594X0.038934*%
%ADD189R,1.323725X0.038931*%
%ADD190R,1.674122X0.038934*%
%ADD191R,1.790928X0.038934*%
%ADD192R,1.946659X0.038934*%
%ADD193R,2.063456X0.038931*%
%ADD194R,2.335991X0.038934*%
%ADD195R,2.219191X0.038931*%
%ADD196R,1.635194X0.038931*%
%ADD197R,1.090128X0.038931*%
%ADD198R,2.374925X0.038934*%
%ADD199R,2.569587X0.038934*%
%ADD200R,0.155734X0.038934*%
%ADD201R,2.608522X0.038931*%
%ADD202R,2.608522X0.038934*%
%ADD203R,2.647453X0.038934*%
%ADD204R,2.686387X0.038931*%
%ADD205R,0.116803X0.038934*%
%ADD206R,0.077869X0.038931*%
%ADD207R,1.596259X0.038934*%
%ADD208R,1.713059X0.038931*%
%ADD209R,1.790928X0.038931*%
%ADD210R,1.635191X0.038934*%
%ADD211R,1.829856X0.038931*%
%ADD212R,1.713056X0.038934*%
%ADD213R,1.557328X0.038931*%
%ADD214R,1.479463X0.038931*%
%ADD215R,1.713059X0.038934*%
%ADD216R,1.790925X0.038934*%
%ADD217R,1.790925X0.038931*%
%ADD218R,2.219191X0.038934*%
%ADD219R,2.919991X0.038931*%
%ADD220R,2.647456X0.038934*%
%ADD221R,2.452787X0.038931*%
%ADD222R,2.180256X0.038934*%
%ADD223R,1.129066X0.038934*%
%ADD224R,0.934400X0.038931*%
%ADD225R,1.167994X0.038931*%
%ADD226R,1.362659X0.038934*%
%ADD227R,1.985591X0.038934*%
%ADD228R,1.479459X0.038931*%
%ADD229R,1.323731X0.038934*%


D10*
X493522Y444500D03*
X522478Y444500D03*
X493522Y469900D03*
X522478Y469900D03*
X36322Y25400D03*
X65278Y25400D03*
X36322Y50800D03*
X65278Y50800D03*
D11*
X153054Y127000D03*
D12*
X152859Y127389D03*
D13*
X152665Y127779D03*
D14*
X153443Y128168D03*
D15*
X56305Y128557D03*
D16*
X152859Y128557D03*
D17*
X55526Y128947D03*
D18*
X152081Y128947D03*
D19*
X14257Y129336D03*
D20*
X54748Y129336D03*
D21*
X149161Y129336D03*
D22*
X156558Y129336D03*
D15*
X13868Y129725D03*
D23*
X52607Y129725D03*
D21*
X147993Y129725D03*
D12*
X156753Y129725D03*
D24*
X13673Y130115D03*
D25*
X50660Y130115D03*
X147214Y130115D03*
D26*
X156753Y130115D03*
D27*
X13673Y130504D03*
D28*
X49103Y130504D03*
D29*
X145462Y130504D03*
D22*
X156558Y130504D03*
D26*
X13868Y130893D03*
D30*
X48129Y130893D03*
D31*
X143710Y130893D03*
D17*
X156363Y130893D03*
D12*
X13868Y131283D03*
D32*
X46377Y131283D03*
D33*
X142542Y131283D03*
D22*
X156169Y131283D03*
D12*
X13868Y131672D03*
D34*
X44041Y131672D03*
D29*
X141569Y131672D03*
D22*
X156169Y131672D03*
D26*
X13868Y132061D03*
D35*
X41705Y132061D03*
D36*
X140595Y132061D03*
D37*
X156169Y132061D03*
D12*
X13868Y132451D03*
D38*
X39369Y132451D03*
D29*
X139622Y132451D03*
D22*
X156169Y132451D03*
D12*
X13868Y132840D03*
D39*
X38201Y132840D03*
D33*
X138649Y132840D03*
D12*
X155974Y132840D03*
D26*
X13868Y133229D03*
D30*
X36839Y133229D03*
D40*
X136507Y133229D03*
D26*
X155974Y133229D03*
D12*
X13868Y133619D03*
D14*
X35476Y133619D03*
D41*
X135339Y133619D03*
D42*
X156169Y133619D03*
D26*
X13868Y134008D03*
D43*
X34113Y134008D03*
D40*
X134561Y134008D03*
D44*
X156169Y134008D03*
D12*
X14257Y134397D03*
D29*
X32945Y134397D03*
D45*
X133587Y134397D03*
D42*
X156169Y134397D03*
D12*
X14257Y134787D03*
D46*
X30609Y134787D03*
D41*
X132614Y134787D03*
D42*
X156169Y134787D03*
D26*
X14257Y135176D03*
D47*
X29052Y135176D03*
D48*
X131641Y135176D03*
D44*
X156169Y135176D03*
D12*
X14257Y135565D03*
D46*
X27884Y135565D03*
D45*
X130084Y135565D03*
D42*
X156169Y135565D03*
D26*
X14257Y135955D03*
D47*
X26716Y135955D03*
D48*
X128916Y135955D03*
D44*
X156169Y135955D03*
D12*
X14257Y136344D03*
D28*
X24964Y136344D03*
D29*
X127942Y136344D03*
D15*
X155974Y136344D03*
D49*
X20681Y136733D03*
D50*
X127164Y136733D03*
D15*
X155974Y136733D03*
D51*
X19319Y137123D03*
D52*
X126385Y137123D03*
D44*
X156169Y137123D03*
D53*
X18540Y137512D03*
D54*
X124633Y137512D03*
D42*
X156169Y137512D03*
D55*
X18151Y137901D03*
D56*
X122881Y137901D03*
D42*
X156169Y137901D03*
D30*
X17761Y138291D03*
D57*
X121713Y138291D03*
D44*
X156169Y138291D03*
D58*
X17372Y138680D03*
D33*
X120740Y138680D03*
D42*
X156169Y138680D03*
D40*
X16593Y139069D03*
D57*
X119766Y139069D03*
D59*
X156363Y139069D03*
D20*
X15815Y139459D03*
D56*
X118988Y139459D03*
D15*
X156363Y139459D03*
D60*
X16204Y139848D03*
D61*
X118014Y139848D03*
D15*
X156363Y139848D03*
D17*
X16983Y140237D03*
D30*
X116652Y140237D03*
D59*
X156363Y140237D03*
D22*
X17177Y140627D03*
D58*
X114705Y140627D03*
D42*
X156558Y140627D03*
D37*
X17567Y141016D03*
D25*
X113732Y141016D03*
D44*
X156558Y141016D03*
D62*
X17956Y141405D03*
D21*
X112564Y141405D03*
D15*
X156753Y141405D03*
D22*
X18345Y141795D03*
D58*
X111590Y141795D03*
D27*
X156947Y141795D03*
D26*
X18540Y142184D03*
D63*
X110228Y142184D03*
D24*
X156947Y142184D03*
D64*
X18929Y142573D03*
D61*
X108281Y142573D03*
D12*
X157142Y142573D03*
D44*
X19124Y142963D03*
D65*
X101078Y142963D03*
D66*
X107308Y142963D03*
D26*
X157531Y142963D03*
D27*
X19513Y143352D03*
D67*
X105556Y143352D03*
D12*
X157531Y143352D03*
D42*
X19903Y143741D03*
D68*
X104777Y143741D03*
D12*
X157531Y143741D03*
D24*
X20292Y144131D03*
D69*
X104388Y144131D03*
D26*
X157921Y144131D03*
D12*
X20487Y144520D03*
D39*
X103609Y144520D03*
D22*
X158115Y144520D03*
D42*
X20681Y144909D03*
D70*
X101857Y144909D03*
D22*
X158115Y144909D03*
D44*
X20681Y145299D03*
D71*
X100494Y145299D03*
D37*
X158505Y145299D03*
D42*
X21071Y145688D03*
D28*
X99326Y145688D03*
D22*
X158894Y145688D03*
D26*
X21265Y146077D03*
D71*
X98548Y146077D03*
D17*
X159089Y146077D03*
D64*
X21655Y146467D03*
D28*
X97380Y146467D03*
D72*
X159478Y146467D03*
D22*
X21849Y146856D03*
D46*
X96017Y146856D03*
D73*
X159673Y146856D03*
D74*
X22239Y147245D03*
D47*
X94460Y147245D03*
D75*
X160062Y147245D03*
D64*
X22433Y147635D03*
D46*
X93292Y147635D03*
D76*
X160257Y147635D03*
D22*
X22628Y148024D03*
D28*
X92318Y148024D03*
D60*
X160646Y148024D03*
D74*
X23017Y148413D03*
D71*
X91540Y148413D03*
D77*
X160841Y148413D03*
D78*
X23017Y148803D03*
D54*
X90372Y148803D03*
D79*
X161230Y148803D03*
D80*
X23212Y149192D03*
D81*
X89593Y149192D03*
D77*
X161619Y149192D03*
D82*
X23601Y149581D03*
D83*
X88230Y149581D03*
D84*
X161814Y149581D03*
D82*
X23601Y149971D03*
D58*
X86673Y149971D03*
D20*
X162203Y149971D03*
D37*
X23796Y150360D03*
D43*
X85894Y150360D03*
D85*
X162593Y150360D03*
D73*
X24185Y150749D03*
D56*
X85116Y150749D03*
D86*
X162787Y150749D03*
D87*
X24380Y151139D03*
D47*
X84337Y151139D03*
D88*
X163177Y151139D03*
D62*
X24575Y151528D03*
D89*
X83558Y151528D03*
D90*
X163371Y151528D03*
D62*
X24575Y151917D03*
D61*
X82196Y151917D03*
D91*
X163566Y151917D03*
D26*
X24769Y152307D03*
D31*
X80638Y152307D03*
D92*
X163566Y152307D03*
D12*
X24769Y152696D03*
D29*
X79276Y152696D03*
D91*
X163566Y152696D03*
D26*
X25159Y153085D03*
D52*
X78497Y153085D03*
D88*
X163177Y153085D03*
D12*
X25159Y153475D03*
D41*
X77718Y153475D03*
D29*
X162203Y153475D03*
D42*
X25353Y153864D03*
D41*
X76940Y153864D03*
D61*
X161619Y153864D03*
D44*
X25353Y154253D03*
D13*
X75188Y154253D03*
D93*
X161035Y154253D03*
D42*
X25353Y154643D03*
D94*
X74020Y154643D03*
D55*
X160646Y154643D03*
D42*
X25743Y155032D03*
D95*
X73046Y155032D03*
D53*
X159867Y155032D03*
D44*
X25743Y155421D03*
D96*
X72268Y155421D03*
D97*
X159283Y155421D03*
D42*
X25743Y155811D03*
D86*
X71294Y155811D03*
D54*
X156169Y155811D03*
D79*
X163177Y155811D03*
D59*
X25937Y156200D03*
D98*
X70126Y156200D03*
D47*
X154806Y156200D03*
D75*
X163177Y156200D03*
D27*
X26132Y156589D03*
D50*
X69153Y156589D03*
D28*
X153833Y156589D03*
D99*
X163177Y156589D03*
D27*
X26132Y156979D03*
D41*
X67985Y156979D03*
D28*
X153054Y156979D03*
D82*
X162982Y156979D03*
D24*
X26132Y157368D03*
D52*
X67206Y157368D03*
D47*
X152081Y157368D03*
D37*
X163177Y157368D03*
D15*
X26327Y157757D03*
D100*
X66038Y157757D03*
D54*
X151107Y157757D03*
D64*
X162982Y157757D03*
D44*
X26521Y158147D03*
D101*
X65260Y158147D03*
D81*
X149939Y158147D03*
D102*
X162982Y158147D03*
D42*
X26521Y158536D03*
D90*
X64092Y158536D03*
D21*
X148771Y158536D03*
D64*
X162982Y158536D03*
D42*
X26521Y158925D03*
D23*
X62729Y158925D03*
D83*
X147798Y158925D03*
D64*
X162982Y158925D03*
D26*
X26716Y159315D03*
D48*
X61172Y159315D03*
D25*
X146825Y159315D03*
D44*
X162787Y159315D03*
D27*
X26911Y159704D03*
D45*
X60393Y159704D03*
D58*
X146241Y159704D03*
D42*
X162787Y159704D03*
D27*
X26911Y160093D03*
D45*
X59225Y160093D03*
D29*
X145073Y160093D03*
D42*
X162787Y160093D03*
D26*
X27105Y160483D03*
D103*
X58446Y160483D03*
D101*
X143515Y160483D03*
D44*
X162787Y160483D03*
D12*
X27105Y160872D03*
D50*
X57473Y160872D03*
D104*
X142542Y160872D03*
D15*
X162982Y160872D03*
D26*
X27105Y161261D03*
D25*
X56110Y161261D03*
D48*
X141763Y161261D03*
D59*
X162982Y161261D03*
D12*
X27105Y161651D03*
D21*
X54553Y161651D03*
D100*
X140790Y161651D03*
D15*
X162982Y161651D03*
D12*
X27105Y162040D03*
D50*
X53580Y162040D03*
D45*
X139817Y162040D03*
D15*
X162982Y162040D03*
D26*
X27105Y162429D03*
D25*
X52607Y162429D03*
D105*
X138649Y162429D03*
D44*
X163177Y162429D03*
D12*
X27105Y162819D03*
D50*
X51633Y162819D03*
D23*
X137870Y162819D03*
D42*
X163177Y162819D03*
D26*
X27105Y163208D03*
D52*
X50465Y163208D03*
D106*
X136897Y163208D03*
D59*
X163371Y163208D03*
D12*
X27105Y163597D03*
D50*
X48908Y163597D03*
D95*
X136118Y163597D03*
D27*
X163566Y163597D03*
D12*
X27105Y163987D03*
D58*
X47351Y163987D03*
D95*
X135339Y163987D03*
D15*
X163761Y163987D03*
D26*
X27105Y164376D03*
D63*
X46377Y164376D03*
D98*
X134366Y164376D03*
D44*
X163955Y164376D03*
D12*
X27105Y164765D03*
D61*
X45599Y164765D03*
D95*
X133393Y164765D03*
D42*
X163955Y164765D03*
D26*
X27105Y165155D03*
D43*
X44625Y165155D03*
D106*
X132225Y165155D03*
D24*
X164345Y165155D03*
D12*
X27105Y165544D03*
D61*
X43652Y165544D03*
D95*
X131446Y165544D03*
D12*
X164539Y165544D03*
X27105Y165933D03*
D83*
X42289Y165933D03*
D23*
X130473Y165933D03*
D64*
X164929Y165933D03*
D26*
X27105Y166323D03*
D107*
X40732Y166323D03*
D40*
X129889Y166323D03*
D37*
X165123Y166323D03*
D12*
X27105Y166712D03*
D29*
X39175Y166712D03*
D95*
X128721Y166712D03*
D22*
X165513Y166712D03*
D12*
X27105Y167101D03*
D21*
X38201Y167101D03*
D108*
X128137Y167101D03*
D72*
X165707Y167101D03*
D26*
X27105Y167491D03*
D81*
X37423Y167491D03*
D106*
X126774Y167491D03*
D17*
X166097Y167491D03*
D12*
X27105Y167880D03*
D61*
X36255Y167880D03*
D23*
X125412Y167880D03*
D73*
X166291Y167880D03*
D37*
X26911Y168269D03*
D81*
X35087Y168269D03*
D109*
X124438Y168269D03*
D87*
X166486Y168269D03*
D82*
X27105Y168658D03*
D58*
X33724Y168658D03*
D90*
X123660Y168658D03*
D72*
X166875Y168658D03*
D16*
X30609Y169048D03*
D90*
X122881Y169048D03*
D72*
X166875Y169048D03*
D71*
X30025Y169437D03*
D109*
X121713Y169437D03*
D87*
X167265Y169437D03*
D54*
X29636Y169826D03*
D91*
X120350Y169826D03*
D62*
X167849Y169826D03*
D21*
X29247Y170216D03*
D20*
X119377Y170216D03*
D72*
X168043Y170216D03*
D105*
X28079Y170605D03*
D88*
X118404Y170605D03*
D37*
X168238Y170605D03*
D110*
X27495Y170994D03*
D95*
X117430Y170994D03*
D22*
X168627Y170994D03*
D111*
X27495Y171384D03*
D106*
X116652Y171384D03*
D112*
X169211Y171384D03*
D20*
X27884Y171773D03*
D108*
X115678Y171773D03*
D79*
X169795Y171773D03*
X28468Y172162D03*
D86*
X114510Y172162D03*
D60*
X169990Y172162D03*
D113*
X28857Y172552D03*
D106*
X113537Y172552D03*
D114*
X169990Y172552D03*
D72*
X29441Y172941D03*
D23*
X112953Y172941D03*
D60*
X169601Y172941D03*
D26*
X30220Y173330D03*
D40*
X112369Y173330D03*
D13*
X169406Y173330D03*
D12*
X30609Y173720D03*
D23*
X111396Y173720D03*
D115*
X169017Y173720D03*
D22*
X30804Y174109D03*
D108*
X109838Y174109D03*
D95*
X168433Y174109D03*
D37*
X31193Y174498D03*
D48*
X108670Y174498D03*
D40*
X168043Y174498D03*
D64*
X31388Y174888D03*
D50*
X108086Y174888D03*
X167654Y174888D03*
D26*
X31777Y175277D03*
D116*
X106918Y175277D03*
X167265Y175277D03*
D12*
X32167Y175666D03*
D83*
X106140Y175666D03*
D54*
X167070Y175666D03*
D42*
X32361Y176056D03*
D61*
X105166Y176056D03*
D28*
X166291Y176056D03*
D26*
X32556Y176445D03*
D43*
X104193Y176445D03*
D117*
X165707Y176445D03*
D12*
X32945Y176834D03*
D33*
X102830Y176834D03*
D32*
X165513Y176834D03*
D42*
X33140Y177224D03*
D21*
X102052Y177224D03*
D38*
X165123Y177224D03*
D44*
X33529Y177613D03*
D63*
X101273Y177613D03*
D118*
X162593Y177613D03*
D37*
X169406Y177613D03*
D27*
X33919Y178002D03*
D46*
X100689Y178002D03*
D83*
X161425Y178002D03*
D22*
X169406Y178002D03*
D59*
X34113Y178392D03*
D31*
X99326Y178392D03*
D118*
X160646Y178392D03*
D37*
X169406Y178392D03*
D42*
X34308Y178781D03*
D50*
X97964Y178781D03*
D33*
X160062Y178781D03*
D22*
X169406Y178781D03*
D27*
X34697Y179170D03*
D29*
X97185Y179170D03*
X159478Y179170D03*
D12*
X169601Y179170D03*
D59*
X34892Y179560D03*
D25*
X96601Y179560D03*
D118*
X158699Y179560D03*
D26*
X169601Y179560D03*
D42*
X35087Y179949D03*
D21*
X95433Y179949D03*
D45*
X157726Y179949D03*
D12*
X169601Y179949D03*
D59*
X35281Y180338D03*
D25*
X94654Y180338D03*
D48*
X156947Y180338D03*
D26*
X169601Y180338D03*
D15*
X35281Y180728D03*
D21*
X93876Y180728D03*
D29*
X155974Y180728D03*
D12*
X169601Y180728D03*
D15*
X35671Y181117D03*
D83*
X92902Y181117D03*
D50*
X155195Y181117D03*
D12*
X169601Y181117D03*
D59*
X35671Y181506D03*
D25*
X91540Y181506D03*
D52*
X154417Y181506D03*
D26*
X169601Y181506D03*
D27*
X35865Y181896D03*
D45*
X90761Y181896D03*
D50*
X153638Y181896D03*
D62*
X169795Y181896D03*
D15*
X36060Y182285D03*
D119*
X89982Y182285D03*
D29*
X152859Y182285D03*
D62*
X169795Y182285D03*
D44*
X36255Y182674D03*
D52*
X89009Y182674D03*
D107*
X152081Y182674D03*
D120*
X169795Y182674D03*
D42*
X36255Y183064D03*
D119*
X88036Y183064D03*
D41*
X150913Y183064D03*
D62*
X169795Y183064D03*
D59*
X36449Y183453D03*
D43*
X87841Y183453D03*
D105*
X149939Y183453D03*
D120*
X169795Y183453D03*
D27*
X36644Y183842D03*
D29*
X86673Y183842D03*
D108*
X149161Y183842D03*
D62*
X169795Y183842D03*
D27*
X36644Y184232D03*
D104*
X85700Y184232D03*
D45*
X148771Y184232D03*
D72*
X169990Y184232D03*
D44*
X37033Y184621D03*
D118*
X84726Y184621D03*
D107*
X148187Y184621D03*
D17*
X169990Y184621D03*
D64*
X37228Y185010D03*
D21*
X83753Y185010D03*
D119*
X147603Y185010D03*
D22*
X170185Y185010D03*
D44*
X37423Y185400D03*
D31*
X82974Y185400D03*
D107*
X146241Y185400D03*
D87*
X170379Y185400D03*
D42*
X37423Y185789D03*
D29*
X82001Y185789D03*
D41*
X145462Y185789D03*
D82*
X170379Y185789D03*
D42*
X37423Y186178D03*
D83*
X80833Y186178D03*
D121*
X144878Y186178D03*
D73*
X170574Y186178D03*
D59*
X37617Y186568D03*
D43*
X79665Y186568D03*
D122*
X144099Y186568D03*
D113*
X170574Y186568D03*
D27*
X37812Y186957D03*
D83*
X78886Y186957D03*
D23*
X143321Y186957D03*
D73*
X170574Y186957D03*
D24*
X37812Y187346D03*
D116*
X78108Y187346D03*
D101*
X142347Y187346D03*
D114*
X170769Y187346D03*
D12*
X38007Y187736D03*
D61*
X77524Y187736D03*
D104*
X141374Y187736D03*
D73*
X170963Y187736D03*
D42*
X38201Y188125D03*
D54*
X76356Y188125D03*
D100*
X140401Y188125D03*
D123*
X171158Y188125D03*
D26*
X38396Y188514D03*
D116*
X74993Y188514D03*
D48*
X139817Y188514D03*
D13*
X171353Y188514D03*
D12*
X38396Y188904D03*
D21*
X74020Y188904D03*
D29*
X139233Y188904D03*
D60*
X171547Y188904D03*
D12*
X38396Y189293D03*
D58*
X73046Y189293D03*
D104*
X138649Y189293D03*
D79*
X171742Y189293D03*
D37*
X38591Y189682D03*
D116*
X72268Y189682D03*
D48*
X137870Y189682D03*
D124*
X171937Y189682D03*
D22*
X38591Y190072D03*
D21*
X71684Y190072D03*
D119*
X137091Y190072D03*
D86*
X172131Y190072D03*
D37*
X38591Y190461D03*
D25*
X70126Y190461D03*
D101*
X136118Y190461D03*
D124*
X172326Y190461D03*
D22*
X38591Y190850D03*
D21*
X68958Y190850D03*
D41*
X135339Y190850D03*
D115*
X172521Y190850D03*
D22*
X38591Y191240D03*
D50*
X67985Y191240D03*
D41*
X134561Y191240D03*
D115*
X172521Y191240D03*
D26*
X38785Y191629D03*
D116*
X67206Y191629D03*
D122*
X133977Y191629D03*
D106*
X172715Y191629D03*
D12*
X38785Y192018D03*
D89*
X66428Y192018D03*
D41*
X133004Y192018D03*
D95*
X173105Y192018D03*
D12*
X38785Y192408D03*
D56*
X65260Y192408D03*
D23*
X132030Y192408D03*
D108*
X173299Y192408D03*
D26*
X38785Y192797D03*
D43*
X64481Y192797D03*
D40*
X131446Y192797D03*
X173494Y192797D03*
D12*
X38785Y193186D03*
D29*
X62924Y193186D03*
D41*
X130668Y193186D03*
D23*
X173689Y193186D03*
D26*
X38785Y193576D03*
D107*
X61366Y193576D03*
D40*
X129889Y193576D03*
X173883Y193576D03*
D12*
X38785Y193965D03*
D29*
X60588Y193965D03*
D23*
X129305Y193965D03*
D45*
X174078Y193965D03*
D12*
X38785Y194354D03*
D104*
X59614Y194354D03*
D108*
X128137Y194354D03*
D45*
X174467Y194354D03*
D26*
X38785Y194744D03*
D40*
X58641Y194744D03*
D106*
X127164Y194744D03*
D48*
X174467Y194744D03*
D12*
X38785Y195133D03*
D50*
X57473Y195133D03*
D95*
X126385Y195133D03*
D50*
X174662Y195133D03*
D26*
X38785Y195522D03*
D52*
X56694Y195522D03*
D106*
X125606Y195522D03*
D48*
X174857Y195522D03*
D12*
X38785Y195912D03*
D58*
X55916Y195912D03*
D90*
X124828Y195912D03*
D29*
X175051Y195912D03*
D12*
X38785Y196301D03*
D54*
X55332Y196301D03*
D23*
X124244Y196301D03*
D45*
X175246Y196301D03*
D26*
X38785Y196690D03*
D43*
X54358Y196690D03*
D88*
X123076Y196690D03*
D52*
X175441Y196690D03*
D12*
X38785Y197080D03*
D83*
X53580Y197080D03*
D91*
X122297Y197080D03*
D119*
X175635Y197080D03*
D12*
X38785Y197469D03*
D21*
X52607Y197469D03*
D86*
X121518Y197469D03*
D50*
X175830Y197469D03*
D26*
X38785Y197858D03*
D43*
X51633Y197858D03*
D88*
X120740Y197858D03*
D48*
X176025Y197858D03*
D22*
X38980Y198248D03*
D61*
X50660Y198248D03*
D86*
X119961Y198248D03*
D41*
X176219Y198248D03*
D37*
X38980Y198637D03*
D30*
X49297Y198637D03*
D124*
X119377Y198637D03*
D122*
X176414Y198637D03*
D22*
X38980Y199026D03*
D67*
X47935Y199026D03*
D94*
X118404Y199026D03*
D95*
X176609Y199026D03*
D125*
X44820Y199416D03*
D123*
X117430Y199416D03*
D95*
X176609Y199416D03*
D126*
X44236Y199805D03*
D13*
X116846Y199805D03*
D101*
X176609Y199805D03*
D127*
X43847Y200194D03*
D20*
X116262Y200194D03*
D29*
X176219Y200194D03*
D128*
X43263Y200584D03*
D88*
X115678Y200584D03*
D25*
X176025Y200584D03*
D67*
X42873Y200973D03*
D115*
X114900Y200973D03*
D83*
X175830Y200973D03*
D55*
X42289Y201362D03*
D20*
X113926Y201362D03*
D46*
X175441Y201362D03*
D47*
X41900Y201752D03*
D98*
X113342Y201752D03*
D13*
X172910Y201752D03*
D113*
X177971Y201752D03*
D83*
X41511Y202141D03*
D86*
X112564Y202141D03*
D94*
X172521Y202141D03*
D22*
X178361Y202141D03*
D36*
X41316Y202530D03*
D88*
X111785Y202530D03*
D77*
X171742Y202530D03*
D37*
X178361Y202530D03*
D23*
X41316Y202920D03*
D115*
X111006Y202920D03*
D123*
X171158Y202920D03*
D64*
X178555Y202920D03*
D23*
X41316Y203309D03*
D115*
X110228Y203309D03*
D123*
X170379Y203309D03*
D22*
X178750Y203309D03*
D106*
X41511Y203698D03*
D98*
X109449Y203698D03*
D114*
X169990Y203698D03*
D37*
X178750Y203698D03*
D95*
X41511Y204088D03*
D86*
X108670Y204088D03*
D94*
X169406Y204088D03*
D22*
X178750Y204088D03*
D90*
X41900Y204477D03*
D86*
X107892Y204477D03*
D94*
X168627Y204477D03*
D22*
X178750Y204477D03*
D109*
X42289Y204866D03*
D98*
X107502Y204866D03*
D114*
X168043Y204866D03*
D37*
X178750Y204866D03*
D91*
X42484Y205256D03*
D86*
X106724Y205256D03*
D123*
X167265Y205256D03*
D12*
X178945Y205256D03*
D88*
X42873Y205645D03*
X105945Y205645D03*
D112*
X166486Y205645D03*
D26*
X178945Y205645D03*
D86*
X43263Y206034D03*
D23*
X105166Y206034D03*
D60*
X166097Y206034D03*
D22*
X179139Y206034D03*
D20*
X43847Y206424D03*
D121*
X104388Y206424D03*
D123*
X165318Y206424D03*
D12*
X179334Y206424D03*
D92*
X44431Y206813D03*
D129*
X103609Y206813D03*
D114*
X164929Y206813D03*
D26*
X179334Y206813D03*
D90*
X45015Y207202D03*
D95*
X103025Y207202D03*
D73*
X164345Y207202D03*
D12*
X179723Y207202D03*
D95*
X45404Y207592D03*
D90*
X102246Y207592D03*
D73*
X163566Y207592D03*
D12*
X179723Y207592D03*
D106*
X45793Y207981D03*
D129*
X101662Y207981D03*
D75*
X162787Y207981D03*
D37*
X180307Y207981D03*
D95*
X46183Y208370D03*
D84*
X100300Y208370D03*
D76*
X162203Y208370D03*
D82*
X180502Y208370D03*
D98*
X46767Y208760D03*
D88*
X99716Y208760D03*
D114*
X161814Y208760D03*
D74*
X180697Y208760D03*
D86*
X47156Y209149D03*
D95*
X99132Y209149D03*
D79*
X161230Y209149D03*
D78*
X181086Y209149D03*
D110*
X47740Y209538D03*
D95*
X98353Y209538D03*
D99*
X160451Y209538D03*
D82*
X181281Y209538D03*
D124*
X48129Y209928D03*
D106*
X97574Y209928D03*
D114*
X159478Y209928D03*
D74*
X181865Y209928D03*
D20*
X48519Y210317D03*
D23*
X96990Y210317D03*
D60*
X159089Y210317D03*
D22*
X182254Y210317D03*
D124*
X48908Y210706D03*
D40*
X96017Y210706D03*
D112*
X158699Y210706D03*
D87*
X182449Y210706D03*
D20*
X49297Y211096D03*
D108*
X95433Y211096D03*
D73*
X158115Y211096D03*
D130*
X182838Y211096D03*
D115*
X49492Y211485D03*
D95*
X94849Y211485D03*
D60*
X157531Y211485D03*
D82*
X183227Y211485D03*
D98*
X49881Y211874D03*
D106*
X94070Y211874D03*
D113*
X156947Y211874D03*
X183811Y211874D03*
D86*
X50271Y212264D03*
D95*
X93292Y212264D03*
D60*
X156363Y212264D03*
D73*
X184201Y212264D03*
D26*
X49297Y212653D03*
D59*
X52412Y212653D03*
D98*
X92708Y212653D03*
D114*
X155585Y212653D03*
D113*
X184590Y212653D03*
D64*
X49687Y213042D03*
D15*
X52412Y213042D03*
D95*
X92124Y213042D03*
D60*
X155195Y213042D03*
D73*
X184979Y213042D03*
D20*
X51244Y213432D03*
D95*
X91345Y213432D03*
D123*
X154806Y213432D03*
X185563Y213432D03*
D111*
X51633Y213821D03*
D122*
X90761Y213821D03*
D112*
X154027Y213821D03*
D88*
X186537Y213821D03*
D110*
X51633Y214210D03*
D41*
X90177Y214210D03*
D20*
X153249Y214210D03*
X186731Y214210D03*
X52023Y214600D03*
D41*
X89398Y214600D03*
D94*
X153054Y214600D03*
X186926Y214600D03*
D13*
X52217Y214989D03*
D40*
X88620Y214989D03*
D114*
X152470Y214989D03*
D98*
X187705Y214989D03*
D60*
X52412Y215378D03*
D41*
X88230Y215378D03*
D123*
X152081Y215378D03*
D95*
X188289Y215378D03*
D114*
X52801Y215768D03*
D40*
X87452Y215768D03*
D114*
X151691Y215768D03*
D106*
X188678Y215768D03*
D60*
X52801Y216157D03*
D41*
X86673Y216157D03*
D123*
X150913Y216157D03*
D108*
X189262Y216157D03*
D60*
X52801Y216546D03*
D119*
X86089Y216546D03*
D123*
X150134Y216546D03*
D108*
X189651Y216546D03*
D114*
X52801Y216936D03*
D107*
X85505Y216936D03*
D77*
X149550Y216936D03*
D122*
X190041Y216936D03*
D73*
X52996Y217325D03*
D33*
X84921Y217325D03*
D94*
X149161Y217325D03*
D108*
X190430Y217325D03*
D113*
X53385Y217714D03*
D57*
X84337Y217714D03*
D111*
X148577Y217714D03*
D106*
X191014Y217714D03*
D73*
X53385Y218104D03*
D61*
X83753Y218104D03*
D94*
X147993Y218104D03*
D95*
X191403Y218104D03*
D72*
X53580Y218493D03*
D61*
X83364Y218493D03*
D79*
X147603Y218493D03*
D110*
X191793Y218493D03*
D17*
X53580Y218882D03*
D63*
X82585Y218882D03*
D13*
X146825Y218882D03*
X191987Y218882D03*
D22*
X53774Y219272D03*
D89*
X82001Y219272D03*
D20*
X146241Y219272D03*
D123*
X192182Y219272D03*
D12*
X53969Y219661D03*
D46*
X81222Y219661D03*
D115*
X145657Y219661D03*
D123*
X192182Y219661D03*
D26*
X53969Y220050D03*
D63*
X80249Y220050D03*
D88*
X145267Y220050D03*
D112*
X192182Y220050D03*
D22*
X54164Y220440D03*
D89*
X79665Y220440D03*
D90*
X144683Y220440D03*
D73*
X191987Y220440D03*
D26*
X54359Y220829D03*
D93*
X79276Y220829D03*
D109*
X143905Y220829D03*
D124*
X191403Y220829D03*
D12*
X54359Y221218D03*
D28*
X78302Y221218D03*
D91*
X143321Y221218D03*
D86*
X191209Y221218D03*
D12*
X54359Y221608D03*
D61*
X77524Y221608D03*
D86*
X142542Y221608D03*
D115*
X190819Y221608D03*
D26*
X54359Y221997D03*
D47*
X76940Y221997D03*
D88*
X142153Y221997D03*
D105*
X190430Y221997D03*
D12*
X54359Y222386D03*
D46*
X76161Y222386D03*
D90*
X141569Y222386D03*
D41*
X190235Y222386D03*
D44*
X54553Y222776D03*
D47*
X75382Y222776D03*
D109*
X141179Y222776D03*
D52*
X189846Y222776D03*
D42*
X54553Y223165D03*
D46*
X74993Y223165D03*
D90*
X140790Y223165D03*
D21*
X189651Y223165D03*
D42*
X54553Y223554D03*
D46*
X74214Y223554D03*
D90*
X140011Y223554D03*
D60*
X187121Y223554D03*
D72*
X191793Y223554D03*
D44*
X54553Y223944D03*
D47*
X73436Y223944D03*
D109*
X139622Y223944D03*
D131*
X186537Y223944D03*
D37*
X191987Y223944D03*
D42*
X54553Y224333D03*
D132*
X72657Y224333D03*
D95*
X138843Y224333D03*
D73*
X186147Y224333D03*
D22*
X191987Y224333D03*
D44*
X54553Y224722D03*
D133*
X71684Y224722D03*
D106*
X138454Y224722D03*
D112*
X185563Y224722D03*
D37*
X191987Y224722D03*
D42*
X54553Y225112D03*
D134*
X71100Y225112D03*
D95*
X138065Y225112D03*
D73*
X184979Y225112D03*
D12*
X192182Y225112D03*
X54748Y225501D03*
D14*
X70516Y225501D03*
D95*
X137286Y225501D03*
D73*
X184590Y225501D03*
D22*
X192377Y225501D03*
D26*
X54748Y225890D03*
D133*
X69737Y225890D03*
D106*
X136897Y225890D03*
D113*
X184201Y225890D03*
D37*
X192377Y225890D03*
D12*
X54748Y226280D03*
D134*
X69153Y226280D03*
D95*
X136118Y226280D03*
D82*
X183617Y226280D03*
D12*
X192571Y226280D03*
X54748Y226669D03*
D135*
X68374Y226669D03*
D95*
X135729Y226669D03*
D82*
X183227Y226669D03*
D62*
X192766Y226669D03*
D26*
X54748Y227058D03*
D30*
X67596Y227058D03*
D98*
X135145Y227058D03*
D75*
X182643Y227058D03*
D120*
X192766Y227058D03*
D12*
X54748Y227448D03*
D70*
X66817Y227448D03*
D95*
X134561Y227448D03*
D99*
X182254Y227448D03*
D22*
X193155Y227448D03*
D26*
X54748Y227837D03*
D93*
X66038Y227837D03*
D98*
X133977Y227837D03*
D87*
X181670Y227837D03*
D26*
X193350Y227837D03*
D12*
X54748Y228226D03*
D70*
X65260Y228226D03*
D95*
X133393Y228226D03*
D82*
X181281Y228226D03*
D22*
X193545Y228226D03*
D12*
X54748Y228616D03*
D70*
X64481Y228616D03*
D95*
X132614Y228616D03*
D99*
X180697Y228616D03*
D64*
X193739Y228616D03*
D37*
X54942Y229005D03*
D136*
X63897Y229005D03*
D98*
X132030Y229005D03*
D75*
X180307Y229005D03*
D26*
X194129Y229005D03*
D22*
X54942Y229394D03*
D39*
X63118Y229394D03*
D95*
X131446Y229394D03*
D73*
X179529Y229394D03*
D12*
X194129Y229394D03*
D137*
X60393Y229784D03*
D86*
X130862Y229784D03*
D123*
X178945Y229784D03*
D22*
X194323Y229784D03*
D138*
X60004Y230173D03*
D106*
X130278Y230173D03*
D114*
X178555Y230173D03*
D17*
X194518Y230173D03*
D139*
X59420Y230562D03*
D95*
X129500Y230562D03*
D123*
X178166Y230562D03*
D72*
X194907Y230562D03*
D35*
X58836Y230952D03*
D106*
X128721Y230952D03*
D114*
X177777Y230952D03*
D87*
X195297Y230952D03*
D70*
X58252Y231341D03*
D95*
X128332Y231341D03*
D60*
X177387Y231341D03*
D73*
X195491Y231341D03*
D46*
X57862Y231730D03*
D140*
X127942Y231730D03*
D123*
X176998Y231730D03*
D73*
X195881Y231730D03*
D43*
X57473Y232120D03*
D98*
X127358Y232120D03*
D112*
X176219Y232120D03*
D114*
X196465Y232120D03*
D21*
X57278Y232509D03*
D95*
X126774Y232509D03*
D60*
X175441Y232509D03*
D79*
X196659Y232509D03*
D48*
X56889Y232898D03*
D98*
X126190Y232898D03*
D112*
X175051Y232898D03*
D13*
X197049Y232898D03*
D41*
X56694Y233288D03*
D115*
X125412Y233288D03*
D73*
X174467Y233288D03*
D94*
X197438Y233288D03*
D86*
X56110Y233677D03*
X125022Y233677D03*
D73*
X174078Y233677D03*
D94*
X197827Y233677D03*
D124*
X55916Y234066D03*
D88*
X124633Y234066D03*
D113*
X173689Y234066D03*
D124*
X198411Y234066D03*
D20*
X55916Y234456D03*
D86*
X123854Y234456D03*
D73*
X173299Y234456D03*
D90*
X199190Y234456D03*
D124*
X55916Y234845D03*
D88*
X123465Y234845D03*
D113*
X172910Y234845D03*
D36*
X200163Y234845D03*
D20*
X56305Y235234D03*
D86*
X122686Y235234D03*
D73*
X172131Y235234D03*
D29*
X201137Y235234D03*
D20*
X56694Y235624D03*
D84*
X122102Y235624D03*
D73*
X171742Y235624D03*
D33*
X201721Y235624D03*
D124*
X57084Y236013D03*
X121713Y236013D03*
D113*
X171353Y236013D03*
D107*
X202305Y236013D03*
D20*
X57862Y236402D03*
X120934Y236402D03*
D60*
X170769Y236402D03*
D100*
X202694Y236402D03*
D60*
X58641Y236792D03*
D91*
X120350Y236792D03*
D123*
X170379Y236792D03*
D23*
X202889Y236792D03*
D113*
X59225Y237181D03*
D88*
X119572Y237181D03*
D114*
X169601Y237181D03*
D129*
X203278Y237181D03*
D73*
X59614Y237570D03*
D110*
X118988Y237570D03*
D123*
X169211Y237570D03*
D86*
X203667Y237570D03*
D113*
X60393Y237960D03*
D88*
X118404Y237960D03*
D114*
X168822Y237960D03*
D85*
X203862Y237960D03*
D73*
X60782Y238349D03*
D86*
X117625Y238349D03*
D72*
X168043Y238349D03*
D84*
X203862Y238349D03*
D82*
X61366Y238738D03*
D115*
X117236Y238738D03*
D73*
X167459Y238738D03*
D95*
X203862Y238738D03*
D80*
X61756Y239128D03*
D124*
X116652Y239128D03*
D112*
X167265Y239128D03*
D122*
X203667Y239128D03*
D22*
X62340Y239517D03*
D20*
X116262Y239517D03*
X166486Y239517D03*
D29*
X203473Y239517D03*
D74*
X62729Y239906D03*
D124*
X115484Y239906D03*
X166097Y239906D03*
D31*
X203278Y239906D03*
D22*
X63118Y240296D03*
D115*
X114900Y240296D03*
D94*
X165513Y240296D03*
D82*
X200747Y240296D03*
D72*
X205419Y240296D03*
D78*
X63508Y240685D03*
D94*
X114510Y240685D03*
X165123Y240685D03*
D82*
X200358Y240685D03*
X205809Y240685D03*
D102*
X64092Y241074D03*
D124*
X113926Y241074D03*
D13*
X164345Y241074D03*
D80*
X199969Y241074D03*
D87*
X205809Y241074D03*
D12*
X64481Y241464D03*
D94*
X113342Y241464D03*
D79*
X163955Y241464D03*
D99*
X199774Y241464D03*
D72*
X206198Y241464D03*
D12*
X64870Y241853D03*
D94*
X112564Y241853D03*
D79*
X163566Y241853D03*
D73*
X199385Y241853D03*
D22*
X206393Y241853D03*
D24*
X65454Y242242D03*
D77*
X112174Y242242D03*
D124*
X162982Y242242D03*
D114*
X198801Y242242D03*
D87*
X206587Y242242D03*
D42*
X65844Y242632D03*
D123*
X111590Y242632D03*
D79*
X162398Y242632D03*
D60*
X198411Y242632D03*
D22*
X206782Y242632D03*
D102*
X66038Y243021D03*
D13*
X111006Y243021D03*
D77*
X162009Y243021D03*
D113*
X197827Y243021D03*
D120*
X207171Y243021D03*
D12*
X66428Y243410D03*
D60*
X110422Y243410D03*
D79*
X161619Y243410D03*
D73*
X197438Y243410D03*
D12*
X207366Y243410D03*
X66817Y243800D03*
D60*
X110033Y243800D03*
D79*
X161230Y243800D03*
D73*
X197049Y243800D03*
D12*
X207755Y243800D03*
D120*
X67012Y244189D03*
D113*
X109449Y244189D03*
D77*
X160451Y244189D03*
D113*
X196659Y244189D03*
D37*
X207950Y244189D03*
D12*
X67206Y244578D03*
D73*
X108670Y244578D03*
D79*
X160062Y244578D03*
D73*
X196270Y244578D03*
D22*
X208339Y244578D03*
D44*
X67790Y244968D03*
D113*
X108281Y244968D03*
D114*
X159478Y244968D03*
D17*
X195686Y244968D03*
D37*
X208729Y244968D03*
D42*
X68180Y245357D03*
D73*
X107892Y245357D03*
D94*
X158894Y245357D03*
D22*
X195102Y245357D03*
D62*
X209118Y245357D03*
D27*
X68569Y245746D03*
D73*
X107502Y245746D03*
D94*
X158505Y245746D03*
D72*
X194518Y245746D03*
D22*
X209507Y245746D03*
D44*
X68958Y246136D03*
D113*
X106724Y246136D03*
D13*
X158115Y246136D03*
D113*
X194323Y246136D03*
D37*
X209897Y246136D03*
D27*
X69348Y246525D03*
D73*
X106334Y246525D03*
D94*
X157726Y246525D03*
D73*
X193934Y246525D03*
D72*
X210091Y246525D03*
D44*
X69737Y246914D03*
D113*
X105945Y246914D03*
D77*
X157337Y246914D03*
D113*
X193545Y246914D03*
X210675Y246914D03*
D15*
X69932Y247303D03*
D73*
X105166Y247303D03*
D94*
X156947Y247303D03*
D123*
X193350Y247303D03*
D73*
X211065Y247303D03*
D27*
X70126Y247693D03*
D73*
X104777Y247693D03*
D94*
X156558Y247693D03*
D73*
X192766Y247693D03*
X211843Y247693D03*
D24*
X70516Y248082D03*
D17*
X104193Y248082D03*
D112*
X155974Y248082D03*
D113*
X192377Y248082D03*
X212622Y248082D03*
D12*
X70710Y248471D03*
D99*
X103609Y248471D03*
D79*
X155390Y248471D03*
D72*
X191793Y248471D03*
D73*
X213011Y248471D03*
D12*
X71100Y248861D03*
D130*
X103025Y248861D03*
D94*
X155001Y248861D03*
D82*
X191403Y248861D03*
D73*
X213401Y248861D03*
D24*
X71294Y249250D03*
D87*
X102636Y249250D03*
D114*
X154417Y249250D03*
D113*
X190819Y249250D03*
D114*
X213984Y249250D03*
D42*
X71684Y249639D03*
D82*
X102246Y249639D03*
D123*
X154027Y249639D03*
D73*
X190430Y249639D03*
D123*
X214374Y249639D03*
D24*
X72073Y250029D03*
D75*
X101662Y250029D03*
D114*
X153638Y250029D03*
D113*
X190041Y250029D03*
D77*
X214958Y250029D03*
D27*
X72073Y250418D03*
D130*
X101078Y250418D03*
D123*
X152859Y250418D03*
D73*
X189651Y250418D03*
D110*
X215931Y250418D03*
D42*
X72462Y250807D03*
D82*
X100300Y250807D03*
D73*
X152275Y250807D03*
X189262Y250807D03*
D86*
X216515Y250807D03*
D44*
X72462Y251197D03*
D17*
X99910Y251197D03*
D114*
X151691Y251197D03*
D113*
X188873Y251197D03*
D98*
X216904Y251197D03*
D42*
X72852Y251586D03*
D72*
X99521Y251586D03*
D60*
X151302Y251586D03*
D72*
X188289Y251586D03*
D115*
X217683Y251586D03*
D42*
X72852Y251975D03*
D72*
X98742Y251975D03*
D73*
X150718Y251975D03*
D72*
X187899Y251975D03*
D95*
X218267Y251975D03*
D26*
X73046Y252365D03*
D87*
X98353Y252365D03*
D112*
X150134Y252365D03*
D37*
X187315Y252365D03*
D101*
X219435Y252365D03*
D27*
X73241Y252754D03*
D72*
X97964Y252754D03*
D73*
X149550Y252754D03*
D62*
X186926Y252754D03*
D23*
X220019Y252754D03*
D26*
X73436Y253143D03*
D87*
X97185Y253143D03*
D112*
X148966Y253143D03*
D37*
X186537Y253143D03*
D109*
X220603Y253143D03*
D42*
X73630Y253533D03*
D73*
X96601Y253533D03*
D94*
X148382Y253533D03*
D72*
X186342Y253533D03*
D86*
X220798Y253533D03*
D12*
X73825Y253922D03*
D73*
X96212Y253922D03*
D60*
X147798Y253922D03*
D72*
X185953Y253922D03*
D79*
X221187Y253922D03*
D24*
X74020Y254311D03*
D17*
X95628Y254311D03*
D114*
X147409Y254311D03*
D87*
X185563Y254311D03*
D85*
X221382Y254311D03*
D27*
X74020Y254701D03*
D82*
X95238Y254701D03*
D60*
X146630Y254701D03*
D72*
X185174Y254701D03*
D84*
X221382Y254701D03*
D44*
X74409Y255090D03*
D17*
X94849Y255090D03*
D112*
X146241Y255090D03*
D113*
X184590Y255090D03*
D92*
X221187Y255090D03*
D42*
X74409Y255479D03*
D73*
X94265Y255479D03*
X145657Y255479D03*
D72*
X184006Y255479D03*
D91*
X221187Y255479D03*
D64*
X74604Y255869D03*
D73*
X93486Y255869D03*
D123*
X145073Y255869D03*
D82*
X183617Y255869D03*
D90*
X220992Y255869D03*
D44*
X74798Y256258D03*
D113*
X93097Y256258D03*
X144489Y256258D03*
D87*
X183227Y256258D03*
D101*
X220992Y256258D03*
D42*
X74798Y256647D03*
D73*
X92708Y256647D03*
D76*
X143905Y256647D03*
D130*
X182838Y256647D03*
D45*
X220798Y256647D03*
D42*
X74798Y257037D03*
D73*
X92318Y257037D03*
X143321Y257037D03*
D82*
X182449Y257037D03*
D72*
X218656Y257037D03*
D22*
X222744Y257037D03*
D44*
X74798Y257426D03*
D17*
X91734Y257426D03*
D141*
X142737Y257426D03*
D87*
X182059Y257426D03*
D37*
X218462Y257426D03*
D87*
X222939Y257426D03*
D12*
X74993Y257815D03*
D82*
X91345Y257815D03*
D60*
X142347Y257815D03*
D82*
X181670Y257815D03*
D22*
X218072Y257815D03*
X223134Y257815D03*
D24*
X75188Y258205D03*
D17*
X90956Y258205D03*
D75*
X141763Y258205D03*
D87*
X181281Y258205D03*
D37*
X217683Y258205D03*
X223134Y258205D03*
D27*
X75188Y258594D03*
D73*
X90372Y258594D03*
D60*
X141179Y258594D03*
D130*
X180891Y258594D03*
D22*
X217294Y258594D03*
D12*
X223328Y258594D03*
X75382Y258983D03*
D72*
X89788Y258983D03*
D76*
X140790Y258983D03*
D82*
X180502Y258983D03*
D62*
X216904Y258983D03*
X223523Y258983D03*
D26*
X75382Y259373D03*
D87*
X89398Y259373D03*
D114*
X140401Y259373D03*
D87*
X180113Y259373D03*
D37*
X216515Y259373D03*
D26*
X223718Y259373D03*
D62*
X75577Y259762D03*
D73*
X88814Y259762D03*
X139817Y259762D03*
D72*
X179723Y259762D03*
D22*
X216126Y259762D03*
D12*
X223718Y259762D03*
D120*
X75577Y260151D03*
D113*
X88036Y260151D03*
X139427Y260151D03*
D17*
X179334Y260151D03*
D37*
X215736Y260151D03*
D26*
X224107Y260151D03*
D62*
X75577Y260541D03*
D73*
X87646Y260541D03*
X138649Y260541D03*
D82*
X178945Y260541D03*
D12*
X215542Y260541D03*
X224107Y260541D03*
D72*
X75772Y260930D03*
X87062Y260930D03*
D73*
X138259Y260930D03*
X178361Y260930D03*
D12*
X215152Y260930D03*
D64*
X224496Y260930D03*
D17*
X75772Y261319D03*
D113*
X86478Y261319D03*
D87*
X137675Y261319D03*
D17*
X177777Y261319D03*
D26*
X214763Y261319D03*
D37*
X224691Y261319D03*
D72*
X75772Y261709D03*
D73*
X85700Y261709D03*
X137091Y261709D03*
D72*
X177387Y261709D03*
D12*
X214374Y261709D03*
D22*
X225080Y261709D03*
D17*
X75772Y262098D03*
X85116Y262098D03*
D113*
X136702Y262098D03*
D87*
X176998Y262098D03*
D37*
X214179Y262098D03*
D17*
X225275Y262098D03*
D73*
X75966Y262487D03*
D72*
X84337Y262487D03*
D73*
X136313Y262487D03*
D22*
X176803Y262487D03*
D64*
X213984Y262487D03*
D72*
X225664Y262487D03*
D73*
X75966Y262877D03*
X83753Y262877D03*
X135923Y262877D03*
D22*
X176414Y262877D03*
D12*
X213595Y262877D03*
D73*
X225859Y262877D03*
D113*
X75966Y263266D03*
D75*
X83364Y263266D03*
D17*
X135339Y263266D03*
D37*
X176025Y263266D03*
D26*
X213206Y263266D03*
D113*
X226248Y263266D03*
D73*
X75966Y263655D03*
D130*
X82780Y263655D03*
D73*
X134755Y263655D03*
D72*
X175441Y263655D03*
D12*
X212817Y263655D03*
D73*
X226638Y263655D03*
X75966Y264045D03*
D82*
X82390Y264045D03*
X133782Y264045D03*
X175051Y264045D03*
D12*
X212427Y264045D03*
D73*
X227027Y264045D03*
D113*
X75966Y264434D03*
X81806Y264434D03*
D17*
X133003Y264434D03*
D37*
X174467Y264434D03*
X212232Y264434D03*
D114*
X227222Y264434D03*
D123*
X76161Y264823D03*
D76*
X81222Y264823D03*
D82*
X132614Y264823D03*
D22*
X174078Y264823D03*
D64*
X212038Y264823D03*
D79*
X227416Y264823D03*
D63*
X78302Y265213D03*
D17*
X132225Y265213D03*
D26*
X173883Y265213D03*
D37*
X211454Y265213D03*
D113*
X228195Y265213D03*
D58*
X78108Y265602D03*
D22*
X131641Y265602D03*
D12*
X173494Y265602D03*
D62*
X211065Y265602D03*
D123*
X228779Y265602D03*
D21*
X77913Y265991D03*
D72*
X131057Y265991D03*
D22*
X172910Y265991D03*
X210675Y265991D03*
D79*
X229363Y265991D03*
D103*
X77524Y266381D03*
D17*
X130278Y266381D03*
D26*
X172326Y266381D03*
X210481Y266381D03*
D13*
X229752Y266381D03*
D41*
X77329Y266770D03*
D82*
X129889Y266770D03*
D12*
X171937Y266770D03*
D64*
X210091Y266770D03*
D110*
X230336Y266770D03*
D105*
X77134Y267159D03*
D120*
X129305Y267159D03*
D26*
X171547Y267159D03*
X209702Y267159D03*
D106*
X231115Y267159D03*
D95*
X76940Y267549D03*
D72*
X128721Y267549D03*
D82*
X171158Y267549D03*
D12*
X209313Y267549D03*
D21*
X232867Y267549D03*
D115*
X76745Y267938D03*
D72*
X128332Y267938D03*
X170769Y267938D03*
D62*
X209118Y267938D03*
D67*
X234814Y267938D03*
D98*
X76745Y268327D03*
D87*
X127942Y268327D03*
D37*
X170185Y268327D03*
X208729Y268327D03*
D142*
X235398Y268327D03*
D95*
X76940Y268717D03*
D72*
X127553Y268717D03*
D62*
X169795Y268717D03*
D12*
X208534Y268717D03*
D134*
X235787Y268717D03*
D86*
X77913Y269106D03*
D143*
X126969Y269106D03*
D22*
X169406Y269106D03*
D64*
X208145Y269106D03*
D132*
X236176Y269106D03*
D124*
X78886Y269495D03*
D17*
X126385Y269495D03*
D37*
X169017Y269495D03*
D26*
X207755Y269495D03*
D47*
X236566Y269495D03*
D94*
X79860Y269885D03*
D82*
X125996Y269885D03*
X168433Y269885D03*
D12*
X207366Y269885D03*
D83*
X236955Y269885D03*
D77*
X80638Y270274D03*
D113*
X125412Y270274D03*
D17*
X168043Y270274D03*
D26*
X206977Y270274D03*
D48*
X237539Y270274D03*
D76*
X81222Y270663D03*
D72*
X124828Y270663D03*
D22*
X167459Y270663D03*
D12*
X206587Y270663D03*
D23*
X238318Y270663D03*
D73*
X81806Y271053D03*
X124244Y271053D03*
D64*
X166875Y271053D03*
X206198Y271053D03*
D86*
X238707Y271053D03*
D75*
X82585Y271442D03*
X123465Y271442D03*
D37*
X166681Y271442D03*
D44*
X206003Y271442D03*
D124*
X238902Y271442D03*
D76*
X83169Y271831D03*
D99*
X123076Y271831D03*
D82*
X166486Y271831D03*
D27*
X205614Y271831D03*
D86*
X239096Y271831D03*
D113*
X83753Y272221D03*
D37*
X122686Y272221D03*
D120*
X165902Y272221D03*
D26*
X205030Y272221D03*
D109*
X238902Y272221D03*
D73*
X84532Y272610D03*
D78*
X122297Y272610D03*
D22*
X165513Y272610D03*
X204446Y272610D03*
D90*
X238902Y272610D03*
D73*
X84921Y272999D03*
D82*
X121713Y272999D03*
D22*
X165123Y272999D03*
D64*
X204251Y272999D03*
D100*
X238902Y272999D03*
D112*
X85505Y273389D03*
D74*
X121129Y273389D03*
D87*
X164539Y273389D03*
D26*
X203862Y273389D03*
D36*
X238707Y273389D03*
D73*
X86089Y273778D03*
D82*
X120545Y273778D03*
D62*
X163955Y273778D03*
D22*
X203667Y273778D03*
D64*
X236176Y273778D03*
D99*
X240654Y273778D03*
D82*
X86673Y274167D03*
D72*
X120156Y274167D03*
D22*
X163566Y274167D03*
D62*
X203278Y274167D03*
D12*
X235787Y274167D03*
D82*
X240848Y274167D03*
D113*
X87257Y274557D03*
D17*
X119766Y274557D03*
D37*
X163177Y274557D03*
D74*
X202889Y274557D03*
D26*
X235398Y274557D03*
D74*
X241432Y274557D03*
D123*
X87452Y274946D03*
D72*
X118988Y274946D03*
D78*
X162787Y274946D03*
D64*
X202694Y274946D03*
D12*
X235008Y274946D03*
D82*
X241627Y274946D03*
D113*
X87646Y275335D03*
D87*
X118598Y275335D03*
X162203Y275335D03*
D102*
X202305Y275335D03*
D26*
X234619Y275335D03*
D37*
X241822Y275335D03*
D73*
X88036Y275725D03*
D72*
X117820Y275725D03*
D82*
X161814Y275725D03*
D64*
X201915Y275725D03*
D22*
X234424Y275725D03*
D78*
X242211Y275725D03*
D73*
X88425Y276114D03*
D82*
X117430Y276114D03*
X161425Y276114D03*
D64*
X201526Y276114D03*
D22*
X234035Y276114D03*
D78*
X242600Y276114D03*
D113*
X88814Y276503D03*
X116846Y276503D03*
D37*
X161230Y276503D03*
D144*
X201331Y276503D03*
D37*
X233646Y276503D03*
X242990Y276503D03*
D72*
X89009Y276893D03*
D73*
X116457Y276893D03*
D78*
X160841Y276893D03*
D64*
X200747Y276893D03*
D12*
X233451Y276893D03*
D82*
X243184Y276893D03*
D37*
X89204Y277282D03*
D17*
X115873Y277282D03*
D87*
X160257Y277282D03*
D74*
X200163Y277282D03*
D26*
X233062Y277282D03*
D37*
X243379Y277282D03*
D82*
X89398Y277671D03*
X115484Y277671D03*
X159867Y277671D03*
D12*
X199969Y277671D03*
D22*
X232867Y277671D03*
D62*
X243768Y277671D03*
D72*
X89788Y278061D03*
D82*
X114705Y278061D03*
D62*
X159283Y278061D03*
D64*
X199579Y278061D03*
D22*
X232478Y278061D03*
X244158Y278061D03*
D17*
X89788Y278450D03*
D120*
X114121Y278450D03*
D37*
X158894Y278450D03*
X199385Y278450D03*
X232088Y278450D03*
D120*
X244547Y278450D03*
D72*
X90177Y278839D03*
D22*
X113732Y278839D03*
X158505Y278839D03*
X198995Y278839D03*
X231699Y278839D03*
D72*
X244742Y278839D03*
X90177Y279229D03*
D22*
X113342Y279229D03*
D82*
X157921Y279229D03*
D62*
X198606Y279229D03*
X231310Y279229D03*
D82*
X245131Y279229D03*
D87*
X90566Y279618D03*
X112758Y279618D03*
D17*
X157531Y279618D03*
D37*
X198217Y279618D03*
X230920Y279618D03*
D17*
X245520Y279618D03*
D82*
X90566Y280007D03*
D73*
X112174Y280007D03*
D22*
X156947Y280007D03*
X197827Y280007D03*
X230531Y280007D03*
D143*
X246104Y280007D03*
D37*
X90761Y280397D03*
D17*
X111201Y280397D03*
D37*
X156558Y280397D03*
X197438Y280397D03*
D17*
X230336Y280397D03*
X246688Y280397D03*
D72*
X90956Y280786D03*
D82*
X110812Y280786D03*
D22*
X156169Y280786D03*
X197049Y280786D03*
D82*
X229947Y280786D03*
D123*
X247078Y280786D03*
D22*
X91150Y281175D03*
D72*
X110422Y281175D03*
D22*
X155779Y281175D03*
D12*
X196854Y281175D03*
D22*
X229752Y281175D03*
D94*
X247662Y281175D03*
D37*
X91150Y281565D03*
D17*
X110033Y281565D03*
D26*
X155195Y281565D03*
D37*
X196270Y281565D03*
D120*
X229363Y281565D03*
D13*
X248051Y281565D03*
D22*
X91150Y281954D03*
D82*
X109644Y281954D03*
D22*
X154611Y281954D03*
X195881Y281954D03*
D12*
X229168Y281954D03*
D79*
X248440Y281954D03*
D87*
X91345Y282343D03*
D113*
X109060Y282343D03*
D37*
X154222Y282343D03*
X195491Y282343D03*
X228974Y282343D03*
D13*
X249219Y282343D03*
D22*
X91540Y282733D03*
D73*
X108281Y282733D03*
D22*
X153833Y282733D03*
X195102Y282733D03*
X228584Y282733D03*
D20*
X249803Y282733D03*
D22*
X91540Y283122D03*
D73*
X107892Y283122D03*
D72*
X153638Y283122D03*
D62*
X194713Y283122D03*
D22*
X228195Y283122D03*
D86*
X250776Y283122D03*
D37*
X91540Y283511D03*
D17*
X107308Y283511D03*
X153249Y283511D03*
D37*
X194323Y283511D03*
X227806Y283511D03*
D40*
X251750Y283511D03*
D62*
X91929Y283901D03*
D82*
X106918Y283901D03*
X152859Y283901D03*
D12*
X194129Y283901D03*
D62*
X227416Y283901D03*
D34*
X255448Y283901D03*
D120*
X91929Y284290D03*
D17*
X106529Y284290D03*
D37*
X152275Y284290D03*
D102*
X193739Y284290D03*
D37*
X227027Y284290D03*
D128*
X255838Y284290D03*
D62*
X91929Y284679D03*
D73*
X105945Y284679D03*
D62*
X151497Y284679D03*
D12*
X193350Y284679D03*
D22*
X226638Y284679D03*
D53*
X256032Y284679D03*
D12*
X92124Y285069D03*
D72*
X105361Y285069D03*
D22*
X151107Y285069D03*
X193155Y285069D03*
X226638Y285069D03*
D32*
X256616Y285069D03*
D26*
X92124Y285458D03*
D113*
X104777Y285458D03*
D37*
X150718Y285458D03*
D120*
X192766Y285458D03*
D102*
X226443Y285458D03*
D69*
X257006Y285458D03*
D22*
X92318Y285847D03*
D73*
X104388Y285847D03*
D22*
X150329Y285847D03*
D12*
X192571Y285847D03*
X226054Y285847D03*
D134*
X257590Y285847D03*
D22*
X92318Y286237D03*
D73*
X103998Y286237D03*
D22*
X149939Y286237D03*
D12*
X192182Y286237D03*
D62*
X225470Y286237D03*
D28*
X258174Y286237D03*
D26*
X92513Y286626D03*
D75*
X103609Y286626D03*
D120*
X149550Y286626D03*
D102*
X191793Y286626D03*
D17*
X225275Y286626D03*
D63*
X258952Y286626D03*
D12*
X92513Y287015D03*
D130*
X103025Y287015D03*
D22*
X149161Y287015D03*
X191209Y287015D03*
D82*
X224886Y287015D03*
D33*
X259342Y287015D03*
D26*
X92513Y287405D03*
D113*
X102052Y287405D03*
D37*
X148771Y287405D03*
D120*
X190819Y287405D03*
D37*
X224691Y287405D03*
D118*
X259536Y287405D03*
D12*
X92513Y287794D03*
D76*
X101468Y287794D03*
D22*
X148382Y287794D03*
X190430Y287794D03*
X224302Y287794D03*
D104*
X259731Y287794D03*
D12*
X92513Y288183D03*
D60*
X101078Y288183D03*
D22*
X147993Y288183D03*
D12*
X190235Y288183D03*
X224107Y288183D03*
D33*
X259731Y288183D03*
D26*
X92513Y288573D03*
D75*
X100494Y288573D03*
D120*
X147603Y288573D03*
D102*
X189846Y288573D03*
D26*
X223718Y288573D03*
D43*
X259536Y288573D03*
D12*
X92513Y288962D03*
D73*
X100105Y288962D03*
D22*
X147214Y288962D03*
D12*
X189457Y288962D03*
D62*
X223523Y288962D03*
D83*
X259536Y288962D03*
D37*
X92708Y289351D03*
D13*
X99326Y289351D03*
D37*
X146825Y289351D03*
D26*
X189067Y289351D03*
D37*
X223134Y289351D03*
D63*
X259342Y289351D03*
D22*
X92708Y289741D03*
D60*
X98742Y289741D03*
D22*
X146435Y289741D03*
D12*
X188678Y289741D03*
D22*
X222744Y289741D03*
D82*
X256811Y289741D03*
D60*
X261483Y289741D03*
D22*
X92708Y290130D03*
D60*
X97964Y290130D03*
D22*
X146046Y290130D03*
D12*
X188289Y290130D03*
D78*
X222355Y290130D03*
D72*
X256422Y290130D03*
D76*
X261872Y290130D03*
D37*
X92708Y290519D03*
D114*
X97574Y290519D03*
D37*
X145267Y290519D03*
D26*
X187899Y290519D03*
D74*
X221966Y290519D03*
D17*
X256032Y290519D03*
D75*
X262067Y290519D03*
D21*
X95044Y290909D03*
D22*
X144878Y290909D03*
D12*
X187510Y290909D03*
D64*
X221771Y290909D03*
D82*
X255643Y290909D03*
X262262Y290909D03*
D50*
X94849Y291298D03*
D22*
X144489Y291298D03*
D62*
X186926Y291298D03*
D22*
X221576Y291298D03*
D72*
X255254Y291298D03*
D82*
X262262Y291298D03*
D48*
X94654Y291687D03*
D17*
X143905Y291687D03*
D37*
X186537Y291687D03*
D74*
X221187Y291687D03*
D37*
X255059Y291687D03*
D74*
X262456Y291687D03*
D45*
X94265Y292077D03*
D82*
X143515Y292077D03*
D62*
X186147Y292077D03*
D82*
X220992Y292077D03*
D22*
X254670Y292077D03*
D82*
X262651Y292077D03*
D40*
X94070Y292466D03*
D87*
X143126Y292466D03*
D37*
X185758Y292466D03*
D87*
X220603Y292466D03*
D120*
X254280Y292466D03*
X262846Y292466D03*
D41*
X94070Y292855D03*
D82*
X142737Y292855D03*
D12*
X185563Y292855D03*
D78*
X220019Y292855D03*
D22*
X253891Y292855D03*
D12*
X263040Y292855D03*
D41*
X94070Y293245D03*
D130*
X142347Y293245D03*
D64*
X185174Y293245D03*
D22*
X219630Y293245D03*
X253502Y293245D03*
X263235Y293245D03*
D40*
X94070Y293634D03*
D87*
X141569Y293634D03*
D26*
X184785Y293634D03*
X219435Y293634D03*
D17*
X253307Y293634D03*
D26*
X263430Y293634D03*
D45*
X94265Y294023D03*
D82*
X141179Y294023D03*
D12*
X184395Y294023D03*
D22*
X219240Y294023D03*
X253112Y294023D03*
X263624Y294023D03*
D48*
X94654Y294413D03*
D75*
X140595Y294413D03*
D26*
X184006Y294413D03*
D17*
X219046Y294413D03*
D37*
X252723Y294413D03*
X264014Y294413D03*
D21*
X95044Y294802D03*
D72*
X140011Y294802D03*
D12*
X183617Y294802D03*
D72*
X218656Y294802D03*
X252528Y294802D03*
D12*
X264208Y294802D03*
D21*
X95433Y295191D03*
D82*
X139622Y295191D03*
D64*
X183227Y295191D03*
D82*
X218267Y295191D03*
D72*
X252139Y295191D03*
D12*
X264598Y295191D03*
D25*
X95822Y295581D03*
D113*
X139427Y295581D03*
D102*
X182838Y295581D03*
D17*
X217878Y295581D03*
D87*
X251750Y295581D03*
D26*
X264987Y295581D03*
D21*
X96212Y295970D03*
D73*
X138649Y295970D03*
D78*
X182643Y295970D03*
D22*
X217683Y295970D03*
X251555Y295970D03*
D12*
X265376Y295970D03*
D54*
X96990Y296359D03*
D73*
X138259Y296359D03*
D22*
X182254Y296359D03*
D82*
X217488Y296359D03*
D22*
X251166Y296359D03*
X265960Y296359D03*
D43*
X97574Y296749D03*
D113*
X137870Y296749D03*
D74*
X181865Y296749D03*
D17*
X217099Y296749D03*
D87*
X250971Y296749D03*
X266155Y296749D03*
D83*
X97964Y297138D03*
D73*
X137481Y297138D03*
D22*
X181475Y297138D03*
D72*
X216710Y297138D03*
X250582Y297138D03*
X266544Y297138D03*
D43*
X98353Y297527D03*
D114*
X136897Y297527D03*
D80*
X180891Y297527D03*
D87*
X216320Y297527D03*
D17*
X250192Y297527D03*
D120*
X266739Y297527D03*
D56*
X98742Y297917D03*
D73*
X136313Y297917D03*
D82*
X180502Y297917D03*
D73*
X216126Y297917D03*
D82*
X249803Y297917D03*
D22*
X267128Y297917D03*
D56*
X99521Y298306D03*
D82*
X135729Y298306D03*
X180113Y298306D03*
D72*
X215931Y298306D03*
D22*
X249608Y298306D03*
D72*
X267712Y298306D03*
D31*
X99716Y298695D03*
D17*
X135339Y298695D03*
D37*
X179918Y298695D03*
D87*
X215542Y298695D03*
D102*
X249414Y298695D03*
D87*
X268102Y298695D03*
D29*
X100300Y299085D03*
D72*
X134950Y299085D03*
D62*
X179529Y299085D03*
D73*
X215347Y299085D03*
D22*
X249219Y299085D03*
D72*
X268491Y299085D03*
D107*
X100689Y299474D03*
D113*
X134755Y299474D03*
D37*
X179139Y299474D03*
D113*
X214958Y299474D03*
D37*
X248830Y299474D03*
D113*
X269075Y299474D03*
D104*
X100884Y299863D03*
D73*
X134366Y299863D03*
D22*
X178750Y299863D03*
D73*
X214568Y299863D03*
D62*
X248440Y299863D03*
D73*
X269464Y299863D03*
D104*
X101273Y300253D03*
D73*
X133977Y300253D03*
D82*
X178166Y300253D03*
D73*
X214179Y300253D03*
D72*
X248246Y300253D03*
D123*
X270048Y300253D03*
D107*
X101857Y300642D03*
D17*
X133393Y300642D03*
X177777Y300642D03*
D114*
X213984Y300642D03*
D87*
X247856Y300642D03*
D113*
X270632Y300642D03*
D100*
X102246Y301031D03*
D73*
X132809Y301031D03*
D72*
X177387Y301031D03*
D73*
X213790Y301031D03*
D22*
X247662Y301031D03*
D73*
X271022Y301031D03*
D100*
X102636Y301421D03*
D73*
X132420Y301421D03*
D22*
X177193Y301421D03*
D73*
X213401Y301421D03*
D72*
X247467Y301421D03*
D94*
X271800Y301421D03*
D122*
X102830Y301810D03*
D113*
X132030Y301810D03*
D37*
X176803Y301810D03*
D113*
X213011Y301810D03*
D87*
X247078Y301810D03*
D124*
X272774Y301810D03*
D95*
X103025Y302199D03*
D73*
X131641Y302199D03*
D22*
X176414Y302199D03*
D73*
X212622Y302199D03*
D22*
X246883Y302199D03*
D95*
X273552Y302199D03*
D109*
X103414Y302589D03*
D113*
X131252Y302589D03*
D17*
X175830Y302589D03*
D112*
X212427Y302589D03*
D120*
X246494Y302589D03*
D106*
X274331Y302589D03*
D90*
X103804Y302978D03*
D73*
X130862Y302978D03*
X175246Y302978D03*
D60*
X212038Y302978D03*
D72*
X246299Y302978D03*
D41*
X275110Y302978D03*
D121*
X104388Y303367D03*
D73*
X130473Y303367D03*
D82*
X175051Y303367D03*
D123*
X211649Y303367D03*
D22*
X246104Y303367D03*
D119*
X276472Y303367D03*
D88*
X104777Y303757D03*
D113*
X129694Y303757D03*
D17*
X174662Y303757D03*
D113*
X211454Y303757D03*
D120*
X245715Y303757D03*
D118*
X277835Y303757D03*
D115*
X105166Y304146D03*
D73*
X129305Y304146D03*
D82*
X174273Y304146D03*
D73*
X211065Y304146D03*
D22*
X245326Y304146D03*
D83*
X279003Y304146D03*
D98*
X105556Y304535D03*
D131*
X128916Y304535D03*
D17*
X173883Y304535D03*
D87*
X210481Y304535D03*
D37*
X245326Y304535D03*
D31*
X279587Y304535D03*
D20*
X105750Y304925D03*
D73*
X128137Y304925D03*
D72*
X173494Y304925D03*
X210091Y304925D03*
D22*
X244936Y304925D03*
D29*
X280171Y304925D03*
D20*
X106140Y305314D03*
D73*
X127748Y305314D03*
D82*
X173105Y305314D03*
D73*
X209897Y305314D03*
D62*
X244547Y305314D03*
D100*
X280560Y305314D03*
D114*
X106529Y305703D03*
D113*
X127358Y305703D03*
D17*
X172715Y305703D03*
D113*
X209507Y305703D03*
D17*
X244352Y305703D03*
D88*
X281534Y305703D03*
D123*
X106918Y306093D03*
D72*
X127164Y306093D03*
D82*
X172326Y306093D03*
D72*
X209313Y306093D03*
X243963Y306093D03*
D20*
X282118Y306093D03*
D112*
X106918Y306482D03*
D17*
X126774Y306482D03*
X171937Y306482D03*
X208923Y306482D03*
X243963Y306482D03*
D77*
X282312Y306482D03*
D60*
X107308Y306871D03*
D73*
X126190Y306871D03*
D72*
X171547Y306871D03*
D82*
X208534Y306871D03*
D72*
X243574Y306871D03*
D84*
X282507Y306871D03*
D73*
X107502Y307261D03*
X125801Y307261D03*
D82*
X171158Y307261D03*
D72*
X208145Y307261D03*
D82*
X243184Y307261D03*
D84*
X282507Y307261D03*
D113*
X107892Y307650D03*
D87*
X125217Y307650D03*
D113*
X170574Y307650D03*
D87*
X207755Y307650D03*
X242795Y307650D03*
D92*
X282702Y307650D03*
D72*
X108086Y308039D03*
X124828Y308039D03*
D82*
X170379Y308039D03*
D73*
X207561Y308039D03*
D78*
X242600Y308039D03*
D90*
X282507Y308039D03*
D73*
X108281Y308429D03*
D72*
X124438Y308429D03*
D62*
X169795Y308429D03*
D72*
X207366Y308429D03*
D78*
X242211Y308429D03*
D121*
X282312Y308429D03*
D17*
X108476Y308818D03*
D87*
X124049Y308818D03*
X169211Y308818D03*
D17*
X206977Y308818D03*
D74*
X242211Y308818D03*
D101*
X282118Y308818D03*
D22*
X108670Y309207D03*
D99*
X123465Y309207D03*
D72*
X168822Y309207D03*
D82*
X206587Y309207D03*
D22*
X241822Y309207D03*
D45*
X282312Y309207D03*
D37*
X109060Y309597D03*
D87*
X122881Y309597D03*
X168433Y309597D03*
D17*
X206198Y309597D03*
D87*
X241627Y309597D03*
D107*
X282118Y309597D03*
D64*
X109254Y309986D03*
D82*
X122492Y309986D03*
D73*
X167849Y309986D03*
D82*
X205809Y309986D03*
X241238Y309986D03*
D33*
X281923Y309986D03*
D64*
X109254Y310375D03*
D82*
X122102Y310375D03*
D73*
X167459Y310375D03*
X205614Y310375D03*
D22*
X241043Y310375D03*
D56*
X282118Y310375D03*
D26*
X109644Y310765D03*
D141*
X121713Y310765D03*
D113*
X167070Y310765D03*
X205225Y310765D03*
D74*
X240654Y310765D03*
D63*
X281923Y310765D03*
D27*
X109838Y311154D03*
D99*
X121129Y311154D03*
D73*
X166681Y311154D03*
D72*
X205030Y311154D03*
D78*
X240264Y311154D03*
D82*
X279392Y311154D03*
D123*
X284454Y311154D03*
D26*
X110033Y311543D03*
D75*
X120740Y311543D03*
D113*
X166291Y311543D03*
D37*
X204446Y311543D03*
D87*
X240070Y311543D03*
X279003Y311543D03*
D113*
X284648Y311543D03*
D42*
X110228Y311933D03*
D73*
X120350Y311933D03*
X165902Y311933D03*
D22*
X204057Y311933D03*
X239875Y311933D03*
D72*
X278614Y311933D03*
X284843Y311933D03*
D12*
X110422Y312322D03*
D72*
X119766Y312322D03*
D73*
X165513Y312322D03*
D22*
X203667Y312322D03*
X239486Y312322D03*
D72*
X278224Y312322D03*
X285232Y312322D03*
D24*
X110617Y312711D03*
D87*
X119377Y312711D03*
D113*
X165123Y312711D03*
D37*
X203667Y312711D03*
D120*
X239096Y312711D03*
D113*
X278030Y312711D03*
D37*
X285427Y312711D03*
D12*
X110812Y313101D03*
D72*
X118988Y313101D03*
D73*
X164734Y313101D03*
D82*
X203083Y313101D03*
D72*
X238902Y313101D03*
D73*
X277640Y313101D03*
D12*
X285622Y313101D03*
D42*
X111006Y313490D03*
D73*
X118404Y313490D03*
X164345Y313490D03*
D82*
X202694Y313490D03*
X238512Y313490D03*
D73*
X277640Y313490D03*
D22*
X285816Y313490D03*
D44*
X111006Y313879D03*
D113*
X118014Y313879D03*
X163955Y313879D03*
D75*
X202499Y313879D03*
D37*
X238318Y313879D03*
D113*
X277251Y313879D03*
D37*
X286206Y313879D03*
D64*
X111201Y314269D03*
D123*
X117430Y314269D03*
D73*
X163566Y314269D03*
D99*
X202110Y314269D03*
D22*
X237928Y314269D03*
D82*
X277056Y314269D03*
D22*
X286595Y314269D03*
D102*
X111201Y314658D03*
D13*
X116846Y314658D03*
D75*
X163177Y314658D03*
D80*
X201915Y314658D03*
D37*
X237928Y314658D03*
X276862Y314658D03*
D120*
X286984Y314658D03*
D64*
X111201Y315047D03*
D94*
X116457Y315047D03*
D99*
X162787Y315047D03*
D82*
X201526Y315047D03*
D22*
X237539Y315047D03*
D72*
X276667Y315047D03*
D27*
X287374Y315047D03*
D22*
X111396Y315437D03*
D79*
X116068Y315437D03*
D99*
X162398Y315437D03*
D82*
X201137Y315437D03*
D12*
X237344Y315437D03*
D72*
X276278Y315437D03*
D42*
X287763Y315437D03*
D43*
X113926Y315826D03*
D75*
X162009Y315826D03*
X200553Y315826D03*
D120*
X237150Y315826D03*
D37*
X276083Y315826D03*
X288152Y315826D03*
D21*
X113732Y316215D03*
D82*
X161425Y316215D03*
D99*
X200163Y316215D03*
D72*
X236955Y316215D03*
D82*
X275888Y316215D03*
D22*
X288542Y316215D03*
D29*
X113537Y316605D03*
D82*
X161035Y316605D03*
D130*
X199969Y316605D03*
D82*
X236566Y316605D03*
D73*
X275694Y316605D03*
D62*
X288931Y316605D03*
D48*
X113342Y316994D03*
D80*
X160646Y316994D03*
X199969Y316994D03*
D37*
X235982Y316994D03*
D113*
X275304Y316994D03*
D37*
X289320Y316994D03*
D45*
X113342Y317383D03*
D99*
X160451Y317383D03*
D72*
X199579Y317383D03*
D22*
X235592Y317383D03*
D82*
X275110Y317383D03*
D22*
X289710Y317383D03*
D48*
X112953Y317773D03*
D75*
X160062Y317773D03*
D87*
X199190Y317773D03*
D26*
X235398Y317773D03*
D17*
X274720Y317773D03*
D37*
X290099Y317773D03*
D41*
X112758Y318162D03*
D73*
X159673Y318162D03*
D72*
X198801Y318162D03*
D62*
X235203Y318162D03*
X274526Y318162D03*
D72*
X290683Y318162D03*
D41*
X112758Y318551D03*
D72*
X159089Y318551D03*
X198411Y318551D03*
X235008Y318551D03*
D22*
X274136Y318551D03*
D72*
X291072Y318551D03*
D105*
X112564Y318941D03*
D87*
X158699Y318941D03*
X198022Y318941D03*
X234619Y318941D03*
X273942Y318941D03*
D113*
X291656Y318941D03*
D95*
X113148Y319330D03*
D72*
X158310Y319330D03*
D22*
X197827Y319330D03*
X234424Y319330D03*
D72*
X273552Y319330D03*
D79*
X292824Y319330D03*
D106*
X113926Y319719D03*
D113*
X158115Y319719D03*
D17*
X197633Y319719D03*
D37*
X234035Y319719D03*
D87*
X273163Y319719D03*
D13*
X293213Y319719D03*
D86*
X114510Y320109D03*
D73*
X157726Y320109D03*
D82*
X197243Y320109D03*
D22*
X233646Y320109D03*
D82*
X273163Y320109D03*
D94*
X293603Y320109D03*
D115*
X114900Y320498D03*
D73*
X157337Y320498D03*
X196659Y320498D03*
D12*
X233451Y320498D03*
D72*
X272774Y320498D03*
D86*
X294381Y320498D03*
D88*
X115678Y320887D03*
D87*
X156753Y320887D03*
D113*
X196270Y320887D03*
D120*
X233256Y320887D03*
D17*
X272774Y320887D03*
D106*
X294965Y320887D03*
D20*
X116652Y321277D03*
D72*
X156363Y321277D03*
D123*
X196075Y321277D03*
D22*
X232867Y321277D03*
D72*
X272384Y321277D03*
D41*
X296133Y321277D03*
D13*
X117236Y321666D03*
D87*
X155974Y321666D03*
D113*
X195881Y321666D03*
D26*
X232672Y321666D03*
D37*
X272190Y321666D03*
D136*
X298664Y321666D03*
D20*
X117820Y322055D03*
D72*
X155585Y322055D03*
D82*
X195297Y322055D03*
D64*
X232283Y322055D03*
D22*
X271800Y322055D03*
D46*
X299248Y322055D03*
D123*
X118598Y322445D03*
D72*
X155195Y322445D03*
D73*
X195102Y322445D03*
D22*
X232088Y322445D03*
D72*
X271606Y322445D03*
D61*
X299832Y322445D03*
D112*
X119377Y322834D03*
D87*
X154806Y322834D03*
D113*
X194713Y322834D03*
D37*
X231699Y322834D03*
X271411Y322834D03*
D31*
X300221Y322834D03*
D60*
X119766Y323223D03*
D22*
X154222Y323223D03*
D72*
X194518Y323223D03*
D62*
X231310Y323223D03*
D82*
X271216Y323223D03*
D100*
X300805Y323223D03*
D60*
X120545Y323613D03*
D72*
X153638Y323613D03*
D82*
X194129Y323613D03*
D12*
X231115Y323613D03*
D72*
X270827Y323613D03*
D86*
X301779Y323613D03*
D114*
X121324Y324002D03*
D113*
X153443Y324002D03*
X193934Y324002D03*
D26*
X230726Y324002D03*
D17*
X270438Y324002D03*
D141*
X302363Y324002D03*
D76*
X121713Y324391D03*
D73*
X153054Y324391D03*
D82*
X193350Y324391D03*
D22*
X230531Y324391D03*
X270243Y324391D03*
D99*
X302557Y324391D03*
D87*
X122102Y324781D03*
D113*
X152665Y324781D03*
D17*
X192961Y324781D03*
D37*
X230142Y324781D03*
D26*
X270048Y324781D03*
D75*
X302557Y324781D03*
D82*
X122492Y325170D03*
D73*
X152275Y325170D03*
D72*
X192571Y325170D03*
D22*
X229752Y325170D03*
X269854Y325170D03*
D99*
X302557Y325170D03*
D78*
X123076Y325559D03*
D72*
X151691Y325559D03*
D82*
X192182Y325559D03*
D22*
X229752Y325559D03*
X269464Y325559D03*
D79*
X302557Y325559D03*
D87*
X123660Y325949D03*
D17*
X151302Y325949D03*
X191793Y325949D03*
D120*
X229363Y325949D03*
D87*
X269270Y325949D03*
D77*
X302557Y325949D03*
D22*
X123854Y326338D03*
D82*
X150913Y326338D03*
D73*
X191598Y326338D03*
D12*
X229168Y326338D03*
D82*
X269270Y326338D03*
D86*
X302557Y326338D03*
D37*
X124244Y326727D03*
D17*
X150523Y326727D03*
D87*
X191403Y326727D03*
D26*
X228779Y326727D03*
D17*
X268880Y326727D03*
D88*
X302557Y326727D03*
D62*
X124633Y327116D03*
D82*
X150134Y327116D03*
D72*
X191014Y327116D03*
D64*
X228390Y327116D03*
D73*
X268686Y327116D03*
D95*
X302752Y327116D03*
D22*
X125022Y327506D03*
D72*
X149745Y327506D03*
D22*
X190430Y327506D03*
D12*
X228000Y327506D03*
D72*
X268491Y327506D03*
D100*
X302752Y327506D03*
D26*
X125217Y327895D03*
D17*
X149355Y327895D03*
D87*
X190235Y327895D03*
D37*
X227806Y327895D03*
D87*
X268102Y327895D03*
D36*
X302947Y327895D03*
D64*
X125606Y328284D03*
D82*
X148966Y328284D03*
D72*
X189846Y328284D03*
D62*
X227416Y328284D03*
D73*
X267907Y328284D03*
D33*
X302557Y328284D03*
D12*
X125996Y328674D03*
D72*
X148577Y328674D03*
D82*
X189457Y328674D03*
D12*
X227222Y328674D03*
D72*
X267712Y328674D03*
D82*
X300416Y328674D03*
D72*
X305088Y328674D03*
D26*
X126385Y329063D03*
D87*
X148187Y329063D03*
D17*
X189067Y329063D03*
D26*
X226832Y329063D03*
D87*
X267323Y329063D03*
D75*
X300221Y329063D03*
D87*
X305477Y329063D03*
D12*
X126385Y329452D03*
D72*
X147798Y329452D03*
D73*
X188873Y329452D03*
D64*
X226443Y329452D03*
D22*
X267128Y329452D03*
D130*
X300027Y329452D03*
D22*
X305672Y329452D03*
D26*
X126774Y329842D03*
D17*
X147409Y329842D03*
D131*
X188483Y329842D03*
D37*
X226248Y329842D03*
D17*
X266934Y329842D03*
D74*
X299832Y329842D03*
D120*
X306061Y329842D03*
D12*
X127164Y330231D03*
D82*
X147019Y330231D03*
D73*
X188094Y330231D03*
D12*
X226054Y330231D03*
D62*
X266739Y330231D03*
D82*
X299637Y330231D03*
D22*
X306451Y330231D03*
D42*
X127358Y330620D03*
D72*
X146630Y330620D03*
D73*
X187705Y330620D03*
D12*
X225664Y330620D03*
D72*
X266544Y330620D03*
D22*
X299443Y330620D03*
D72*
X307035Y330620D03*
D26*
X127553Y331010D03*
D87*
X146241Y331010D03*
X187510Y331010D03*
D26*
X225275Y331010D03*
D87*
X266155Y331010D03*
D37*
X299053Y331010D03*
D87*
X307424Y331010D03*
D12*
X127942Y331399D03*
D72*
X145851Y331399D03*
X187121Y331399D03*
D27*
X225080Y331399D03*
D73*
X265960Y331399D03*
D62*
X298664Y331399D03*
D72*
X307813Y331399D03*
D26*
X127942Y331788D03*
D17*
X145462Y331788D03*
X186731Y331788D03*
D44*
X224691Y331788D03*
D17*
X265766Y331788D03*
D120*
X298664Y331788D03*
D17*
X308203Y331788D03*
D12*
X128332Y332178D03*
D82*
X145073Y332178D03*
D72*
X186342Y332178D03*
D42*
X224691Y332178D03*
D22*
X265571Y332178D03*
D72*
X298469Y332178D03*
D82*
X308592Y332178D03*
D12*
X128721Y332567D03*
D73*
X144489Y332567D03*
D72*
X185953Y332567D03*
D42*
X224302Y332567D03*
D82*
X265376Y332567D03*
X298080Y332567D03*
D94*
X309565Y332567D03*
D26*
X128721Y332956D03*
D113*
X144099Y332956D03*
D87*
X185563Y332956D03*
D24*
X223912Y332956D03*
D17*
X264987Y332956D03*
X297691Y332956D03*
D124*
X310149Y332956D03*
D12*
X129110Y333346D03*
D99*
X143710Y333346D03*
D72*
X185174Y333346D03*
D62*
X223523Y333346D03*
D73*
X264792Y333346D03*
D22*
X297496Y333346D03*
D110*
X310928Y333346D03*
D12*
X129110Y333735D03*
D82*
X143515Y333735D03*
X184785Y333735D03*
D22*
X223134Y333735D03*
D73*
X264403Y333735D03*
D12*
X297301Y333735D03*
D86*
X311512Y333735D03*
D44*
X129305Y334124D03*
D75*
X142931Y334124D03*
D17*
X184395Y334124D03*
D87*
X222939Y334124D03*
D113*
X264014Y334124D03*
D26*
X297301Y334124D03*
D106*
X312485Y334124D03*
D12*
X129500Y334514D03*
D130*
X142347Y334514D03*
D72*
X184006Y334514D03*
D22*
X222744Y334514D03*
D73*
X264014Y334514D03*
D22*
X297107Y334514D03*
D41*
X313264Y334514D03*
D24*
X129694Y334903D03*
D75*
X141763Y334903D03*
D113*
X183811Y334903D03*
D74*
X222355Y334903D03*
D113*
X263624Y334903D03*
D17*
X296912Y334903D03*
D145*
X316768Y334903D03*
D12*
X129889Y335292D03*
D73*
X141374Y335292D03*
D82*
X183617Y335292D03*
D64*
X222160Y335292D03*
D73*
X263235Y335292D03*
D72*
X296523Y335292D03*
D38*
X317741Y335292D03*
D12*
X129889Y335682D03*
D99*
X140985Y335682D03*
D82*
X183227Y335682D03*
D78*
X221966Y335682D03*
D72*
X263040Y335682D03*
X296523Y335682D03*
D53*
X318325Y335682D03*
D44*
X130084Y336071D03*
D141*
X140790Y336071D03*
D80*
X182838Y336071D03*
D37*
X221576Y336071D03*
D75*
X262846Y336071D03*
D87*
X296133Y336071D03*
D117*
X318715Y336071D03*
D64*
X130278Y336460D03*
D99*
X140206Y336460D03*
D82*
X182449Y336460D03*
D78*
X221187Y336460D03*
D82*
X262651Y336460D03*
X296133Y336460D03*
D68*
X319299Y336460D03*
D37*
X130473Y336850D03*
D113*
X139817Y336850D03*
D87*
X182059Y336850D03*
D37*
X220798Y336850D03*
D113*
X262456Y336850D03*
D17*
X295744Y336850D03*
D146*
X320272Y336850D03*
D12*
X130668Y337239D03*
D72*
X139233Y337239D03*
D82*
X181670Y337239D03*
D22*
X220798Y337239D03*
D82*
X262262Y337239D03*
D22*
X295549Y337239D03*
D29*
X321440Y337239D03*
D12*
X130668Y337628D03*
D72*
X138843Y337628D03*
D99*
X181475Y337628D03*
D78*
X220408Y337628D03*
D99*
X262067Y337628D03*
D82*
X295355Y337628D03*
D121*
X322413Y337628D03*
D26*
X131057Y338018D03*
D87*
X138454Y338018D03*
D75*
X181086Y338018D03*
D102*
X220214Y338018D03*
D75*
X261678Y338018D03*
D37*
X295160Y338018D03*
D106*
X322997Y338018D03*
D12*
X131057Y338407D03*
D72*
X138065Y338407D03*
D99*
X180697Y338407D03*
D64*
X219824Y338407D03*
D99*
X261678Y338407D03*
D62*
X294771Y338407D03*
D95*
X322997Y338407D03*
D12*
X131057Y338796D03*
D82*
X137675Y338796D03*
D99*
X180307Y338796D03*
D12*
X219435Y338796D03*
D99*
X261288Y338796D03*
D62*
X294771Y338796D03*
D95*
X322997Y338796D03*
D120*
X131252Y339186D03*
D113*
X137091Y339186D03*
X179918Y339186D03*
D37*
X219240Y339186D03*
D141*
X261094Y339186D03*
D37*
X294381Y339186D03*
D101*
X322997Y339186D03*
D12*
X131446Y339575D03*
D82*
X136507Y339575D03*
D73*
X179529Y339575D03*
D12*
X219046Y339575D03*
D60*
X260704Y339575D03*
D22*
X294381Y339575D03*
D100*
X322997Y339575D03*
D37*
X131641Y339964D03*
D17*
X136118Y339964D03*
X179334Y339964D03*
D26*
X218656Y339964D03*
D114*
X260704Y339964D03*
D37*
X293992Y339964D03*
D118*
X322997Y339964D03*
D29*
X133782Y340354D03*
D82*
X178945Y340354D03*
D12*
X218267Y340354D03*
D60*
X260315Y340354D03*
D22*
X293992Y340354D03*
D83*
X322997Y340354D03*
D41*
X133782Y340743D03*
D72*
X178555Y340743D03*
D64*
X217878Y340743D03*
D76*
X259926Y340743D03*
D22*
X293603Y340743D03*
D83*
X322997Y340743D03*
D105*
X133587Y341132D03*
D87*
X178166Y341132D03*
D102*
X217878Y341132D03*
D77*
X259731Y341132D03*
D37*
X293603Y341132D03*
D146*
X322997Y341132D03*
D95*
X133393Y341522D03*
D72*
X177777Y341522D03*
D12*
X217488Y341522D03*
D60*
X259536Y341522D03*
D22*
X293213Y341522D03*
D82*
X320272Y341522D03*
D94*
X325528Y341522D03*
D98*
X133198Y341911D03*
D17*
X177387Y341911D03*
D37*
X217294Y341911D03*
D114*
X259536Y341911D03*
D26*
X293019Y341911D03*
D87*
X319883Y341911D03*
D114*
X326112Y341911D03*
D115*
X133198Y342300D03*
D73*
X177193Y342300D03*
D22*
X217294Y342300D03*
D76*
X259147Y342300D03*
D62*
X292824Y342300D03*
D22*
X319688Y342300D03*
D60*
X326501Y342300D03*
D20*
X133004Y342690D03*
D73*
X176803Y342690D03*
D62*
X216904Y342690D03*
D73*
X258952Y342690D03*
D12*
X292630Y342690D03*
D82*
X319493Y342690D03*
D123*
X326891Y342690D03*
D124*
X133004Y343079D03*
D113*
X176414Y343079D03*
D87*
X216320Y343079D03*
D113*
X258563Y343079D03*
D26*
X292240Y343079D03*
D74*
X319299Y343079D03*
D114*
X327280Y343079D03*
D20*
X133004Y343468D03*
D73*
X176025Y343468D03*
D22*
X216126Y343468D03*
D73*
X258174Y343468D03*
D22*
X292045Y343468D03*
X318909Y343468D03*
D123*
X327669Y343468D03*
D98*
X133198Y343858D03*
D113*
X175635Y343858D03*
D37*
X215736Y343858D03*
D114*
X257979Y343858D03*
D102*
X291851Y343858D03*
D37*
X318909Y343858D03*
D114*
X328059Y343858D03*
D108*
X133587Y344247D03*
D73*
X175246Y344247D03*
D12*
X215542Y344247D03*
D73*
X257784Y344247D03*
D12*
X291462Y344247D03*
D22*
X318520Y344247D03*
D60*
X328448Y344247D03*
D21*
X134366Y344636D03*
D73*
X174857Y344636D03*
D12*
X215152Y344636D03*
D73*
X257395Y344636D03*
D22*
X291267Y344636D03*
X318520Y344636D03*
D94*
X329032Y344636D03*
D25*
X134366Y345026D03*
D17*
X174662Y345026D03*
D120*
X214958Y345026D03*
D114*
X257200Y345026D03*
D120*
X290878Y345026D03*
D87*
X318325Y345026D03*
D112*
X329616Y345026D03*
D74*
X498781Y345026D03*
D21*
X135145Y345415D03*
D82*
X174273Y345415D03*
D22*
X214568Y345415D03*
D60*
X257200Y345415D03*
D22*
X290488Y345415D03*
X318131Y345415D03*
D60*
X330005Y345415D03*
D79*
X498391Y345415D03*
D50*
X136897Y345804D03*
D72*
X173883Y345804D03*
D22*
X214179Y345804D03*
D123*
X256811Y345804D03*
D22*
X290488Y345804D03*
D72*
X317936Y345804D03*
D94*
X330589Y345804D03*
D90*
X498197Y345804D03*
D48*
X138259Y346194D03*
D17*
X173494Y346194D03*
D37*
X213790Y346194D03*
D114*
X256422Y346194D03*
D26*
X290294Y346194D03*
D120*
X317741Y346194D03*
D124*
X331563Y346194D03*
D36*
X498002Y346194D03*
D104*
X139427Y346583D03*
D82*
X173105Y346583D03*
D22*
X213400Y346583D03*
D79*
X256227Y346583D03*
D64*
X289904Y346583D03*
D22*
X317352Y346583D03*
D86*
X332536Y346583D03*
D46*
X497418Y346583D03*
D36*
X140206Y346972D03*
D113*
X172910Y346972D03*
D37*
X213400Y346972D03*
D13*
X255838Y346972D03*
D102*
X289904Y346972D03*
D37*
X317352Y346972D03*
D98*
X333315Y346972D03*
D93*
X497029Y346972D03*
D100*
X141179Y347362D03*
D73*
X172521Y347362D03*
D62*
X213011Y347362D03*
D123*
X255643Y347362D03*
D12*
X289515Y347362D03*
D22*
X316963Y347362D03*
D95*
X334288Y347362D03*
D32*
X496834Y347362D03*
D121*
X141763Y347751D03*
D73*
X172131Y347751D03*
D12*
X212817Y347751D03*
D94*
X255448Y347751D03*
D12*
X289126Y347751D03*
D64*
X316768Y347751D03*
D50*
X335845Y347751D03*
D147*
X496639Y347751D03*
D109*
X143126Y348140D03*
D17*
X171937Y348140D03*
D26*
X212427Y348140D03*
D13*
X255059Y348140D03*
D26*
X289126Y348140D03*
D37*
X316573Y348140D03*
D69*
X337987Y348140D03*
D25*
X493719Y348140D03*
D114*
X500922Y348140D03*
D86*
X143710Y348530D03*
D72*
X171547Y348530D03*
D64*
X212038Y348530D03*
D123*
X254864Y348530D03*
D12*
X288736Y348530D03*
X316379Y348530D03*
D148*
X340517Y348530D03*
D50*
X492357Y348530D03*
D72*
X501311Y348530D03*
D124*
X143905Y348919D03*
D87*
X171158Y348919D03*
D26*
X211649Y348919D03*
D13*
X254670Y348919D03*
D24*
X288542Y348919D03*
D37*
X316184Y348919D03*
D138*
X341491Y348919D03*
D52*
X491578Y348919D03*
D87*
X501701Y348919D03*
D94*
X144489Y349308D03*
D72*
X170769Y349308D03*
D12*
X211259Y349308D03*
D20*
X254475Y349308D03*
D12*
X288347Y349308D03*
X315989Y349308D03*
D34*
X341880Y349308D03*
D50*
X490410Y349308D03*
D72*
X502090Y349308D03*
D94*
X144878Y349698D03*
D82*
X170379Y349698D03*
D12*
X211259Y349698D03*
D79*
X254280Y349698D03*
D42*
X288152Y349698D03*
D62*
X315795Y349698D03*
D53*
X342464Y349698D03*
D21*
X489047Y349698D03*
D22*
X502285Y349698D03*
D124*
X145851Y350087D03*
D17*
X169990Y350087D03*
D26*
X210870Y350087D03*
D124*
X254086Y350087D03*
D102*
X287958Y350087D03*
D26*
X315600Y350087D03*
D117*
X343243Y350087D03*
D81*
X487879Y350087D03*
D37*
X502674Y350087D03*
D123*
X146241Y350476D03*
D73*
X169795Y350476D03*
D22*
X210675Y350476D03*
D20*
X253696Y350476D03*
D42*
X287763Y350476D03*
D22*
X315405Y350476D03*
D83*
X344800Y350476D03*
D54*
X487101Y350476D03*
D62*
X503063Y350476D03*
D60*
X146630Y350866D03*
D72*
X169601Y350866D03*
D12*
X210481Y350866D03*
D94*
X253502Y350866D03*
D27*
X287374Y350866D03*
D12*
X315211Y350866D03*
D20*
X346357Y350866D03*
D54*
X486322Y350866D03*
D22*
X503453Y350866D03*
D112*
X147019Y351255D03*
D87*
X169211Y351255D03*
D102*
X210091Y351255D03*
D111*
X253307Y351255D03*
D26*
X287179Y351255D03*
D37*
X315016Y351255D03*
D13*
X346941Y351255D03*
D81*
X485543Y351255D03*
D87*
X503647Y351255D03*
D60*
X147409Y351644D03*
D72*
X168822Y351644D03*
D12*
X209702Y351644D03*
D20*
X252918Y351644D03*
D42*
X286984Y351644D03*
D64*
X314821Y351644D03*
D94*
X347331Y351644D03*
D54*
X484375Y351644D03*
D72*
X504037Y351644D03*
D114*
X147798Y352034D03*
D87*
X168433Y352034D03*
D26*
X209313Y352034D03*
D124*
X252918Y352034D03*
D26*
X286790Y352034D03*
D37*
X314627Y352034D03*
D111*
X347525Y352034D03*
D31*
X483207Y352034D03*
D17*
X504037Y352034D03*
D94*
X148382Y352423D03*
D73*
X168238Y352423D03*
D12*
X208923Y352423D03*
D86*
X252723Y352423D03*
D12*
X286400Y352423D03*
X314432Y352423D03*
D115*
X347720Y352423D03*
D29*
X482234Y352423D03*
D82*
X504426Y352423D03*
D94*
X148771Y352812D03*
D73*
X167849Y352812D03*
D27*
X208729Y352812D03*
D115*
X252334Y352812D03*
D42*
X286206Y352812D03*
D22*
X314237Y352812D03*
D23*
X347720Y352812D03*
D33*
X481261Y352812D03*
D72*
X504815Y352812D03*
D112*
X148966Y353202D03*
D113*
X167459Y353202D03*
D44*
X208339Y353202D03*
D106*
X252139Y353202D03*
D102*
X286011Y353202D03*
D26*
X314043Y353202D03*
D40*
X347915Y353202D03*
D107*
X480287Y353202D03*
D120*
X505010Y353202D03*
D60*
X149355Y353591D03*
D82*
X167265Y353591D03*
D42*
X208339Y353591D03*
D95*
X251750Y353591D03*
D42*
X285816Y353591D03*
D12*
X313653Y353591D03*
D45*
X348109Y353591D03*
D29*
X479119Y353591D03*
D72*
X505205Y353591D03*
D114*
X149745Y353980D03*
D113*
X167070Y353980D03*
D44*
X207950Y353980D03*
D98*
X251555Y353980D03*
D26*
X285622Y353980D03*
X313653Y353980D03*
D25*
X348109Y353980D03*
D57*
X477951Y353980D03*
D87*
X505594Y353980D03*
D123*
X150134Y354370D03*
D73*
X166681Y354370D03*
D12*
X207755Y354370D03*
D95*
X251360Y354370D03*
D27*
X285427Y354370D03*
D12*
X313264Y354370D03*
D64*
X345579Y354370D03*
D79*
X350445Y354370D03*
D56*
X477173Y354370D03*
D22*
X505789Y354370D03*
D60*
X150523Y354759D03*
D73*
X166291Y354759D03*
D12*
X207366Y354759D03*
D115*
X251166Y354759D03*
D42*
X285038Y354759D03*
D12*
X313264Y354759D03*
D42*
X345384Y354759D03*
D94*
X350835Y354759D03*
D33*
X476199Y354759D03*
D22*
X506178Y354759D03*
D114*
X150523Y355148D03*
D113*
X165902Y355148D03*
D26*
X206977Y355148D03*
D124*
X250971Y355148D03*
D24*
X284648Y355148D03*
D44*
X313069Y355148D03*
D24*
X344995Y355148D03*
D124*
X351808Y355148D03*
D25*
X475421Y355148D03*
D37*
X506178Y355148D03*
D123*
X150913Y355538D03*
D73*
X165513Y355538D03*
D22*
X206782Y355538D03*
D20*
X250582Y355538D03*
D12*
X284454Y355538D03*
D64*
X312875Y355538D03*
D27*
X344995Y355538D03*
D95*
X352587Y355538D03*
D83*
X474447Y355538D03*
D22*
X506567Y355538D03*
D60*
X151302Y355927D03*
D123*
X165318Y355927D03*
D12*
X206587Y355927D03*
D20*
X250192Y355927D03*
D42*
X284259Y355927D03*
D64*
X312875Y355927D03*
D27*
X344995Y355927D03*
D100*
X353365Y355927D03*
D54*
X473474Y355927D03*
D62*
X506957Y355927D03*
D114*
X151691Y356316D03*
X164929Y356316D03*
D102*
X206198Y356316D03*
D88*
X249998Y356316D03*
D44*
X283870Y356316D03*
D26*
X312485Y356316D03*
X344800Y356316D03*
D52*
X354144Y356316D03*
D116*
X472111Y356316D03*
D37*
X507346Y356316D03*
D73*
X151886Y356706D03*
D123*
X164539Y356706D03*
D12*
X205809Y356706D03*
D115*
X249608Y356706D03*
D12*
X283675Y356706D03*
X312485Y356706D03*
X344800Y356706D03*
D58*
X354923Y356706D03*
D60*
X417605Y356706D03*
D54*
X471138Y356706D03*
D22*
X507735Y356706D03*
D17*
X152470Y357095D03*
D114*
X164150Y357095D03*
D26*
X205809Y357095D03*
D106*
X249414Y357095D03*
D24*
X283480Y357095D03*
X312291Y357095D03*
D44*
X344605Y357095D03*
D93*
X356091Y357095D03*
D43*
X418773Y357095D03*
D47*
X470165Y357095D03*
D17*
X507930Y357095D03*
D22*
X152665Y357484D03*
D60*
X163761Y357484D03*
D12*
X205419Y357484D03*
D115*
X249219Y357484D03*
D12*
X283286Y357484D03*
D42*
X311901Y357484D03*
X344605Y357484D03*
D149*
X358621Y357484D03*
D55*
X419941Y357484D03*
D54*
X468802Y357484D03*
D22*
X508125Y357484D03*
D82*
X152859Y357874D03*
D60*
X163371Y357874D03*
D12*
X205030Y357874D03*
D95*
X249024Y357874D03*
D12*
X283286Y357874D03*
D42*
X311901Y357874D03*
D27*
X344216Y357874D03*
D150*
X360568Y357874D03*
D34*
X420914Y357874D03*
D46*
X467829Y357874D03*
D22*
X508514Y357874D03*
D37*
X153054Y358263D03*
D141*
X162982Y358263D03*
D24*
X204835Y358263D03*
D106*
X248635Y358263D03*
D24*
X282702Y358263D03*
X311512Y358263D03*
X344216Y358263D03*
D151*
X361152Y358263D03*
D152*
X421888Y358263D03*
D133*
X466466Y358263D03*
D120*
X508903Y358263D03*
D22*
X153054Y358652D03*
D99*
X162787Y358652D03*
D12*
X204641Y358652D03*
D23*
X248440Y358652D03*
D12*
X282507Y358652D03*
D42*
X311123Y358652D03*
D27*
X344216Y358652D03*
D153*
X361541Y358652D03*
D154*
X423056Y358652D03*
D28*
X465298Y358652D03*
D155*
X496639Y358652D03*
D72*
X509098Y358652D03*
D120*
X153443Y359042D03*
D75*
X162398Y359042D03*
D102*
X204251Y359042D03*
D106*
X248246Y359042D03*
D26*
X282507Y359042D03*
D44*
X311123Y359042D03*
X343827Y359042D03*
D156*
X362125Y359042D03*
D157*
X424029Y359042D03*
D71*
X464130Y359042D03*
D158*
X496445Y359042D03*
D87*
X509487Y359042D03*
D72*
X153638Y359431D03*
D99*
X162009Y359431D03*
D12*
X203862Y359431D03*
D95*
X247856Y359431D03*
D64*
X282118Y359431D03*
D42*
X310733Y359431D03*
D64*
X343632Y359431D03*
D149*
X362904Y359431D03*
D159*
X424418Y359431D03*
D70*
X463157Y359431D03*
D12*
X496250Y359431D03*
D22*
X509682Y359431D03*
D82*
X154027Y359820D03*
D73*
X161619Y359820D03*
D27*
X203667Y359820D03*
D23*
X247662Y359820D03*
D42*
X281923Y359820D03*
X310733Y359820D03*
D64*
X343632Y359820D03*
D34*
X363683Y359820D03*
D160*
X424808Y359820D03*
D70*
X461989Y359820D03*
D123*
X495861Y359820D03*
D22*
X510071Y359820D03*
D87*
X154027Y360210D03*
D75*
X161230Y360210D03*
D26*
X203473Y360210D03*
D106*
X247467Y360210D03*
D102*
X281728Y360210D03*
D26*
X310539Y360210D03*
D44*
X343437Y360210D03*
D128*
X364461Y360210D03*
D24*
X415464Y360210D03*
D161*
X427338Y360210D03*
D93*
X461210Y360210D03*
D98*
X495666Y360210D03*
D87*
X510266Y360210D03*
D22*
X154222Y360599D03*
D99*
X160841Y360599D03*
D12*
X203083Y360599D03*
D140*
X247078Y360599D03*
D64*
X281339Y360599D03*
D27*
X310344Y360599D03*
D12*
X343243Y360599D03*
D55*
X365435Y360599D03*
D162*
X415269Y360599D03*
D127*
X429285Y360599D03*
D28*
X459847Y360599D03*
D45*
X495277Y360599D03*
D72*
X510655Y360599D03*
X154417Y360988D03*
D99*
X160451Y360988D03*
D64*
X202694Y360988D03*
D108*
X246883Y360988D03*
D163*
X281144Y360988D03*
D12*
X310149Y360988D03*
D27*
X343048Y360988D03*
D28*
X366019Y360988D03*
D27*
X415074Y360988D03*
D164*
X430648Y360988D03*
D28*
X458679Y360988D03*
D21*
X494887Y360988D03*
D72*
X511045Y360988D03*
D37*
X154611Y361378D03*
D75*
X160062Y361378D03*
D102*
X202305Y361378D03*
D122*
X246494Y361378D03*
D102*
X280950Y361378D03*
D44*
X309955Y361378D03*
D24*
X343048Y361378D03*
D25*
X367187Y361378D03*
D59*
X414880Y361378D03*
D122*
X432984Y361378D03*
D63*
X457511Y361378D03*
D47*
X494693Y361378D03*
D37*
X511239Y361378D03*
D82*
X154806Y361767D03*
D73*
X159673Y361767D03*
D64*
X202305Y361767D03*
D95*
X246299Y361767D03*
D42*
X280755Y361767D03*
D27*
X309565Y361767D03*
X343048Y361767D03*
D23*
X368355Y361767D03*
D15*
X414880Y361767D03*
D20*
X433568Y361767D03*
D61*
X456343Y361767D03*
D134*
X494303Y361767D03*
D22*
X511629Y361767D03*
D43*
X157531Y362156D03*
D102*
X201915Y362156D03*
D105*
X246104Y362156D03*
D102*
X280560Y362156D03*
D24*
X309565Y362156D03*
D44*
X342659Y362156D03*
D88*
X369133Y362156D03*
D44*
X414685Y362156D03*
D114*
X433957Y362156D03*
D63*
X455175Y362156D03*
D128*
X493719Y362156D03*
D37*
X512018Y362156D03*
D21*
X157337Y362546D03*
D64*
X201915Y362546D03*
D23*
X245715Y362546D03*
D64*
X280171Y362546D03*
D42*
X309176Y362546D03*
X342659Y362546D03*
D95*
X369328Y362546D03*
D42*
X414685Y362546D03*
D73*
X434152Y362546D03*
D21*
X454007Y362546D03*
X490994Y362546D03*
D82*
X498197Y362546D03*
D22*
X512018Y362546D03*
D119*
X157337Y362935D03*
D64*
X201526Y362935D03*
D41*
X245520Y362935D03*
D15*
X279782Y362935D03*
D42*
X309176Y362935D03*
X342659Y362935D03*
D41*
X369328Y362935D03*
D15*
X414490Y362935D03*
D22*
X434152Y362935D03*
D58*
X452645Y362935D03*
D50*
X489631Y362935D03*
D22*
X498391Y362935D03*
X512407Y362935D03*
D103*
X157337Y363324D03*
D102*
X201137Y363324D03*
D40*
X245131Y363324D03*
D44*
X279587Y363324D03*
D102*
X308981Y363324D03*
D24*
X342269Y363324D03*
D52*
X369717Y363324D03*
D59*
X414490Y363324D03*
D37*
X434152Y363324D03*
D81*
X451671Y363324D03*
D48*
X488269Y363324D03*
D87*
X498586Y363324D03*
D120*
X512797Y363324D03*
D23*
X157337Y363714D03*
D64*
X200747Y363714D03*
D41*
X244742Y363714D03*
D15*
X279392Y363714D03*
D12*
X308592Y363714D03*
D27*
X342269Y363714D03*
D12*
X366992Y363714D03*
D73*
X371859Y363714D03*
D27*
X414296Y363714D03*
D12*
X434346Y363714D03*
D132*
X450309Y363714D03*
D45*
X487490Y363714D03*
D78*
X498781Y363714D03*
D72*
X512991Y363714D03*
D106*
X157142Y364103D03*
D37*
X200553Y364103D03*
D40*
X244742Y364103D03*
D44*
X279198Y364103D03*
D26*
X308592Y364103D03*
X342075Y364103D03*
D37*
X366797Y364103D03*
D113*
X372248Y364103D03*
D24*
X414296Y364103D03*
D26*
X434346Y364103D03*
D47*
X449141Y364103D03*
D48*
X486322Y364103D03*
D87*
X498975Y364103D03*
D37*
X513186Y364103D03*
D95*
X157142Y364492D03*
D64*
X200358Y364492D03*
D23*
X244547Y364492D03*
D42*
X279198Y364492D03*
D12*
X308203Y364492D03*
D42*
X341880Y364492D03*
D64*
X366603Y364492D03*
D73*
X373026Y364492D03*
D15*
X414101Y364492D03*
D12*
X434346Y364492D03*
D54*
X447778Y364492D03*
D45*
X485543Y364492D03*
D82*
X499365Y364492D03*
D22*
X513575Y364492D03*
D115*
X157337Y364882D03*
D12*
X199969Y364882D03*
D23*
X244158Y364882D03*
D27*
X278808Y364882D03*
D42*
X308008Y364882D03*
D64*
X341685Y364882D03*
X366603Y364882D03*
D73*
X373416Y364882D03*
D42*
X413906Y364882D03*
D64*
X433957Y364882D03*
D46*
X446805Y364882D03*
D50*
X484570Y364882D03*
D78*
X499559Y364882D03*
D22*
X513965Y364882D03*
D124*
X157142Y365271D03*
D44*
X199774Y365271D03*
D122*
X244158Y365271D03*
D24*
X278808Y365271D03*
D26*
X307813Y365271D03*
D44*
X341491Y365271D03*
D26*
X366213Y365271D03*
D112*
X374000Y365271D03*
D44*
X413906Y365271D03*
D102*
X433957Y365271D03*
D30*
X445637Y365271D03*
D48*
X483207Y365271D03*
D74*
X499949Y365271D03*
D37*
X514354Y365271D03*
D20*
X157531Y365660D03*
D64*
X199579Y365660D03*
D121*
X243768Y365660D03*
D42*
X278419Y365660D03*
D27*
X307619Y365660D03*
D42*
X341491Y365660D03*
D12*
X366213Y365660D03*
D60*
X374389Y365660D03*
D42*
X413906Y365660D03*
D64*
X433957Y365660D03*
D28*
X444274Y365660D03*
D100*
X482234Y365660D03*
D82*
X500143Y365660D03*
D22*
X514354Y365660D03*
D106*
X157921Y366050D03*
D44*
X199385Y366050D03*
D122*
X243379Y366050D03*
D24*
X278030Y366050D03*
D26*
X307424Y366050D03*
D44*
X341101Y366050D03*
D26*
X366213Y366050D03*
D13*
X374973Y366050D03*
D44*
X413906Y366050D03*
D102*
X433957Y366050D03*
D93*
X443301Y366050D03*
D36*
X481261Y366050D03*
D37*
X500338Y366050D03*
D120*
X514743Y366050D03*
D23*
X158505Y366439D03*
D27*
X198995Y366439D03*
D23*
X243379Y366439D03*
D27*
X278030Y366439D03*
D42*
X307229Y366439D03*
X341101Y366439D03*
D12*
X365824Y366439D03*
D20*
X375557Y366439D03*
D27*
X413517Y366439D03*
D42*
X433762Y366439D03*
D68*
X442328Y366439D03*
D45*
X480093Y366439D03*
D78*
X500727Y366439D03*
D22*
X515133Y366439D03*
D104*
X158894Y366828D03*
D12*
X198801Y366828D03*
D23*
X242990Y366828D03*
D42*
X277640Y366828D03*
X306840Y366828D03*
D163*
X340712Y366828D03*
D12*
X365824Y366828D03*
D95*
X376336Y366828D03*
D27*
X413517Y366828D03*
D42*
X433762Y366828D03*
D39*
X441549Y366828D03*
D100*
X479119Y366828D03*
D78*
X500727Y366828D03*
D22*
X515522Y366828D03*
D107*
X159478Y367218D03*
D44*
X198606Y367218D03*
D40*
X242795Y367218D03*
D102*
X277446Y367218D03*
D44*
X306840Y367218D03*
D144*
X340712Y367218D03*
D120*
X365629Y367218D03*
D107*
X377504Y367218D03*
D24*
X413517Y367218D03*
D138*
X438824Y367218D03*
D48*
X478146Y367218D03*
D120*
X501117Y367218D03*
D17*
X515717Y367218D03*
D33*
X160062Y367607D03*
D12*
X198411Y367607D03*
D23*
X242211Y367607D03*
D42*
X277251Y367607D03*
D27*
X306451Y367607D03*
D163*
X340712Y367607D03*
D12*
X365435Y367607D03*
D33*
X378477Y367607D03*
D27*
X413517Y367607D03*
D38*
X438045Y367607D03*
D45*
X476978Y367607D03*
D12*
X501311Y367607D03*
D82*
X516106Y367607D03*
D29*
X161035Y367996D03*
D12*
X198022Y367996D03*
D90*
X242016Y367996D03*
D42*
X277251Y367996D03*
D27*
X306451Y367996D03*
D64*
X340517Y367996D03*
D12*
X365435Y367996D03*
D165*
X379645Y367996D03*
D27*
X413517Y367996D03*
D55*
X437461Y367996D03*
D41*
X476005Y367996D03*
D22*
X501506Y367996D03*
D72*
X516495Y367996D03*
D101*
X162203Y368386D03*
D102*
X197633Y368386D03*
D109*
X241627Y368386D03*
D26*
X277056Y368386D03*
D44*
X306061Y368386D03*
X340323Y368386D03*
D37*
X365240Y368386D03*
D117*
X381008Y368386D03*
D65*
X393856Y368386D03*
D44*
X413128Y368386D03*
D47*
X436682Y368386D03*
D40*
X475226Y368386D03*
D26*
X501701Y368386D03*
D17*
X516495Y368386D03*
D23*
X162787Y368775D03*
D64*
X197633Y368775D03*
D23*
X241432Y368775D03*
D27*
X276862Y368775D03*
D42*
X306061Y368775D03*
D166*
X340128Y368775D03*
D12*
X365045Y368775D03*
D149*
X382760Y368775D03*
D115*
X392882Y368775D03*
D42*
X413128Y368775D03*
D56*
X435904Y368775D03*
D41*
X474058Y368775D03*
D22*
X501895Y368775D03*
D72*
X516885Y368775D03*
D101*
X163371Y369164D03*
D26*
X197243Y369164D03*
D109*
X241238Y369164D03*
D44*
X276472Y369164D03*
D24*
X305672Y369164D03*
D144*
X339933Y369164D03*
D26*
X365045Y369164D03*
D167*
X386458Y369164D03*
D44*
X413128Y369164D03*
D48*
X435320Y369164D03*
D40*
X472890Y369164D03*
D37*
X502285Y369164D03*
X517079Y369164D03*
D45*
X163955Y369554D03*
D22*
X197049Y369554D03*
D90*
X240848Y369554D03*
D42*
X276472Y369554D03*
D27*
X305672Y369554D03*
D163*
X339933Y369554D03*
D42*
X364851Y369554D03*
D168*
X387237Y369554D03*
D42*
X413128Y369554D03*
D23*
X434930Y369554D03*
D41*
X471722Y369554D03*
D12*
X502479Y369554D03*
D22*
X517469Y369554D03*
D23*
X164734Y369943D03*
D62*
X196659Y369943D03*
D23*
X240654Y369943D03*
D27*
X276083Y369943D03*
D42*
X305283Y369943D03*
X339544Y369943D03*
D64*
X364656Y369943D03*
D169*
X387821Y369943D03*
D42*
X413128Y369943D03*
D115*
X434152Y369943D03*
D21*
X470359Y369943D03*
D22*
X502674Y369943D03*
D82*
X517663Y369943D03*
D106*
X165318Y370332D03*
D37*
X196270Y370332D03*
D106*
X240459Y370332D03*
D44*
X275694Y370332D03*
X305283Y370332D03*
X339544Y370332D03*
D102*
X364656Y370332D03*
D170*
X388405Y370332D03*
D59*
X412933Y370332D03*
D120*
X432984Y370332D03*
D25*
X469191Y370332D03*
D120*
X503063Y370332D03*
D80*
X518053Y370332D03*
D94*
X166681Y370722D03*
D22*
X195881Y370722D03*
D90*
X240070Y370722D03*
D15*
X275499Y370722D03*
D42*
X304893Y370722D03*
X339155Y370722D03*
X364461Y370722D03*
D171*
X389184Y370722D03*
D42*
X412738Y370722D03*
D22*
X432594Y370722D03*
D29*
X468218Y370722D03*
D12*
X503258Y370722D03*
D82*
X518442Y370722D03*
D13*
X167070Y371111D03*
D102*
X195686Y371111D03*
D109*
X239680Y371111D03*
D59*
X275110Y371111D03*
D44*
X304893Y371111D03*
X339155Y371111D03*
D26*
X364267Y371111D03*
D172*
X390157Y371111D03*
D44*
X412738Y371111D03*
D26*
X432400Y371111D03*
D107*
X467050Y371111D03*
D37*
X503453Y371111D03*
D87*
X518442Y371111D03*
D20*
X167654Y371500D03*
D12*
X195297Y371500D03*
D91*
X239486Y371500D03*
D27*
X274915Y371500D03*
X304504Y371500D03*
D15*
X338960Y371500D03*
D27*
X364072Y371500D03*
D125*
X391325Y371500D03*
D42*
X412738Y371500D03*
D12*
X432400Y371500D03*
D21*
X466077Y371500D03*
D22*
X503842Y371500D03*
D82*
X518831Y371500D03*
D94*
X168238Y371890D03*
D12*
X194907Y371890D03*
D86*
X239096Y371890D03*
D42*
X274526Y371890D03*
D27*
X304504Y371890D03*
D42*
X338765Y371890D03*
D27*
X364072Y371890D03*
D16*
X394245Y371890D03*
D42*
X412738Y371890D03*
D12*
X432400Y371890D03*
D21*
X465298Y371890D03*
D22*
X504231Y371890D03*
D82*
X519221Y371890D03*
D13*
X168627Y372279D03*
D26*
X194518Y372279D03*
D88*
X238707Y372279D03*
D44*
X274526Y372279D03*
X304115Y372279D03*
D59*
X338571Y372279D03*
D44*
X363683Y372279D03*
D107*
X396192Y372279D03*
D24*
X412349Y372279D03*
D44*
X432205Y372279D03*
D25*
X464130Y372279D03*
D26*
X504426Y372279D03*
D87*
X519610Y372279D03*
D123*
X169211Y372668D03*
D12*
X194518Y372668D03*
D95*
X238512Y372668D03*
D12*
X274331Y372668D03*
D42*
X304115Y372668D03*
D27*
X338376Y372668D03*
D42*
X363683Y372668D03*
D56*
X396581Y372668D03*
D27*
X412349Y372668D03*
D42*
X432205Y372668D03*
D29*
X462767Y372668D03*
D22*
X504621Y372668D03*
D99*
X519805Y372668D03*
D60*
X169990Y373058D03*
D12*
X194129Y373058D03*
D115*
X238318Y373058D03*
D12*
X273942Y373058D03*
D27*
X303725Y373058D03*
X338376Y373058D03*
D15*
X363488Y373058D03*
D28*
X397165Y373058D03*
D12*
X412154Y373058D03*
D42*
X432205Y373058D03*
D104*
X461405Y373058D03*
D62*
X505010Y373058D03*
D60*
X519999Y373058D03*
D113*
X170574Y373447D03*
D102*
X193739Y373447D03*
D98*
X237928Y373447D03*
D44*
X273747Y373447D03*
D24*
X303725Y373447D03*
X338376Y373447D03*
X363293Y373447D03*
D26*
X393856Y373447D03*
D173*
X405146Y373447D03*
D11*
X420136Y373447D03*
D44*
X432205Y373447D03*
D36*
X460237Y373447D03*
D120*
X505010Y373447D03*
D75*
X520194Y373447D03*
D73*
X170963Y373836D03*
D12*
X193350Y373836D03*
D20*
X237734Y373836D03*
D42*
X273358Y373836D03*
X303336Y373836D03*
X337987Y373836D03*
D27*
X363293Y373836D03*
D12*
X393466Y373836D03*
D174*
X405341Y373836D03*
D82*
X420330Y373836D03*
D42*
X432205Y373836D03*
D104*
X459458Y373836D03*
D22*
X505399Y373836D03*
D99*
X520583Y373836D03*
D113*
X171353Y374226D03*
D26*
X193350Y374226D03*
D88*
X237539Y374226D03*
D44*
X273358Y374226D03*
X303336Y374226D03*
X337987Y374226D03*
D59*
X363099Y374226D03*
D26*
X393466Y374226D03*
D151*
X405536Y374226D03*
D88*
X420525Y374226D03*
D44*
X432205Y374226D03*
D118*
X458485Y374226D03*
D37*
X505789Y374226D03*
D113*
X520973Y374226D03*
D73*
X171742Y374615D03*
D12*
X192961Y374615D03*
D115*
X237150Y374615D03*
D27*
X272968Y374615D03*
X302947Y374615D03*
D42*
X337987Y374615D03*
X362904Y374615D03*
D27*
X393272Y374615D03*
D137*
X406120Y374615D03*
D100*
X420720Y374615D03*
D42*
X431816Y374615D03*
D175*
X456538Y374615D03*
D22*
X505789Y374615D03*
D73*
X520973Y374615D03*
D22*
X172131Y375004D03*
D12*
X192571Y375004D03*
D20*
X236955Y375004D03*
D15*
X272774Y375004D03*
D27*
X302947Y375004D03*
X337597Y375004D03*
D42*
X362904Y375004D03*
D27*
X393272Y375004D03*
D149*
X406509Y375004D03*
D29*
X421109Y375004D03*
D42*
X431816Y375004D03*
D50*
X455370Y375004D03*
D22*
X506178Y375004D03*
D73*
X521362Y375004D03*
D102*
X172715Y375394D03*
D37*
X192377Y375394D03*
D88*
X236760Y375394D03*
D44*
X272579Y375394D03*
D26*
X302752Y375394D03*
D24*
X337597Y375394D03*
D59*
X362709Y375394D03*
D26*
X393077Y375394D03*
D145*
X407482Y375394D03*
D31*
X421304Y375394D03*
D44*
X431816Y375394D03*
D40*
X454591Y375394D03*
D37*
X506178Y375394D03*
D113*
X521751Y375394D03*
D12*
X173105Y375783D03*
D22*
X191987Y375783D03*
D115*
X236371Y375783D03*
D15*
X272384Y375783D03*
D27*
X302557Y375783D03*
D15*
X337403Y375783D03*
X362320Y375783D03*
D12*
X393077Y375783D03*
D46*
X408650Y375783D03*
D56*
X421498Y375783D03*
D42*
X431816Y375783D03*
D45*
X453618Y375783D03*
D22*
X506567Y375783D03*
D73*
X521751Y375783D03*
D22*
X173299Y376172D03*
X191598Y376172D03*
D110*
X236176Y376172D03*
D27*
X272190Y376172D03*
D12*
X302363Y376172D03*
D42*
X337208Y376172D03*
D15*
X362320Y376172D03*
D42*
X392882Y376172D03*
D123*
X410597Y376172D03*
D29*
X421498Y376172D03*
D42*
X431816Y376172D03*
D45*
X452839Y376172D03*
D62*
X506957Y376172D03*
D73*
X522141Y376172D03*
D120*
X173689Y376562D03*
D87*
X191403Y376562D03*
D124*
X235787Y376562D03*
D59*
X271995Y376562D03*
D44*
X302168Y376562D03*
X337208Y376562D03*
D11*
X362125Y376562D03*
D102*
X392688Y376562D03*
D26*
X411376Y376562D03*
D122*
X422082Y376562D03*
D26*
X431621Y376562D03*
D107*
X451866Y376562D03*
D37*
X507346Y376562D03*
D113*
X522530Y376562D03*
D12*
X174273Y376951D03*
D22*
X191209Y376951D03*
D94*
X235592Y376951D03*
D42*
X271800Y376951D03*
D64*
X301973Y376951D03*
D15*
X337013Y376951D03*
X361931Y376951D03*
D64*
X392688Y376951D03*
D12*
X411376Y376951D03*
D86*
X422472Y376951D03*
D12*
X431621Y376951D03*
D21*
X450114Y376951D03*
D12*
X507541Y376951D03*
D123*
X522725Y376951D03*
D102*
X174662Y377340D03*
D120*
X190819Y377340D03*
D77*
X235203Y377340D03*
D44*
X271411Y377340D03*
D102*
X301973Y377340D03*
D44*
X336819Y377340D03*
D59*
X361931Y377340D03*
D44*
X392493Y377340D03*
D26*
X411376Y377340D03*
D65*
X423834Y377340D03*
D24*
X431426Y377340D03*
D25*
X448557Y377340D03*
D102*
X507930Y377340D03*
D113*
X522919Y377340D03*
D12*
X175051Y377730D03*
D62*
X190819Y377730D03*
D20*
X235008Y377730D03*
D42*
X271411Y377730D03*
D64*
X301584Y377730D03*
D42*
X336819Y377730D03*
X361736Y377730D03*
D12*
X392298Y377730D03*
D42*
X411181Y377730D03*
D27*
X431426Y377730D03*
D21*
X447389Y377730D03*
D22*
X508125Y377730D03*
D73*
X523309Y377730D03*
D12*
X175051Y378119D03*
D22*
X190430Y378119D03*
D94*
X234814Y378119D03*
D27*
X271022Y378119D03*
D163*
X301389Y378119D03*
D27*
X336429Y378119D03*
D15*
X361541Y378119D03*
D12*
X392298Y378119D03*
D42*
X411181Y378119D03*
D27*
X431426Y378119D03*
D46*
X446026Y378119D03*
D12*
X508319Y378119D03*
D73*
X523698Y378119D03*
D37*
X175246Y378508D03*
X190041Y378508D03*
D13*
X234424Y378508D03*
D44*
X270632Y378508D03*
X301000Y378508D03*
D24*
X336429Y378508D03*
D44*
X361347Y378508D03*
D24*
X392104Y378508D03*
D44*
X411181Y378508D03*
D24*
X431426Y378508D03*
D63*
X445442Y378508D03*
D37*
X508514Y378508D03*
D113*
X524087Y378508D03*
D62*
X175635Y378898D03*
D64*
X189846Y378898D03*
D60*
X234230Y378898D03*
D15*
X270438Y378898D03*
D42*
X301000Y378898D03*
X336040Y378898D03*
X361347Y378898D03*
D27*
X392104Y378898D03*
D42*
X411181Y378898D03*
D12*
X431232Y378898D03*
D89*
X444080Y378898D03*
D62*
X508903Y378898D03*
D60*
X524282Y378898D03*
D26*
X176219Y379287D03*
X189457Y379287D03*
D112*
X233840Y379287D03*
D24*
X270243Y379287D03*
D144*
X300611Y379287D03*
D44*
X336040Y379287D03*
D102*
X361152Y379287D03*
D26*
X391909Y379287D03*
D44*
X411181Y379287D03*
D26*
X431232Y379287D03*
D25*
X443106Y379287D03*
D37*
X509293Y379287D03*
D13*
X524477Y379287D03*
D64*
X176609Y379676D03*
D12*
X189067Y379676D03*
D60*
X233451Y379676D03*
D12*
X270048Y379676D03*
D166*
X300416Y379676D03*
D42*
X336040Y379676D03*
D163*
X360957Y379676D03*
D42*
X391714Y379676D03*
D15*
X410986Y379676D03*
D12*
X431232Y379676D03*
D104*
X442328Y379676D03*
D22*
X509293Y379676D03*
D123*
X524671Y379676D03*
D42*
X176803Y380066D03*
D62*
X188873Y380066D03*
D73*
X233256Y380066D03*
D42*
X269854Y380066D03*
X300221Y380066D03*
D15*
X335845Y380066D03*
D163*
X360957Y380066D03*
D42*
X391714Y380066D03*
X410792Y380066D03*
X431037Y380066D03*
D90*
X441744Y380066D03*
D22*
X509682Y380066D03*
D94*
X524866Y380066D03*
D26*
X176998Y380455D03*
D37*
X188483Y380455D03*
D113*
X232867Y380455D03*
D102*
X269659Y380455D03*
D59*
X300027Y380455D03*
D24*
X335651Y380455D03*
D102*
X360763Y380455D03*
D26*
X391520Y380455D03*
D44*
X410792Y380455D03*
X431037Y380455D03*
D77*
X441549Y380455D03*
D102*
X509877Y380455D03*
D114*
X525061Y380455D03*
D27*
X177193Y380844D03*
D12*
X188289Y380844D03*
D82*
X232672Y380844D03*
D42*
X269464Y380844D03*
X299832Y380844D03*
D15*
X335456Y380844D03*
D42*
X360568Y380844D03*
D27*
X391325Y380844D03*
D42*
X410792Y380844D03*
X431037Y380844D03*
D78*
X441160Y380844D03*
D64*
X509877Y380844D03*
D60*
X525450Y380844D03*
D26*
X177387Y381234D03*
X187899Y381234D03*
D17*
X232283Y381234D03*
D24*
X269075Y381234D03*
D102*
X299637Y381234D03*
D44*
X335261Y381234D03*
X360568Y381234D03*
D24*
X391325Y381234D03*
D44*
X410792Y381234D03*
X431037Y381234D03*
D59*
X440965Y381234D03*
D26*
X510266Y381234D03*
D112*
X525839Y381234D03*
D12*
X177777Y381623D03*
D22*
X187705Y381623D03*
D73*
X232088Y381623D03*
D12*
X268880Y381623D03*
D42*
X299443Y381623D03*
D15*
X335067Y381623D03*
D64*
X360373Y381623D03*
D27*
X391325Y381623D03*
D15*
X410597Y381623D03*
D42*
X431037Y381623D03*
D22*
X510461Y381623D03*
D73*
X526034Y381623D03*
D12*
X177777Y382012D03*
D22*
X187315Y382012D03*
D82*
X231894Y382012D03*
D42*
X268686Y382012D03*
D12*
X299248Y382012D03*
D15*
X335067Y382012D03*
D42*
X360179Y382012D03*
D12*
X391130Y382012D03*
D27*
X410402Y382012D03*
D12*
X430842Y382012D03*
D22*
X510461Y382012D03*
D60*
X526229Y382012D03*
D37*
X177971Y382402D03*
X187315Y382402D03*
D17*
X231504Y382402D03*
D24*
X268296Y382402D03*
D26*
X299248Y382402D03*
D59*
X334677Y382402D03*
D44*
X360179Y382402D03*
X390936Y382402D03*
D24*
X410402Y382402D03*
D26*
X430842Y382402D03*
D17*
X510655Y382402D03*
D113*
X526423Y382402D03*
D22*
X178361Y382791D03*
D62*
X186926Y382791D03*
D72*
X231115Y382791D03*
D15*
X268102Y382791D03*
D42*
X298664Y382791D03*
D15*
X334677Y382791D03*
D166*
X359984Y382791D03*
D42*
X390936Y382791D03*
D27*
X410402Y382791D03*
X430648Y382791D03*
D62*
X510850Y382791D03*
D123*
X526618Y382791D03*
D22*
X178361Y383180D03*
D72*
X186731Y383180D03*
D82*
X230726Y383180D03*
D42*
X267907Y383180D03*
D15*
X298469Y383180D03*
X334288Y383180D03*
D163*
X359789Y383180D03*
D42*
X390936Y383180D03*
D15*
X410208Y383180D03*
D27*
X430648Y383180D03*
D12*
X510655Y383180D03*
D73*
X526813Y383180D03*
D37*
X178361Y383570D03*
D120*
X186147Y383570D03*
D87*
X230726Y383570D03*
D59*
X267712Y383570D03*
D24*
X298275Y383570D03*
D59*
X334288Y383570D03*
D144*
X359789Y383570D03*
D44*
X390546Y383570D03*
D59*
X410208Y383570D03*
D24*
X430648Y383570D03*
D59*
X510655Y383570D03*
D114*
X527007Y383570D03*
D22*
X178750Y383959D03*
X185758Y383959D03*
D72*
X230336Y383959D03*
D42*
X267518Y383959D03*
D12*
X298080Y383959D03*
D15*
X334288Y383959D03*
D163*
X359789Y383959D03*
D42*
X390546Y383959D03*
D15*
X410208Y383959D03*
D27*
X430648Y383959D03*
D73*
X527202Y383959D03*
D37*
X179139Y384348D03*
D26*
X185563Y384348D03*
D87*
X229947Y384348D03*
D44*
X267518Y384348D03*
X297885Y384348D03*
D59*
X333899Y384348D03*
D102*
X359595Y384348D03*
D44*
X390546Y384348D03*
D59*
X409818Y384348D03*
D26*
X430453Y384348D03*
D114*
X527397Y384348D03*
D22*
X179139Y384738D03*
D64*
X185174Y384738D03*
D22*
X229752Y384738D03*
D27*
X267128Y384738D03*
D64*
X297691Y384738D03*
D15*
X333899Y384738D03*
D42*
X359400Y384738D03*
X390546Y384738D03*
D15*
X409818Y384738D03*
D12*
X430453Y384738D03*
D73*
X527591Y384738D03*
D62*
X179529Y385127D03*
D82*
X184785Y385127D03*
D72*
X229558Y385127D03*
D12*
X266934Y385127D03*
D42*
X297496Y385127D03*
D27*
X333704Y385127D03*
D42*
X359400Y385127D03*
D27*
X390157Y385127D03*
D15*
X409818Y385127D03*
D42*
X430258Y385127D03*
D73*
X527981Y385127D03*
D120*
X179529Y385516D03*
D37*
X184590Y385516D03*
D120*
X229363Y385516D03*
D26*
X266544Y385516D03*
D44*
X297496Y385516D03*
D24*
X333704Y385516D03*
D102*
X359205Y385516D03*
D24*
X390157Y385516D03*
D59*
X409818Y385516D03*
D102*
X430064Y385516D03*
D113*
X527981Y385516D03*
D72*
X179723Y385906D03*
D12*
X184395Y385906D03*
D22*
X228974Y385906D03*
D12*
X266155Y385906D03*
D27*
X297107Y385906D03*
X333704Y385906D03*
D64*
X359205Y385906D03*
D27*
X390157Y385906D03*
X409624Y385906D03*
D64*
X430064Y385906D03*
D73*
X528370Y385906D03*
D87*
X180113Y386295D03*
D26*
X184006Y386295D03*
D37*
X228584Y386295D03*
D44*
X265960Y386295D03*
D59*
X296912Y386295D03*
D24*
X333704Y386295D03*
D26*
X358816Y386295D03*
D59*
X389962Y386295D03*
X409429Y386295D03*
D102*
X430064Y386295D03*
D113*
X528759Y386295D03*
D104*
X181865Y386684D03*
D22*
X228584Y386684D03*
D64*
X265766Y386684D03*
D42*
X296717Y386684D03*
X333315Y386684D03*
D22*
X358621Y386684D03*
D42*
X389768Y386684D03*
D15*
X409429Y386684D03*
D42*
X429869Y386684D03*
D60*
X528954Y386684D03*
D100*
X181670Y387074D03*
D22*
X228195Y387074D03*
D42*
X265571Y387074D03*
D15*
X296523Y387074D03*
D42*
X333315Y387074D03*
D22*
X358621Y387074D03*
D42*
X389768Y387074D03*
D15*
X409429Y387074D03*
D42*
X429869Y387074D03*
D73*
X529149Y387074D03*
D109*
X181670Y387463D03*
D37*
X227806Y387463D03*
D26*
X265376Y387463D03*
D24*
X296328Y387463D03*
D44*
X332925Y387463D03*
D26*
X358427Y387463D03*
D44*
X389768Y387463D03*
D59*
X409429Y387463D03*
D44*
X429869Y387463D03*
D113*
X529538Y387463D03*
D86*
X181475Y387852D03*
D62*
X227416Y387852D03*
D27*
X265182Y387852D03*
D42*
X295939Y387852D03*
X332925Y387852D03*
D12*
X358427Y387852D03*
D15*
X389573Y387852D03*
D42*
X409234Y387852D03*
D12*
X429674Y387852D03*
D73*
X529538Y387852D03*
D20*
X181281Y388242D03*
D62*
X227416Y388242D03*
D42*
X264792Y388242D03*
X295939Y388242D03*
D27*
X332536Y388242D03*
D62*
X358232Y388242D03*
D27*
X389378Y388242D03*
D15*
X409040Y388242D03*
D12*
X429674Y388242D03*
D73*
X529927Y388242D03*
D124*
X181281Y388631D03*
D37*
X227027Y388631D03*
D24*
X264403Y388631D03*
D59*
X295744Y388631D03*
D24*
X332536Y388631D03*
D120*
X358232Y388631D03*
D24*
X389378Y388631D03*
D59*
X409040Y388631D03*
D26*
X429674Y388631D03*
D113*
X530317Y388631D03*
D76*
X181281Y389020D03*
D22*
X226638Y389020D03*
D42*
X264014Y389020D03*
X295549Y389020D03*
X332147Y389020D03*
D72*
X358037Y389020D03*
D27*
X389378Y389020D03*
D42*
X408845Y389020D03*
D27*
X429480Y389020D03*
D73*
X530317Y389020D03*
D141*
X181281Y389410D03*
D37*
X226638Y389410D03*
D44*
X264014Y389410D03*
D59*
X295355Y389410D03*
D44*
X332147Y389410D03*
D37*
X357843Y389410D03*
D59*
X389184Y389410D03*
D44*
X408845Y389410D03*
D24*
X429480Y389410D03*
D113*
X530706Y389410D03*
D76*
X181281Y389799D03*
D22*
X226248Y389799D03*
D42*
X263624Y389799D03*
D27*
X295160Y389799D03*
D42*
X332147Y389799D03*
D22*
X357453Y389799D03*
D42*
X388989Y389799D03*
D15*
X408650Y389799D03*
D22*
X417800Y389799D03*
D27*
X429480Y389799D03*
D60*
X530900Y389799D03*
D20*
X181281Y390188D03*
D12*
X226054Y390188D03*
D15*
X263430Y390188D03*
X294965Y390188D03*
D27*
X331757Y390188D03*
D12*
X357259Y390188D03*
D42*
X388989Y390188D03*
D27*
X408456Y390188D03*
D23*
X417800Y390188D03*
D12*
X429285Y390188D03*
D73*
X531095Y390188D03*
D109*
X181670Y390578D03*
D37*
X225859Y390578D03*
D24*
X263235Y390578D03*
D44*
X294771Y390578D03*
D24*
X331757Y390578D03*
D26*
X357259Y390578D03*
D44*
X388989Y390578D03*
D24*
X408456Y390578D03*
D31*
X417800Y390578D03*
D26*
X429285Y390578D03*
D112*
X531290Y390578D03*
D33*
X182643Y390967D03*
D62*
X225470Y390967D03*
D12*
X263040Y390967D03*
D27*
X294381Y390967D03*
D12*
X331563Y390967D03*
X356869Y390967D03*
D42*
X388989Y390967D03*
D27*
X408456Y390967D03*
D61*
X418189Y390967D03*
D12*
X429285Y390967D03*
D143*
X531484Y390967D03*
D47*
X183227Y391356D03*
D26*
X225275Y391356D03*
X262651Y391356D03*
D24*
X294381Y391356D03*
D26*
X331563Y391356D03*
X356869Y391356D03*
D44*
X388600Y391356D03*
D26*
X408261Y391356D03*
D47*
X418384Y391356D03*
D44*
X429090Y391356D03*
D112*
X531679Y391356D03*
D134*
X183617Y391746D03*
D12*
X224886Y391746D03*
D27*
X262456Y391746D03*
D42*
X293992Y391746D03*
X331368Y391746D03*
D12*
X356869Y391746D03*
D42*
X388600Y391746D03*
X408066Y391746D03*
D28*
X418578Y391746D03*
D42*
X429090Y391746D03*
D60*
X532068Y391746D03*
D39*
X184201Y392135D03*
D22*
X224691Y392135D03*
D163*
X262067Y392135D03*
D15*
X293797Y392135D03*
D64*
X331173Y392135D03*
D22*
X356675Y392135D03*
D42*
X388600Y392135D03*
X408066Y392135D03*
D28*
X418578Y392135D03*
D42*
X429090Y392135D03*
D60*
X532068Y392135D03*
D136*
X184979Y392524D03*
D102*
X224496Y392524D03*
X261872Y392524D03*
D44*
X293603Y392524D03*
D102*
X331173Y392524D03*
D26*
X356480Y392524D03*
D44*
X388600Y392524D03*
X408066Y392524D03*
D43*
X418773Y392524D03*
D44*
X429090Y392524D03*
D112*
X532458Y392524D03*
D58*
X186731Y392914D03*
D12*
X224107Y392914D03*
D42*
X261678Y392914D03*
D15*
X293408Y392914D03*
D12*
X330784Y392914D03*
X356480Y392914D03*
D42*
X388600Y392914D03*
X408066Y392914D03*
D121*
X419357Y392914D03*
D12*
X428896Y392914D03*
D73*
X532652Y392914D03*
D25*
X187705Y393303D03*
D37*
X223912Y393303D03*
D102*
X261483Y393303D03*
D24*
X293213Y393303D03*
D26*
X330784Y393303D03*
D120*
X356285Y393303D03*
D24*
X388210Y393303D03*
D59*
X407872Y393303D03*
D24*
X428701Y393303D03*
D113*
X533042Y393303D03*
D176*
X188483Y393692D03*
D12*
X223718Y393692D03*
D42*
X261288Y393692D03*
D15*
X293019Y393692D03*
D12*
X330784Y393692D03*
D62*
X356285Y393692D03*
D27*
X388210Y393692D03*
D15*
X407872Y393692D03*
D27*
X428701Y393692D03*
D73*
X533042Y393692D03*
D29*
X189457Y394082D03*
D12*
X223328Y394082D03*
D64*
X261094Y394082D03*
D42*
X292824Y394082D03*
D12*
X330395Y394082D03*
D22*
X355896Y394082D03*
D27*
X388210Y394082D03*
D15*
X407872Y394082D03*
D27*
X428701Y394082D03*
D143*
X533431Y394082D03*
D103*
X190041Y394471D03*
D26*
X222939Y394471D03*
D144*
X260899Y394471D03*
D44*
X292824Y394471D03*
D26*
X330395Y394471D03*
X355701Y394471D03*
D59*
X388016Y394471D03*
D24*
X407677Y394471D03*
D59*
X428506Y394471D03*
D131*
X533431Y394471D03*
D119*
X190819Y394860D03*
D42*
X222744Y394860D03*
X260510Y394860D03*
D15*
X292629Y394860D03*
D12*
X330005Y394860D03*
D22*
X355507Y394860D03*
D42*
X387821Y394860D03*
D27*
X407677Y394860D03*
D15*
X428506Y394860D03*
D73*
X533820Y394860D03*
D100*
X191793Y395250D03*
D64*
X222550Y395250D03*
X260315Y395250D03*
D27*
X292435Y395250D03*
X329811Y395250D03*
D22*
X355507Y395250D03*
D42*
X387821Y395250D03*
D15*
X407482Y395250D03*
D42*
X428312Y395250D03*
D60*
X534015Y395250D03*
D122*
X192766Y395639D03*
D74*
X222355Y395639D03*
D144*
X260120Y395639D03*
D44*
X292046Y395639D03*
D26*
X329616Y395639D03*
D102*
X355312Y395639D03*
D59*
X387626Y395639D03*
X407482Y395639D03*
D44*
X428312Y395639D03*
D112*
X534404Y395639D03*
D95*
X193350Y396028D03*
D64*
X222160Y396028D03*
D27*
X259731Y396028D03*
D42*
X292046Y396028D03*
D12*
X329616Y396028D03*
D22*
X355117Y396028D03*
D27*
X387432Y396028D03*
D15*
X407482Y396028D03*
D42*
X428312Y396028D03*
D123*
X534404Y396028D03*
D98*
X193934Y396418D03*
D74*
X221966Y396418D03*
D44*
X259342Y396418D03*
X291656Y396418D03*
X329421Y396418D03*
D26*
X354923Y396418D03*
D24*
X387432Y396418D03*
D59*
X407482Y396418D03*
D44*
X428312Y396418D03*
D113*
X534599Y396418D03*
D115*
X194713Y396807D03*
D22*
X221576Y396807D03*
D64*
X259147Y396807D03*
D42*
X291656Y396807D03*
D64*
X329227Y396807D03*
D12*
X354923Y396807D03*
D15*
X387237Y396807D03*
D42*
X407288Y396807D03*
X428312Y396807D03*
D72*
X534794Y396807D03*
D86*
X195102Y397196D03*
D64*
X221382Y397196D03*
D42*
X258952Y397196D03*
D27*
X291267Y397196D03*
D64*
X329227Y397196D03*
D12*
X354923Y397196D03*
D42*
X387042Y397196D03*
X407288Y397196D03*
X428312Y397196D03*
D73*
X534988Y397196D03*
D111*
X195686Y397586D03*
D102*
X220992Y397586D03*
D26*
X258758Y397586D03*
D24*
X291267Y397586D03*
D37*
X329032Y397586D03*
D26*
X354923Y397586D03*
D44*
X387042Y397586D03*
D59*
X407093Y397586D03*
X428117Y397586D03*
D87*
X535183Y397586D03*
D94*
X196270Y397975D03*
D64*
X220603Y397975D03*
D27*
X258563Y397975D03*
D12*
X291072Y397975D03*
X328837Y397975D03*
X354533Y397975D03*
D15*
X386848Y397975D03*
X407093Y397975D03*
D42*
X427922Y397975D03*
D72*
X535572Y397975D03*
D79*
X196659Y398364D03*
D42*
X220408Y398364D03*
D27*
X258563Y398364D03*
D42*
X290878Y398364D03*
D22*
X328643Y398364D03*
D62*
X354339Y398364D03*
D15*
X386848Y398364D03*
X407093Y398364D03*
D42*
X427922Y398364D03*
D72*
X535962Y398364D03*
D13*
X197049Y398754D03*
D102*
X220214Y398754D03*
D44*
X258174Y398754D03*
D59*
X290683Y398754D03*
D37*
X328643Y398754D03*
D120*
X354339Y398754D03*
D44*
X386653Y398754D03*
X406898Y398754D03*
X427922Y398754D03*
D17*
X535962Y398754D03*
D60*
X197633Y399143D03*
D78*
X220019Y399143D03*
D12*
X257979Y399143D03*
D27*
X290488Y399143D03*
D62*
X328253Y399143D03*
D22*
X353949Y399143D03*
D42*
X386653Y399143D03*
X406898Y399143D03*
X427922Y399143D03*
D82*
X536351Y399143D03*
D113*
X198217Y399532D03*
D37*
X219630Y399532D03*
D24*
X257784Y399532D03*
D26*
X290294Y399532D03*
D120*
X328253Y399532D03*
D37*
X353949Y399532D03*
D59*
X386458Y399532D03*
D44*
X406898Y399532D03*
X427922Y399532D03*
D87*
X536351Y399532D03*
D73*
X198606Y399922D03*
D12*
X219435Y399922D03*
D42*
X257395Y399922D03*
X290099Y399922D03*
D12*
X328059Y399922D03*
D22*
X353949Y399922D03*
D15*
X386458Y399922D03*
X406704Y399922D03*
D42*
X427922Y399922D03*
D177*
X498002Y399922D03*
D72*
X536740Y399922D03*
D82*
X199190Y400311D03*
D22*
X219240Y400311D03*
D42*
X257006Y400311D03*
D64*
X289904Y400311D03*
D22*
X327864Y400311D03*
D82*
X353755Y400311D03*
D27*
X386264Y400311D03*
D15*
X406704Y400311D03*
D27*
X427533Y400311D03*
D15*
X498197Y400311D03*
D73*
X536935Y400311D03*
D17*
X199579Y400700D03*
D120*
X218851Y400700D03*
D44*
X257006Y400700D03*
X289710Y400700D03*
D37*
X327864Y400700D03*
X353560Y400700D03*
D24*
X386264Y400700D03*
X406509Y400700D03*
X427533Y400700D03*
D87*
X498197Y400700D03*
X537130Y400700D03*
D130*
X199969Y401090D03*
D12*
X218656Y401090D03*
D27*
X256616Y401090D03*
D12*
X289515Y401090D03*
X327669Y401090D03*
D72*
X353365Y401090D03*
D27*
X386264Y401090D03*
D15*
X406314Y401090D03*
D27*
X427533Y401090D03*
D20*
X498197Y401090D03*
D99*
X537324Y401090D03*
D87*
X200358Y401479D03*
D37*
X218462Y401479D03*
D26*
X256422Y401479D03*
D24*
X289320Y401479D03*
D37*
X327475Y401479D03*
X353171Y401479D03*
D24*
X386264Y401479D03*
D59*
X406314Y401479D03*
D24*
X427533Y401479D03*
D122*
X498002Y401479D03*
D87*
X537519Y401479D03*
D82*
X200747Y401868D03*
D22*
X218072Y401868D03*
D42*
X256227Y401868D03*
X288931Y401868D03*
D64*
X327280Y401868D03*
D22*
X353171Y401868D03*
D15*
X386069Y401868D03*
X406314Y401868D03*
D27*
X427533Y401868D03*
D29*
X498197Y401868D03*
D82*
X537908Y401868D03*
X201137Y402258D03*
D22*
X217683Y402258D03*
D12*
X256032Y402258D03*
D42*
X288931Y402258D03*
D64*
X327280Y402258D03*
D22*
X352781Y402258D03*
D42*
X385874Y402258D03*
D15*
X406314Y402258D03*
D27*
X427533Y402258D03*
D61*
X498391Y402258D03*
D82*
X537908Y402258D03*
D87*
X201526Y402647D03*
D37*
X217683Y402647D03*
D24*
X255838Y402647D03*
D59*
X288736Y402647D03*
D37*
X327085Y402647D03*
X352781Y402647D03*
D44*
X385874Y402647D03*
X406120Y402647D03*
X427144Y402647D03*
D71*
X498391Y402647D03*
D87*
X538298Y402647D03*
D130*
X201915Y403036D03*
D82*
X217488Y403036D03*
D12*
X255643Y403036D03*
D27*
X288542Y403036D03*
D12*
X326891Y403036D03*
X352587Y403036D03*
D15*
X385680Y403036D03*
X405925Y403036D03*
D42*
X427144Y403036D03*
D70*
X498586Y403036D03*
D82*
X538298Y403036D03*
D74*
X202110Y403426D03*
D17*
X217099Y403426D03*
D44*
X255448Y403426D03*
D24*
X288542Y403426D03*
D37*
X326696Y403426D03*
D120*
X352392Y403426D03*
D59*
X385680Y403426D03*
X405925Y403426D03*
D44*
X427144Y403426D03*
D17*
X495471Y403426D03*
D88*
X501506Y403426D03*
D75*
X538492Y403426D03*
D22*
X202499Y403815D03*
D62*
X216904Y403815D03*
D42*
X255059Y403815D03*
X288152Y403815D03*
D22*
X326696Y403815D03*
D12*
X352197Y403815D03*
D15*
X385290Y403815D03*
X405925Y403815D03*
D42*
X427144Y403815D03*
D82*
X495082Y403815D03*
D110*
X502090Y403815D03*
D99*
X538882Y403815D03*
D64*
X202694Y404204D03*
D22*
X216515Y404204D03*
D27*
X254670Y404204D03*
D42*
X288152Y404204D03*
D62*
X326307Y404204D03*
D12*
X352197Y404204D03*
D15*
X385290Y404204D03*
X405925Y404204D03*
D22*
X415074Y404204D03*
D42*
X427144Y404204D03*
D72*
X494693Y404204D03*
D20*
X502869Y404204D03*
D130*
X539076Y404204D03*
D26*
X203083Y404594D03*
D37*
X216126Y404594D03*
D26*
X254475Y404594D03*
D102*
X287958Y404594D03*
D120*
X326307Y404594D03*
D37*
X352003Y404594D03*
D158*
X385096Y404594D03*
D24*
X405730Y404594D03*
D98*
X415464Y404594D03*
D44*
X427144Y404594D03*
D120*
X494498Y404594D03*
D88*
X503453Y404594D03*
D87*
X539466Y404594D03*
D12*
X203473Y404983D03*
D22*
X215736Y404983D03*
D12*
X254475Y404983D03*
D64*
X287958Y404983D03*
D62*
X326307Y404983D03*
D12*
X351808Y404983D03*
D15*
X384901Y404983D03*
X405536Y404983D03*
D119*
X415853Y404983D03*
D27*
X426754Y404983D03*
D22*
X494109Y404983D03*
D115*
X504231Y404983D03*
D82*
X539466Y404983D03*
D22*
X203667Y405372D03*
D82*
X215542Y405372D03*
D42*
X254280Y405372D03*
D12*
X287568Y405372D03*
D22*
X325917Y405372D03*
D12*
X351808Y405372D03*
D15*
X384901Y405372D03*
X405536Y405372D03*
D21*
X415853Y405372D03*
D27*
X426754Y405372D03*
D22*
X493719Y405372D03*
D20*
X504815Y405372D03*
D82*
X539855Y405372D03*
D26*
X203862Y405762D03*
D37*
X215347Y405762D03*
D26*
X254086Y405762D03*
X287568Y405762D03*
X325723Y405762D03*
D37*
X351613Y405762D03*
D59*
X384901Y405762D03*
X405536Y405762D03*
D43*
X416048Y405762D03*
D24*
X426754Y405762D03*
D102*
X493525Y405762D03*
D124*
X505205Y405762D03*
D74*
X540050Y405762D03*
D64*
X204251Y406151D03*
D72*
X215152Y406151D03*
D12*
X253696Y406151D03*
X287179Y406151D03*
D22*
X325528Y406151D03*
X351613Y406151D03*
D178*
X384706Y406151D03*
D42*
X405341Y406151D03*
D83*
X416048Y406151D03*
D27*
X426754Y406151D03*
D12*
X493135Y406151D03*
D110*
X505983Y406151D03*
D82*
X540244Y406151D03*
D37*
X204446Y406540D03*
D17*
X214763Y406540D03*
D102*
X253307Y406540D03*
D26*
X287179Y406540D03*
D102*
X325333Y406540D03*
D37*
X351224Y406540D03*
D59*
X384512Y406540D03*
D44*
X405341Y406540D03*
D52*
X416048Y406540D03*
D24*
X426754Y406540D03*
D26*
X492746Y406540D03*
D124*
X506373Y406540D03*
D87*
X540634Y406540D03*
D12*
X204641Y406929D03*
D73*
X214568Y406929D03*
D64*
X253307Y406929D03*
D12*
X286790Y406929D03*
D22*
X325139Y406929D03*
X351224Y406929D03*
D15*
X384512Y406929D03*
X405146Y406929D03*
D41*
X416437Y406929D03*
D15*
X426560Y406929D03*
D12*
X492357Y406929D03*
D79*
X506957Y406929D03*
D82*
X540634Y406929D03*
D12*
X205030Y407319D03*
D82*
X214374Y407319D03*
D12*
X252918Y407319D03*
D27*
X286595Y407319D03*
D22*
X325139Y407319D03*
X351224Y407319D03*
D15*
X384512Y407319D03*
X405146Y407319D03*
D94*
X417021Y407319D03*
D42*
X426365Y407319D03*
D12*
X491967Y407319D03*
D20*
X507541Y407319D03*
D82*
X541023Y407319D03*
D120*
X205225Y407708D03*
D17*
X213984Y407708D03*
D24*
X252723Y407708D03*
D26*
X286400Y407708D03*
X324944Y407708D03*
D37*
X350835Y407708D03*
D59*
X384512Y407708D03*
X405146Y407708D03*
X417994Y407708D03*
D44*
X426365Y407708D03*
D37*
X491773Y407708D03*
D13*
X508125Y407708D03*
D113*
X541218Y407708D03*
D12*
X205419Y408097D03*
D72*
X213984Y408097D03*
D12*
X252528Y408097D03*
D42*
X286206Y408097D03*
D12*
X324944Y408097D03*
D22*
X350835Y408097D03*
D15*
X384122Y408097D03*
D42*
X404952Y408097D03*
X426365Y408097D03*
D22*
X491383Y408097D03*
D94*
X508514Y408097D03*
D73*
X541218Y408097D03*
D26*
X205809Y408487D03*
D87*
X213595Y408487D03*
D44*
X252334Y408487D03*
X286206Y408487D03*
D37*
X324749Y408487D03*
D26*
X350640Y408487D03*
D59*
X384122Y408487D03*
X404757Y408487D03*
D44*
X426365Y408487D03*
D37*
X490994Y408487D03*
D13*
X509293Y408487D03*
D113*
X541607Y408487D03*
D64*
X206198Y408876D03*
D73*
X213401Y408876D03*
D12*
X252139Y408876D03*
D42*
X285816Y408876D03*
D22*
X324749Y408876D03*
D62*
X350445Y408876D03*
D15*
X384122Y408876D03*
X404757Y408876D03*
D42*
X426365Y408876D03*
D22*
X490994Y408876D03*
D94*
X509682Y408876D03*
D82*
X541802Y408876D03*
D64*
X206198Y409265D03*
D72*
X213206Y409265D03*
D27*
X251944Y409265D03*
D42*
X285816Y409265D03*
D22*
X324749Y409265D03*
D62*
X350445Y409265D03*
D42*
X383928Y409265D03*
D15*
X404757Y409265D03*
D42*
X425976Y409265D03*
D62*
X490605Y409265D03*
D94*
X510071Y409265D03*
D72*
X542191Y409265D03*
D26*
X206587Y409655D03*
D17*
X212816Y409655D03*
D26*
X251750Y409655D03*
D24*
X285427Y409655D03*
D17*
X324555Y409655D03*
D26*
X350251Y409655D03*
D44*
X383928Y409655D03*
D24*
X404562Y409655D03*
D44*
X425976Y409655D03*
D37*
X490215Y409655D03*
D77*
X510850Y409655D03*
D120*
X542386Y409655D03*
D12*
X206977Y410044D03*
D73*
X212622Y410044D03*
D42*
X251555Y410044D03*
D27*
X285427Y410044D03*
D62*
X324360Y410044D03*
D12*
X350251Y410044D03*
D42*
X383928Y410044D03*
D15*
X404368Y410044D03*
D42*
X425976Y410044D03*
D22*
X489826Y410044D03*
D94*
X511239Y410044D03*
D62*
X542386Y410044D03*
X207171Y410433D03*
D82*
X212427Y410433D03*
D64*
X251360Y410433D03*
D42*
X285038Y410433D03*
D22*
X323971Y410433D03*
X350056Y410433D03*
D15*
X383733Y410433D03*
X404368Y410433D03*
D42*
X425976Y410433D03*
D64*
X489631Y410433D03*
D94*
X511629Y410433D03*
D12*
X542580Y410433D03*
D37*
X207561Y410823D03*
D17*
X212038Y410823D03*
D26*
X250971Y410823D03*
X284843Y410823D03*
D37*
X323971Y410823D03*
D26*
X349861Y410823D03*
D24*
X383538Y410823D03*
D59*
X404368Y410823D03*
D44*
X425976Y410823D03*
D37*
X489437Y410823D03*
D124*
X512213Y410823D03*
D37*
X542775Y410823D03*
D82*
X207755Y411212D03*
D73*
X211843Y411212D03*
D22*
X250776Y411212D03*
D12*
X284843Y411212D03*
X323776Y411212D03*
X349861Y411212D03*
D27*
X383538Y411212D03*
D42*
X404173Y411212D03*
D27*
X425586Y411212D03*
D22*
X489047Y411212D03*
D79*
X512797Y411212D03*
D22*
X543164Y411212D03*
D48*
X209897Y411601D03*
D26*
X250582Y411601D03*
X284454Y411601D03*
D37*
X323581Y411601D03*
X349667Y411601D03*
D24*
X383538Y411601D03*
D44*
X404173Y411601D03*
D24*
X425586Y411601D03*
D120*
X488658Y411601D03*
D13*
X513186Y411601D03*
D17*
X543359Y411601D03*
D41*
X209702Y411991D03*
D12*
X250192Y411991D03*
X284454Y411991D03*
D64*
X323387Y411991D03*
X349472Y411991D03*
D27*
X383538Y411991D03*
D15*
X403978Y411991D03*
D27*
X425586Y411991D03*
D22*
X488269Y411991D03*
D110*
X513770Y411991D03*
D22*
X543554Y411991D03*
D95*
X209702Y412380D03*
D12*
X250192Y412380D03*
D42*
X284259Y412380D03*
D22*
X323192Y412380D03*
D64*
X349472Y412380D03*
D42*
X383149Y412380D03*
D27*
X403784Y412380D03*
X425586Y412380D03*
D108*
X445832Y412380D03*
D12*
X488074Y412380D03*
D20*
X514159Y412380D03*
D82*
X543748Y412380D03*
D106*
X209702Y412769D03*
D26*
X249803Y412769D03*
D102*
X284064Y412769D03*
D37*
X323192Y412769D03*
D26*
X349083Y412769D03*
D44*
X383149Y412769D03*
D24*
X403784Y412769D03*
X425586Y412769D03*
D117*
X446416Y412769D03*
D102*
X487685Y412769D03*
D124*
X514549Y412769D03*
D37*
X543943Y412769D03*
D95*
X210091Y413159D03*
D12*
X249803Y413159D03*
D42*
X283870Y413159D03*
D12*
X322997Y413159D03*
X349083Y413159D03*
D42*
X383149Y413159D03*
D27*
X403784Y413159D03*
D12*
X425392Y413159D03*
D179*
X446221Y413159D03*
D12*
X487295Y413159D03*
D20*
X515327Y413159D03*
D62*
X544332Y413159D03*
D40*
X210481Y413548D03*
D102*
X249414Y413548D03*
D26*
X283675Y413548D03*
D37*
X322803Y413548D03*
D26*
X349083Y413548D03*
D44*
X383149Y413548D03*
X403394Y413548D03*
X425197Y413548D03*
D152*
X446026Y413548D03*
D26*
X486906Y413548D03*
D111*
X515717Y413548D03*
D120*
X544332Y413548D03*
D119*
X211065Y413937D03*
D42*
X249219Y413937D03*
D27*
X283480Y413937D03*
D12*
X322608Y413937D03*
X348693Y413937D03*
D42*
X382760Y413937D03*
X403394Y413937D03*
X425197Y413937D03*
D180*
X445637Y413937D03*
D62*
X486711Y413937D03*
D20*
X516106Y413937D03*
D22*
X544722Y413937D03*
D29*
X211649Y414327D03*
D12*
X249024Y414327D03*
X283286Y414327D03*
X322608Y414327D03*
X348693Y414327D03*
D42*
X382760Y414327D03*
X403394Y414327D03*
X425197Y414327D03*
D181*
X445637Y414327D03*
D12*
X486517Y414327D03*
D86*
X516690Y414327D03*
D22*
X544722Y414327D03*
D81*
X212232Y414716D03*
D26*
X248635Y414716D03*
D44*
X283091Y414716D03*
D120*
X322413Y414716D03*
D26*
X348693Y414716D03*
D44*
X382760Y414716D03*
X403005Y414716D03*
X425197Y414716D03*
D182*
X445442Y414716D03*
D26*
X486127Y414716D03*
D92*
X517079Y414716D03*
D37*
X545111Y414716D03*
D46*
X212817Y415105D03*
D42*
X248440Y415105D03*
D12*
X282896Y415105D03*
X322219Y415105D03*
X348304Y415105D03*
D42*
X382760Y415105D03*
X403005Y415105D03*
D12*
X425002Y415105D03*
D55*
X439797Y415105D03*
D67*
X450893Y415105D03*
D64*
X485738Y415105D03*
D86*
X517469Y415105D03*
D22*
X545111Y415105D03*
D81*
X213790Y415495D03*
D26*
X248246Y415495D03*
D24*
X282702Y415495D03*
D74*
X322024Y415495D03*
D26*
X348304Y415495D03*
X382565Y415495D03*
D59*
X403200Y415495D03*
D26*
X425002Y415495D03*
D146*
X438240Y415495D03*
D81*
X452839Y415495D03*
D37*
X485543Y415495D03*
D88*
X518247Y415495D03*
D37*
X545500Y415495D03*
D58*
X215542Y415884D03*
D27*
X248051Y415884D03*
D12*
X282507Y415884D03*
D78*
X322024Y415884D03*
D12*
X348304Y415884D03*
D27*
X382370Y415884D03*
D42*
X403005Y415884D03*
D27*
X424808Y415884D03*
D104*
X436488Y415884D03*
D29*
X453813Y415884D03*
D22*
X485154Y415884D03*
D84*
X518831Y415884D03*
D82*
X545695Y415884D03*
D119*
X216904Y416273D03*
D42*
X247662Y416273D03*
X282312Y416273D03*
D64*
X321829Y416273D03*
D27*
X348109Y416273D03*
X382370Y416273D03*
D42*
X403005Y416273D03*
D27*
X424808Y416273D03*
D45*
X435709Y416273D03*
X454786Y416273D03*
D62*
X484765Y416273D03*
D91*
X519026Y416273D03*
D22*
X545890Y416273D03*
D101*
X218267Y416663D03*
D44*
X247662Y416663D03*
D102*
X282118Y416663D03*
D37*
X321635Y416663D03*
D26*
X347915Y416663D03*
X382176Y416663D03*
D59*
X402810Y416663D03*
D24*
X424808Y416663D03*
D122*
X434930Y416663D03*
D40*
X455370Y416663D03*
D37*
X484375Y416663D03*
D88*
X519415Y416663D03*
D17*
X546084Y416663D03*
D23*
X219240Y417052D03*
D42*
X247272Y417052D03*
D64*
X282118Y417052D03*
X321440Y417052D03*
D42*
X347720Y417052D03*
D12*
X382176Y417052D03*
D27*
X402616Y417052D03*
X424808Y417052D03*
D23*
X434152Y417052D03*
D41*
X455759Y417052D03*
D12*
X484181Y417052D03*
D84*
X519999Y417052D03*
D62*
X546279Y417052D03*
D86*
X220408Y417441D03*
D12*
X247078Y417441D03*
D78*
X281923Y417441D03*
X321245Y417441D03*
D42*
X347720Y417441D03*
X381981Y417441D03*
D27*
X402616Y417441D03*
D12*
X424613Y417441D03*
D95*
X433568Y417441D03*
X456149Y417441D03*
D64*
X483791Y417441D03*
D90*
X520778Y417441D03*
D22*
X546668Y417441D03*
D77*
X221187Y417831D03*
D26*
X246688Y417831D03*
D102*
X281728Y417831D03*
D74*
X321245Y417831D03*
D102*
X347525Y417831D03*
D44*
X381981Y417831D03*
D24*
X402616Y417831D03*
D37*
X412738Y417831D03*
D44*
X424418Y417831D03*
D98*
X432984Y417831D03*
D88*
X456733Y417831D03*
D26*
X483402Y417831D03*
D129*
X521362Y417831D03*
D37*
X547058Y417831D03*
D79*
X221966Y418220D03*
D12*
X246299Y418220D03*
D78*
X281534Y418220D03*
X320856Y418220D03*
D42*
X347331Y418220D03*
D12*
X381786Y418220D03*
D27*
X402616Y418220D03*
D86*
X412349Y418220D03*
D42*
X424418Y418220D03*
D115*
X432205Y418220D03*
D84*
X457317Y418220D03*
D12*
X483013Y418220D03*
D95*
X521946Y418220D03*
D72*
X547252Y418220D03*
D124*
X222550Y418609D03*
D26*
X246299Y418609D03*
D102*
X281339Y418609D03*
D74*
X320856Y418609D03*
D26*
X347136Y418609D03*
D24*
X381592Y418609D03*
D26*
X402421Y418609D03*
D52*
X412544Y418609D03*
D44*
X424418Y418609D03*
D124*
X431621Y418609D03*
D85*
X457706Y418609D03*
D26*
X482623Y418609D03*
D106*
X522335Y418609D03*
D37*
X547447Y418609D03*
D60*
X223328Y418999D03*
D12*
X245910Y418999D03*
D64*
X280950Y418999D03*
X320661Y418999D03*
D12*
X347136Y418999D03*
D27*
X381592Y418999D03*
D42*
X402226Y418999D03*
D54*
X412738Y418999D03*
D42*
X424418Y418999D03*
D79*
X431037Y418999D03*
X457901Y418999D03*
D12*
X482623Y418999D03*
D95*
X522725Y418999D03*
D82*
X547642Y418999D03*
D94*
X223912Y419388D03*
D12*
X245910Y419388D03*
D64*
X280950Y419388D03*
D22*
X320467Y419388D03*
D27*
X346941Y419388D03*
D15*
X381397Y419388D03*
D42*
X402226Y419388D03*
D54*
X412738Y419388D03*
D15*
X424224Y419388D03*
D123*
X430453Y419388D03*
D79*
X458290Y419388D03*
D12*
X482234Y419388D03*
D95*
X523114Y419388D03*
D72*
X548031Y419388D03*
D13*
X224302Y419777D03*
D26*
X245520Y419777D03*
D102*
X280560Y419777D03*
X320272Y419777D03*
D24*
X346941Y419777D03*
D144*
X381202Y419777D03*
D44*
X402226Y419777D03*
D81*
X412738Y419777D03*
D44*
X424029Y419777D03*
D113*
X429869Y419777D03*
D114*
X458485Y419777D03*
D102*
X481845Y419777D03*
D106*
X523503Y419777D03*
D113*
X548226Y419777D03*
D20*
X225275Y420167D03*
D12*
X245520Y420167D03*
D22*
X280366Y420167D03*
D64*
X320272Y420167D03*
D12*
X346747Y420167D03*
D163*
X381202Y420167D03*
D42*
X402226Y420167D03*
D83*
X412933Y420167D03*
D42*
X424029Y420167D03*
D60*
X429285Y420167D03*
D76*
X458874Y420167D03*
D64*
X481845Y420167D03*
D95*
X524282Y420167D03*
D73*
X548615Y420167D03*
D123*
X226054Y420556D03*
D12*
X245131Y420556D03*
D64*
X280171Y420556D03*
X319883Y420556D03*
D42*
X346552Y420556D03*
D163*
X381202Y420556D03*
D27*
X401837Y420556D03*
D45*
X413517Y420556D03*
D42*
X424029Y420556D03*
D60*
X428896Y420556D03*
D99*
X459069Y420556D03*
D12*
X481455Y420556D03*
D86*
X524866Y420556D03*
D73*
X548615Y420556D03*
D113*
X226638Y420945D03*
D37*
X244936Y420945D03*
D102*
X280171Y420945D03*
X319883Y420945D03*
D44*
X346552Y420945D03*
D144*
X381202Y420945D03*
D24*
X401837Y420945D03*
D131*
X414296Y420945D03*
D59*
X423834Y420945D03*
D113*
X428312Y420945D03*
X459458Y420945D03*
D26*
X481066Y420945D03*
D98*
X525255Y420945D03*
D113*
X549004Y420945D03*
D73*
X227027Y421335D03*
D12*
X244742Y421335D03*
D64*
X279782Y421335D03*
X319493Y421335D03*
D12*
X346357Y421335D03*
D42*
X380813Y421335D03*
D27*
X401837Y421335D03*
X423640Y421335D03*
D73*
X427533Y421335D03*
X459458Y421335D03*
D64*
X480677Y421335D03*
D86*
X525645Y421335D03*
D72*
X549199Y421335D03*
D113*
X227416Y421724D03*
D120*
X244547Y421724D03*
D102*
X279782Y421724D03*
X319493Y421724D03*
D24*
X346163Y421724D03*
D44*
X380813Y421724D03*
D59*
X401642Y421724D03*
D40*
X425781Y421724D03*
D75*
X459847Y421724D03*
D44*
X480482Y421724D03*
D98*
X526034Y421724D03*
D87*
X549588Y421724D03*
D82*
X228000Y422113D03*
D22*
X244158Y422113D03*
D64*
X279392Y422113D03*
D12*
X319104Y422113D03*
X345968Y422113D03*
D42*
X380813Y422113D03*
D15*
X401642Y422113D03*
D108*
X425586Y422113D03*
D82*
X460042Y422113D03*
D64*
X480287Y422113D03*
D86*
X526813Y422113D03*
D72*
X549978Y422113D03*
X228390Y422503D03*
D12*
X243963Y422503D03*
D64*
X279392Y422503D03*
D12*
X319104Y422503D03*
X345968Y422503D03*
D42*
X380424Y422503D03*
X401448Y422503D03*
D95*
X425392Y422503D03*
D130*
X460431Y422503D03*
D64*
X479898Y422503D03*
D20*
X527397Y422503D03*
D73*
X550172Y422503D03*
D113*
X228974Y422892D03*
D120*
X243768Y422892D03*
D26*
X279003Y422892D03*
D102*
X318715Y422892D03*
D26*
X345968Y422892D03*
D44*
X380424Y422892D03*
X401448Y422892D03*
D106*
X425392Y422892D03*
D80*
X460431Y422892D03*
D102*
X479509Y422892D03*
D124*
X527786Y422892D03*
D113*
X550562Y422892D03*
D72*
X229168Y423281D03*
D22*
X243379Y423281D03*
D12*
X279003Y423281D03*
D64*
X318715Y423281D03*
D42*
X345773Y423281D03*
D166*
X380229Y423281D03*
D42*
X401448Y423281D03*
D95*
X425002Y423281D03*
D78*
X460626Y423281D03*
D64*
X479119Y423281D03*
D115*
X528370Y423281D03*
D73*
X550951Y423281D03*
D17*
X229558Y423671D03*
D26*
X243184Y423671D03*
X278614Y423671D03*
D37*
X318520Y423671D03*
D102*
X345579Y423671D03*
D144*
X380034Y423671D03*
D59*
X401253Y423671D03*
D88*
X424808Y423671D03*
D87*
X460821Y423671D03*
D102*
X478730Y423671D03*
D88*
X528759Y423671D03*
D113*
X551340Y423671D03*
D82*
X229947Y424060D03*
D22*
X242990Y424060D03*
D62*
X278419Y424060D03*
D12*
X318325Y424060D03*
D64*
X345579Y424060D03*
D163*
X380034Y424060D03*
D15*
X401253Y424060D03*
D20*
X424613Y424060D03*
D22*
X461015Y424060D03*
D64*
X478730Y424060D03*
D115*
X529149Y424060D03*
D123*
X551535Y424060D03*
D72*
X230336Y424449D03*
D64*
X242795Y424449D03*
D12*
X278224Y424449D03*
X318325Y424449D03*
D64*
X345579Y424449D03*
D163*
X380034Y424449D03*
D42*
X401058Y424449D03*
D94*
X424418Y424449D03*
D82*
X461210Y424449D03*
D64*
X478341Y424449D03*
D86*
X529538Y424449D03*
D60*
X551924Y424449D03*
D87*
X230726Y424839D03*
D74*
X242600Y424839D03*
D26*
X277835Y424839D03*
X318325Y424839D03*
X345189Y424839D03*
D44*
X379645Y424839D03*
X401058Y424839D03*
D13*
X424029Y424839D03*
D87*
X461210Y424839D03*
D26*
X477951Y424839D03*
D98*
X530317Y424839D03*
D114*
X552314Y424839D03*
D72*
X231115Y425228D03*
D64*
X242406Y425228D03*
D12*
X277835Y425228D03*
X317936Y425228D03*
X345189Y425228D03*
D42*
X379645Y425228D03*
D15*
X400864Y425228D03*
D94*
X424029Y425228D03*
D22*
X461405Y425228D03*
D12*
X477562Y425228D03*
D110*
X530900Y425228D03*
D123*
X552703Y425228D03*
D17*
X231504Y425617D03*
D102*
X242016Y425617D03*
X277446Y425617D03*
D26*
X317936Y425617D03*
D37*
X344995Y425617D03*
D44*
X379645Y425617D03*
D59*
X400864Y425617D03*
D112*
X423834Y425617D03*
D37*
X461405Y425617D03*
X477367Y425617D03*
D124*
X531290Y425617D03*
D13*
X552898Y425617D03*
D82*
X231894Y426007D03*
D22*
X241822Y426007D03*
D64*
X277446Y426007D03*
D42*
X317741Y426007D03*
D12*
X344800Y426007D03*
D64*
X379450Y426007D03*
D15*
X400864Y426007D03*
D73*
X423640Y426007D03*
D62*
X461794Y426007D03*
D64*
X477173Y426007D03*
D94*
X531874Y426007D03*
X553287Y426007D03*
D22*
X232088Y426396D03*
D64*
X241627Y426396D03*
D12*
X277056Y426396D03*
X317547Y426396D03*
X344800Y426396D03*
D163*
X379256Y426396D03*
D42*
X400669Y426396D03*
D72*
X423445Y426396D03*
D62*
X461794Y426396D03*
D12*
X476783Y426396D03*
D20*
X532458Y426396D03*
D94*
X553676Y426396D03*
D17*
X232283Y426785D03*
D102*
X241238Y426785D03*
D37*
X276862Y426785D03*
D24*
X317352Y426785D03*
D120*
X344605Y426785D03*
D144*
X379256Y426785D03*
D44*
X400669Y426785D03*
D113*
X423250Y426785D03*
D120*
X461794Y426785D03*
D26*
X476394Y426785D03*
D111*
X532847Y426785D03*
D13*
X553676Y426785D03*
D82*
X232672Y427175D03*
D64*
X241238Y427175D03*
D22*
X276862Y427175D03*
D12*
X317157Y427175D03*
X344411Y427175D03*
D64*
X379061Y427175D03*
D166*
X400474Y427175D03*
D72*
X423056Y427175D03*
D62*
X461794Y427175D03*
D12*
X476005Y427175D03*
D94*
X533431Y427175D03*
D79*
X554066Y427175D03*
D72*
X233062Y427564D03*
D64*
X240848Y427564D03*
D62*
X276472Y427564D03*
D42*
X316963Y427564D03*
D12*
X344411Y427564D03*
D27*
X378866Y427564D03*
D166*
X400474Y427564D03*
D22*
X422861Y427564D03*
D12*
X461989Y427564D03*
X475615Y427564D03*
D110*
X534015Y427564D03*
D94*
X554455Y427564D03*
D120*
X233256Y427953D03*
D44*
X240654Y427953D03*
D120*
X276472Y427953D03*
D102*
X316768Y427953D03*
D26*
X344411Y427953D03*
X378672Y427953D03*
D183*
X400474Y427953D03*
D37*
X422861Y427953D03*
X462183Y427953D03*
D26*
X475615Y427953D03*
D13*
X534599Y427953D03*
D124*
X554650Y427953D03*
D72*
X233451Y428343D03*
D64*
X240459Y428343D03*
D22*
X276083Y428343D03*
D42*
X316573Y428343D03*
D12*
X344021Y428343D03*
X378672Y428343D03*
D163*
X400280Y428343D03*
D12*
X422666Y428343D03*
D22*
X462183Y428343D03*
D64*
X475226Y428343D03*
D94*
X534988Y428343D03*
D110*
X555039Y428343D03*
D37*
X233646Y428732D03*
D102*
X240070Y428732D03*
D87*
X275888Y428732D03*
D44*
X316573Y428732D03*
D26*
X344021Y428732D03*
D44*
X378477Y428732D03*
D144*
X400280Y428732D03*
D37*
X422472Y428732D03*
X462183Y428732D03*
X475031Y428732D03*
D114*
X535572Y428732D03*
D111*
X555039Y428732D03*
D22*
X234035Y429121D03*
X239875Y429121D03*
D72*
X275499Y429121D03*
D27*
X316184Y429121D03*
D12*
X344021Y429121D03*
D64*
X378282Y429121D03*
D166*
X400085Y429121D03*
D64*
X422277Y429121D03*
D22*
X462183Y429121D03*
X474642Y429121D03*
D94*
X536156Y429121D03*
X554844Y429121D03*
D22*
X234035Y429511D03*
D12*
X239680Y429511D03*
D72*
X275499Y429511D03*
D27*
X316184Y429511D03*
D64*
X343632Y429511D03*
X378282Y429511D03*
D166*
X400085Y429511D03*
D64*
X422277Y429511D03*
D22*
X462183Y429511D03*
D62*
X474253Y429511D03*
D94*
X536546Y429511D03*
D123*
X554650Y429511D03*
D37*
X234424Y429900D03*
D26*
X239680Y429900D03*
D37*
X275304Y429900D03*
D26*
X315989Y429900D03*
D102*
X343632Y429900D03*
D26*
X377893Y429900D03*
D44*
X399890Y429900D03*
X422082Y429900D03*
D37*
X462183Y429900D03*
X473863Y429900D03*
D77*
X536935Y429900D03*
D13*
X554455Y429900D03*
D22*
X234424Y430289D03*
D27*
X239486Y430289D03*
D82*
X275110Y430289D03*
D42*
X315795Y430289D03*
D64*
X343632Y430289D03*
D12*
X377893Y430289D03*
D42*
X399890Y430289D03*
D86*
X409624Y430289D03*
D12*
X421888Y430289D03*
X462378Y430289D03*
D62*
X473474Y430289D03*
D20*
X537519Y430289D03*
D60*
X554260Y430289D03*
D37*
X234814Y430679D03*
D26*
X239291Y430679D03*
D37*
X274915Y430679D03*
D44*
X315795Y430679D03*
X343437Y430679D03*
D26*
X377893Y430679D03*
D44*
X399890Y430679D03*
D40*
X409818Y430679D03*
D26*
X421888Y430679D03*
D37*
X462573Y430679D03*
D26*
X473279Y430679D03*
D77*
X538103Y430679D03*
D114*
X553871Y430679D03*
D22*
X234814Y431068D03*
D62*
X239096Y431068D03*
D72*
X274720Y431068D03*
D12*
X315600Y431068D03*
X343243Y431068D03*
D22*
X377698Y431068D03*
D42*
X399890Y431068D03*
D50*
X410208Y431068D03*
D12*
X421888Y431068D03*
D22*
X462573Y431068D03*
X473085Y431068D03*
D79*
X538882Y431068D03*
D94*
X553287Y431068D03*
D45*
X236760Y431457D03*
D72*
X274720Y431457D03*
D27*
X315405Y431457D03*
D12*
X343243Y431457D03*
X377504Y431457D03*
D163*
X399501Y431457D03*
D21*
X410402Y431457D03*
D12*
X421888Y431457D03*
D22*
X462573Y431457D03*
X472695Y431457D03*
D79*
X539660Y431457D03*
D94*
X552898Y431457D03*
D103*
X237150Y431847D03*
D17*
X274331Y431847D03*
D26*
X315211Y431847D03*
D24*
X343048Y431847D03*
D26*
X377504Y431847D03*
D144*
X399501Y431847D03*
D81*
X410402Y431847D03*
D26*
X421498Y431847D03*
D37*
X439602Y431847D03*
X462573Y431847D03*
D26*
X472501Y431847D03*
D114*
X540244Y431847D03*
D98*
X552119Y431847D03*
D50*
X237344Y432236D03*
D72*
X274331Y432236D03*
D42*
X315016Y432236D03*
D12*
X342853Y432236D03*
X377504Y432236D03*
D163*
X399501Y432236D03*
D28*
X410402Y432236D03*
D12*
X421498Y432236D03*
D76*
X439797Y432236D03*
D22*
X462573Y432236D03*
D12*
X472111Y432236D03*
D79*
X540828Y432236D03*
D20*
X551535Y432236D03*
D61*
X237928Y432625D03*
D82*
X273942Y432625D03*
D42*
X315016Y432625D03*
D12*
X342853Y432625D03*
X377114Y432625D03*
D163*
X399501Y432625D03*
D164*
X410402Y432625D03*
D12*
X421498Y432625D03*
D86*
X439992Y432625D03*
D22*
X462573Y432625D03*
D12*
X471722Y432625D03*
D79*
X541218Y432625D03*
D110*
X551146Y432625D03*
D35*
X239486Y433015D03*
D37*
X273747Y433015D03*
D102*
X314821Y433015D03*
D44*
X342659Y433015D03*
D26*
X377114Y433015D03*
D102*
X399306Y433015D03*
D47*
X410208Y433015D03*
D37*
X421304Y433015D03*
D101*
X440186Y433015D03*
D37*
X462573Y433015D03*
D120*
X471527Y433015D03*
D112*
X541802Y433015D03*
D124*
X550756Y433015D03*
D184*
X240459Y433404D03*
D72*
X273552Y433404D03*
D42*
X314627Y433404D03*
D12*
X342464Y433404D03*
X377114Y433404D03*
D64*
X399306Y433404D03*
D61*
X410013Y433404D03*
D64*
X421109Y433404D03*
D175*
X440186Y433404D03*
D22*
X462573Y433404D03*
X471138Y433404D03*
D79*
X542386Y433404D03*
X550172Y433404D03*
D156*
X241432Y433793D03*
D37*
X273358Y433793D03*
D26*
X314432Y433793D03*
X342464Y433793D03*
D24*
X376920Y433793D03*
D102*
X399306Y433793D03*
D52*
X410208Y433793D03*
D102*
X421109Y433793D03*
D31*
X440381Y433793D03*
D37*
X462573Y433793D03*
D26*
X470943Y433793D03*
D185*
X546474Y433793D03*
D186*
X242016Y434183D03*
D22*
X273358Y434183D03*
D27*
X314237Y434183D03*
X342269Y434183D03*
D12*
X376725Y434183D03*
D42*
X399112Y434183D03*
D110*
X410986Y434183D03*
D64*
X421109Y434183D03*
D61*
X440381Y434183D03*
D22*
X462573Y434183D03*
X470749Y434183D03*
D68*
X546279Y434183D03*
D153*
X242795Y434572D03*
D22*
X272968Y434572D03*
D12*
X314043Y434572D03*
X342075Y434572D03*
X376725Y434572D03*
D64*
X398917Y434572D03*
D78*
X420914Y434572D03*
D28*
X440381Y434572D03*
D22*
X462573Y434572D03*
X470359Y434572D03*
D14*
X546279Y434572D03*
D151*
X243574Y434961D03*
D37*
X272968Y434961D03*
D26*
X314043Y434961D03*
D44*
X341880Y434961D03*
D102*
X376336Y434961D03*
X398917Y434961D03*
X420720Y434961D03*
D93*
X440576Y434961D03*
D37*
X462573Y434961D03*
X469970Y434961D03*
D43*
X546474Y434961D03*
D187*
X244158Y435351D03*
D72*
X272774Y435351D03*
D42*
X313848Y435351D03*
D64*
X341685Y435351D03*
X376336Y435351D03*
X398917Y435351D03*
X420720Y435351D03*
D68*
X440381Y435351D03*
D22*
X462573Y435351D03*
X469970Y435351D03*
D50*
X546474Y435351D03*
D188*
X245326Y435740D03*
D72*
X272384Y435740D03*
D12*
X313653Y435740D03*
D64*
X341685Y435740D03*
D22*
X376141Y435740D03*
D64*
X398917Y435740D03*
X420720Y435740D03*
D123*
X437461Y435740D03*
D60*
X443690Y435740D03*
D12*
X462378Y435740D03*
D62*
X469581Y435740D03*
D108*
X546668Y435740D03*
D185*
X247467Y436129D03*
D17*
X272384Y436129D03*
D24*
X313459Y436129D03*
D44*
X341491Y436129D03*
D26*
X375946Y436129D03*
D44*
X398722Y436129D03*
D37*
X420525Y436129D03*
D17*
X437072Y436129D03*
D87*
X444080Y436129D03*
D37*
X462183Y436129D03*
X469191Y436129D03*
D88*
X546668Y436129D03*
D135*
X249024Y436519D03*
D82*
X271995Y436519D03*
D27*
X313459Y436519D03*
D42*
X341491Y436519D03*
D12*
X375946Y436519D03*
D42*
X398722Y436519D03*
D22*
X420525Y436519D03*
D62*
X436877Y436519D03*
D64*
X444469Y436519D03*
D22*
X462183Y436519D03*
D82*
X468997Y436519D03*
D73*
X546668Y436519D03*
D47*
X250192Y436908D03*
D87*
X271995Y436908D03*
D26*
X313264Y436908D03*
D102*
X341296Y436908D03*
D37*
X375752Y436908D03*
D102*
X398528Y436908D03*
D37*
X420525Y436908D03*
D26*
X436682Y436908D03*
D44*
X444664Y436908D03*
D37*
X462183Y436908D03*
X468802Y436908D03*
D26*
X546863Y436908D03*
D54*
X251166Y437297D03*
D72*
X271606Y437297D03*
D42*
X313069Y437297D03*
D64*
X341296Y437297D03*
D12*
X375557Y437297D03*
D64*
X398528Y437297D03*
D22*
X420525Y437297D03*
D12*
X436682Y437297D03*
D42*
X444664Y437297D03*
D22*
X462183Y437297D03*
X468413Y437297D03*
D46*
X251750Y437687D03*
D22*
X271411Y437687D03*
D64*
X312875Y437687D03*
X341296Y437687D03*
D12*
X375557Y437687D03*
D64*
X398528Y437687D03*
D22*
X420525Y437687D03*
D12*
X436682Y437687D03*
D27*
X445053Y437687D03*
D22*
X462183Y437687D03*
X468023Y437687D03*
D25*
X253112Y438076D03*
D87*
X271216Y438076D03*
D44*
X312680Y438076D03*
X341101Y438076D03*
D26*
X375557Y438076D03*
D44*
X398333Y438076D03*
D37*
X420525Y438076D03*
X436488Y438076D03*
D24*
X445053Y438076D03*
D37*
X462183Y438076D03*
X468023Y438076D03*
D45*
X253891Y438465D03*
D22*
X271022Y438465D03*
D12*
X312485Y438465D03*
D64*
X340907Y438465D03*
D12*
X375168Y438465D03*
D42*
X398333Y438465D03*
D78*
X420136Y438465D03*
D22*
X436488Y438465D03*
D27*
X445053Y438465D03*
D22*
X462183Y438465D03*
D62*
X467634Y438465D03*
D48*
X254670Y438855D03*
D37*
X271022Y438855D03*
D24*
X312291Y438855D03*
D102*
X340907Y438855D03*
D26*
X375168Y438855D03*
D44*
X398333Y438855D03*
D74*
X420136Y438855D03*
D17*
X436682Y438855D03*
D24*
X445053Y438855D03*
D37*
X462183Y438855D03*
X467245Y438855D03*
D23*
X255448Y439244D03*
D62*
X270632Y439244D03*
D12*
X312096Y439244D03*
D64*
X340517Y439244D03*
D12*
X375168Y439244D03*
X398138Y439244D03*
D78*
X420136Y439244D03*
D72*
X436682Y439244D03*
D12*
X444858Y439244D03*
X461989Y439244D03*
X467050Y439244D03*
D95*
X256032Y439633D03*
D62*
X270632Y439633D03*
D42*
X311901Y439633D03*
D64*
X340517Y439633D03*
D12*
X375168Y439633D03*
D27*
X397944Y439633D03*
D78*
X420136Y439633D03*
D73*
X436877Y439633D03*
D12*
X444858Y439633D03*
X461989Y439633D03*
D22*
X466855Y439633D03*
D106*
X256811Y440023D03*
D17*
X270438Y440023D03*
D44*
X311901Y440023D03*
D74*
X340323Y440023D03*
D26*
X374778Y440023D03*
D24*
X397944Y440023D03*
D87*
X420330Y440023D03*
D113*
X436877Y440023D03*
D37*
X444664Y440023D03*
D120*
X461794Y440023D03*
D37*
X466466Y440023D03*
D95*
X257590Y440412D03*
D82*
X270048Y440412D03*
D12*
X311707Y440412D03*
D78*
X340323Y440412D03*
D12*
X374778Y440412D03*
D27*
X397944Y440412D03*
D99*
X420136Y440412D03*
D60*
X437072Y440412D03*
D22*
X444274Y440412D03*
D62*
X461794Y440412D03*
D22*
X466077Y440412D03*
D88*
X257784Y440801D03*
D87*
X270048Y440801D03*
D24*
X311512Y440801D03*
D102*
X340128Y440801D03*
D26*
X374778Y440801D03*
D24*
X397944Y440801D03*
D75*
X420136Y440801D03*
D114*
X437072Y440801D03*
D113*
X443885Y440801D03*
D17*
X461599Y440801D03*
D120*
X465687Y440801D03*
D20*
X258368Y441191D03*
D73*
X269854Y441191D03*
D27*
X311512Y441191D03*
D22*
X339933Y441191D03*
X374584Y441191D03*
D42*
X397554Y441191D03*
D99*
X420136Y441191D03*
D79*
X437656Y441191D03*
D20*
X443301Y441191D03*
D45*
X463351Y441191D03*
D84*
X258758Y441580D03*
D72*
X269659Y441580D03*
D12*
X311317Y441580D03*
D22*
X339933Y441580D03*
X374584Y441580D03*
D42*
X397554Y441580D03*
D99*
X420136Y441580D03*
D70*
X440576Y441580D03*
D45*
X462962Y441580D03*
D124*
X259147Y441969D03*
D87*
X269270Y441969D03*
D44*
X311123Y441969D03*
D102*
X339739Y441969D03*
D37*
X374194Y441969D03*
D44*
X397554Y441969D03*
D114*
X419941Y441969D03*
D71*
X440770Y441969D03*
D101*
X462767Y441969D03*
D84*
X259536Y442359D03*
D22*
X269075Y442359D03*
D64*
X310928Y442359D03*
D78*
X339544Y442359D03*
D22*
X374194Y442359D03*
D42*
X397554Y442359D03*
D60*
X419941Y442359D03*
D61*
X440770Y442359D03*
D104*
X462573Y442359D03*
D79*
X259731Y442748D03*
D72*
X268880Y442748D03*
D64*
X310928Y442748D03*
X339349Y442748D03*
D22*
X374194Y442748D03*
D42*
X397554Y442748D03*
D79*
X420136Y442748D03*
D33*
X440770Y442748D03*
D100*
X462378Y442748D03*
D77*
X260120Y443137D03*
D120*
X268686Y443137D03*
D44*
X310733Y443137D03*
D102*
X339349Y443137D03*
D37*
X373805Y443137D03*
D26*
X397360Y443137D03*
D77*
X420136Y443137D03*
D48*
X440770Y443137D03*
D101*
X461989Y443137D03*
D60*
X260704Y443527D03*
D72*
X268491Y443527D03*
D12*
X310539Y443527D03*
D64*
X339349Y443527D03*
D22*
X373805Y443527D03*
D27*
X397165Y443527D03*
D84*
X419941Y443527D03*
D90*
X440965Y443527D03*
D100*
X461989Y443527D03*
D141*
X261094Y443916D03*
D37*
X268296Y443916D03*
D24*
X310344Y443916D03*
D102*
X338960Y443916D03*
D37*
X373805Y443916D03*
D24*
X397165Y443916D03*
D85*
X419941Y443916D03*
D37*
X440770Y443916D03*
D101*
X461989Y443916D03*
D60*
X261483Y444305D03*
D82*
X268102Y444305D03*
D12*
X310149Y444305D03*
D64*
X338960Y444305D03*
D62*
X373416Y444305D03*
D27*
X397165Y444305D03*
D84*
X419941Y444305D03*
D121*
X461794Y444305D03*
D99*
X261678Y444695D03*
D73*
X267907Y444695D03*
D42*
X309955Y444695D03*
D64*
X338960Y444695D03*
D62*
X373416Y444695D03*
D15*
X396970Y444695D03*
D22*
X405730Y444695D03*
D84*
X419941Y444695D03*
D100*
X461599Y444695D03*
D75*
X262067Y445084D03*
D17*
X267712Y445084D03*
D44*
X309955Y445084D03*
D37*
X338765Y445084D03*
D120*
X373416Y445084D03*
D44*
X396776Y445084D03*
D13*
X405730Y445084D03*
D85*
X419941Y445084D03*
D48*
X461794Y445084D03*
D73*
X262456Y445473D03*
X267518Y445473D03*
D12*
X309760Y445473D03*
D22*
X338765Y445473D03*
X373026Y445473D03*
D15*
X396581Y445473D03*
D95*
X405925Y445473D03*
X419941Y445473D03*
D29*
X461599Y445473D03*
D114*
X262651Y445863D03*
D87*
X267323Y445863D03*
D24*
X309565Y445863D03*
D26*
X338571Y445863D03*
D37*
X373026Y445863D03*
D59*
X396581Y445863D03*
D52*
X406314Y445863D03*
D106*
X419941Y445863D03*
D107*
X461599Y445863D03*
D56*
X264987Y446252D03*
D12*
X309371Y446252D03*
X338571Y446252D03*
D22*
X373026Y446252D03*
D15*
X396581Y446252D03*
D21*
X406509Y446252D03*
D95*
X419941Y446252D03*
D21*
X461405Y446252D03*
D50*
X264987Y446641D03*
D12*
X309371Y446641D03*
D22*
X338376Y446641D03*
D82*
X372832Y446641D03*
D15*
X396581Y446641D03*
D58*
X406704Y446641D03*
D95*
X419941Y446641D03*
D21*
X461405Y446641D03*
D40*
X264987Y447031D03*
D44*
X309176Y447031D03*
D37*
X338376Y447031D03*
X372637Y447031D03*
D59*
X396581Y447031D03*
D43*
X407093Y447031D03*
D106*
X419941Y447031D03*
D43*
X461210Y447031D03*
D41*
X264987Y447420D03*
D64*
X308981Y447420D03*
D12*
X338181Y447420D03*
D22*
X372637Y447420D03*
D42*
X396386Y447420D03*
D29*
X407482Y447420D03*
D23*
X420136Y447420D03*
D83*
X461210Y447420D03*
D95*
X264987Y447809D03*
D64*
X308981Y447809D03*
D12*
X338181Y447809D03*
D72*
X372442Y447809D03*
D42*
X396386Y447809D03*
D41*
X407872Y447809D03*
D42*
X417800Y447809D03*
D99*
X421304Y447809D03*
D61*
X461015Y447809D03*
D88*
X265182Y448199D03*
D26*
X308592Y448199D03*
D120*
X337987Y448199D03*
D37*
X372248Y448199D03*
D44*
X396386Y448199D03*
D124*
X408261Y448199D03*
D44*
X417800Y448199D03*
D87*
X421498Y448199D03*
D63*
X461015Y448199D03*
D95*
X265376Y448588D03*
D22*
X308397Y448588D03*
D62*
X337987Y448588D03*
D22*
X372248Y448588D03*
D42*
X396386Y448588D03*
D73*
X408845Y448588D03*
D42*
X417800Y448588D03*
D82*
X421888Y448588D03*
D91*
X459458Y448588D03*
D12*
X463935Y448588D03*
D189*
X269854Y448977D03*
D26*
X308203Y448977D03*
X337792Y448977D03*
D37*
X372248Y448977D03*
D44*
X396386Y448977D03*
X409234Y448977D03*
X417800Y448977D03*
D87*
X421888Y448977D03*
D88*
X459069Y448977D03*
D26*
X464325Y448977D03*
D190*
X271606Y449367D03*
D12*
X308203Y449367D03*
X337792Y449367D03*
D22*
X371858Y449367D03*
D42*
X396386Y449367D03*
D177*
X409624Y449367D03*
D15*
X417605Y449367D03*
D82*
X421888Y449367D03*
D20*
X458874Y449367D03*
D12*
X464325Y449367D03*
D191*
X272579Y449756D03*
D42*
X308008Y449756D03*
D22*
X337597Y449756D03*
X371858Y449756D03*
D15*
X396192Y449756D03*
X417605Y449756D03*
D72*
X422277Y449756D03*
D86*
X458679Y449756D03*
D12*
X464325Y449756D03*
D157*
X272968Y450145D03*
D26*
X307813Y450145D03*
X337403Y450145D03*
X371664Y450145D03*
D24*
X395997Y450145D03*
D59*
X417605Y450145D03*
D37*
X422472Y450145D03*
D88*
X458290Y450145D03*
D26*
X464325Y450145D03*
D192*
X273747Y450535D03*
D12*
X307813Y450535D03*
X337403Y450535D03*
D62*
X371469Y450535D03*
D27*
X395997Y450535D03*
X417021Y450535D03*
D12*
X422666Y450535D03*
D20*
X458095Y450535D03*
D42*
X464519Y450535D03*
D193*
X274331Y450924D03*
D26*
X307424Y450924D03*
D37*
X337208Y450924D03*
D26*
X371275Y450924D03*
D24*
X395997Y450924D03*
X417021Y450924D03*
D37*
X422861Y450924D03*
D88*
X457901Y450924D03*
D44*
X464519Y450924D03*
D23*
X267518Y451313D03*
D149*
X279587Y451313D03*
D12*
X307424Y451313D03*
D64*
X337013Y451313D03*
D12*
X371275Y451313D03*
D27*
X395997Y451313D03*
X417021Y451313D03*
D22*
X422861Y451313D03*
D91*
X457511Y451313D03*
D64*
X464714Y451313D03*
D72*
X266544Y451703D03*
D70*
X282507Y451703D03*
D42*
X307229Y451703D03*
D64*
X337013Y451703D03*
D22*
X371080Y451703D03*
D42*
X395608Y451703D03*
D27*
X417021Y451703D03*
D12*
X423056Y451703D03*
D86*
X457122Y451703D03*
D64*
X464714Y451703D03*
D59*
X265766Y452092D03*
D47*
X283286Y452092D03*
D44*
X307229Y452092D03*
D102*
X337013Y452092D03*
D26*
X370885Y452092D03*
D44*
X395608Y452092D03*
D24*
X417021Y452092D03*
D120*
X423250Y452092D03*
D109*
X456927Y452092D03*
D102*
X464714Y452092D03*
D83*
X284454Y452481D03*
D64*
X307035Y452481D03*
D22*
X336819Y452481D03*
D12*
X370885Y452481D03*
D42*
X395608Y452481D03*
D15*
X416826Y452481D03*
D12*
X423445Y452481D03*
D95*
X456538Y452481D03*
D64*
X464714Y452481D03*
D63*
X285038Y452871D03*
D102*
X307035Y452871D03*
D26*
X336624Y452871D03*
X370885Y452871D03*
D44*
X395608Y452871D03*
X416632Y452871D03*
D26*
X423445Y452871D03*
D98*
X456343Y452871D03*
D44*
X464909Y452871D03*
D21*
X285816Y453260D03*
D42*
X306840Y453260D03*
D12*
X336624Y453260D03*
D42*
X370691Y453260D03*
D12*
X395413Y453260D03*
D42*
X416632Y453260D03*
D12*
X423834Y453260D03*
D95*
X456149Y453260D03*
D12*
X465103Y453260D03*
D50*
X286790Y453649D03*
D42*
X306840Y453649D03*
D22*
X336429Y453649D03*
D64*
X370496Y453649D03*
D27*
X395218Y453649D03*
D42*
X416632Y453649D03*
D12*
X423834Y453649D03*
D95*
X455759Y453649D03*
D12*
X465103Y453649D03*
D48*
X287763Y454039D03*
D26*
X306645Y454039D03*
X336235Y454039D03*
D44*
X370301Y454039D03*
D24*
X395218Y454039D03*
D44*
X416632Y454039D03*
D102*
X424224Y454039D03*
D106*
X455370Y454039D03*
D26*
X465103Y454039D03*
D41*
X288347Y454428D03*
D27*
X306451Y454428D03*
D12*
X336235Y454428D03*
D42*
X370301Y454428D03*
D27*
X395218Y454428D03*
D42*
X416632Y454428D03*
D22*
X424418Y454428D03*
D95*
X454981Y454428D03*
D27*
X465298Y454428D03*
D23*
X288931Y454817D03*
D12*
X306256Y454817D03*
D62*
X336040Y454817D03*
D42*
X370301Y454817D03*
D27*
X395218Y454817D03*
D42*
X416632Y454817D03*
D12*
X424613Y454817D03*
D95*
X454591Y454817D03*
D27*
X465298Y454817D03*
D122*
X289710Y455207D03*
D26*
X306256Y455207D03*
X335845Y455207D03*
D24*
X369912Y455207D03*
D26*
X395024Y455207D03*
D24*
X416242Y455207D03*
D37*
X424808Y455207D03*
D106*
X454202Y455207D03*
D26*
X465493Y455207D03*
D95*
X290294Y455596D03*
D62*
X306061Y455596D03*
D12*
X335845Y455596D03*
D27*
X369912Y455596D03*
D12*
X395024Y455596D03*
D27*
X416242Y455596D03*
D62*
X425197Y455596D03*
D23*
X454007Y455596D03*
D12*
X465493Y455596D03*
D98*
X290878Y455985D03*
D37*
X305672Y455985D03*
X335651Y455985D03*
D24*
X369912Y455985D03*
D26*
X395024Y455985D03*
D24*
X416242Y455985D03*
D120*
X425197Y455985D03*
D105*
X453618Y455985D03*
D44*
X465687Y455985D03*
D86*
X291267Y456375D03*
D22*
X305672Y456375D03*
X335651Y456375D03*
D42*
X369523Y456375D03*
D12*
X395024Y456375D03*
D27*
X416242Y456375D03*
D22*
X425586Y456375D03*
D23*
X453229Y456375D03*
D42*
X465687Y456375D03*
D110*
X291851Y456764D03*
D22*
X305672Y456764D03*
D12*
X335456Y456764D03*
D42*
X369523Y456764D03*
D12*
X395024Y456764D03*
D27*
X416242Y456764D03*
D22*
X425976Y456764D03*
D108*
X452839Y456764D03*
D12*
X465882Y456764D03*
D124*
X292240Y457153D03*
D37*
X305672Y457153D03*
D26*
X335456Y457153D03*
D44*
X369523Y457153D03*
D26*
X395024Y457153D03*
X416048Y457153D03*
D37*
X425976Y457153D03*
D101*
X452255Y457153D03*
D24*
X466077Y457153D03*
D20*
X292630Y457543D03*
D82*
X305477Y457543D03*
D22*
X335261Y457543D03*
D42*
X369523Y457543D03*
D64*
X394634Y457543D03*
D42*
X415853Y457543D03*
D82*
X426560Y457543D03*
D41*
X451866Y457543D03*
D27*
X466077Y457543D03*
D86*
X293213Y457932D03*
D22*
X305283Y457932D03*
D64*
X335067Y457932D03*
D27*
X369133Y457932D03*
D64*
X394634Y457932D03*
D42*
X415853Y457932D03*
D73*
X427144Y457932D03*
D41*
X451477Y457932D03*
D27*
X466077Y457932D03*
D98*
X293603Y458321D03*
D37*
X305283Y458321D03*
X334872Y458321D03*
D24*
X369133Y458321D03*
D102*
X394634Y458321D03*
D44*
X415853Y458321D03*
D114*
X427338Y458321D03*
D40*
X451088Y458321D03*
D59*
X466271Y458321D03*
D115*
X293992Y458711D03*
D72*
X305088Y458711D03*
D22*
X334872Y458711D03*
D27*
X369133Y458711D03*
D42*
X394440Y458711D03*
X415853Y458711D03*
D94*
X427922Y458711D03*
D45*
X450503Y458711D03*
D42*
X466466Y458711D03*
D88*
X294381Y459100D03*
D17*
X305088Y459100D03*
D87*
X334677Y459100D03*
D26*
X368939Y459100D03*
D44*
X394440Y459100D03*
D26*
X415658Y459100D03*
D88*
X428701Y459100D03*
D25*
X449725Y459100D03*
D44*
X466466Y459100D03*
D115*
X294771Y459489D03*
D73*
X304893Y459489D03*
D22*
X334483Y459489D03*
D42*
X368744Y459489D03*
D12*
X394245Y459489D03*
D20*
X403978Y459489D03*
D12*
X415658Y459489D03*
D50*
X430064Y459489D03*
D54*
X448946Y459489D03*
D15*
X466661Y459489D03*
D86*
X295160Y459879D03*
D73*
X304893Y459879D03*
D22*
X334483Y459879D03*
D42*
X368744Y459879D03*
D12*
X394245Y459879D03*
D41*
X403978Y459879D03*
D27*
X415464Y459879D03*
D83*
X431232Y459879D03*
D28*
X447778Y459879D03*
D15*
X466661Y459879D03*
D98*
X295549Y460268D03*
D112*
X304699Y460268D03*
D37*
X334483Y460268D03*
D44*
X368744Y460268D03*
D26*
X394245Y460268D03*
D25*
X403784Y460268D03*
D24*
X415464Y460268D03*
D30*
X432400Y460268D03*
D185*
X446416Y460268D03*
D59*
X466661Y460268D03*
D115*
X295939Y460657D03*
D73*
X304504Y460657D03*
D12*
X334288Y460657D03*
D42*
X368355Y460657D03*
D12*
X394245Y460657D03*
D61*
X403784Y460657D03*
D12*
X415269Y460657D03*
D194*
X439602Y460657D03*
D42*
X466855Y460657D03*
D124*
X296133Y461047D03*
D114*
X304309Y461047D03*
D120*
X334093Y461047D03*
D44*
X368355Y461047D03*
D24*
X394050Y461047D03*
D63*
X403784Y461047D03*
D26*
X415269Y461047D03*
D195*
X439797Y461047D03*
D44*
X466855Y461047D03*
D20*
X296523Y461436D03*
D73*
X304115Y461436D03*
D62*
X334093Y461436D03*
D42*
X368355Y461436D03*
D27*
X394050Y461436D03*
D61*
X403784Y461436D03*
D12*
X415269Y461436D03*
D160*
X439602Y461436D03*
D42*
X466855Y461436D03*
D94*
X297107Y461825D03*
D123*
X303920Y461825D03*
D62*
X334093Y461825D03*
D12*
X368160Y461825D03*
X393856Y461825D03*
D89*
X403978Y461825D03*
D27*
X415074Y461825D03*
D168*
X439797Y461825D03*
D42*
X466855Y461825D03*
D13*
X297496Y462215D03*
X303725Y462215D03*
D37*
X333704Y462215D03*
D24*
X367965Y462215D03*
D26*
X393856Y462215D03*
D43*
X404368Y462215D03*
D26*
X414880Y462215D03*
D196*
X439992Y462215D03*
D26*
X467050Y462215D03*
D60*
X297691Y462604D03*
D94*
X303725Y462604D03*
D22*
X333704Y462604D03*
D27*
X367965Y462604D03*
D12*
X393856Y462604D03*
D41*
X404757Y462604D03*
D12*
X414880Y462604D03*
D188*
X439992Y462604D03*
D27*
X467245Y462604D03*
D112*
X298080Y462993D03*
D124*
X303531Y462993D03*
D26*
X333509Y462993D03*
D24*
X367965Y462993D03*
D26*
X393856Y462993D03*
D98*
X405341Y462993D03*
D26*
X414880Y462993D03*
D117*
X439797Y462993D03*
D24*
X467245Y462993D03*
D70*
X301195Y463383D03*
D22*
X333315Y463383D03*
D42*
X367576Y463383D03*
D12*
X393856Y463383D03*
D73*
X405730Y463383D03*
D42*
X414685Y463383D03*
D104*
X439213Y463383D03*
D27*
X467245Y463383D03*
D46*
X301195Y463772D03*
D22*
X333315Y463772D03*
D42*
X367576Y463772D03*
X393661Y463772D03*
X414685Y463772D03*
D27*
X467245Y463772D03*
D81*
X301389Y464161D03*
D37*
X333315Y464161D03*
D44*
X367576Y464161D03*
D26*
X393466Y464161D03*
X414490Y464161D03*
D44*
X467634Y464161D03*
D34*
X303725Y464551D03*
D64*
X333120Y464551D03*
D42*
X367576Y464551D03*
D12*
X393466Y464551D03*
X414490Y464551D03*
D42*
X467634Y464551D03*
D127*
X304309Y464940D03*
D22*
X332925Y464940D03*
D27*
X367187Y464940D03*
D12*
X393466Y464940D03*
X414490Y464940D03*
D42*
X467634Y464940D03*
D152*
X305477Y465329D03*
D37*
X332925Y465329D03*
D24*
X367187Y465329D03*
D26*
X393466Y465329D03*
X414490Y465329D03*
D24*
X468023Y465329D03*
D125*
X306061Y465719D03*
D12*
X332731Y465719D03*
D27*
X367187Y465719D03*
D12*
X393466Y465719D03*
D27*
X414296Y465719D03*
X468023Y465719D03*
D151*
X306645Y466108D03*
D37*
X332536Y466108D03*
D24*
X367187Y466108D03*
X393272Y466108D03*
X414296Y466108D03*
X468023Y466108D03*
D49*
X307229Y466497D03*
D12*
X332341Y466497D03*
D42*
X366797Y466497D03*
D12*
X393077Y466497D03*
X414101Y466497D03*
X468218Y466497D03*
D174*
X308008Y466887D03*
D12*
X332341Y466887D03*
D42*
X366797Y466887D03*
D12*
X393077Y466887D03*
X414101Y466887D03*
D42*
X468413Y466887D03*
D197*
X312680Y467276D03*
D120*
X332147Y467276D03*
D44*
X366797Y467276D03*
D26*
X393077Y467276D03*
X414101Y467276D03*
D44*
X468413Y467276D03*
D46*
X314432Y467665D03*
D62*
X332147Y467665D03*
D42*
X366797Y467665D03*
D12*
X393077Y467665D03*
D42*
X413906Y467665D03*
D64*
X468607Y467665D03*
D25*
X315405Y468055D03*
D26*
X331952Y468055D03*
D102*
X366603Y468055D03*
D26*
X393077Y468055D03*
D44*
X413906Y468055D03*
X468802Y468055D03*
D29*
X316379Y468444D03*
D22*
X331757Y468444D03*
D42*
X366408Y468444D03*
X392882Y468444D03*
D12*
X413712Y468444D03*
D42*
X468802Y468444D03*
D45*
X316963Y468833D03*
D22*
X331757Y468833D03*
D42*
X366408Y468833D03*
D64*
X392688Y468833D03*
D27*
X413517Y468833D03*
D12*
X468997Y468833D03*
D101*
X317936Y469223D03*
D37*
X331757Y469223D03*
D44*
X366408Y469223D03*
D102*
X392688Y469223D03*
D24*
X413517Y469223D03*
D26*
X468997Y469223D03*
D121*
X318520Y469612D03*
D22*
X331368Y469612D03*
D12*
X366213Y469612D03*
D64*
X392688Y469612D03*
D27*
X413517Y469612D03*
D12*
X468997Y469612D03*
D95*
X319104Y470001D03*
D22*
X331368Y470001D03*
D12*
X366213Y470001D03*
D42*
X392493Y470001D03*
D27*
X413517Y470001D03*
X469191Y470001D03*
D109*
X319493Y470391D03*
D102*
X331173Y470391D03*
D26*
X366213Y470391D03*
D44*
X392493Y470391D03*
X413128Y470391D03*
D24*
X469191Y470391D03*
D91*
X320077Y470780D03*
D22*
X330979Y470780D03*
D12*
X366213Y470780D03*
D42*
X392493Y470780D03*
X413128Y470780D03*
D12*
X469386Y470780D03*
D109*
X320661Y471169D03*
D26*
X330784Y471169D03*
D37*
X366019Y471169D03*
D26*
X392298Y471169D03*
D44*
X413128Y471169D03*
D26*
X469386Y471169D03*
D79*
X321635Y471559D03*
D12*
X330784Y471559D03*
D22*
X366019Y471559D03*
D27*
X392104Y471559D03*
D15*
X412933Y471559D03*
D42*
X469581Y471559D03*
D79*
X322413Y471948D03*
D22*
X330589Y471948D03*
D12*
X365824Y471948D03*
D27*
X392104Y471948D03*
D15*
X412933Y471948D03*
D42*
X469581Y471948D03*
D77*
X322803Y472337D03*
D37*
X330589Y472337D03*
D26*
X365824Y472337D03*
D24*
X392104Y472337D03*
D44*
X412738Y472337D03*
X469581Y472337D03*
D60*
X323387Y472727D03*
D12*
X330395Y472727D03*
D62*
X365629Y472727D03*
D27*
X392104Y472727D03*
D15*
X412544Y472727D03*
D42*
X469581Y472727D03*
D113*
X323971Y473116D03*
D26*
X330395Y473116D03*
D120*
X365629Y473116D03*
D59*
X391909Y473116D03*
X412544Y473116D03*
D44*
X469581Y473116D03*
D79*
X324360Y473505D03*
D12*
X330395Y473505D03*
X365435Y473505D03*
D42*
X391714Y473505D03*
D15*
X412544Y473505D03*
D42*
X469581Y473505D03*
D123*
X324944Y473895D03*
D62*
X330200Y473895D03*
D22*
X365240Y473895D03*
D42*
X391714Y473895D03*
D15*
X412544Y473895D03*
D27*
X469970Y473895D03*
D87*
X325723Y474284D03*
D120*
X330200Y474284D03*
D26*
X365045Y474284D03*
D44*
X391714Y474284D03*
D59*
X412544Y474284D03*
D24*
X469970Y474284D03*
D45*
X327864Y474673D03*
D12*
X365045Y474673D03*
D42*
X391714Y474673D03*
D15*
X412154Y474673D03*
D27*
X469970Y474673D03*
D40*
X328059Y475063D03*
D35*
X341491Y475063D03*
D102*
X364656Y475063D03*
D44*
X391714Y475063D03*
D59*
X412154Y475063D03*
D24*
X469970Y475063D03*
D198*
X337013Y475452D03*
D64*
X364656Y475452D03*
D42*
X391714Y475452D03*
D15*
X412154Y475452D03*
D19*
X460431Y475452D03*
D27*
X469970Y475452D03*
D199*
X338376Y475841D03*
D64*
X364656Y475841D03*
D27*
X391325Y475841D03*
D15*
X412154Y475841D03*
D200*
X460237Y475841D03*
D27*
X469970Y475841D03*
D201*
X338960Y476231D03*
D26*
X364267Y476231D03*
D24*
X391325Y476231D03*
D85*
X400864Y476231D03*
D44*
X411960Y476231D03*
D59*
X460431Y476231D03*
X470165Y476231D03*
D202*
X339739Y476620D03*
D12*
X364267Y476620D03*
D27*
X391325Y476620D03*
D100*
X400864Y476620D03*
D42*
X411960Y476620D03*
D15*
X460431Y476620D03*
D42*
X470359Y476620D03*
D203*
X339933Y477009D03*
D12*
X364267Y477009D03*
D27*
X391325Y477009D03*
D33*
X401058Y477009D03*
D15*
X411765Y477009D03*
X460431Y477009D03*
D42*
X470359Y477009D03*
D204*
X340517Y477399D03*
D37*
X364072Y477399D03*
D24*
X391325Y477399D03*
D57*
X401253Y477399D03*
D59*
X411765Y477399D03*
X460431Y477399D03*
D44*
X470359Y477399D03*
D134*
X331952Y477788D03*
D34*
X348499Y477788D03*
D22*
X364072Y477788D03*
D27*
X391325Y477788D03*
D61*
X401448Y477788D03*
D15*
X411765Y477788D03*
D178*
X460626Y477788D03*
D42*
X470359Y477788D03*
D40*
X330784Y478177D03*
D30*
X350640Y478177D03*
D37*
X364072Y478177D03*
D26*
X391130Y478177D03*
D146*
X402032Y478177D03*
D24*
X411570Y478177D03*
D158*
X460626Y478177D03*
D44*
X470359Y478177D03*
D60*
X330005Y478567D03*
D50*
X352197Y478567D03*
D72*
X363877Y478567D03*
D42*
X390936Y478567D03*
D61*
X402226Y478567D03*
D27*
X411570Y478567D03*
D15*
X460821Y478567D03*
X470554Y478567D03*
D178*
X329421Y478956D03*
D100*
X353365Y478956D03*
D62*
X363683Y478956D03*
D42*
X390936Y478956D03*
D33*
X402616Y478956D03*
D27*
X411570Y478956D03*
D15*
X460821Y478956D03*
X470554Y478956D03*
D40*
X354144Y479345D03*
D120*
X363683Y479345D03*
D44*
X390936Y479345D03*
D122*
X403005Y479345D03*
D24*
X411570Y479345D03*
D59*
X460821Y479345D03*
X470554Y479345D03*
D95*
X354923Y479735D03*
D72*
X363488Y479735D03*
D64*
X390741Y479735D03*
D27*
X411570Y479735D03*
D178*
X461015Y479735D03*
D42*
X470749Y479735D03*
D140*
X355701Y480124D03*
D72*
X363488Y480124D03*
D64*
X390741Y480124D03*
D12*
X411376Y480124D03*
D178*
X461015Y480124D03*
D42*
X470749Y480124D03*
D124*
X356480Y480513D03*
D17*
X363488Y480513D03*
D44*
X390546Y480513D03*
X411181Y480513D03*
D158*
X461015Y480513D03*
D59*
X470943Y480513D03*
D94*
X357064Y480903D03*
D73*
X363293Y480903D03*
D42*
X390546Y480903D03*
X411181Y480903D03*
D15*
X461210Y480903D03*
X470943Y480903D03*
D205*
X559322Y480903D03*
D112*
X357648Y481292D03*
X363099Y481292D03*
D44*
X390546Y481292D03*
X411181Y481292D03*
D11*
X461405Y481292D03*
D59*
X470943Y481292D03*
D206*
X559127Y481292D03*
D28*
X360568Y481681D03*
D12*
X390352Y481681D03*
D42*
X411181Y481681D03*
D200*
X461405Y481681D03*
D27*
X471138Y481681D03*
D54*
X360957Y482071D03*
D27*
X390157Y482071D03*
D42*
X410792Y482071D03*
D200*
X461405Y482071D03*
D27*
X471138Y482071D03*
D43*
X361152Y482460D03*
D24*
X390157Y482460D03*
D44*
X410792Y482460D03*
D11*
X461405Y482460D03*
D24*
X471138Y482460D03*
D188*
X364461Y482849D03*
D27*
X390157Y482849D03*
D15*
X410597Y482849D03*
D200*
X461405Y482849D03*
D15*
X471333Y482849D03*
D151*
X365435Y483239D03*
D24*
X390157Y483239D03*
D59*
X410597Y483239D03*
D158*
X461794Y483239D03*
D44*
X471527Y483239D03*
D207*
X366213Y483628D03*
D12*
X389962Y483628D03*
D27*
X410402Y483628D03*
D178*
X461794Y483628D03*
D42*
X471527Y483628D03*
D154*
X366992Y484017D03*
D42*
X389768Y484017D03*
D15*
X410208Y484017D03*
D178*
X461794Y484017D03*
D42*
X471527Y484017D03*
D208*
X367576Y484407D03*
D44*
X389768Y484407D03*
D59*
X410208Y484407D03*
D158*
X461794Y484407D03*
D44*
X471527Y484407D03*
D171*
X368160Y484796D03*
D42*
X389768Y484796D03*
D15*
X410208Y484796D03*
D178*
X461794Y484796D03*
D15*
X471722Y484796D03*
D209*
X368744Y485185D03*
D44*
X389768Y485185D03*
D59*
X410208Y485185D03*
X461989Y485185D03*
D24*
X471917Y485185D03*
D181*
X369328Y485574D03*
D42*
X389768Y485574D03*
X410013Y485574D03*
D15*
X461989Y485574D03*
D27*
X471917Y485574D03*
D20*
X363099Y485964D03*
D41*
X375946Y485964D03*
D12*
X389573Y485964D03*
D42*
X410013Y485964D03*
D200*
X462183Y485964D03*
D27*
X471917Y485964D03*
D200*
X538882Y485964D03*
D17*
X362709Y486353D03*
D105*
X376920Y486353D03*
D26*
X389573Y486353D03*
D44*
X410013Y486353D03*
D11*
X462183Y486353D03*
D24*
X471917Y486353D03*
D144*
X538492Y486353D03*
D15*
X362709Y486742D03*
D90*
X377893Y486742D03*
D12*
X389573Y486742D03*
D15*
X409818Y486742D03*
D200*
X462183Y486742D03*
D42*
X472306Y486742D03*
D82*
X538298Y486742D03*
D84*
X378672Y487132D03*
D12*
X389573Y487132D03*
D15*
X409818Y487132D03*
X462378Y487132D03*
D42*
X472306Y487132D03*
D60*
X538298Y487132D03*
D85*
X379450Y487521D03*
D26*
X389573Y487521D03*
D59*
X409818Y487521D03*
X462378Y487521D03*
D44*
X472306Y487521D03*
D77*
X538103Y487521D03*
D79*
X380034Y487910D03*
D27*
X389378Y487910D03*
D15*
X409818Y487910D03*
X462378Y487910D03*
D42*
X472306Y487910D03*
D121*
X537714Y487910D03*
D77*
X380424Y488300D03*
D26*
X389184Y488300D03*
D24*
X409624Y488300D03*
D59*
X462378Y488300D03*
D26*
X472501Y488300D03*
D31*
X537324Y488300D03*
D76*
X381008Y488689D03*
D12*
X389184Y488689D03*
D15*
X409429Y488689D03*
X462767Y488689D03*
D27*
X472695Y488689D03*
D134*
X536351Y488689D03*
D60*
X381397Y489078D03*
D42*
X388989Y489078D03*
D15*
X409429Y489078D03*
X462767Y489078D03*
D27*
X472695Y489078D03*
D147*
X535572Y489078D03*
D114*
X381786Y489468D03*
D44*
X388989Y489468D03*
X409234Y489468D03*
D59*
X462767Y489468D03*
D26*
X472890Y489468D03*
D156*
X534599Y489468D03*
D76*
X382176Y489857D03*
D64*
X388794Y489857D03*
D60*
X397360Y489857D03*
D42*
X409234Y489857D03*
D15*
X462767Y489857D03*
D12*
X472890Y489857D03*
D210*
X533820Y489857D03*
D112*
X382565Y490246D03*
D44*
X388600Y490246D03*
D88*
X397554Y490246D03*
D59*
X409040Y490246D03*
D44*
X462962Y490246D03*
D24*
X473085Y490246D03*
D211*
X532847Y490246D03*
D73*
X383149Y490636D03*
D64*
X388794Y490636D03*
D23*
X397944Y490636D03*
D42*
X408845Y490636D03*
X462962Y490636D03*
D27*
X473085Y490636D03*
D159*
X531874Y490636D03*
D73*
X383538Y491025D03*
D64*
X388794Y491025D03*
D100*
X398528Y491025D03*
D42*
X408845Y491025D03*
D15*
X463157Y491025D03*
D12*
X473279Y491025D03*
D212*
X528370Y491025D03*
D99*
X540439Y491025D03*
D113*
X383928Y491414D03*
D26*
X388405Y491414D03*
D36*
X398722Y491414D03*
D44*
X408845Y491414D03*
D59*
X463157Y491414D03*
D26*
X473279Y491414D03*
D151*
X525061Y491414D03*
D37*
X541218Y491414D03*
D50*
X386069Y491804D03*
D29*
X399306Y491804D03*
D15*
X408650Y491804D03*
X463157Y491804D03*
D42*
X473474Y491804D03*
D187*
X522919Y491804D03*
D22*
X541218Y491804D03*
D108*
X386264Y492193D03*
D104*
X399890Y492193D03*
D15*
X408650Y492193D03*
D200*
X463351Y492193D03*
D42*
X473474Y492193D03*
D153*
X521167Y492193D03*
D22*
X541607Y492193D03*
D106*
X386458Y492582D03*
D109*
X400474Y492582D03*
D24*
X408456Y492582D03*
D11*
X463351Y492582D03*
D44*
X473474Y492582D03*
D213*
X519415Y492582D03*
D87*
X541802Y492582D03*
D95*
X386458Y492972D03*
D79*
X401058Y492972D03*
D15*
X408261Y492972D03*
X463546Y492972D03*
D12*
X473669Y492972D03*
D186*
X517663Y492972D03*
D82*
X541802Y492972D03*
D98*
X386653Y493361D03*
D37*
X401448Y493361D03*
D59*
X408261Y493361D03*
X463546Y493361D03*
D24*
X473863Y493361D03*
D214*
X515133Y493361D03*
D17*
X542191Y493361D03*
D110*
X386848Y493750D03*
D15*
X408261Y493750D03*
D178*
X463741Y493750D03*
D27*
X473863Y493750D03*
D215*
X511629Y493750D03*
D72*
X542191Y493750D03*
D94*
X387042Y494140D03*
D15*
X407872Y494140D03*
D178*
X463741Y494140D03*
D12*
X474058Y494140D03*
D216*
X508903Y494140D03*
D72*
X542580Y494140D03*
D113*
X387042Y494529D03*
D59*
X407872Y494529D03*
D158*
X463741Y494529D03*
D26*
X474058Y494529D03*
D217*
X506567Y494529D03*
D17*
X542580Y494529D03*
D73*
X387042Y494918D03*
D15*
X407872Y494918D03*
D178*
X463741Y494918D03*
D42*
X474253Y494918D03*
D181*
X503647Y494918D03*
D82*
X542970Y494918D03*
X387237Y495308D03*
D15*
X407872Y495308D03*
D19*
X463935Y495308D03*
D42*
X474253Y495308D03*
D168*
X500533Y495308D03*
D82*
X542970Y495308D03*
D37*
X387432Y495697D03*
D24*
X407677Y495697D03*
D11*
X464130Y495697D03*
D44*
X474253Y495697D03*
D195*
X496250Y495697D03*
D87*
X542970Y495697D03*
D27*
X387432Y496086D03*
D15*
X407482Y496086D03*
D200*
X464130Y496086D03*
D42*
X474253Y496086D03*
D218*
X493525Y496086D03*
D72*
X543359Y496086D03*
D59*
X387626Y496476D03*
X407482Y496476D03*
D11*
X464130Y496476D03*
D219*
X487685Y496476D03*
D17*
X543359Y496476D03*
D15*
X387626Y496865D03*
X407482Y496865D03*
D200*
X464130Y496865D03*
D220*
X486711Y496865D03*
D82*
X543748Y496865D03*
D24*
X387432Y497254D03*
D44*
X407288Y497254D03*
D65*
X464325Y497254D03*
D221*
X485738Y497254D03*
D87*
X543748Y497254D03*
D27*
X387432Y497644D03*
D42*
X407288Y497644D03*
D19*
X464325Y497644D03*
D222*
X484375Y497644D03*
D72*
X544138Y497644D03*
D27*
X387432Y498033D03*
D42*
X407288Y498033D03*
D178*
X464519Y498033D03*
D168*
X483013Y498033D03*
D73*
X544332Y498033D03*
D24*
X387432Y498422D03*
D59*
X407093Y498422D03*
D158*
X464519Y498422D03*
D151*
X481066Y498422D03*
D113*
X544332Y498422D03*
D27*
X387432Y498812D03*
D42*
X406898Y498812D03*
D178*
X464519Y498812D03*
D223*
X479509Y498812D03*
D60*
X544138Y498812D03*
D27*
X387432Y499201D03*
D42*
X406898Y499201D03*
D178*
X464519Y499201D03*
D33*
X478146Y499201D03*
D60*
X544138Y499201D03*
D24*
X387432Y499590D03*
D44*
X406898Y499590D03*
D158*
X464909Y499590D03*
D17*
X476394Y499590D03*
D13*
X543943Y499590D03*
D12*
X387237Y499980D03*
D42*
X406898Y499980D03*
D178*
X464909Y499980D03*
D94*
X543554Y499980D03*
D44*
X387042Y500369D03*
D26*
X406704Y500369D03*
D158*
X464909Y500369D03*
D112*
X542970Y500369D03*
D42*
X387042Y500758D03*
D12*
X406704Y500758D03*
D178*
X464909Y500758D03*
D60*
X542580Y500758D03*
D42*
X387042Y501148D03*
D27*
X406509Y501148D03*
D15*
X465103Y501148D03*
D60*
X542191Y501148D03*
D44*
X387042Y501537D03*
D24*
X406509Y501537D03*
D59*
X465103Y501537D03*
D44*
X520583Y501537D03*
D113*
X541607Y501537D03*
D42*
X387042Y501926D03*
D27*
X406509Y501926D03*
D200*
X465298Y501926D03*
D76*
X519610Y501926D03*
D60*
X541023Y501926D03*
D42*
X387042Y502316D03*
D12*
X406314Y502316D03*
D15*
X465493Y502316D03*
D23*
X517858Y502316D03*
D60*
X540244Y502316D03*
D44*
X387042Y502705D03*
D26*
X406314Y502705D03*
D59*
X465493Y502705D03*
D122*
X515522Y502705D03*
D77*
X539660Y502705D03*
D42*
X387042Y503094D03*
D12*
X406314Y503094D03*
D42*
X465687Y503094D03*
D108*
X514354Y503094D03*
D79*
X539271Y503094D03*
D102*
X386848Y503484D03*
D26*
X406314Y503484D03*
D59*
X465882Y503484D03*
D106*
X512991Y503484D03*
D77*
X538492Y503484D03*
D64*
X386848Y503873D03*
D94*
X394829Y503873D03*
D42*
X406120Y503873D03*
D27*
X466077Y503873D03*
D95*
X511823Y503873D03*
D79*
X538103Y503873D03*
D42*
X386653Y504262D03*
D95*
X395024Y504262D03*
D42*
X406120Y504262D03*
D15*
X466271Y504262D03*
D95*
X510266Y504262D03*
D20*
X537519Y504262D03*
D44*
X386653Y504652D03*
D43*
X395802Y504652D03*
D44*
X406120Y504652D03*
D59*
X466271Y504652D03*
D105*
X508514Y504652D03*
D13*
X536546Y504652D03*
D42*
X386653Y505041D03*
D61*
X395997Y505041D03*
D42*
X406120Y505041D03*
X466466Y505041D03*
D41*
X506373Y505041D03*
D94*
X536156Y505041D03*
D44*
X386653Y505430D03*
D63*
X396776Y505430D03*
D26*
X405925Y505430D03*
D59*
X466661Y505430D03*
D40*
X504426Y505430D03*
D13*
X535378Y505430D03*
D42*
X386653Y505820D03*
D56*
X397360Y505820D03*
D12*
X405925Y505820D03*
D42*
X466855Y505820D03*
D45*
X502285Y505820D03*
D94*
X534988Y505820D03*
D12*
X386458Y506209D03*
D104*
X397944Y506209D03*
D62*
X406120Y506209D03*
D42*
X466855Y506209D03*
D29*
X500143Y506209D03*
D123*
X534404Y506209D03*
D26*
X386458Y506598D03*
D109*
X398138Y506598D03*
D17*
X406314Y506598D03*
D59*
X467050Y506598D03*
D224*
X498781Y506598D03*
D112*
X533626Y506598D03*
D27*
X386264Y506988D03*
D76*
X398528Y506988D03*
D73*
X406509Y506988D03*
D27*
X467245Y506988D03*
D61*
X495277Y506988D03*
D94*
X532652Y506988D03*
D12*
X386069Y507377D03*
D178*
X398722Y507377D03*
D94*
X406898Y507377D03*
D27*
X467245Y507377D03*
D46*
X492746Y507377D03*
D94*
X532263Y507377D03*
D26*
X386069Y507766D03*
D111*
X407093Y507766D03*
D59*
X467439Y507766D03*
D133*
X490605Y507766D03*
D112*
X531679Y507766D03*
D12*
X386069Y508156D03*
D95*
X407093Y508156D03*
D42*
X467634Y508156D03*
D134*
X488853Y508156D03*
D123*
X531290Y508156D03*
D44*
X385874Y508545D03*
D122*
X407288Y508545D03*
D44*
X467634Y508545D03*
D197*
X487490Y508545D03*
D13*
X530706Y508545D03*
D42*
X385874Y508934D03*
D41*
X407482Y508934D03*
D15*
X467829Y508934D03*
D147*
X485738Y508934D03*
D94*
X530316Y508934D03*
D42*
X385874Y509324D03*
D45*
X407677Y509324D03*
D27*
X468023Y509324D03*
D223*
X483402Y509324D03*
D60*
X529343Y509324D03*
D44*
X385874Y509713D03*
D52*
X407872Y509713D03*
D26*
X468218Y509713D03*
D136*
X479314Y509713D03*
D112*
X528565Y509713D03*
D42*
X385874Y510102D03*
X405341Y510102D03*
D79*
X410013Y510102D03*
D137*
X474253Y510102D03*
D94*
X527981Y510102D03*
D26*
X386069Y510492D03*
D44*
X405341Y510492D03*
D13*
X410402Y510492D03*
D225*
X473085Y510492D03*
D114*
X527397Y510492D03*
D22*
X386264Y510881D03*
D64*
X405146Y510881D03*
D94*
X410792Y510881D03*
D14*
X472306Y510881D03*
D60*
X527007Y510881D03*
D94*
X387042Y511270D03*
D64*
X405146Y511270D03*
D94*
X411181Y511270D03*
D108*
X471138Y511270D03*
D73*
X526034Y511270D03*
D107*
X388405Y511660D03*
D102*
X405146Y511660D03*
D114*
X411765Y511660D03*
D59*
X469386Y511660D03*
D114*
X525450Y511660D03*
D16*
X389962Y512049D03*
D64*
X405146Y512049D03*
D94*
X412738Y512049D03*
D123*
X524671Y512049D03*
D145*
X390352Y512438D03*
D37*
X404952Y512438D03*
D13*
X413128Y512438D03*
D114*
X524282Y512438D03*
D147*
X390741Y512828D03*
D22*
X404952Y512828D03*
D94*
X413517Y512828D03*
X523698Y512828D03*
D226*
X391520Y513217D03*
D82*
X404757Y513217D03*
D94*
X413906Y513217D03*
D79*
X523309Y513217D03*
D213*
X392882Y513606D03*
D77*
X404173Y513606D03*
D13*
X414296Y513606D03*
D112*
X522725Y513606D03*
D160*
X395608Y513996D03*
D110*
X414880Y513996D03*
D123*
X521946Y513996D03*
D227*
X395802Y514385D03*
D20*
X415269Y514385D03*
D79*
X521362Y514385D03*
D217*
X396776Y514774D03*
D124*
X416048Y514774D03*
D77*
X520583Y514774D03*
D154*
X396970Y515164D03*
D94*
X416632Y515164D03*
D60*
X519999Y515164D03*
D228*
X397554Y515553D03*
D124*
X417216Y515553D03*
D141*
X519610Y515553D03*
D229*
X397944Y515942D03*
D20*
X417605Y515942D03*
D79*
X518637Y515942D03*
D68*
X398722Y516332D03*
D84*
X417994Y516332D03*
D79*
X517858Y516332D03*
D101*
X400085Y516721D03*
D85*
X418773Y516721D03*
D77*
X517469Y516721D03*
D84*
X419162Y517110D03*
D79*
X516690Y517110D03*
X419746Y517500D03*
D20*
X516106Y517500D03*
D124*
X420330Y517889D03*
D13*
X515522Y517889D03*
D84*
X420720Y518278D03*
D79*
X514743Y518278D03*
D85*
X421109Y518668D03*
D124*
X514159Y518668D03*
D79*
X421693Y519057D03*
D20*
X513381Y519057D03*
X422277Y519446D03*
D79*
X512797Y519446D03*
D124*
X422666Y519836D03*
X512213Y519836D03*
D79*
X423250Y520225D03*
D94*
X511629Y520225D03*
D13*
X423640Y520614D03*
D124*
X511045Y520614D03*
D110*
X424224Y521004D03*
D94*
X510461Y521004D03*
D20*
X424613Y521393D03*
D94*
X509682Y521393D03*
D114*
X425392Y521782D03*
X509098Y521782D03*
D94*
X425976Y522172D03*
X508514Y522172D03*
D13*
X426365Y522561D03*
D88*
X507346Y522561D03*
D94*
X426754Y522950D03*
D20*
X506762Y522950D03*
D79*
X427144Y523340D03*
D115*
X506178Y523340D03*
D111*
X428117Y523729D03*
D124*
X505594Y523729D03*
D20*
X428506Y524118D03*
X505205Y524118D03*
X429285Y524508D03*
X504426Y524508D03*
D124*
X429674Y524897D03*
D98*
X503842Y524897D03*
D110*
X430064Y525286D03*
D79*
X503063Y525286D03*
D124*
X430453Y525676D03*
D13*
X502285Y525676D03*
D20*
X430842Y526065D03*
D79*
X501506Y526065D03*
D86*
X431426Y526454D03*
D79*
X501117Y526454D03*
D98*
X431816Y526844D03*
D77*
X500338Y526844D03*
D20*
X432400Y527233D03*
D84*
X499754Y527233D03*
D124*
X432789Y527622D03*
D85*
X498975Y527622D03*
D20*
X433178Y528012D03*
X498197Y528012D03*
D94*
X433762Y528401D03*
D20*
X497418Y528401D03*
D13*
X434152Y528790D03*
D85*
X497029Y528790D03*
D94*
X434541Y529180D03*
D20*
X496250Y529180D03*
D60*
X435125Y529569D03*
D20*
X495861Y529569D03*
D112*
X435514Y529958D03*
D111*
X495471Y529958D03*
D60*
X435904Y530348D03*
D20*
X494693Y530348D03*
D13*
X436488Y530737D03*
D98*
X493719Y530737D03*
D60*
X437072Y531126D03*
D86*
X492941Y531126D03*
D123*
X437461Y531516D03*
D86*
X492162Y531516D03*
D141*
X437850Y531905D03*
D106*
X491578Y531905D03*
D60*
X438240Y532294D03*
D95*
X490799Y532294D03*
D114*
X439018Y532684D03*
D106*
X490410Y532684D03*
D60*
X439408Y533073D03*
D115*
X489826Y533073D03*
D76*
X439797Y533462D03*
D115*
X489437Y533462D03*
D141*
X440576Y533852D03*
D106*
X488853Y533852D03*
D60*
X440965Y534241D03*
D86*
X488269Y534241D03*
D114*
X441354Y534630D03*
D98*
X487490Y534630D03*
D76*
X441744Y535020D03*
D20*
X486906Y535020D03*
D73*
X442328Y535409D03*
D20*
X486127Y535409D03*
D113*
X442717Y535798D03*
D98*
X485543Y535798D03*
D73*
X443106Y536188D03*
D115*
X484765Y536188D03*
D73*
X443496Y536577D03*
D95*
X484181Y536577D03*
D113*
X443885Y536966D03*
D98*
X483597Y536966D03*
D73*
X444664Y537356D03*
D95*
X483013Y537356D03*
D113*
X445053Y537745D03*
D109*
X482234Y537745D03*
D73*
X445442Y538134D03*
D23*
X481650Y538134D03*
D73*
X445832Y538524D03*
D90*
X481066Y538524D03*
D113*
X446221Y538913D03*
D92*
X480482Y538913D03*
D82*
X446805Y539302D03*
D86*
X479703Y539302D03*
D72*
X447194Y539692D03*
D86*
X478925Y539692D03*
D17*
X447584Y540081D03*
D88*
X478146Y540081D03*
D73*
X448168Y540470D03*
D86*
X477757Y540470D03*
D113*
X448557Y540860D03*
D109*
X477173Y540860D03*
D72*
X449141Y541249D03*
D90*
X476783Y541249D03*
D72*
X449530Y541638D03*
D95*
X476005Y541638D03*
D113*
X450114Y542028D03*
D96*
X474837Y542028D03*
D73*
X450504Y542417D03*
D95*
X474447Y542417D03*
D113*
X450893Y542806D03*
D88*
X473863Y542806D03*
D73*
X451282Y543196D03*
D95*
X473279Y543196D03*
D73*
X451672Y543585D03*
D95*
X472501Y543585D03*
D113*
X452061Y543974D03*
D106*
X471722Y543974D03*
D123*
X452645Y544364D03*
D108*
X470749Y544364D03*
D114*
X453034Y544753D03*
D40*
X470165Y544753D03*
D60*
X453423Y545142D03*
D23*
X469581Y545142D03*
D73*
X454007Y545532D03*
D23*
X468802Y545532D03*
D113*
X454397Y545921D03*
D48*
X468023Y545921D03*
D73*
X454786Y546310D03*
D41*
X467050Y546310D03*
D73*
X455175Y546700D03*
D41*
X466271Y546700D03*
D113*
X455565Y547089D03*
D40*
X465493Y547089D03*
D60*
X456149Y547478D03*
D23*
X464909Y547478D03*
D13*
X456733Y547868D03*
D105*
X464130Y547868D03*
D53*
X460821Y548257D03*
D68*
X460626Y548646D03*
D63*
X460626Y549036D03*
D33*
X460626Y549425D03*
D101*
X460431Y549814D03*
D86*
X460237Y550204D03*
D76*
X460042Y550593D03*
D44*
X460237Y550982D03*
M02*
